<?xml version="1.0" standalone="no"?>
<!DOCTYPE svg PUBLIC "-//W3C//DTD SVG 1.1//EN" "http://www.w3.org/Graphics/SVG/1.1/DTD/svg11.dtd" >
<svg>
<metadata>
Created by FontForge 20120731 at Sun Aug 14 13:03:52 2016
 By www-data
Copyright (c) 2014, Cooper Hewitt Smithsonian Design Museum (cooperhewitt.org)
</metadata>
<defs>
<font id="CooperHewittInterpol2-Semibold" horiz-adv-x="300" >
  <font-face 
    font-family="Cooper Hewitt Interpol 2"
    font-weight="709"
    font-stretch="normal"
    units-per-em="1000"
    panose-1="0 0 0 0 0 0 0 0 0 0"
    ascent="750"
    descent="-250"
    x-height="530"
    cap-height="780"
    bbox="-240 -223 1383 966"
    underline-thickness="50"
    underline-position="-75"
    unicode-range="U+0020-F6C3"
  />
<missing-glyph horiz-adv-x="964" 
d="M527 390l275 275v-550zM437 390l-275 -275v550zM203 714h558l-279 -279zM482 345l279 -279h-558zM92 0h780v780h-780v-780z" />
    <glyph glyph-name=".notdef" horiz-adv-x="964" 
d="M527 390l275 275v-550zM437 390l-275 -275v550zM203 714h558l-279 -279zM482 345l279 -279h-558zM92 0h780v780h-780v-780z" />
    <glyph glyph-name="space" unicode=" " horiz-adv-x="200" 
 />
    <glyph glyph-name="exclam" unicode="!" horiz-adv-x="250" 
d="M196 141h-142v-141h142v141zM44 780l36 -564h90l36 564h-162z" />
    <glyph glyph-name="quotedbl" unicode="&#x22;" horiz-adv-x="413" 
d="M229 780l9 -306h99l22 306h-130zM54 780l21 -306h100l9 306h-130z" />
    <glyph glyph-name="numbersign" unicode="#" horiz-adv-x="600" 
d="M262 459h102l-27 -138h-102zM75 459h72l-27 -138h-94v-115h71l-40 -206h116l40 206h102l-40 -206h115l40 206h95v115h-72l27 138h94v115h-72l41 206h-116l-40 -206h-102l40 206h-115l-41 -206h-94v-115z" />
    <glyph glyph-name="dollar" unicode="$" horiz-adv-x="600" 
d="M188 535v5l15 44l38 27l55 10h9l-40 -167l-46 18l-24 27zM306 160h-9l41 174l45 -18l26 -28l8 -37v-5l-14 -46l-39 -30zM459 840h-102l-27 -111h-10l-10 1h-10l-129 -23l-84 -67l-31 -106v-9l19 -85l60 -57l105 -33l-36 -151l-13 22l-7 27l-3 31h-132v-6l14 -88l42 -67
l69 -45l-32 -133h102l27 112l10 -1h11h12l135 24l84 69l28 108v9l-22 90l-63 56l-103 31l33 138l10 -23l6 -28l2 -32h131v14l-13 90l-38 67l-67 45z" />
    <glyph glyph-name="percent" unicode="%" horiz-adv-x="963" 
d="M297 611v-14l-11 -44l-28 -29l-42 -10h-6l-42 10l-28 29l-10 44v14l10 44l28 28l42 10h6l42 -10l28 -28zM666 169v14l10 44l28 29l42 10h6l42 -10l28 -29l11 -44v-14l-11 -44l-28 -28l-42 -10h-6l-42 10l-28 28zM567 182v-11l24 -101l65 -62l93 -21l94 21l65 62l24 101
v11l-24 100l-65 62l-94 21l-93 -21l-65 -62zM377 0l298 716v67l-48 -14l-73 -12l-83 -6l-65 2l-55 8l-52 15l-27 9l-29 6l-30 2l-93 -21l-65 -62l-24 -101v-11l24 -100l65 -62l93 -21l94 21l65 62l24 100v11v14l-1 13l-2 13l18 -2l18 -2h20l38 2l29 5l17 3l-272 -655h116z
" />
    <glyph glyph-name="ampersand" unicode="&#x26;" horiz-adv-x="681" 
d="M198 614l8 35l24 25l39 9h7l39 -9l24 -25l8 -35v-7l-14 -46l-37 -38l-51 -34l-24 37l-17 39l-6 42v7zM274 101l-64 15l-38 40l-12 63v7l7 44l20 36l31 31l175 -202l-34 -19l-38 -11l-42 -4h-5zM255 -13l80 7l72 21l62 32l42 -47h159l-113 130l46 78l28 89l10 95v3h-137
v-3l-4 -60l-11 -54l-18 -48l-151 173l77 50l59 65l23 90v11l-22 87l-67 63l-117 24l-118 -24l-67 -63l-22 -87v-11l9 -69l25 -57l41 -56l-58 -51l-41 -67l-16 -89v-11l27 -117l79 -76z" />
    <glyph glyph-name="quotesingle" unicode="'" horiz-adv-x="250" 
d="M54 780l21 -306h100l21 306h-142z" />
    <glyph glyph-name="parenleft" unicode="(" horiz-adv-x="350" 
d="M42 350l20 -199l53 -148l75 -123h136l-77 132l-55 152l-21 186v20l21 186l55 152l77 132h-136l-75 -123l-53 -148l-20 -199v-20z" />
    <glyph glyph-name="parenright" unicode=")" horiz-adv-x="350" 
d="M308 370l-20 199l-53 148l-75 123h-136l78 -132l54 -152l21 -186v-20l-21 -186l-54 -152l-78 -132h136l75 123l53 148l20 199v20z" />
    <glyph glyph-name="asterisk" unicode="*" horiz-adv-x="405" 
d="M348 472l-85 108l-55 -40l77 -114zM374 703l-129 -47l21 -64l133 37zM120 426l77 114l-55 40l-85 -108zM6 629l133 -37l21 64l-129 47zM164 800l5 -137h67l5 137h-77z" />
    <glyph glyph-name="plus" unicode="+" horiz-adv-x="600" 
d="M241 646v-197h-197v-118h197v-197h118v197h197v118h-197v197h-118z" />
    <glyph glyph-name="comma" unicode="," horiz-adv-x="250" 
d="M196 141h-142v-141h72l-15 -38l-27 -22l-41 -7v-68l85 19l51 55l17 91v111z" />
    <glyph glyph-name="hyphen" unicode="-" horiz-adv-x="345" 
d="M40 293h265v114h-265v-114z" />
    <glyph glyph-name="period" unicode="." horiz-adv-x="250" 
d="M196 141h-142v-141h142v141z" />
    <glyph glyph-name="slash" unicode="/" horiz-adv-x="388" 
d="M373 840h-128l-230 -960h128z" />
    <glyph glyph-name="zero" unicode="0" horiz-adv-x="600" 
d="M417 554v-328l-11 -64l-37 -43l-67 -15h-4l-67 15l-37 43l-11 64v328l11 64l37 43l67 15h4l67 -15l37 -43zM550 222v336l-27 121l-83 83l-140 31l-140 -31l-83 -83l-27 -121v-336l27 -121l83 -83l140 -31l140 31l83 83z" />
    <glyph glyph-name="one" unicode="1" horiz-adv-x="600" 
d="M558 0v117h-182v665h-96l-243 -166l65 -97l142 96v-498h-182v-117h496z" />
    <glyph glyph-name="two" unicode="2" horiz-adv-x="600" 
d="M309 117l-70 -1l225 245l51 62l29 63l9 76v17l-26 103l-81 80l-146 31l-142 -29l-84 -84l-27 -139v-21h132l14 91l40 50l63 15h8l60 -14l41 -41l15 -66v-10l-6 -43l-20 -38l-34 -41l-313 -340v-83h506v117h-244z" />
    <glyph glyph-name="three" unicode="3" horiz-adv-x="600" 
d="M174 250h-132v-13l28 -135l86 -85l144 -30l145 33l85 82l28 104v18l-14 78l-37 58l-53 38l51 38l35 55l13 76v18l-26 99l-81 78l-146 31l-142 -29l-84 -84l-27 -139v-21h132l14 91l39 50l63 15h10l60 -13l40 -37l15 -57v-9l-14 -59l-40 -34l-60 -11h-106v-116h109l61 -12
l40 -36l15 -61v-12l-17 -65l-44 -38l-59 -12h-10l-63 14l-42 47z" />
    <glyph glyph-name="four" unicode="4" horiz-adv-x="600" 
d="M342 568l-2 -71v-199h-108l-62 -1zM472 0v182h99v116h-99v482h-125l-318 -507v-91h311v-182h132z" />
    <glyph glyph-name="five" unicode="5" horiz-adv-x="600" 
d="M42 250v-13l28 -135l86 -85l144 -30l139 30l88 86l31 134v16l-31 134l-86 86l-135 30l-49 -4l-46 -12l-41 -18l9 194h369v117h-481l-19 -431l113 -38l33 42l47 25l51 8h7l63 -13l46 -44l17 -77v-14l-17 -77l-44 -44l-59 -13h-10l-63 14l-42 47l-16 85h-132z" />
    <glyph glyph-name="six" unicode="6" horiz-adv-x="600" 
d="M304 375h5l61 -14l42 -41l15 -70v-19l-16 -69l-43 -43l-63 -15h-6l-62 18l-44 53l-17 85v39l34 41l44 26zM521 793l-141 -14l-125 -47l-101 -91l-65 -115l-35 -120l-10 -123v-13l31 -150l89 -98l138 -35l140 29l87 85l30 135v10l-28 133l-79 83l-116 29l-54 -6l-47 -16
l-39 -25l15 44l21 41l25 38l71 62l88 34l105 11v119z" />
    <glyph glyph-name="seven" unicode="7" horiz-adv-x="600" 
d="M43 500h117v163h152l100 2l-276 -665h141l284 698v82h-518v-280z" />
    <glyph glyph-name="eight" unicode="8" horiz-adv-x="600" 
d="M305 676l60 -13l40 -37l15 -56v-8l-14 -59l-40 -36l-60 -11h-12l-60 11l-40 36l-14 59v8l15 56l40 37l60 13h10zM291 340h18l61 -12l40 -37l15 -61v-12l-17 -65l-44 -37l-59 -12h-10l-59 12l-44 37l-17 65v12l15 61l40 37zM300 -13l145 33l85 81l28 104v18l-14 78l-37 58
l-53 39l51 38l35 56l13 76v18l-26 99l-81 77l-146 31l-146 -31l-81 -77l-26 -99v-18l13 -76l35 -56l51 -38l-53 -39l-37 -58l-14 -78v-18l28 -104l85 -81z" />
    <glyph glyph-name="nine" unicode="9" horiz-adv-x="600" 
d="M296 405h-5l-61 14l-42 41l-15 70v19l16 69l43 43l63 15h6l62 -18l44 -53l17 -85v-10v-10v-10l-1 -10l-33 -41l-44 -25zM79 -13l141 14l125 47l101 91l65 115l35 120l10 123v13l-31 150l-89 98l-138 35l-140 -29l-87 -85l-30 -135v-10l28 -133l79 -83l116 -29l54 6l46 16
l39 25l-15 -45l-20 -41l-25 -37l-71 -62l-88 -34l-105 -11v-119z" />
    <glyph glyph-name="colon" unicode=":" horiz-adv-x="250" 
d="M196 141h-142v-141h142v141zM196 461h-142v-142h142v142z" />
    <glyph glyph-name="semicolon" unicode=";" horiz-adv-x="250" 
d="M196 461h-142v-142h142v142zM196 141h-142v-141h72l-15 -38l-27 -22l-41 -7v-68l85 19l51 55l17 91v111z" />
    <glyph glyph-name="less" unicode="&#x3c;" horiz-adv-x="600" 
d="M44 454v-128l512 -215v130l-372 149l372 149v130z" />
    <glyph glyph-name="equal" unicode="=" horiz-adv-x="600" 
d="M44 225h512v118h-512v-118zM44 437h512v118h-512v-118z" />
    <glyph glyph-name="greater" unicode="&#x3e;" horiz-adv-x="600" 
d="M556 454l-512 215v-130l372 -149l-372 -149v-130l512 215v128z" />
    <glyph glyph-name="question" unicode="?" horiz-adv-x="484" 
d="M310 141h-142v-141h142v141zM246 677l51 -12l26 -34l7 -53l-38 -98l-69 -108l-29 -156h90l52 138l83 92l44 143l-20 101l-67 74l-130 29l-133 -32l-70 -91l-20 -142v-15h131l8 91l29 55z" />
    <glyph glyph-name="at" unicode="@" horiz-adv-x="981" 
d="M574 208l-21 -26l-34 -22l-45 -10l-57 16l-33 46l-11 68v30l11 68l33 46l57 16l45 -10l34 -22l21 -26v-174zM510 -124l-204 44l-137 131l-50 219v40l50 217l135 132l201 45h6l168 -27l129 -96l52 -186v-30l-18 -131l-56 -66l-97 -21v243l8 140h-102l-11 -64l-34 40
l-47 27l-62 10l-106 -31l-63 -83l-20 -119v-30l20 -119l63 -83l106 -31l62 10l47 27l34 39l11 -63h86l139 26l97 93l36 186v30l-62 227l-161 130l-222 41l-248 -57l-169 -163l-62 -263v-40l63 -263l170 -163l251 -57l122 10l129 38l132 79l-51 69l-102 -60l-110 -35
l-117 -12h-6z" />
    <glyph glyph-name="A" unicode="A" horiz-adv-x="631" 
d="M316 631l81 -336h-163zM223 784l-205 -784h145l43 178h220l43 -178h144l-205 784h-185z" />
    <glyph glyph-name="B" unicode="B" horiz-adv-x="617" 
d="M300 663l53 -8l41 -30l16 -58v-13l-16 -58l-41 -30l-53 -8h-105v205h105zM315 341l56 -10l42 -33l17 -64v-11l-17 -63l-42 -33l-56 -10h-120v224h120zM61 780v-780h249l123 17l95 67l38 135v20l-14 76l-38 53l-55 34l45 33l31 48l11 67v20l-36 130l-91 64l-119 16h-239z
" />
    <glyph glyph-name="C" unicode="C" horiz-adv-x="640" 
d="M181 370v40l13 147l47 89l87 30h9l75 -21l39 -64l12 -104h135v34l-30 155l-90 89l-149 28l-161 -39l-93 -125l-31 -219v-40l31 -219l93 -125l161 -39l149 28l90 87l30 151v10h-135l-12 -85l-41 -55l-73 -19h-9l-88 30l-46 89z" />
    <glyph glyph-name="D" unicode="D" horiz-adv-x="655" 
d="M195 117v546h88l111 -26l61 -83l19 -144v-40l-19 -144l-61 -83l-111 -26h-88zM611 370v40l-34 216l-106 118l-180 36h-230v-780h230l180 36l106 118z" />
    <glyph glyph-name="E" unicode="E" horiz-adv-x="565" 
d="M61 780v-780h464v117h-330v223h280v116h-280v207h330v117h-464z" />
    <glyph glyph-name="F" unicode="F" horiz-adv-x="538" 
d="M61 780v-780h134v340h273v116h-273v207h323v117h-457z" />
    <glyph glyph-name="G" unicode="G" horiz-adv-x="664" 
d="M346 -13l115 13l85 34l62 44v332h-247v-116h113v-151l-31 -19l-41 -15l-51 -5h-9l-96 30l-51 89l-14 147v40l14 147l49 89l91 30h9l77 -21l41 -64l12 -104h134v34l-31 155l-91 89l-150 28l-162 -39l-98 -125l-32 -219v-40l33 -219l100 -125z" />
    <glyph glyph-name="H" unicode="H" horiz-adv-x="655" 
d="M460 780v-324h-265v324h-134v-780h134v340h265v-340h134v780h-134z" />
    <glyph glyph-name="I" unicode="I" horiz-adv-x="266" 
d="M200 780h-134v-780h134v780z" />
    <glyph glyph-name="J" unicode="J" horiz-adv-x="524" 
d="M334 780v-524l-8 -84l-29 -51l-54 -17l-54 17l-29 53l-8 89h-127v-23l21 -137l69 -86l131 -30l128 30l72 86l22 136v541h-134z" />
    <glyph glyph-name="K" unicode="K" horiz-adv-x="606" 
d="M195 780h-134v-780h134v230l79 112l158 -342h149l-222 463l222 317h-162l-224 -345v345z" />
    <glyph glyph-name="L" unicode="L" horiz-adv-x="511" 
d="M496 0v117h-301v663h-134v-780h435z" />
    <glyph glyph-name="M" unicode="M" horiz-adv-x="849" 
d="M658 547l-4 -161v-386h134v780h-197l-167 -548l-166 548h-197v-780h134v386l-4 161l166 -547h134z" />
    <glyph glyph-name="N" unicode="N" horiz-adv-x="675" 
d="M614 780h-127v-373l4 -165l-288 538h-142v-780h127v373l-4 165l288 -538h142v780z" />
    <glyph glyph-name="O" unicode="O" horiz-adv-x="665" 
d="M328 104l-87 30l-46 89l-14 147v40l14 147l46 89l87 30h9l87 -30l46 -89l14 -147v-40l-14 -147l-46 -89l-87 -30h-9zM333 -13l161 39l96 125l31 219v40l-31 219l-96 125l-161 39l-162 -39l-96 -125l-31 -219v-40l31 -219l96 -125z" />
    <glyph glyph-name="P" unicode="P" horiz-adv-x="598" 
d="M195 408v255h115l54 -9l46 -36l20 -77v-11l-20 -77l-46 -36l-54 -9h-115zM195 291h110l122 17l98 69l41 149v20l-41 149l-98 68l-122 17h-244v-780h134v291z" />
    <glyph glyph-name="Q" unicode="Q" horiz-adv-x="665" 
d="M378 251h-103l56 -147h-3l-87 30l-46 89l-14 147v40l14 147l46 89l87 30h9l87 -30l46 -89l14 -147v-40l-6 -104l-19 -79l-35 -53zM333 -13h14l14 1l14 1l34 -89h107l-45 113l84 70l50 118l16 169v40l-31 219l-96 125l-161 39l-162 -39l-96 -125l-31 -219v-40l31 -219
l96 -125z" />
    <glyph glyph-name="R" unicode="R" horiz-adv-x="611" 
d="M195 408v255h115l54 -9l46 -36l20 -77v-11l-20 -77l-46 -36l-54 -9h-115zM195 291h114l112 -291h145l-127 312l64 40l46 69l17 105v20l-41 149l-98 68l-122 17h-244v-780h134v291z" />
    <glyph glyph-name="S" unicode="S" horiz-adv-x="621" 
d="M290 340l94 -23l49 -39l14 -58v-6l-16 -57l-44 -39l-72 -14h-9l-72 17l-47 51l-16 91h-134v-10l31 -149l92 -88l151 -29l148 28l93 79l32 125v11l-27 113l-83 71l-141 37l-94 24l-46 38l-12 55v6l15 54l42 35l65 13h9l75 -18l43 -55l13 -96h134v23l-28 146l-87 88
l-151 29l-144 -28l-91 -78l-32 -120v-10l26 -108l81 -71z" />
    <glyph glyph-name="T" unicode="T" horiz-adv-x="544" 
d="M339 663h186v117h-506v-117h186v-663h134v663z" />
    <glyph glyph-name="U" unicode="U" horiz-adv-x="655" 
d="M328 -13l158 28l87 85l26 145v535h-134v-530l-13 -84l-44 -47l-80 -15l-81 15l-44 47l-13 84v530h-134v-535l27 -145l86 -85z" />
    <glyph glyph-name="V" unicode="V" horiz-adv-x="631" 
d="M408 -4l205 784h-144l-153 -631l-154 631h-144l205 -784h185z" />
    <glyph glyph-name="W" unicode="W" horiz-adv-x="924" 
d="M590 -4h174l134 784h-140l-89 -604l-123 604h-169l-122 -604l-89 604h-140l134 -784h173l129 632z" />
    <glyph glyph-name="X" unicode="X" horiz-adv-x="638" 
d="M22 0h150l146 312l148 -312h149l-201 406l201 374h-156l-140 -281l-141 281h-156l201 -375z" />
    <glyph glyph-name="Y" unicode="Y" horiz-adv-x="610" 
d="M372 238l226 542h-146l-147 -377l-147 377h-146l226 -542v-238h134v238z" />
    <glyph glyph-name="Z" unicode="Z" horiz-adv-x="587" 
d="M40 92v-92h507v117h-206l-137 -3l333 574v92h-487v-117h186l137 3z" />
    <glyph glyph-name="bracketleft" unicode="[" horiz-adv-x="350" 
d="M61 840v-960h254v115h-124v730h124v115h-254z" />
    <glyph glyph-name="backslash" unicode="\" horiz-adv-x="386" 
d="M245 -120h128l-230 960h-128z" />
    <glyph glyph-name="bracketright" unicode="]" horiz-adv-x="350" 
d="M290 -120v960h-254v-115h123v-730h-123v-115h254z" />
    <glyph glyph-name="asciicircum" unicode="^" horiz-adv-x="600" 
d="M364 780h-128l-215 -513h130l149 373l149 -373h130z" />
    <glyph glyph-name="underscore" unicode="_" horiz-adv-x="320" 
d="M44 -169h232v114h-232v-114z" />
    <glyph glyph-name="grave" unicode="`" horiz-adv-x="500" 
d="M82 780l103 -179h130l-91 179h-142z" />
    <glyph glyph-name="a" unicode="a" horiz-adv-x="538" 
d="M239 94l-43 10l-24 23l-8 32v8l8 36l26 25l45 15l111 18v-112l-24 -24l-38 -22zM377 0h115l-8 150v192l-19 107l-67 69l-129 25l-131 -27l-66 -66l-18 -86v-9h124l7 43l26 32l55 12l53 -11l27 -33l8 -56v-2l-135 -21l-94 -24l-66 -51l-25 -91v-10l17 -78l52 -56l91 -22
l72 10l57 26l44 38z" />
    <glyph glyph-name="b" unicode="b" horiz-adv-x="563" 
d="M187 369l22 27l34 24l48 10l60 -18l34 -51l11 -80v-32l-11 -80l-34 -50l-60 -18l-48 10l-34 23l-22 27v208zM187 800h-130v-650l-8 -150h115l11 66l36 -40l50 -29l67 -10l116 34l63 93l19 135v32l-19 135l-63 93l-116 34l-59 -8l-47 -22l-35 -32v319z" />
    <glyph glyph-name="c" unicode="c" horiz-adv-x="525" 
d="M166 249v32l11 80l34 51l62 18l53 -13l31 -35l10 -54h123v22l-24 98l-72 69l-124 26l-133 -34l-77 -93l-24 -135v-32l24 -135l77 -93l133 -34l124 26l72 66l24 93v21h-123l-10 -47l-30 -33l-54 -12l-62 18l-34 51z" />
    <glyph glyph-name="d" unicode="d" horiz-adv-x="569" 
d="M381 161l-21 -27l-35 -23l-48 -10l-60 18l-34 50l-11 80v32l11 80l34 51l60 18l48 -10l35 -24l21 -27v-208zM241 543l-116 -34l-64 -93l-19 -135v-32l19 -135l64 -93l116 -34l66 10l50 29l36 40l11 -66h115l-8 150v650h-130v-319l-35 32l-46 22z" />
    <glyph glyph-name="e" unicode="e" horiz-adv-x="553" 
d="M276 442l59 -15l36 -43l14 -71h-219l15 71l36 43zM516 217v61l-25 136l-78 94l-134 35l-136 -35l-80 -94l-27 -136v-26l26 -136l82 -94l140 -35l128 25l78 65l26 89v4h-123l-12 -39l-36 -31l-60 -12l-63 14l-39 43l-17 72h350z" />
    <glyph glyph-name="f" unicode="f" horiz-adv-x="401" 
d="M234 613l10 54l30 26l46 7l20 -1l19 -4l12 -3v108l-14 5l-28 6l-40 2l-96 -18l-65 -59l-24 -108v-98h-81v-114h81v-416h130v416h127v114h-127v83z" />
    <glyph glyph-name="g" unicode="g" horiz-adv-x="563" 
d="M376 194l-22 -26l-34 -24l-49 -10l-58 16l-35 45l-12 74v26l12 71l35 47l58 17l49 -10l34 -24l22 -27v-175zM376 8l-11 -66l-35 -36l-60 -12l-60 13l-32 36l-9 57h-123v-19l21 -98l72 -69l134 -27l132 26l76 74l25 119v374l8 150h-115l-11 -65l-36 40l-50 28l-67 10
l-115 -33l-64 -89l-20 -126v-26l20 -129l64 -87l115 -32l59 8l47 21l35 32v-74z" />
    <glyph glyph-name="h" unicode="h" horiz-adv-x="563" 
d="M188 800h-130v-800h130v369l22 27l36 24l52 10l48 -11l27 -32l9 -45v-342h129v363l-16 89l-53 66l-94 25l-67 -9l-54 -23l-39 -35v324z" />
    <glyph glyph-name="i" unicode="i" horiz-adv-x="250" 
d="M196 763h-142v-141h142v141zM60 0h130v530h-130v-530z" />
    <glyph glyph-name="j" unicode="j" horiz-adv-x="252" 
d="M196 763h-142v-141h142v141zM60 -13l-10 -54l-30 -26l-46 -7l-20 1l-19 4l-12 3v-108l15 -5l27 -6l40 -2l96 18l65 59l24 108v558h-130v-543z" />
    <glyph glyph-name="k" unicode="k" horiz-adv-x="543" 
d="M54 0h130v147l71 81l116 -228h151l-178 329l178 201h-157l-181 -214v484h-130v-800z" />
    <glyph glyph-name="l" unicode="l" horiz-adv-x="250" 
d="M60 0h130v800h-130v-800z" />
    <glyph glyph-name="m" unicode="m" horiz-adv-x="844" 
d="M793 0v371l-17 89l-51 61l-87 22l-72 -11l-54 -30l-39 -43l-30 44l-45 30l-62 10l-69 -10l-53 -29l-39 -40l-11 66h-115l9 -150v-380h130v373l20 25l31 23l46 9l41 -8l26 -27l9 -44v-351h129v373l21 25l31 23l46 9l41 -8l25 -27l9 -44v-351h130z" />
    <glyph glyph-name="n" unicode="n" horiz-adv-x="563" 
d="M511 0v363l-16 89l-53 66l-94 25l-75 -11l-56 -29l-41 -43l-12 70h-115l9 -150v-380h130v369l22 27l36 24l52 10l48 -11l27 -32l9 -45v-342h129z" />
    <glyph glyph-name="o" unicode="o" horiz-adv-x="553" 
d="M276 101l-62 18l-36 51l-12 79v32l12 80l36 51l62 18l62 -18l36 -51l12 -80v-32l-12 -79l-36 -51zM276 -13l136 34l79 93l25 135v32l-25 135l-79 93l-136 34l-136 -34l-79 -93l-25 -135v-32l25 -135l79 -93z" />
    <glyph glyph-name="p" unicode="p" horiz-adv-x="563" 
d="M187 369l22 27l34 24l48 10l60 -18l34 -51l11 -80v-32l-11 -80l-34 -50l-60 -18l-48 10l-34 23l-22 27v208zM328 -13l116 34l63 93l19 135v32l-19 135l-63 93l-116 34l-67 -10l-50 -29l-36 -40l-11 66h-115l8 -150v-580h130v249l35 -33l47 -21z" />
    <glyph glyph-name="q" unicode="q" horiz-adv-x="568" 
d="M378 161l-22 -27l-34 -23l-49 -10l-60 18l-34 50l-11 80v32l11 80l34 51l60 18l49 -10l34 -24l22 -27v-208zM378 -200h130v580l8 150h-115l-11 -67l-36 41l-50 28l-67 11l-116 -34l-64 -93l-19 -135v-32l19 -135l64 -93l116 -34l59 8l47 22l35 33v-250z" />
    <glyph glyph-name="r" unicode="r" horiz-adv-x="368" 
d="M318 543l-59 -10l-48 -27l-36 -40l-11 64h-115l9 -150v-380h130v360l23 25l41 22l59 9h22v126h-4l-5 1h-6z" />
    <glyph glyph-name="s" unicode="s" horiz-adv-x="526" 
d="M263 88l-55 11l-29 28l-8 39h-129v-4l23 -88l73 -63l125 -24l122 21l74 60l25 91v7l-25 84l-71 45l-114 20l-60 11l-29 20l-8 33l10 34l29 21l47 8l51 -10l28 -29l9 -46h127v5l-22 96l-70 63l-123 22l-111 -18l-75 -55l-28 -94v-8l20 -77l66 -46l118 -23l60 -10l31 -21
l10 -37l-10 -34l-30 -24z" />
    <glyph glyph-name="t" unicode="t" horiz-adv-x="421" 
d="M234 530v150h-130v-150h-81v-114h81v-243l24 -109l65 -59l96 -18l40 2l28 6l14 5v108l-12 -3l-19 -3l-20 -1l-46 7l-30 25l-10 54v229h147v114h-147z" />
    <glyph glyph-name="u" unicode="u" horiz-adv-x="563" 
d="M52 530v-362l16 -90l53 -66l94 -25l75 11l56 29l41 43l12 -70h115l-8 150v380h-130v-369l-22 -27l-36 -23l-52 -10l-49 11l-27 31l-9 45v342h-129z" />
    <glyph glyph-name="v" unicode="v" horiz-adv-x="538" 
d="M179 0h180l164 530h-135l-119 -422l-119 422h-136z" />
    <glyph glyph-name="w" unicode="w" horiz-adv-x="750" 
d="M375 393l89 -393h165l99 530h-128l-57 -390l-90 390h-156l-90 -390l-57 390h-127l98 -530h165z" />
    <glyph glyph-name="x" unicode="x" horiz-adv-x="535" 
d="M19 530l144 -259l-144 -271h148l100 204l101 -204h148l-144 271l144 259h-151l-97 -191l-98 191h-151z" />
    <glyph glyph-name="y" unicode="y" horiz-adv-x="530" 
d="M268 162l-116 368h-141l187 -504l-84 -226h154l70 226l187 504h-140z" />
    <glyph glyph-name="z" unicode="z" horiz-adv-x="489" 
d="M28 89v-89h433v114h-150l-113 -3l253 330v89h-413v-114h130l113 3z" />
    <glyph glyph-name="braceleft" unicode="{" horiz-adv-x="350" 
d="M315 840h-25l-97 -15l-66 -52l-25 -99v-173l-8 -50l-26 -25l-44 -8v-116l42 -7l26 -24l10 -45v-180l25 -99l66 -52l97 -15h25v115l-45 8l-28 29l-9 54v162l-7 49l-20 37l-32 26l32 25l20 37l7 50v162l9 54l28 29l45 8v115z" />
    <glyph glyph-name="bar" unicode="|" horiz-adv-x="243" 
d="M57 -120h128v960h-128v-960z" />
    <glyph glyph-name="braceright" unicode="}" horiz-adv-x="350" 
d="M36 -120h24l97 15l66 52l25 99v180l10 45l26 24l42 7v116l-42 7l-26 24l-10 45v180l-25 99l-66 52l-97 15h-24v-115l45 -8l27 -29l9 -54v-162l7 -50l20 -37l31 -25l-31 -26l-20 -37l-7 -49v-162l-9 -54l-27 -29l-45 -8v-115z" />
    <glyph glyph-name="asciitilde" unicode="~" horiz-adv-x="600" 
d="M182 473l-64 -13l-51 -33l-36 -43l63 -64l22 22l31 20l39 9l71 -18l72 -32l89 -18l64 13l51 33l36 43l-63 64l-22 -22l-31 -20l-39 -9l-71 18l-72 32z" />
    <glyph glyph-name="nbspace" unicode="&#xa0;" horiz-adv-x="200" 
 />
    <glyph glyph-name="exclamdown" unicode="&#xa1;" horiz-adv-x="250" 
d="M54 389h142v141h-142v-141zM206 -200l-36 514h-90l-36 -514h162z" />
    <glyph glyph-name="cent" unicode="&#xa2;" horiz-adv-x="600" 
d="M180 373v34l12 109l38 69l68 28l-93 -386l-14 39l-9 49zM454 840h-102l-27 -110h-16l-148 -37l-87 -108l-28 -178v-34l14 -130l41 -97l70 -63l-34 -143h102l27 114l14 -1l14 -1h15l137 26l81 76l27 121v16h-130l-11 -65l-35 -43l-64 -16h-21l100 417l18 -29l10 -38l3 -47
h130v27l-14 97l-44 72l-73 46z" />
    <glyph glyph-name="sterling" unicode="&#xa3;" horiz-adv-x="600" 
d="M324 677l57 -21l32 -61l10 -95h131v16l-22 150l-73 94l-135 33l-131 -31l-72 -77l-21 -104l3 -54l6 -50l11 -48h-73v-115h108l20 -63l17 -65l12 -70h-157v-116h506v116h-234l-7 70l-12 66l-14 62h152v115h-183l-12 49l-8 47l-3 45l9 57l30 37z" />
    <glyph glyph-name="yen" unicode="&#xa5;" horiz-adv-x="600" 
d="M42 365h149l37 -85h-186v-115h191v-165h134v165h191v115h-186l37 85h149v115h-99l131 300h-147l-143 -368l-143 368h-147l131 -300h-99v-115z" />
    <glyph glyph-name="brokenbar" unicode="&#xa6;" horiz-adv-x="243" 
d="M57 -120h128v453h-128v-453zM57 387h128v453h-128v-453z" />
    <glyph glyph-name="section" unicode="&#xa7;" horiz-adv-x="538" 
d="M372 390l-11 -40l-33 -26l-55 -10h-2l-61 10l-34 25l-11 41l11 40l33 26l56 10h2l61 -10l33 -25zM503 392v8l-25 89l-71 49l-114 21l-60 12l-29 24l-8 34l10 34l29 21l47 8l51 -10l28 -30l8 -45h128v4l-22 97l-70 62l-123 23l-111 -18l-76 -55l-28 -94v-8l4 -41l14 -34
l24 -29l-41 -31l-25 -42l-9 -53v-8l25 -89l72 -49l114 -21l60 -12l29 -24l8 -34l-10 -34l-29 -21l-47 -8l-51 10l-28 30l-9 45h-127v-4l22 -97l69 -62l124 -23l111 18l75 55l28 94v8l-5 40l-14 35l-23 28l41 31l25 42z" />
    <glyph glyph-name="dieresis" unicode="&#xa8;" horiz-adv-x="500" 
d="M421 763h-142v-141h142v141zM221 763h-142v-141h142v141z" />
    <glyph glyph-name="copyright" unicode="&#xa9;" horiz-adv-x="920" 
d="M463 246l-57 18l-32 46l-9 65v30l9 65l32 46l57 18l49 -11l28 -31l9 -43h112v19l-21 84l-66 62l-114 24l-123 -32l-69 -85l-22 -116v-30l22 -116l69 -85l123 -32l114 24l66 59l21 79v18h-112l-8 -37l-28 -28zM109 390l48 177l126 126l177 48l177 -48l126 -126l48 -177
l-48 -177l-126 -126l-177 -48l-177 48l-126 126zM57 390l55 -203l145 -145l203 -55l203 55l145 145l55 203l-55 203l-145 145l-203 55l-203 -55l-145 -145z" />
    <glyph glyph-name="ordfeminine" unicode="&#xaa;" horiz-adv-x="416" 
d="M193 470l-28 6l-15 15l-5 21v5l6 22l16 17l28 10l71 11v-75l-17 -15l-24 -12zM385 191v99h-343v-99h343zM285 387h102l-7 112v143l-15 81l-52 52l-100 18l-101 -20l-51 -49l-15 -65v-7h108l5 26l16 20l35 8l33 -7l17 -20l6 -35l-93 -14l-73 -20l-50 -39l-19 -68v-7
l12 -59l39 -43l71 -16l51 7l42 18l31 28z" />
    <glyph glyph-name="guillemotleft" unicode="&#xab;" horiz-adv-x="550" 
d="M500 551l-212 -149v-124l212 -149v117l-122 94l122 94v117zM263 551l-213 -149v-124l213 -149v117l-122 94l122 94v117z" />
    <glyph glyph-name="logicalnot" unicode="&#xac;" horiz-adv-x="600" 
d="M44 452h395v-252h117v370h-512v-118z" />
    <glyph glyph-name="uni00AD" unicode="&#xad;" horiz-adv-x="345" 
d="M40 293h265v114h-265v-114z" />
    <glyph glyph-name="registered" unicode="&#xae;" horiz-adv-x="330" 
d="M189 694v-2l-3 -12l-8 -6l-11 -2h-26v42h26l11 -2l8 -6zM238 690v6l-9 32l-22 18l-29 5h-86v-172h49v56h23l23 -56h51l-29 61l15 11l10 16zM41 665l17 62l45 45l62 17l62 -17l45 -45l17 -62l-17 -62l-45 -45l-62 -17l-62 17l-45 45zM17 665l20 -74l54 -54l74 -20l74 20
l54 54l20 74l-20 74l-54 54l-74 20l-74 -20l-54 -54z" />
    <glyph glyph-name="macron" unicode="&#xaf;" horiz-adv-x="500" 
d="M111 633h278v115h-278v-115z" />
    <glyph glyph-name="degree" unicode="&#xb0;" horiz-adv-x="400" 
d="M359 634l-21 85l-56 55l-82 19l-82 -19l-56 -55l-21 -85v-4l21 -85l56 -54l82 -19l82 19l56 54l21 85v4zM277 629l-10 -40l-27 -25l-38 -9h-4l-38 9l-27 25l-10 40v6l10 40l27 25l38 9h4l38 -9l27 -25l10 -40v-6z" />
    <glyph glyph-name="plusminus" unicode="&#xb1;" horiz-adv-x="600" 
d="M44 144h512v117h-512v-117zM241 665v-117h-197v-118h197v-117h118v117h197v118h-197v117h-118z" />
    <glyph glyph-name="twosuperior" unicode="&#xb2;" 
d="M281 476h-124l81 89l23 29l15 31l5 41v11l-11 49l-41 43l-79 18l-74 -14l-43 -43l-14 -71v-9h100l4 30l10 15l14 5h5l15 -4l10 -14l4 -24v-5l-3 -16l-6 -13l-11 -12l-142 -159v-63h262v86z" />
    <glyph glyph-name="threesuperior" unicode="&#xb3;" 
d="M116 515h-100v-8l15 -68l45 -42l74 -15l80 20l41 45l12 49v10l-6 36l-15 27l-22 20l21 20l14 27l6 36v10l-11 45l-41 42l-79 18l-74 -14l-43 -43l-14 -71v-9h100l4 30l10 15l14 5h5l15 -4l10 -10l4 -15v-6l-3 -18l-10 -10l-17 -4h-51v-88h52l18 -4l10 -10l4 -18v-5
l-5 -22l-11 -13l-16 -4h-5l-15 4l-11 14z" />
    <glyph glyph-name="acute" unicode="&#xb4;" horiz-adv-x="500" 
d="M276 780l-91 -179h130l103 179h-142z" />
    <glyph glyph-name="paragraph" unicode="&#xb6;" horiz-adv-x="538" 
d="M163 530v11l10 60l27 37l36 18v-242l-36 19l-27 36zM236 0h64v663h46v-663h134v780h-192l-122 -17l-98 -68l-41 -149v-20l30 -134l77 -72l102 -27v-293z" />
    <glyph glyph-name="periodcentered" unicode="&#xb7;" horiz-adv-x="250" 
d="M196 421h-142v-142h142v142z" />
    <glyph glyph-name="cedilla" unicode="&#xb8;" horiz-adv-x="602" 
d="M150 -190l25 -12l35 -9l42 -3l62 9l39 29l13 47l-14 46l-37 28l-49 10l17 45h-66l-29 -75l17 -26l5 1l13 2l16 1l29 -3l18 -8l6 -14l-5 -14l-17 -8l-29 -3l-26 2l-25 5l-20 9z" />
    <glyph glyph-name="onesuperior" unicode="&#xb9;" 
d="M287 390v86h-78v303h-76l-122 -82l50 -71l48 32v-182h-79v-86h257z" />
    <glyph glyph-name="ordmasculine" unicode="&#xba;" horiz-adv-x="435" 
d="M148 572v27l7 51l23 33l40 11l39 -11l23 -33l7 -51v-27l-7 -52l-23 -32l-39 -12l-40 12l-23 32zM43 191h350v99h-350v-99zM401 572v27l-19 101l-61 68l-103 25l-104 -25l-61 -68l-19 -101v-27l19 -101l61 -68l104 -25l103 25l61 68z" />
    <glyph glyph-name="guillemotright" unicode="&#xbb;" horiz-adv-x="550" 
d="M288 434l121 -94l-121 -94v-117l212 149v124l-212 149v-117zM50 434l122 -94l-122 -94v-117l213 149v124l-213 149v-117z" />
    <glyph glyph-name="onequarter" unicode="&#xbc;" horiz-adv-x="800" 
d="M656 232l-1 -18v-50h-24l-18 -2zM287 390v86h-78v303h-76l-122 -82l50 -71l48 32v-182h-79v-86h257zM755 0v76h32v88h-32v226h-94l-149 -243v-71h143v-76h100zM164 0l576 780h-104l-576 -780h104z" />
    <glyph glyph-name="onehalf" unicode="&#xbd;" horiz-adv-x="800" 
d="M287 390v86h-78v303h-76l-122 -82l50 -71l48 32v-182h-79v-86h257zM781 86h-124l81 89l23 29l15 31l5 41v11l-11 49l-41 43l-79 18l-74 -14l-43 -43l-14 -71v-9h100l4 30l10 15l14 5h5l15 -4l10 -14l4 -24v-5l-3 -16l-6 -13l-11 -12l-142 -159v-63h262v86zM164 0l576 780
h-104l-576 -780h104z" />
    <glyph glyph-name="threequarters" unicode="&#xbe;" horiz-adv-x="800" 
d="M656 232l-1 -18v-50h-24l-18 -2zM755 0v76h32v88h-32v226h-94l-149 -243v-71h143v-76h100zM116 515h-100v-8l15 -68l45 -42l74 -15l80 20l41 45l12 49v10l-6 36l-15 27l-22 20l21 20l14 27l6 36v10l-11 45l-41 42l-79 18l-74 -14l-43 -43l-14 -71v-9h100l4 30l10 15l14 5
h5l15 -4l10 -10l4 -15v-6l-3 -18l-10 -10l-17 -4h-51v-88h52l18 -4l10 -10l4 -18v-5l-5 -22l-11 -13l-16 -4h-5l-15 4l-11 14zM164 0l576 780h-104l-576 -780h104z" />
    <glyph glyph-name="questiondown" unicode="&#xbf;" horiz-adv-x="484" 
d="M174 389h142v141h-142v-141zM238 -97l-49 10l-27 28l-8 43l38 94l68 101l30 135h-90l-51 -116l-84 -85l-44 -140l20 -91l69 -68l128 -27l133 31l70 89l20 137v16h-132l-8 -88l-28 -52z" />
    <glyph glyph-name="Agrave" unicode="&#xc0;" horiz-adv-x="631" 
d="M188 950l63 -110h130l-56 110h-137zM316 631l81 -336h-163zM223 784l-205 -784h145l43 178h220l43 -178h144l-205 784h-185z" />
    <glyph glyph-name="Aacute" unicode="&#xc1;" horiz-adv-x="631" 
d="M307 950l-56 -110h130l63 110h-137zM316 631l81 -336h-163zM223 784l-205 -784h145l43 178h220l43 -178h144l-205 784h-185z" />
    <glyph glyph-name="Acircumflex" unicode="&#xc2;" horiz-adv-x="631" 
d="M252 840l64 50l64 -50h120l-119 110h-130l-119 -110h120zM316 631l81 -336h-163zM223 784l-205 -784h145l43 178h220l43 -178h144l-205 784h-185z" />
    <glyph glyph-name="Atilde" unicode="&#xc3;" horiz-adv-x="631" 
d="M316 631l81 -336h-163zM417 943l-5 -21l-12 -12l-18 -3l-40 13l-48 24l-57 13l-48 -11l-34 -34l-13 -65h73l5 21l12 12l18 3l40 -13l48 -24l57 -13l48 11l34 34l13 65h-73zM223 784l-205 -784h145l43 178h220l43 -178h144l-205 784h-185z" />
    <glyph glyph-name="Adieresis" unicode="&#xc4;" horiz-adv-x="631" 
d="M459 941h-117v-92h117v92zM290 941h-117v-92h117v92zM316 631l81 -336h-163zM223 784l-205 -784h145l43 178h220l43 -178h144l-205 784h-185z" />
    <glyph glyph-name="Aring" unicode="&#xc5;" horiz-adv-x="631" 
d="M264 861l7 26l19 19l26 7l26 -7l19 -19l7 -26l-7 -27l-19 -19l-26 -7l-26 7l-19 19zM316 631l81 -336h-163zM214 861l4 -30l13 -26l18 -21h-26l-205 -784h145l43 178h220l43 -178h144l-205 784h-26l19 21l13 26l4 30l-14 51l-37 37l-51 14l-51 -14l-37 -37z" />
    <glyph glyph-name="AE" unicode="&#xc6;" horiz-adv-x="870" 
d="M365 628l39 -330h-149zM289 780l-278 -780h144l61 182h202l22 -182h390v117h-264l-31 223h245v116h-261l-29 207h340v117h-541z" />
    <glyph glyph-name="Ccedilla" unicode="&#xc7;" horiz-adv-x="640" 
d="M237 -190l25 -12l35 -9l42 -3l62 9l39 29l13 47l-14 46l-37 28l-49 10l12 34l129 35l78 87l26 142v10h-135l-12 -85l-41 -55l-73 -19h-9l-88 30l-46 89l-13 147v40l13 147l47 89l87 30h9l75 -21l39 -64l12 -104h135v34l-30 155l-90 89l-149 28l-161 -39l-93 -125
l-31 -219v-40l27 -210l85 -125l143 -47l-24 -63l17 -26l5 1l13 2l16 1l29 -3l18 -8l6 -14l-5 -14l-17 -8l-29 -3l-26 2l-25 5l-20 9z" />
    <glyph glyph-name="Egrave" unicode="&#xc8;" horiz-adv-x="565" 
d="M169 950l63 -110h130l-56 110h-137zM61 780v-780h464v117h-330v223h280v116h-280v207h330v117h-464z" />
    <glyph glyph-name="Eacute" unicode="&#xc9;" horiz-adv-x="565" 
d="M288 950l-56 -110h130l63 110h-137zM61 780v-780h464v117h-330v223h280v116h-280v207h330v117h-464z" />
    <glyph glyph-name="Ecircumflex" unicode="&#xca;" horiz-adv-x="565" 
d="M233 840l64 50l64 -50h120l-119 110h-130l-119 -110h120zM61 780v-780h464v117h-330v223h280v116h-280v207h330v117h-464z" />
    <glyph glyph-name="Edieresis" unicode="&#xcb;" horiz-adv-x="565" 
d="M440 941h-117v-92h117v92zM271 941h-117v-92h117v92zM61 780v-780h464v117h-330v223h280v116h-280v207h330v117h-464z" />
    <glyph glyph-name="Igrave" unicode="&#xcc;" horiz-adv-x="266" 
d="M5 950l63 -110h130l-56 110h-137zM200 780h-134v-780h134v780z" />
    <glyph glyph-name="Iacute" unicode="&#xcd;" horiz-adv-x="266" 
d="M124 950l-56 -110h130l63 110h-137zM200 780h-134v-780h134v780z" />
    <glyph glyph-name="Icircumflex" unicode="&#xce;" horiz-adv-x="266" 
d="M69 840l64 50l64 -50h120l-119 110h-130l-119 -110h120zM200 780h-134v-780h134v780z" />
    <glyph glyph-name="Idieresis" unicode="&#xcf;" horiz-adv-x="266" 
d="M107 941h-117v-92h117v92zM276 941h-117v-92h117v92zM200 780h-134v-780h134v780z" />
    <glyph glyph-name="Eth" unicode="&#xd0;" horiz-adv-x="715" 
d="M255 663h88l111 -26l61 -83l19 -144v-40l-19 -144l-61 -83l-111 -26h-88v231h180v102h-180v213zM14 348h107v-348h230l180 36l106 118l34 216v40l-34 216l-106 118l-180 36h-230v-330h-107v-102z" />
    <glyph glyph-name="Ntilde" unicode="&#xd1;" horiz-adv-x="675" 
d="M439 943l-5 -21l-12 -12l-18 -3l-40 13l-48 24l-57 13l-48 -11l-34 -34l-13 -65h73l5 21l12 12l18 3l40 -13l48 -24l57 -13l48 11l34 34l13 65h-73zM614 780h-127v-373l4 -165l-288 538h-142v-780h127v373l-4 165l288 -538h142v780z" />
    <glyph glyph-name="Ograve" unicode="&#xd2;" horiz-adv-x="665" 
d="M205 950l63 -110h130l-56 110h-137zM328 104l-87 30l-46 89l-14 147v40l14 147l46 89l87 30h9l87 -30l46 -89l14 -147v-40l-14 -147l-46 -89l-87 -30h-9zM333 -13l161 39l96 125l31 219v40l-31 219l-96 125l-161 39l-162 -39l-96 -125l-31 -219v-40l31 -219l96 -125z" />
    <glyph glyph-name="Oacute" unicode="&#xd3;" horiz-adv-x="665" 
d="M324 950l-56 -110h130l63 110h-137zM328 104l-87 30l-46 89l-14 147v40l14 147l46 89l87 30h9l87 -30l46 -89l14 -147v-40l-14 -147l-46 -89l-87 -30h-9zM333 -13l161 39l96 125l31 219v40l-31 219l-96 125l-161 39l-162 -39l-96 -125l-31 -219v-40l31 -219l96 -125z" />
    <glyph glyph-name="Ocircumflex" unicode="&#xd4;" horiz-adv-x="665" 
d="M269 840l64 50l64 -50h120l-119 110h-130l-119 -110h120zM328 104l-87 30l-46 89l-14 147v40l14 147l46 89l87 30h9l87 -30l46 -89l14 -147v-40l-14 -147l-46 -89l-87 -30h-9zM333 -13l161 39l96 125l31 219v40l-31 219l-96 125l-161 39l-162 -39l-96 -125l-31 -219v-40
l31 -219l96 -125z" />
    <glyph glyph-name="Otilde" unicode="&#xd5;" horiz-adv-x="665" 
d="M434 943l-5 -21l-12 -12l-18 -3l-40 13l-48 24l-57 13l-48 -11l-34 -34l-13 -65h73l5 21l12 12l18 3l40 -13l48 -24l57 -13l48 11l34 34l13 65h-73zM328 104l-87 30l-46 89l-14 147v40l14 147l46 89l87 30h9l87 -30l46 -89l14 -147v-40l-14 -147l-46 -89l-87 -30h-9z
M333 -13l161 39l96 125l31 219v40l-31 219l-96 125l-161 39l-162 -39l-96 -125l-31 -219v-40l31 -219l96 -125z" />
    <glyph glyph-name="Odieresis" unicode="&#xd6;" horiz-adv-x="665" 
d="M476 941h-117v-92h117v92zM307 941h-117v-92h117v92zM328 104l-87 30l-46 89l-14 147v40l14 147l46 89l87 30h9l87 -30l46 -89l14 -147v-40l-14 -147l-46 -89l-87 -30h-9zM333 -13l161 39l96 125l31 219v40l-31 219l-96 125l-161 39l-162 -39l-96 -125l-31 -219v-40
l31 -219l96 -125z" />
    <glyph glyph-name="multiply" unicode="&#xd7;" horiz-adv-x="600" 
d="M115 121l185 185l185 -185l84 84l-185 185l185 185l-84 84l-185 -185l-185 185l-84 -84l185 -185l-185 -185z" />
    <glyph glyph-name="Oslash" unicode="&#xd8;" horiz-adv-x="660" 
d="M181 370v40l14 147l46 89l87 30h9l41 -5l34 -16l26 -26l-247 -392l-6 39l-3 45zM484 410v-40l-14 -147l-46 -89l-87 -30h-9l-43 5l-34 17l-27 27l248 395l7 -41l4 -46zM44 410v-40l6 -112l20 -91l32 -72l-59 -95h85l24 39l51 -29l60 -18l70 -5l161 39l96 125l31 219v40
l-7 114l-20 92l-34 72l58 92h-85l-23 -37l-50 28l-59 17l-68 5l-162 -39l-96 -125z" />
    <glyph glyph-name="Ugrave" unicode="&#xd9;" horiz-adv-x="655" 
d="M200 950l63 -110h130l-56 110h-137zM328 -13l158 28l87 85l26 145v535h-134v-530l-13 -84l-44 -47l-80 -15l-81 15l-44 47l-13 84v530h-134v-535l27 -145l86 -85z" />
    <glyph glyph-name="Uacute" unicode="&#xda;" horiz-adv-x="655" 
d="M319 950l-56 -110h130l63 110h-137zM328 -13l158 28l87 85l26 145v535h-134v-530l-13 -84l-44 -47l-80 -15l-81 15l-44 47l-13 84v530h-134v-535l27 -145l86 -85z" />
    <glyph glyph-name="Ucircumflex" unicode="&#xdb;" horiz-adv-x="655" 
d="M264 840l64 50l64 -50h120l-119 110h-130l-119 -110h120zM328 -13l158 28l87 85l26 145v535h-134v-530l-13 -84l-44 -47l-80 -15l-81 15l-44 47l-13 84v530h-134v-535l27 -145l86 -85z" />
    <glyph glyph-name="Udieresis" unicode="&#xdc;" horiz-adv-x="655" 
d="M471 941h-117v-92h117v92zM302 941h-117v-92h117v92zM328 -13l158 28l87 85l26 145v535h-134v-530l-13 -84l-44 -47l-80 -15l-81 15l-44 47l-13 84v530h-134v-535l27 -145l86 -85z" />
    <glyph glyph-name="Yacute" unicode="&#xdd;" horiz-adv-x="610" 
d="M296 950l-56 -110h130l63 110h-137zM372 238l226 542h-146l-147 -377l-147 377h-146l226 -542v-238h134v238z" />
    <glyph glyph-name="Thorn" unicode="&#xde;" horiz-adv-x="598" 
d="M195 263v254h115l54 -9l46 -36l20 -77v-10l-20 -77l-46 -36l-54 -9h-115zM195 780h-134v-780h134v146h110l122 16l98 69l41 149v20l-41 149l-98 69l-122 16h-110v146z" />
    <glyph glyph-name="germandbls" unicode="&#xdf;" horiz-adv-x="613" 
d="M278 346l87 -60l55 -43l30 -41l10 -40l-4 -36l-17 -27l-41 -11l-34 11l-17 28l-4 39h-114v-7l13 -88l50 -61l103 -23l118 26l60 65l17 85v7l-17 76l-48 67l-79 63l-32 21l60 53l37 62l13 78v9l-25 107l-77 77l-133 30l-136 -29l-76 -76l-23 -110v-598h130v591l11 54
l33 39l61 15l61 -14l33 -40l11 -60l-14 -62l-39 -51l-63 -44v-82z" />
    <glyph glyph-name="agrave" unicode="&#xe0;" horiz-adv-x="538" 
d="M101 780l103 -179h130l-91 179h-142zM239 94l-43 10l-24 23l-8 32v8l8 36l26 25l45 15l111 18v-112l-24 -24l-38 -22zM377 0h115l-8 150v192l-19 107l-67 69l-129 25l-131 -27l-66 -66l-18 -86v-9h124l7 43l26 32l55 12l53 -11l27 -33l8 -56v-2l-135 -21l-94 -24l-66 -51
l-25 -91v-10l17 -78l52 -56l91 -22l72 10l57 26l44 38z" />
    <glyph glyph-name="aacute" unicode="&#xe1;" horiz-adv-x="538" 
d="M295 780l-91 -179h130l103 179h-142zM239 94l-43 10l-24 23l-8 32v8l8 36l26 25l45 15l111 18v-112l-24 -24l-38 -22zM377 0h115l-8 150v192l-19 107l-67 69l-129 25l-131 -27l-66 -66l-18 -86v-9h124l7 43l26 32l55 12l53 -11l27 -33l8 -56v-2l-135 -21l-94 -24l-66 -51
l-25 -91v-10l17 -78l52 -56l91 -22l72 10l57 26l44 38z" />
    <glyph glyph-name="acircumflex" unicode="&#xe2;" horiz-adv-x="538" 
d="M239 94l-43 10l-24 23l-8 32v8l8 36l26 25l45 15l111 18v-112l-24 -24l-38 -22zM191 601l78 92l78 -92h117l-133 179h-124l-133 -179h117zM377 0h115l-8 150v192l-19 107l-67 69l-129 25l-131 -27l-66 -66l-18 -86v-9h124l7 43l26 32l55 12l53 -11l27 -33l8 -56v-2
l-135 -21l-94 -24l-66 -51l-25 -91v-10l17 -78l52 -56l91 -22l72 10l57 26l44 38z" />
    <glyph glyph-name="atilde" unicode="&#xe3;" horiz-adv-x="538" 
d="M239 94l-43 10l-24 23l-8 32v8l8 36l26 25l45 15l111 18v-112l-24 -24l-38 -22zM367 764l-4 -23l-12 -12l-17 -4l-43 14l-49 25l-59 14l-52 -15l-35 -46l-14 -81h89l4 23l12 12l17 4l43 -14l49 -25l59 -14l52 15l35 46l14 81h-89zM377 0h115l-8 150v192l-19 107l-67 69
l-129 25l-131 -27l-66 -66l-18 -86v-9h124l7 43l26 32l55 12l53 -11l27 -33l8 -56v-2l-135 -21l-94 -24l-66 -51l-25 -91v-10l17 -78l52 -56l91 -22l72 10l57 26l44 38z" />
    <glyph glyph-name="adieresis" unicode="&#xe4;" horiz-adv-x="538" 
d="M440 763h-142v-141h142v141zM240 763h-142v-141h142v141zM239 94l-43 10l-24 23l-8 32v8l8 36l26 25l45 15l111 18v-112l-24 -24l-38 -22zM377 0h115l-8 150v192l-19 107l-67 69l-129 25l-131 -27l-66 -66l-18 -86v-9h124l7 43l26 32l55 12l53 -11l27 -33l8 -56v-2
l-135 -21l-94 -24l-66 -51l-25 -91v-10l17 -78l52 -56l91 -22l72 10l57 26l44 38z" />
    <glyph glyph-name="aring" unicode="&#xe5;" horiz-adv-x="538" 
d="M217 691l7 26l19 19l26 7l26 -7l19 -19l7 -26l-7 -27l-19 -19l-26 -7l-26 7l-19 19zM239 94l-43 10l-24 23l-8 32v8l8 36l26 25l45 15l111 18v-112l-24 -24l-38 -22zM167 691l14 -52l37 -36l51 -14l51 14l37 36l14 52l-14 51l-37 37l-51 14l-51 -14l-37 -37zM377 0h115
l-8 150v192l-19 107l-67 69l-129 25l-131 -27l-66 -66l-18 -86v-9h124l7 43l26 32l55 12l53 -11l27 -33l8 -56v-2l-135 -21l-94 -24l-66 -51l-25 -91v-10l17 -78l52 -56l91 -22l72 10l57 26l44 38z" />
    <glyph glyph-name="ae" unicode="&#xe6;" horiz-adv-x="863" 
d="M594 442l58 -15l37 -43l14 -71h-219l15 71l36 43zM360 155l-22 -26l-39 -26l-60 -12l-43 10l-24 23l-8 32v8l9 36l26 25l45 15l110 18v-6l1 -33l4 -31l6 -29zM834 217v61l-25 136l-78 94l-135 35l-67 -9l-54 -23l-41 -37l-35 37l-54 24l-76 8l-131 -27l-66 -66l-18 -86
v-9h124l7 43l26 32l55 12l53 -11l27 -33l8 -56v-2l-133 -21l-94 -24l-67 -51l-26 -91v-10l18 -78l55 -56l96 -22l81 11l69 29l56 42l48 -44l64 -28l81 -10l128 25l78 65l26 89v4h-123l-12 -39l-36 -31l-60 -12l-63 14l-40 43l-16 72h350z" />
    <glyph glyph-name="ccedilla" unicode="&#xe7;" horiz-adv-x="525" 
d="M173 -190l25 -12l35 -9l42 -3l62 9l39 29l13 47l-14 46l-37 28l-49 10l12 34l106 31l63 65l20 87v21h-123l-10 -47l-30 -33l-54 -12l-62 18l-34 51l-11 79v32l11 80l34 51l62 18l53 -13l31 -35l10 -54h123v22l-24 98l-72 69l-124 26l-133 -34l-77 -93l-24 -135v-32
l21 -126l65 -91l113 -43l-24 -64l17 -26l5 1l13 2l16 1l29 -3l18 -8l6 -14l-5 -14l-17 -8l-29 -3l-26 2l-25 5l-20 9z" />
    <glyph glyph-name="egrave" unicode="&#xe8;" horiz-adv-x="553" 
d="M276 442l59 -15l36 -43l14 -71h-219l15 71l36 43zM111 780l103 -179h130l-91 179h-142zM516 217v61l-25 136l-78 94l-134 35l-136 -35l-80 -94l-27 -136v-26l26 -136l82 -94l140 -35l128 25l78 65l26 89v4h-123l-12 -39l-36 -31l-60 -12l-63 14l-39 43l-17 72h350z" />
    <glyph glyph-name="eacute" unicode="&#xe9;" horiz-adv-x="553" 
d="M276 442l59 -15l36 -43l14 -71h-219l15 71l36 43zM305 780l-91 -179h130l103 179h-142zM516 217v61l-25 136l-78 94l-134 35l-136 -35l-80 -94l-27 -136v-26l26 -136l82 -94l140 -35l128 25l78 65l26 89v4h-123l-12 -39l-36 -31l-60 -12l-63 14l-39 43l-17 72h350z" />
    <glyph glyph-name="ecircumflex" unicode="&#xea;" horiz-adv-x="553" 
d="M276 442l59 -15l36 -43l14 -71h-219l15 71l36 43zM201 601l78 92l78 -92h117l-133 179h-124l-133 -179h117zM516 217v61l-25 136l-78 94l-134 35l-136 -35l-80 -94l-27 -136v-26l26 -136l82 -94l140 -35l128 25l78 65l26 89v4h-123l-12 -39l-36 -31l-60 -12l-63 14
l-39 43l-17 72h350z" />
    <glyph glyph-name="edieresis" unicode="&#xeb;" horiz-adv-x="553" 
d="M250 763h-142v-141h142v141zM450 763h-142v-141h142v141zM276 442l59 -15l36 -43l14 -71h-219l15 71l36 43zM516 217v61l-25 136l-78 94l-134 35l-136 -35l-80 -94l-27 -136v-26l26 -136l82 -94l140 -35l128 25l78 65l26 89v4h-123l-12 -39l-36 -31l-60 -12l-63 14
l-39 43l-17 72h350z" />
    <glyph glyph-name="igrave" unicode="&#xec;" horiz-adv-x="250" 
d="M-43 780l103 -179h130l-91 179h-142zM60 0h130v530h-130v-530z" />
    <glyph glyph-name="iacute" unicode="&#xed;" horiz-adv-x="250" 
d="M151 780l-91 -179h130l103 179h-142zM60 0h130v530h-130v-530z" />
    <glyph glyph-name="icircumflex" unicode="&#xee;" horiz-adv-x="250" 
d="M47 601l78 92l78 -92h117l-133 179h-124l-133 -179h117zM60 0h130v530h-130v-530z" />
    <glyph glyph-name="idieresis" unicode="&#xef;" horiz-adv-x="250" 
d="M296 763h-142v-141h142v141zM96 763h-142v-141h142v141zM60 0h130v530h-130v-530z" />
    <glyph glyph-name="eth" unicode="&#xf0;" horiz-adv-x="553" 
d="M276 101l-62 18l-36 51l-12 79v32l12 80l36 51l62 18l62 -18l36 -51l12 -80v-32l-12 -79l-36 -51zM36 696l45 -6l43 -9l41 -11l-97 -55v-79l175 98l23 -15l21 -17l19 -19l15 -18l13 -19l12 -20l-27 9l-29 6l-32 2l-123 -34l-74 -93l-25 -135v-32l25 -135l79 -93l136 -34
l136 34l79 93l25 135v32l-9 127l-33 131l-67 118l-14 16l-15 15l-15 14l57 32v79l-120 -67l-81 34l-88 22l-95 11v-117z" />
    <glyph glyph-name="ntilde" unicode="&#xf1;" horiz-adv-x="563" 
d="M383 764l-4 -23l-12 -12l-17 -4l-43 14l-49 25l-59 14l-52 -15l-35 -46l-14 -81h89l4 23l12 12l17 4l43 -14l49 -25l59 -14l52 15l35 46l14 81h-89zM511 0v363l-16 89l-53 66l-94 25l-75 -11l-56 -29l-41 -43l-12 70h-115l9 -150v-380h130v369l22 27l36 24l52 10l48 -11
l27 -32l9 -45v-342h129z" />
    <glyph glyph-name="ograve" unicode="&#xf2;" horiz-adv-x="553" 
d="M108 780l103 -179h130l-91 179h-142zM276 101l-62 18l-36 51l-12 79v32l12 80l36 51l62 18l62 -18l36 -51l12 -80v-32l-12 -79l-36 -51zM276 -13l136 34l79 93l25 135v32l-25 135l-79 93l-136 34l-136 -34l-79 -93l-25 -135v-32l25 -135l79 -93z" />
    <glyph glyph-name="oacute" unicode="&#xf3;" horiz-adv-x="553" 
d="M302 780l-91 -179h130l103 179h-142zM276 101l-62 18l-36 51l-12 79v32l12 80l36 51l62 18l62 -18l36 -51l12 -80v-32l-12 -79l-36 -51zM276 -13l136 34l79 93l25 135v32l-25 135l-79 93l-136 34l-136 -34l-79 -93l-25 -135v-32l25 -135l79 -93z" />
    <glyph glyph-name="ocircumflex" unicode="&#xf4;" horiz-adv-x="553" 
d="M198 601l78 92l78 -92h117l-133 179h-124l-133 -179h117zM276 101l-62 18l-36 51l-12 79v32l12 80l36 51l62 18l62 -18l36 -51l12 -80v-32l-12 -79l-36 -51zM276 -13l136 34l79 93l25 135v32l-25 135l-79 93l-136 34l-136 -34l-79 -93l-25 -135v-32l25 -135l79 -93z" />
    <glyph glyph-name="otilde" unicode="&#xf5;" horiz-adv-x="553" 
d="M374 764l-4 -23l-12 -12l-17 -4l-43 14l-49 25l-59 14l-52 -15l-35 -46l-14 -81h89l4 23l12 12l17 4l43 -14l49 -25l59 -14l52 15l35 46l14 81h-89zM276 101l-62 18l-36 51l-12 79v32l12 80l36 51l62 18l62 -18l36 -51l12 -80v-32l-12 -79l-36 -51zM276 -13l136 34l79 93
l25 135v32l-25 135l-79 93l-136 34l-136 -34l-79 -93l-25 -135v-32l25 -135l79 -93z" />
    <glyph glyph-name="odieresis" unicode="&#xf6;" horiz-adv-x="553" 
d="M447 763h-142v-141h142v141zM247 763h-142v-141h142v141zM276 101l-62 18l-36 51l-12 79v32l12 80l36 51l62 18l62 -18l36 -51l12 -80v-32l-12 -79l-36 -51zM276 -13l136 34l79 93l25 135v32l-25 135l-79 93l-136 34l-136 -34l-79 -93l-25 -135v-32l25 -135l79 -93z" />
    <glyph glyph-name="divide" unicode="&#xf7;" horiz-adv-x="600" 
d="M371 671h-142v-141h142v141zM371 250h-142v-141h142v141zM44 331h512v118h-512v-118z" />
    <glyph glyph-name="oslash" unicode="&#xf8;" horiz-adv-x="553" 
d="M386 281v-32l-12 -79l-36 -51l-62 -18l-28 3l-24 8l-19 14l172 224l5 -21l3 -23zM166 249v32l12 80l36 51l62 18l28 -3l23 -9l20 -14l-173 -224l-4 21l-3 23zM516 530h-72l-22 -28l-41 22l-48 14l-57 5l-136 -34l-79 -93l-25 -135v-32l6 -69l17 -61l29 -51l-52 -68h72
l21 28l41 -23l49 -13l57 -5l136 34l79 93l25 135v32l-6 69l-17 61l-29 51z" />
    <glyph glyph-name="ugrave" unicode="&#xf9;" horiz-adv-x="563" 
d="M110 780l103 -179h130l-91 179h-142zM52 530v-362l16 -90l53 -66l94 -25l75 11l56 29l41 43l12 -70h115l-8 150v380h-130v-369l-22 -27l-36 -23l-52 -10l-49 11l-27 31l-9 45v342h-129z" />
    <glyph glyph-name="uacute" unicode="&#xfa;" horiz-adv-x="563" 
d="M304 780l-91 -179h130l103 179h-142zM52 530v-362l16 -90l53 -66l94 -25l75 11l56 29l41 43l12 -70h115l-8 150v380h-130v-369l-22 -27l-36 -23l-52 -10l-49 11l-27 31l-9 45v342h-129z" />
    <glyph glyph-name="ucircumflex" unicode="&#xfb;" horiz-adv-x="563" 
d="M200 601l78 92l78 -92h117l-133 179h-124l-133 -179h117zM52 530v-362l16 -90l53 -66l94 -25l75 11l56 29l41 43l12 -70h115l-8 150v380h-130v-369l-22 -27l-36 -23l-52 -10l-49 11l-27 31l-9 45v342h-129z" />
    <glyph glyph-name="udieresis" unicode="&#xfc;" horiz-adv-x="563" 
d="M249 763h-142v-141h142v141zM449 763h-142v-141h142v141zM52 530v-362l16 -90l53 -66l94 -25l75 11l56 29l41 43l12 -70h115l-8 150v380h-130v-369l-22 -27l-36 -23l-52 -10l-49 11l-27 31l-9 45v342h-129z" />
    <glyph glyph-name="yacute" unicode="&#xfd;" horiz-adv-x="530" 
d="M294 780l-91 -179h130l103 179h-142zM268 162l-116 368h-141l187 -504l-84 -226h154l70 226l187 504h-140z" />
    <glyph glyph-name="thorn" unicode="&#xfe;" horiz-adv-x="563" 
d="M187 161v208l22 27l34 24l48 10l60 -18l34 -51l11 -80v-32l-11 -80l-34 -50l-60 -18l-48 10l-34 23zM56 800v-1000h130v250l35 -33l47 -22l60 -8l116 34l63 93l19 135v32l-19 135l-63 93l-116 34l-60 -8l-47 -23l-35 -33v321h-130z" />
    <glyph glyph-name="ydieresis" unicode="&#xff;" horiz-adv-x="530" 
d="M239 763h-142v-141h142v141zM439 763h-142v-141h142v141zM268 162l-116 368h-141l187 -504l-84 -226h154l70 226l187 504h-140z" />
    <glyph glyph-name="Amacron" unicode="&#x100;" horiz-adv-x="631" 
d="M178 853h276v84h-276v-84zM316 631l81 -336h-163zM223 784l-205 -784h145l43 178h220l43 -178h144l-205 784h-185z" />
    <glyph glyph-name="amacron" unicode="&#x101;" horiz-adv-x="538" 
d="M239 94l-43 10l-24 23l-8 32v8l8 36l26 25l45 15l111 18v-112l-24 -24l-38 -22zM130 633h278v115h-278v-115zM377 0h115l-8 150v192l-19 107l-67 69l-129 25l-131 -27l-66 -66l-18 -86v-9h124l7 43l26 32l55 12l53 -11l27 -33l8 -56v-2l-135 -21l-94 -24l-66 -51l-25 -91
v-10l17 -78l52 -56l91 -22l72 10l57 26l44 38z" />
    <glyph glyph-name="Abreve" unicode="&#x102;" horiz-adv-x="631" 
d="M316 631l81 -336h-163zM316 826l104 17l52 45l15 62h-92l-8 -26l-26 -17l-45 -6l-45 6l-26 17l-8 26h-92l15 -62l52 -45zM223 784l-205 -784h145l43 178h220l43 -178h144l-205 784h-185z" />
    <glyph glyph-name="abreve" unicode="&#x103;" horiz-adv-x="538" 
d="M239 94l-43 10l-24 23l-8 32v8l8 36l26 25l45 15l111 18v-112l-24 -24l-38 -22zM269 589l106 25l57 67l16 99h-96l-10 -51l-28 -30l-45 -10l-45 10l-28 30l-10 51h-96l16 -99l57 -67zM377 0h115l-8 150v192l-19 107l-67 69l-129 25l-131 -27l-66 -66l-18 -86v-9h124l7 43
l26 32l55 12l53 -11l27 -33l8 -56v-2l-135 -21l-94 -24l-66 -51l-25 -91v-10l17 -78l52 -56l91 -22l72 10l57 26l44 38z" />
    <glyph glyph-name="Aogonek" unicode="&#x104;" horiz-adv-x="631" 
d="M316 631l81 -336h-163zM545 -79l9 32l23 27l36 20l-205 784h-185l-205 -784h145l43 178h220l48 -198l-16 -27l-9 -29l-4 -33l16 -59l44 -35l67 -11l38 3l35 9l26 12l-31 82l-12 -6l-16 -4l-20 -2l-26 5l-15 15z" />
    <glyph glyph-name="aogonek" unicode="&#x105;" horiz-adv-x="538" 
d="M424 -79l9 32l23 27l36 20l-8 150v192l-19 107l-67 69l-129 25l-131 -27l-66 -66l-18 -86v-9h124l7 43l26 32l55 12l53 -11l27 -33l8 -56v-2l-135 -21l-94 -24l-66 -51l-25 -91v-10l17 -78l52 -56l91 -22l72 10l57 26l44 38l9 -56l-27 -32l-18 -38l-7 -44l16 -59l44 -35
l67 -11l38 3l35 9l26 12l-31 82l-12 -6l-16 -4l-20 -2l-26 5l-15 15zM239 94l-43 10l-24 23l-8 32v8l8 36l26 25l45 15l111 18v-112l-24 -24l-38 -22z" />
    <glyph glyph-name="Cacute" unicode="&#x106;" horiz-adv-x="640" 
d="M320 950l-56 -110h130l63 110h-137zM181 370v40l13 147l47 89l87 30h9l75 -21l39 -64l12 -104h135v34l-30 155l-90 89l-149 28l-161 -39l-93 -125l-31 -219v-40l31 -219l93 -125l161 -39l149 28l90 87l30 151v10h-135l-12 -85l-41 -55l-73 -19h-9l-88 30l-46 89z" />
    <glyph glyph-name="cacute" unicode="&#x107;" horiz-adv-x="525" 
d="M296 780l-91 -179h130l103 179h-142zM166 249v32l11 80l34 51l62 18l53 -13l31 -35l10 -54h123v22l-24 98l-72 69l-124 26l-133 -34l-77 -93l-24 -135v-32l24 -135l77 -93l133 -34l124 26l72 66l24 93v21h-123l-10 -47l-30 -33l-54 -12l-62 18l-34 51z" />
    <glyph glyph-name="Ccircumflex" unicode="&#x108;" horiz-adv-x="640" 
d="M265 840l64 50l64 -50h120l-119 110h-130l-119 -110h120zM181 370v40l13 147l47 89l87 30h9l75 -21l39 -64l12 -104h135v34l-30 155l-90 89l-149 28l-161 -39l-93 -125l-31 -219v-40l31 -219l93 -125l161 -39l149 28l90 87l30 151v10h-135l-12 -85l-41 -55l-73 -19h-9
l-88 30l-46 89z" />
    <glyph glyph-name="ccircumflex" unicode="&#x109;" horiz-adv-x="525" 
d="M192 601l78 92l78 -92h117l-133 179h-124l-133 -179h117zM166 249v32l11 80l34 51l62 18l53 -13l31 -35l10 -54h123v22l-24 98l-72 69l-124 26l-133 -34l-77 -93l-24 -135v-32l24 -135l77 -93l133 -34l124 26l72 66l24 93v21h-123l-10 -47l-30 -33l-54 -12l-62 18l-34 51
z" />
    <glyph glyph-name="Cdotaccent" unicode="&#x10a;" horiz-adv-x="640" 
d="M387 941h-116v-92h116v92zM181 370v40l13 147l47 89l87 30h9l75 -21l39 -64l12 -104h135v34l-30 155l-90 89l-149 28l-161 -39l-93 -125l-31 -219v-40l31 -219l93 -125l161 -39l149 28l90 87l30 151v10h-135l-12 -85l-41 -55l-73 -19h-9l-88 30l-46 89z" />
    <glyph glyph-name="cdotaccent" unicode="&#x10b;" horiz-adv-x="525" 
d="M341 763h-142v-141h142v141zM166 249v32l11 80l34 51l62 18l53 -13l31 -35l10 -54h123v22l-24 98l-72 69l-124 26l-133 -34l-77 -93l-24 -135v-32l24 -135l77 -93l133 -34l124 26l72 66l24 93v21h-123l-10 -47l-30 -33l-54 -12l-62 18l-34 51z" />
    <glyph glyph-name="Ccaron" unicode="&#x10c;" horiz-adv-x="640" 
d="M145 950l119 -110h130l119 110h-120l-64 -51l-64 51h-120zM181 370v40l13 147l47 89l87 30h9l75 -21l39 -64l12 -104h135v34l-30 155l-90 89l-149 28l-161 -39l-93 -125l-31 -219v-40l31 -219l93 -125l161 -39l149 28l90 87l30 151v10h-135l-12 -85l-41 -55l-73 -19h-9
l-88 30l-46 89z" />
    <glyph glyph-name="ccaron" unicode="&#x10d;" horiz-adv-x="525" 
d="M75 780l133 -179h124l133 179h-117l-78 -92l-78 92h-117zM166 249v32l11 80l34 51l62 18l53 -13l31 -35l10 -54h123v22l-24 98l-72 69l-124 26l-133 -34l-77 -93l-24 -135v-32l24 -135l77 -93l133 -34l124 26l72 66l24 93v21h-123l-10 -47l-30 -33l-54 -12l-62 18l-34 51
z" />
    <glyph glyph-name="Dcaron" unicode="&#x10e;" horiz-adv-x="655" 
d="M123 950l119 -110h130l119 110h-120l-64 -51l-64 51h-120zM195 117v546h88l111 -26l61 -83l19 -144v-40l-19 -144l-61 -83l-111 -26h-88zM611 370v40l-34 216l-106 118l-180 36h-230v-780h230l180 36l106 118z" />
    <glyph glyph-name="dcaron" unicode="&#x10f;" horiz-adv-x="569" 
d="M572 800v-199h62l23 199h-85zM381 369v-208l-21 -27l-35 -23l-48 -10l-60 18l-34 50l-11 80v32l11 80l34 51l60 18l48 -10l35 -24zM241 543l-116 -34l-64 -93l-19 -135v-32l19 -135l64 -93l116 -34l66 10l50 29l36 40l11 -66h115l-8 150v650h-130v-319l-35 32l-46 22z
" />
    <glyph glyph-name="Dcroat" unicode="&#x110;" horiz-adv-x="715" 
d="M255 663h88l111 -26l61 -83l19 -144v-40l-19 -144l-61 -83l-111 -26h-88v231h180v102h-180v213zM14 348h107v-348h230l180 36l106 118l34 216v40l-34 216l-106 118l-180 36h-230v-330h-107v-102z" />
    <glyph glyph-name="dcroat" unicode="&#x111;" horiz-adv-x="569" 
d="M381 369v-208l-21 -27l-35 -23l-48 -10l-60 18l-34 50l-11 80v32l11 80l34 51l60 18l48 -10l35 -24zM586 713h-75v87h-130v-87h-119v-96h119v-136l-35 32l-46 22l-59 8l-116 -34l-64 -93l-19 -135v-32l19 -135l64 -93l116 -34l66 10l50 29l36 40l11 -66h115l-8 150v467
h75v96z" />
    <glyph glyph-name="Emacron" unicode="&#x112;" horiz-adv-x="565" 
d="M159 853h276v84h-276v-84zM61 780v-780h464v117h-330v223h280v116h-280v207h330v117h-464z" />
    <glyph glyph-name="emacron" unicode="&#x113;" horiz-adv-x="553" 
d="M276 442l59 -15l36 -43l14 -71h-219l15 71l36 43zM140 633h278v115h-278v-115zM516 217v61l-25 136l-78 94l-134 35l-136 -35l-80 -94l-27 -136v-26l26 -136l82 -94l140 -35l128 25l78 65l26 89v4h-123l-12 -39l-36 -31l-60 -12l-63 14l-39 43l-17 72h350z" />
    <glyph glyph-name="Ebreve" unicode="&#x114;" horiz-adv-x="565" 
d="M61 780v-780h464v117h-330v223h280v116h-280v207h330v117h-464zM297 826l104 17l52 45l15 62h-92l-8 -26l-26 -17l-45 -6l-45 6l-26 17l-8 26h-92l15 -62l52 -45z" />
    <glyph glyph-name="ebreve" unicode="&#x115;" horiz-adv-x="553" 
d="M276 442l59 -15l36 -43l14 -71h-219l15 71l36 43zM279 589l106 25l57 67l16 99h-96l-10 -51l-28 -30l-45 -10l-45 10l-28 30l-10 51h-96l16 -99l57 -67zM516 217v61l-25 136l-78 94l-134 35l-136 -35l-80 -94l-27 -136v-26l26 -136l82 -94l140 -35l128 25l78 65l26 89v4
h-123l-12 -39l-36 -31l-60 -12l-63 14l-39 43l-17 72h350z" />
    <glyph glyph-name="Edotaccent" unicode="&#x116;" horiz-adv-x="565" 
d="M355 941h-116v-92h116v92zM61 780v-780h464v117h-330v223h280v116h-280v207h330v117h-464z" />
    <glyph glyph-name="edotaccent" unicode="&#x117;" horiz-adv-x="553" 
d="M350 763h-142v-141h142v141zM276 442l59 -15l36 -43l14 -71h-219l15 71l36 43zM516 217v61l-25 136l-78 94l-134 35l-136 -35l-80 -94l-27 -136v-26l26 -136l82 -94l140 -35l128 25l78 65l26 89v4h-123l-12 -39l-36 -31l-60 -12l-63 14l-39 43l-17 72h350z" />
    <glyph glyph-name="Eogonek" unicode="&#x118;" horiz-adv-x="565" 
d="M61 780v-780h342l-24 -31l-16 -36l-6 -42l16 -59l44 -35l67 -11l38 3l35 9l26 12l-31 82l-12 -6l-16 -4l-20 -2l-26 5l-15 15l-6 21l9 32l23 27l36 20v117h-330v223h280v116h-280v207h330v117h-464z" />
    <glyph glyph-name="eogonek" unicode="&#x119;" horiz-adv-x="553" 
d="M276 442l59 -15l36 -43l14 -71h-219l15 71l36 43zM516 217v61l-25 136l-78 94l-134 35l-136 -35l-80 -94l-27 -136v-26l22 -127l69 -92l119 -44l-19 -28l-13 -33l-4 -37l16 -59l44 -35l67 -11l38 3l35 9l26 12l-31 82l-12 -6l-16 -4l-20 -2l-26 5l-15 15l-6 21l9 34
l23 27l37 18l75 39l46 57l16 70v4h-123l-12 -39l-36 -31l-60 -12l-63 14l-39 43l-17 72h350z" />
    <glyph glyph-name="Ecaron" unicode="&#x11a;" horiz-adv-x="565" 
d="M113 950l119 -110h130l119 110h-120l-64 -51l-64 51h-120zM61 780v-780h464v117h-330v223h280v116h-280v207h330v117h-464z" />
    <glyph glyph-name="ecaron" unicode="&#x11b;" horiz-adv-x="553" 
d="M276 442l59 -15l36 -43l14 -71h-219l15 71l36 43zM84 780l133 -179h124l133 179h-117l-78 -92l-78 92h-117zM516 217v61l-25 136l-78 94l-134 35l-136 -35l-80 -94l-27 -136v-26l26 -136l82 -94l140 -35l128 25l78 65l26 89v4h-123l-12 -39l-36 -31l-60 -12l-63 14
l-39 43l-17 72h350z" />
    <glyph glyph-name="Gcircumflex" unicode="&#x11c;" horiz-adv-x="664" 
d="M272 840l64 50l64 -50h120l-119 110h-130l-119 -110h120zM346 -13l115 13l85 34l62 44v332h-247v-116h113v-151l-31 -19l-41 -15l-51 -5h-9l-96 30l-51 89l-14 147v40l14 147l49 89l91 30h9l77 -21l41 -64l12 -104h134v34l-31 155l-91 89l-150 28l-162 -39l-98 -125
l-32 -219v-40l33 -219l100 -125z" />
    <glyph glyph-name="gcircumflex" unicode="&#x11d;" horiz-adv-x="563" 
d="M198 601l78 92l78 -92h117l-133 179h-124l-133 -179h117zM376 194l-22 -26l-34 -24l-49 -10l-58 16l-35 45l-12 74v26l12 71l35 47l58 17l49 -10l34 -24l22 -27v-175zM376 8l-11 -66l-35 -36l-60 -12l-60 13l-32 36l-9 57h-123v-19l21 -98l72 -69l134 -27l132 26l76 74
l25 119v374l8 150h-115l-11 -65l-36 40l-50 28l-67 10l-115 -33l-64 -89l-20 -126v-26l20 -129l64 -87l115 -32l59 8l47 21l35 32v-74z" />
    <glyph glyph-name="Gbreve" unicode="&#x11e;" horiz-adv-x="664" 
d="M336 826l104 17l52 45l15 62h-92l-8 -26l-26 -17l-45 -6l-45 6l-26 17l-8 26h-92l15 -62l52 -45zM346 -13l115 13l85 34l62 44v332h-247v-116h113v-151l-31 -19l-41 -15l-51 -5h-9l-96 30l-51 89l-14 147v40l14 147l49 89l91 30h9l77 -21l41 -64l12 -104h134v34l-31 155
l-91 89l-150 28l-162 -39l-98 -125l-32 -219v-40l33 -219l100 -125z" />
    <glyph glyph-name="gbreve" unicode="&#x11f;" horiz-adv-x="563" 
d="M276 589l106 25l57 67l16 99h-96l-10 -51l-28 -30l-45 -10l-45 10l-28 30l-10 51h-96l16 -99l57 -67zM376 369v-175l-22 -26l-34 -24l-49 -10l-58 16l-35 45l-12 74v26l12 71l35 47l58 17l49 -10l34 -24zM376 8l-11 -66l-35 -36l-60 -12l-60 13l-32 36l-9 57h-123v-19
l21 -98l72 -69l134 -27l132 26l76 74l25 119v374l8 150h-115l-11 -65l-36 40l-50 28l-67 10l-115 -33l-64 -89l-20 -126v-26l20 -129l64 -87l115 -32l59 8l47 21l35 32v-74z" />
    <glyph glyph-name="Gdotaccent" unicode="&#x120;" horiz-adv-x="664" 
d="M394 941h-116v-92h116v92zM346 -13l115 13l85 34l62 44v332h-247v-116h113v-151l-31 -19l-41 -15l-51 -5h-9l-96 30l-51 89l-14 147v40l14 147l49 89l91 30h9l77 -21l41 -64l12 -104h134v34l-31 155l-91 89l-150 28l-162 -39l-98 -125l-32 -219v-40l33 -219l100 -125z
" />
    <glyph glyph-name="gdotaccent" unicode="&#x121;" horiz-adv-x="563" 
d="M344 763h-142v-141h142v141zM376 369v-175l-22 -26l-34 -24l-49 -10l-58 16l-35 45l-12 74v26l12 71l35 47l58 17l49 -10l34 -24zM376 8l-11 -66l-35 -36l-60 -12l-60 13l-32 36l-9 57h-123v-19l21 -98l72 -69l134 -27l132 26l76 74l25 119v374l8 150h-115l-11 -65
l-36 40l-50 28l-67 10l-115 -33l-64 -89l-20 -126v-26l20 -129l64 -87l115 -32l59 8l47 21l35 32v-74z" />
    <glyph glyph-name="Gcommaaccent" unicode="&#x122;" horiz-adv-x="664" 
d="M407 -47h-122v-86h69l-17 -24l-27 -13l-37 -4v-49l75 13l44 39l15 68v56zM346 -13l115 13l85 34l62 44v332h-247v-116h113v-151l-31 -19l-41 -15l-51 -5h-9l-96 30l-51 89l-14 147v40l14 147l49 89l91 30h9l77 -21l41 -64l12 -104h134v34l-31 155l-91 89l-150 28
l-162 -39l-98 -125l-32 -219v-40l33 -219l100 -125z" />
    <glyph glyph-name="gcommaaccent" unicode="&#x123;" horiz-adv-x="563" 
d="M211 601h123v92h-71l16 30l27 16l39 5v49l-75 -14l-44 -42l-15 -74v-62zM376 194l-22 -26l-34 -24l-49 -10l-58 16l-35 45l-12 74v26l12 71l35 47l58 17l49 -10l34 -24l22 -27v-175zM376 8l-11 -66l-35 -36l-60 -12l-60 13l-32 36l-9 57h-123v-19l21 -98l72 -69l134 -27
l132 26l76 74l25 119v374l8 150h-115l-11 -65l-36 40l-50 28l-67 10l-115 -33l-64 -89l-20 -126v-26l20 -129l64 -87l115 -32l59 8l47 21l35 32v-74z" />
    <glyph glyph-name="Hcircumflex" unicode="&#x124;" horiz-adv-x="655" 
d="M264 840l64 50l64 -50h120l-119 110h-130l-119 -110h120zM460 780v-324h-265v324h-134v-780h134v340h265v-340h134v780h-134z" />
    <glyph glyph-name="hcircumflex" unicode="&#x125;" horiz-adv-x="563" 
d="M58 840l64 50l64 -50h120l-119 110h-130l-119 -110h120zM188 800h-130v-800h130v369l22 27l36 24l52 10l48 -11l27 -32l9 -45v-342h129v363l-16 89l-53 66l-94 25l-67 -9l-54 -23l-39 -35v324z" />
    <glyph glyph-name="Hbar" unicode="&#x126;" horiz-adv-x="655" 
d="M195 456v112h265v-112h-265zM460 780v-110h-265v110h-134v-780h134v340h265v-340h134v780h-134z" />
    <glyph glyph-name="hbar" unicode="&#x127;" horiz-adv-x="563" 
d="M188 800h-130v-87h-76v-96h76v-617h130v369l22 27l36 24l52 10l48 -11l27 -32l9 -45v-342h129v363l-16 89l-53 66l-94 25l-67 -9l-54 -23l-39 -35v141h119v96h-119v87z" />
    <glyph glyph-name="Itilde" unicode="&#x128;" horiz-adv-x="266" 
d="M234 943l-5 -21l-12 -12l-18 -3l-40 13l-48 24l-57 13l-48 -11l-34 -34l-13 -65h73l5 21l12 12l18 3l40 -13l48 -24l57 -13l48 11l34 34l13 65h-73zM200 780h-134v-780h134v780z" />
    <glyph glyph-name="itilde" unicode="&#x129;" horiz-adv-x="250" 
d="M223 764l-4 -23l-12 -12l-17 -4l-43 14l-49 25l-59 14l-52 -15l-35 -46l-14 -81h89l4 23l12 12l17 4l43 -14l49 -25l59 -14l52 15l35 46l14 81h-89zM60 0h130v530h-130v-530z" />
    <glyph glyph-name="Imacron" unicode="&#x12a;" horiz-adv-x="266" 
d="M-5 853h276v84h-276v-84zM200 780h-134v-780h134v780z" />
    <glyph glyph-name="imacron" unicode="&#x12b;" horiz-adv-x="250" 
d="M-14 633h278v115h-278v-115zM60 0h130v530h-130v-530z" />
    <glyph glyph-name="Ibreve" unicode="&#x12c;" horiz-adv-x="266" 
d="M133 826l104 17l52 45l15 62h-92l-8 -26l-26 -17l-45 -6l-45 6l-26 17l-8 26h-92l15 -62l52 -45zM200 780h-134v-780h134v780z" />
    <glyph glyph-name="ibreve" unicode="&#x12d;" horiz-adv-x="250" 
d="M125 589l106 25l57 67l16 99h-96l-10 -51l-28 -30l-45 -10l-45 10l-28 30l-10 51h-96l16 -99l57 -67zM60 0h130v530h-130v-530z" />
    <glyph glyph-name="Iogonek" unicode="&#x12e;" horiz-adv-x="266" 
d="M132 -79l9 32l23 27l36 20v780h-134v-793l-18 -28l-12 -32l-4 -36l16 -59l44 -35l67 -11l38 3l35 9l26 12l-31 82l-12 -6l-16 -4l-20 -2l-26 5l-15 15z" />
    <glyph glyph-name="iogonek" unicode="&#x12f;" horiz-adv-x="250" 
d="M196 763h-142v-141h142v141zM22 -109l16 -59l44 -35l67 -11l38 3l35 9l26 12l-31 82l-12 -6l-16 -4l-20 -2l-26 5l-15 15l-6 21l9 32l23 27l36 20v530h-130v-538l-20 -29l-13 -34z" />
    <glyph glyph-name="Idotaccent" unicode="&#x130;" horiz-adv-x="266" 
d="M191 941h-116v-92h116v92zM200 780h-134v-780h134v780z" />
    <glyph glyph-name="dotlessi" unicode="&#x131;" horiz-adv-x="250" 
d="M60 0h130v530h-130v-530z" />
    <glyph glyph-name="IJ" unicode="&#x132;" horiz-adv-x="573" 
d="M200 780h-134v-780h134v780zM383 196l-9 -56l-28 -28l-45 -8l-20 2l-20 4l-13 4v-111l16 -7l29 -6l43 -3l94 19l64 62l23 113v599h-134v-584z" />
    <glyph glyph-name="ij" unicode="&#x133;" horiz-adv-x="450" 
d="M396 763h-142v-141h142v141zM196 763h-142v-141h142v141zM60 0h130v530h-130v-530zM260 -13l-10 -54l-30 -26l-46 -7l-20 1l-19 4l-12 3v-108l15 -5l27 -6l40 -2l96 18l65 59l24 108v558h-130v-543z" />
    <glyph glyph-name="Jcircumflex" unicode="&#x134;" horiz-adv-x="524" 
d="M337 840l64 50l64 -50h120l-119 110h-130l-119 -110h120zM334 780v-524l-8 -84l-29 -51l-54 -17l-54 17l-29 53l-8 89h-127v-23l21 -137l69 -86l131 -30l128 30l72 86l22 136v541h-134z" />
    <glyph glyph-name="jcircumflex" unicode="&#x135;" horiz-adv-x="250" 
d="M47 601l78 92l78 -92h117l-133 179h-124l-133 -179h117zM60 -13l-10 -54l-30 -25l-46 -7l-20 1l-19 3l-12 3v-108l15 -5l27 -6l40 -2l97 18l64 59l24 109v557h-130v-543z" />
    <glyph glyph-name="Kcommaaccent" unicode="&#x136;" horiz-adv-x="606" 
d="M364 -47h-122v-86h69l-17 -24l-27 -13l-37 -4v-49l75 13l44 39l15 68v56zM195 780h-134v-780h134v230l79 112l158 -342h149l-222 463l222 317h-162l-224 -345v345z" />
    <glyph glyph-name="kcommaaccent" unicode="&#x137;" horiz-adv-x="543" 
d="M332 -47h-122v-86h69l-17 -24l-27 -13l-37 -4v-49l75 13l44 39l15 68v56zM54 0h130v147l71 81l116 -228h151l-178 329l178 201h-157l-181 -214v484h-130v-800z" />
    <glyph glyph-name="kgreenlandic" unicode="&#x138;" horiz-adv-x="543" 
d="M54 0h130v147l71 81l116 -228h151l-178 329l178 201h-157l-181 -214v214h-130v-530z" />
    <glyph glyph-name="Lacute" unicode="&#x139;" horiz-adv-x="511" 
d="M119 950l-56 -110h130l63 110h-137zM496 0v117h-301v663h-134v-780h435z" />
    <glyph glyph-name="lacute" unicode="&#x13a;" horiz-adv-x="250" 
d="M116 950l-56 -110h130l63 110h-137zM60 0h130v800h-130v-800z" />
    <glyph glyph-name="Lcommaaccent" unicode="&#x13b;" horiz-adv-x="511" 
d="M340 -47h-122v-86h69l-17 -24l-27 -13l-37 -4v-49l75 13l44 39l15 68v56zM496 0v117h-301v663h-134v-780h435z" />
    <glyph glyph-name="lcommaaccent" unicode="&#x13c;" horiz-adv-x="250" 
d="M186 -47h-122v-86h69l-17 -24l-27 -13l-37 -4v-49l75 13l44 39l15 68v56zM60 0h130v800h-130v-800z" />
    <glyph glyph-name="Lcaron" unicode="&#x13d;" horiz-adv-x="511" 
d="M319 800v-199h62l23 199h-85zM496 0v117h-301v663h-134v-780h435z" />
    <glyph glyph-name="lcaron" unicode="&#x13e;" horiz-adv-x="250" 
d="M251 800v-199h62l23 199h-85zM60 0h130v800h-130v-800z" />
    <glyph glyph-name="Ldot" unicode="&#x13f;" horiz-adv-x="511" 
d="M452 469h-142v-142h142v142zM496 0v117h-301v663h-134v-780h435z" />
    <glyph glyph-name="ldot" unicode="&#x140;" horiz-adv-x="406" 
d="M399 421h-142v-142h142v142zM60 0h130v800h-130v-800z" />
    <glyph glyph-name="Lslash" unicode="&#x141;" horiz-adv-x="571" 
d="M14 212l107 53v-265h435v117h-301v215l193 97v114l-193 -97v334h-134v-401l-107 -53v-114z" />
    <glyph glyph-name="lslash" unicode="&#x142;" horiz-adv-x="366" 
d="M26 213l90 60v-273h130v360l105 70v113l-105 -70v327h-130v-414l-90 -60v-113z" />
    <glyph glyph-name="Nacute" unicode="&#x143;" horiz-adv-x="675" 
d="M329 950l-56 -110h130l63 110h-137zM614 780h-127v-373l4 -165l-288 538h-142v-780h127v373l-4 165l288 -538h142v780z" />
    <glyph glyph-name="nacute" unicode="&#x144;" horiz-adv-x="563" 
d="M311 780l-91 -179h130l103 179h-142zM511 0v363l-16 89l-53 66l-94 25l-75 -11l-56 -29l-41 -43l-12 70h-115l9 -150v-380h130v369l22 27l36 24l52 10l48 -11l27 -32l9 -45v-342h129z" />
    <glyph glyph-name="Ncommaaccent" unicode="&#x145;" horiz-adv-x="675" 
d="M399 -47h-122v-86h69l-17 -24l-27 -13l-37 -4v-49l75 13l44 39l15 68v56zM614 780h-127v-373l4 -165l-288 538h-142v-780h127v373l-4 165l288 -538h142v780z" />
    <glyph glyph-name="ncommaaccent" unicode="&#x146;" horiz-adv-x="563" 
d="M346 -47h-122v-86h69l-17 -24l-27 -13l-37 -4v-49l75 13l44 39l15 68v56zM511 0v363l-16 89l-53 66l-94 25l-75 -11l-56 -29l-41 -43l-12 70h-115l9 -150v-380h130v369l22 27l36 24l52 10l48 -11l27 -32l9 -45v-342h129z" />
    <glyph glyph-name="Ncaron" unicode="&#x147;" horiz-adv-x="675" 
d="M154 950l119 -110h130l119 110h-120l-64 -51l-64 51h-120zM614 780h-127v-373l4 -165l-288 538h-142v-780h127v373l-4 165l288 -538h142v780z" />
    <glyph glyph-name="ncaron" unicode="&#x148;" horiz-adv-x="563" 
d="M90 780l133 -179h124l133 179h-117l-78 -92l-78 92h-117zM511 0v363l-16 89l-53 66l-94 25l-75 -11l-56 -29l-41 -43l-12 70h-115l9 -150v-380h130v369l22 27l36 24l52 10l48 -11l27 -32l9 -45v-342h129z" />
    <glyph glyph-name="Eng" unicode="&#x14a;" horiz-adv-x="675" 
d="M614 780h-127v-373l4 -165l-288 538h-142v-780h127v373l-4 165l300 -561l-12 -47l-30 -23l-44 -6l-20 1l-19 3l-12 3v-108l14 -5l28 -6l40 -2l96 18l65 59l24 109v807z" />
    <glyph glyph-name="eng" unicode="&#x14b;" horiz-adv-x="563" 
d="M381 -13l-10 -54l-29 -26l-46 -7l-20 1l-20 4l-12 3v-108l15 -5l27 -6l40 -2l97 18l64 59l24 108v391l-16 89l-53 66l-94 25l-75 -11l-56 -29l-41 -43l-12 70h-115l9 -150v-380h130v369l22 27l36 24l52 10l48 -11l27 -32l8 -45v-355z" />
    <glyph glyph-name="Omacron" unicode="&#x14c;" horiz-adv-x="665" 
d="M195 853h276v84h-276v-84zM328 104l-87 30l-46 89l-14 147v40l14 147l46 89l87 30h9l87 -30l46 -89l14 -147v-40l-14 -147l-46 -89l-87 -30h-9zM333 -13l161 39l96 125l31 219v40l-31 219l-96 125l-161 39l-162 -39l-96 -125l-31 -219v-40l31 -219l96 -125z" />
    <glyph glyph-name="omacron" unicode="&#x14d;" horiz-adv-x="553" 
d="M137 633h278v115h-278v-115zM276 101l-62 18l-36 51l-12 79v32l12 80l36 51l62 18l62 -18l36 -51l12 -80v-32l-12 -79l-36 -51zM276 -13l136 34l79 93l25 135v32l-25 135l-79 93l-136 34l-136 -34l-79 -93l-25 -135v-32l25 -135l79 -93z" />
    <glyph glyph-name="Obreve" unicode="&#x14e;" horiz-adv-x="665" 
d="M333 826l104 17l52 45l15 62h-92l-8 -26l-26 -17l-45 -6l-45 6l-26 17l-8 26h-92l15 -62l52 -45zM328 104l-87 30l-46 89l-14 147v40l14 147l46 89l87 30h9l87 -30l46 -89l14 -147v-40l-14 -147l-46 -89l-87 -30h-9zM333 -13l161 39l96 125l31 219v40l-31 219l-96 125
l-161 39l-162 -39l-96 -125l-31 -219v-40l31 -219l96 -125z" />
    <glyph glyph-name="obreve" unicode="&#x14f;" horiz-adv-x="553" 
d="M276 589l106 25l57 67l16 99h-96l-10 -51l-28 -30l-45 -10l-45 10l-28 30l-10 51h-96l16 -99l57 -67zM276 101l-62 18l-36 51l-12 79v32l12 80l36 51l62 18l62 -18l36 -51l12 -80v-32l-12 -79l-36 -51zM276 -13l136 34l79 93l25 135v32l-25 135l-79 93l-136 34l-136 -34
l-79 -93l-25 -135v-32l25 -135l79 -93z" />
    <glyph glyph-name="Ohungarumlaut" unicode="&#x150;" horiz-adv-x="665" 
d="M408 950l-57 -110h118l63 110h-124zM248 950l-51 -110h118l57 110h-124zM328 104l-87 30l-46 89l-14 147v40l14 147l46 89l87 30h9l87 -30l46 -89l14 -147v-40l-14 -147l-46 -89l-87 -30h-9zM333 -13l161 39l96 125l31 219v40l-31 219l-96 125l-161 39l-162 -39l-96 -125
l-31 -219v-40l31 -219l96 -125z" />
    <glyph glyph-name="ohungarumlaut" unicode="&#x151;" horiz-adv-x="553" 
d="M222 780l-73 -179h105l85 179h-117zM388 780l-91 -179h105l103 179h-117zM276 101l-62 18l-36 51l-12 79v32l12 80l36 51l62 18l62 -18l36 -51l12 -80v-32l-12 -79l-36 -51zM276 -13l136 34l79 93l25 135v32l-25 135l-79 93l-136 34l-136 -34l-79 -93l-25 -135v-32
l25 -135l79 -93z" />
    <glyph glyph-name="OE" unicode="&#x152;" horiz-adv-x="940" 
d="M436 663v-546h-63l-112 26l-61 83l-19 144v40l19 144l61 83l112 26h63zM44 410v-40l35 -216l105 -118l180 -36h536v117h-330v223h280v116h-280v207h330v117h-536l-180 -36l-105 -118z" />
    <glyph glyph-name="oe" unicode="&#x153;" horiz-adv-x="902" 
d="M626 442l58 -15l37 -43l14 -71h-219l15 71l36 43zM166 249v32l12 80l36 51l62 18l62 -18l36 -51l12 -80v-32l-12 -79l-36 -51l-62 -18l-62 18l-36 51zM866 217v61l-25 136l-78 94l-134 35l-75 -10l-58 -29l-43 -44l-43 44l-59 29l-75 10l-136 -34l-79 -93l-25 -135v-32
l25 -135l79 -93l136 -34l75 10l59 29l43 44l44 -44l60 -29l77 -10l128 25l78 65l26 89v4h-123l-12 -39l-36 -31l-60 -12l-63 14l-39 43l-17 72h350z" />
    <glyph glyph-name="Racute" unicode="&#x154;" horiz-adv-x="611" 
d="M281 950l-56 -110h130l63 110h-137zM195 408v255h115l54 -9l46 -36l20 -77v-11l-20 -77l-46 -36l-54 -9h-115zM195 291h114l112 -291h145l-127 312l64 40l46 69l17 105v20l-41 149l-98 68l-122 17h-244v-780h134v291z" />
    <glyph glyph-name="racute" unicode="&#x155;" horiz-adv-x="368" 
d="M221 780l-91 -179h130l103 179h-142zM318 543l-59 -10l-48 -27l-36 -40l-11 64h-115l9 -150v-380h130v360l23 25l41 22l59 9h22v126h-4l-5 1h-6z" />
    <glyph glyph-name="Rcommaaccent" unicode="&#x156;" horiz-adv-x="611" 
d="M361 -47h-122v-86h69l-17 -24l-27 -13l-37 -4v-49l75 13l44 39l15 68v56zM195 408v255h115l54 -9l46 -36l20 -77v-11l-20 -77l-46 -36l-54 -9h-115zM195 291h114l112 -291h145l-127 312l64 40l46 69l17 105v20l-41 149l-98 68l-122 17h-244v-780h134v291z" />
    <glyph glyph-name="rcommaaccent" unicode="&#x157;" horiz-adv-x="368" 
d="M183 -47h-122v-86h69l-17 -24l-27 -13l-37 -4v-49l75 13l44 39l15 68v56zM318 543l-59 -10l-48 -27l-36 -40l-11 64h-115l9 -150v-380h130v360l23 25l41 22l59 9h22v126h-4l-5 1h-6z" />
    <glyph glyph-name="Rcaron" unicode="&#x158;" horiz-adv-x="611" 
d="M106 950l119 -110h130l119 110h-120l-64 -51l-64 51h-120zM195 408v255h115l54 -9l46 -36l20 -77v-11l-20 -77l-46 -36l-54 -9h-115zM195 291h114l112 -291h145l-127 312l64 40l46 69l17 105v20l-41 149l-98 68l-122 17h-244v-780h134v291z" />
    <glyph glyph-name="rcaron" unicode="&#x159;" horiz-adv-x="368" 
d="M0 780l133 -179h124l133 179h-117l-78 -92l-78 92h-117zM318 543l-59 -10l-48 -27l-36 -40l-11 64h-115l9 -150v-380h130v360l23 25l41 22l59 9h22v126h-4l-5 1h-6z" />
    <glyph glyph-name="Sacute" unicode="&#x15a;" horiz-adv-x="621" 
d="M302 950l-56 -110h130l63 110h-137zM290 340l94 -23l49 -39l14 -58v-6l-16 -57l-44 -39l-72 -14h-9l-72 17l-47 51l-16 91h-134v-10l31 -149l92 -88l151 -29l148 28l93 79l32 125v11l-27 113l-83 71l-141 37l-94 24l-46 38l-12 55v6l15 54l42 35l65 13h9l75 -18l43 -55
l13 -96h134v23l-28 146l-87 88l-151 29l-144 -28l-91 -78l-32 -120v-10l26 -108l81 -71z" />
    <glyph glyph-name="sacute" unicode="&#x15b;" horiz-adv-x="526" 
d="M289 780l-91 -179h130l103 179h-142zM263 88l-55 11l-29 28l-8 39h-129v-4l23 -88l73 -63l125 -24l122 21l74 60l25 91v7l-25 84l-71 45l-114 20l-60 11l-29 20l-8 33l10 34l29 21l47 8l51 -10l28 -29l9 -46h127v5l-22 96l-70 63l-123 22l-111 -18l-75 -55l-28 -94v-8
l20 -77l66 -46l118 -23l60 -10l31 -21l10 -37l-10 -34l-30 -24z" />
    <glyph glyph-name="Scircumflex" unicode="&#x15c;" horiz-adv-x="621" 
d="M247 840l64 50l64 -50h120l-119 110h-130l-119 -110h120zM290 340l94 -23l49 -39l14 -58v-6l-16 -57l-44 -39l-72 -14h-9l-72 17l-47 51l-16 91h-134v-10l31 -149l92 -88l151 -29l148 28l93 79l32 125v11l-27 113l-83 71l-141 37l-94 24l-46 38l-12 55v6l15 54l42 35
l65 13h9l75 -18l43 -55l13 -96h134v23l-28 146l-87 88l-151 29l-144 -28l-91 -78l-32 -120v-10l26 -108l81 -71z" />
    <glyph glyph-name="scircumflex" unicode="&#x15d;" horiz-adv-x="526" 
d="M185 601l78 92l78 -92h117l-133 179h-124l-133 -179h117zM263 88l-55 11l-29 28l-8 39h-129v-4l23 -88l73 -63l125 -24l122 21l74 60l25 91v7l-25 84l-71 45l-114 20l-60 11l-29 20l-8 33l10 34l29 21l47 8l51 -10l28 -29l9 -46h127v5l-22 96l-70 63l-123 22l-111 -18
l-75 -55l-28 -94v-8l20 -77l66 -46l118 -23l60 -10l31 -21l10 -37l-10 -34l-30 -24z" />
    <glyph glyph-name="Scedilla" unicode="&#x15e;" horiz-adv-x="621" 
d="M211 -190l25 -12l35 -9l42 -3l62 9l39 29l13 47l-14 46l-37 28l-49 10l12 33l133 33l83 79l29 119v11l-27 113l-83 71l-141 37l-94 24l-46 38l-12 55v6l15 54l42 35l65 13h9l75 -18l43 -55l13 -96h134v23l-28 146l-87 88l-151 29l-144 -28l-91 -78l-32 -120v-10l26 -108
l81 -71l139 -38l94 -23l49 -39l14 -58v-6l-16 -57l-44 -39l-72 -14h-9l-72 17l-47 51l-16 91h-134v-10l27 -140l79 -88l130 -36l-24 -64l17 -26l5 1l13 2l16 1l29 -3l18 -8l6 -14l-5 -14l-17 -8l-29 -3l-26 2l-25 5l-20 9z" />
    <glyph glyph-name="scedilla" unicode="&#x15f;" horiz-adv-x="526" 
d="M163 -190l25 -12l35 -9l42 -3l62 9l39 29l13 47l-14 46l-37 28l-49 10l12 33l106 27l65 58l22 86v7l-25 84l-71 45l-114 20l-60 11l-29 20l-8 33l10 34l29 21l47 8l51 -10l28 -29l9 -46h127v5l-22 96l-70 63l-123 22l-111 -18l-75 -55l-28 -94v-8l20 -77l66 -46l118 -23
l60 -10l31 -21l10 -37l-10 -34l-30 -24l-51 -8l-55 11l-29 28l-8 39h-129v-4l19 -81l61 -61l103 -31l-24 -64l17 -26l5 1l13 2l16 1l29 -3l18 -8l6 -14l-5 -14l-17 -8l-29 -3l-26 2l-25 5l-20 9z" />
    <glyph glyph-name="Scaron" unicode="&#x160;" horiz-adv-x="621" 
d="M127 950l119 -110h130l119 110h-120l-64 -51l-64 51h-120zM290 340l94 -23l49 -39l14 -58v-6l-16 -57l-44 -39l-72 -14h-9l-72 17l-47 51l-16 91h-134v-10l31 -149l92 -88l151 -29l148 28l93 79l32 125v11l-27 113l-83 71l-141 37l-94 24l-46 38l-12 55v6l15 54l42 35
l65 13h9l75 -18l43 -55l13 -96h134v23l-28 146l-87 88l-151 29l-144 -28l-91 -78l-32 -120v-10l26 -108l81 -71z" />
    <glyph glyph-name="scaron" unicode="&#x161;" horiz-adv-x="526" 
d="M68 780l133 -179h124l133 179h-117l-78 -92l-78 92h-117zM263 88l-55 11l-29 28l-8 39h-129v-4l23 -88l73 -63l125 -24l122 21l74 60l25 91v7l-25 84l-71 45l-114 20l-60 11l-29 20l-8 33l10 34l29 21l47 8l51 -10l28 -29l9 -46h127v5l-22 96l-70 63l-123 22l-111 -18
l-75 -55l-28 -94v-8l20 -77l66 -46l118 -23l60 -10l31 -21l10 -37l-10 -34l-30 -24z" />
    <glyph glyph-name="Tcommaaccent" unicode="&#x162;" horiz-adv-x="544" 
d="M333 -47h-122v-86h69l-17 -24l-27 -13l-37 -4v-49l75 13l44 39l15 68v56zM339 663h186v117h-506v-117h186v-663h134v663z" />
    <glyph glyph-name="tcommaaccent" unicode="&#x163;" horiz-adv-x="421" 
d="M297 -47h-122v-86h69l-17 -24l-27 -13l-37 -4v-49l75 13l44 39l15 68v56zM234 530v150h-130v-150h-81v-114h81v-243l24 -109l65 -59l96 -18l40 2l28 6l14 5v108l-12 -3l-19 -3l-20 -1l-46 7l-30 25l-10 54v229h147v114h-147z" />
    <glyph glyph-name="Tcaron" unicode="&#x164;" horiz-adv-x="544" 
d="M88 950l119 -110h130l119 110h-120l-64 -51l-64 51h-120zM339 663h186v117h-506v-117h186v-663h134v663z" />
    <glyph glyph-name="tcaron" unicode="&#x165;" horiz-adv-x="421" 
d="M295 800v-199h62l23 199h-85zM234 530v150h-130v-150h-81v-114h81v-243l24 -109l65 -59l96 -18l40 2l28 6l14 5v108l-12 -3l-19 -3l-20 -1l-46 7l-30 25l-10 54v229h147v114h-147z" />
    <glyph glyph-name="Tbar" unicode="&#x166;" horiz-adv-x="544" 
d="M339 663h186v117h-506v-117h186v-213h-118v-102h118v-348h134v348h118v102h-118v213z" />
    <glyph glyph-name="tbar" unicode="&#x167;" horiz-adv-x="421" 
d="M234 530v150h-130v-150h-81v-114h81v-103h-69v-96h69v-44l24 -109l65 -59l96 -18l40 2l28 6l14 5v108l-12 -3l-19 -3l-20 -1l-46 7l-30 25l-10 54v30h107v96h-107v103h147v114h-147z" />
    <glyph glyph-name="Utilde" unicode="&#x168;" horiz-adv-x="655" 
d="M328 -13l158 28l87 85l26 145v535h-134v-530l-13 -84l-44 -47l-80 -15l-81 15l-44 47l-13 84v530h-134v-535l27 -145l86 -85zM429 943l-5 -21l-12 -12l-18 -3l-40 13l-48 24l-57 13l-48 -11l-34 -34l-13 -65h73l5 21l12 12l18 3l40 -13l48 -24l57 -13l48 11l34 34l13 65
h-73z" />
    <glyph glyph-name="utilde" unicode="&#x169;" horiz-adv-x="563" 
d="M376 764l-4 -23l-12 -12l-17 -4l-43 14l-49 25l-59 14l-52 -15l-35 -46l-14 -81h89l4 23l12 12l17 4l43 -14l49 -25l59 -14l52 15l35 46l14 81h-89zM52 530v-362l16 -90l53 -66l94 -25l75 11l56 29l41 43l12 -70h115l-8 150v380h-130v-369l-22 -27l-36 -23l-52 -10
l-49 11l-27 31l-9 45v342h-129z" />
    <glyph glyph-name="Umacron" unicode="&#x16a;" horiz-adv-x="655" 
d="M190 853h276v84h-276v-84zM328 -13l158 28l87 85l26 145v535h-134v-530l-13 -84l-44 -47l-80 -15l-81 15l-44 47l-13 84v530h-134v-535l27 -145l86 -85z" />
    <glyph glyph-name="umacron" unicode="&#x16b;" horiz-adv-x="563" 
d="M139 633h278v115h-278v-115zM52 530v-362l16 -90l53 -66l94 -25l75 11l56 29l41 43l12 -70h115l-8 150v380h-130v-369l-22 -27l-36 -23l-52 -10l-49 11l-27 31l-9 45v342h-129z" />
    <glyph glyph-name="Ubreve" unicode="&#x16c;" horiz-adv-x="655" 
d="M328 -13l158 28l87 85l26 145v535h-134v-530l-13 -84l-44 -47l-80 -15l-81 15l-44 47l-13 84v530h-134v-535l27 -145l86 -85zM328 826l104 17l52 45l15 62h-92l-8 -26l-26 -17l-45 -6l-45 6l-26 17l-8 26h-92l15 -62l52 -45z" />
    <glyph glyph-name="ubreve" unicode="&#x16d;" horiz-adv-x="563" 
d="M278 589l106 25l57 67l16 99h-96l-10 -51l-28 -30l-45 -10l-45 10l-28 30l-10 51h-96l16 -99l57 -67zM52 530v-362l16 -90l53 -66l94 -25l75 11l56 29l41 43l12 -70h115l-8 150v380h-130v-369l-22 -27l-36 -23l-52 -10l-49 11l-27 31l-9 45v342h-129z" />
    <glyph glyph-name="Uring" unicode="&#x16e;" horiz-adv-x="655" 
d="M276 861l7 26l19 19l26 7l26 -7l19 -19l7 -26l-7 -27l-19 -19l-26 -7l-26 7l-19 19zM226 861l14 -52l37 -36l51 -14l51 14l37 36l14 52l-14 51l-37 37l-51 14l-51 -14l-37 -37zM328 -13l158 28l87 85l26 145v535h-134v-530l-13 -84l-44 -47l-80 -15l-81 15l-44 47l-13 84
v530h-134v-535l27 -145l86 -85z" />
    <glyph glyph-name="uring" unicode="&#x16f;" horiz-adv-x="563" 
d="M226 691l7 26l19 19l26 7l26 -7l19 -19l7 -26l-7 -27l-19 -19l-26 -7l-26 7l-19 19zM176 691l14 -52l37 -36l51 -14l51 14l37 36l14 52l-14 51l-37 37l-51 14l-51 -14l-37 -37zM52 530v-362l16 -90l53 -66l94 -25l75 11l56 29l41 43l12 -70h115l-8 150v380h-130v-369
l-22 -27l-36 -23l-52 -10l-49 11l-27 31l-9 45v342h-129z" />
    <glyph glyph-name="Uhungarumlaut" unicode="&#x170;" horiz-adv-x="655" 
d="M243 950l-51 -110h118l57 110h-124zM403 950l-57 -110h118l63 110h-124zM328 -13l158 28l87 85l26 145v535h-134v-530l-13 -84l-44 -47l-80 -15l-81 15l-44 47l-13 84v530h-134v-535l27 -145l86 -85z" />
    <glyph glyph-name="uhungarumlaut" unicode="&#x171;" horiz-adv-x="563" 
d="M390 780l-91 -179h105l103 179h-117zM224 780l-73 -179h105l85 179h-117zM52 530v-362l16 -90l53 -66l94 -25l75 11l56 29l41 43l12 -70h115l-8 150v380h-130v-369l-22 -27l-36 -23l-52 -10l-49 11l-27 31l-9 45v342h-129z" />
    <glyph glyph-name="Uogonek" unicode="&#x172;" horiz-adv-x="655" 
d="M374 -79l9 34l24 27l36 18l89 46l51 81l16 118v535h-134v-530l-13 -84l-44 -47l-80 -15l-81 15l-44 47l-13 84v530h-134v-535l25 -141l81 -85l147 -32l-18 -28l-13 -32l-4 -36l16 -59l44 -35l67 -11l38 3l35 9l26 12l-31 82l-12 -6l-16 -4l-20 -2l-26 5l-15 15z" />
    <glyph glyph-name="uogonek" unicode="&#x173;" horiz-adv-x="563" 
d="M52 530v-362l16 -90l53 -66l94 -25l75 11l56 29l41 43l11 -64l-28 -32l-18 -38l-7 -45l16 -59l44 -35l67 -11l38 3l35 9l26 12l-31 82l-12 -6l-16 -4l-20 -2l-26 5l-15 15l-6 21l9 32l23 27l36 20h1l-8 150v380h-130v-369l-22 -27l-36 -23l-52 -10l-49 11l-27 31l-9 45
v342h-129z" />
    <glyph glyph-name="Wcircumflex" unicode="&#x174;" horiz-adv-x="924" 
d="M398 840l64 50l64 -50h120l-119 110h-130l-119 -110h120zM590 -4h174l134 784h-140l-89 -604l-123 604h-169l-122 -604l-89 604h-140l134 -784h173l129 632z" />
    <glyph glyph-name="wcircumflex" unicode="&#x175;" horiz-adv-x="750" 
d="M297 601l78 92l78 -92h117l-133 179h-124l-133 -179h117zM375 393l89 -393h165l99 530h-128l-57 -390l-90 390h-156l-90 -390l-57 390h-127l98 -530h165z" />
    <glyph glyph-name="Ycircumflex" unicode="&#x176;" horiz-adv-x="610" 
d="M241 840l64 50l64 -50h120l-119 110h-130l-119 -110h120zM372 238l226 542h-146l-147 -377l-147 377h-146l226 -542v-238h134v238z" />
    <glyph glyph-name="ycircumflex" unicode="&#x177;" horiz-adv-x="530" 
d="M190 601l78 92l78 -92h117l-133 179h-124l-133 -179h117zM268 162l-116 368h-141l187 -504l-84 -226h154l70 226l187 504h-140z" />
    <glyph glyph-name="Ydieresis" unicode="&#x178;" horiz-adv-x="610" 
d="M279 941h-117v-92h117v92zM448 941h-117v-92h117v92zM372 238l226 542h-146l-147 -377l-147 377h-146l226 -542v-238h134v238z" />
    <glyph glyph-name="Zacute" unicode="&#x179;" horiz-adv-x="587" 
d="M40 92v-92h507v117h-206l-137 -3l333 574v92h-487v-117h186l137 3zM283 950l-56 -110h130l63 110h-137z" />
    <glyph glyph-name="zacute" unicode="&#x17a;" horiz-adv-x="489" 
d="M28 89v-89h433v114h-150l-113 -3l253 330v89h-413v-114h130l113 3zM270 780l-91 -179h130l103 179h-142z" />
    <glyph glyph-name="Zdotaccent" unicode="&#x17b;" horiz-adv-x="587" 
d="M40 92v-92h507v117h-206l-137 -3l333 574v92h-487v-117h186l137 3zM350 941h-116v-92h116v92z" />
    <glyph glyph-name="zdotaccent" unicode="&#x17c;" horiz-adv-x="489" 
d="M28 89v-89h433v114h-150l-113 -3l253 330v89h-413v-114h130l113 3zM315 763h-142v-141h142v141z" />
    <glyph glyph-name="Zcaron" unicode="&#x17d;" horiz-adv-x="587" 
d="M40 92v-92h507v117h-206l-137 -3l333 574v92h-487v-117h186l137 3zM108 950l119 -110h130l119 110h-120l-64 -51l-64 51h-120z" />
    <glyph glyph-name="zcaron" unicode="&#x17e;" horiz-adv-x="489" 
d="M28 89v-89h433v114h-150l-113 -3l253 330v89h-413v-114h130l113 3zM49 780l133 -179h124l133 179h-117l-78 -92l-78 92h-117z" />
    <glyph glyph-name="Scommaaccent" unicode="&#x218;" horiz-adv-x="621" 
d="M372 -47h-122v-86h69l-17 -24l-27 -13l-37 -4v-49l75 13l44 39l15 68v56zM290 340l94 -23l49 -39l14 -58v-6l-16 -57l-44 -39l-72 -14h-9l-72 17l-47 51l-16 91h-134v-10l31 -149l92 -88l151 -29l148 28l93 79l32 125v11l-27 113l-83 71l-141 37l-94 24l-46 38l-12 55v6
l15 54l42 35l65 13h9l75 -18l43 -55l13 -96h134v23l-28 146l-87 88l-151 29l-144 -28l-91 -78l-32 -120v-10l26 -108l81 -71z" />
    <glyph glyph-name="scommaaccent" unicode="&#x219;" horiz-adv-x="526" 
d="M324 -47h-122v-86h69l-17 -24l-27 -13l-37 -4v-49l75 13l44 39l15 68v56zM263 88l-55 11l-29 28l-8 39h-129v-4l23 -88l73 -63l125 -24l122 21l74 60l25 91v7l-25 84l-71 45l-114 20l-60 11l-29 20l-8 33l10 34l29 21l47 8l51 -10l28 -29l9 -46h127v5l-22 96l-70 63
l-123 22l-111 -18l-75 -55l-28 -94v-8l20 -77l66 -46l118 -23l60 -10l31 -21l10 -37l-10 -34l-30 -24z" />
    <glyph glyph-name="Ymacron" unicode="&#x232;" horiz-adv-x="610" 
d="M167 853h276v84h-276v-84zM372 238l226 542h-146l-147 -377l-147 377h-146l226 -542v-238h134v238z" />
    <glyph glyph-name="ymacron" unicode="&#x233;" horiz-adv-x="530" 
d="M129 633h278v115h-278v-115zM268 162l-116 368h-141l187 -504l-84 -226h154l70 226l187 504h-140z" />
    <glyph glyph-name="dotlessj" unicode="&#x237;" horiz-adv-x="252" 
d="M60 -13l-10 -54l-30 -25l-46 -7l-20 1l-19 3l-12 3v-108l15 -5l27 -6l40 -2l97 18l64 59l24 109v557h-130v-543z" />
    <glyph glyph-name="circumflex" unicode="&#x2c6;" horiz-adv-x="500" 
d="M172 601l78 92l78 -92h117l-133 179h-124l-133 -179h117z" />
    <glyph glyph-name="caron" unicode="&#x2c7;" horiz-adv-x="500" 
d="M55 780l133 -179h124l133 179h-117l-78 -92l-78 92h-117z" />
    <glyph glyph-name="breve" unicode="&#x2d8;" horiz-adv-x="499" 
d="M250 589l106 25l57 67l16 99h-96l-10 -51l-28 -30l-45 -10l-45 10l-28 30l-10 51h-96l16 -99l57 -67z" />
    <glyph glyph-name="dotaccent" unicode="&#x2d9;" horiz-adv-x="500" 
d="M321 763h-142v-141h142v141z" />
    <glyph glyph-name="ring" unicode="&#x2da;" horiz-adv-x="500" 
d="M198 691l7 26l19 19l26 7l26 -7l19 -19l7 -26l-7 -27l-19 -19l-26 -7l-26 7l-19 19zM148 691l14 -52l37 -36l51 -14l51 14l37 36l14 52l-14 51l-37 37l-51 14l-51 -14l-37 -37z" />
    <glyph glyph-name="ogonek" unicode="&#x2db;" horiz-adv-x="602" 
d="M221 -79l9 32l23 27l36 20l-24 59l-69 -34l-53 -57l-22 -77l16 -59l44 -35l67 -11l38 3l35 9l26 12l-31 82l-12 -6l-16 -4l-20 -2l-26 5l-15 15z" />
    <glyph glyph-name="tilde" unicode="&#x2dc;" horiz-adv-x="500" 
d="M348 764l-4 -23l-12 -12l-17 -4l-43 14l-49 25l-59 14l-52 -15l-35 -46l-14 -81h89l4 23l12 12l17 4l43 -14l49 -25l59 -14l52 15l35 46l14 81h-89z" />
    <glyph glyph-name="hungarumlaut" unicode="&#x2dd;" horiz-adv-x="500" 
d="M196 780l-73 -179h105l85 179h-117zM362 780l-91 -179h105l103 179h-117z" />
    <glyph glyph-name="Bdotaccent" unicode="&#x1e02;" horiz-adv-x="617" 
d="M348 941h-116v-92h116v92zM300 663l53 -8l41 -30l16 -58v-13l-16 -58l-41 -30l-53 -8h-105v205h105zM315 341l56 -10l42 -33l17 -64v-11l-17 -63l-42 -33l-56 -10h-120v224h120zM61 780v-780h249l123 17l95 67l38 135v20l-14 76l-38 53l-55 34l45 33l31 48l11 67v20
l-36 130l-91 64l-119 16h-239z" />
    <glyph glyph-name="bdotaccent" unicode="&#x1e03;" horiz-adv-x="563" 
d="M180 941h-116v-92h116v92zM187 369l22 27l34 24l48 10l60 -18l34 -51l11 -80v-32l-11 -80l-34 -50l-60 -18l-48 10l-34 23l-22 27v208zM187 800h-130v-650l-8 -150h115l11 66l36 -40l50 -29l67 -10l116 34l63 93l19 135v32l-19 135l-63 93l-116 34l-59 -8l-47 -22
l-35 -32v319z" />
    <glyph glyph-name="Ddotaccent" unicode="&#x1e0a;" horiz-adv-x="655" 
d="M365 941h-116v-92h116v92zM195 117v546h88l111 -26l61 -83l19 -144v-40l-19 -144l-61 -83l-111 -26h-88zM611 370v40l-34 216l-106 118l-180 36h-230v-780h230l180 36l106 118z" />
    <glyph glyph-name="ddotaccent" unicode="&#x1e0b;" horiz-adv-x="569" 
d="M504 941h-116v-92h116v92zM381 369v-208l-21 -27l-35 -23l-48 -10l-60 18l-34 50l-11 80v32l11 80l34 51l60 18l48 -10l35 -24zM241 543l-116 -34l-64 -93l-19 -135v-32l19 -135l64 -93l116 -34l66 10l50 29l36 40l11 -66h115l-8 150v650h-130v-319l-35 32l-46 22z" />
    <glyph glyph-name="Fdotaccent" unicode="&#x1e1e;" horiz-adv-x="538" 
d="M355 941h-116v-92h116v92zM61 780v-780h134v340h273v116h-273v207h323v117h-457z" />
    <glyph glyph-name="fdotaccent" unicode="&#x1e1f;" horiz-adv-x="401" 
d="M301 941h-116v-92h116v92zM234 613l10 54l30 26l46 7l20 -1l19 -4l12 -3v108l-14 5l-28 6l-40 2l-96 -18l-65 -59l-24 -108v-98h-81v-114h81v-416h130v416h127v114h-127v83z" />
    <glyph glyph-name="Mdotaccent" unicode="&#x1e40;" horiz-adv-x="849" 
d="M482 941h-116v-92h116v92zM658 547l-4 -161v-386h134v780h-197l-167 -548l-166 548h-197v-780h134v386l-4 161l166 -547h134z" />
    <glyph glyph-name="mdotaccent" unicode="&#x1e41;" horiz-adv-x="844" 
d="M497 763h-142v-141h142v141zM793 0v371l-17 89l-51 61l-87 22l-72 -11l-54 -30l-39 -43l-30 44l-45 30l-62 10l-69 -10l-53 -29l-39 -40l-11 66h-115l9 -150v-380h130v373l20 25l31 23l46 9l41 -8l26 -27l9 -44v-351h129v373l21 25l31 23l46 9l41 -8l25 -27l9 -44v-351
h130z" />
    <glyph glyph-name="Pdotaccent" unicode="&#x1e56;" horiz-adv-x="598" 
d="M349 941h-116v-92h116v92zM195 408v255h115l54 -9l46 -36l20 -77v-11l-20 -77l-46 -36l-54 -9h-115zM195 291h110l122 17l98 69l41 149v20l-41 149l-98 68l-122 17h-244v-780h134v291z" />
    <glyph glyph-name="pdotaccent" unicode="&#x1e57;" horiz-adv-x="563" 
d="M361 763h-142v-141h142v141zM187 369l22 27l34 24l48 10l60 -18l34 -51l11 -80v-32l-11 -80l-34 -50l-60 -18l-48 10l-34 23l-22 27v208zM328 -13l116 34l63 93l19 135v32l-19 135l-63 93l-116 34l-67 -10l-50 -29l-36 -40l-11 66h-115l8 -150v-580h130v249l35 -33
l47 -21z" />
    <glyph glyph-name="Tdotaccent" unicode="&#x1e6a;" horiz-adv-x="544" 
d="M330 941h-116v-92h116v92zM339 663h186v117h-506v-117h186v-663h134v663z" />
    <glyph glyph-name="tdotaccent" unicode="&#x1e6b;" horiz-adv-x="421" 
d="M227 821h-116v-92h116v92zM234 530v150h-130v-150h-81v-114h81v-243l24 -109l65 -59l96 -18l40 2l28 6l14 5v108l-12 -3l-19 -3l-20 -1l-46 7l-30 25l-10 54v229h147v114h-147z" />
    <glyph glyph-name="Wgrave" unicode="&#x1e80;" horiz-adv-x="924" 
d="M334 950l63 -110h130l-56 110h-137zM590 -4h174l134 784h-140l-89 -604l-123 604h-169l-122 -604l-89 604h-140l134 -784h173l129 632z" />
    <glyph glyph-name="wgrave" unicode="&#x1e81;" horiz-adv-x="750" 
d="M207 780l103 -179h130l-91 179h-142zM375 393l89 -393h165l99 530h-128l-57 -390l-90 390h-156l-90 -390l-57 390h-127l98 -530h165z" />
    <glyph glyph-name="Wacute" unicode="&#x1e82;" horiz-adv-x="924" 
d="M453 950l-56 -110h130l63 110h-137zM590 -4h174l134 784h-140l-89 -604l-123 604h-169l-122 -604l-89 604h-140l134 -784h173l129 632z" />
    <glyph glyph-name="wacute" unicode="&#x1e83;" horiz-adv-x="750" 
d="M401 780l-91 -179h130l103 179h-142zM375 393l89 -393h165l99 530h-128l-57 -390l-90 390h-156l-90 -390l-57 390h-127l98 -530h165z" />
    <glyph glyph-name="Wdieresis" unicode="&#x1e84;" horiz-adv-x="924" 
d="M605 941h-117v-92h117v92zM436 941h-117v-92h117v92zM590 -4h174l134 784h-140l-89 -604l-123 604h-169l-122 -604l-89 604h-140l134 -784h173l129 632z" />
    <glyph glyph-name="wdieresis" unicode="&#x1e85;" horiz-adv-x="750" 
d="M546 763h-142v-141h142v141zM346 763h-142v-141h142v141zM375 393l89 -393h165l99 530h-128l-57 -390l-90 390h-156l-90 -390l-57 390h-127l98 -530h165z" />
    <glyph glyph-name="Eszett" unicode="&#x1e9e;" horiz-adv-x="790" 
d="M304 453v-92l182 -22l79 -21l46 -40l15 -58v-6l-13 -60l-36 -37l-55 -13h-9l-56 15l-39 50l-15 94h-134v-10l27 -155l82 -85l138 -26l134 28l84 79l29 125v11l-28 114l-84 72l-139 36l-51 6l126 204v92l-62 22l-71 13l-78 4l-177 -28l-107 -85l-36 -145v-535h134v530
l22 84l64 47l100 15l21 -1l21 -1l21 -3z" />
    <glyph glyph-name="Ygrave" unicode="&#x1ef2;" horiz-adv-x="610" 
d="M177 950l63 -110h130l-56 110h-137zM372 238l226 542h-146l-147 -377l-147 377h-146l226 -542v-238h134v238z" />
    <glyph glyph-name="ygrave" unicode="&#x1ef3;" horiz-adv-x="530" 
d="M100 780l103 -179h130l-91 179h-142zM268 162l-116 368h-141l187 -504l-84 -226h154l70 226l187 504h-140z" />
    <glyph glyph-name="enspace" unicode="&#x2002;" horiz-adv-x="500" 
 />
    <glyph glyph-name="emspace" unicode="&#x2003;" horiz-adv-x="1000" 
 />
    <glyph glyph-name="threeperemspace" unicode="&#x2004;" horiz-adv-x="333" 
 />
    <glyph glyph-name="fourperemspace" unicode="&#x2005;" horiz-adv-x="250" 
 />
    <glyph glyph-name="sixperemspace" unicode="&#x2006;" horiz-adv-x="167" 
 />
    <glyph glyph-name="figurespace" unicode="&#x2007;" horiz-adv-x="600" 
 />
    <glyph glyph-name="punctuationspace" unicode="&#x2008;" horiz-adv-x="180" 
 />
    <glyph glyph-name="thinspace" unicode="&#x2009;" horiz-adv-x="150" 
 />
    <glyph glyph-name="hairspace" unicode="&#x200a;" horiz-adv-x="50" 
 />
    <glyph glyph-name="zerowidthspace" unicode="&#x200b;" horiz-adv-x="0" 
 />
    <glyph glyph-name="figuredash" unicode="&#x2012;" horiz-adv-x="600" 
d="M40 293h520v114h-520v-114z" />
    <glyph glyph-name="endash" unicode="&#x2013;" horiz-adv-x="500" 
d="M40 293h420v114h-420v-114z" />
    <glyph glyph-name="emdash" unicode="&#x2014;" horiz-adv-x="1000" 
d="M40 293h920v114h-920v-114z" />
    <glyph glyph-name="uni2015" unicode="&#x2015;" horiz-adv-x="1200" 
d="M40 293h1120v114h-1120v-114z" />
    <glyph glyph-name="doublebar" unicode="&#x2016;" horiz-adv-x="418" 
d="M233 -120h127v960h-127v-960zM57 -120h128v960h-128v-960z" />
    <glyph glyph-name="quoteleft" unicode="&#x2018;" horiz-adv-x="250" 
d="M43 526h142v141h-72l14 39l28 22l41 7v68l-85 -19l-51 -55l-17 -91v-112z" />
    <glyph glyph-name="quoteright" unicode="&#x2019;" horiz-adv-x="250" 
d="M196 780h-142v-141h72l-15 -39l-27 -22l-41 -7v-68l85 19l51 55l17 91v112z" />
    <glyph glyph-name="quotesinglbase" unicode="&#x201a;" horiz-adv-x="250" 
d="M196 141h-142v-141h72l-15 -38l-27 -22l-41 -7v-68l85 19l51 55l17 91v111z" />
    <glyph glyph-name="reversequoteleft" unicode="&#x201b;" horiz-adv-x="250" 
d="M43 780v-112l17 -91l51 -55l85 -19v68l-41 7l-28 22l-14 39h72v141h-142z" />
    <glyph glyph-name="quotedblleft" unicode="&#x201c;" horiz-adv-x="445" 
d="M238 526h142v141h-72l14 39l28 22l41 7v68l-85 -19l-51 -55l-17 -91v-112zM43 526h142v141h-72l14 39l28 22l41 7v68l-85 -19l-51 -55l-17 -91v-112z" />
    <glyph glyph-name="quotedblright" unicode="&#x201d;" horiz-adv-x="445" 
d="M391 780h-141v-141h71l-15 -39l-27 -22l-41 -7v-68l85 19l51 55l17 91v112zM196 780h-142v-141h72l-15 -39l-27 -22l-41 -7v-68l85 19l51 55l17 91v112z" />
    <glyph glyph-name="quotedblbase" unicode="&#x201e;" horiz-adv-x="445" 
d="M391 141h-141v-141h71l-15 -38l-27 -22l-41 -7v-68l85 19l51 55l17 91v111zM196 141h-142v-141h72l-15 -38l-27 -22l-41 -7v-68l85 19l51 55l17 91v111z" />
    <glyph glyph-name="reversequotedblleft" unicode="&#x201f;" horiz-adv-x="445" 
d="M43 780v-112l17 -91l51 -55l85 -19v68l-41 7l-28 22l-14 39h72v141h-142zM238 780v-112l17 -91l51 -55l85 -19v68l-41 7l-28 22l-14 39h72v141h-142z" />
    <glyph glyph-name="dagger" unicode="&#x2020;" horiz-adv-x="405" 
d="M23 578l134 5v68l-134 5v-78zM382 656l-134 -5v-68l134 -5v78zM164 800l5 -137h67l5 137h-77zM164 443l5 -128h67l5 128l-5 128h-67z" />
    <glyph glyph-name="daggerdbl" unicode="&#x2021;" horiz-adv-x="405" 
d="M382 656l-134 -5v-68l134 -5v78zM23 349l134 5v68l-134 5v-78zM23 578l134 5v68l-134 5v-78zM382 427l-134 -5v-68l134 -5v78zM164 502l5 -68h67l5 68l-5 69h-67zM164 800l5 -137h67l5 137h-77zM164 214l5 -128h67l5 128l-5 128h-67z" />
    <glyph glyph-name="bullet" unicode="&#x2022;" horiz-adv-x="430" 
d="M366 501h-302v-302h302v302z" />
    <glyph glyph-name="ellipsis" unicode="&#x2026;" horiz-adv-x="1000" 
d="M571 141h-142v-141h142v141zM891 141h-142v-141h142v141zM251 141h-142v-141h142v141z" />
    <glyph glyph-name="perthousand" unicode="&#x2030;" horiz-adv-x="1363" 
d="M297 611v-14l-11 -44l-28 -29l-42 -10h-6l-42 10l-28 29l-10 44v14l10 44l28 28l42 10h6l42 -10l28 -28zM1066 169v14l10 44l28 29l42 10h6l42 -10l28 -29l11 -44v-14l-11 -44l-28 -28l-42 -10h-6l-42 10l-28 28zM666 169v14l10 44l28 29l42 10h6l42 -10l28 -29l11 -44
v-14l-11 -44l-28 -28l-42 -10h-6l-42 10l-28 28zM967 182v-11l24 -101l65 -62l93 -21l94 21l65 62l24 101v11l-24 100l-65 62l-94 21l-93 -21l-65 -62zM567 182v-11l24 -101l65 -62l93 -21l94 21l65 62l24 101v11l-24 100l-65 62l-94 21l-93 -21l-65 -62zM377 0l298 716v67
l-48 -14l-73 -12l-83 -6l-65 2l-55 8l-52 15l-27 9l-29 6l-30 2l-93 -21l-65 -62l-24 -101v-11l24 -100l65 -62l93 -21l94 21l65 62l24 100v11v14l-1 13l-2 13l18 -2l18 -2h20l38 2l29 5l17 3l-272 -655h116z" />
    <glyph glyph-name="tripleprime" unicode="&#x2034;" horiz-adv-x="575" 
d="M229 780l9 -306h99l9 306h-117zM392 780l9 -306h99l22 306h-130zM54 780l21 -306h100l9 306h-130z" />
    <glyph glyph-name="guilsinglleft" unicode="&#x2039;" horiz-adv-x="313" 
d="M263 551l-213 -149v-124l213 -149v117l-122 94l122 94v117z" />
    <glyph glyph-name="guilsinglright" unicode="&#x203a;" horiz-adv-x="313" 
d="M50 434l122 -94l-122 -94v-117l213 149v124l-213 149v-117z" />
    <glyph glyph-name="interrobang" unicode="&#x203d;" horiz-adv-x="484" 
d="M337 575l-9 -50l-23 -48l-28 -49l5 243l32 -20l18 -33zM320 141h-142v-141h142v141zM284 216l52 138l83 92l44 143l-20 101l-67 74l-130 29l-133 -32l-70 -91l-20 -142v-15h119l6 75l18 52l36 30l9 -454h73z" />
    <glyph glyph-name="fraction" unicode="&#x2044;" horiz-adv-x="200" 
d="M-136 0l576 780h-104l-576 -780h104z" />
    <glyph glyph-name="uni2070" unicode="&#x2070;" 
d="M181 670v-171l-4 -15l-10 -11l-16 -4h-2l-16 4l-11 11l-4 15v171l4 16l11 10l16 4h2l16 -4l10 -10zM281 499v171l-15 61l-44 41l-72 15l-72 -15l-44 -41l-15 -61v-171l15 -60l44 -42l72 -15l72 15l44 42z" />
    <glyph glyph-name="uni2074" unicode="&#x2074;" 
d="M156 622l-1 -18v-50h-24l-18 -2zM255 390v76h32v88h-32v226h-94l-149 -243v-71h143v-76h100z" />
    <glyph glyph-name="uni2075" unicode="&#x2075;" 
d="M16 515v-8l15 -68l45 -42l74 -15l75 16l44 45l14 66v10l-14 66l-43 45l-71 16l-16 -1l-15 -2l-15 -4l3 54h166v87h-250l-9 -212l86 -29l11 11l14 7l14 2h3l19 -4l13 -13l5 -25v-5l-5 -25l-11 -14l-16 -4h-5l-15 4l-11 14l-5 28h-100z" />
    <glyph glyph-name="uni2076" unicode="&#x2076;" 
d="M150 550h3l15 -3l11 -11l4 -20v-11l-5 -20l-12 -12l-15 -4h-3l-16 5l-12 17l-4 29v12l10 10l12 6zM262 787l-78 -6l-63 -21l-50 -44l-33 -57l-17 -61l-5 -62v-8l15 -75l44 -52l74 -19l76 16l44 44l14 66v5l-13 65l-37 43l-56 15l-18 -2l-17 -4l-14 -6l5 14l6 12l8 11
l27 22l37 12l51 4v88z" />
    <glyph glyph-name="uni2077" unicode="&#x2077;" 
d="M13 640h87v53h31l44 1l-129 -304h107l133 328v62h-273v-140z" />
    <glyph glyph-name="uni2078" unicode="&#x2078;" 
d="M152 700l15 -4l10 -10l4 -16v-5l-3 -18l-10 -10l-17 -4h-2l-18 4l-10 10l-3 18v5l4 16l11 10l14 4h5zM147 545h5l18 -3l10 -11l4 -18v-5l-5 -22l-11 -13l-16 -4h-5l-15 4l-12 13l-4 22v5l3 18l11 11zM150 382l80 20l41 45l12 49v11l-6 35l-15 28l-21 19l20 20l15 27l5 36
v10l-11 45l-41 42l-79 18l-79 -18l-41 -42l-11 -45v-10l5 -35l14 -28l21 -19l-22 -20l-15 -27l-6 -36v-11l12 -49l41 -45z" />
    <glyph glyph-name="uni2079" unicode="&#x2079;" 
d="M149 619h-2l-15 3l-11 11l-4 21v10l5 20l12 13l15 4h3l16 -6l12 -17l4 -28v-13l-11 -10l-13 -6zM37 382l78 6l64 21l50 44l32 58l18 61l5 62v7l-15 76l-44 51l-75 19l-75 -16l-44 -44l-14 -65v-5l13 -65l36 -43l56 -15l18 1l16 4l15 7l-5 -14l-7 -12l-7 -11l-27 -22
l-37 -12l-51 -5v-88z" />
    <glyph glyph-name="uni207A" unicode="&#x207a;" 
d="M106 715v-86h-86v-88h86v-86h88v86h86v88h-86v86h-88z" />
    <glyph glyph-name="uni207B" unicode="&#x207b;" 
d="M20 541h260v88h-260v-88z" />
    <glyph glyph-name="uni207C" unicode="&#x207c;" 
d="M20 486h260v87h-260v-87zM20 597h260v87h-260v-87z" />
    <glyph glyph-name="uni207D" unicode="&#x207d;" horiz-adv-x="194" 
d="M18 580l8 -82l22 -63l30 -45h102l-28 48l-24 65l-11 77v10l11 77l24 65l28 48h-102l-30 -45l-22 -64l-8 -81v-10z" />
    <glyph glyph-name="uni207E" unicode="&#x207e;" horiz-adv-x="194" 
d="M174 590l-8 81l-21 64l-30 45h-102l28 -48l24 -65l10 -77v-10l-10 -77l-24 -65l-28 -48h102l30 45l21 63l8 82v10z" />
    <glyph glyph-name="uni2080" unicode="&#x2080;" 
d="M181 280v-171l-4 -15l-10 -11l-16 -4h-2l-16 4l-11 11l-4 15v171l4 16l11 10l16 4h2l16 -4l10 -10zM281 109v171l-15 61l-44 41l-72 15l-72 -15l-44 -41l-15 -61v-171l15 -60l44 -42l72 -15l72 15l44 42z" />
    <glyph glyph-name="uni2081" unicode="&#x2081;" 
d="M287 0v86h-78v303h-76l-122 -82l50 -71l48 32v-182h-79v-86h257z" />
    <glyph glyph-name="uni2082" unicode="&#x2082;" 
d="M281 86h-124l81 89l23 29l15 31l5 41v11l-11 49l-41 43l-79 18l-74 -14l-43 -43l-14 -71v-9h100l4 30l10 15l14 5h5l15 -4l10 -14l4 -24v-5l-3 -16l-6 -13l-11 -12l-142 -159v-63h262v86z" />
    <glyph glyph-name="uni2083" unicode="&#x2083;" 
d="M116 125h-100v-8l15 -68l45 -42l74 -15l80 20l41 45l12 49v10l-6 36l-15 27l-22 20l21 20l14 27l6 36v10l-11 45l-41 42l-79 18l-74 -14l-43 -43l-14 -71v-9h100l4 30l10 15l14 5h5l15 -4l10 -10l4 -15v-6l-3 -18l-10 -10l-17 -4h-51v-88h52l18 -4l10 -10l4 -18v-5
l-5 -22l-11 -13l-16 -4h-5l-15 4l-11 14z" />
    <glyph glyph-name="uni2084" unicode="&#x2084;" 
d="M156 232l-1 -18v-50h-24l-18 -2zM255 0v76h32v88h-32v226h-94l-149 -243v-71h143v-76h100z" />
    <glyph glyph-name="uni2085" unicode="&#x2085;" 
d="M16 125v-8l15 -68l45 -42l74 -15l75 16l44 45l14 66v10l-14 66l-43 45l-71 16l-16 -1l-15 -2l-15 -4l3 54h166v87h-250l-9 -212l86 -29l11 11l14 7l14 2h3l19 -4l13 -13l5 -25v-5l-5 -25l-11 -14l-16 -4h-5l-15 4l-11 14l-5 28h-100z" />
    <glyph glyph-name="uni2086" unicode="&#x2086;" 
d="M150 160h3l15 -3l11 -11l4 -20v-11l-5 -20l-12 -12l-15 -4h-3l-16 5l-12 17l-4 29v12l10 10l12 6zM262 397l-78 -6l-63 -21l-50 -44l-33 -57l-17 -61l-5 -62v-8l15 -75l44 -52l74 -19l76 16l44 44l14 66v5l-13 65l-37 43l-56 15l-18 -2l-17 -4l-14 -6l5 14l6 12l8 11
l27 22l37 12l51 4v88z" />
    <glyph glyph-name="uni2087" unicode="&#x2087;" 
d="M13 250h87v53h31l44 1l-129 -304h107l133 328v62h-273v-140z" />
    <glyph glyph-name="uni2088" unicode="&#x2088;" 
d="M152 310l15 -4l10 -10l4 -16v-5l-3 -18l-10 -10l-17 -4h-2l-18 4l-10 10l-3 18v5l4 16l11 10l14 4h5zM147 155h5l18 -3l10 -11l4 -18v-5l-5 -22l-11 -13l-16 -4h-5l-15 4l-12 13l-4 22v5l3 18l11 11zM150 -8l80 20l41 45l12 49v11l-6 35l-15 28l-21 19l20 20l15 27l5 36
v10l-11 45l-41 42l-79 18l-79 -18l-41 -42l-11 -45v-10l5 -35l14 -28l21 -19l-22 -20l-15 -27l-6 -36v-11l12 -49l41 -45z" />
    <glyph glyph-name="uni2089" unicode="&#x2089;" 
d="M149 229h-2l-15 3l-11 11l-4 21v10l5 20l12 13l15 4h3l16 -6l12 -17l4 -28v-13l-11 -10l-13 -6zM37 -8l78 6l64 21l50 44l32 58l18 61l5 62v7l-15 76l-44 51l-75 19l-75 -16l-44 -44l-14 -65v-5l13 -65l36 -43l56 -15l18 1l16 4l15 7l-5 -14l-7 -12l-7 -11l-27 -22
l-37 -12l-51 -5v-88z" />
    <glyph glyph-name="uni208A" unicode="&#x208a;" 
d="M106 325v-86h-86v-88h86v-86h88v86h86v88h-86v86h-88z" />
    <glyph glyph-name="uni208B" unicode="&#x208b;" 
d="M20 151h260v88h-260v-88z" />
    <glyph glyph-name="uni208C" unicode="&#x208c;" 
d="M20 96h260v87h-260v-87zM20 207h260v87h-260v-87z" />
    <glyph glyph-name="uni208D" unicode="&#x208d;" horiz-adv-x="194" 
d="M18 190l8 -82l22 -63l30 -45h102l-28 48l-24 65l-11 77v10l11 77l24 65l28 48h-102l-30 -45l-22 -64l-8 -81v-10z" />
    <glyph glyph-name="uni208E" unicode="&#x208e;" horiz-adv-x="194" 
d="M174 200l-8 81l-21 64l-30 45h-102l28 -48l24 -65l10 -77v-10l-10 -77l-24 -65l-28 -48h102l30 45l21 63l8 82v10z" />
    <glyph glyph-name="Euro" unicode="&#x20ac;" horiz-adv-x="600" 
d="M100 320l34 -190l82 -109l129 -34l122 28l70 84l22 142v9h-115l-10 -81l-31 -48l-50 -16h-8l-57 24l-35 72l-16 119h121l58 118h-180l14 131l36 79l59 27h8l53 -18l29 -57l9 -100h115v34l-22 146l-69 85l-123 28l-133 -36l-82 -116l-31 -203h-67v-118h68z" />
    <glyph glyph-name="ruble" unicode="&#x20bd;" horiz-adv-x="600" 
d="M229 408v255h77l54 -9l47 -36l20 -77v-11l-20 -77l-47 -36l-54 -9h-77zM229 291h72l123 17l98 69l41 149v20l-41 149l-98 68l-123 17h-206v-372h-76v-117h76v-45h-76v-117h76v-129h134v129h193v117h-193v45z" />
    <glyph glyph-name="numero" unicode="&#x2116;" horiz-adv-x="1110" 
d="M823 572v27l7 51l23 33l40 11l39 -11l23 -33l7 -51v-27l-7 -52l-23 -32l-39 -12l-40 12l-23 32zM718 191h350v99h-350v-99zM1076 572v27l-19 101l-61 68l-103 25l-104 -25l-61 -68l-19 -101v-27l19 -101l61 -68l104 -25l103 25l61 68zM614 780h-127v-373l4 -165l-288 538
h-142v-780h127v373l-4 165l288 -538h142v780z" />
    <glyph glyph-name="published" unicode="&#x2117;" horiz-adv-x="920" 
d="M400 406v131h82l30 -5l25 -18l10 -39v-7l-10 -39l-25 -18l-30 -5h-82zM400 318h106l75 12l59 44l25 92v11l-25 92l-59 44l-75 12h-224v-470h118v163zM109 390l48 177l126 126l177 48l177 -48l126 -126l48 -177l-48 -177l-126 -126l-177 -48l-177 48l-126 126zM57 390
l55 -203l145 -145l203 -55l203 55l145 145l55 203l-55 203l-145 145l-203 55l-203 -55l-145 -145z" />
    <glyph glyph-name="servicemark" unicode="&#x2120;" horiz-adv-x="548" 
d="M447 704l-2 -62v-112h57v270h-86l-45 -173l-46 173h-86v-270h57v112l-2 62l46 -174h61zM103 642l29 -8l16 -11l4 -17v-2l-4 -17l-12 -12l-21 -4h-3l-24 6l-13 17l-4 29h-57v-3l11 -55l33 -33l54 -11l54 10l33 30l11 45v5l-9 42l-30 25l-49 13l-28 7l-15 11l-4 17v2l4 15
l12 10l19 4h3l23 -6l12 -18l3 -30h57v8l-10 54l-31 32l-55 11l-52 -10l-32 -29l-11 -44v-4l9 -41l28 -25z" />
    <glyph glyph-name="trademark" unicode="&#x2122;" horiz-adv-x="548" 
d="M447 704l-2 -62v-112h57v270h-86l-45 -173l-46 173h-86v-270h57v112l-2 62l46 -174h61zM142 750h68v50h-193v-50h68v-220h57v220z" />
    <glyph glyph-name="uni2153" unicode="&#x2153;" horiz-adv-x="800" 
d="M287 390v86h-78v303h-76l-122 -82l50 -71l48 32v-182h-79v-86h257zM616 125h-100v-8l15 -68l45 -42l74 -15l80 20l41 45l12 49v10l-6 36l-15 27l-22 20l21 20l14 27l6 36v10l-11 45l-41 42l-79 18l-74 -14l-43 -43l-14 -71v-9h100l4 30l10 15l14 5h5l15 -4l10 -10l4 -15
v-6l-3 -18l-10 -10l-17 -4h-51v-88h52l18 -4l10 -10l4 -18v-5l-5 -22l-11 -13l-16 -4h-5l-15 4l-11 14zM164 0l576 780h-104l-576 -780h104z" />
    <glyph glyph-name="uni2154" unicode="&#x2154;" horiz-adv-x="800" 
d="M281 476h-124l81 89l23 29l15 31l5 41v11l-11 49l-41 43l-79 18l-74 -14l-43 -43l-14 -71v-9h100l4 30l10 15l14 5h5l15 -4l10 -14l4 -24v-5l-3 -16l-6 -13l-11 -12l-142 -159v-63h262v86zM616 125h-100v-8l15 -68l45 -42l74 -15l80 20l41 45l12 49v10l-6 36l-15 27
l-22 20l21 20l14 27l6 36v10l-11 45l-41 42l-79 18l-74 -14l-43 -43l-14 -71v-9h100l4 30l10 15l14 5h5l15 -4l10 -10l4 -15v-6l-3 -18l-10 -10l-17 -4h-51v-88h52l18 -4l10 -10l4 -18v-5l-5 -22l-11 -13l-16 -4h-5l-15 4l-11 14zM164 0l576 780h-104l-576 -780h104z" />
    <glyph glyph-name="uni2155" unicode="&#x2155;" horiz-adv-x="800" 
d="M287 390v86h-78v303h-76l-122 -82l50 -71l48 32v-182h-79v-86h257zM516 125v-8l15 -68l45 -42l74 -15l75 16l44 45l14 66v10l-14 66l-43 45l-71 16l-16 -1l-15 -2l-15 -4l3 54h166v87h-250l-9 -212l86 -29l11 11l14 7l14 2h3l19 -4l13 -13l5 -25v-5l-5 -25l-11 -14
l-16 -4h-5l-15 4l-11 14l-5 28h-100zM164 0l576 780h-104l-576 -780h104z" />
    <glyph glyph-name="uni2156" unicode="&#x2156;" horiz-adv-x="800" 
d="M281 476h-124l81 89l23 29l15 31l5 41v11l-11 49l-41 43l-79 18l-74 -14l-43 -43l-14 -71v-9h100l4 30l10 15l14 5h5l15 -4l10 -14l4 -24v-5l-3 -16l-6 -13l-11 -12l-142 -159v-63h262v86zM516 125v-8l15 -68l45 -42l74 -15l75 16l44 45l14 66v10l-14 66l-43 45l-71 16
l-16 -1l-15 -2l-15 -4l3 54h166v87h-250l-9 -212l86 -29l11 11l14 7l14 2h3l19 -4l13 -13l5 -25v-5l-5 -25l-11 -14l-16 -4h-5l-15 4l-11 14l-5 28h-100zM164 0l576 780h-104l-576 -780h104z" />
    <glyph glyph-name="uni2157" unicode="&#x2157;" horiz-adv-x="800" 
d="M116 515h-100v-8l15 -68l45 -42l74 -15l80 20l41 45l12 49v10l-6 36l-15 27l-22 20l21 20l14 27l6 36v10l-11 45l-41 42l-79 18l-74 -14l-43 -43l-14 -71v-9h100l4 30l10 15l14 5h5l15 -4l10 -10l4 -15v-6l-3 -18l-10 -10l-17 -4h-51v-88h52l18 -4l10 -10l4 -18v-5
l-5 -22l-11 -13l-16 -4h-5l-15 4l-11 14zM516 125v-8l15 -68l45 -42l74 -15l75 16l44 45l14 66v10l-14 66l-43 45l-71 16l-16 -1l-15 -2l-15 -4l3 54h166v87h-250l-9 -212l86 -29l11 11l14 7l14 2h3l19 -4l13 -13l5 -25v-5l-5 -25l-11 -14l-16 -4h-5l-15 4l-11 14l-5 28
h-100zM164 0l576 780h-104l-576 -780h104z" />
    <glyph glyph-name="uni2158" unicode="&#x2158;" horiz-adv-x="800" 
d="M156 622l-1 -18v-50h-24l-18 -2zM255 390v76h32v88h-32v226h-94l-149 -243v-71h143v-76h100zM516 125v-8l15 -68l45 -42l74 -15l75 16l44 45l14 66v10l-14 66l-43 45l-71 16l-16 -1l-15 -2l-15 -4l3 54h166v87h-250l-9 -212l86 -29l11 11l14 7l14 2h3l19 -4l13 -13l5 -25
v-5l-5 -25l-11 -14l-16 -4h-5l-15 4l-11 14l-5 28h-100zM164 0l576 780h-104l-576 -780h104z" />
    <glyph glyph-name="uni2159" unicode="&#x2159;" horiz-adv-x="800" 
d="M650 160h3l15 -3l11 -11l4 -20v-11l-5 -20l-12 -12l-15 -4h-3l-16 5l-12 17l-4 29v12l10 10l12 6zM287 390v86h-78v303h-76l-122 -82l50 -71l48 32v-182h-79v-86h257zM762 397l-78 -6l-63 -21l-50 -44l-33 -57l-17 -61l-5 -62v-8l15 -75l44 -52l74 -19l76 16l44 44l14 66
v5l-13 65l-37 43l-56 15l-18 -2l-17 -4l-14 -6l5 14l6 12l8 11l27 22l37 12l51 4v88zM164 0l576 780h-104l-576 -780h104z" />
    <glyph glyph-name="uni215A" unicode="&#x215a;" horiz-adv-x="800" 
d="M650 160h3l15 -3l11 -11l4 -20v-11l-5 -20l-12 -12l-15 -4h-3l-16 5l-12 17l-4 29v12l10 10l12 6zM16 515v-8l15 -68l45 -42l74 -15l75 16l44 45l14 66v10l-14 66l-43 45l-71 16l-16 -1l-15 -2l-15 -4l3 54h166v87h-250l-9 -212l86 -29l11 11l14 7l14 2h3l19 -4l13 -13
l5 -25v-5l-5 -25l-11 -14l-16 -4h-5l-15 4l-11 14l-5 28h-100zM762 397l-78 -6l-63 -21l-50 -44l-33 -57l-17 -61l-5 -62v-8l15 -75l44 -52l74 -19l76 16l44 44l14 66v5l-13 65l-37 43l-56 15l-18 -2l-17 -4l-14 -6l5 14l6 12l8 11l27 22l37 12l51 4v88zM164 0l576 780h-104
l-576 -780h104z" />
    <glyph glyph-name="uni215B" unicode="&#x215b;" horiz-adv-x="800" 
d="M652 310l15 -4l10 -10l4 -16v-5l-3 -18l-10 -10l-17 -4h-2l-18 4l-10 10l-3 18v5l4 16l11 10l14 4h5zM647 155h5l18 -3l10 -11l4 -18v-5l-5 -22l-11 -13l-16 -4h-5l-15 4l-12 13l-4 22v5l3 18l11 11zM287 390v86h-78v303h-76l-122 -82l50 -71l48 32v-182h-79v-86h257z
M164 0l576 780h-104l-576 -780h104zM650 -8l80 20l41 45l12 49v11l-6 35l-15 28l-21 19l20 20l15 27l5 36v10l-11 45l-41 42l-79 18l-79 -18l-41 -42l-11 -45v-10l5 -35l14 -28l21 -19l-22 -20l-15 -27l-6 -36v-11l12 -49l41 -45z" />
    <glyph glyph-name="uni215C" unicode="&#x215c;" horiz-adv-x="800" 
d="M652 310l15 -4l10 -10l4 -16v-5l-3 -18l-10 -10l-17 -4h-2l-18 4l-10 10l-3 18v5l4 16l11 10l14 4h5zM647 155h5l18 -3l10 -11l4 -18v-5l-5 -22l-11 -13l-16 -4h-5l-15 4l-12 13l-4 22v5l3 18l11 11zM116 515h-100v-8l15 -68l45 -42l74 -15l80 20l41 45l12 49v10l-6 36
l-15 27l-22 20l21 20l14 27l6 36v10l-11 45l-41 42l-79 18l-74 -14l-43 -43l-14 -71v-9h100l4 30l10 15l14 5h5l15 -4l10 -10l4 -15v-6l-3 -18l-10 -10l-17 -4h-51v-88h52l18 -4l10 -10l4 -18v-5l-5 -22l-11 -13l-16 -4h-5l-15 4l-11 14zM164 0l576 780h-104l-576 -780h104z
M650 -8l80 20l41 45l12 49v11l-6 35l-15 28l-21 19l20 20l15 27l5 36v10l-11 45l-41 42l-79 18l-79 -18l-41 -42l-11 -45v-10l5 -35l14 -28l21 -19l-22 -20l-15 -27l-6 -36v-11l12 -49l41 -45z" />
    <glyph glyph-name="uni215D" unicode="&#x215d;" horiz-adv-x="800" 
d="M652 310l15 -4l10 -10l4 -16v-5l-3 -18l-10 -10l-17 -4h-2l-18 4l-10 10l-3 18v5l4 16l11 10l14 4h5zM647 155h5l18 -3l10 -11l4 -18v-5l-5 -22l-11 -13l-16 -4h-5l-15 4l-12 13l-4 22v5l3 18l11 11zM16 515v-8l15 -68l45 -42l74 -15l75 16l44 45l14 66v10l-14 66l-43 45
l-71 16l-16 -1l-15 -2l-15 -4l3 54h166v87h-250l-9 -212l86 -29l11 11l14 7l14 2h3l19 -4l13 -13l5 -25v-5l-5 -25l-11 -14l-16 -4h-5l-15 4l-11 14l-5 28h-100zM164 0l576 780h-104l-576 -780h104zM650 -8l80 20l41 45l12 49v11l-6 35l-15 28l-21 19l20 20l15 27l5 36v10
l-11 45l-41 42l-79 18l-79 -18l-41 -42l-11 -45v-10l5 -35l14 -28l21 -19l-22 -20l-15 -27l-6 -36v-11l12 -49l41 -45z" />
    <glyph glyph-name="uni215E" unicode="&#x215e;" horiz-adv-x="800" 
d="M652 310l15 -4l10 -10l4 -16v-5l-3 -18l-10 -10l-17 -4h-2l-18 4l-10 10l-3 18v5l4 16l11 10l14 4h5zM647 155h5l18 -3l10 -11l4 -18v-5l-5 -22l-11 -13l-16 -4h-5l-15 4l-12 13l-4 22v5l3 18l11 11zM13 640h87v53h31l44 1l-129 -304h107l133 328v62h-273v-140zM164 0
l576 780h-104l-576 -780h104zM650 -8l80 20l41 45l12 49v11l-6 35l-15 28l-21 19l20 20l15 27l5 36v10l-11 45l-41 42l-79 18l-79 -18l-41 -42l-11 -45v-10l5 -35l14 -28l21 -19l-22 -20l-15 -27l-6 -36v-11l12 -49l41 -45z" />
    <glyph glyph-name="uni215F" unicode="&#x215f;" horiz-adv-x="500" 
d="M287 390v86h-78v303h-76l-122 -82l50 -71l48 32v-182h-79v-86h257zM164 0l576 780h-104l-576 -780h104z" />
    <glyph glyph-name="arrowleft" unicode="&#x2190;" horiz-adv-x="920" 
d="M447 780l-390 -390l390 -390h166l-331 331h568v118h-568l331 331h-166z" />
    <glyph glyph-name="arrowup" unicode="&#x2191;" horiz-adv-x="920" 
d="M70 237l331 331v-568h118v568l331 -331v166l-390 390l-390 -390v-166z" />
    <glyph glyph-name="arrowright" unicode="&#x2192;" horiz-adv-x="920" 
d="M307 780l331 -331h-568v-118h568l-331 -331h166l390 390l-390 390h-166z" />
    <glyph glyph-name="arrowdown" unicode="&#x2193;" horiz-adv-x="920" 
d="M70 377l390 -390l390 390v166l-331 -331v568h-118v-568l-331 331v-166z" />
    <glyph glyph-name="uni2196" unicode="&#x2196;" horiz-adv-x="920" 
d="M188 0v580l592 -593l83 83l-593 592h580v118h-780v-780h118z" />
    <glyph glyph-name="uni2197" unicode="&#x2197;" horiz-adv-x="920" 
d="M70 662h580l-593 -592l83 -83l592 593v-580h118v780h-780v-118z" />
    <glyph glyph-name="uni2198" unicode="&#x2198;" horiz-adv-x="920" 
d="M70 0h780v780h-118v-580l-592 593l-83 -83l593 -592h-580v-118z" />
    <glyph glyph-name="uni2199" unicode="&#x2199;" horiz-adv-x="920" 
d="M850 118h-580l593 592l-83 83l-592 -593v580h-118v-780h780v118z" />
    <glyph glyph-name="minus" unicode="&#x2212;" horiz-adv-x="600" 
d="M44 331h512v118h-512v-118z" />
    <glyph glyph-name="approxequal" unicode="&#x2248;" horiz-adv-x="600" 
d="M182 579l-64 -13l-51 -33l-36 -43l63 -64l22 22l31 20l39 9l71 -17l72 -33l89 -17l64 13l51 33l36 43l-63 63l-22 -22l-31 -20l-39 -9l-71 18l-72 32zM182 366l-64 -13l-51 -33l-36 -43l63 -63l22 22l31 19l39 9l71 -17l72 -33l89 -17l64 13l51 33l36 43l-63 64l-22 -22
l-31 -20l-39 -9l-71 17l-72 33z" />
    <glyph glyph-name="notequal" unicode="&#x2260;" horiz-adv-x="600" 
d="M44 437h235l-54 -94h-181v-118h114l-63 -110h95l63 110h303v118h-236l54 94h182v118h-114l63 110h-95l-63 -110h-303v-118z" />
    <glyph glyph-name="equivalence" unicode="&#x2261;" horiz-adv-x="600" 
d="M44 544h512v117h-512v-117zM44 119h512v117h-512v-117zM44 331h512v118h-512v-118z" />
    <glyph glyph-name="lessequal" unicode="&#x2264;" horiz-adv-x="600" 
d="M556 172l-512 165v-80l512 -164v79zM556 558v129l-512 -164v-128l512 -165v130l-331 98z" />
    <glyph glyph-name="greaterequal" unicode="&#x2265;" horiz-adv-x="600" 
d="M44 93l512 164v80l-512 -165v-79zM44 360v-130l512 165v128l-512 164v-129l331 -100z" />
    <glyph glyph-name="squaremultiply" unicode="&#x22a0;" horiz-adv-x="920" 
d="M312 159l148 148l148 -148l83 83l-148 148l148 148l-83 83l-148 -148l-148 148l-83 -83l148 -148l-148 -148zM734 664v-548h-548v548h548zM850 0v780h-780v-780h780z" />
    <glyph glyph-name="house" unicode="&#x2302;" horiz-adv-x="850" 
d="M780 0v450l-355 340l-355 -340v-450h710z" />
    <glyph glyph-name="whitesquare" unicode="&#x25a1;" horiz-adv-x="920" 
d="M734 664v-548h-548v548h548zM850 0v780h-780v-780h780z" />
    <glyph glyph-name="blacksmallsquare" unicode="&#x25aa;" horiz-adv-x="680" 
d="M600 0v530h-530v-530h530z" />
    <glyph glyph-name="whitesmallsquare" unicode="&#x25ab;" horiz-adv-x="680" 
d="M484 414v-298h-298v298h298zM70 530v-530h530v530h-530z" />
    <glyph glyph-name="triagup" unicode="&#x25b2;" horiz-adv-x="930" 
d="M529 793h-128l-339 -793h130l273 650l273 -650h130z" />
    <glyph glyph-name="triagrt" unicode="&#x25ba;" horiz-adv-x="930" 
d="M873 454l-793 339v-130l650 -273l-650 -273v-130l793 339v128z" />
    <glyph glyph-name="triagdn" unicode="&#x25bc;" horiz-adv-x="930" 
d="M401 -13h128l339 793h-130l-273 -651l-273 651h-130z" />
    <glyph glyph-name="triaglf" unicode="&#x25c4;" horiz-adv-x="930" 
d="M57 454v-128l793 -339v130l-651 273l651 273v130z" />
    <glyph glyph-name="blackcircle" unicode="&#x25cf;" horiz-adv-x="920" 
d="M57 390l55 -203l145 -145l203 -55l203 55l145 145l55 203l-55 203l-145 145l-203 55l-203 -55l-145 -145z" />
    <glyph glyph-name="uni25E2" unicode="&#x25e2;" horiz-adv-x="930" 
d="M897 45l-321 799l-92 -91l268 -655l-653 269l-92 -92l800 -320l45 44z" />
    <glyph glyph-name="uni25E3" unicode="&#x25e3;" horiz-adv-x="930" 
d="M78 -1l45 -44l800 320l-92 92l-654 -269l269 655l-92 91l-321 -799z" />
    <glyph glyph-name="uni25E4" unicode="&#x25e4;" horiz-adv-x="930" 
d="M33 737l321 -800l92 92l-269 653l654 -268l92 92l-800 321z" />
    <glyph glyph-name="uni25E5" unicode="&#x25e5;" horiz-adv-x="930" 
d="M897 737l-90 90l-800 -321l92 -92l653 268l-268 -653l92 -92z" />
    <glyph glyph-name="whitecircle" unicode="&#x25ef;" horiz-adv-x="920" 
d="M173 390l39 145l103 103l145 39l145 -39l103 -103l39 -145l-39 -145l-103 -103l-145 -39l-145 39l-103 103zM57 390l55 -203l145 -145l203 -55l203 55l145 145l55 203l-55 203l-145 145l-203 55l-203 -55l-145 -145z" />
    <glyph glyph-name="uni2605" unicode="&#x2605;" horiz-adv-x="880" 
d="M440 180l260 -190l-99 307l260 189h-322l-99 306l-99 -306h-322l260 -189l-99 -307z" />
    <glyph glyph-name="ballotboxwithx" unicode="&#x2612;" horiz-adv-x="680" 
d="M312 371h-83v-83l23 -23l-23 -23v-83h83l23 23l23 -23h83v83l-23 23l23 23v83h-83l-23 -23zM484 414v-298h-298v298h298zM70 530v-530h530v530h-530z" />
    <glyph glyph-name="uni263C" unicode="&#x263c;" horiz-adv-x="960" 
d="M521 191l13 -16l16 -36l9 -44l9 -36l25 -25l35 -10l10 1l9 3l9 4l-12 3l-24 17l-12 39l2 20l4 22l2 20l-6 34l-12 22l-8 10l172 -113l-113 172l29 -4l34 -13l32 -24l15 -12l17 -7l19 -2l26 5l22 15l14 26l-4 -3l-13 -6l-18 -3l-32 11l-22 25l-24 32l-28 20l-25 8l-13 1
l202 42l-202 42l16 13l36 16l44 9l36 9l25 25l10 35l-1 10l-3 9l-4 9l-3 -12l-17 -24l-39 -12l-20 2l-22 4l-20 2l-34 -6l-22 -12l-10 -8l113 172l-172 -113l4 29l13 34l24 32l12 15l7 17l2 19l-5 26l-15 22l-26 14l3 -4l6 -13l3 -18l-11 -32l-25 -22l-32 -24l-20 -28
l-8 -25l-1 -13l-42 202l-42 -202l-13 16l-16 36l-9 44l-9 36l-25 25l-35 10l-10 -1l-9 -3l-9 -4l12 -3l24 -17l12 -39l-2 -20l-4 -22l-2 -20l6 -34l12 -22l8 -10l-172 113l113 -172l-29 4l-34 13l-32 24l-15 12l-17 7l-19 2l-26 -5l-22 -15l-14 -26l4 3l13 6l18 3l32 -11
l22 -25l24 -32l28 -20l25 -8l13 -1l-202 -42l202 -42l-16 -13l-36 -16l-44 -9l-36 -9l-25 -25l-10 -35l1 -10l3 -9l4 -9l3 12l17 24l39 12l20 -2l22 -4l20 -2l34 6l22 12l10 8l-113 -172l172 113l-4 -29l-13 -34l-24 -32l-12 -15l-7 -17l-2 -19l5 -26l15 -22l26 -14l-3 4
l-6 13l-3 18l11 32l25 22l32 24l20 28l8 25l1 13l42 -202z" />
    <glyph glyph-name="uni263E" unicode="&#x263e;" horiz-adv-x="960" 
d="M624 728l33 -2l32 -5l31 -8l-73 41l-81 27l-86 9l-202 -55l-143 -143l-55 -202l55 -202l143 -143l202 -55l86 9l81 26l73 42l-31 -8l-32 -5l-33 -2l-164 46l-116 121l-44 171l44 171l116 121z" />
    <glyph glyph-name="spade" unicode="&#x2660;" horiz-adv-x="900" 
d="M451 790h-2l-52 -67l-81 -84l-100 -79l-81 -61l-60 -73l-23 -92l24 -89l63 -62l89 -23l88 23l67 59l45 79l3 -1l-15 -121l-26 -102l-41 -97h202l-41 97l-26 102l-15 121l3 1l45 -79l67 -59l88 -23l89 23l63 62l24 89l-23 92l-60 73l-81 61l-100 79l-81 84z" />
    <glyph glyph-name="club" unicode="&#x2663;" horiz-adv-x="900" 
d="M349 0h202l-41 97l-26 102l-15 121l3 1l45 -79l67 -59l88 -23l89 23l63 62l24 89l-22 93l-61 63l-91 24l-32 -3l-28 -9l-24 -11l-2 2l20 35l13 39l5 43l-23 91l-62 64l-91 25l-91 -25l-62 -64l-23 -91l5 -43l13 -39l20 -35l-2 -2l-24 11l-28 9l-32 3l-91 -24l-61 -63
l-22 -93l24 -89l63 -62l89 -23l88 23l67 59l45 79l3 -1l-15 -121l-26 -102z" />
    <glyph glyph-name="heart" unicode="&#x2665;" horiz-adv-x="900" 
d="M451 -10l52 72l81 103l100 118l73 90l64 104l27 107l-23 106l-66 73l-102 27l-102 -22l-65 -57l-38 -78h-4l-38 78l-65 57l-102 22l-102 -27l-66 -73l-23 -106l27 -107l64 -104l73 -90l100 -118l81 -103l52 -72h2z" />
    <glyph glyph-name="diamond" unicode="&#x2666;" horiz-adv-x="900" 
d="M817 390l-138 122l-125 136l-103 142h-2l-103 -142l-125 -136l-138 -122l138 -122l125 -136l103 -142h2l103 142l125 136z" />
    <glyph glyph-name="uni267B" unicode="&#x267b;" horiz-adv-x="959" 
d="M806 527l-149 -86l116 -201l48 17l45 46l19 63l-1 17l-4 16l-5 11zM446 41v173h-232l-10 -50l17 -61l46 -49l16 -7l15 -5l13 -1h135zM200 598l150 -86l116 201l-39 34l-62 16l-64 -15l-15 -10l-12 -11l-7 -10zM404 779l17 -3l37 -16l37 -38l72 -125l-41 -24l173 -31
l61 166l-43 -24l-28 49l-27 32l-30 12l-35 3h-193v-1zM186 122l-6 17l-4 40l14 51l20 35l34 59l18 31l41 -24l-59 166l-174 -31l42 -24l-28 -49l-15 -40l4 -32l15 -31l96 -168h2zM863 266l-12 -13l-32 -26l-51 -13h-145v49l-113 -135l113 -136v49h57l42 8l26 20l20 28
l96 167z" />
    <glyph glyph-name="uni267C" unicode="&#x267c;" horiz-adv-x="960" 
d="M64 390l54 -200l142 -142l200 -54l200 54l142 142l54 200l-54 200l-142 142l-200 54l-200 -54l-142 -142zM755 294l-75 -130l-15 -22l-20 -15l-33 -6h-44v-38l-88 105l88 105v-38h112l40 10l25 20l9 10zM763 407l4 -9l3 -12l1 -13l-15 -49l-35 -36l-37 -13l-90 156
l116 67zM228 184l-75 130l-11 24l-3 25l11 31l22 38l-33 19l135 24l46 -129l-32 19l-56 -97l-11 -40l4 -31l4 -13h-1zM322 121l-10 1l-12 3l-12 6l-35 38l-13 47l7 39h180v-134h-105zM394 694h150l27 -2l23 -10l21 -25l22 -38l33 19l-47 -129l-134 24l32 19l-56 97l-29 29
l-29 12l-13 3v1zM292 645l6 8l9 8l11 8l50 11l48 -12l30 -26l-90 -156l-116 67z" />
    <glyph glyph-name="uni267D" unicode="&#x267d;" horiz-adv-x="960" 
d="M98 390l49 183l130 130l183 49l183 -49l130 -130l49 -183l-49 -183l-130 -130l-183 -49l-183 49l-130 130zM60 390l55 -202l143 -143l202 -55l202 55l143 143l55 202l-55 202l-143 143l-202 55l-202 -55l-143 -143zM754 295l-9 -10l-25 -20l-40 -10h-112v38l-88 -105
l88 -105v38h44l33 6l20 15l15 22l75 130zM710 498l-116 -67l90 -156l37 13l35 36l15 49l-1 13l-3 12l-4 9zM229 184l-4 13l-4 31l11 40l56 97l32 -19l-46 129l-135 -24l33 -19l-22 -38l-11 -31l3 -25l11 -24l75 -130h1zM427 121v134h-180l-7 -39l13 -47l35 -38l12 -6l12 -3
l10 -1h105zM394 693l13 -3l29 -12l29 -29l56 -97l-32 -19l134 -24l47 129l-33 -19l-22 38l-21 25l-23 10l-27 2h-150v-1zM240 553l116 -67l90 156l-30 26l-48 12l-50 -11l-11 -8l-9 -8l-6 -8z" />
    <glyph glyph-name="mediumwhitecircle" unicode="&#x26aa;" horiz-adv-x="670" 
d="M173 265l22 82l58 58l82 22l82 -22l58 -58l22 -82l-22 -82l-58 -58l-82 -22l-82 22l-58 58zM57 265l38 -140l100 -100l140 -38l140 38l100 100l38 140l-38 140l-100 100l-140 38l-140 -38l-100 -100z" />
    <glyph glyph-name="mediumblackcircle" unicode="&#x26ab;" horiz-adv-x="670" 
d="M57 265l38 -140l100 -100l140 -38l140 38l100 100l38 140l-38 140l-100 100l-140 38l-140 -38l-100 -100z" />
    <glyph glyph-name="anglebracketleft" unicode="&#x3008;" horiz-adv-x="350" 
d="M327 840h-135l-162 -480l162 -480h135l-162 480z" />
    <glyph glyph-name="anglebracketright" unicode="&#x3009;" horiz-adv-x="350" 
d="M23 -120h135l162 480l-162 480h-135l162 -480z" />
    <glyph glyph-name="fi" unicode="&#xe38c;" horiz-adv-x="651" 
d="M597 763h-142v-141h142v141zM461 0h130v530h-130v-530zM234 613l10 54l30 26l46 7l20 -1l19 -4l12 -3v108l-14 5l-28 6l-40 2l-96 -18l-65 -59l-24 -108v-98h-81v-114h81v-416h130v416h127v114h-127v83z" />
    <glyph glyph-name="fl" unicode="&#xe38d;" horiz-adv-x="651" 
d="M461 0h130v800h-130v-800zM234 613l10 54l30 26l46 7l20 -1l19 -4l12 -3v108l-14 5l-28 6l-40 2l-96 -18l-65 -59l-24 -108v-98h-81v-114h81v-416h130v416h127v114h-127v83z" />
    <glyph glyph-name="invertedbreve" unicode="&#xe411;" horiz-adv-x="499" 
d="M250 793l-106 -25l-57 -68l-16 -99h96l10 52l28 29l45 10l45 -10l28 -29l10 -52h96l-16 99l-57 68z" />
    <glyph glyph-name="doublegrave" unicode="&#xe412;" horiz-adv-x="500" 
d="M187 780l85 -179h105l-73 179h-117zM21 780l103 -179h105l-91 179h-117z" />
    <glyph glyph-name="caronSlovak" unicode="&#xe413;" horiz-adv-x="500" 
d="M311 800v-199h62l23 199h-85z" />
    <glyph glyph-name="dotbelow" unicode="&#xe415;" horiz-adv-x="602" 
d="M311 -62h-122v-123h122v123z" />
    <glyph glyph-name="altcedilla" unicode="&#xe416;" horiz-adv-x="602" 
d="M292 -122l-5 -14l-17 -8l-29 -3l-26 2l-25 5l-20 9l-20 -59l25 -12l35 -9l42 -3l62 9l39 29l13 47l-14 48l-39 28l-55 9l-28 -2l-22 -4l-18 -4v-49l12 3l18 3l21 1l29 -3l17 -8z" />
    <glyph glyph-name="grave.cap" unicode="&#xe421;" horiz-adv-x="500" 
d="M122 950l63 -110h130l-56 110h-137z" />
    <glyph glyph-name="acute.cap" unicode="&#xe422;" horiz-adv-x="500" 
d="M241 950l-56 -110h130l63 110h-137z" />
    <glyph glyph-name="circumflex.cap" unicode="&#xe423;" horiz-adv-x="500" 
d="M186 840l64 50l64 -50h120l-119 110h-130l-119 -110h120z" />
    <glyph glyph-name="tilde.cap" unicode="&#xe424;" horiz-adv-x="500" 
d="M351 943l-5 -21l-12 -12l-18 -3l-40 13l-48 24l-57 13l-48 -11l-34 -34l-13 -65h73l5 21l12 12l18 3l40 -13l48 -24l57 -13l48 11l34 34l13 65h-73z" />
    <glyph glyph-name="macron.cap" unicode="&#xe425;" horiz-adv-x="500" 
d="M112 853h276v84h-276v-84z" />
    <glyph glyph-name="breve.cap" unicode="&#xe426;" horiz-adv-x="500" 
d="M250 826l104 17l52 45l15 62h-92l-8 -26l-26 -17l-45 -6l-45 6l-26 17l-8 26h-92l15 -62l52 -45z" />
    <glyph glyph-name="invertedbreve.cap" unicode="&#xe427;" horiz-adv-x="500" 
d="M250 964l-104 -17l-52 -45l-15 -62h92l8 26l26 17l45 6l45 -6l26 -17l8 -26h92l-15 62l-52 45z" />
    <glyph glyph-name="dotaccent.cap" unicode="&#xe428;" horiz-adv-x="500" 
d="M308 941h-116v-92h116v92z" />
    <glyph glyph-name="dieresis.cap" unicode="&#xe429;" horiz-adv-x="500" 
d="M393 941h-117v-92h117v92zM224 941h-117v-92h117v92z" />
    <glyph glyph-name="ring.cap" unicode="&#xe42a;" horiz-adv-x="500" 
d="M198 861l7 26l19 19l26 7l26 -7l19 -19l7 -26l-7 -27l-19 -19l-26 -7l-26 7l-19 19zM148 861l14 -52l37 -36l51 -14l51 14l37 36l14 52l-14 51l-37 37l-51 14l-51 -14l-37 -37z" />
    <glyph glyph-name="hungarumlaut.cap" unicode="&#xe42b;" horiz-adv-x="500" 
d="M325 950l-57 -110h118l63 110h-124zM165 950l-51 -110h118l57 110h-124z" />
    <glyph glyph-name="doublegrave.cap" unicode="&#xe42c;" horiz-adv-x="500" 
d="M51 950l63 -110h118l-57 110h-124zM211 950l57 -110h118l-51 110h-124z" />
    <glyph glyph-name="caron.cap" unicode="&#xe42d;" horiz-adv-x="500" 
d="M66 950l119 -110h130l119 110h-120l-64 -51l-64 51h-120z" />
    <glyph glyph-name="commaaccent.cap" unicode="&#xe42e;" horiz-adv-x="500" 
d="M192 840h116v60h-63l14 18l23 10l32 2v36l-69 -11l-40 -33l-13 -52v-30z" />
    <glyph glyph-name="exclamdown.cap" unicode="&#xe441;" horiz-adv-x="250" 
d="M54 639h142v141h-142v-141zM206 0l-36 564h-90l-36 -564h162z" />
    <glyph glyph-name="questiondown.cap" unicode="&#xe444;" horiz-adv-x="484" 
d="M174 639h142v141h-142v-141zM238 103l-51 12l-26 34l-7 53l38 98l69 108l29 156h-90l-52 -138l-83 -92l-44 -143l20 -101l67 -74l130 -29l133 32l70 91l20 142v15h-132l-8 -91l-28 -55z" />
    <glyph glyph-name="guilsinglleft.cap" unicode="&#xe451;" horiz-adv-x="313" 
d="M263 601l-213 -149v-124l213 -149v117l-122 94l122 94v117z" />
    <glyph glyph-name="guilsinglright.cap" unicode="&#xe452;" horiz-adv-x="313" 
d="M50 484l122 -94l-122 -94v-117l213 149v124l-213 149v-117z" />
    <glyph glyph-name="guillemotleft.cap" unicode="&#xe453;" horiz-adv-x="550" 
d="M500 601l-212 -149v-124l212 -149v117l-122 94l122 94v117zM263 601l-213 -149v-124l213 -149v117l-122 94l122 94v117z" />
    <glyph glyph-name="guillemotright.cap" unicode="&#xe454;" horiz-adv-x="550" 
d="M288 484l121 -94l-121 -94v-117l212 149v124l-212 149v-117zM50 484l122 -94l-122 -94v-117l213 149v124l-213 149v-117z" />
    <glyph glyph-name="slash.cap" unicode="&#xe461;" horiz-adv-x="363" 
d="M149 0l192 780h-128l-192 -780h128z" />
    <glyph glyph-name="backslash.cap" unicode="&#xe462;" horiz-adv-x="363" 
d="M21 780l192 -780h128l-192 780h-128z" />
    <glyph glyph-name="bar.cap" unicode="&#xe463;" horiz-adv-x="243" 
d="M57 0h128v780h-128v-780z" />
    <glyph glyph-name="doublebar.cap" unicode="&#xe464;" horiz-adv-x="418" 
d="M233 0h127v780h-127v-780zM57 0h128v780h-128v-780z" />
    <glyph glyph-name="brokenbar.cap" unicode="&#xe465;" horiz-adv-x="243" 
d="M57 0h128v363h-128v-363zM57 417h128v363h-128v-363z" />
    <glyph glyph-name="bullet.cap" unicode="&#xe466;" horiz-adv-x="430" 
d="M366 541h-302v-302h302v302z" />
    <glyph glyph-name="onethirdemdash" unicode="&#xe471;" horiz-adv-x="333" 
d="M293 293v114h-253v-114h253z" />
    <glyph glyph-name="threequarteremdash" unicode="&#xe472;" horiz-adv-x="750" 
d="M40 293h670v114h-670v-114z" />
    <glyph glyph-name="periodcentered.cap" unicode="&#xe481;" horiz-adv-x="250" 
d="M196 461h-142v-142h142v142z" />
    <glyph glyph-name="hyphen.cap" unicode="&#xe482;" horiz-adv-x="320" 
d="M40 333h265v114h-265v-114z" />
    <glyph glyph-name="onethirdemdash.cap" unicode="&#xe483;" horiz-adv-x="333" 
d="M293 333v114h-250v-114h250z" />
    <glyph glyph-name="endash.cap" unicode="&#xe484;" horiz-adv-x="500" 
d="M40 333h420v114h-420v-114z" />
    <glyph glyph-name="threequarteremdash.cap" unicode="&#xe485;" horiz-adv-x="750" 
d="M40 333h670v114h-670v-114z" />
    <glyph glyph-name="emdash.cap" unicode="&#xe486;" horiz-adv-x="1000" 
d="M40 333h920v114h-920v-114z" />
    <glyph glyph-name="figuredash.cap" unicode="&#xe487;" horiz-adv-x="600" 
d="M40 333h520v114h-520v-114z" />
    <glyph glyph-name="uni2015.cap" unicode="&#xe488;" horiz-adv-x="1200" 
d="M40 333h1120v114h-1120v-114z" />
    <glyph glyph-name="parenleft.cap" unicode="&#xe491;" horiz-adv-x="350" 
d="M49 380l17 -154l43 -127l61 -99h136l-60 103l-47 129l-19 148v20l19 148l47 129l60 103h-136l-61 -99l-43 -127l-17 -154v-20z" />
    <glyph glyph-name="parenright.cap" unicode="&#xe492;" horiz-adv-x="350" 
d="M301 400l-16 154l-44 127l-61 99h-136l60 -103l47 -129l19 -148v-20l-19 -148l-47 -129l-60 -103h136l61 99l44 127l16 154v20z" />
    <glyph glyph-name="bracketleft.cap" unicode="&#xe493;" horiz-adv-x="350" 
d="M61 780v-780h254v115h-124v550h124v115h-254z" />
    <glyph glyph-name="bracketright.cap" unicode="&#xe494;" horiz-adv-x="350" 
d="M290 0v780h-254v-115h123v-550h-123v-115h254z" />
    <glyph glyph-name="braceleft.cap" unicode="&#xe495;" horiz-adv-x="350" 
d="M315 780h-25l-97 -15l-66 -52l-25 -99v-83l-8 -50l-26 -25l-44 -8v-116l44 -8l26 -25l8 -50v-83l25 -99l66 -52l97 -15h25v115l-45 8l-28 29l-9 54v72l-7 49l-20 37l-32 26l32 25l20 37l7 50v82l11 48l27 25l44 8v115z" />
    <glyph glyph-name="braceright.cap" unicode="&#xe496;" horiz-adv-x="350" 
d="M36 665l45 -8l27 -29l9 -54v-72l7 -50l20 -37l31 -25l-31 -26l-20 -37l-7 -49v-72l-9 -54l-27 -29l-45 -8v-115h24l97 15l66 52l25 99v83l8 50l26 25l44 8v116l-44 8l-26 25l-8 50v83l-25 99l-66 52l-97 15h-24v-115z" />
    <glyph glyph-name="anglebracketleft.cap" unicode="&#xe497;" horiz-adv-x="350" 
d="M304 780h-135l-136 -390l136 -390h135l-136 390z" />
    <glyph glyph-name="anglebracketright.cap" unicode="&#xe498;" horiz-adv-x="350" 
d="M182 390l-136 -390h135l136 390l-136 390h-135z" />
    <glyph glyph-name="lowline" unicode="&#xe511;" horiz-adv-x="320" 
d="M44 0h232v114h-232v-114z" />
    <glyph glyph-name="underscoremonospace" unicode="&#xe512;" horiz-adv-x="600" 
d="M44 -169h512v114h-512v-114z" />
    <glyph glyph-name="at.cap" unicode="&#xe513;" horiz-adv-x="981" 
d="M574 308l-21 -26l-34 -22l-45 -10l-57 16l-33 46l-11 68v30l11 68l33 46l57 16l45 -10l34 -22l21 -26v-174zM510 -24l-204 44l-137 131l-50 219v40l50 217l135 132l201 45h6l168 -27l129 -96l52 -186v-30l-18 -131l-56 -66l-97 -21v243l8 140h-102l-11 -64l-34 40l-47 27
l-62 10l-106 -31l-63 -83l-20 -119v-30l20 -119l63 -83l106 -31l62 10l47 27l34 39l11 -63h86l139 26l97 93l36 186v30l-62 227l-161 130l-222 41l-248 -57l-169 -163l-62 -263v-40l63 -263l170 -163l251 -57l122 10l129 38l132 79l-51 69l-102 -60l-110 -35l-117 -12h-6z
" />
    <glyph glyph-name="zero.inf" unicode="&#xe571;" 
d="M181 80v-171l-4 -15l-10 -11l-16 -4h-2l-16 4l-11 11l-4 15v171l4 16l11 10l16 4h2l16 -4l10 -10zM281 -91v171l-15 61l-44 41l-72 15l-72 -15l-44 -41l-15 -61v-171l15 -60l44 -42l72 -15l72 15l44 42z" />
    <glyph glyph-name="one.inf" unicode="&#xe572;" 
d="M287 -200v86h-78v303h-76l-122 -82l50 -71l48 32v-182h-79v-86h257z" />
    <glyph glyph-name="two.inf" unicode="&#xe573;" 
d="M281 -114h-124l81 89l23 29l15 31l5 41v11l-11 49l-41 43l-79 18l-74 -14l-43 -43l-14 -71v-9h100l4 30l10 15l14 5h5l15 -4l10 -14l4 -24v-5l-3 -16l-6 -13l-11 -12l-142 -159v-63h262v86z" />
    <glyph glyph-name="three.inf" unicode="&#xe574;" 
d="M116 -75h-100v-8l15 -68l45 -42l74 -15l80 20l41 45l12 49v10l-6 36l-15 28l-22 20l21 19l14 27l6 36v10l-11 45l-41 42l-79 18l-74 -14l-43 -43l-14 -71v-9h100l4 30l10 15l14 5h5l15 -4l10 -10l4 -15v-6l-3 -18l-10 -10l-17 -4h-51v-88h52l18 -4l10 -10l4 -18v-5
l-5 -22l-11 -13l-16 -4h-5l-15 4l-11 14z" />
    <glyph glyph-name="four.inf" unicode="&#xe575;" 
d="M156 32l-1 -18v-50h-24l-18 -2zM255 -200v76h32v88h-32v226h-94l-149 -243v-71h143v-76h100z" />
    <glyph glyph-name="five.inf" unicode="&#xe576;" 
d="M16 -75v-8l15 -68l45 -42l74 -15l75 16l44 45l14 66v10l-14 66l-43 45l-71 16l-16 -1l-15 -2l-15 -4l3 54h166v87h-250l-9 -212l86 -29l11 11l14 7l14 2h3l19 -4l13 -13l5 -25v-5l-5 -25l-11 -14l-16 -4h-5l-15 4l-11 14l-5 28h-100z" />
    <glyph glyph-name="six.inf" unicode="&#xe577;" 
d="M150 -40h3l15 -3l11 -11l4 -20v-11l-5 -20l-12 -12l-15 -4h-3l-16 5l-12 17l-4 29v12l10 11l12 5zM262 197l-78 -6l-63 -21l-50 -44l-33 -57l-17 -61l-5 -62v-8l15 -75l44 -52l74 -19l76 16l44 44l14 66v5l-13 65l-37 43l-56 15l-18 -2l-17 -4l-14 -6l5 14l6 12l8 11
l27 22l37 12l51 4v88z" />
    <glyph glyph-name="seven.inf" unicode="&#xe578;" 
d="M13 50h87v53h31l44 1l-129 -304h107l133 328v62h-273v-140z" />
    <glyph glyph-name="eight.inf" unicode="&#xe579;" 
d="M152 110l15 -4l10 -10l4 -16v-5l-3 -18l-10 -10l-17 -4h-2l-18 4l-10 10l-3 18v5l4 16l11 10l14 4h5zM147 -45h5l18 -3l10 -11l4 -18v-5l-5 -22l-11 -13l-16 -4h-5l-15 4l-12 13l-4 22v5l3 18l11 11zM150 -208l80 20l41 45l12 49v11l-6 36l-15 27l-21 20l20 19l15 27
l5 36v10l-11 45l-41 42l-79 18l-79 -18l-41 -42l-11 -45v-10l5 -35l14 -28l21 -19l-22 -20l-15 -27l-6 -36v-11l12 -49l41 -45z" />
    <glyph glyph-name="nine.inf" unicode="&#xe57a;" 
d="M149 29h-2l-15 3l-11 11l-4 21v10l5 20l12 13l15 4h3l16 -6l12 -17l4 -28v-13l-11 -10l-13 -6zM37 -208l78 6l64 21l50 44l32 58l18 61l5 62v7l-15 76l-44 51l-75 19l-75 -16l-44 -44l-14 -65v-5l13 -65l36 -43l56 -15l18 2l16 4l15 6l-5 -14l-7 -12l-7 -11l-27 -22
l-37 -12l-51 -5v-88z" />
    <glyph glyph-name="plus.inf" unicode="&#xe57b;" 
d="M106 125v-86h-86v-88h86v-86h88v86h86v88h-86v86h-88z" />
    <glyph glyph-name="minus.inf" unicode="&#xe57c;" 
d="M20 -49h260v88h-260v-88z" />
    <glyph glyph-name="equal.inf" unicode="&#xe57d;" 
d="M20 -104h260v87h-260v-87zM20 7h260v87h-260v-87z" />
    <glyph glyph-name="parenleft.inf" unicode="&#xe57e;" horiz-adv-x="194" 
d="M18 -10l8 -82l22 -63l30 -45h102l-28 48l-24 65l-11 77v10l11 77l24 65l28 48h-102l-30 -45l-22 -64l-8 -81v-10z" />
    <glyph glyph-name="parenright.inf" unicode="&#xe57f;" horiz-adv-x="194" 
d="M174 0l-8 81l-21 64l-30 45h-102l28 -48l24 -65l10 -77v-10l-10 -77l-24 -65l-28 -48h102l30 45l21 63l8 82v10z" />
    <glyph glyph-name="Anocross" unicode="&#xe731;" horiz-adv-x="631" 
d="M223 784l-205 -784h145l153 631l153 -631h144l-205 784h-185z" />
    <glyph glyph-name="blacksquare" unicode="&#xe740;" horiz-adv-x="920" 
d="M850 0v780h-780v-780h780z" />
    <glyph glyph-name="idotaccent" unicode="&#xe785;" horiz-adv-x="250" 
d="M196 763h-142v-141h142v141zM60 0h130v530h-130v-530z" />
    <glyph glyph-name="interrobangdown" unicode="&#xe935;" horiz-adv-x="484" 
d="M154 -16l8 46l19 42l26 42l-5 -205l-27 17l-16 25zM169 389h142v141h-142v-141zM200 314l-51 -116l-84 -85l-44 -140l20 -91l69 -68l128 -27l133 31l70 89l20 137v16h-117l-7 -72l-21 -50l-35 -28l-8 404h-73z" />
    <glyph glyph-name="interrobangdown.cap" unicode="&#xe99b;" horiz-adv-x="484" 
d="M147 205l9 49l23 48l28 50l-5 -244l-32 20l-18 33zM164 639h142v141h-142v-141zM200 564l-52 -138l-83 -92l-44 -143l20 -101l67 -74l130 -29l133 32l70 91l20 142v15h-119l-6 -75l-18 -53l-36 -29l-9 454h-73z" />
    <glyph glyph-name="registered.cap" unicode="&#xe99c;" horiz-adv-x="920" 
d="M387 406v131h82l31 -5l24 -18l10 -39v-7l-10 -39l-24 -18l-31 -5h-82zM387 318h88l53 -163h124l-72 180l37 26l25 43l10 62v11l-24 92l-60 44l-74 12h-224v-470h117v163zM109 390l48 177l126 126l177 48l177 -48l126 -126l48 -177l-48 -177l-126 -126l-177 -48l-177 48
l-126 126zM57 390l55 -203l145 -145l203 -55l203 55l145 145l55 203l-55 203l-145 145l-203 55l-203 -55l-145 -145z" />
    <glyph glyph-name="period.T" unicode="&#xf182;" 
d="M221 141h-142v-141h142v141z" />
    <glyph glyph-name="comma.T" unicode="&#xf183;" 
d="M221 141h-142v-141h72l-15 -38l-27 -22l-41 -7v-68l85 19l51 55l17 91v111z" />
    <glyph glyph-name="colon.T" unicode="&#xf184;" 
d="M221 141h-142v-141h142v141zM221 461h-142v-142h142v142z" />
    <glyph glyph-name="semicolon.T" unicode="&#xf185;" 
d="M221 461h-142v-142h142v142zM221 141h-142v-141h72l-15 -38l-27 -22l-41 -7v-68l85 19l51 55l17 91v111z" />
    <glyph glyph-name="onesixteenth" unicode="&#xf215;" horiz-adv-x="1100" 
d="M950 160h3l15 -3l11 -11l4 -20v-11l-5 -20l-12 -12l-15 -4h-3l-16 5l-12 17l-4 29v12l10 10l12 6zM787 0v86h-78v303h-76l-122 -82l50 -71l48 32v-182h-79v-86h257zM287 390v86h-78v303h-76l-122 -82l50 -71l48 32v-182h-79v-86h257zM1062 397l-78 -6l-63 -21l-50 -44
l-33 -57l-17 -61l-5 -62v-8l15 -75l44 -52l74 -19l76 16l44 44l14 66v5l-13 65l-37 43l-56 15l-18 -2l-17 -4l-14 -6l5 14l6 12l8 11l27 22l37 12l51 4v88zM164 0l576 780h-104l-576 -780h104z" />
    <glyph glyph-name="threesixteenths" unicode="&#xf216;" horiz-adv-x="1100" 
d="M950 160h3l15 -3l11 -11l4 -20v-11l-5 -20l-12 -12l-15 -4h-3l-16 5l-12 17l-4 29v12l10 10l12 6zM787 0v86h-78v303h-76l-122 -82l50 -71l48 32v-182h-79v-86h257zM116 515h-100v-8l15 -68l45 -42l74 -15l80 20l41 45l12 49v10l-6 36l-15 27l-22 20l21 20l14 27l6 36v10
l-11 45l-41 42l-79 18l-74 -14l-43 -43l-14 -71v-9h100l4 30l10 15l14 5h5l15 -4l10 -10l4 -15v-6l-3 -18l-10 -10l-17 -4h-51v-88h52l18 -4l10 -10l4 -18v-5l-5 -22l-11 -13l-16 -4h-5l-15 4l-11 14zM1062 397l-78 -6l-63 -21l-50 -44l-33 -57l-17 -61l-5 -62v-8l15 -75
l44 -52l74 -19l76 16l44 44l14 66v5l-13 65l-37 43l-56 15l-18 -2l-17 -4l-14 -6l5 14l6 12l8 11l27 22l37 12l51 4v88zM164 0l576 780h-104l-576 -780h104z" />
    <glyph glyph-name="fivesixteenths" unicode="&#xf217;" horiz-adv-x="1100" 
d="M950 160h3l15 -3l11 -11l4 -20v-11l-5 -20l-12 -12l-15 -4h-3l-16 5l-12 17l-4 29v12l10 10l12 6zM787 0v86h-78v303h-76l-122 -82l50 -71l48 32v-182h-79v-86h257zM16 515v-8l15 -68l45 -42l74 -15l75 16l44 45l14 66v10l-14 66l-43 45l-71 16l-16 -1l-15 -2l-15 -4
l3 54h166v87h-250l-9 -212l86 -29l11 11l14 7l14 2h3l19 -4l13 -13l5 -25v-5l-5 -25l-11 -14l-16 -4h-5l-15 4l-11 14l-5 28h-100zM1062 397l-78 -6l-63 -21l-50 -44l-33 -57l-17 -61l-5 -62v-8l15 -75l44 -52l74 -19l76 16l44 44l14 66v5l-13 65l-37 43l-56 15l-18 -2
l-17 -4l-14 -6l5 14l6 12l8 11l27 22l37 12l51 4v88zM164 0l576 780h-104l-576 -780h104z" />
    <glyph glyph-name="sevensixteenths" unicode="&#xf218;" horiz-adv-x="1100" 
d="M950 160h3l15 -3l11 -11l4 -20v-11l-5 -20l-12 -12l-15 -4h-3l-16 5l-12 17l-4 29v12l10 10l12 6zM13 640h87v53h31l44 1l-129 -304h107l133 328v62h-273v-140zM787 0v86h-78v303h-76l-122 -82l50 -71l48 32v-182h-79v-86h257zM1062 397l-78 -6l-63 -21l-50 -44l-33 -57
l-17 -61l-5 -62v-8l15 -75l44 -52l74 -19l76 16l44 44l14 66v5l-13 65l-37 43l-56 15l-18 -2l-17 -4l-14 -6l5 14l6 12l8 11l27 22l37 12l51 4v88zM164 0l576 780h-104l-576 -780h104z" />
    <glyph glyph-name="ninesixteenths" unicode="&#xf219;" horiz-adv-x="1100" 
d="M950 160h3l15 -3l11 -11l4 -20v-11l-5 -20l-12 -12l-15 -4h-3l-16 5l-12 17l-4 29v12l10 10l12 6zM149 619h-2l-15 3l-11 11l-4 21v10l5 20l12 13l15 4h3l16 -6l12 -17l4 -28v-13l-11 -10l-13 -6zM787 0v86h-78v303h-76l-122 -82l50 -71l48 32v-182h-79v-86h257z
M1062 397l-78 -6l-63 -21l-50 -44l-33 -57l-17 -61l-5 -62v-8l15 -75l44 -52l74 -19l76 16l44 44l14 66v5l-13 65l-37 43l-56 15l-18 -2l-17 -4l-14 -6l5 14l6 12l8 11l27 22l37 12l51 4v88zM37 382l78 6l64 21l50 44l32 58l18 61l5 62v7l-15 76l-44 51l-75 19l-75 -16
l-44 -44l-14 -65v-5l13 -65l36 -43l56 -15l18 1l16 4l15 7l-5 -14l-7 -12l-7 -11l-27 -22l-37 -12l-51 -5v-88zM164 0l576 780h-104l-576 -780h104z" />
    <glyph glyph-name="elevensixteenths" unicode="&#xf220;" horiz-adv-x="1400" 
d="M1250 160h3l15 -3l11 -11l4 -20v-11l-5 -20l-12 -12l-15 -4h-3l-16 5l-12 17l-4 29v12l10 10l12 6zM287 390v86h-78v303h-76l-122 -82l50 -71l48 32v-182h-79v-86h257zM587 390v86h-78v303h-76l-122 -82l50 -71l48 32v-182h-79v-86h257zM1087 0v86h-78v303h-76l-122 -82
l50 -71l48 32v-182h-79v-86h257zM1362 397l-78 -6l-63 -21l-50 -44l-33 -57l-17 -61l-5 -62v-8l15 -75l44 -52l74 -19l76 16l44 44l14 66v5l-13 65l-37 43l-56 15l-18 -2l-17 -4l-14 -6l5 14l6 12l8 11l27 22l37 12l51 4v88zM464 0l576 780h-104l-576 -780h104z" />
    <glyph glyph-name="thirteensixteenths" unicode="&#xf221;" horiz-adv-x="1400" 
d="M1250 160h3l15 -3l11 -11l4 -20v-11l-5 -20l-12 -12l-15 -4h-3l-16 5l-12 17l-4 29v12l10 10l12 6zM1087 0v86h-78v303h-76l-122 -82l50 -71l48 32v-182h-79v-86h257zM287 390v86h-78v303h-76l-122 -82l50 -71l48 32v-182h-79v-86h257zM416 515h-100v-8l15 -68l45 -42
l74 -15l80 20l41 45l12 49v10l-6 36l-15 27l-22 20l21 20l14 27l6 36v10l-11 45l-41 42l-79 18l-74 -14l-43 -43l-14 -71v-9h100l4 30l10 15l14 5h5l15 -4l10 -10l4 -15v-6l-3 -18l-10 -10l-17 -4h-51v-88h52l18 -4l10 -10l4 -18v-5l-5 -22l-11 -13l-16 -4h-5l-15 4l-11 14z
M1362 397l-78 -6l-63 -21l-50 -44l-33 -57l-17 -61l-5 -62v-8l15 -75l44 -52l74 -19l76 16l44 44l14 66v5l-13 65l-37 43l-56 15l-18 -2l-17 -4l-14 -6l5 14l6 12l8 11l27 22l37 12l51 4v88zM464 0l576 780h-104l-576 -780h104z" />
    <glyph glyph-name="fifteensixteenths" unicode="&#xf222;" horiz-adv-x="1400" 
d="M1250 160h3l15 -3l11 -11l4 -20v-11l-5 -20l-12 -12l-15 -4h-3l-16 5l-12 17l-4 29v12l10 10l12 6zM1087 0v86h-78v303h-76l-122 -82l50 -71l48 32v-182h-79v-86h257zM287 390v86h-78v303h-76l-122 -82l50 -71l48 32v-182h-79v-86h257zM316 515v-8l15 -68l45 -42l74 -15
l75 16l44 45l14 66v10l-14 66l-43 45l-71 16l-16 -1l-15 -2l-15 -4l3 54h166v87h-250l-9 -212l86 -29l11 11l14 7l14 2h3l19 -4l13 -13l5 -25v-5l-5 -25l-11 -14l-16 -4h-5l-15 4l-11 14l-5 28h-100zM1362 397l-78 -6l-63 -21l-50 -44l-33 -57l-17 -61l-5 -62v-8l15 -75
l44 -52l74 -19l76 16l44 44l14 66v5l-13 65l-37 43l-56 15l-18 -2l-17 -4l-14 -6l5 14l6 12l8 11l27 22l37 12l51 4v88zM464 0l576 780h-104l-576 -780h104z" />
    <glyph glyph-name="commaaccent" unicode="&#xf6c3;" horiz-adv-x="602" 
d="M311 -47h-122v-86h69l-17 -24l-27 -13l-37 -4v-49l75 13l44 39l15 68v56z" />
    </font>
</defs>
</svg>
