<?xml version="1.0" standalone="no"?>
<!DOCTYPE svg PUBLIC "-//W3C//DTD SVG 1.1//EN" "http://www.w3.org/Graphics/SVG/1.1/DTD/svg11.dtd" >
<svg>
<metadata>
Created by FontForge 20120731 at Sun Aug 14 13:03:02 2016
 By www-data
Copyright (c) 2014, Cooper Hewitt Smithsonian Design Museum (cooperhewitt.org)
</metadata>
<defs>
<font id="CooperHewittInterpol2-ThinItalic" horiz-adv-x="300" >
  <font-face 
    font-family="Cooper Hewitt Interpol 2"
    font-weight="702"
    font-style="italic"
    font-stretch="normal"
    units-per-em="1000"
    panose-1="0 0 0 0 0 0 0 0 0 0"
    ascent="750"
    descent="-250"
    x-height="530"
    cap-height="780"
    bbox="-249 -206 1360 956"
    underline-thickness="20"
    underline-position="-80"
    unicode-range="U+0020-F6C3"
  />
<missing-glyph horiz-adv-x="963" 
d="M527 390l275 275v-550zM437 390l-275 -275v550zM203 714h558l-279 -279zM482 345l279 -279h-558zM92 0h780v780h-780v-780z" />
    <glyph glyph-name=".notdef" horiz-adv-x="963" 
d="M527 390l275 275v-550zM437 390l-275 -275v550zM203 714h558l-279 -279zM482 345l279 -279h-558zM92 0h780v780h-780v-780z" />
    <glyph glyph-name="space" unicode=" " horiz-adv-x="180" 
 />
    <glyph glyph-name="exclam" unicode="!" horiz-adv-x="180" 
d="M66 40h-40l-5 -40h40zM133 780l-76 -605h14l82 605h-20z" />
    <glyph glyph-name="quotedbl" unicode="&#x22;" horiz-adv-x="280" 
d="M233 780l-28 -250h10l38 250h-20zM133 780l-28 -250h10l38 250h-20z" />
    <glyph glyph-name="numbersign" unicode="#" horiz-adv-x="600" 
d="M250 510h193l-89 -240h-193zM350 780h-20l-93 -250h-116l-3 -20h112l-89 -240h-118l-3 -20h113l-92 -250h20l92 250h193l-92 -250h20l92 250h117l3 20h-112l89 240h118l3 20h-114l93 250h-20l-93 -250h-193z" />
    <glyph glyph-name="dollar" unicode="$" horiz-adv-x="597" 
d="M259 80l-23 1l-22 2l-19 3l113 304l100 -21l60 -41l20 -71l-33 -96l-82 -60l-111 -21h-3zM475 840h-20l-47 -126l-20 3l-21 2l-23 1l-114 -21l-86 -57l-41 -89l-1 -8l11 -73l59 -51l117 -29l-112 -301l-63 38l-32 61l-1 81h-20l-2 -16l5 -75l35 -65l71 -43l-49 -132h20
l47 127l22 -4l23 -2l25 -1l118 20l88 59l42 94l1 8l-12 83l-62 56l-118 29l104 281l64 -34l33 -62v-96h20l3 24l-4 86l-37 63l-72 38zM296 411l-100 22l-56 37l-18 57l34 97l83 57l102 19h3l20 -1l19 -1l18 -3z" />
    <glyph glyph-name="percent" unicode="%" horiz-adv-x="898" 
d="M361 616l-24 -74l-49 -50l-69 -18h-6l-64 17l-38 50l-6 75l1 8l24 74l49 50l69 18h6l64 -17l38 -50l6 -75zM652 -6l79 20l57 55l29 87l1 8l-8 87l-46 55l-77 20l-79 -20l-57 -55l-29 -87l-1 -8l8 -87l46 -55zM649 14l-64 17l-38 50l-6 75l1 8l24 74l49 50l69 18h6l64 -17
l38 -50l6 -75l-1 -8l-24 -74l-49 -50l-69 -18h-6zM382 624l1 47l-9 41l-20 33l37 -7l45 -6l54 -2l74 6l54 10l21 6l-411 -752h22l418 765l2 15l-45 -13l-64 -12l-71 -5l-63 3l-61 9l-64 17l-17 4l-17 2l-17 1l-79 -20l-57 -55l-29 -87l-1 -8l8 -87l46 -55l77 -20l79 20
l57 55l29 87z" />
    <glyph glyph-name="ampersand" unicode="&#x26;" horiz-adv-x="640" 
d="M140 639l23 64l50 46l79 17h6l78 -17l44 -46l10 -64l-1 -8l-37 -77l-74 -63l-92 -57l-53 68l-29 61l-5 68zM224 14l-102 24l-57 66l-9 102l1 8l31 81l58 63l75 52l232 -284l-70 -67l-77 -35l-76 -10h-6zM227 -6l86 11l79 37l74 68l90 -110h25l-104 127l39 69l31 88
l21 111h-20l-1 -8l-19 -99l-28 -80l-36 -65l-226 277l95 60l78 67l38 84l1 8l-11 76l-52 52l-92 19l-92 -20l-58 -53l-25 -74l-1 -8l5 -72l32 -65l53 -70l-78 -55l-62 -67l-32 -88l-1 -8l12 -115l66 -72z" />
    <glyph glyph-name="quotesingle" unicode="'" horiz-adv-x="180" 
d="M133 780l-28 -250h10l38 250h-20z" />
    <glyph glyph-name="parenleft" unicode="(" 
d="M62 348l-3 -200l39 -149l64 -119h23l-68 126l-38 150l3 192l3 24l47 193l79 152l100 123h-23l-95 -117l-79 -150l-49 -201z" />
    <glyph glyph-name="parenright" unicode=")" horiz-adv-x="295" 
d="M234 372l3 200l-39 149l-64 119h-23l68 -126l38 -150l-3 -192l-3 -24l-47 -193l-79 -152l-100 -123h23l95 117l79 150l49 201z" />
    <glyph glyph-name="asterisk" unicode="*" horiz-adv-x="380" 
d="M400 686l-149 -46l3 -19l149 46zM317 479l-71 122l-17 -11l71 -122zM53 668l137 -46l9 18l-137 46zM104 468l104 121l-14 13l-104 -121zM236 800l-20 -150h20l20 150h-20z" />
    <glyph glyph-name="plus" unicode="+" horiz-adv-x="600" 
d="M324 640l-32 -240h-241l-3 -20h241l-32 -240h20l32 240h239l3 20h-239l32 240h-20z" />
    <glyph glyph-name="comma" unicode="," horiz-adv-x="180" 
d="M66 40h-40l-5 -40h20l-16 -51l-27 -27l-34 -7l-2 -20l46 12l35 38l19 63z" />
    <glyph glyph-name="hyphen" unicode="-" horiz-adv-x="320" 
d="M44 330h220l3 20h-220z" />
    <glyph glyph-name="period" unicode="." horiz-adv-x="180" 
d="M66 40h-40l-5 -40h40z" />
    <glyph glyph-name="slash" unicode="/" 
d="M336 840h-20l-356 -960h20z" />
    <glyph glyph-name="zero" unicode="0" horiz-adv-x="596" 
d="M257 -6l130 26l83 79l42 138l41 315l-10 127l-69 79l-127 28l-130 -26l-83 -79l-42 -138l-41 -315l10 -127l69 -79zM254 14l-111 23l-63 70l-9 122l40 307l43 137l79 72l111 21h6l111 -23l63 -70l9 -122l-40 -307l-43 -137l-79 -72l-111 -21h-6z" />
    <glyph glyph-name="one" unicode="1" horiz-adv-x="600" 
d="M490 0l3 20h-220l101 765h-15l-256 -158l10 -18l237 146l-97 -735h-219l-3 -20h459z" />
    <glyph glyph-name="two" unicode="2" horiz-adv-x="598" 
d="M158 20l-110 -1l378 348l76 75l41 59l18 65l3 24l-20 103l-78 68l-117 25l-137 -28l-86 -82l-39 -132l-3 -24h20l34 135l76 83l131 28h8l102 -22l70 -61l18 -93l-3 -24l-17 -61l-38 -55l-70 -69l-398 -366l-2 -15h470l3 20h-330z" />
    <glyph glyph-name="three" unicode="3" horiz-adv-x="598" 
d="M538 568l-35 -87l-74 -54l-104 -19h-121l-3 -20h124l104 -20l58 -59l10 -97l-3 -24l-40 -97l-81 -58l-112 -19h-8l-119 25l-65 78l-6 133h-20l-3 -24l12 -125l71 -79l134 -28l123 20l91 64l44 110l3 24l-9 95l-49 63l-80 28l85 27l63 57l31 86l3 24l-20 105l-77 66
l-116 23l-137 -28l-86 -82l-39 -132l-3 -24h20l34 135l76 83l131 28h8l102 -22l68 -61l18 -91z" />
    <glyph glyph-name="four" unicode="4" horiz-adv-x="600" 
d="M442 753l-22 -153l-46 -350h-211l-113 -1zM361 0l30 230h149l3 20h-149l70 530h-25l-416 -535l-2 -15h350l-30 -230h20z" />
    <glyph glyph-name="five" unicode="5" horiz-adv-x="600" 
d="M312 466l108 -26l68 -74l15 -114l-3 -24l-42 -114l-84 -74l-113 -26h-8l-119 25l-65 78l-6 133h-20l-3 -24l12 -125l71 -79l134 -28l124 27l93 80l47 127l3 24l-18 127l-78 80l-120 27l-97 -13l-73 -37l-49 -56l66 380h425l3 20h-445l-77 -441l19 -6l53 74l73 44l98 15h8
z" />
    <glyph glyph-name="six" unicode="6" horiz-adv-x="600" 
d="M79 314l57 76l80 55l98 21h8l107 -26l66 -73l13 -115l-3 -24l-42 -114l-84 -74l-113 -26h-8l-100 24l-67 67l-25 105l2 41l5 36zM564 786l-124 -16l-122 -54l-115 -99l-80 -115l-48 -118l-25 -119l-1 -8l15 -144l77 -89l121 -30l124 27l93 80l47 127l3 24l-16 127l-76 80
l-119 27l-95 -17l-76 -44l-59 -65l29 82l42 83l58 80l107 92l118 53l119 16z" />
    <glyph glyph-name="seven" unicode="7" horiz-adv-x="600" 
d="M86 500h20l34 260h310l117 1l-415 -761h22l417 765l2 15h-470z" />
    <glyph glyph-name="eight" unicode="8" horiz-adv-x="598" 
d="M348 766l103 -21l71 -59l19 -94l-3 -24l-35 -87l-74 -54l-104 -19h-44l-100 19l-58 56l-11 91l3 24l37 90l79 58l109 20h8zM279 388h46l104 -20l58 -59l10 -97l-3 -24l-40 -97l-81 -58l-112 -19h-8l-109 20l-70 61l-17 100l3 24l36 95l74 56zM562 592l-21 105l-79 66
l-118 23l-121 -22l-88 -63l-41 -103l-3 -24l8 -84l42 -60l70 -32l-83 -29l-59 -58l-30 -92l-3 -24l20 -112l80 -67l121 -22l123 20l91 64l44 110l3 24l-9 95l-49 63l-80 28l85 27l63 57l31 86z" />
    <glyph glyph-name="nine" unicode="9" horiz-adv-x="597" 
d="M525 466l-57 -76l-80 -55l-98 -21h-8l-107 26l-66 73l-13 115l3 24l42 114l84 74l113 26h8l100 -24l67 -67l25 -105l-2 -41l-5 -36zM40 -6l124 16l122 54l115 99l80 115l48 118l25 119l1 8l-15 144l-77 89l-121 30l-124 -27l-93 -80l-47 -127l-3 -24l16 -127l76 -80
l119 -27l95 17l76 44l59 65l-29 -82l-42 -83l-58 -80l-107 -92l-118 -53l-119 -16z" />
    <glyph glyph-name="colon" unicode=":" horiz-adv-x="180" 
d="M114 410h-40l-5 -40h40zM66 40h-40l-5 -40h40z" />
    <glyph glyph-name="semicolon" unicode=";" horiz-adv-x="180" 
d="M66 40h-40l-5 -40h20l-16 -51l-27 -27l-34 -7l-2 -20l46 12l35 38l19 63zM114 410h-40l-5 -40h40z" />
    <glyph glyph-name="less" unicode="&#x3c;" horiz-adv-x="600" 
d="M52 399l-2 -18l467 -247l3 21l-449 234l511 234l3 23z" />
    <glyph glyph-name="equal" unicode="=" horiz-adv-x="600" 
d="M37 280h499l3 20h-499zM63 480h499l3 20h-499z" />
    <glyph glyph-name="greater" unicode="&#x3e;" horiz-adv-x="600" 
d="M550 381l2 18l-467 247l-3 -21l449 -234l-511 -234l-3 -23z" />
    <glyph glyph-name="question" unicode="?" horiz-adv-x="440" 
d="M196 40h-40l-5 -40h40zM270 786l-109 -34l-72 -92l-37 -136l-3 -24h20l35 143l66 91l100 32l83 -22l45 -55l13 -74l-53 -151l-103 -123l-68 -166h14l72 160l105 124l54 155l-16 86l-52 62z" />
    <glyph glyph-name="at" unicode="@" horiz-adv-x="926" 
d="M619 423l-34 -252l-43 -48l-56 -35l-72 -14l-89 21l-59 68l-11 120l3 24l41 120l75 68l90 21l74 -15l51 -36zM418 -186l-215 57l-134 160l-27 247l3 24l83 247l165 160l224 57h6l191 -43l131 -128l31 -213l-3 -24l-54 -173l-96 -83l-125 -22l9 100l30 228l21 122h-15
l-18 -83l-32 42l-53 33l-76 14l-100 -23l-82 -75l-44 -131l-3 -24l13 -131l65 -75l101 -23l76 15l59 34l36 41l-4 -84h5l142 24l107 90l58 184l3 24l-32 220l-137 137l-207 47l-233 -58l-173 -165l-89 -261l-3 -24l29 -254l141 -169l229 -61l116 8l115 31l119 64l-10 16
l-112 -60l-110 -30l-115 -9h-6z" />
    <glyph glyph-name="A" unicode="A" horiz-adv-x="590" 
d="M347 760l93 -510h-321zM340 790l-354 -790h22l102 230h334l42 -230h20l-146 790h-20z" />
    <glyph glyph-name="B" unicode="B" horiz-adv-x="549" 
d="M310 760l85 -11l68 -49l18 -108l-3 -24l-41 -104l-73 -46l-87 -10h-172l46 352h159zM277 388l86 -11l70 -50l19 -115l-3 -24l-44 -112l-80 -47l-95 -9h-176l48 368h175zM133 780l-102 -780h199l109 13l85 54l46 121l3 24l-9 102l-48 59l-72 25l69 21l55 52l31 97l3 24
l-18 116l-73 57l-101 15h-177z" />
    <glyph glyph-name="C" unicode="C" horiz-adv-x="587" 
d="M65 378v-220l68 -124l134 -40l129 28l82 79l38 125l3 24h-20l-42 -140l-78 -74l-109 -22h-6l-121 37l-59 117l2 210l3 24l52 212l91 116l131 36h6l109 -23l54 -83l-1 -160h20l3 24l-5 152l-62 84l-121 26l-143 -38l-99 -123l-56 -223z" />
    <glyph glyph-name="D" unicode="D" horiz-adv-x="608" 
d="M54 20l97 740h170l134 -35l76 -114l6 -209l-3 -24l-62 -210l-111 -114l-146 -34h-161zM558 402l-9 223l-85 119l-143 36h-188l-102 -780h184l154 36l119 120l67 222z" />
    <glyph glyph-name="E" unicode="E" horiz-adv-x="540" 
d="M133 780l-102 -780h410l3 20h-390l48 368h339l3 20h-339l46 352h389l3 20h-410z" />
    <glyph glyph-name="F" unicode="F" horiz-adv-x="484" 
d="M133 780l-102 -780h20l51 388h319l3 20h-319l46 352h369l3 20h-390z" />
    <glyph glyph-name="G" unicode="G" horiz-adv-x="620" 
d="M288 -6l101 13l73 31l49 39l37 285h-179l-3 -20h160l-34 -256l-45 -33l-68 -27l-88 -12h-6l-129 37l-68 117l-2 210l3 24l54 212l94 116l130 36h6l114 -26l57 -84l2 -156h20l3 24l-5 145l-64 88l-130 29l-144 -38l-101 -123l-57 -223l-3 -24l3 -220l76 -124z" />
    <glyph glyph-name="H" unicode="H" horiz-adv-x="620" 
d="M573 780l-49 -372h-420l49 372h-20l-102 -780h20l51 388h420l-51 -388h20l102 780h-20z" />
    <glyph glyph-name="I" unicode="I" horiz-adv-x="190" 
d="M158 780h-20l-102 -780h20z" />
    <glyph glyph-name="J" unicode="J" horiz-adv-x="470" 
d="M426 780l-70 -535l-31 -129l-59 -77l-99 -25l-93 27l-42 78l4 128h-20l-3 -24l2 -119l48 -81l104 -29l109 28l66 80l31 121l73 557h-20z" />
    <glyph glyph-name="K" unicode="K" horiz-adv-x="518" 
d="M153 780h-20l-102 -780h20l32 245l151 179l174 -424h23l-183 441l285 339h-28l-418 -501z" />
    <glyph glyph-name="L" unicode="L" horiz-adv-x="464" 
d="M401 0l3 20h-350l100 760h-21l-102 -780h370z" />
    <glyph glyph-name="M" unicode="M" horiz-adv-x="760" 
d="M334 30l-180 750h-21l-102 -780h20l73 560l21 174l176 -734h20l368 734l-25 -173l-73 -561h20l102 780h-23z" />
    <glyph glyph-name="N" unicode="N" horiz-adv-x="640" 
d="M496 32l-341 748h-22l-102 -780h20l79 605l18 143l341 -748h22l102 780h-20l-79 -605z" />
    <glyph glyph-name="O" unicode="O" horiz-adv-x="621" 
d="M361 786l-142 -38l-96 -123l-55 -223l-3 -24l1 -220l71 -124l135 -40l142 38l96 123l55 223l3 24l-1 220l-71 124zM269 14l-122 37l-62 117l1 210l3 24l51 212l88 116l130 36h6l122 -37l62 -117l-1 -210l-3 -24l-51 -212l-88 -116l-130 -36h-6z" />
    <glyph glyph-name="P" unicode="P" horiz-adv-x="541" 
d="M98 360l52 400h170l87 -14l73 -56l19 -121l-3 -24l-49 -120l-86 -53l-91 -12h-172zM96 340h174l106 16l91 62l50 127l3 24l-18 127l-76 65l-106 19h-187l-102 -780h20z" />
    <glyph glyph-name="Q" unicode="Q" horiz-adv-x="617" 
d="M269 14l-122 37l-62 117l1 210l3 24l51 212l88 116l130 36h6l122 -37l62 -117l-1 -210l-3 -24l-39 -181l-64 -115l-90 -58l-44 181h-20l45 -185l-18 -3l-19 -2l-20 -1h-6zM361 786l-142 -38l-96 -123l-55 -223l-3 -24l1 -220l71 -124l135 -40l23 1l21 2l21 3l25 -100h20
l-26 105l98 61l69 122l42 190l3 24l-1 220l-71 124z" />
    <glyph glyph-name="R" unicode="R" horiz-adv-x="550" 
d="M98 360l52 400h170l87 -14l73 -56l19 -121l-3 -24l-49 -120l-86 -53l-91 -12h-172zM96 340h174h19l20 2l19 2l97 -344h20l-98 348l77 31l60 62l33 104l3 24l-18 127l-76 65l-106 19h-187l-102 -780h20z" />
    <glyph glyph-name="S" unicode="S" horiz-adv-x="576" 
d="M289 395l123 -35l64 -64l10 -98l-3 -24l-39 -93l-82 -51l-113 -16h-6l-121 25l-64 78l-5 133h-20l-3 -24l11 -125l71 -79l134 -28l123 17l91 56l44 107l3 24l-10 102l-65 74l-131 40l-125 33l-62 56l-11 83l3 24l39 86l80 52l106 18h6l117 -24l64 -79l6 -143h20l3 24
l-11 131l-70 82l-132 29l-119 -19l-88 -57l-42 -100l-3 -24l11 -88l65 -65z" />
    <glyph glyph-name="T" unicode="T" horiz-adv-x="490" 
d="M305 760h209l3 20h-439l-3 -20h209l-99 -760h20z" />
    <glyph glyph-name="U" unicode="U" horiz-adv-x="620" 
d="M267 -6l124 21l87 75l47 149l71 541h-20l-70 -535l-43 -140l-79 -71l-117 -20l-114 19l-65 71l-8 140l70 536h-20l-71 -541l12 -149l74 -75z" />
    <glyph glyph-name="V" unicode="V" horiz-adv-x="590" 
d="M254 -10l354 790h-22l-339 -760l-139 760h-20l146 -790h20z" />
    <glyph glyph-name="W" unicode="W" horiz-adv-x="860" 
d="M493 780h-22l-299 -745l-61 745h-20l65 -780h22l301 748l105 -748h22l269 780h-22l-255 -747z" />
    <glyph glyph-name="X" unicode="X" horiz-adv-x="580" 
d="M290 371l190 -371h23l-199 389l301 391h-26l-285 -371l-190 371h-23l199 -389l-301 -391h26z" />
    <glyph glyph-name="Y" unicode="Y" horiz-adv-x="540" 
d="M248 253l-159 527h-21l168 -550l-30 -230h20l30 230l312 550h-23z" />
    <glyph glyph-name="Z" unicode="Z" horiz-adv-x="550" 
d="M-7 14l-2 -14h470l3 20h-331l-112 -1l530 747l2 14h-450l-3 -20h311l112 1z" />
    <glyph glyph-name="bracketleft" unicode="[" 
d="M141 840l-126 -960h170l3 20h-150l120 920h150l3 20h-170z" />
    <glyph glyph-name="backslash" unicode="\" 
d="M190 -120h20l-104 960h-20z" />
    <glyph glyph-name="bracketright" unicode="]" 
d="M155 -120l126 960h-170l-3 -20h150l-120 -920h-150l-3 -20h170z" />
    <glyph glyph-name="asciicircum" unicode="^" horiz-adv-x="600" 
d="M363 780h-20l-312 -500h23l298 479l170 -479h21z" />
    <glyph glyph-name="underscore" unicode="_" horiz-adv-x="320" 
d="M-14 -110h220l3 20h-220z" />
    <glyph glyph-name="grave" unicode="`" horiz-adv-x="500" 
d="M202 780l69 -160h22l-69 160h-22z" />
    <glyph glyph-name="a" unicode="a" horiz-adv-x="482" 
d="M158 14l-72 15l-40 41l-8 58l2 16l28 71l54 36l71 16l191 29l-24 -185l-35 -39l-64 -40zM18 128l13 -75l50 -44l77 -15l96 15l65 35l41 42l-5 -86h16l10 118l32 246l-3 86l-44 62l-103 24l-110 -25l-57 -62l-22 -83l-2 -16h20l21 85l51 59l99 22l93 -22l36 -58v-82
l-5 -38l-184 -28l-84 -19l-65 -42l-34 -83z" />
    <glyph glyph-name="b" unicode="b" horiz-adv-x="506" 
d="M96 419l43 48l57 35l73 14l98 -29l51 -82l4 -128l-3 -24l-36 -128l-70 -82l-105 -29l-73 15l-50 36l-30 42zM146 800h-20l-89 -678l-21 -122h15l18 83l32 -42l52 -33l75 -14l115 31l77 89l39 139l3 24l-6 139l-58 89l-109 31l-75 -13l-56 -33l-38 -40z" />
    <glyph glyph-name="c" unicode="c" horiz-adv-x="503" 
d="M39 253l8 -139l62 -89l111 -31l111 26l65 62l26 77l2 16h-20l-27 -84l-60 -56l-97 -21l-100 29l-55 82l-6 128l3 24l37 128l73 82l106 29l98 -22l47 -61l3 -88h20l2 16l-6 83l-51 66l-113 26l-116 -31l-80 -89l-40 -139z" />
    <glyph glyph-name="d" unicode="d" horiz-adv-x="510" 
d="M426 423l-41 -312l-43 -48l-57 -35l-73 -14l-98 29l-51 82l-4 128l3 24l36 128l70 82l105 29l73 -15l50 -36zM273 536l-115 -31l-77 -89l-39 -139l-3 -24l6 -139l58 -89l109 -31l75 14l58 34l40 44l-5 -86h16l10 118l89 682h-20l-46 -348l-30 38l-51 32z" />
    <glyph glyph-name="e" unicode="e" horiz-adv-x="525" 
d="M282 516l105 -31l51 -85l4 -125h-380l38 129l75 83zM459 255l2 16l-3 137l-56 93l-120 35l-117 -31l-82 -89l-41 -139l-3 -24l12 -139l68 -89l114 -31l120 25l67 60l26 75l2 16h-20l-23 -77l-62 -57l-110 -22l-104 29l-60 83l-10 129h400z" />
    <glyph glyph-name="f" unicode="f" horiz-adv-x="340" 
d="M174 672l23 71l43 34l58 9l29 -3l23 -5l12 -5l3 20l-11 4l-24 6l-32 3l-63 -9l-51 -36l-28 -76l-21 -155h-85l-3 -20h86l-67 -510h20l67 510h164l3 20h-165z" />
    <glyph glyph-name="g" unicode="g" horiz-adv-x="510" 
d="M390 151l-43 -48l-56 -35l-72 -14l-95 24l-55 72l-8 123l3 24l37 123l71 72l99 24l74 -15l51 -36l30 -42zM180 -206l110 25l68 67l31 101l55 421l21 122h-15l-18 -83l-32 42l-53 33l-76 14l-110 -26l-77 -79l-40 -134l-3 -24l10 -134l62 -79l106 -26l74 13l56 33l37 40
l-15 -120l-28 -99l-62 -64l-101 -23l-102 21l-49 62l-3 103h-20l-2 -16l8 -101l57 -66z" />
    <glyph glyph-name="h" unicode="h" horiz-adv-x="488" 
d="M21 0h20l55 419l42 44l61 37l84 16l74 -13l45 -46l8 -83l-49 -374h20l50 381l-10 89l-52 50l-86 16l-82 -13l-60 -33l-41 -41l46 351h-20z" />
    <glyph glyph-name="i" unicode="i" horiz-adv-x="180" 
d="M155 720h-40l-5 -40h40zM31 0h20l69 530h-20z" />
    <glyph glyph-name="j" unicode="j" horiz-adv-x="180" 
d="M155 720h-40l-5 -40h40zM23 -63l-25 -76l-45 -37l-61 -10l-25 2l-21 4l-13 4l-2 -20l10 -3l20 -5l32 -2l66 12l53 41l30 84l78 599h-20z" />
    <glyph glyph-name="k" unicode="k" horiz-adv-x="458" 
d="M151 800h-20l-105 -800h20l22 171l150 143l135 -314h23l-142 329l211 201h-28l-345 -329z" />
    <glyph glyph-name="l" unicode="l" horiz-adv-x="180" 
d="M31 0h20l105 800h-20z" />
    <glyph glyph-name="m" unicode="m" horiz-adv-x="748" 
d="M563 536l-70 -13l-57 -34l-43 -46l-22 54l-45 30l-63 9l-74 -15l-56 -34l-37 -43l5 86h-16l-10 -118l-54 -412h20l55 419l38 44l56 37l73 16l62 -11l40 -40l7 -76l-51 -389h20l52 396v2l1 3v3l2 15l38 44l56 37l73 16l62 -11l40 -40l7 -76l-51 -389h20l52 396l-9 82
l-47 45z" />
    <glyph glyph-name="n" unicode="n" horiz-adv-x="488" 
d="M381 0l50 381l-10 89l-52 50l-86 16l-85 -15l-61 -34l-41 -43l5 86h-16l-10 -118l-54 -412h20l55 419l42 44l61 37l84 16l74 -13l45 -46l8 -83l-49 -374h20z" />
    <glyph glyph-name="o" unicode="o" horiz-adv-x="522" 
d="M220 14l-100 29l-55 82l-6 128l3 24l37 128l73 82l106 29l100 -29l55 -82l6 -128l-3 -24l-37 -128l-73 -82zM220 -6l116 31l80 89l40 139l3 24l-8 139l-62 89l-111 31l-116 -31l-80 -89l-40 -139l-3 -24l8 -139l62 -89z" />
    <glyph glyph-name="p" unicode="p" horiz-adv-x="506" 
d="M95 419l43 48l57 35l73 14l98 -29l51 -82l4 -128l-3 -24l-36 -128l-70 -82l-105 -29l-73 15l-50 36l-30 42zM207 -6l115 31l77 89l39 139l3 24l-6 139l-58 89l-109 31l-75 -14l-58 -34l-40 -44l5 86h-16l-10 -118l-80 -612h20l37 278l30 -38l51 -32z" />
    <glyph glyph-name="q" unicode="q" horiz-adv-x="510" 
d="M385 111l-43 -48l-57 -35l-73 -14l-98 29l-51 82l-4 128l3 24l36 128l70 82l105 29l73 -15l50 -36l30 -42zM344 -200h20l80 608l21 122h-15l-18 -83l-32 42l-52 33l-75 14l-115 -31l-77 -89l-39 -139l-3 -24l6 -139l58 -89l109 -31l75 13l56 33l38 40z" />
    <glyph glyph-name="r" unicode="r" horiz-adv-x="297" 
d="M261 536l-72 -14l-56 -35l-37 -43l5 86h-16l-10 -118l-54 -412h20l55 419l35 42l56 39l77 16h9l3 19h-2l-5 1h-8z" />
    <glyph glyph-name="s" unicode="s" horiz-adv-x="478" 
d="M213 261l98 -16l53 -33l16 -58l-22 -73l-62 -49l-96 -18l-105 19l-49 50l-4 77h-20l-2 -16l9 -74l55 -55l116 -21l102 18l67 49l29 72l1 8l-8 68l-50 46l-104 23l-97 16l-50 31l-14 50l21 76l59 48l94 17l101 -18l48 -53l4 -85h20l2 16l-8 82l-55 57l-112 21l-96 -17
l-66 -47l-30 -72l-1 -8l6 -61l46 -45z" />
    <glyph glyph-name="t" unicode="t" horiz-adv-x="360" 
d="M155 530l20 150h-20l-20 -150h-85l-3 -20h86l-50 -381l8 -83l43 -41l66 -11l29 2l21 5l11 3l3 20l-15 -4l-22 -4l-27 -2l-58 10l-34 38l-4 75l49 373h184l3 20h-185z" />
    <glyph glyph-name="u" unicode="u" horiz-adv-x="490" 
d="M80 530l-50 -381l10 -89l52 -50l86 -16l85 15l61 34l41 43l-5 -86h16l10 118l54 412h-20l-55 -419l-42 -44l-61 -37l-84 -16l-74 13l-45 46l-8 83l49 374h-20z" />
    <glyph glyph-name="v" unicode="v" horiz-adv-x="480" 
d="M194 25l-123 505h-21l131 -530h20l269 530h-23z" />
    <glyph glyph-name="w" unicode="w" horiz-adv-x="670" 
d="M352 504l86 -504h24l195 530h-22l-183 -506l-85 506h-24l-217 -504l-52 504h-21l57 -530h24z" />
    <glyph glyph-name="x" unicode="x" horiz-adv-x="440" 
d="M41 530l153 -264l-222 -266h25l207 249l143 -249h23l-153 265l222 265h-25l-207 -249l-143 249h-23z" />
    <glyph glyph-name="y" unicode="y" horiz-adv-x="460" 
d="M186 44l-118 486h-21l127 -513l-111 -217h22l107 217l261 513h-23z" />
    <glyph glyph-name="z" unicode="z" horiz-adv-x="430" 
d="M-13 14l-2 -14h360l3 20h-221l-111 -1l386 497l2 14h-340l-3 -20h201l111 1z" />
    <glyph glyph-name="braceleft" unicode="{" 
d="M311 840h-4l-61 -8l-49 -37l-27 -80l-33 -251l-19 -60l-36 -27l-48 -7l-3 -20l46 -6l29 -27l4 -59l-33 -251l6 -80l39 -37l59 -10h4l3 20l-54 8l-33 32l-4 70l32 247l-1 53l-16 33l-29 17l33 16l25 33l15 54l33 247l23 72l40 31l56 7z" />
    <glyph glyph-name="bar" unicode="|" horiz-adv-x="180" 
d="M15 -120h20l126 960h-20z" />
    <glyph glyph-name="braceright" unicode="}" 
d="M-15 -120h4l61 8l49 37l27 80l33 251l19 60l36 27l48 7l3 20l-46 6l-29 27l-4 59l33 251l-6 80l-39 37l-59 10h-4l-3 -20l54 -8l33 -32l4 -70l-32 -247l1 -53l16 -33l29 -17l-33 -16l-25 -33l-15 -54l-33 -247l-23 -72l-40 -31l-56 -7z" />
    <glyph glyph-name="asciitilde" unicode="~" horiz-adv-x="600" 
d="M424 354l-86 21l-71 40l-90 21l-63 -14l-46 -28l-25 -24l14 -14l25 24l41 24l54 12l86 -21l71 -40l90 -21l63 14l46 28l25 24l-14 14l-25 -24l-41 -24z" />
    <glyph glyph-name="nbspace" unicode="&#xa0;" horiz-adv-x="180" 
 />
    <glyph glyph-name="exclamdown" unicode="&#xa1;" horiz-adv-x="180" 
d="M85 490h40l5 40h-40zM24 -200l70 555h-14l-76 -555h20z" />
    <glyph glyph-name="cent" unicode="&#xa2;" horiz-adv-x="597" 
d="M97 402l47 167l88 99l123 32h6h14l14 -1l12 -2l-221 -597l-59 56l-29 93l2 129zM475 840h-20l-46 -124l-16 2l-18 2h-17l-137 -36l-94 -106l-50 -176l-3 -24l-2 -139l32 -99l68 -60l-51 -140h20l49 133l26 -7l29 -5l30 -1l123 25l77 67l35 102l3 24h-20l-36 -114l-73 -64
l-106 -20h-6l-28 1l-25 4l-22 7l223 601l69 -37l34 -70l-3 -105h20l3 24l-3 99l-38 69l-75 39z" />
    <glyph glyph-name="sterling" unicode="&#xa3;" horiz-adv-x="596" 
d="M378 766l100 -29l55 -87l3 -150h20l3 24l-8 142l-62 89l-111 31l-131 -37l-73 -94l-23 -125l1 -47l4 -43l5 -40h-98l-3 -20h104l16 -116l12 -120l-2 -124h-176l-3 -20h480l3 20h-284l4 122l-11 121l-17 117h214l3 20h-220l-6 42l-4 43l-2 45l20 110l65 89z" />
    <glyph glyph-name="yen" unicode="&#xa5;" horiz-adv-x="600" 
d="M59 450h143l64 -180h-230l-3 -20h239l-32 -250h20l32 250h241l3 20h-230l112 180h141l3 20h-132l193 310h-23l-315 -509l-181 509h-21l111 -310h-132z" />
    <glyph glyph-name="brokenbar" unicode="&#xa6;" horiz-adv-x="180" 
d="M15 -120h20l58 440h-20zM83 400h20l58 440h-20z" />
    <glyph glyph-name="section" unicode="&#xa7;" horiz-adv-x="498" 
d="M51 388l6 -69l51 -49l106 -23l96 -15l50 -30l15 -51l-21 -76l-59 -48l-94 -17l-101 18l-48 53l-4 85h-20l-2 -16l8 -82l55 -57l112 -21l96 17l66 47l30 72l1 8l-2 51l-27 40l-63 27l75 25l51 45l24 60l1 6l-6 69l-51 49l-106 23l-96 15l-50 30l-15 51l21 76l59 48l94 17
l101 -18l48 -53l4 -85h20l2 16l-8 82l-55 57l-112 21l-96 -17l-66 -47l-30 -72l-1 -8l2 -51l27 -40l63 -27l-75 -25l-51 -45l-24 -60zM70 366l23 77l64 50l101 19h10l93 -12l55 -35l19 -55l-23 -77l-64 -50l-101 -19h-10l-93 12l-55 35z" />
    <glyph glyph-name="dieresis" unicode="&#xa8;" horiz-adv-x="500" 
d="M385 720h-40l-5 -40h40zM245 720h-40l-5 -40h40z" />
    <glyph glyph-name="copyright" unicode="&#xa9;" horiz-adv-x="900" 
d="M450 149l104 23l58 55l18 63v10h-20l-17 -65l-53 -48l-90 -18l-100 27l-62 74l-21 110v20l21 110l62 74l100 27l90 -17l53 -47l17 -77h20v10l-18 75l-58 55l-104 21l-112 -30l-68 -81l-23 -120v-20l23 -120l68 -81zM74 390l51 190l135 135l190 51l190 -51l135 -135
l51 -190l-51 -190l-135 -135l-190 -51l-190 51l-135 135zM54 390l54 -200l142 -142l200 -54l200 54l142 142l54 200l-54 200l-142 142l-200 54l-200 -54l-142 -142z" />
    <glyph glyph-name="ordfeminine" unicode="&#xaa;" horiz-adv-x="374" 
d="M30 230h272l3 20h-272zM157 400l-50 12l-26 30l-5 40l1 8l20 52l40 29l52 14l140 21l-16 -127l-28 -32l-50 -32zM56 482l8 -55l35 -35l58 -12l70 11l51 27l34 32l-4 -62h17l8 97l22 164l-3 69l-35 49l-79 19l-81 -20l-44 -49l-17 -63l-1 -8h20l15 60l36 43l72 17l67 -15
l28 -43l1 -64l-2 -18l-137 -21l-60 -14l-50 -34l-28 -67z" />
    <glyph glyph-name="guillemotleft" unicode="&#xab;" horiz-adv-x="500" 
d="M467 506l-220 -156l-3 -20l179 -156l4 23l-164 141l201 141zM267 506l-220 -156l-3 -20l179 -156l4 23l-164 141l201 141z" />
    <glyph glyph-name="logicalnot" unicode="&#xac;" horiz-adv-x="600" 
d="M71 540h479l-42 -320h20l45 340h-499z" />
    <glyph glyph-name="uni00AD" unicode="&#xad;" horiz-adv-x="320" 
d="M44 330h220l3 20h-220z" />
    <glyph glyph-name="registered" unicode="&#xae;" horiz-adv-x="330" 
d="M204 703v-6l-4 -19l-13 -10l-24 -3h-36v70h36l24 -3l13 -10zM219 696v8l-7 26l-18 16l-28 5h-55v-172h16v70h43l32 -70h17l-32 73l17 9l11 14zM40 665l17 63l45 45l63 17l63 -17l45 -45l17 -63l-17 -63l-45 -45l-63 -17l-63 17l-45 45zM24 665l19 -71l51 -51l71 -19
l71 19l51 51l19 71l-19 71l-51 51l-71 19l-71 -19l-51 -51z" />
    <glyph glyph-name="macron" unicode="&#xaf;" horiz-adv-x="500" 
d="M191 690h200l3 20h-200z" />
    <glyph glyph-name="degree" unicode="&#xb0;" horiz-adv-x="398" 
d="M247 786l-74 -17l-56 -48l-28 -77l-1 -8l11 -76l48 -49l75 -17l74 17l56 48l28 77l1 8l-11 76l-48 49zM219 514l-63 14l-39 42l-9 66l1 8l24 65l49 42l62 15h6l63 -14l39 -42l9 -66l-1 -8l-24 -65l-49 -42l-62 -15h-6z" />
    <glyph glyph-name="plusminus" unicode="&#xb1;" horiz-adv-x="600" 
d="M23 180h499l3 20h-499zM324 640l-21 -160h-241l-3 -20h241l-21 -160h20l21 160h239l3 20h-239l21 160h-20z" />
    <glyph glyph-name="twosuperior" unicode="&#xb2;" 
d="M106 410l-41 -1l185 168l30 31l20 30l9 33l1 10l-9 56l-37 35l-63 13l-69 -14l-44 -42l-20 -64l-2 -15h20l19 68l36 37l57 11h6l51 -11l28 -30l6 -45l-1 -10l-7 -26l-18 -27l-30 -31l-199 -181l-2 -15h235l3 20h-164z" />
    <glyph glyph-name="threesuperior" unicode="&#xb3;" 
d="M154 404l-54 11l-32 35l-3 65h-20l-1 -10l7 -64l37 -41l69 -15l61 12l47 33l22 56l1 10l-5 44l-21 32l-34 16l40 17l28 30l13 41l1 10l-10 54l-38 33l-62 12l-70 -15l-44 -43l-19 -67l-1 -10h20l18 67l37 37l56 12h6l50 -10l29 -28l7 -43l-1 -10l-18 -43l-37 -26l-48 -8
h-56l-3 -20h59l46 -9l29 -26l7 -47l-1 -10l-19 -47l-38 -26l-49 -9h-6z" />
    <glyph glyph-name="acute" unicode="&#xb4;" horiz-adv-x="500" 
d="M382 780l-111 -160h22l111 160h-22z" />
    <glyph glyph-name="paragraph" unicode="&#xb6;" horiz-adv-x="500" 
d="M97 575l49 120l86 53l91 12h17l-52 -400h-15l-87 14l-73 56l-19 121zM351 0h20l102 780h-150l-106 -16l-91 -62l-50 -127l-3 -24l18 -127l76 -65l106 -19h13l-45 -340h20l99 760h90z" />
    <glyph glyph-name="periodcentered" unicode="&#xb7;" horiz-adv-x="180" 
d="M108 360h-40l-5 -40h40z" />
    <glyph glyph-name="cedilla" unicode="&#xb8;" horiz-adv-x="602" 
d="M98 -186l24 -11l28 -6l29 -3l46 7l36 26l14 47l-12 37l-29 20l-37 5h-7h-6l-6 -1l32 65h-19l-36 -73l9 -11l4 1h9l13 1l33 -3l24 -12l10 -29l-12 -39l-29 -18l-37 -5l-26 2l-27 7l-20 9z" />
    <glyph glyph-name="onesuperior" unicode="&#xb9;" 
d="M273 390l3 20h-107l49 372h-15l-135 -83l10 -18l116 71l-45 -342h-108l-3 -20h235z" />
    <glyph glyph-name="ordmasculine" unicode="&#xba;" horiz-adv-x="407" 
d="M393 595l-12 117l-55 58l-67 16l-72 -14l-70 -57l-43 -120l-3 -24l12 -117l55 -58l67 -16l72 14l70 57l43 120zM370 571l-31 -97l-58 -56l-76 -18l-65 17l-42 55l-7 99l3 24l31 97l58 56l76 18l65 -17l42 -55l7 -99zM37 230h298l3 20h-298z" />
    <glyph glyph-name="guillemotright" unicode="&#xbb;" horiz-adv-x="500" 
d="M24 174l220 156l3 20l-179 156l-4 -23l164 -141l-201 -141zM224 174l220 156l3 20l-179 156l-4 -23l164 -141l-201 -141z" />
    <glyph glyph-name="onequarter" unicode="&#xbc;" horiz-adv-x="800" 
d="M687 352l-29 -222h-95l-52 -1zM661 0l14 110h72l3 20h-72l34 260h-19l-209 -265l-2 -15h173l-14 -110h20zM77 0l676 780h-26l-676 -780h26zM273 390l3 20h-107l49 372h-15l-135 -83l10 -18l116 71l-45 -342h-108l-3 -20h235z" />
    <glyph glyph-name="onehalf" unicode="&#xbd;" horiz-adv-x="799" 
d="M555 20l-41 -1l185 168l30 31l20 30l9 33l1 10l-9 56l-37 35l-63 13l-69 -14l-44 -42l-20 -64l-2 -15h20l19 68l36 37l57 11h6l51 -11l28 -30l6 -45l-1 -10l-7 -26l-18 -27l-30 -31l-199 -181l-2 -15h235l3 20h-164zM273 390l3 20h-107l49 372h-15l-135 -83l10 -18
l116 71l-45 -342h-108l-3 -20h235zM77 0l676 780h-26l-676 -780h26z" />
    <glyph glyph-name="threequarters" unicode="&#xbe;" horiz-adv-x="800" 
d="M687 352l-29 -222h-95l-52 -1zM661 0l14 110h72l3 20h-72l34 260h-19l-209 -265l-2 -15h173l-14 -110h20zM77 0l676 780h-26l-676 -780h26zM154 404l-54 11l-32 35l-3 65h-20l-1 -10l7 -64l37 -41l69 -15l61 12l47 33l22 56l1 10l-5 44l-21 32l-34 16l40 17l28 30l13 41
l1 10l-10 54l-38 33l-62 12l-70 -15l-44 -43l-19 -67l-1 -10h20l18 67l37 37l56 12h6l50 -10l29 -28l7 -43l-1 -10l-18 -43l-37 -26l-48 -8h-56l-3 -20h59l46 -9l29 -26l7 -47l-1 -10l-19 -47l-38 -26l-49 -9h-6z" />
    <glyph glyph-name="questiondown" unicode="&#xbf;" horiz-adv-x="440" 
d="M215 490h40l5 40h-40zM141 -206l110 30l74 84l37 128l3 24h-20l-34 -132l-68 -84l-102 -30l-83 20l-45 52l-13 69l53 137l103 105l68 158h-14l-72 -151l-105 -105l-54 -143l16 -81l52 -59z" />
    <glyph glyph-name="Agrave" unicode="&#xc0;" horiz-adv-x="590" 
d="M298 950l47 -110h22l-47 110h-22zM347 760l93 -510h-321zM340 790l-354 -790h22l102 230h334l42 -230h20l-146 790h-20z" />
    <glyph glyph-name="Aacute" unicode="&#xc1;" horiz-adv-x="590" 
d="M422 950l-77 -110h22l77 110h-22zM347 760l93 -510h-321zM340 790l-354 -790h22l102 230h334l42 -230h20l-146 790h-20z" />
    <glyph glyph-name="Acircumflex" unicode="&#xc2;" horiz-adv-x="590" 
d="M271 840l99 95l73 -95h23l-85 110h-20l-115 -110h25zM347 760l93 -510h-321zM340 790l-354 -790h22l102 230h334l42 -230h20l-146 790h-20z" />
    <glyph glyph-name="Atilde" unicode="&#xc3;" horiz-adv-x="590" 
d="M485 927l-12 -33l-19 -16l-23 -3l-44 15l-43 28l-48 15l-30 -6l-27 -21l-15 -43h18l12 33l19 16l23 3l44 -15l43 -28l48 -15l30 6l27 21l15 43h-18zM347 760l93 -510h-321zM340 790l-354 -790h22l102 230h334l42 -230h20l-146 790h-20z" />
    <glyph glyph-name="Adieresis" unicode="&#xc4;" horiz-adv-x="590" 
d="M456 915h-40l-5 -40h40zM316 915h-40l-5 -40h40zM347 760l93 -510h-321zM340 790l-354 -790h22l102 230h334l42 -230h20l-146 790h-20z" />
    <glyph glyph-name="Aring" unicode="&#xc5;" horiz-adv-x="590" 
d="M367 956l-47 -13l-34 -34l-14 -47l8 -38l23 -26l35 -13l-352 -785h22l102 230h334l42 -230h20l-145 784l43 16l31 33l12 45l-10 42l-27 26zM367 938l32 -7l21 -20l8 -33l-10 -40l-27 -26l-39 -10l-32 7l-21 20l-8 33l10 40l27 26zM347 760l93 -510h-321z" />
    <glyph glyph-name="AE" unicode="&#xc6;" horiz-adv-x="820" 
d="M387 758l14 -508h-272zM378 780l-397 -780h21l117 230h283l7 -230h312l2 20h-294l-11 368h304l2 20h-307l-11 352h415l2 20h-445z" />
    <glyph glyph-name="Ccedilla" unicode="&#xc7;" horiz-adv-x="587" 
d="M164 -186l24 -11l28 -6l29 -3l46 7l36 26l14 47l-12 37l-29 20l-37 5h-7h-6l-6 -1l29 59l126 29l79 80l38 123l3 24h-20l-42 -140l-78 -74l-109 -22h-6l-121 37l-59 117l2 210l3 24l52 212l91 116l131 36h6l109 -23l54 -83l-1 -160h20l3 24l-5 152l-62 84l-121 26
l-143 -38l-99 -123l-56 -223l-3 -24l-1 -215l63 -125l127 -44l-33 -67l9 -11l4 1h9l13 1l33 -3l24 -12l10 -29l-12 -39l-29 -18l-37 -5l-26 2l-27 7l-20 9z" />
    <glyph glyph-name="Egrave" unicode="&#xc8;" horiz-adv-x="540" 
d="M293 950l47 -110h22l-47 110h-22zM133 780l-102 -780h410l3 20h-390l48 368h339l3 20h-339l46 352h389l3 20h-410z" />
    <glyph glyph-name="Eacute" unicode="&#xc9;" horiz-adv-x="540" 
d="M417 950l-77 -110h22l77 110h-22zM133 780l-102 -780h410l3 20h-390l48 368h339l3 20h-339l46 352h389l3 20h-410z" />
    <glyph glyph-name="Ecircumflex" unicode="&#xca;" horiz-adv-x="540" 
d="M266 840l99 95l73 -95h23l-85 110h-20l-115 -110h25zM133 780l-102 -780h410l3 20h-390l48 368h339l3 20h-339l46 352h389l3 20h-410z" />
    <glyph glyph-name="Edieresis" unicode="&#xcb;" horiz-adv-x="540" 
d="M451 915h-40l-5 -40h40zM311 915h-40l-5 -40h40zM133 780l-102 -780h410l3 20h-390l48 368h339l3 20h-339l46 352h389l3 20h-410z" />
    <glyph glyph-name="Igrave" unicode="&#xcc;" horiz-adv-x="190" 
d="M98 950l47 -110h22l-47 110h-22zM158 780h-20l-102 -780h20z" />
    <glyph glyph-name="Iacute" unicode="&#xcd;" horiz-adv-x="190" 
d="M222 950l-77 -110h22l77 110h-22zM158 780h-20l-102 -780h20z" />
    <glyph glyph-name="Icircumflex" unicode="&#xce;" horiz-adv-x="190" 
d="M71 840l99 95l73 -95h23l-85 110h-20l-115 -110h25zM158 780h-20l-102 -780h20z" />
    <glyph glyph-name="Idieresis" unicode="&#xcf;" horiz-adv-x="190" 
d="M116 915h-40l-5 -40h40zM256 915h-40l-5 -40h40zM158 780h-20l-102 -780h20z" />
    <glyph glyph-name="Eth" unicode="&#xd0;" horiz-adv-x="663" 
d="M109 20l48 368h230l3 20h-230l46 352h170l134 -35l76 -114l6 -209l-3 -24l-62 -210l-111 -114l-146 -34h-161zM27 388h110l-51 -388h184l154 36l119 120l67 222l3 24l-9 223l-85 119l-143 36h-188l-49 -372h-109z" />
    <glyph glyph-name="Ntilde" unicode="&#xd1;" horiz-adv-x="640" 
d="M510 927l-12 -33l-19 -16l-23 -3l-44 15l-43 28l-48 15l-30 -6l-27 -21l-15 -43h18l12 33l19 16l23 3l44 -15l43 -28l48 -15l30 6l27 21l15 43h-18zM496 32l-341 748h-22l-102 -780h20l79 605l18 143l341 -748h22l102 780h-20l-79 -605z" />
    <glyph glyph-name="Ograve" unicode="&#xd2;" horiz-adv-x="621" 
d="M318 950l47 -110h22l-47 110h-22zM361 786l-142 -38l-96 -123l-55 -223l-3 -24l1 -220l71 -124l135 -40l142 38l96 123l55 223l3 24l-1 220l-71 124zM269 14l-122 37l-62 117l1 210l3 24l51 212l88 116l130 36h6l122 -37l62 -117l-1 -210l-3 -24l-51 -212l-88 -116
l-130 -36h-6z" />
    <glyph glyph-name="Oacute" unicode="&#xd3;" horiz-adv-x="621" 
d="M442 950l-77 -110h22l77 110h-22zM361 786l-142 -38l-96 -123l-55 -223l-3 -24l1 -220l71 -124l135 -40l142 38l96 123l55 223l3 24l-1 220l-71 124zM269 14l-122 37l-62 117l1 210l3 24l51 212l88 116l130 36h6l122 -37l62 -117l-1 -210l-3 -24l-51 -212l-88 -116
l-130 -36h-6z" />
    <glyph glyph-name="Ocircumflex" unicode="&#xd4;" horiz-adv-x="621" 
d="M291 840l99 95l73 -95h23l-85 110h-20l-115 -110h25zM361 786l-142 -38l-96 -123l-55 -223l-3 -24l1 -220l71 -124l135 -40l142 38l96 123l55 223l3 24l-1 220l-71 124zM269 14l-122 37l-62 117l1 210l3 24l51 212l88 116l130 36h6l122 -37l62 -117l-1 -210l-3 -24
l-51 -212l-88 -116l-130 -36h-6z" />
    <glyph glyph-name="Otilde" unicode="&#xd5;" horiz-adv-x="621" 
d="M505 927l-12 -33l-19 -16l-23 -3l-44 15l-43 28l-48 15l-30 -6l-27 -21l-15 -43h18l12 33l19 16l23 3l44 -15l43 -28l48 -15l30 6l27 21l15 43h-18zM361 786l-142 -38l-96 -123l-55 -223l-3 -24l1 -220l71 -124l135 -40l142 38l96 123l55 223l3 24l-1 220l-71 124z
M269 14l-122 37l-62 117l1 210l3 24l51 212l88 116l130 36h6l122 -37l62 -117l-1 -210l-3 -24l-51 -212l-88 -116l-130 -36h-6z" />
    <glyph glyph-name="Odieresis" unicode="&#xd6;" horiz-adv-x="621" 
d="M476 915h-40l-5 -40h40zM336 915h-40l-5 -40h40zM361 786l-142 -38l-96 -123l-55 -223l-3 -24l1 -220l71 -124l135 -40l142 38l96 123l55 223l3 24l-1 220l-71 124zM269 14l-122 37l-62 117l1 210l3 24l51 212l88 116l130 36h6l122 -37l62 -117l-1 -210l-3 -24l-51 -212
l-88 -116l-130 -36h-6z" />
    <glyph glyph-name="multiply" unicode="&#xd7;" horiz-adv-x="600" 
d="M77 630l209 -240l-272 -240l15 -15l272 240l208 -240l15 15l-208 240l271 240l-15 15l-271 -240l-209 240z" />
    <glyph glyph-name="Oslash" unicode="&#xd8;" horiz-adv-x="626" 
d="M544 378l-51 -212l-88 -116l-130 -36h-6l-67 9l-53 27l-39 46l422 569l18 -68l5 -87l-8 -108zM39 0l58 78l44 -47l58 -28l73 -9l142 38l96 123l55 223l3 24l8 116l-7 94l-23 72l71 96h-23l-58 -78l-44 47l-58 28l-73 9l-142 -38l-96 -123l-55 -223l-3 -24l-8 -116l7 -94
l23 -72l-71 -96h23zM86 378l3 24l51 212l88 116l130 36h6l67 -9l53 -27l39 -46l-422 -569l-18 68l-5 87z" />
    <glyph glyph-name="Ugrave" unicode="&#xd9;" horiz-adv-x="620" 
d="M313 950l47 -110h22l-47 110h-22zM267 -6l124 21l87 75l47 149l71 541h-20l-70 -535l-43 -140l-79 -71l-117 -20l-114 19l-65 71l-8 140l70 536h-20l-71 -541l12 -149l74 -75z" />
    <glyph glyph-name="Uacute" unicode="&#xda;" horiz-adv-x="620" 
d="M437 950l-77 -110h22l77 110h-22zM267 -6l124 21l87 75l47 149l71 541h-20l-70 -535l-43 -140l-79 -71l-117 -20l-114 19l-65 71l-8 140l70 536h-20l-71 -541l12 -149l74 -75z" />
    <glyph glyph-name="Ucircumflex" unicode="&#xdb;" horiz-adv-x="620" 
d="M286 840l99 95l73 -95h23l-85 110h-20l-115 -110h25zM267 -6l124 21l87 75l47 149l71 541h-20l-70 -535l-43 -140l-79 -71l-117 -20l-114 19l-65 71l-8 140l70 536h-20l-71 -541l12 -149l74 -75z" />
    <glyph glyph-name="Udieresis" unicode="&#xdc;" horiz-adv-x="620" 
d="M471 915h-40l-5 -40h40zM331 915h-40l-5 -40h40zM267 -6l124 21l87 75l47 149l71 541h-20l-70 -535l-43 -140l-79 -71l-117 -20l-114 19l-65 71l-8 140l70 536h-20l-71 -541l12 -149l74 -75z" />
    <glyph glyph-name="Yacute" unicode="&#xdd;" horiz-adv-x="540" 
d="M392 950l-77 -110h22l77 110h-22zM248 253l-159 527h-21l168 -550l-30 -230h20l30 230l312 550h-23z" />
    <glyph glyph-name="Thorn" unicode="&#xde;" horiz-adv-x="541" 
d="M153 780h-20l-102 -780h20l22 170h175l106 16l91 62l50 127l3 24l-18 127l-76 65l-106 19h-167zM76 190l52 400h170l87 -14l73 -56l19 -121l-3 -24l-49 -120l-86 -53l-91 -12h-172z" />
    <glyph glyph-name="germandbls" unicode="&#xdf;" horiz-adv-x="548" 
d="M261 393l51 -37l78 -57l53 -56l20 -67l-20 -86l-55 -56l-83 -20l-82 20l-39 53l-2 73h-20l-2 -16l7 -71l45 -56l93 -23l94 24l57 57l24 74l1 8l-10 77l-51 64l-87 67l-48 34l93 60l63 67l29 80l1 8l-5 98l-51 68l-105 26l-103 -24l-65 -66l-31 -102l-80 -614h20l80 610
l28 95l57 60l94 21l82 -16l47 -47l15 -75l-22 -100l-65 -76l-104 -64z" />
    <glyph glyph-name="agrave" unicode="&#xe0;" horiz-adv-x="482" 
d="M197 780l69 -160h22l-69 160h-22zM158 14l-72 15l-40 41l-8 58l2 16l28 71l54 36l71 16l191 29l-24 -185l-35 -39l-64 -40zM18 128l13 -75l50 -44l77 -15l96 15l65 35l41 42l-5 -86h16l10 118l32 246l-3 86l-44 62l-103 24l-110 -25l-57 -62l-22 -83l-2 -16h20l21 85
l51 59l99 22l93 -22l36 -58v-82l-5 -38l-184 -28l-84 -19l-65 -42l-34 -83z" />
    <glyph glyph-name="aacute" unicode="&#xe1;" horiz-adv-x="482" 
d="M377 780l-111 -160h22l111 160h-22zM158 14l-72 15l-40 41l-8 58l2 16l28 71l54 36l71 16l191 29l-24 -185l-35 -39l-64 -40zM18 128l13 -75l50 -44l77 -15l96 15l65 35l41 42l-5 -86h16l10 118l32 246l-3 86l-44 62l-103 24l-110 -25l-57 -62l-22 -83l-2 -16h20l21 85
l51 59l99 22l93 -22l36 -58v-82l-5 -38l-184 -28l-84 -19l-65 -42l-34 -83z" />
    <glyph glyph-name="acircumflex" unicode="&#xe2;" horiz-adv-x="482" 
d="M412 620l-104 160h-20l-146 -160h26l129 142l91 -142h24zM158 14l-72 15l-40 41l-8 58l2 16l28 71l54 36l71 16l191 29l-24 -185l-35 -39l-64 -40zM18 128l13 -75l50 -44l77 -15l96 15l65 35l41 42l-5 -86h16l10 118l32 246l-3 86l-44 62l-103 24l-110 -25l-57 -62
l-22 -83l-2 -16h20l21 85l51 59l99 22l93 -22l36 -58v-82l-5 -38l-184 -28l-84 -19l-65 -42l-34 -83z" />
    <glyph glyph-name="atilde" unicode="&#xe3;" horiz-adv-x="485" 
d="M409 732l-12 -33l-19 -16l-23 -3l-44 15l-43 28l-48 15l-30 -6l-27 -21l-15 -43h18l12 33l19 16l23 3l44 -15l43 -28l48 -15l30 6l27 21l15 43h-18zM158 14l-72 15l-40 41l-8 58l2 16l28 71l54 36l71 16l191 29l-24 -185l-35 -39l-64 -40zM18 128l13 -75l50 -44l77 -15
l96 15l65 35l41 42l-5 -86h16l10 118l32 246l-3 86l-44 62l-103 24l-110 -25l-57 -62l-22 -83l-2 -16h20l21 85l51 59l99 22l93 -22l36 -58v-82l-5 -38l-184 -28l-84 -19l-65 -42l-34 -83z" />
    <glyph glyph-name="adieresis" unicode="&#xe4;" horiz-adv-x="482" 
d="M380 720h-40l-5 -40h40zM240 720h-40l-5 -40h40zM158 14l-72 15l-40 41l-8 58l2 16l28 71l54 36l71 16l191 29l-24 -185l-35 -39l-64 -40zM18 128l13 -75l50 -44l77 -15l96 15l65 35l41 42l-5 -86h16l10 118l32 246l-3 86l-44 62l-103 24l-110 -25l-57 -62l-22 -83
l-2 -16h20l21 85l51 59l99 22l93 -22l36 -58v-82l-5 -38l-184 -28l-84 -19l-65 -42l-34 -83z" />
    <glyph glyph-name="aring" unicode="&#xe5;" horiz-adv-x="482" 
d="M295 786l-47 -13l-34 -34l-14 -47l10 -42l27 -26l43 -10l47 13l34 34l14 47l-10 42l-27 26zM295 768l32 -7l21 -20l8 -33l-10 -40l-27 -26l-39 -10l-32 7l-21 20l-8 33l10 40l27 26zM158 14l-72 15l-40 41l-8 58l2 16l28 71l54 36l71 16l191 29l-24 -185l-35 -39l-64 -40
zM18 128l13 -75l50 -44l77 -15l96 15l65 35l41 42l-5 -86h16l10 118l32 246l-3 86l-44 62l-103 24l-110 -25l-57 -62l-22 -83l-2 -16h20l21 85l51 59l99 22l93 -22l36 -58v-82l-5 -38l-184 -28l-84 -19l-65 -42l-34 -83z" />
    <glyph glyph-name="ae" unicode="&#xe6;" horiz-adv-x="860" 
d="M622 516l105 -31l51 -85l4 -125h-380l38 129l75 83zM573 -6l120 25l67 60l26 75l2 16h-20l-23 -77l-62 -57l-110 -22l-104 29l-60 83l-10 129h400l2 16l-3 137l-56 93l-120 35l-83 -15l-73 -47l-52 -82l-9 72l-45 52l-97 20l-110 -25l-57 -62l-22 -83l-2 -16h20l21 85
l51 59l99 22l93 -22l36 -58v-82l-5 -38l-184 -28l-84 -17l-65 -39l-34 -88l-2 -16l13 -75l50 -44l77 -15l110 20l73 49l47 59l36 -66l62 -45zM158 14l-72 15l-40 41l-8 58l2 16l28 72l54 35l71 16l191 29l-5 -43l-3 -38l1 -36l5 -36l-45 -59l-72 -49z" />
    <glyph glyph-name="ccedilla" unicode="&#xe7;" horiz-adv-x="503" 
d="M116 -186l24 -11l28 -6l29 -3l46 7l36 26l14 47l-12 37l-29 20l-37 5h-7h-6l-6 -1l29 59l108 27l63 62l26 76l2 16h-20l-27 -84l-60 -56l-97 -21l-100 29l-55 82l-6 128l3 24l37 128l73 82l106 29l98 -22l47 -61l3 -88h20l2 16l-6 83l-51 66l-113 26l-116 -31l-80 -89
l-40 -139l-3 -24l7 -135l57 -89l103 -35l-33 -67l9 -11l4 1h9l13 1l33 -3l24 -12l10 -29l-12 -39l-29 -18l-37 -5l-26 2l-27 7l-20 9z" />
    <glyph glyph-name="egrave" unicode="&#xe8;" horiz-adv-x="525" 
d="M217 780l69 -160h22l-69 160h-22zM282 516l105 -31l51 -85l4 -125h-380l38 129l75 83zM459 255l2 16l-3 137l-56 93l-120 35l-117 -31l-82 -89l-41 -139l-3 -24l12 -139l68 -89l114 -31l120 25l67 60l26 75l2 16h-20l-23 -77l-62 -57l-110 -22l-104 29l-60 83l-10 129
h400z" />
    <glyph glyph-name="eacute" unicode="&#xe9;" horiz-adv-x="525" 
d="M397 780l-111 -160h22l111 160h-22zM282 516l105 -31l51 -85l4 -125h-380l38 129l75 83zM459 255l2 16l-3 137l-56 93l-120 35l-117 -31l-82 -89l-41 -139l-3 -24l12 -139l68 -89l114 -31l120 25l67 60l26 75l2 16h-20l-23 -77l-62 -57l-110 -22l-104 29l-60 83l-10 129
h400z" />
    <glyph glyph-name="ecircumflex" unicode="&#xea;" horiz-adv-x="525" 
d="M432 620l-104 160h-20l-146 -160h26l129 142l91 -142h24zM282 516l105 -31l51 -85l4 -125h-380l38 129l75 83zM459 255l2 16l-3 137l-56 93l-120 35l-117 -31l-82 -89l-41 -139l-3 -24l12 -139l68 -89l114 -31l120 25l67 60l26 75l2 16h-20l-23 -77l-62 -57l-110 -22
l-104 29l-60 83l-10 129h400z" />
    <glyph glyph-name="edieresis" unicode="&#xeb;" horiz-adv-x="525" 
d="M400 720h-40l-5 -40h40zM260 720h-40l-5 -40h40zM282 516l105 -31l51 -85l4 -125h-380l38 129l75 83zM459 255l2 16l-3 137l-56 93l-120 35l-117 -31l-82 -89l-41 -139l-3 -24l12 -139l68 -89l114 -31l120 25l67 60l26 75l2 16h-20l-23 -77l-62 -57l-110 -22l-104 29
l-60 83l-10 129h400z" />
    <glyph glyph-name="igrave" unicode="&#xec;" horiz-adv-x="180" 
d="M42 780l69 -160h22l-69 160h-22zM31 0h20l69 530h-20z" />
    <glyph glyph-name="iacute" unicode="&#xed;" horiz-adv-x="180" 
d="M222 780l-111 -160h22l111 160h-22zM31 0h20l69 530h-20z" />
    <glyph glyph-name="icircumflex" unicode="&#xee;" horiz-adv-x="180" 
d="M257 620l-104 160h-20l-146 -160h26l129 142l91 -142h24zM31 0h20l69 530h-20z" />
    <glyph glyph-name="idieresis" unicode="&#xef;" horiz-adv-x="180" 
d="M225 720h-40l-5 -40h40zM85 720h-40l-5 -40h40zM31 0h20l69 530h-20z" />
    <glyph glyph-name="eth" unicode="&#xf0;" horiz-adv-x="526" 
d="M423 806l-129 -70l-59 35l-61 22l-61 13l-3 -20l50 -11l56 -20l57 -31l-142 -78l-4 -24l164 89l31 -25l30 -29l27 -34l34 -61l21 -67l11 -70l-35 60l-56 38l-76 13l-116 -31l-80 -89l-40 -139l-3 -24l8 -139l62 -89l111 -31l116 31l80 89l40 139l3 24l7 122l-18 124
l-55 114l-26 32l-27 29l-28 25l107 59zM220 14l-100 29l-55 82l-6 128l3 24l37 128l73 82l106 29l100 -29l55 -82l6 -128l-3 -24l-37 -128l-73 -82z" />
    <glyph glyph-name="ntilde" unicode="&#xf1;" horiz-adv-x="489" 
d="M414 732l-12 -33l-19 -16l-23 -3l-44 15l-43 28l-48 15l-30 -6l-27 -21l-15 -43h18l12 33l19 16l23 3l44 -15l43 -28l48 -15l30 6l27 21l15 43h-18zM381 0l50 381l-10 89l-52 50l-86 16l-85 -15l-61 -34l-41 -43l5 86h-16l-10 -118l-54 -412h20l55 419l42 44l61 37l84 16
l74 -13l45 -46l8 -83l-49 -374h20z" />
    <glyph glyph-name="ograve" unicode="&#xf2;" horiz-adv-x="522" 
d="M215 780l69 -160h22l-69 160h-22zM220 14l-100 29l-55 82l-6 128l3 24l37 128l73 82l106 29l100 -29l55 -82l6 -128l-3 -24l-37 -128l-73 -82zM220 -6l116 31l80 89l40 139l3 24l-8 139l-62 89l-111 31l-116 -31l-80 -89l-40 -139l-3 -24l8 -139l62 -89z" />
    <glyph glyph-name="oacute" unicode="&#xf3;" horiz-adv-x="522" 
d="M395 780l-111 -160h22l111 160h-22zM220 14l-100 29l-55 82l-6 128l3 24l37 128l73 82l106 29l100 -29l55 -82l6 -128l-3 -24l-37 -128l-73 -82zM220 -6l116 31l80 89l40 139l3 24l-8 139l-62 89l-111 31l-116 -31l-80 -89l-40 -139l-3 -24l8 -139l62 -89z" />
    <glyph glyph-name="ocircumflex" unicode="&#xf4;" horiz-adv-x="522" 
d="M430 620l-104 160h-20l-146 -160h26l129 142l91 -142h24zM220 14l-100 29l-55 82l-6 128l3 24l37 128l73 82l106 29l100 -29l55 -82l6 -128l-3 -24l-37 -128l-73 -82zM220 -6l116 31l80 89l40 139l3 24l-8 139l-62 89l-111 31l-116 -31l-80 -89l-40 -139l-3 -24l8 -139
l62 -89z" />
    <glyph glyph-name="otilde" unicode="&#xf5;" horiz-adv-x="522" 
d="M427 732l-12 -33l-19 -16l-23 -3l-44 15l-43 28l-48 15l-30 -6l-27 -21l-15 -43h18l12 33l19 16l23 3l44 -15l43 -28l48 -15l30 6l27 21l15 43h-18zM220 14l-100 29l-55 82l-6 128l3 24l37 128l73 82l106 29l100 -29l55 -82l6 -128l-3 -24l-37 -128l-73 -82zM220 -6
l116 31l80 89l40 139l3 24l-8 139l-62 89l-111 31l-116 -31l-80 -89l-40 -139l-3 -24l8 -139l62 -89z" />
    <glyph glyph-name="odieresis" unicode="&#xf6;" horiz-adv-x="522" 
d="M398 720h-40l-5 -40h40zM258 720h-40l-5 -40h40zM220 14l-100 29l-55 82l-6 128l3 24l37 128l73 82l106 29l100 -29l55 -82l6 -128l-3 -24l-37 -128l-73 -82zM220 -6l116 31l80 89l40 139l3 24l-8 139l-62 89l-111 31l-116 -31l-80 -89l-40 -139l-3 -24l8 -139l62 -89z
" />
    <glyph glyph-name="divide" unicode="&#xf7;" horiz-adv-x="600" 
d="M49 380h499l3 20h-499zM293 180h-40l-5 -40h40zM354 640h-40l-6 -40h40z" />
    <glyph glyph-name="oslash" unicode="&#xf8;" horiz-adv-x="526" 
d="M436 253l-37 -128l-73 -82l-106 -29l-52 6l-43 19l-33 31l325 374l18 -46l7 -56l-3 -65zM31 0l47 54l37 -33l48 -20l57 -7l116 31l80 89l40 139l3 24l3 72l-9 61l-22 50l61 70h-25l-47 -54l-37 33l-48 20l-57 7l-116 -31l-80 -89l-40 -139l-3 -24l-3 -72l9 -61l22 -50
l-61 -70h25zM59 253l3 24l37 128l73 82l106 29l52 -6l43 -19l33 -31l-325 -374l-18 46l-7 56z" />
    <glyph glyph-name="ugrave" unicode="&#xf9;" horiz-adv-x="490" 
d="M192 780l69 -160h22l-69 160h-22zM80 530l-50 -381l10 -89l52 -50l86 -16l85 15l61 34l41 43l-5 -86h16l10 118l54 412h-20l-55 -419l-42 -44l-61 -37l-84 -16l-74 13l-45 46l-8 83l49 374h-20z" />
    <glyph glyph-name="uacute" unicode="&#xfa;" horiz-adv-x="490" 
d="M372 780l-111 -160h22l111 160h-22zM80 530l-50 -381l10 -89l52 -50l86 -16l85 15l61 34l41 43l-5 -86h16l10 118l54 412h-20l-55 -419l-42 -44l-61 -37l-84 -16l-74 13l-45 46l-8 83l49 374h-20z" />
    <glyph glyph-name="ucircumflex" unicode="&#xfb;" horiz-adv-x="490" 
d="M407 620l-104 160h-20l-146 -160h26l129 142l91 -142h24zM80 530l-50 -381l10 -89l52 -50l86 -16l85 15l61 34l41 43l-5 -86h16l10 118l54 412h-20l-55 -419l-42 -44l-61 -37l-84 -16l-74 13l-45 46l-8 83l49 374h-20z" />
    <glyph glyph-name="udieresis" unicode="&#xfc;" horiz-adv-x="490" 
d="M375 720h-40l-5 -40h40zM235 720h-40l-5 -40h40zM80 530l-50 -381l10 -89l52 -50l86 -16l85 15l61 34l41 43l-5 -86h16l10 118l54 412h-20l-55 -419l-42 -44l-61 -37l-84 -16l-74 13l-45 46l-8 83l49 374h-20z" />
    <glyph glyph-name="yacute" unicode="&#xfd;" horiz-adv-x="460" 
d="M362 780l-111 -160h22l111 160h-22zM186 44l-118 486h-21l127 -513l-111 -217h22l107 217l261 513h-23z" />
    <glyph glyph-name="thorn" unicode="&#xfe;" horiz-adv-x="506" 
d="M95 419l43 48l57 35l73 14l98 -29l51 -82l4 -128l-3 -24l-36 -128l-70 -82l-105 -29l-73 15l-50 36l-30 42zM125 800l-131 -1000h20l37 278l30 -38l51 -32l75 -14l115 31l77 89l39 139l3 24l-6 139l-58 89l-109 31l-75 -13l-56 -33l-38 -40l46 350h-20z" />
    <glyph glyph-name="ydieresis" unicode="&#xff;" horiz-adv-x="460" 
d="M365 720h-40l-5 -40h40zM225 720h-40l-5 -40h40zM186 44l-118 486h-21l127 -513l-111 -217h22l107 217l261 513h-23z" />
    <glyph glyph-name="Amacron" unicode="&#x100;" horiz-adv-x="590" 
d="M262 885h200l3 20h-200zM347 760l93 -510h-321zM340 790l-354 -790h22l102 230h334l42 -230h20l-146 790h-20z" />
    <glyph glyph-name="amacron" unicode="&#x101;" horiz-adv-x="482" 
d="M186 690h200l3 20h-200zM158 14l-72 15l-40 41l-8 58l2 16l28 71l54 36l71 16l191 29l-24 -185l-35 -39l-64 -40zM18 128l13 -75l50 -44l77 -15l96 15l65 35l41 42l-5 -86h16l10 118l32 246l-3 86l-44 62l-103 24l-110 -25l-57 -62l-22 -83l-2 -16h20l21 85l51 59l99 22
l93 -22l36 -58v-82l-5 -38l-184 -28l-84 -19l-65 -42l-34 -83z" />
    <glyph glyph-name="Abreve" unicode="&#x102;" horiz-adv-x="590" 
d="M355 852l-59 12l-32 34l-6 52h-17l7 -61l39 -40l69 -15l72 15l49 40l24 61h-19l-21 -52l-43 -34zM347 760l93 -510h-321zM340 790l-354 -790h22l102 230h334l42 -230h20l-146 790h-20z" />
    <glyph glyph-name="abreve" unicode="&#x103;" horiz-adv-x="485" 
d="M277 614l87 23l57 60l27 83h-19l-23 -74l-50 -53l-79 -21l-72 21l-36 53l-4 74h-17l5 -83l43 -60zM158 14l-72 15l-40 41l-8 58l2 16l28 71l54 36l71 16l191 29l-24 -185l-35 -39l-64 -40zM18 128l13 -75l50 -44l77 -15l96 15l65 35l41 42l-5 -86h16l10 118l32 246l-3 86
l-44 62l-103 24l-110 -25l-57 -62l-22 -83l-2 -16h20l21 85l51 59l99 22l93 -22l36 -58v-82l-5 -38l-184 -28l-84 -19l-65 -42l-34 -83z" />
    <glyph glyph-name="Aogonek" unicode="&#x104;" horiz-adv-x="590" 
d="M521 -170l-19 -8l-25 -7l-31 -3l-32 6l-23 18l-9 35l21 66l49 40l54 23l-146 790h-20l-354 -790h22l102 230h334l40 -220l-58 -27l-44 -44l-18 -68l11 -44l30 -25l41 -8l34 3l25 7l20 9zM347 760l93 -510h-321z" />
    <glyph glyph-name="aogonek" unicode="&#x105;" horiz-adv-x="482" 
d="M386 -170l-19 -8l-25 -7l-31 -3l-32 6l-23 18l-9 35l21 66l49 40l54 23l10 118l32 246l-3 86l-44 62l-103 24l-110 -25l-57 -62l-22 -83l-2 -16h20l21 85l51 59l99 22l93 -22l36 -58v-82l-5 -38l-184 -28l-84 -19l-65 -42l-34 -83l-2 -16l13 -75l50 -44l77 -15l96 15
l65 35l41 42l-5 -74l-60 -27l-47 -45l-19 -69l11 -44l30 -25l41 -8l34 3l25 7l20 9zM158 14l-72 15l-40 41l-8 58l2 16l28 71l54 36l71 16l191 29l-24 -185l-35 -39l-64 -40z" />
    <glyph glyph-name="Cacute" unicode="&#x106;" horiz-adv-x="587" 
d="M442 950l-77 -110h22l77 110h-22zM65 378v-220l68 -124l134 -40l129 28l82 79l38 125l3 24h-20l-42 -140l-78 -74l-109 -22h-6l-121 37l-59 117l2 210l3 24l52 212l91 116l131 36h6l109 -23l54 -83l-1 -160h20l3 24l-5 152l-62 84l-121 26l-143 -38l-99 -123l-56 -223z
" />
    <glyph glyph-name="cacute" unicode="&#x107;" horiz-adv-x="503" 
d="M400 780l-111 -160h22l111 160h-22zM39 253l8 -139l62 -89l111 -31l111 26l65 62l26 77l2 16h-20l-27 -84l-60 -56l-97 -21l-100 29l-55 82l-6 128l3 24l37 128l73 82l106 29l98 -22l47 -61l3 -88h20l2 16l-6 83l-51 66l-113 26l-116 -31l-80 -89l-40 -139z" />
    <glyph glyph-name="Ccircumflex" unicode="&#x108;" horiz-adv-x="587" 
d="M291 840l99 95l73 -95h23l-85 110h-20l-115 -110h25zM65 378v-220l68 -124l134 -40l129 28l82 79l38 125l3 24h-20l-42 -140l-78 -74l-109 -22h-6l-121 37l-59 117l2 210l3 24l52 212l91 116l131 36h6l109 -23l54 -83l-1 -160h20l3 24l-5 152l-62 84l-121 26l-143 -38
l-99 -123l-56 -223z" />
    <glyph glyph-name="ccircumflex" unicode="&#x109;" horiz-adv-x="503" 
d="M435 620l-104 160h-20l-146 -160h26l129 142l91 -142h24zM39 253l8 -139l62 -89l111 -31l111 26l65 62l26 77l2 16h-20l-27 -84l-60 -56l-97 -21l-100 29l-55 82l-6 128l3 24l37 128l73 82l106 29l98 -22l47 -61l3 -88h20l2 16l-6 83l-51 66l-113 26l-116 -31l-80 -89
l-40 -139z" />
    <glyph glyph-name="Cdotaccent" unicode="&#x10a;" horiz-adv-x="587" 
d="M406 915h-40l-5 -40h40zM65 378v-220l68 -124l134 -40l129 28l82 79l38 125l3 24h-20l-42 -140l-78 -74l-109 -22h-6l-121 37l-59 117l2 210l3 24l52 212l91 116l131 36h6l109 -23l54 -83l-1 -160h20l3 24l-5 152l-62 84l-121 26l-143 -38l-99 -123l-56 -223z" />
    <glyph glyph-name="cdotaccent" unicode="&#x10b;" horiz-adv-x="503" 
d="M333 720h-40l-5 -40h40zM39 253l8 -139l62 -89l111 -31l111 26l65 62l26 77l2 16h-20l-27 -84l-60 -56l-97 -21l-100 29l-55 82l-6 128l3 24l37 128l73 82l106 29l98 -22l47 -61l3 -88h20l2 16l-6 83l-51 66l-113 26l-116 -31l-80 -89l-40 -139z" />
    <glyph glyph-name="Ccaron" unicode="&#x10c;" horiz-adv-x="587" 
d="M476 950l-99 -95l-73 95h-23l85 -110h20l115 110h-25zM65 378v-220l68 -124l134 -40l129 28l82 79l38 125l3 24h-20l-42 -140l-78 -74l-109 -22h-6l-121 37l-59 117l2 210l3 24l52 212l91 116l131 36h6l109 -23l54 -83l-1 -160h20l3 24l-5 152l-62 84l-121 26l-143 -38
l-99 -123l-56 -223z" />
    <glyph glyph-name="ccaron" unicode="&#x10d;" horiz-adv-x="505" 
d="M186 780l104 -160h20l146 160h-26l-129 -142l-91 142h-24zM39 253l8 -139l62 -89l111 -31l111 26l65 62l26 77l2 16h-20l-27 -84l-60 -56l-97 -21l-100 29l-55 82l-6 128l3 24l37 128l73 82l106 29l98 -22l47 -61l3 -88h20l2 16l-6 83l-51 66l-113 26l-116 -31l-80 -89
l-40 -139z" />
    <glyph glyph-name="Dcaron" unicode="&#x10e;" horiz-adv-x="608" 
d="M431 950l-99 -95l-73 95h-23l85 -110h20l115 110h-25zM54 20l97 740h170l134 -35l76 -114l6 -209l-3 -24l-62 -210l-111 -114l-146 -34h-161zM558 402l-9 223l-85 119l-143 36h-188l-102 -780h184l154 36l119 120l67 222z" />
    <glyph glyph-name="dcaron" unicode="&#x10f;" horiz-adv-x="510" 
d="M583 780l-21 -160h10l31 160h-20zM426 423l-41 -312l-43 -48l-57 -35l-73 -14l-98 29l-51 82l-4 128l3 24l36 128l70 82l105 29l73 -15l50 -36zM273 536l-115 -31l-77 -89l-39 -139l-3 -24l6 -139l58 -89l109 -31l75 14l58 34l40 44l-5 -86h16l10 118l89 682h-20
l-46 -348l-30 38l-51 32z" />
    <glyph glyph-name="Dcroat" unicode="&#x110;" horiz-adv-x="663" 
d="M109 20l48 368h230l3 20h-230l46 352h170l134 -35l76 -114l6 -209l-3 -24l-62 -210l-111 -114l-146 -34h-161zM27 388h110l-51 -388h184l154 36l119 120l67 222l3 24l-9 223l-85 119l-143 36h-188l-49 -372h-109z" />
    <glyph glyph-name="dcroat" unicode="&#x111;" horiz-adv-x="510" 
d="M291 655h165l-27 -203l-30 38l-51 32l-75 14l-115 -31l-77 -89l-39 -139l-3 -24l6 -139l58 -89l109 -31l75 14l58 34l40 44l-5 -86h16l10 118l70 537h105l3 20h-105l16 125h-20l-16 -125h-165zM426 423l-41 -312l-43 -48l-57 -35l-73 -14l-98 29l-51 82l-4 128l3 24
l36 128l70 82l105 29l73 -15l50 -36z" />
    <glyph glyph-name="Emacron" unicode="&#x112;" horiz-adv-x="540" 
d="M257 885h200l3 20h-200zM133 780l-102 -780h410l3 20h-390l48 368h339l3 20h-339l46 352h389l3 20h-410z" />
    <glyph glyph-name="emacron" unicode="&#x113;" horiz-adv-x="525" 
d="M206 690h200l3 20h-200zM282 516l105 -31l51 -85l4 -125h-380l38 129l75 83zM459 255l2 16l-3 137l-56 93l-120 35l-117 -31l-82 -89l-41 -139l-3 -24l12 -139l68 -89l114 -31l120 25l67 60l26 75l2 16h-20l-23 -77l-62 -57l-110 -22l-104 29l-60 83l-10 129h400z" />
    <glyph glyph-name="Ebreve" unicode="&#x114;" horiz-adv-x="540" 
d="M350 852l-59 12l-32 34l-6 52h-17l7 -61l39 -40l69 -15l72 15l49 40l24 61h-19l-21 -52l-43 -34zM133 780l-102 -780h410l3 20h-390l48 368h339l3 20h-339l46 352h389l3 20h-410z" />
    <glyph glyph-name="ebreve" unicode="&#x115;" horiz-adv-x="530" 
d="M297 614l87 23l57 60l27 83h-19l-23 -74l-50 -53l-79 -21l-72 21l-36 53l-4 74h-17l5 -83l43 -60zM282 516l105 -31l51 -85l4 -125h-380l38 129l75 83zM459 255l2 16l-3 137l-56 93l-120 35l-117 -31l-82 -89l-41 -139l-3 -24l12 -139l68 -89l114 -31l120 25l67 60l26 75
l2 16h-20l-23 -77l-62 -57l-110 -22l-104 29l-60 83l-10 129h400z" />
    <glyph glyph-name="Edotaccent" unicode="&#x116;" horiz-adv-x="540" 
d="M381 915h-40l-5 -40h40zM133 780l-102 -780h410l3 20h-390l48 368h339l3 20h-339l46 352h389l3 20h-410z" />
    <glyph glyph-name="edotaccent" unicode="&#x117;" horiz-adv-x="525" 
d="M330 720h-40l-5 -40h40zM282 516l105 -31l51 -85l4 -125h-380l38 129l75 83zM459 255l2 16l-3 137l-56 93l-120 35l-117 -31l-82 -89l-41 -139l-3 -24l12 -139l68 -89l114 -31l120 25l67 60l26 75l2 16h-20l-23 -77l-62 -57l-110 -22l-104 29l-60 83l-10 129h400z" />
    <glyph glyph-name="Eogonek" unicode="&#x118;" horiz-adv-x="540" 
d="M456 -170l-19 -8l-25 -7l-31 -3l-32 6l-23 18l-9 35l21 66l49 40l54 23l3 20h-390l48 368h339l3 20h-339l46 352h389l3 20h-410l-102 -780h362l-47 -28l-34 -42l-13 -59l11 -44l30 -25l41 -8l34 3l25 7l20 9z" />
    <glyph glyph-name="eogonek" unicode="&#x119;" horiz-adv-x="525" 
d="M282 516l105 -31l51 -85l4 -125h-380l38 129l75 83zM312 -170l-19 -8l-25 -7l-31 -3l-32 6l-23 18l-9 35l21 67l50 43l53 19l82 34l47 56l20 64l2 16h-20l-23 -77l-62 -57l-110 -22l-104 29l-60 83l-10 129h400l2 16l-3 137l-56 93l-120 35l-117 -31l-82 -89l-41 -139
l-3 -24l12 -139l68 -89l114 -31h4l-41 -28l-30 -40l-11 -55l11 -44l30 -25l41 -8l34 3l25 7l20 9z" />
    <glyph glyph-name="Ecaron" unicode="&#x11a;" horiz-adv-x="540" 
d="M451 950l-99 -95l-73 95h-23l85 -110h20l115 110h-25zM133 780l-102 -780h410l3 20h-390l48 368h339l3 20h-339l46 352h389l3 20h-410z" />
    <glyph glyph-name="ecaron" unicode="&#x11b;" horiz-adv-x="525" 
d="M183 780l104 -160h20l146 160h-26l-129 -142l-91 142h-24zM282 516l105 -31l51 -85l4 -125h-380l38 129l75 83zM459 255l2 16l-3 137l-56 93l-120 35l-117 -31l-82 -89l-41 -139l-3 -24l12 -139l68 -89l114 -31l120 25l67 60l26 75l2 16h-20l-23 -77l-62 -57l-110 -22
l-104 29l-60 83l-10 129h400z" />
    <glyph glyph-name="Gcircumflex" unicode="&#x11c;" horiz-adv-x="620" 
d="M301 840l99 95l73 -95h23l-85 110h-20l-115 -110h25zM288 -6l101 13l73 31l49 39l37 285h-179l-3 -20h160l-34 -256l-45 -33l-68 -27l-88 -12h-6l-129 37l-68 117l-2 210l3 24l54 212l94 116l130 36h6l114 -26l57 -84l2 -156h20l3 24l-5 145l-64 88l-130 29l-144 -38
l-101 -123l-57 -223l-3 -24l3 -220l76 -124z" />
    <glyph glyph-name="gcircumflex" unicode="&#x11d;" horiz-adv-x="510" 
d="M424 620l-104 160h-20l-146 -160h26l129 142l91 -142h24zM390 151l-43 -48l-56 -35l-72 -14l-95 24l-55 72l-8 123l3 24l37 123l71 72l99 24l74 -15l51 -36l30 -42zM180 -206l110 25l68 67l31 101l55 421l21 122h-15l-18 -83l-32 42l-53 33l-76 14l-110 -26l-77 -79
l-40 -134l-3 -24l10 -134l62 -79l106 -26l74 13l56 33l37 40l-15 -120l-28 -99l-62 -64l-101 -23l-102 21l-49 62l-3 103h-20l-2 -16l8 -101l57 -66z" />
    <glyph glyph-name="Gbreve" unicode="&#x11e;" horiz-adv-x="620" 
d="M385 852l-59 12l-32 34l-6 52h-17l7 -61l39 -40l69 -15l72 15l49 40l24 61h-19l-21 -52l-43 -34zM288 -6l101 13l73 31l49 39l37 285h-179l-3 -20h160l-34 -256l-45 -33l-68 -27l-88 -12h-6l-129 37l-68 117l-2 210l3 24l54 212l94 116l130 36h6l114 -26l57 -84l2 -156
h20l3 24l-5 145l-64 88l-130 29l-144 -38l-101 -123l-57 -223l-3 -24l3 -220l76 -124z" />
    <glyph glyph-name="gbreve" unicode="&#x11f;" horiz-adv-x="510" 
d="M289 614l87 23l57 60l27 83h-19l-23 -74l-50 -53l-79 -21l-72 21l-36 53l-4 74h-17l5 -83l43 -60zM390 151l-43 -48l-56 -35l-72 -14l-95 24l-55 72l-8 123l3 24l37 123l71 72l99 24l74 -15l51 -36l30 -42zM180 -206l110 25l68 67l31 101l55 421l21 122h-15l-18 -83
l-32 42l-53 33l-76 14l-110 -26l-77 -79l-40 -134l-3 -24l10 -134l62 -79l106 -26l74 13l56 33l37 40l-15 -120l-28 -99l-62 -64l-101 -23l-102 21l-49 62l-3 103h-20l-2 -16l8 -101l57 -66z" />
    <glyph glyph-name="Gdotaccent" unicode="&#x120;" horiz-adv-x="620" 
d="M416 915h-40l-5 -40h40zM288 -6l101 13l73 31l49 39l37 285h-179l-3 -20h160l-34 -256l-45 -33l-68 -27l-88 -12h-6l-129 37l-68 117l-2 210l3 24l54 212l94 116l130 36h6l114 -26l57 -84l2 -156h20l3 24l-5 145l-64 88l-130 29l-144 -38l-101 -123l-57 -223l-3 -24
l3 -220l76 -124z" />
    <glyph glyph-name="gdotaccent" unicode="&#x121;" horiz-adv-x="510" 
d="M322 720h-40l-5 -40h40zM390 151l-43 -48l-56 -35l-72 -14l-95 24l-55 72l-8 123l3 24l37 123l71 72l99 24l74 -15l51 -36l30 -42zM180 -206l110 25l68 67l31 101l55 421l21 122h-15l-18 -83l-32 42l-53 33l-76 14l-110 -26l-77 -79l-40 -134l-3 -24l10 -134l62 -79
l106 -26l74 13l56 33l37 40l-15 -120l-28 -99l-62 -64l-101 -23l-102 21l-49 62l-3 103h-20l-2 -16l8 -101l57 -66z" />
    <glyph glyph-name="Gcommaaccent" unicode="&#x122;" horiz-adv-x="620" 
d="M297 -70h-40l-5 -40h20l-17 -49l-27 -22l-27 -5l-2 -20l41 10l34 33l19 61zM288 -6l101 13l73 31l49 39l37 285h-179l-3 -20h160l-34 -256l-45 -33l-68 -27l-88 -12h-6l-129 37l-68 117l-2 210l3 24l54 212l94 116l130 36h6l114 -26l57 -84l2 -156h20l3 24l-5 145l-64 88
l-130 29l-144 -38l-101 -123l-57 -223l-3 -24l3 -220l76 -124z" />
    <glyph glyph-name="gcommaaccent" unicode="&#x123;" horiz-adv-x="510" 
d="M273 650h40l5 40h-20l17 49l27 22l27 5l2 20l-41 -10l-34 -33l-19 -61zM390 151l-43 -48l-56 -35l-72 -14l-95 24l-55 72l-8 123l3 24l37 123l71 72l99 24l74 -15l51 -36l30 -42zM180 -206l110 25l68 67l31 101l55 421l21 122h-15l-18 -83l-32 42l-53 33l-76 14l-110 -26
l-77 -79l-40 -134l-3 -24l10 -134l62 -79l106 -26l74 13l56 33l37 40l-15 -120l-28 -99l-62 -64l-101 -23l-102 21l-49 62l-3 103h-20l-2 -16l8 -101l57 -66z" />
    <glyph glyph-name="Hcircumflex" unicode="&#x124;" horiz-adv-x="620" 
d="M286 840l99 95l73 -95h23l-85 110h-20l-115 -110h25zM573 780l-49 -372h-420l49 372h-20l-102 -780h20l51 388h420l-51 -388h20l102 780h-20z" />
    <glyph glyph-name="hcircumflex" unicode="&#x125;" horiz-adv-x="488" 
d="M56 840l99 95l73 -95h23l-85 110h-20l-115 -110h25zM21 0h20l55 419l42 44l61 37l84 16l74 -13l45 -46l8 -83l-49 -374h20l50 381l-10 89l-52 50l-86 16l-82 -13l-60 -33l-41 -41l46 351h-20z" />
    <glyph glyph-name="Hbar" unicode="&#x126;" horiz-adv-x="620" 
d="M104 408l23 176h420l-23 -176h-420zM573 780l-23 -176h-420l23 176h-20l-102 -780h20l51 388h420l-51 -388h20l102 780h-20z" />
    <glyph glyph-name="hbar" unicode="&#x127;" horiz-adv-x="488" 
d="M2 655h105l-86 -655h20l55 419l42 44l61 37l84 16l74 -13l45 -46l8 -83l-49 -374h20l50 381l-10 89l-52 50l-86 16l-82 -13l-60 -33l-41 -41l27 206h165l3 20h-165l16 125h-20l-16 -125h-105z" />
    <glyph glyph-name="Itilde" unicode="&#x128;" horiz-adv-x="190" 
d="M285 927l-12 -33l-19 -16l-23 -3l-44 15l-43 28l-48 15l-30 -6l-27 -21l-15 -43h18l12 33l19 16l23 3l44 -15l43 -28l48 -15l30 6l27 21l15 43h-18zM158 780h-20l-102 -780h20z" />
    <glyph glyph-name="itilde" unicode="&#x129;" horiz-adv-x="180" 
d="M254 732l-12 -33l-19 -16l-23 -3l-44 15l-43 28l-48 15l-30 -6l-27 -21l-15 -43h18l12 33l19 16l23 3l44 -15l43 -28l48 -15l30 6l27 21l15 43h-18zM31 0h20l69 530h-20z" />
    <glyph glyph-name="Imacron" unicode="&#x12a;" horiz-adv-x="190" 
d="M62 885h200l3 20h-200zM158 780h-20l-102 -780h20z" />
    <glyph glyph-name="imacron" unicode="&#x12b;" horiz-adv-x="180" 
d="M31 690h200l3 20h-200zM31 0h20l69 530h-20z" />
    <glyph glyph-name="Ibreve" unicode="&#x12c;" horiz-adv-x="190" 
d="M155 852l-59 12l-32 34l-6 52h-17l7 -61l39 -40l69 -15l72 15l49 40l24 61h-19l-21 -52l-43 -34zM158 780h-20l-102 -780h20z" />
    <glyph glyph-name="ibreve" unicode="&#x12d;" horiz-adv-x="180" 
d="M122 614l87 23l57 60l27 83h-19l-23 -74l-50 -53l-79 -21l-72 21l-36 53l-4 74h-17l5 -83l43 -60zM31 0h20l69 530h-20z" />
    <glyph glyph-name="Iogonek" unicode="&#x12e;" horiz-adv-x="190" 
d="M71 -170l-19 -8l-25 -7l-31 -3l-32 6l-23 18l-9 35l21 66l49 40l54 23l102 780h-20l-101 -769l-59 -27l-45 -45l-19 -68l11 -44l30 -25l41 -8l34 3l25 7l20 9z" />
    <glyph glyph-name="iogonek" unicode="&#x12f;" horiz-adv-x="180" 
d="M66 -170l-19 -8l-25 -7l-31 -3l-32 6l-23 18l-9 35l21 66l49 40l54 23l69 530h-20l-68 -519l-59 -27l-45 -45l-19 -68l11 -44l30 -25l41 -8l34 3l25 7l20 9zM155 720h-40l-5 -40h40z" />
    <glyph glyph-name="Idotaccent" unicode="&#x130;" horiz-adv-x="190" 
d="M186 915h-40l-5 -40h40zM158 780h-20l-102 -780h20z" />
    <glyph glyph-name="dotlessi" unicode="&#x131;" horiz-adv-x="180" 
d="M31 0h20l69 530h-20z" />
    <glyph glyph-name="IJ" unicode="&#x132;" horiz-adv-x="450" 
d="M322 142l-25 -79l-45 -38l-61 -11l-25 2l-21 4l-13 4l-2 -20l10 -3l20 -5l32 -2l66 12l53 43l30 87l85 644h-20zM158 780h-20l-102 -780h20z" />
    <glyph glyph-name="ij" unicode="&#x133;" horiz-adv-x="320" 
d="M295 720h-40l-5 -40h40zM163 -63l-25 -76l-45 -37l-61 -10l-25 2l-21 4l-13 4l-2 -20l10 -3l20 -5l32 -2l66 12l53 41l30 84l78 599h-20zM155 720h-40l-5 -40h40zM31 0h20l69 530h-20z" />
    <glyph glyph-name="Jcircumflex" unicode="&#x134;" horiz-adv-x="470" 
d="M359 840l99 95l73 -95h23l-85 110h-20l-115 -110h25zM426 780l-70 -535l-31 -129l-59 -77l-99 -25l-93 27l-42 78l4 128h-20l-3 -24l2 -119l48 -81l104 -29l109 28l66 80l31 121l73 557h-20z" />
    <glyph glyph-name="jcircumflex" unicode="&#x135;" horiz-adv-x="180" 
d="M257 620l-104 160h-20l-146 -160h26l129 142l91 -142h24zM23 -63l-25 -76l-45 -37l-61 -10l-25 2l-21 4l-13 4l-2 -20l10 -3l20 -5l32 -2l66 12l53 41l30 84l78 599h-20z" />
    <glyph glyph-name="Kcommaaccent" unicode="&#x136;" horiz-adv-x="518" 
d="M153 780h-20l-102 -780h20l32 245l151 179l174 -424h23l-183 441l285 339h-28l-418 -501zM221 -70h-40l-5 -40h20l-17 -49l-27 -22l-27 -5l-2 -20l41 10l34 33l19 61z" />
    <glyph glyph-name="kcommaaccent" unicode="&#x137;" horiz-adv-x="458" 
d="M201 -70h-40l-5 -40h20l-17 -49l-27 -22l-27 -5l-2 -20l41 10l34 33l19 61zM151 800h-20l-105 -800h20l22 171l150 143l135 -314h23l-142 329l211 201h-28l-345 -329z" />
    <glyph glyph-name="kgreenlandic" unicode="&#x138;" horiz-adv-x="458" 
d="M95 530l-69 -530h20l22 171l150 143l135 -314h23l-142 329l211 201h-28l-345 -329l43 329h-20z" />
    <glyph glyph-name="Lacute" unicode="&#x139;" horiz-adv-x="464" 
d="M401 0l3 20h-350l100 760h-21l-102 -780h370zM217 950l-77 -110h22l77 110h-22z" />
    <glyph glyph-name="lacute" unicode="&#x13a;" horiz-adv-x="180" 
d="M217 950l-77 -110h22l77 110h-22zM31 0h20l105 800h-20z" />
    <glyph glyph-name="Lcommaaccent" unicode="&#x13b;" horiz-adv-x="464" 
d="M226 -70h-40l-5 -40h20l-17 -49l-27 -22l-27 -5l-2 -20l41 10l34 33l19 61zM401 0l3 20h-350l100 760h-21l-102 -780h370z" />
    <glyph glyph-name="lcommaaccent" unicode="&#x13c;" horiz-adv-x="180" 
d="M51 -70h-40l-5 -40h20l-17 -49l-27 -22l-27 -5l-2 -20l41 10l34 33l19 61zM31 0h20l105 800h-20z" />
    <glyph glyph-name="Lcaron" unicode="&#x13d;" horiz-adv-x="464" 
d="M353 780l-21 -160h10l31 160h-20zM401 0l3 20h-350l100 760h-21l-102 -780h370z" />
    <glyph glyph-name="lcaron" unicode="&#x13e;" horiz-adv-x="180" 
d="M243 780l-21 -160h10l31 160h-20zM31 0h20l105 800h-20z" />
    <glyph glyph-name="Ldot" unicode="&#x13f;" horiz-adv-x="464" 
d="M347 418h-40l-5 -40h40zM401 0l3 20h-350l100 760h-21l-102 -780h370z" />
    <glyph glyph-name="ldot" unicode="&#x140;" horiz-adv-x="280" 
d="M248 360h-40l-5 -40h40zM31 0h20l105 800h-20z" />
    <glyph glyph-name="Lslash" unicode="&#x141;" horiz-adv-x="519" 
d="M17 306l-4 -24l118 63l-45 -345h370l2 20h-349l44 337l247 133l4 24l-248 -133l53 399h-21l-54 -411z" />
    <glyph glyph-name="lslash" unicode="&#x142;" horiz-adv-x="260" 
d="M260 530l-109 -74l45 344h-20l-47 -358l-99 -66l-3 -25l98 66l-54 -417h20l56 431l110 74z" />
    <glyph glyph-name="Nacute" unicode="&#x143;" horiz-adv-x="640" 
d="M447 950l-77 -110h22l77 110h-22zM496 32l-341 748h-22l-102 -780h20l79 605l18 143l341 -748h22l102 780h-20l-79 -605z" />
    <glyph glyph-name="nacute" unicode="&#x144;" horiz-adv-x="488" 
d="M382 780l-111 -160h22l111 160h-22zM381 0l50 381l-10 89l-52 50l-86 16l-85 -15l-61 -34l-41 -43l5 86h-16l-10 -118l-54 -412h20l55 419l42 44l61 37l84 16l74 -13l45 -46l8 -83l-49 -374h20z" />
    <glyph glyph-name="Ncommaaccent" unicode="&#x145;" horiz-adv-x="640" 
d="M281 -70h-40l-5 -40h20l-17 -49l-27 -22l-27 -5l-2 -20l41 10l34 33l19 61zM496 32l-341 748h-22l-102 -780h20l79 605l18 143l341 -748h22l102 780h-20l-79 -605z" />
    <glyph glyph-name="ncommaaccent" unicode="&#x146;" horiz-adv-x="488" 
d="M211 -70h-40l-5 -40h20l-17 -49l-27 -22l-27 -5l-2 -20l41 10l34 33l19 61zM381 0l50 381l-10 89l-52 50l-86 16l-85 -15l-61 -34l-41 -43l5 86h-16l-10 -118l-54 -412h20l55 419l42 44l61 37l84 16l74 -13l45 -46l8 -83l-49 -374h20z" />
    <glyph glyph-name="Ncaron" unicode="&#x147;" horiz-adv-x="640" 
d="M481 950l-99 -95l-73 95h-23l85 -110h20l115 110h-25zM496 32l-341 748h-22l-102 -780h20l79 605l18 143l341 -748h22l102 780h-20l-79 -605z" />
    <glyph glyph-name="ncaron" unicode="&#x148;" horiz-adv-x="490" 
d="M168 780l104 -160h20l146 160h-26l-129 -142l-91 142h-24zM381 0l50 381l-10 89l-52 50l-86 16l-85 -15l-61 -34l-41 -43l5 86h-16l-10 -118l-54 -412h20l55 419l42 44l61 37l84 16l74 -13l45 -46l8 -83l-49 -374h20z" />
    <glyph glyph-name="Eng" unicode="&#x14a;" horiz-adv-x="640" 
d="M491 -4l-8 -59l-25 -76l-45 -37l-61 -10l-25 2l-21 4l-13 4l-2 -20l10 -3l20 -5l32 -2l66 12l53 41l30 84l111 849h-20l-79 -605l-18 -143l-341 748h-22l-102 -780h20l79 605l18 143z" />
    <glyph glyph-name="eng" unicode="&#x14b;" horiz-adv-x="488" 
d="M431 381l-10 89l-52 50l-86 16l-85 -15l-61 -34l-41 -43l5 86h-16l-10 -118l-54 -412h20l55 419l42 44l61 37l84 16l74 -13l45 -46l8 -83l-57 -437l-25 -76l-45 -37l-61 -10l-25 2l-21 4l-13 4l-2 -20l10 -3l20 -5l32 -2l66 12l53 41l30 84z" />
    <glyph glyph-name="Omacron" unicode="&#x14c;" horiz-adv-x="621" 
d="M282 885h200l3 20h-200zM361 786l-142 -38l-96 -123l-55 -223l-3 -24l1 -220l71 -124l135 -40l142 38l96 123l55 223l3 24l-1 220l-71 124zM269 14l-122 37l-62 117l1 210l3 24l51 212l88 116l130 36h6l122 -37l62 -117l-1 -210l-3 -24l-51 -212l-88 -116l-130 -36h-6z
" />
    <glyph glyph-name="omacron" unicode="&#x14d;" horiz-adv-x="522" 
d="M204 690h200l3 20h-200zM220 14l-100 29l-55 82l-6 128l3 24l37 128l73 82l106 29l100 -29l55 -82l6 -128l-3 -24l-37 -128l-73 -82zM220 -6l116 31l80 89l40 139l3 24l-8 139l-62 89l-111 31l-116 -31l-80 -89l-40 -139l-3 -24l8 -139l62 -89z" />
    <glyph glyph-name="Obreve" unicode="&#x14e;" horiz-adv-x="621" 
d="M375 852l-59 12l-32 34l-6 52h-17l7 -61l39 -40l69 -15l72 15l49 40l24 61h-19l-21 -52l-43 -34zM361 786l-142 -38l-96 -123l-55 -223l-3 -24l1 -220l71 -124l135 -40l142 38l96 123l55 223l3 24l-1 220l-71 124zM269 14l-122 37l-62 117l1 210l3 24l51 212l88 116
l130 36h6l122 -37l62 -117l-1 -210l-3 -24l-51 -212l-88 -116l-130 -36h-6z" />
    <glyph glyph-name="obreve" unicode="&#x14f;" horiz-adv-x="526" 
d="M295 614l87 23l57 60l27 83h-19l-23 -74l-50 -53l-79 -21l-72 21l-36 53l-4 74h-17l5 -83l43 -60zM220 14l-100 29l-55 82l-6 128l3 24l37 128l73 82l106 29l100 -29l55 -82l6 -128l-3 -24l-37 -128l-73 -82zM220 -6l116 31l80 89l40 139l3 24l-8 139l-62 89l-111 31
l-116 -31l-80 -89l-40 -139l-3 -24l8 -139l62 -89z" />
    <glyph glyph-name="Ohungarumlaut" unicode="&#x150;" horiz-adv-x="621" 
d="M392 950l-77 -110h22l77 110h-22zM492 950l-77 -110h22l77 110h-22zM361 786l-142 -38l-96 -123l-55 -223l-3 -24l1 -220l71 -124l135 -40l142 38l96 123l55 223l3 24l-1 220l-71 124zM269 14l-122 37l-62 117l1 210l3 24l51 212l88 116l130 36h6l122 -37l62 -117
l-1 -210l-3 -24l-51 -212l-88 -116l-130 -36h-6z" />
    <glyph glyph-name="ohungarumlaut" unicode="&#x151;" horiz-adv-x="526" 
d="M345 780l-111 -160h22l111 160h-22zM445 780l-111 -160h22l111 160h-22zM220 14l-100 29l-55 82l-6 128l3 24l37 128l73 82l106 29l100 -29l55 -82l6 -128l-3 -24l-37 -128l-73 -82zM220 -6l116 31l80 89l40 139l3 24l-8 139l-62 89l-111 31l-116 -31l-80 -89l-40 -139
l-3 -24l8 -139l62 -89z" />
    <glyph glyph-name="OE" unicode="&#x152;" horiz-adv-x="940" 
d="M841 0l3 20h-390l48 368h339l3 20h-339l46 352h389l3 20h-540l-154 -36l-119 -120l-67 -222l-3 -24l9 -223l85 -119l143 -36h544zM531 760l-97 -740h-137l-134 35l-76 114l-6 209l3 24l62 210l111 114l146 34h128z" />
    <glyph glyph-name="oe" unicode="&#x153;" horiz-adv-x="921" 
d="M855 255l2 16l-3 137l-56 93l-120 35l-98 -21l-74 -60l-48 -95l-26 95l-61 60l-93 21l-116 -31l-80 -89l-40 -139l-3 -24l8 -139l62 -89l111 -31l98 21l72 61l46 96l30 -96l67 -61l96 -21l120 25l67 60l26 75l2 16h-20l-23 -77l-62 -57l-110 -22l-104 29l-60 83l-10 129
h400zM678 516l105 -31l51 -85l4 -125h-380l38 129l75 83zM220 14l-100 29l-55 82l-6 128l3 24l37 128l73 82l106 29l100 -29l55 -82l6 -128l-3 -24l-37 -128l-73 -82z" />
    <glyph glyph-name="Racute" unicode="&#x154;" horiz-adv-x="550" 
d="M387 950l-77 -110h22l77 110h-22zM98 360l52 400h170l87 -14l73 -56l19 -121l-3 -24l-49 -120l-86 -53l-91 -12h-172zM96 340h174h19l20 2l19 2l97 -344h20l-98 348l77 31l60 62l33 104l3 24l-18 127l-76 65l-106 19h-187l-102 -780h20z" />
    <glyph glyph-name="racute" unicode="&#x155;" horiz-adv-x="297" 
d="M292 780l-111 -160h22l111 160h-22zM261 536l-72 -14l-56 -35l-37 -43l5 86h-16l-10 -118l-54 -412h20l55 419l35 42l56 39l77 16h9l3 19h-2l-5 1h-8z" />
    <glyph glyph-name="Rcommaaccent" unicode="&#x156;" horiz-adv-x="550" 
d="M241 -70h-40l-5 -40h20l-17 -49l-27 -22l-27 -5l-2 -20l41 10l34 33l19 61zM98 360l52 400h170l87 -14l73 -56l19 -121l-3 -24l-49 -120l-86 -53l-91 -12h-172zM96 340h174h19l20 2l19 2l97 -344h20l-98 348l77 31l60 62l33 104l3 24l-18 127l-76 65l-106 19h-187
l-102 -780h20z" />
    <glyph glyph-name="rcommaaccent" unicode="&#x157;" horiz-adv-x="297" 
d="M46 -70h-40l-5 -40h20l-17 -49l-27 -22l-27 -5l-2 -20l41 10l34 33l19 61zM261 536l-72 -14l-56 -35l-37 -43l5 86h-16l-10 -118l-54 -412h20l55 419l35 42l56 39l77 16h9l3 19h-2l-5 1h-8z" />
    <glyph glyph-name="Rcaron" unicode="&#x158;" horiz-adv-x="550" 
d="M421 950l-99 -95l-73 95h-23l85 -110h20l115 110h-25zM98 360l52 400h170l87 -14l73 -56l19 -121l-3 -24l-49 -120l-86 -53l-91 -12h-172zM96 340h174h19l20 2l19 2l97 -344h20l-98 348l77 31l60 62l33 104l3 24l-18 127l-76 65l-106 19h-187l-102 -780h20z" />
    <glyph glyph-name="rcaron" unicode="&#x159;" horiz-adv-x="297" 
d="M78 780l104 -160h20l146 160h-26l-129 -142l-91 142h-24zM261 536l-72 -14l-56 -35l-37 -43l5 86h-16l-10 -118l-54 -412h20l55 419l35 42l56 39l77 16h9l3 19h-2l-5 1h-8z" />
    <glyph glyph-name="Sacute" unicode="&#x15a;" horiz-adv-x="576" 
d="M417 950l-77 -110h22l77 110h-22zM289 395l123 -35l64 -64l10 -98l-3 -24l-39 -93l-82 -51l-113 -16h-6l-121 25l-64 78l-5 133h-20l-3 -24l11 -125l71 -79l134 -28l123 17l91 56l44 107l3 24l-10 102l-65 74l-131 40l-125 33l-62 56l-11 83l3 24l39 86l80 52l106 18h6
l117 -24l64 -79l6 -143h20l3 24l-11 131l-70 82l-132 29l-119 -19l-88 -57l-42 -100l-3 -24l11 -88l65 -65z" />
    <glyph glyph-name="sacute" unicode="&#x15b;" horiz-adv-x="478" 
d="M372 780l-111 -160h22l111 160h-22zM213 261l98 -16l53 -33l16 -58l-22 -73l-62 -49l-96 -18l-105 19l-49 50l-4 77h-20l-2 -16l9 -74l55 -55l116 -21l102 18l67 49l29 72l1 8l-8 68l-50 46l-104 23l-97 16l-50 31l-14 50l21 76l59 48l94 17l101 -18l48 -53l4 -85h20
l2 16l-8 82l-55 57l-112 21l-96 -17l-66 -47l-30 -72l-1 -8l6 -61l46 -45z" />
    <glyph glyph-name="Scircumflex" unicode="&#x15c;" horiz-adv-x="576" 
d="M266 840l99 95l73 -95h23l-85 110h-20l-115 -110h25zM289 395l123 -35l64 -64l10 -98l-3 -24l-39 -93l-82 -51l-113 -16h-6l-121 25l-64 78l-5 133h-20l-3 -24l11 -125l71 -79l134 -28l123 17l91 56l44 107l3 24l-10 102l-65 74l-131 40l-125 33l-62 56l-11 83l3 24
l39 86l80 52l106 18h6l117 -24l64 -79l6 -143h20l3 24l-11 131l-70 82l-132 29l-119 -19l-88 -57l-42 -100l-3 -24l11 -88l65 -65z" />
    <glyph glyph-name="scircumflex" unicode="&#x15d;" horiz-adv-x="478" 
d="M407 620l-104 160h-20l-146 -160h26l129 142l91 -142h24zM213 261l98 -16l53 -33l16 -58l-22 -73l-62 -49l-96 -18l-105 19l-49 50l-4 77h-20l-2 -16l9 -74l55 -55l116 -21l102 18l67 49l29 72l1 8l-8 68l-50 46l-104 23l-97 16l-50 31l-14 50l21 76l59 48l94 17l101 -18
l48 -53l4 -85h20l2 16l-8 82l-55 57l-112 21l-96 -17l-66 -47l-30 -72l-1 -8l6 -61l46 -45z" />
    <glyph glyph-name="Scedilla" unicode="&#x15e;" horiz-adv-x="576" 
d="M137 -186l24 -11l28 -6l29 -3l46 7l36 26l14 47l-12 37l-29 20l-37 5h-7h-6l-6 -1l29 59l123 17l91 56l44 107l3 24l-10 102l-65 74l-131 40l-125 33l-62 56l-11 83l3 24l39 86l80 52l106 18h6l117 -24l64 -79l6 -143h20l3 24l-11 131l-70 82l-132 29l-119 -19l-88 -57
l-42 -100l-3 -24l11 -88l65 -65l131 -38l123 -35l64 -64l10 -98l-3 -24l-39 -93l-82 -51l-113 -16h-6l-121 25l-64 78l-5 133h-20l-3 -24l9 -121l65 -79l123 -31l-33 -68l9 -11l4 1h9l13 1l33 -3l24 -12l10 -29l-12 -39l-29 -18l-37 -5l-26 2l-27 7l-20 9z" />
    <glyph glyph-name="scedilla" unicode="&#x15f;" horiz-adv-x="478" 
d="M91 -186l24 -11l28 -6l29 -3l46 7l36 26l14 47l-12 37l-29 20l-37 5h-7h-6l-6 -1l29 59l102 18l67 49l29 72l1 8l-8 68l-50 46l-104 23l-97 16l-50 31l-14 50l21 76l59 48l94 17l101 -18l48 -53l4 -85h20l2 16l-8 82l-55 57l-112 21l-96 -17l-66 -47l-30 -72l-1 -8l6 -61
l46 -45l104 -25l98 -16l53 -33l16 -58l-22 -73l-62 -49l-96 -18l-105 19l-49 50l-4 77h-20l-2 -16l8 -71l49 -54l104 -24l-33 -68l9 -11l4 1h9l13 1l33 -3l24 -12l10 -29l-12 -39l-29 -18l-37 -5l-26 2l-27 7l-20 9z" />
    <glyph glyph-name="Scaron" unicode="&#x160;" horiz-adv-x="576" 
d="M451 950l-99 -95l-73 95h-23l85 -110h20l115 110h-25zM289 395l123 -35l64 -64l10 -98l-3 -24l-39 -93l-82 -51l-113 -16h-6l-121 25l-64 78l-5 133h-20l-3 -24l11 -125l71 -79l134 -28l123 17l91 56l44 107l3 24l-10 102l-65 74l-131 40l-125 33l-62 56l-11 83l3 24
l39 86l80 52l106 18h6l117 -24l64 -79l6 -143h20l3 24l-11 131l-70 82l-132 29l-119 -19l-88 -57l-42 -100l-3 -24l11 -88l65 -65z" />
    <glyph glyph-name="scaron" unicode="&#x161;" horiz-adv-x="480" 
d="M158 780l104 -160h20l146 160h-26l-129 -142l-91 142h-24zM213 261l98 -16l53 -33l16 -58l-22 -73l-62 -49l-96 -18l-105 19l-49 50l-4 77h-20l-2 -16l9 -74l55 -55l116 -21l102 18l67 49l29 72l1 8l-8 68l-50 46l-104 23l-97 16l-50 31l-14 50l21 76l59 48l94 17
l101 -18l48 -53l4 -85h20l2 16l-8 82l-55 57l-112 21l-96 -17l-66 -47l-30 -72l-1 -8l6 -61l46 -45z" />
    <glyph glyph-name="Tcommaaccent" unicode="&#x162;" horiz-adv-x="490" 
d="M206 -70h-40l-5 -40h20l-17 -49l-27 -22l-27 -5l-2 -20l41 10l34 33l19 61zM305 760h209l3 20h-439l-3 -20h209l-99 -760h20z" />
    <glyph glyph-name="tcommaaccent" unicode="&#x163;" horiz-adv-x="360" 
d="M171 -70h-40l-5 -40h20l-17 -49l-27 -22l-27 -5l-2 -20l41 10l34 33l19 61zM155 530l20 150h-20l-20 -150h-85l-3 -20h86l-50 -381l8 -83l43 -41l66 -11l29 2l21 5l11 3l3 20l-15 -4l-22 -4l-27 -2l-58 10l-34 38l-4 75l49 373h184l3 20h-185z" />
    <glyph glyph-name="Tcaron" unicode="&#x164;" horiz-adv-x="490" 
d="M406 950l-99 -95l-73 95h-23l85 -110h20l115 110h-25zM305 760h209l3 20h-439l-3 -20h209l-99 -760h20z" />
    <glyph glyph-name="tcaron" unicode="&#x165;" horiz-adv-x="360" 
d="M278 780l-21 -160h10l31 160h-20zM155 530l20 150h-20l-20 -150h-85l-3 -20h86l-50 -381l8 -83l43 -41l66 -11l29 2l21 5l11 3l3 20l-15 -4l-22 -4l-27 -2l-58 10l-34 38l-4 75l49 373h184l3 20h-185z" />
    <glyph glyph-name="Tbar" unicode="&#x166;" horiz-adv-x="490" 
d="M117 388h118l-50 -388h20l51 388h121l3 20h-122l47 352h209l3 20h-439l-3 -20h209l-46 -352h-118z" />
    <glyph glyph-name="tbar" unicode="&#x167;" horiz-adv-x="360" 
d="M155 530l20 150h-20l-20 -150h-85l-3 -20h86l-31 -235h-85l-3 -20h85l-16 -126l8 -83l43 -41l66 -11l29 2l21 5l11 3l3 20l-15 -4l-22 -4l-27 -2l-58 10l-34 38l-4 75l15 118h145l3 20h-145l31 235h184l3 20h-185z" />
    <glyph glyph-name="Utilde" unicode="&#x168;" horiz-adv-x="620" 
d="M500 927l-12 -33l-19 -16l-23 -3l-44 15l-43 28l-48 15l-30 -6l-27 -21l-15 -43h18l12 33l19 16l23 3l44 -15l43 -28l48 -15l30 6l27 21l15 43h-18zM267 -6l124 21l87 75l47 149l71 541h-20l-70 -535l-43 -140l-79 -71l-117 -20l-114 19l-65 71l-8 140l70 536h-20
l-71 -541l12 -149l74 -75z" />
    <glyph glyph-name="utilde" unicode="&#x169;" horiz-adv-x="490" 
d="M404 732l-12 -33l-19 -16l-23 -3l-44 15l-43 28l-48 15l-30 -6l-27 -21l-15 -43h18l12 33l19 16l23 3l44 -15l43 -28l48 -15l30 6l27 21l15 43h-18zM80 530l-50 -381l10 -89l52 -50l86 -16l85 15l61 34l41 43l-5 -86h16l10 118l54 412h-20l-55 -419l-42 -44l-61 -37
l-84 -16l-74 13l-45 46l-8 83l49 374h-20z" />
    <glyph glyph-name="Umacron" unicode="&#x16a;" horiz-adv-x="620" 
d="M277 885h200l3 20h-200zM267 -6l124 21l87 75l47 149l71 541h-20l-70 -535l-43 -140l-79 -71l-117 -20l-114 19l-65 71l-8 140l70 536h-20l-71 -541l12 -149l74 -75z" />
    <glyph glyph-name="umacron" unicode="&#x16b;" horiz-adv-x="490" 
d="M181 690h200l3 20h-200zM80 530l-50 -381l10 -89l52 -50l86 -16l85 15l61 34l41 43l-5 -86h16l10 118l54 412h-20l-55 -419l-42 -44l-61 -37l-84 -16l-74 13l-45 46l-8 83l49 374h-20z" />
    <glyph glyph-name="Ubreve" unicode="&#x16c;" horiz-adv-x="620" 
d="M370 852l-59 12l-32 34l-6 52h-17l7 -61l39 -40l69 -15l72 15l49 40l24 61h-19l-21 -52l-43 -34zM267 -6l124 21l87 75l47 149l71 541h-20l-70 -535l-43 -140l-79 -71l-117 -20l-114 19l-65 71l-8 140l70 536h-20l-71 -541l12 -149l74 -75z" />
    <glyph glyph-name="ubreve" unicode="&#x16d;" horiz-adv-x="490" 
d="M272 614l87 23l57 60l27 83h-19l-23 -74l-50 -53l-79 -21l-72 21l-36 53l-4 74h-17l5 -83l43 -60zM80 530l-50 -381l10 -89l52 -50l86 -16l85 15l61 34l41 43l-5 -86h16l10 118l54 412h-20l-55 -419l-42 -44l-61 -37l-84 -16l-74 13l-45 46l-8 83l49 374h-20z" />
    <glyph glyph-name="Uring" unicode="&#x16e;" horiz-adv-x="620" 
d="M383 956l-47 -13l-34 -34l-14 -47l10 -42l27 -26l43 -10l47 13l34 34l14 47l-10 42l-27 26zM383 938l32 -7l21 -20l8 -33l-10 -40l-27 -26l-39 -10l-32 7l-21 20l-8 33l10 40l27 26zM267 -6l124 21l87 75l47 149l71 541h-20l-70 -535l-43 -140l-79 -71l-117 -20l-114 19
l-65 71l-8 140l70 536h-20l-71 -541l12 -149l74 -75z" />
    <glyph glyph-name="uring" unicode="&#x16f;" horiz-adv-x="490" 
d="M290 786l-47 -13l-34 -34l-14 -47l10 -42l27 -26l43 -10l47 13l34 34l14 47l-10 42l-27 26zM290 768l32 -7l21 -20l8 -33l-10 -40l-27 -26l-39 -10l-32 7l-21 20l-8 33l10 40l27 26zM80 530l-50 -381l10 -89l52 -50l86 -16l85 15l61 34l41 43l-5 -86h16l10 118l54 412
h-20l-55 -419l-42 -44l-61 -37l-84 -16l-74 13l-45 46l-8 83l49 374h-20z" />
    <glyph glyph-name="Uhungarumlaut" unicode="&#x170;" horiz-adv-x="620" 
d="M387 950l-77 -110h22l77 110h-22zM487 950l-77 -110h22l77 110h-22zM267 -6l124 21l87 75l47 149l71 541h-20l-70 -535l-43 -140l-79 -71l-117 -20l-114 19l-65 71l-8 140l70 536h-20l-71 -541l12 -149l74 -75z" />
    <glyph glyph-name="uhungarumlaut" unicode="&#x171;" horiz-adv-x="490" 
d="M322 780l-111 -160h22l111 160h-22zM422 780l-111 -160h22l111 160h-22zM80 530l-50 -381l10 -89l52 -50l86 -16l85 15l61 34l41 43l-5 -86h16l10 118l54 412h-20l-55 -419l-42 -44l-61 -37l-84 -16l-74 13l-45 46l-8 83l49 374h-20z" />
    <glyph glyph-name="Uogonek" unicode="&#x172;" horiz-adv-x="620" 
d="M355 -170l-19 -8l-25 -7l-31 -3l-32 6l-23 18l-9 35l22 68l50 42l52 19l87 36l63 75l35 128l71 541h-20l-70 -535l-43 -140l-79 -71l-117 -20l-114 19l-65 71l-8 140l70 536h-20l-71 -541l12 -149l74 -75l122 -21h13l-41 -28l-30 -40l-11 -55l11 -44l30 -25l41 -8l34 3
l25 7l20 9z" />
    <glyph glyph-name="uogonek" unicode="&#x173;" horiz-adv-x="490" 
d="M391 -170l-19 -8l-25 -7l-31 -3l-32 6l-23 18l-9 35l21 66l49 40l54 23l10 118l54 412h-20l-55 -419l-42 -44l-61 -37l-84 -16l-74 13l-45 46l-8 83l49 374h-20l-50 -381l10 -89l52 -50l86 -16l85 15l61 34l41 43l-5 -74l-60 -27l-47 -45l-19 -69l11 -44l30 -25l41 -8
l34 3l25 7l20 9z" />
    <glyph glyph-name="Wcircumflex" unicode="&#x174;" horiz-adv-x="860" 
d="M406 840l99 95l73 -95h23l-85 110h-20l-115 -110h25zM493 780h-22l-299 -745l-61 745h-20l65 -780h22l301 748l105 -748h22l269 780h-22l-255 -747z" />
    <glyph glyph-name="wcircumflex" unicode="&#x175;" horiz-adv-x="670" 
d="M502 620l-104 160h-20l-146 -160h26l129 142l91 -142h24zM352 504l86 -504h24l195 530h-22l-183 -506l-85 506h-24l-217 -504l-52 504h-21l57 -530h24z" />
    <glyph glyph-name="Ycircumflex" unicode="&#x176;" horiz-adv-x="540" 
d="M241 840l99 95l73 -95h23l-85 110h-20l-115 -110h25zM248 253l-159 527h-21l168 -550l-30 -230h20l30 230l312 550h-23z" />
    <glyph glyph-name="ycircumflex" unicode="&#x177;" horiz-adv-x="460" 
d="M397 620l-104 160h-20l-146 -160h26l129 142l91 -142h24zM186 44l-118 486h-21l127 -513l-111 -217h22l107 217l261 513h-23z" />
    <glyph glyph-name="Ydieresis" unicode="&#x178;" horiz-adv-x="540" 
d="M426 915h-40l-5 -40h40zM286 915h-40l-5 -40h40zM248 253l-159 527h-21l168 -550l-30 -230h20l30 230l312 550h-23z" />
    <glyph glyph-name="Zacute" unicode="&#x179;" horiz-adv-x="536" 
d="M402 950l-77 -110h22l77 110h-22zM-7 14l-2 -14h470l3 20h-331l-112 -1l530 747l2 14h-450l-3 -20h311l112 1z" />
    <glyph glyph-name="zacute" unicode="&#x17a;" horiz-adv-x="420" 
d="M346 780l-111 -160h22l111 160h-22zM-13 14l-2 -14h360l3 20h-221l-111 -1l386 497l2 14h-340l-3 -20h201l111 1z" />
    <glyph glyph-name="Zdotaccent" unicode="&#x17b;" horiz-adv-x="536" 
d="M366 915h-40l-5 -40h40zM-7 14l-2 -14h470l3 20h-331l-112 -1l530 747l2 14h-450l-3 -20h311l112 1z" />
    <glyph glyph-name="zdotaccent" unicode="&#x17c;" horiz-adv-x="420" 
d="M279 720h-40l-5 -40h40zM-13 14l-2 -14h360l3 20h-221l-111 -1l386 497l2 14h-340l-3 -20h201l111 1z" />
    <glyph glyph-name="Zcaron" unicode="&#x17d;" horiz-adv-x="536" 
d="M436 950l-99 -95l-73 95h-23l85 -110h20l115 110h-25zM-7 14l-2 -14h470l3 20h-331l-112 -1l530 747l2 14h-450l-3 -20h311l112 1z" />
    <glyph glyph-name="zcaron" unicode="&#x17e;" horiz-adv-x="420" 
d="M132 780l104 -160h20l146 160h-26l-129 -142l-91 142h-24zM-13 14l-2 -14h360l3 20h-221l-111 -1l386 497l2 14h-340l-3 -20h201l111 1z" />
    <glyph glyph-name="Scommaaccent" unicode="&#x218;" horiz-adv-x="576" 
d="M251 -70h-40l-5 -40h20l-17 -49l-27 -22l-27 -5l-2 -20l41 10l34 33l19 61zM289 395l123 -35l64 -64l10 -98l-3 -24l-39 -93l-82 -51l-113 -16h-6l-121 25l-64 78l-5 133h-20l-3 -24l11 -125l71 -79l134 -28l123 17l91 56l44 107l3 24l-10 102l-65 74l-131 40l-125 33
l-62 56l-11 83l3 24l39 86l80 52l106 18h6l117 -24l64 -79l6 -143h20l3 24l-11 131l-70 82l-132 29l-119 -19l-88 -57l-42 -100l-3 -24l11 -88l65 -65z" />
    <glyph glyph-name="scommaaccent" unicode="&#x219;" horiz-adv-x="478" 
d="M201 -70h-40l-5 -40h20l-17 -49l-27 -22l-27 -5l-2 -20l41 10l34 33l19 61zM213 261l98 -16l53 -33l16 -58l-22 -73l-62 -49l-96 -18l-105 19l-49 50l-4 77h-20l-2 -16l9 -74l55 -55l116 -21l102 18l67 49l29 72l1 8l-8 68l-50 46l-104 23l-97 16l-50 31l-14 50l21 76
l59 48l94 17l101 -18l48 -53l4 -85h20l2 16l-8 82l-55 57l-112 21l-96 -17l-66 -47l-30 -72l-1 -8l6 -61l46 -45z" />
    <glyph glyph-name="Ymacron" unicode="&#x232;" horiz-adv-x="540" 
d="M232 885h200l3 20h-200zM248 253l-159 527h-21l168 -550l-30 -230h20l30 230l312 550h-23z" />
    <glyph glyph-name="ymacron" unicode="&#x233;" horiz-adv-x="460" 
d="M171 690h200l3 20h-200zM186 44l-118 486h-21l127 -513l-111 -217h22l107 217l261 513h-23z" />
    <glyph glyph-name="dotlessj" unicode="&#x237;" horiz-adv-x="180" 
d="M23 -63l-25 -76l-45 -37l-61 -10l-25 2l-21 4l-13 4l-2 -20l10 -3l20 -5l32 -2l66 12l53 41l30 84l78 599h-20z" />
    <glyph glyph-name="circumflex" unicode="&#x2c6;" horiz-adv-x="500" 
d="M417 620l-104 160h-20l-146 -160h26l129 142l91 -142h24z" />
    <glyph glyph-name="caron" unicode="&#x2c7;" horiz-adv-x="500" 
d="M168 780l104 -160h20l146 160h-26l-129 -142l-91 142h-24z" />
    <glyph glyph-name="breve" unicode="&#x2d8;" horiz-adv-x="500" 
d="M282 614l87 23l57 60l27 83h-19l-23 -74l-50 -53l-79 -21l-72 21l-36 53l-4 74h-17l5 -83l43 -60z" />
    <glyph glyph-name="dotaccent" unicode="&#x2d9;" horiz-adv-x="500" 
d="M315 720h-40l-5 -40h40z" />
    <glyph glyph-name="ring" unicode="&#x2da;" horiz-adv-x="500" 
d="M300 786l-47 -13l-34 -34l-14 -47l10 -42l27 -26l43 -10l47 13l34 34l14 47l-10 42l-27 26zM300 768l32 -7l21 -20l8 -33l-10 -40l-27 -26l-39 -10l-32 7l-21 20l-8 33l10 40l27 26z" />
    <glyph glyph-name="ogonek" unicode="&#x2db;" horiz-adv-x="602" 
d="M250 -170l-19 -8l-25 -7l-31 -3l-32 6l-23 18l-9 35l21 66l49 40l54 23l-5 16l-64 -27l-52 -46l-21 -72l11 -44l30 -25l41 -8l34 3l25 7l20 9z" />
    <glyph glyph-name="tilde" unicode="&#x2dc;" horiz-adv-x="500" 
d="M414 732l-12 -33l-19 -16l-23 -3l-44 15l-43 28l-48 15l-30 -6l-27 -21l-15 -43h18l12 33l19 16l23 3l44 -15l43 -28l48 -15l30 6l27 21l15 43h-18z" />
    <glyph glyph-name="hungarumlaut" unicode="&#x2dd;" horiz-adv-x="500" 
d="M332 780l-111 -160h22l111 160h-22zM432 780l-111 -160h22l111 160h-22z" />
    <glyph glyph-name="Bdotaccent" unicode="&#x1e02;" horiz-adv-x="549" 
d="M351 915h-40l-5 -40h40zM310 760l85 -11l68 -49l18 -108l-3 -24l-41 -104l-73 -46l-87 -10h-172l46 352h159zM277 388l86 -11l70 -50l19 -115l-3 -24l-44 -112l-80 -47l-95 -9h-176l48 368h175zM133 780l-102 -780h199l109 13l85 54l46 121l3 24l-9 102l-48 59l-72 25
l69 21l55 52l31 97l3 24l-18 116l-73 57l-101 15h-177z" />
    <glyph glyph-name="bdotaccent" unicode="&#x1e03;" horiz-adv-x="506" 
d="M171 915h-40l-5 -40h40zM96 419l43 48l57 35l73 14l98 -29l51 -82l4 -128l-3 -24l-36 -128l-70 -82l-105 -29l-73 15l-50 36l-30 42zM146 800h-20l-89 -678l-21 -122h15l18 83l32 -42l52 -33l75 -14l115 31l77 89l39 139l3 24l-6 139l-58 89l-109 31l-75 -13l-56 -33
l-38 -40z" />
    <glyph glyph-name="Ddotaccent" unicode="&#x1e0a;" horiz-adv-x="608" 
d="M361 915h-40l-5 -40h40zM54 20l97 740h170l134 -35l76 -114l6 -209l-3 -24l-62 -210l-111 -114l-146 -34h-161zM558 402l-9 223l-85 119l-143 36h-188l-102 -780h184l154 36l119 120l67 222z" />
    <glyph glyph-name="ddotaccent" unicode="&#x1e0b;" horiz-adv-x="510" 
d="M521 915h-40l-5 -40h40zM426 423l-41 -312l-43 -48l-57 -35l-73 -14l-98 29l-51 82l-4 128l3 24l36 128l70 82l105 29l73 -15l50 -36zM273 536l-115 -31l-77 -89l-39 -139l-3 -24l6 -139l58 -89l109 -31l75 14l58 34l40 44l-5 -86h16l10 118l89 682h-20l-46 -348l-30 38
l-51 32z" />
    <glyph glyph-name="Fdotaccent" unicode="&#x1e1e;" horiz-adv-x="484" 
d="M366 915h-40l-5 -40h40zM133 780l-102 -780h20l51 388h319l3 20h-319l46 352h369l3 20h-390z" />
    <glyph glyph-name="fdotaccent" unicode="&#x1e1f;" horiz-adv-x="340" 
d="M291 915h-40l-5 -40h40zM174 672l23 71l43 34l58 9l29 -3l23 -5l12 -5l3 20l-11 4l-24 6l-32 3l-63 -9l-51 -36l-28 -76l-21 -155h-85l-3 -20h86l-67 -510h20l67 510h164l3 20h-165z" />
    <glyph glyph-name="Mdotaccent" unicode="&#x1e40;" horiz-adv-x="760" 
d="M334 30l-180 750h-21l-102 -780h20l73 560l21 174l176 -734h20l368 734l-25 -173l-73 -561h20l102 780h-23zM471 915h-40l-5 -40h40z" />
    <glyph glyph-name="mdotaccent" unicode="&#x1e41;" horiz-adv-x="748" 
d="M445 720h-40l-5 -40h40zM563 536l-70 -13l-57 -34l-43 -46l-22 54l-45 30l-63 9l-74 -15l-56 -34l-37 -43l5 86h-16l-10 -118l-54 -412h20l55 419l38 44l56 37l73 16l62 -11l40 -40l7 -76l-51 -389h20l52 396v2l1 3v3l2 15l38 44l56 37l73 16l62 -11l40 -40l7 -76
l-51 -389h20l52 396l-9 82l-47 45z" />
    <glyph glyph-name="Pdotaccent" unicode="&#x1e56;" horiz-adv-x="541" 
d="M356 915h-40l-5 -40h40zM98 360l52 400h170l87 -14l73 -56l19 -121l-3 -24l-49 -120l-86 -53l-91 -12h-172zM96 340h174l106 16l91 62l50 127l3 24l-18 127l-76 65l-106 19h-187l-102 -780h20z" />
    <glyph glyph-name="pdotaccent" unicode="&#x1e57;" horiz-adv-x="506" 
d="M317 720h-40l-5 -40h40zM95 419l43 48l57 35l73 14l98 -29l51 -82l4 -128l-3 -24l-36 -128l-70 -82l-105 -29l-73 15l-50 36l-30 42zM207 -6l115 31l77 89l39 139l3 24l-6 139l-58 89l-109 31l-75 -14l-58 -34l-40 -44l5 86h-16l-10 -118l-80 -612h20l37 278l30 -38
l51 -32z" />
    <glyph glyph-name="Tdotaccent" unicode="&#x1e6a;" horiz-adv-x="490" 
d="M336 915h-40l-5 -40h40zM305 760h209l3 20h-439l-3 -20h209l-99 -760h20z" />
    <glyph glyph-name="tdotaccent" unicode="&#x1e6b;" horiz-adv-x="360" 
d="M200 795h-40l-5 -40h40zM155 530l20 150h-20l-20 -150h-85l-3 -20h86l-50 -381l8 -83l43 -41l66 -11l29 2l21 5l11 3l3 20l-15 -4l-22 -4l-27 -2l-58 10l-34 38l-4 75l49 373h184l3 20h-185z" />
    <glyph glyph-name="Wgrave" unicode="&#x1e80;" horiz-adv-x="860" 
d="M433 950l47 -110h22l-47 110h-22zM493 780h-22l-299 -745l-61 745h-20l65 -780h22l301 748l105 -748h22l269 780h-22l-255 -747z" />
    <glyph glyph-name="wgrave" unicode="&#x1e81;" horiz-adv-x="670" 
d="M287 780l69 -160h22l-69 160h-22zM352 504l86 -504h24l195 530h-22l-183 -506l-85 506h-24l-217 -504l-52 504h-21l57 -530h24z" />
    <glyph glyph-name="Wacute" unicode="&#x1e82;" horiz-adv-x="860" 
d="M557 950l-77 -110h22l77 110h-22zM493 780h-22l-299 -745l-61 745h-20l65 -780h22l301 748l105 -748h22l269 780h-22l-255 -747z" />
    <glyph glyph-name="wacute" unicode="&#x1e83;" horiz-adv-x="670" 
d="M467 780l-111 -160h22l111 160h-22zM352 504l86 -504h24l195 530h-22l-183 -506l-85 506h-24l-217 -504l-52 504h-21l57 -530h24z" />
    <glyph glyph-name="Wdieresis" unicode="&#x1e84;" horiz-adv-x="860" 
d="M591 915h-40l-5 -40h40zM451 915h-40l-5 -40h40zM493 780h-22l-299 -745l-61 745h-20l65 -780h22l301 748l105 -748h22l269 780h-22l-255 -747z" />
    <glyph glyph-name="wdieresis" unicode="&#x1e85;" horiz-adv-x="670" 
d="M470 720h-40l-5 -40h40zM330 720h-40l-5 -40h40zM352 504l86 -504h24l195 530h-22l-183 -506l-85 506h-24l-217 -504l-52 504h-21l57 -530h24z" />
    <glyph glyph-name="Eszett" unicode="&#x1e9e;" horiz-adv-x="698" 
d="M315 424l-2 -14l116 -15l110 -30l64 -60l14 -95l-3 -24l-36 -96l-73 -57l-101 -19h-6l-100 19l-61 72l-4 145h-20l-3 -24l10 -133l65 -76l116 -23l111 20l82 62l41 110l3 24l-13 98l-65 69l-118 36l-101 13l214 302l2 15l-45 24l-54 14l-66 5l-133 -21l-104 -75l-56 -149
l-71 -541h20l70 535l52 140l96 71l126 20l58 -3l47 -11l38 -18z" />
    <glyph glyph-name="Ygrave" unicode="&#x1ef2;" horiz-adv-x="540" 
d="M268 950l47 -110h22l-47 110h-22zM248 253l-159 527h-21l168 -550l-30 -230h20l30 230l312 550h-23z" />
    <glyph glyph-name="ygrave" unicode="&#x1ef3;" horiz-adv-x="460" 
d="M182 780l69 -160h22l-69 160h-22zM186 44l-118 486h-21l127 -513l-111 -217h22l107 217l261 513h-23z" />
    <glyph glyph-name="enspace" unicode="&#x2002;" horiz-adv-x="500" 
 />
    <glyph glyph-name="emspace" unicode="&#x2003;" horiz-adv-x="1000" 
 />
    <glyph glyph-name="threeperemspace" unicode="&#x2004;" horiz-adv-x="333" 
 />
    <glyph glyph-name="fourperemspace" unicode="&#x2005;" horiz-adv-x="250" 
 />
    <glyph glyph-name="sixperemspace" unicode="&#x2006;" horiz-adv-x="167" 
 />
    <glyph glyph-name="figurespace" unicode="&#x2007;" horiz-adv-x="600" 
 />
    <glyph glyph-name="punctuationspace" unicode="&#x2008;" horiz-adv-x="180" 
 />
    <glyph glyph-name="thinspace" unicode="&#x2009;" horiz-adv-x="150" 
 />
    <glyph glyph-name="hairspace" unicode="&#x200a;" horiz-adv-x="50" 
 />
    <glyph glyph-name="zerowidthspace" unicode="&#x200b;" horiz-adv-x="0" 
 />
    <glyph glyph-name="figuredash" unicode="&#x2012;" horiz-adv-x="600" 
d="M44 330h500l3 20h-500z" />
    <glyph glyph-name="endash" unicode="&#x2013;" horiz-adv-x="500" 
d="M44 330h400l3 20h-400z" />
    <glyph glyph-name="emdash" unicode="&#x2014;" horiz-adv-x="1000" 
d="M44 330h900l3 20h-900z" />
    <glyph glyph-name="uni2015" unicode="&#x2015;" horiz-adv-x="1200" 
d="M44 330h1100l3 20h-1100z" />
    <glyph glyph-name="doublebar" unicode="&#x2016;" horiz-adv-x="280" 
d="M115 -120h20l126 960h-20zM15 -120h20l126 960h-20z" />
    <glyph glyph-name="quoteleft" unicode="&#x2018;" horiz-adv-x="180" 
d="M105 641h40l5 40h-20l16 51l27 27l34 7l2 20l-46 -12l-35 -38l-19 -63z" />
    <glyph glyph-name="quoteright" unicode="&#x2019;" horiz-adv-x="180" 
d="M163 780h-40l-5 -40h20l-16 -51l-27 -27l-34 -7l-2 -20l46 12l35 38l19 63z" />
    <glyph glyph-name="quotesinglbase" unicode="&#x201a;" horiz-adv-x="180" 
d="M66 40h-40l-5 -40h20l-16 -51l-27 -27l-34 -7l-2 -20l46 12l35 38l19 63z" />
    <glyph glyph-name="reversequoteleft" unicode="&#x201b;" horiz-adv-x="180" 
d="M119 748l2 -63l25 -38l43 -12l2 20l-32 7l-19 27l-2 51h20l5 40h-40z" />
    <glyph glyph-name="quotedblleft" unicode="&#x201c;" horiz-adv-x="260" 
d="M185 641h40l5 40h-20l16 51l27 27l34 7l2 20l-46 -12l-35 -38l-19 -63zM105 641h40l5 40h-20l16 51l27 27l34 7l2 20l-46 -12l-35 -38l-19 -63z" />
    <glyph glyph-name="quotedblright" unicode="&#x201d;" horiz-adv-x="260" 
d="M243 780h-40l-5 -40h20l-16 -51l-27 -27l-34 -7l-2 -20l46 12l35 38l19 63zM163 780h-40l-5 -40h20l-16 -51l-27 -27l-34 -7l-2 -20l46 12l35 38l19 63z" />
    <glyph glyph-name="quotedblbase" unicode="&#x201e;" horiz-adv-x="260" 
d="M146 40h-40l-5 -40h20l-16 -51l-27 -27l-34 -7l-2 -20l46 12l35 38l19 63zM66 40h-40l-5 -40h20l-16 -51l-27 -27l-34 -7l-2 -20l46 12l35 38l19 63z" />
    <glyph glyph-name="reversequotedblleft" unicode="&#x201f;" horiz-adv-x="260" 
d="M199 748l2 -63l25 -38l43 -12l2 20l-32 7l-19 27l-2 51h20l5 40h-40zM119 748l2 -63l25 -38l43 -12l2 20l-32 7l-19 27l-2 51h20l5 40h-40z" />
    <glyph glyph-name="dagger" unicode="&#x2020;" horiz-adv-x="380" 
d="M393 630h-140l-3 -20h140zM51 610h140l3 20h-140zM195 340l33 250h-20l-33 -250h20zM236 800l-20 -150h20l20 150h-20z" />
    <glyph glyph-name="daggerdbl" unicode="&#x2021;" horiz-adv-x="380" 
d="M365 420h-140l-3 -20h140zM23 400h140l3 20h-140zM167 130l33 250h-20l-33 -250h20zM208 590l-20 -150h20l20 150h-20zM393 630h-140l-3 -20h140zM51 610h140l3 20h-140zM236 800l-20 -150h20l20 150h-20z" />
    <glyph glyph-name="bullet" unicode="&#x2022;" horiz-adv-x="380" 
d="M321 460h-240l-32 -240h240z" />
    <glyph glyph-name="ellipsis" unicode="&#x2026;" horiz-adv-x="1000" 
d="M476 40h-40l-5 -40h40zM796 40h-40l-5 -40h40zM156 40h-40l-5 -40h40z" />
    <glyph glyph-name="perthousand" unicode="&#x2030;" horiz-adv-x="1258" 
d="M1012 -6l79 20l57 55l29 87l1 8l-8 87l-46 55l-77 20l-79 -20l-57 -55l-29 -87l-1 -8l8 -87l46 -55zM1009 14l-64 17l-38 50l-6 75l1 8l24 74l49 50l69 18h6l64 -17l38 -50l6 -75l-1 -8l-24 -74l-49 -50l-69 -18h-6zM361 616l-24 -74l-49 -50l-69 -18h-6l-64 17l-38 50
l-6 75l1 8l24 74l49 50l69 18h6l64 -17l38 -50l6 -75zM652 -6l79 20l57 55l29 87l1 8l-8 87l-46 55l-77 20l-79 -20l-57 -55l-29 -87l-1 -8l8 -87l46 -55zM649 14l-64 17l-38 50l-6 75l1 8l24 74l49 50l69 18h6l64 -17l38 -50l6 -75l-1 -8l-24 -74l-49 -50l-69 -18h-6z
M382 624l1 47l-9 41l-20 33l37 -7l45 -6l54 -2l74 6l54 10l21 6l-411 -752h22l418 765l2 15l-45 -13l-64 -12l-71 -5l-63 3l-61 9l-64 17l-17 4l-17 2l-17 1l-79 -20l-57 -55l-29 -87l-1 -8l8 -87l46 -55l77 -20l79 20l57 55l29 87z" />
    <glyph glyph-name="tripleprime" unicode="&#x2034;" horiz-adv-x="380" 
d="M233 780l-28 -250h10l38 250h-20zM333 780l-28 -250h10l38 250h-20zM133 780l-28 -250h10l38 250h-20z" />
    <glyph glyph-name="guilsinglleft" unicode="&#x2039;" 
d="M267 506l-220 -156l-3 -20l179 -156l4 23l-164 141l201 141z" />
    <glyph glyph-name="guilsinglright" unicode="&#x203a;" 
d="M24 174l220 156l3 20l-179 156l-4 -23l164 -141l-201 -141z" />
    <glyph glyph-name="interrobang" unicode="&#x203d;" horiz-adv-x="437" 
d="M196 40h-40l-5 -40h40zM409 575l-46 -107l-79 -93l-72 -112l69 503l87 -31l39 -71zM201 175l68 156l99 115l62 136l-4 96l-47 76l-102 32l-112 -34l-75 -96l-40 -149l-1 -7h20l34 140l63 90l95 36l-74 -591h14z" />
    <glyph glyph-name="fraction" unicode="&#x2044;" horiz-adv-x="200" 
d="M-223 0l676 780h-26l-676 -780h26z" />
    <glyph glyph-name="uni2070" unicode="&#x2070;" horiz-adv-x="299" 
d="M262 504l-16 -55l-34 -34l-55 -11h-6l-52 12l-25 35l-2 54l21 161l16 55l34 34l55 11h6l52 -12l25 -35l2 -54zM305 673l-5 59l-34 39l-65 14l-67 -13l-42 -39l-19 -60l-23 -176l5 -59l34 -39l65 -14l67 13l42 39l19 60z" />
    <glyph glyph-name="uni2074" unicode="&#x2074;" 
d="M238 742l-29 -222h-95l-52 -1zM212 390l14 110h72l3 20h-72l34 260h-19l-209 -265l-2 -15h173l-14 -110h20z" />
    <glyph glyph-name="uni2075" unicode="&#x2075;" 
d="M71 555l27 34l36 20l41 7h6l47 -10l33 -33l8 -58l-1 -10l-20 -57l-38 -33l-50 -11h-6l-54 11l-32 35l-3 65h-20l-1 -10l7 -64l37 -41l69 -15l62 14l47 40l23 67l1 10l-11 67l-41 39l-60 13l-39 -4l-32 -14l-27 -22l29 165h208l3 20h-227l-39 -221z" />
    <glyph glyph-name="uni2076" unicode="&#x2076;" 
d="M185 616l48 -11l32 -34l7 -56l-1 -10l-17 -55l-37 -34l-53 -12h-6l-47 11l-32 34l-11 54l1 18l2 16l3 15l26 32l36 23l43 9h6zM311 785l-61 -7l-63 -23l-59 -47l-41 -58l-25 -61l-12 -59l-1 -10l8 -72l39 -46l65 -17l63 13l46 40l22 68l1 10l-10 68l-39 39l-62 12l-39 -6
l-35 -17l-26 -24l14 36l21 37l26 34l53 43l57 21l55 6z" />
    <glyph glyph-name="uni2077" unicode="&#x2077;" 
d="M67 640h19l16 120h197l-200 -370h22l202 375l2 15h-240z" />
    <glyph glyph-name="uni2078" unicode="&#x2078;" 
d="M203 766l50 -10l29 -28l7 -43l-1 -10l-18 -44l-37 -25l-48 -8h-12l-45 8l-30 25l-7 43l1 10l16 43l36 28l53 11h6zM185 578l46 -9l29 -26l7 -47l-1 -10l-19 -47l-38 -26l-49 -9h-6l-50 8l-33 26l-8 48l1 10l18 47l38 26l48 9h17zM157 385l61 12l47 33l22 56l1 10l-5 44
l-21 32l-34 16l40 16l28 29l13 43l1 10l-10 54l-38 33l-62 12l-65 -12l-44 -35l-20 -53l-1 -10l5 -41l20 -29l33 -16l-40 -17l-30 -30l-15 -46l-1 -10l11 -58l42 -33z" />
    <glyph glyph-name="uni2079" unicode="&#x2079;" 
d="M169 554l-48 11l-32 34l-7 56l1 10l17 55l37 34l53 12h6l47 -11l32 -34l11 -54l-1 -18l-2 -16l-3 -15l-26 -32l-36 -23l-43 -9h-6zM41 385l61 7l64 23l60 47l41 58l25 61l12 59l1 10l-8 72l-39 46l-65 17l-63 -13l-46 -40l-22 -68l-1 -10l10 -68l39 -39l62 -12l39 6
l35 17l26 24l-14 -36l-21 -37l-26 -34l-54 -43l-57 -21l-56 -6z" />
    <glyph glyph-name="uni207A" unicode="&#x207a;" 
d="M184 710l-15 -115h-115l-3 -20h115l-15 -115h20l15 115h115l3 20h-115l15 115h-20z" />
    <glyph glyph-name="uni207B" unicode="&#x207b;" 
d="M51 575h250l3 20h-250z" />
    <glyph glyph-name="uni207C" unicode="&#x207c;" 
d="M44 525h250l3 20h-250zM58 625h250l3 20h-250z" />
    <glyph glyph-name="uni207D" unicode="&#x207d;" horiz-adv-x="150" 
d="M59 583l-1 -72l14 -65l24 -56h22l-26 57l-14 66l1 70l1 8l16 69l31 64l42 56h-23l-41 -55l-28 -62l-17 -72z" />
    <glyph glyph-name="uni207E" unicode="&#x207e;" horiz-adv-x="148" 
d="M145 587l1 72l-14 65l-24 56h-22l26 -57l14 -66l-1 -70l-1 -8l-16 -69l-31 -64l-42 -56h23l41 55l28 62l17 72z" />
    <glyph glyph-name="uni2080" unicode="&#x2080;" horiz-adv-x="298" 
d="M211 114l-16 -55l-34 -34l-55 -11h-6l-52 12l-25 35l-2 54l21 161l16 55l34 34l55 11h6l52 -12l25 -35l2 -54zM254 283l-5 59l-34 39l-65 14l-67 -13l-42 -39l-19 -60l-23 -176l5 -59l34 -39l65 -14l67 13l42 39l19 60z" />
    <glyph glyph-name="uni2081" unicode="&#x2081;" 
d="M222 0l3 20h-107l49 372h-15l-135 -83l10 -18l116 71l-45 -342h-108l-3 -20h235z" />
    <glyph glyph-name="uni2082" unicode="&#x2082;" horiz-adv-x="299" 
d="M55 20l-41 -1l185 168l30 31l20 30l9 33l1 10l-9 56l-37 35l-63 13l-69 -14l-44 -42l-20 -64l-2 -15h20l19 68l36 37l57 11h6l51 -11l28 -30l6 -45l-1 -10l-7 -26l-18 -27l-30 -31l-199 -181l-2 -15h235l3 20h-164z" />
    <glyph glyph-name="uni2083" unicode="&#x2083;" horiz-adv-x="299" 
d="M103 14l-54 11l-32 35l-3 65h-20l-1 -10l7 -64l37 -41l69 -15l61 12l47 33l22 56l1 10l-5 44l-21 32l-34 16l40 17l28 30l13 41l1 10l-10 54l-38 33l-62 12l-70 -15l-44 -43l-19 -67l-1 -10h20l18 67l37 37l56 12h6l50 -10l29 -28l7 -43l-1 -10l-18 -43l-37 -26l-48 -8
h-56l-3 -20h59l46 -9l29 -26l7 -47l-1 -10l-19 -47l-38 -26l-49 -9h-6z" />
    <glyph glyph-name="uni2084" unicode="&#x2084;" 
d="M187 352l-29 -222h-95l-52 -1zM161 0l14 110h72l3 20h-72l34 260h-19l-209 -265l-2 -15h173l-14 -110h20z" />
    <glyph glyph-name="uni2085" unicode="&#x2085;" 
d="M20 165l27 34l36 20l41 7h6l47 -10l33 -33l8 -58l-1 -10l-20 -57l-38 -33l-50 -11h-6l-54 11l-32 35l-3 65h-20l-1 -10l7 -64l37 -41l69 -15l62 14l47 40l23 67l1 10l-11 67l-41 39l-60 13l-39 -4l-32 -14l-27 -22l29 165h208l3 20h-227l-39 -221z" />
    <glyph glyph-name="uni2086" unicode="&#x2086;" 
d="M134 226l48 -11l32 -34l7 -56l-1 -10l-17 -55l-37 -34l-53 -12h-6l-47 11l-32 34l-11 54l1 18l2 16l3 15l26 32l36 23l43 9h6zM260 395l-61 -7l-63 -23l-59 -47l-41 -58l-25 -61l-12 -59l-1 -10l8 -72l39 -46l65 -17l63 13l46 40l22 68l1 10l-10 68l-39 39l-62 12l-39 -6
l-35 -17l-26 -24l14 36l21 37l26 34l53 43l57 21l55 6z" />
    <glyph glyph-name="uni2087" unicode="&#x2087;" 
d="M16 250h19l16 120h197l-200 -370h22l202 375l2 15h-240z" />
    <glyph glyph-name="uni2088" unicode="&#x2088;" horiz-adv-x="299" 
d="M152 376l50 -10l29 -28l7 -43l-1 -10l-18 -44l-37 -25l-48 -8h-12l-45 8l-30 25l-7 43l1 10l16 43l36 28l53 11h6zM134 188l46 -9l29 -26l7 -47l-1 -10l-19 -47l-38 -26l-49 -9h-6l-50 8l-33 26l-8 48l1 10l18 47l38 26l48 9h17zM106 -5l61 12l47 33l22 56l1 10l-5 44
l-21 32l-34 16l40 16l28 29l13 43l1 10l-10 54l-38 33l-62 12l-65 -12l-44 -35l-20 -53l-1 -10l5 -41l20 -29l33 -16l-40 -17l-30 -30l-15 -46l-1 -10l11 -58l42 -33z" />
    <glyph glyph-name="uni2089" unicode="&#x2089;" horiz-adv-x="299" 
d="M118 164l-48 11l-32 34l-7 56l1 10l17 55l37 34l53 12h6l47 -11l32 -34l11 -54l-1 -18l-2 -16l-3 -15l-26 -32l-36 -23l-43 -9h-6zM-10 -5l61 7l64 23l60 47l41 58l25 61l12 59l1 10l-8 72l-39 46l-65 17l-63 -13l-46 -40l-22 -68l-1 -10l10 -68l39 -39l62 -12l39 6
l35 17l26 24l-14 -36l-21 -37l-26 -34l-54 -43l-57 -21l-56 -6z" />
    <glyph glyph-name="uni208A" unicode="&#x208a;" 
d="M133 320l-15 -115h-115l-3 -20h115l-15 -115h20l15 115h115l3 20h-115l15 115h-20z" />
    <glyph glyph-name="uni208B" unicode="&#x208b;" 
d="M0 185h250l3 20h-250z" />
    <glyph glyph-name="uni208C" unicode="&#x208c;" 
d="M-7 135h250l3 20h-250zM7 235h250l3 20h-250z" />
    <glyph glyph-name="uni208D" unicode="&#x208d;" horiz-adv-x="150" 
d="M8 193l-1 -72l14 -65l24 -56h22l-26 57l-14 66l1 70l1 8l16 69l31 64l42 56h-23l-41 -55l-28 -62l-17 -72z" />
    <glyph glyph-name="uni208E" unicode="&#x208e;" horiz-adv-x="148" 
d="M94 197l1 72l-14 65l-24 56h-22l26 -57l14 -66l-1 -70l-1 -8l-16 -69l-31 -64l-42 -56h23l41 55l28 62l17 72z" />
    <glyph glyph-name="Euro" unicode="&#x20ac;" horiz-adv-x="594" 
d="M31 310h76l5 -175l65 -106l118 -35l120 28l75 79l36 125l3 24h-20l-37 -138l-72 -75l-102 -23h-6l-105 33l-56 100l-3 163h243l13 20h-254l16 120h293l13 20h-303l46 171l81 95l115 30h6l101 -25l48 -83l-5 -158h20l3 24l-2 151l-56 85l-112 26l-126 -33l-90 -102
l-49 -181h-76l-3 -20h76l-16 -120h-76z" />
    <glyph glyph-name="ruble" unicode="&#x20bd;" horiz-adv-x="597" 
d="M153 360l52 400h170l87 -14l73 -56l19 -121l-3 -24l-49 -120l-86 -53l-91 -12h-172zM151 340h174l106 16l91 62l50 127l3 24l-18 127l-76 65l-106 19h-187l-56 -420h-109l-3 -20h110l-16 -120h-109l-3 -20h110l-26 -200h20l26 200h220l3 20h-220z" />
    <glyph glyph-name="numero" unicode="&#x2116;" horiz-adv-x="1047" 
d="M1033 595l-12 117l-55 58l-67 16l-72 -14l-70 -57l-43 -120l-3 -24l12 -117l55 -58l67 -16l72 14l70 57l43 120zM1010 571l-31 -97l-58 -56l-76 -18l-65 17l-42 55l-7 99l3 24l31 97l58 56l76 18l65 -17l42 -55l7 -99zM677 230h298l3 20h-298zM496 32l-341 748h-22
l-102 -780h20l79 605l18 143l341 -748h22l102 780h-20l-79 -605z" />
    <glyph glyph-name="published" unicode="&#x2117;" horiz-adv-x="900" 
d="M327 375v230h143l50 -8l44 -33l19 -69v-10l-19 -69l-44 -33l-50 -8h-143zM327 355h141l63 11l51 39l21 78v14l-21 78l-51 39l-63 11h-161v-470h20v200zM74 390l51 190l135 135l190 51l190 -51l135 -135l51 -190l-51 -190l-135 -135l-190 -51l-190 51l-135 135zM54 390
l54 -200l142 -142l200 -54l200 54l142 142l54 200l-54 200l-142 142l-200 54l-200 -54l-142 -142z" />
    <glyph glyph-name="servicemark" unicode="&#x2120;" horiz-adv-x="460" 
d="M98 663l41 -11l25 -19l8 -31v-3l-8 -31l-24 -19l-38 -7h-4l-33 7l-23 23l-8 44h-16v-3l9 -46l27 -30l46 -11l45 9l32 25l11 40v4l-8 34l-26 24l-47 14l-43 11l-22 18l-6 27v4l8 28l23 18l33 6h4l39 -7l21 -24l6 -47h16v5l-9 51l-27 29l-48 9l-43 -8l-28 -24l-11 -38v-4
l7 -30l25 -23zM326 530h16l79 224l-2 -73v-151h16v270h-14l-87 -248l-87 248h-14v-270h16v151l-2 73z" />
    <glyph glyph-name="trademark" unicode="&#x2122;" horiz-adv-x="460" 
d="M115 784h79v16h-174v-16h79v-254h16v254zM326 530h16l79 224l-2 -73v-151h16v270h-14l-87 -248l-87 248h-14v-270h16v151l-2 73z" />
    <glyph glyph-name="uni2153" unicode="&#x2153;" horiz-adv-x="799" 
d="M603 14l-54 11l-32 35l-3 65h-20l-1 -10l7 -64l37 -41l69 -15l61 12l47 33l22 56l1 10l-5 44l-21 32l-34 16l40 17l28 30l13 41l1 10l-10 54l-38 33l-62 12l-70 -15l-44 -43l-19 -67l-1 -10h20l18 67l37 37l56 12h6l50 -10l29 -28l7 -43l-1 -10l-18 -43l-37 -26l-48 -8
h-56l-3 -20h59l46 -9l29 -26l7 -47l-1 -10l-19 -47l-38 -26l-49 -9h-6zM77 0l676 780h-26l-676 -780h26zM273 390l3 20h-107l49 372h-15l-135 -83l10 -18l116 71l-45 -342h-108l-3 -20h235z" />
    <glyph glyph-name="uni2154" unicode="&#x2154;" horiz-adv-x="799" 
d="M603 14l-54 11l-32 35l-3 65h-20l-1 -10l7 -64l37 -41l69 -15l61 12l47 33l22 56l1 10l-5 44l-21 32l-34 16l40 17l28 30l13 41l1 10l-10 54l-38 33l-62 12l-70 -15l-44 -43l-19 -67l-1 -10h20l18 67l37 37l56 12h6l50 -10l29 -28l7 -43l-1 -10l-18 -43l-37 -26l-48 -8
h-56l-3 -20h59l46 -9l29 -26l7 -47l-1 -10l-19 -47l-38 -26l-49 -9h-6zM77 0l676 780h-26l-676 -780h26zM106 410l-41 -1l185 168l30 31l20 30l9 33l1 10l-9 56l-37 35l-63 13l-69 -14l-44 -42l-20 -64l-2 -15h20l19 68l36 37l57 11h6l51 -11l28 -30l6 -45l-1 -10l-7 -26
l-18 -27l-30 -31l-199 -181l-2 -15h235l3 20h-164z" />
    <glyph glyph-name="uni2155" unicode="&#x2155;" horiz-adv-x="800" 
d="M520 165l27 34l36 20l41 7h6l47 -10l33 -33l8 -58l-1 -10l-20 -57l-38 -33l-50 -11h-6l-54 11l-32 35l-3 65h-20l-1 -10l7 -64l37 -41l69 -15l62 14l47 40l23 67l1 10l-11 67l-41 39l-60 13l-39 -4l-32 -14l-27 -22l29 165h208l3 20h-227l-39 -221zM77 0l676 780h-26
l-676 -780h26zM273 390l3 20h-107l49 372h-15l-135 -83l10 -18l116 71l-45 -342h-108l-3 -20h235z" />
    <glyph glyph-name="uni2156" unicode="&#x2156;" horiz-adv-x="800" 
d="M520 165l27 34l36 20l41 7h6l47 -10l33 -33l8 -58l-1 -10l-20 -57l-38 -33l-50 -11h-6l-54 11l-32 35l-3 65h-20l-1 -10l7 -64l37 -41l69 -15l62 14l47 40l23 67l1 10l-11 67l-41 39l-60 13l-39 -4l-32 -14l-27 -22l29 165h208l3 20h-227l-39 -221zM77 0l676 780h-26
l-676 -780h26zM106 410l-41 -1l185 168l30 31l20 30l9 33l1 10l-9 56l-37 35l-63 13l-69 -14l-44 -42l-20 -64l-2 -15h20l19 68l36 37l57 11h6l51 -11l28 -30l6 -45l-1 -10l-7 -26l-18 -27l-30 -31l-199 -181l-2 -15h235l3 20h-164z" />
    <glyph glyph-name="uni2157" unicode="&#x2157;" horiz-adv-x="800" 
d="M520 165l27 34l36 20l41 7h6l47 -10l33 -33l8 -58l-1 -10l-20 -57l-38 -33l-50 -11h-6l-54 11l-32 35l-3 65h-20l-1 -10l7 -64l37 -41l69 -15l62 14l47 40l23 67l1 10l-11 67l-41 39l-60 13l-39 -4l-32 -14l-27 -22l29 165h208l3 20h-227l-39 -221zM77 0l676 780h-26
l-676 -780h26zM154 404l-54 11l-32 35l-3 65h-20l-1 -10l7 -64l37 -41l69 -15l61 12l47 33l22 56l1 10l-5 44l-21 32l-34 16l40 17l28 30l13 41l1 10l-10 54l-38 33l-62 12l-70 -15l-44 -43l-19 -67l-1 -10h20l18 67l37 37l56 12h6l50 -10l29 -28l7 -43l-1 -10l-18 -43
l-37 -26l-48 -8h-56l-3 -20h59l46 -9l29 -26l7 -47l-1 -10l-19 -47l-38 -26l-49 -9h-6z" />
    <glyph glyph-name="uni2158" unicode="&#x2158;" horiz-adv-x="800" 
d="M520 165l27 34l36 20l41 7h6l47 -10l33 -33l8 -58l-1 -10l-20 -57l-38 -33l-50 -11h-6l-54 11l-32 35l-3 65h-20l-1 -10l7 -64l37 -41l69 -15l62 14l47 40l23 67l1 10l-11 67l-41 39l-60 13l-39 -4l-32 -14l-27 -22l29 165h208l3 20h-227l-39 -221zM77 0l676 780h-26
l-676 -780h26zM238 742l-29 -222h-95l-52 -1zM212 390l14 110h72l3 20h-72l34 260h-19l-209 -265l-2 -15h173l-14 -110h20z" />
    <glyph glyph-name="uni2159" unicode="&#x2159;" horiz-adv-x="800" 
d="M634 226l48 -11l32 -34l7 -56l-1 -10l-17 -55l-37 -34l-53 -12h-6l-47 11l-32 34l-11 54l1 18l2 16l3 15l26 32l36 23l43 9h6zM760 395l-61 -7l-63 -23l-59 -47l-41 -58l-25 -61l-12 -59l-1 -10l8 -72l39 -46l65 -17l63 13l46 40l22 68l1 10l-10 68l-39 39l-62 12l-39 -6
l-35 -17l-26 -24l14 36l21 37l26 34l53 43l57 21l55 6zM77 0l676 780h-26l-676 -780h26zM273 390l3 20h-107l49 372h-15l-135 -83l10 -18l116 71l-45 -342h-108l-3 -20h235z" />
    <glyph glyph-name="uni215A" unicode="&#x215a;" horiz-adv-x="800" 
d="M634 226l48 -11l32 -34l7 -56l-1 -10l-17 -55l-37 -34l-53 -12h-6l-47 11l-32 34l-11 54l1 18l2 16l3 15l26 32l36 23l43 9h6zM760 395l-61 -7l-63 -23l-59 -47l-41 -58l-25 -61l-12 -59l-1 -10l8 -72l39 -46l65 -17l63 13l46 40l22 68l1 10l-10 68l-39 39l-62 12l-39 -6
l-35 -17l-26 -24l14 36l21 37l26 34l53 43l57 21l55 6zM77 0l676 780h-26l-676 -780h26zM71 555l27 34l36 20l41 7h6l47 -10l33 -33l8 -58l-1 -10l-20 -57l-38 -33l-50 -11h-6l-54 11l-32 35l-3 65h-20l-1 -10l7 -64l37 -41l69 -15l62 14l47 40l23 67l1 10l-11 67l-41 39
l-60 13l-39 -4l-32 -14l-27 -22l29 165h208l3 20h-227l-39 -221z" />
    <glyph glyph-name="uni215B" unicode="&#x215b;" horiz-adv-x="799" 
d="M652 376l50 -10l29 -28l7 -43l-1 -10l-18 -44l-37 -25l-48 -8h-12l-45 8l-30 25l-7 43l1 10l16 43l36 28l53 11h6zM634 188l46 -9l29 -26l7 -47l-1 -10l-19 -47l-38 -26l-49 -9h-6l-50 8l-33 26l-8 48l1 10l18 47l38 26l48 9h17zM606 -5l61 12l47 33l22 56l1 10l-5 44
l-21 32l-34 16l40 16l28 29l13 43l1 10l-10 54l-38 33l-62 12l-65 -12l-44 -35l-20 -53l-1 -10l5 -41l20 -29l33 -16l-40 -17l-30 -30l-15 -46l-1 -10l11 -58l42 -33zM77 0l676 780h-26l-676 -780h26zM273 390l3 20h-107l49 372h-15l-135 -83l10 -18l116 71l-45 -342h-108
l-3 -20h235z" />
    <glyph glyph-name="uni215C" unicode="&#x215c;" horiz-adv-x="799" 
d="M652 376l50 -10l29 -28l7 -43l-1 -10l-18 -44l-37 -25l-48 -8h-12l-45 8l-30 25l-7 43l1 10l16 43l36 28l53 11h6zM634 188l46 -9l29 -26l7 -47l-1 -10l-19 -47l-38 -26l-49 -9h-6l-50 8l-33 26l-8 48l1 10l18 47l38 26l48 9h17zM606 -5l61 12l47 33l22 56l1 10l-5 44
l-21 32l-34 16l40 16l28 29l13 43l1 10l-10 54l-38 33l-62 12l-65 -12l-44 -35l-20 -53l-1 -10l5 -41l20 -29l33 -16l-40 -17l-30 -30l-15 -46l-1 -10l11 -58l42 -33zM77 0l676 780h-26l-676 -780h26zM154 404l-54 11l-32 35l-3 65h-20l-1 -10l7 -64l37 -41l69 -15l61 12
l47 33l22 56l1 10l-5 44l-21 32l-34 16l40 17l28 30l13 41l1 10l-10 54l-38 33l-62 12l-70 -15l-44 -43l-19 -67l-1 -10h20l18 67l37 37l56 12h6l50 -10l29 -28l7 -43l-1 -10l-18 -43l-37 -26l-48 -8h-56l-3 -20h59l46 -9l29 -26l7 -47l-1 -10l-19 -47l-38 -26l-49 -9h-6z
" />
    <glyph glyph-name="uni215D" unicode="&#x215d;" horiz-adv-x="799" 
d="M652 376l50 -10l29 -28l7 -43l-1 -10l-18 -44l-37 -25l-48 -8h-12l-45 8l-30 25l-7 43l1 10l16 43l36 28l53 11h6zM634 188l46 -9l29 -26l7 -47l-1 -10l-19 -47l-38 -26l-49 -9h-6l-50 8l-33 26l-8 48l1 10l18 47l38 26l48 9h17zM606 -5l61 12l47 33l22 56l1 10l-5 44
l-21 32l-34 16l40 16l28 29l13 43l1 10l-10 54l-38 33l-62 12l-65 -12l-44 -35l-20 -53l-1 -10l5 -41l20 -29l33 -16l-40 -17l-30 -30l-15 -46l-1 -10l11 -58l42 -33zM77 0l676 780h-26l-676 -780h26zM71 555l27 34l36 20l41 7h6l47 -10l33 -33l8 -58l-1 -10l-20 -57
l-38 -33l-50 -11h-6l-54 11l-32 35l-3 65h-20l-1 -10l7 -64l37 -41l69 -15l62 14l47 40l23 67l1 10l-11 67l-41 39l-60 13l-39 -4l-32 -14l-27 -22l29 165h208l3 20h-227l-39 -221z" />
    <glyph glyph-name="uni215E" unicode="&#x215e;" horiz-adv-x="799" 
d="M652 376l50 -10l29 -28l7 -43l-1 -10l-18 -44l-37 -25l-48 -8h-12l-45 8l-30 25l-7 43l1 10l16 43l36 28l53 11h6zM634 188l46 -9l29 -26l7 -47l-1 -10l-19 -47l-38 -26l-49 -9h-6l-50 8l-33 26l-8 48l1 10l18 47l38 26l48 9h17zM606 -5l61 12l47 33l22 56l1 10l-5 44
l-21 32l-34 16l40 16l28 29l13 43l1 10l-10 54l-38 33l-62 12l-65 -12l-44 -35l-20 -53l-1 -10l5 -41l20 -29l33 -16l-40 -17l-30 -30l-15 -46l-1 -10l11 -58l42 -33zM77 0l676 780h-26l-676 -780h26zM67 640h19l16 120h197l-200 -370h22l202 375l2 15h-240z" />
    <glyph glyph-name="uni215F" unicode="&#x215f;" horiz-adv-x="500" 
d="M273 390l3 20h-107l49 372h-15l-135 -83l10 -18l116 71l-45 -342h-108l-3 -20h235zM77 0l676 780h-26l-676 -780h26z" />
    <glyph glyph-name="arrowleft" unicode="&#x2190;" horiz-adv-x="920" 
d="M454 780l-390 -390l390 -390h29l-380 380h747v20h-747l380 380h-29z" />
    <glyph glyph-name="arrowup" unicode="&#x2191;" horiz-adv-x="920" 
d="M850 396l-390 390l-390 -390v-29l380 380v-747h20v747l380 -380v29z" />
    <glyph glyph-name="arrowright" unicode="&#x2192;" horiz-adv-x="920" 
d="M466 0l390 390l-390 390h-29l380 -380h-747v-20h747l-380 -380h29z" />
    <glyph glyph-name="arrowdown" unicode="&#x2193;" horiz-adv-x="920" 
d="M70 384l390 -390l390 390v29l-380 -380v747h-20v-747l-380 380v-29z" />
    <glyph glyph-name="uni2196" unicode="&#x2196;" horiz-adv-x="920" 
d="M90 0v746l752 -752l14 14l-752 752h746v20h-780v-780h20z" />
    <glyph glyph-name="uni2197" unicode="&#x2197;" horiz-adv-x="920" 
d="M70 760h746l-752 -752l14 -14l752 752v-746h20v780h-780v-20z" />
    <glyph glyph-name="uni2198" unicode="&#x2198;" horiz-adv-x="920" 
d="M70 0h780v780h-20v-746l-752 752l-14 -14l752 -752h-746v-20z" />
    <glyph glyph-name="uni2199" unicode="&#x2199;" horiz-adv-x="920" 
d="M850 20h-746l752 752l-14 14l-752 -752v746h-20v-780h780v20z" />
    <glyph glyph-name="minus" unicode="&#x2212;" horiz-adv-x="600" 
d="M49 380h499l3 20h-499z" />
    <glyph glyph-name="approxequal" unicode="&#x2248;" horiz-adv-x="600" 
d="M410 254l-86 21l-71 40l-90 21l-63 -14l-46 -28l-25 -24l14 -14l25 24l41 24l54 12l86 -21l71 -40l90 -21l63 14l46 28l25 24l-14 14l-25 -24l-41 -24zM437 454l-86 21l-71 40l-90 21l-63 -14l-46 -28l-25 -24l14 -14l25 24l41 24l54 12l86 -21l71 -40l90 -21l63 14
l46 28l25 24l-14 14l-25 -24l-41 -24z" />
    <glyph glyph-name="notequal" unicode="&#x2260;" horiz-adv-x="600" 
d="M63 480h288l-127 -180h-184l-3 -20h173l-98 -140h26l98 140h300l3 20h-289l127 180h185l3 20h-174l99 140h-26l-99 -140h-299z" />
    <glyph glyph-name="equivalence" unicode="&#x2261;" horiz-adv-x="600" 
d="M24 180h499l3 20h-499zM50 380h499l3 20h-499zM76 580h499l3 20h-499z" />
    <glyph glyph-name="lessequal" unicode="&#x2264;" horiz-adv-x="600" 
d="M520 155l-475 189l-3 -21l475 -189zM88 446l494 177l3 23l-526 -190l-2 -18l475 -190l3 21z" />
    <glyph glyph-name="greaterequal" unicode="&#x2265;" horiz-adv-x="600" 
d="M20 157l-3 -23l526 190l3 23zM529 448l-494 -177l-3 -23l526 190l2 18l-475 190l-3 -21z" />
    <glyph glyph-name="squaremultiply" unicode="&#x22a0;" horiz-adv-x="920" 
d="M205 630l240 -240l-240 -240l15 -15l240 240l240 -240l15 15l-240 240l240 240l-15 15l-240 -240l-240 240zM830 760v-740h-740v740h740zM850 0v780h-780v-780h780z" />
    <glyph glyph-name="house" unicode="&#x2302;" horiz-adv-x="850" 
d="M780 0v450l-355 340l-355 -340v-450h710z" />
    <glyph glyph-name="whitesquare" unicode="&#x25a1;" horiz-adv-x="920" 
d="M830 760v-740h-740v740h740zM850 0v780h-780v-780h780z" />
    <glyph glyph-name="blacksmallsquare" unicode="&#x25aa;" horiz-adv-x="680" 
d="M600 0v530h-530v-530h530z" />
    <glyph glyph-name="whitesmallsquare" unicode="&#x25ab;" horiz-adv-x="680" 
d="M580 510v-490h-490v490h490zM600 0v530h-530v-530h530z" />
    <glyph glyph-name="triagup" unicode="&#x25b2;" horiz-adv-x="930" 
d="M475 786h-20l-386 -786h22l374 763l374 -763h22z" />
    <glyph glyph-name="triagrt" unicode="&#x25ba;" horiz-adv-x="930" 
d="M866 400l-786 386v-22l763 -374l-763 -374v-22l786 386v20z" />
    <glyph glyph-name="triagdn" unicode="&#x25bc;" horiz-adv-x="930" 
d="M455 -6h20l386 786h-22l-374 -763l-374 763h-22z" />
    <glyph glyph-name="triaglf" unicode="&#x25c4;" horiz-adv-x="930" 
d="M64 400v-20l786 -386v22l-763 374l763 374v22z" />
    <glyph glyph-name="blackcircle" unicode="&#x25cf;" horiz-adv-x="920" 
d="M64 390l54 -200l142 -142l200 -54l200 54l142 142l54 200l-54 200l-142 142l-200 54l-200 -54l-142 -142z" />
    <glyph glyph-name="uni25E2" unicode="&#x25e2;" horiz-adv-x="930" 
d="M857 7l-285 831l-15 -15l278 -808l-808 278l-15 -15l831 -285z" />
    <glyph glyph-name="uni25E3" unicode="&#x25e3;" horiz-adv-x="930" 
d="M87 -7l831 285l-15 15l-808 -278l278 808l-15 15l-285 -831z" />
    <glyph glyph-name="uni25E4" unicode="&#x25e4;" horiz-adv-x="930" 
d="M73 773l285 -831l15 15l-278 808l808 -278l15 15l-831 285z" />
    <glyph glyph-name="uni25E5" unicode="&#x25e5;" horiz-adv-x="930" 
d="M857 773l-14 14l-831 -285l15 -15l808 278l-278 -808l15 -15z" />
    <glyph glyph-name="whitecircle" unicode="&#x25ef;" horiz-adv-x="920" 
d="M84 390l51 190l135 135l190 51l190 -51l135 -135l51 -190l-51 -190l-135 -135l-190 -51l-190 51l-135 135zM64 390l54 -200l142 -142l200 -54l200 54l142 142l54 200l-54 200l-142 142l-200 54l-200 -54l-142 -142z" />
    <glyph glyph-name="uni2605" unicode="&#x2605;" horiz-adv-x="880" 
d="M440 180l260 -190l-99 307l260 189h-322l-99 306l-99 -306h-322l260 -189l-99 -307z" />
    <glyph glyph-name="ballotboxwithx" unicode="&#x2612;" horiz-adv-x="680" 
d="M180 405l140 -140l-140 -140l15 -15l140 140l140 -140l15 15l-140 140l140 140l-15 15l-140 -140l-140 140zM580 510v-490h-490v490h490zM600 0v530h-530v-530h530z" />
    <glyph glyph-name="uni263C" unicode="&#x263c;" horiz-adv-x="960" 
d="M521 191l13 -16l16 -36l9 -44l9 -36l25 -25l35 -10l10 1l9 3l9 4l-12 3l-24 17l-12 39l2 20l4 22l2 20l-6 34l-12 22l-8 10l172 -113l-113 172l29 -4l34 -13l32 -24l15 -12l17 -7l19 -2l26 5l22 15l14 26l-4 -3l-13 -6l-18 -3l-32 11l-22 25l-24 32l-28 20l-25 8l-13 1
l202 42l-202 42l16 13l36 16l44 9l36 9l25 25l10 35l-1 10l-3 9l-4 9l-3 -12l-17 -24l-39 -12l-20 2l-22 4l-20 2l-34 -6l-22 -12l-10 -8l113 172l-172 -113l4 29l13 34l24 32l12 15l7 17l2 19l-5 26l-15 22l-26 14l3 -4l6 -13l3 -18l-11 -32l-25 -22l-32 -24l-20 -28
l-8 -25l-1 -13l-42 202l-42 -202l-13 16l-16 36l-9 44l-9 36l-25 25l-35 10l-10 -1l-9 -3l-9 -4l12 -3l24 -17l12 -39l-2 -20l-4 -22l-2 -20l6 -34l12 -22l8 -10l-172 113l113 -172l-29 4l-34 13l-32 24l-15 12l-17 7l-19 2l-26 -5l-22 -15l-14 -26l4 3l13 6l18 3l32 -11
l22 -25l24 -32l28 -20l25 -8l13 -1l-202 -42l202 -42l-16 -13l-36 -16l-44 -9l-36 -9l-25 -25l-10 -35l1 -10l3 -9l4 -9l3 12l17 24l39 12l20 -2l22 -4l20 -2l34 6l22 12l10 8l-113 -172l172 113l-4 -29l-13 -34l-24 -32l-12 -15l-7 -17l-2 -19l5 -26l15 -22l26 -14l-3 4
l-6 13l-3 18l11 32l25 22l32 24l20 28l8 25l1 13l42 -202z" />
    <glyph glyph-name="uni263E" unicode="&#x263e;" horiz-adv-x="960" 
d="M624 728l33 -2l32 -5l31 -8l-73 41l-81 27l-86 9l-202 -55l-143 -143l-55 -202l55 -202l143 -143l202 -55l86 9l81 26l73 42l-31 -8l-32 -5l-33 -2l-164 46l-116 121l-44 171l44 171l116 121z" />
    <glyph glyph-name="spade" unicode="&#x2660;" horiz-adv-x="900" 
d="M451 790h-2l-52 -67l-81 -84l-100 -79l-81 -61l-60 -73l-23 -92l24 -89l63 -62l89 -23l88 23l67 59l45 79l3 -1l-15 -121l-26 -102l-41 -97h202l-41 97l-26 102l-15 121l3 1l45 -79l67 -59l88 -23l89 23l63 62l24 89l-23 92l-60 73l-81 61l-100 79l-81 84z" />
    <glyph glyph-name="club" unicode="&#x2663;" horiz-adv-x="900" 
d="M349 0h202l-41 97l-26 102l-15 121l3 1l45 -79l67 -59l88 -23l89 23l63 62l24 89l-22 93l-61 63l-91 24l-32 -3l-28 -9l-24 -11l-2 2l20 35l13 39l5 43l-23 91l-62 64l-91 25l-91 -25l-62 -64l-23 -91l5 -43l13 -39l20 -35l-2 -2l-24 11l-28 9l-32 3l-91 -24l-61 -63
l-22 -93l24 -89l63 -62l89 -23l88 23l67 59l45 79l3 -1l-15 -121l-26 -102z" />
    <glyph glyph-name="heart" unicode="&#x2665;" horiz-adv-x="900" 
d="M451 -10l52 72l81 103l100 118l73 90l64 104l27 107l-23 106l-66 73l-102 27l-102 -22l-65 -57l-38 -78h-4l-38 78l-65 57l-102 22l-102 -27l-66 -73l-23 -106l27 -107l64 -104l73 -90l100 -118l81 -103l52 -72h2z" />
    <glyph glyph-name="diamond" unicode="&#x2666;" horiz-adv-x="900" 
d="M817 390l-138 122l-125 136l-103 142h-2l-103 -142l-125 -136l-138 -122l138 -122l125 -136l103 -142h2l103 142l125 136z" />
    <glyph glyph-name="uni267B" unicode="&#x267b;" horiz-adv-x="959" 
d="M806 527l-149 -86l116 -201l48 17l45 46l19 63l-1 17l-4 16l-5 11zM446 41v173h-232l-10 -50l17 -61l46 -49l16 -7l15 -5l13 -1h135zM200 598l150 -86l116 201l-39 34l-62 16l-64 -15l-15 -10l-12 -11l-7 -10zM404 779l17 -3l37 -16l37 -38l72 -125l-41 -24l173 -31
l61 166l-43 -24l-28 49l-27 32l-30 12l-35 3h-193v-1zM186 122l-6 17l-4 40l14 51l20 35l34 59l18 31l41 -24l-59 166l-174 -31l42 -24l-28 -49l-15 -40l4 -32l15 -31l96 -168h2zM863 266l-12 -13l-32 -26l-51 -13h-145v49l-113 -135l113 -136v49h57l42 8l26 20l20 28
l96 167z" />
    <glyph glyph-name="uni267C" unicode="&#x267c;" horiz-adv-x="960" 
d="M64 390l54 -200l142 -142l200 -54l200 54l142 142l54 200l-54 200l-142 142l-200 54l-200 -54l-142 -142zM755 294l-75 -130l-15 -22l-20 -15l-33 -6h-44v-38l-88 105l88 105v-38h112l40 10l25 20l9 10zM763 407l4 -9l3 -12l1 -13l-15 -49l-35 -36l-37 -13l-90 156
l116 67zM228 184l-75 130l-11 24l-3 25l11 31l22 38l-33 19l135 24l46 -129l-32 19l-56 -97l-11 -40l4 -31l4 -13h-1zM322 121l-10 1l-12 3l-12 6l-35 38l-13 47l7 39h180v-134h-105zM394 694h150l27 -2l23 -10l21 -25l22 -38l33 19l-47 -129l-134 24l32 19l-56 97l-29 29
l-29 12l-13 3v1zM292 645l6 8l9 8l11 8l50 11l48 -12l30 -26l-90 -156l-116 67z" />
    <glyph glyph-name="uni267D" unicode="&#x267d;" horiz-adv-x="960" 
d="M84 390l51 190l135 135l190 51l190 -51l135 -135l51 -190l-51 -190l-135 -135l-190 -51l-190 51l-135 135zM64 390l54 -200l142 -142l200 -54l200 54l142 142l54 200l-54 200l-142 142l-200 54l-200 -54l-142 -142zM754 295l-9 -10l-25 -20l-40 -10h-112v38l-88 -105
l88 -105v38h44l33 6l20 15l15 22l75 130zM710 498l-116 -67l90 -156l37 13l35 36l15 49l-1 13l-3 12l-4 9zM229 184l-4 13l-4 31l11 40l56 97l32 -19l-46 129l-135 -24l33 -19l-22 -38l-11 -31l3 -25l11 -24l75 -130h1zM427 121v134h-180l-7 -39l13 -47l35 -38l12 -6l12 -3
l10 -1h105zM394 693l13 -3l29 -12l29 -29l56 -97l-32 -19l134 -24l47 129l-33 -19l-22 38l-21 25l-23 10l-27 2h-150v-1zM240 553l116 -67l90 156l-30 26l-48 12l-50 -11l-11 -8l-9 -8l-6 -8z" />
    <glyph glyph-name="mediumwhitecircle" unicode="&#x26aa;" horiz-adv-x="670" 
d="M84 265l34 127l90 90l127 34l127 -34l90 -90l34 -127l-34 -127l-90 -90l-127 -34l-127 34l-90 90zM64 265l37 -137l97 -97l137 -37l137 37l97 97l37 137l-37 137l-97 97l-137 37l-137 -37l-97 -97z" />
    <glyph glyph-name="mediumblackcircle" unicode="&#x26ab;" horiz-adv-x="670" 
d="M64 265l37 -137l97 -97l137 -37l137 37l97 97l37 137l-37 137l-97 97l-137 37l-137 -37l-97 -97z" />
    <glyph glyph-name="anglebracketleft" unicode="&#x3008;" 
d="M310 840h-22l-225 -480l99 -480h20l-98 478z" />
    <glyph glyph-name="anglebracketright" unicode="&#x3009;" 
d="M-14 -120h22l225 480l-99 480h-20l98 -478z" />
    <glyph glyph-name="fi" unicode="&#xe38c;" horiz-adv-x="520" 
d="M495 720h-40l-5 -40h40zM371 0h20l69 530h-20zM174 672l23 71l43 34l58 9l29 -3l23 -5l12 -5l3 20l-11 4l-24 6l-32 3l-63 -9l-51 -36l-28 -76l-21 -155h-85l-3 -20h86l-67 -510h20l67 510h164l3 20h-165z" />
    <glyph glyph-name="fl" unicode="&#xe38d;" horiz-adv-x="520" 
d="M371 0h20l105 800h-20zM174 672l23 71l43 34l58 9l29 -3l23 -5l12 -5l3 20l-11 4l-24 6l-32 3l-63 -9l-51 -36l-28 -76l-21 -155h-85l-3 -20h86l-67 -510h20l67 510h164l3 20h-165z" />
    <glyph glyph-name="invertedbreve" unicode="&#xe411;" horiz-adv-x="497" 
d="M303 786l-87 -23l-57 -60l-27 -83h19l23 74l50 53l79 21l72 -21l36 -53l4 -74h17l-5 83l-43 60z" />
    <glyph glyph-name="doublegrave" unicode="&#xe412;" horiz-adv-x="500" 
d="M252 780l69 -160h22l-69 160h-22zM152 780l69 -160h22l-69 160h-22z" />
    <glyph glyph-name="caronSlovak" unicode="&#xe413;" horiz-adv-x="500" 
d="M393 780l-21 -160h10l31 160h-20z" />
    <glyph glyph-name="dotbelow" unicode="&#xe415;" horiz-adv-x="602" 
d="M161 -150h40l5 40h-40z" />
    <glyph glyph-name="altcedilla" unicode="&#xe416;" horiz-adv-x="602" 
d="M196 -64l-25 -2l-22 -3l-18 -6v-17l18 5l20 4l20 1l33 -3l25 -12l10 -29l-12 -39l-29 -18l-37 -5l-26 2l-27 7l-20 9l-8 -16l24 -11l28 -6l29 -3l46 7l36 26l14 47l-12 37l-30 20z" />
    <glyph glyph-name="grave.cap" unicode="&#xe421;" horiz-adv-x="500" 
d="M253 950l47 -110h22l-47 110h-22z" />
    <glyph glyph-name="acute.cap" unicode="&#xe422;" horiz-adv-x="500" 
d="M377 950l-77 -110h22l77 110h-22z" />
    <glyph glyph-name="circumflex.cap" unicode="&#xe423;" horiz-adv-x="500" 
d="M226 840l99 95l73 -95h23l-85 110h-20l-115 -110h25z" />
    <glyph glyph-name="tilde.cap" unicode="&#xe424;" horiz-adv-x="500" 
d="M440 927l-12 -33l-19 -16l-23 -3l-44 15l-43 28l-48 15l-30 -6l-27 -21l-15 -43h18l12 33l19 16l23 3l44 -15l43 -28l48 -15l30 6l27 21l15 43h-18z" />
    <glyph glyph-name="macron.cap" unicode="&#xe425;" horiz-adv-x="500" 
d="M217 885h200l3 20h-200z" />
    <glyph glyph-name="breve.cap" unicode="&#xe426;" horiz-adv-x="500" 
d="M310 852l-59 12l-32 34l-6 52h-17l7 -61l39 -40l69 -15l72 15l49 40l24 61h-19l-21 -52l-43 -34z" />
    <glyph glyph-name="invertedbreve.cap" unicode="&#xe427;" horiz-adv-x="498" 
d="M327 938l59 -12l32 -34l6 -52h17l-7 61l-39 40l-69 15l-72 -15l-49 -40l-24 -61h19l21 52l43 34z" />
    <glyph glyph-name="dotaccent.cap" unicode="&#xe428;" horiz-adv-x="500" 
d="M341 915h-40l-5 -40h40z" />
    <glyph glyph-name="dieresis.cap" unicode="&#xe429;" horiz-adv-x="500" 
d="M411 915h-40l-5 -40h40zM271 915h-40l-5 -40h40z" />
    <glyph glyph-name="ring.cap" unicode="&#xe42a;" horiz-adv-x="500" 
d="M323 956l-47 -13l-34 -34l-14 -47l10 -42l27 -26l43 -10l47 13l34 34l14 47l-10 42l-27 26zM323 938l32 -7l21 -20l8 -33l-10 -40l-27 -26l-39 -10l-32 7l-21 20l-8 33l10 40l27 26z" />
    <glyph glyph-name="hungarumlaut.cap" unicode="&#xe42b;" horiz-adv-x="500" 
d="M327 950l-77 -110h22l77 110h-22zM427 950l-77 -110h22l77 110h-22z" />
    <glyph glyph-name="doublegrave.cap" unicode="&#xe42c;" horiz-adv-x="500" 
d="M303 950l47 -110h22l-47 110h-22zM203 950l47 -110h22l-47 110h-22z" />
    <glyph glyph-name="caron.cap" unicode="&#xe42d;" horiz-adv-x="500" 
d="M411 950l-99 -95l-73 95h-23l85 -110h20l115 110h-25z" />
    <glyph glyph-name="commaaccent.cap" unicode="&#xe42e;" horiz-adv-x="500" 
d="M291 840h40l5 40h-20l10 31l20 18l30 7l2 20l-42 -9l-27 -28l-14 -47z" />
    <glyph glyph-name="exclamdown.cap" unicode="&#xe441;" horiz-adv-x="180" 
d="M118 740h40l5 40h-40zM51 0l76 605h-14l-82 -605h20z" />
    <glyph glyph-name="questiondown.cap" unicode="&#xe444;" horiz-adv-x="440" 
d="M248 740h40l5 40h-40zM174 -6l109 34l72 92l37 136l3 24h-20l-35 -143l-66 -91l-100 -32l-83 22l-45 55l-13 74l53 151l103 123l68 166h-14l-72 -160l-105 -124l-54 -155l16 -86l52 -62z" />
    <glyph glyph-name="guilsinglleft.cap" unicode="&#xe451;" 
d="M274 556l-220 -156l-3 -20l179 -156l4 23l-164 141l201 141z" />
    <glyph glyph-name="guilsinglright.cap" unicode="&#xe452;" 
d="M31 224l220 156l3 20l-179 156l-4 -23l164 -141l-201 -141z" />
    <glyph glyph-name="guillemotleft.cap" unicode="&#xe453;" horiz-adv-x="500" 
d="M474 556l-220 -156l-3 -20l179 -156l4 23l-164 141l201 141zM274 556l-220 -156l-3 -20l179 -156l4 23l-164 141l201 141z" />
    <glyph glyph-name="guillemotright.cap" unicode="&#xe454;" horiz-adv-x="500" 
d="M31 224l220 156l3 20l-179 156l-4 -23l164 -141l-201 -141zM231 224l220 156l3 20l-179 156l-4 -23l164 -141l-201 -141z" />
    <glyph glyph-name="slash.cap" unicode="&#xe461;" 
d="M15 0l294 780h-20l-294 -780h20z" />
    <glyph glyph-name="backslash.cap" unicode="&#xe462;" 
d="M97 780l90 -780h20l-90 780h-20z" />
    <glyph glyph-name="bar.cap" unicode="&#xe463;" horiz-adv-x="180" 
d="M31 0h20l102 780h-20z" />
    <glyph glyph-name="doublebar.cap" unicode="&#xe464;" horiz-adv-x="280" 
d="M131 0h20l102 780h-20zM31 0h20l102 780h-20z" />
    <glyph glyph-name="brokenbar.cap" unicode="&#xe465;" horiz-adv-x="180" 
d="M31 0h20l46 350h-20zM87 430h20l46 350h-20z" />
    <glyph glyph-name="bullet.cap" unicode="&#xe466;" horiz-adv-x="380" 
d="M328 510h-240l-32 -240h240z" />
    <glyph glyph-name="onethirdemdash" unicode="&#xe471;" horiz-adv-x="333" 
d="M44 330h233l3 20h-233z" />
    <glyph glyph-name="threequarteremdash" unicode="&#xe472;" horiz-adv-x="750" 
d="M44 330h650l3 20h-650z" />
    <glyph glyph-name="periodcentered.cap" unicode="&#xe481;" horiz-adv-x="180" 
d="M115 410h-40l-5 -40h40z" />
    <glyph glyph-name="hyphen.cap" unicode="&#xe482;" horiz-adv-x="320" 
d="M51 380h220l3 20h-220z" />
    <glyph glyph-name="onethirdemdash.cap" unicode="&#xe483;" horiz-adv-x="333" 
d="M51 380h233l3 20h-233z" />
    <glyph glyph-name="endash.cap" unicode="&#xe484;" horiz-adv-x="500" 
d="M51 380h400l3 20h-400z" />
    <glyph glyph-name="threequarteremdash.cap" unicode="&#xe485;" horiz-adv-x="750" 
d="M51 380h650l3 20h-650z" />
    <glyph glyph-name="emdash.cap" unicode="&#xe486;" horiz-adv-x="1000" 
d="M51 380h900l3 20h-900z" />
    <glyph glyph-name="figuredash.cap" unicode="&#xe487;" horiz-adv-x="600" 
d="M51 380h500l3 20h-500z" />
    <glyph glyph-name="uni2015.cap" unicode="&#xe488;" horiz-adv-x="1200" 
d="M51 380h1100l3 20h-1100z" />
    <glyph glyph-name="parenleft.cap" unicode="&#xe491;" 
d="M76 378l-1 -140l27 -127l49 -111h22l-49 114l-29 127l1 137l3 24l35 137l62 127l79 114h-23l-78 -111l-61 -127l-34 -140z" />
    <glyph glyph-name="parenright.cap" unicode="&#xe492;" horiz-adv-x="296" 
d="M228 402l1 140l-27 127l-49 111h-22l49 -114l29 -127l-1 -137l-3 -24l-35 -137l-62 -127l-79 -114h23l78 111l61 127l34 140z" />
    <glyph glyph-name="bracketleft.cap" unicode="&#xe493;" 
d="M133 780l-102 -780h170l3 20h-150l97 740h149l3 20h-170z" />
    <glyph glyph-name="bracketright.cap" unicode="&#xe494;" 
d="M171 0l102 780h-170l-3 -20h150l-97 -740h-149l-3 -20h170z" />
    <glyph glyph-name="braceleft.cap" unicode="&#xe495;" 
d="M303 780h-4l-61 -8l-49 -37l-27 -80l-21 -161l-19 -60l-36 -27l-48 -7l-3 -20l46 -6l29 -27l4 -59l-21 -161l6 -80l39 -37l59 -10h4l3 20l-54 8l-33 32l-4 70l20 157l-1 53l-16 33l-29 17l33 16l25 33l15 54l21 157l23 72l40 31l56 7z" />
    <glyph glyph-name="braceright.cap" unicode="&#xe496;" 
d="M1 0h4l61 8l49 37l27 80l21 161l19 60l36 27l48 7l3 20l-46 6l-29 27l-4 59l21 161l-6 80l-39 37l-59 10h-4l-3 -20l54 -8l33 -32l4 -70l-20 -157l1 -53l16 -33l29 -17l-33 -16l-25 -33l-15 -54l-21 -157l-23 -72l-40 -31l-56 -7z" />
    <glyph glyph-name="anglebracketleft.cap" unicode="&#xe497;" 
d="M168 0l-80 388l184 392h-22l-183 -390l81 -390h20z" />
    <glyph glyph-name="anglebracketright.cap" unicode="&#xe498;" 
d="M134 780l80 -388l-184 -392h22l183 390l-81 390h-20z" />
    <glyph glyph-name="lowline" unicode="&#xe511;" horiz-adv-x="320" 
d="M1 0h220l3 20h-220z" />
    <glyph glyph-name="underscoremonospace" unicode="&#xe512;" horiz-adv-x="600" 
d="M-14 -110h500l3 20h-500z" />
    <glyph glyph-name="at.cap" unicode="&#xe513;" horiz-adv-x="926" 
d="M632 523l-34 -252l-43 -48l-56 -35l-72 -14l-89 21l-59 68l-11 120l3 24l41 120l75 68l90 21l74 -15l51 -36zM431 -86l-215 57l-134 160l-27 247l3 24l83 247l165 160l224 57h6l191 -43l131 -128l31 -213l-3 -24l-54 -173l-96 -83l-125 -22l9 100l30 228l21 122h-15
l-18 -83l-32 42l-53 33l-76 14l-100 -23l-82 -75l-44 -131l-3 -24l13 -131l65 -75l101 -23l76 15l59 34l36 41l-4 -84h5l142 24l107 90l58 184l3 24l-32 220l-137 137l-207 47l-233 -58l-173 -165l-89 -261l-3 -24l29 -254l141 -169l229 -61l116 8l115 31l119 64l-10 16
l-112 -60l-110 -30l-115 -9h-6z" />
    <glyph glyph-name="zero.inf" unicode="&#xe571;" horiz-adv-x="298" 
d="M185 -86l-16 -55l-34 -34l-55 -11h-6l-52 12l-25 35l-2 54l21 161l16 55l34 34l55 11h6l52 -12l25 -35l2 -54zM228 83l-5 59l-34 39l-65 14l-67 -13l-42 -39l-19 -60l-23 -176l5 -59l34 -39l65 -14l67 13l42 39l19 60z" />
    <glyph glyph-name="one.inf" unicode="&#xe572;" 
d="M196 -200l3 20h-107l49 372h-15l-135 -83l10 -18l116 71l-45 -342h-108l-3 -20h235z" />
    <glyph glyph-name="two.inf" unicode="&#xe573;" horiz-adv-x="299" 
d="M29 -180l-41 -1l185 168l30 31l20 30l9 33l1 10l-9 56l-37 35l-63 13l-69 -14l-44 -42l-20 -64l-2 -15h20l19 68l36 37l57 11h6l51 -11l28 -30l6 -45l-1 -10l-7 -26l-18 -27l-30 -31l-199 -181l-2 -15h235l3 20h-164z" />
    <glyph glyph-name="three.inf" unicode="&#xe574;" horiz-adv-x="299" 
d="M77 -186l-54 11l-32 35l-3 65h-20l-1 -10l7 -64l37 -41l69 -15l61 12l47 33l22 56l1 10l-5 44l-21 32l-34 16l40 17l28 30l13 41l1 10l-10 54l-38 33l-62 12l-70 -15l-44 -43l-19 -67l-1 -10h20l18 67l37 37l56 12h6l50 -10l29 -28l7 -43l-1 -10l-18 -43l-37 -26l-48 -8
h-56l-3 -20h59l46 -9l29 -26l7 -47l-1 -10l-19 -47l-38 -26l-49 -9h-6z" />
    <glyph glyph-name="four.inf" unicode="&#xe575;" 
d="M161 152l-29 -222h-95l-52 -1zM135 -200l14 110h72l3 20h-72l34 260h-19l-209 -265l-2 -15h173l-14 -110h20z" />
    <glyph glyph-name="five.inf" unicode="&#xe576;" 
d="M-6 -35l27 34l36 20l41 7h6l47 -10l33 -33l8 -58l-1 -10l-20 -57l-38 -33l-50 -11h-6l-54 11l-32 35l-3 65h-20l-1 -10l7 -64l37 -41l69 -15l62 14l47 40l23 67l1 10l-11 67l-41 39l-60 13l-39 -4l-32 -14l-27 -22l29 165h208l3 20h-227l-39 -221z" />
    <glyph glyph-name="six.inf" unicode="&#xe577;" 
d="M108 26l48 -11l32 -34l7 -56l-1 -10l-17 -55l-37 -34l-53 -12h-6l-47 11l-32 34l-11 54l1 18l2 16l3 15l26 32l36 23l43 9h6zM234 195l-61 -7l-63 -23l-59 -47l-41 -58l-25 -61l-12 -59l-1 -10l8 -72l39 -46l65 -17l63 13l46 40l22 68l1 10l-10 68l-39 39l-62 12l-39 -6
l-35 -17l-26 -24l14 36l21 37l26 34l53 43l57 21l55 6z" />
    <glyph glyph-name="seven.inf" unicode="&#xe578;" 
d="M-10 50h19l16 120h197l-200 -370h22l202 375l2 15h-240z" />
    <glyph glyph-name="eight.inf" unicode="&#xe579;" horiz-adv-x="299" 
d="M126 176l50 -10l29 -28l7 -43l-1 -10l-18 -44l-37 -25l-48 -8h-12l-45 8l-30 25l-7 43l1 10l16 43l36 28l53 11h6zM108 -12l46 -9l29 -26l7 -47l-1 -10l-19 -47l-38 -26l-49 -9h-6l-50 8l-33 26l-8 48l1 10l18 47l38 26l48 9h17zM80 -205l61 12l47 33l22 56l1 10l-5 44
l-21 32l-34 16l40 16l28 29l13 43l1 10l-10 54l-38 33l-62 12l-65 -12l-44 -35l-20 -53l-1 -10l5 -41l20 -29l33 -16l-40 -17l-30 -30l-15 -46l-1 -10l11 -58l42 -33z" />
    <glyph glyph-name="nine.inf" unicode="&#xe57a;" horiz-adv-x="299" 
d="M92 -36l-48 11l-32 34l-7 56l1 10l17 55l37 34l53 12h6l47 -11l32 -34l11 -54l-1 -18l-2 -16l-3 -15l-26 -32l-36 -23l-43 -9h-6zM-36 -205l61 7l64 23l60 47l41 58l25 61l12 59l1 10l-8 72l-39 46l-65 17l-63 -13l-46 -40l-22 -68l-1 -10l10 -68l39 -39l62 -12l39 6
l35 17l26 24l-14 -36l-21 -37l-26 -34l-54 -43l-57 -21l-56 -6z" />
    <glyph glyph-name="plus.inf" unicode="&#xe57b;" 
d="M107 120l-15 -115h-115l-3 -20h115l-15 -115h20l15 115h115l3 20h-115l15 115h-20z" />
    <glyph glyph-name="minus.inf" unicode="&#xe57c;" 
d="M-26 -15h250l3 20h-250z" />
    <glyph glyph-name="equal.inf" unicode="&#xe57d;" 
d="M-33 -65h250l3 20h-250zM-19 35h250l3 20h-250z" />
    <glyph glyph-name="parenleft.inf" unicode="&#xe57e;" horiz-adv-x="150" 
d="M-18 -7l-1 -72l14 -65l24 -56h22l-26 57l-14 66l1 70l1 8l16 69l31 64l42 56h-23l-41 -55l-28 -62l-17 -72z" />
    <glyph glyph-name="parenright.inf" unicode="&#xe57f;" horiz-adv-x="148" 
d="M68 -3l1 72l-14 65l-24 56h-22l26 -57l14 -66l-1 -70l-1 -8l-16 -69l-31 -64l-42 -56h23l41 55l28 62l17 72z" />
    <glyph glyph-name="Anocross" unicode="&#xe731;" horiz-adv-x="590" 
d="M340 790l-354 -790h22l339 760l139 -760h20l-146 790h-20z" />
    <glyph glyph-name="blacksquare" unicode="&#xe740;" horiz-adv-x="920" 
d="M850 0v780h-780v-780h780z" />
    <glyph glyph-name="idotaccent" unicode="&#xe785;" horiz-adv-x="180" 
d="M155 720h-40l-5 -40h40zM31 0h20l69 530h-20z" />
    <glyph glyph-name="interrobangdown" unicode="&#xe935;" horiz-adv-x="440" 
d="M215 490h40l5 40h-40zM0 -45l38 119l82 86l77 105l-61 -451l-80 21l-43 51zM141 -206l110 30l74 84l37 128l3 24h-20l-32 -127l-63 -84l-94 -34l68 540h-14l-72 -151l-105 -105l-54 -143l16 -81l52 -59z" />
    <glyph glyph-name="interrobangdown.cap" unicode="&#xe99b;" horiz-adv-x="440" 
d="M248 740h40l5 40h-40zM33 165l38 131l83 103l77 118l-68 -503l-77 24l-41 55zM174 -6l109 34l72 92l37 136l3 24h-20l-34 -140l-63 -91l-95 -35l74 591h-14l-72 -160l-105 -124l-54 -155l16 -86l52 -62z" />
    <glyph glyph-name="registered.cap" unicode="&#xe99c;" horiz-adv-x="900" 
d="M327 375v230h138l50 -8l44 -33l19 -69v-10l-19 -69l-44 -33l-50 -8h-138zM327 355h136h11l11 1l12 1l79 -202h22l-81 207l41 22l29 39l11 60v14l-21 78l-51 39l-63 11h-156v-470h20v200zM74 390l51 190l135 135l190 51l190 -51l135 -135l51 -190l-51 -190l-135 -135
l-190 -51l-190 51l-135 135zM54 390l54 -200l142 -142l200 -54l200 54l142 142l54 200l-54 200l-142 142l-200 54l-200 -54l-142 -142z" />
    <glyph glyph-name="period.T" unicode="&#xf182;" 
d="M126 40h-40l-5 -40h40z" />
    <glyph glyph-name="comma.T" unicode="&#xf183;" 
d="M126 40h-40l-5 -40h20l-16 -51l-27 -27l-34 -7l-2 -20l46 12l35 38l19 63z" />
    <glyph glyph-name="colon.T" unicode="&#xf184;" 
d="M174 410h-40l-5 -40h40zM126 40h-40l-5 -40h40z" />
    <glyph glyph-name="semicolon.T" unicode="&#xf185;" 
d="M126 40h-40l-5 -40h20l-16 -51l-27 -27l-34 -7l-2 -20l46 12l35 38l19 63zM174 410h-40l-5 -40h40z" />
    <glyph glyph-name="onesixteenth" unicode="&#xf215;" horiz-adv-x="1100" 
d="M934 226l48 -11l32 -34l7 -56l-1 -10l-17 -55l-37 -34l-53 -12h-6l-47 11l-32 34l-11 54l1 18l2 16l3 15l26 32l36 23l43 9h6zM1060 395l-61 -7l-63 -23l-59 -47l-41 -58l-25 -61l-12 -59l-1 -10l8 -72l39 -46l65 -17l63 13l46 40l22 68l1 10l-10 68l-39 39l-62 12
l-39 -6l-35 -17l-26 -24l14 36l21 37l26 34l53 43l57 21l55 6zM722 0l3 20h-107l49 372h-15l-135 -83l10 -18l116 71l-45 -342h-108l-3 -20h235zM77 0l676 780h-26l-676 -780h26zM273 390l3 20h-107l49 372h-15l-135 -83l10 -18l116 71l-45 -342h-108l-3 -20h235z" />
    <glyph glyph-name="threesixteenths" unicode="&#xf216;" horiz-adv-x="1100" 
d="M934 226l48 -11l32 -34l7 -56l-1 -10l-17 -55l-37 -34l-53 -12h-6l-47 11l-32 34l-11 54l1 18l2 16l3 15l26 32l36 23l43 9h6zM1060 395l-61 -7l-63 -23l-59 -47l-41 -58l-25 -61l-12 -59l-1 -10l8 -72l39 -46l65 -17l63 13l46 40l22 68l1 10l-10 68l-39 39l-62 12
l-39 -6l-35 -17l-26 -24l14 36l21 37l26 34l53 43l57 21l55 6zM722 0l3 20h-107l49 372h-15l-135 -83l10 -18l116 71l-45 -342h-108l-3 -20h235zM77 0l676 780h-26l-676 -780h26zM154 404l-54 11l-32 35l-3 65h-20l-1 -10l7 -64l37 -41l69 -15l61 12l47 33l22 56l1 10l-5 44
l-21 32l-34 16l40 17l28 30l13 41l1 10l-10 54l-38 33l-62 12l-70 -15l-44 -43l-19 -67l-1 -10h20l18 67l37 37l56 12h6l50 -10l29 -28l7 -43l-1 -10l-18 -43l-37 -26l-48 -8h-56l-3 -20h59l46 -9l29 -26l7 -47l-1 -10l-19 -47l-38 -26l-49 -9h-6z" />
    <glyph glyph-name="fivesixteenths" unicode="&#xf217;" horiz-adv-x="1100" 
d="M934 226l48 -11l32 -34l7 -56l-1 -10l-17 -55l-37 -34l-53 -12h-6l-47 11l-32 34l-11 54l1 18l2 16l3 15l26 32l36 23l43 9h6zM1060 395l-61 -7l-63 -23l-59 -47l-41 -58l-25 -61l-12 -59l-1 -10l8 -72l39 -46l65 -17l63 13l46 40l22 68l1 10l-10 68l-39 39l-62 12
l-39 -6l-35 -17l-26 -24l14 36l21 37l26 34l53 43l57 21l55 6zM722 0l3 20h-107l49 372h-15l-135 -83l10 -18l116 71l-45 -342h-108l-3 -20h235zM77 0l676 780h-26l-676 -780h26zM71 555l27 34l36 20l41 7h6l47 -10l33 -33l8 -58l-1 -10l-20 -57l-38 -33l-50 -11h-6l-54 11
l-32 35l-3 65h-20l-1 -10l7 -64l37 -41l69 -15l62 14l47 40l23 67l1 10l-11 67l-41 39l-60 13l-39 -4l-32 -14l-27 -22l29 165h208l3 20h-227l-39 -221z" />
    <glyph glyph-name="sevensixteenths" unicode="&#xf218;" horiz-adv-x="1100" 
d="M934 226l48 -11l32 -34l7 -56l-1 -10l-17 -55l-37 -34l-53 -12h-6l-47 11l-32 34l-11 54l1 18l2 16l3 15l26 32l36 23l43 9h6zM1060 395l-61 -7l-63 -23l-59 -47l-41 -58l-25 -61l-12 -59l-1 -10l8 -72l39 -46l65 -17l63 13l46 40l22 68l1 10l-10 68l-39 39l-62 12
l-39 -6l-35 -17l-26 -24l14 36l21 37l26 34l53 43l57 21l55 6zM722 0l3 20h-107l49 372h-15l-135 -83l10 -18l116 71l-45 -342h-108l-3 -20h235zM77 0l676 780h-26l-676 -780h26zM67 640h19l16 120h197l-200 -370h22l202 375l2 15h-240z" />
    <glyph glyph-name="ninesixteenths" unicode="&#xf219;" horiz-adv-x="1100" 
d="M934 226l48 -11l32 -34l7 -56l-1 -10l-17 -55l-37 -34l-53 -12h-6l-47 11l-32 34l-11 54l1 18l2 16l3 15l26 32l36 23l43 9h6zM1060 395l-61 -7l-63 -23l-59 -47l-41 -58l-25 -61l-12 -59l-1 -10l8 -72l39 -46l65 -17l63 13l46 40l22 68l1 10l-10 68l-39 39l-62 12
l-39 -6l-35 -17l-26 -24l14 36l21 37l26 34l53 43l57 21l55 6zM722 0l3 20h-107l49 372h-15l-135 -83l10 -18l116 71l-45 -342h-108l-3 -20h235zM77 0l676 780h-26l-676 -780h26zM169 554l-48 11l-32 34l-7 56l1 10l17 55l37 34l53 12h6l47 -11l32 -34l11 -54l-1 -18l-2 -16
l-3 -15l-26 -32l-36 -23l-43 -9h-6zM41 385l61 7l64 23l60 47l41 58l25 61l12 59l1 10l-8 72l-39 46l-65 17l-63 -13l-46 -40l-22 -68l-1 -10l10 -68l39 -39l62 -12l39 6l35 17l26 24l-14 -36l-21 -37l-26 -34l-54 -43l-57 -21l-56 -6z" />
    <glyph glyph-name="elevensixteenths" unicode="&#xf220;" horiz-adv-x="1400" 
d="M1234 226l48 -11l32 -34l7 -56l-1 -10l-17 -55l-37 -34l-53 -12h-6l-47 11l-32 34l-11 54l1 18l2 16l3 15l26 32l36 23l43 9h6zM1360 395l-61 -7l-63 -23l-59 -47l-41 -58l-25 -61l-12 -59l-1 -10l8 -72l39 -46l65 -17l63 13l46 40l22 68l1 10l-10 68l-39 39l-62 12
l-39 -6l-35 -17l-26 -24l14 36l21 37l26 34l53 43l57 21l55 6zM1022 0l3 20h-107l49 372h-15l-135 -83l10 -18l116 71l-45 -342h-108l-3 -20h235zM377 0l676 780h-26l-676 -780h26zM573 390l3 20h-107l49 372h-15l-135 -83l10 -18l116 71l-45 -342h-108l-3 -20h235zM273 390
l3 20h-107l49 372h-15l-135 -83l10 -18l116 71l-45 -342h-108l-3 -20h235z" />
    <glyph glyph-name="thirteensixteenths" unicode="&#xf221;" horiz-adv-x="1400" 
d="M1234 226l48 -11l32 -34l7 -56l-1 -10l-17 -55l-37 -34l-53 -12h-6l-47 11l-32 34l-11 54l1 18l2 16l3 15l26 32l36 23l43 9h6zM1360 395l-61 -7l-63 -23l-59 -47l-41 -58l-25 -61l-12 -59l-1 -10l8 -72l39 -46l65 -17l63 13l46 40l22 68l1 10l-10 68l-39 39l-62 12
l-39 -6l-35 -17l-26 -24l14 36l21 37l26 34l53 43l57 21l55 6zM1022 0l3 20h-107l49 372h-15l-135 -83l10 -18l116 71l-45 -342h-108l-3 -20h235zM377 0l676 780h-26l-676 -780h26zM454 404l-54 11l-32 35l-3 65h-20l-1 -10l7 -64l37 -41l69 -15l61 12l47 33l22 56l1 10
l-5 44l-21 32l-34 16l40 17l28 30l13 41l1 10l-10 54l-38 33l-62 12l-70 -15l-44 -43l-19 -67l-1 -10h20l18 67l37 37l56 12h6l50 -10l29 -28l7 -43l-1 -10l-18 -43l-37 -26l-48 -8h-56l-3 -20h59l46 -9l29 -26l7 -47l-1 -10l-19 -47l-38 -26l-49 -9h-6zM273 390l3 20h-107
l49 372h-15l-135 -83l10 -18l116 71l-45 -342h-108l-3 -20h235z" />
    <glyph glyph-name="fifteensixteenths" unicode="&#xf222;" horiz-adv-x="1400" 
d="M1234 226l48 -11l32 -34l7 -56l-1 -10l-17 -55l-37 -34l-53 -12h-6l-47 11l-32 34l-11 54l1 18l2 16l3 15l26 32l36 23l43 9h6zM1360 395l-61 -7l-63 -23l-59 -47l-41 -58l-25 -61l-12 -59l-1 -10l8 -72l39 -46l65 -17l63 13l46 40l22 68l1 10l-10 68l-39 39l-62 12
l-39 -6l-35 -17l-26 -24l14 36l21 37l26 34l53 43l57 21l55 6zM1022 0l3 20h-107l49 372h-15l-135 -83l10 -18l116 71l-45 -342h-108l-3 -20h235zM377 0l676 780h-26l-676 -780h26zM371 555l27 34l36 20l41 7h6l47 -10l33 -33l8 -58l-1 -10l-20 -57l-38 -33l-50 -11h-6
l-54 11l-32 35l-3 65h-20l-1 -10l7 -64l37 -41l69 -15l62 14l47 40l23 67l1 10l-11 67l-41 39l-60 13l-39 -4l-32 -14l-27 -22l29 165h208l3 20h-227l-39 -221zM273 390l3 20h-107l49 372h-15l-135 -83l10 -18l116 71l-45 -342h-108l-3 -20h235z" />
    <glyph glyph-name="commaaccent" unicode="&#xf6c3;" horiz-adv-x="602" 
d="M211 -70h-40l-5 -40h20l-17 -49l-27 -22l-27 -5l-2 -20l41 10l34 33l19 61z" />
    </font>
</defs>
</svg>
