<?xml version="1.0" standalone="no"?>
<!DOCTYPE svg PUBLIC "-//W3C//DTD SVG 1.1//EN" "http://www.w3.org/Graphics/SVG/1.1/DTD/svg11.dtd" >
<svg>
<metadata>
Created by FontForge 20120731 at Sun Aug 14 12:52:58 2016
 By www-data
Copyright (c) 2014, Cooper Hewitt Smithsonian Design Museum (cooperhewitt.org)
</metadata>
<defs>
<font id="CooperHewittInterpol1-LightItalic" horiz-adv-x="300" >
  <font-face 
    font-family="Cooper Hewitt Interpol 1"
    font-weight="704"
    font-style="italic"
    font-stretch="normal"
    units-per-em="1000"
    panose-1="0 0 0 0 0 0 0 0 0 0"
    ascent="750"
    descent="-250"
    x-height="530"
    cap-height="780"
    bbox="-260 -210 1361 960"
    underline-thickness="50"
    underline-position="-75"
    unicode-range="U+0020-F6C3"
  />
<missing-glyph horiz-adv-x="970" 
d="M530 390l275 275v-550zM440 390l-275 -275v550zM206 714h558l-279 -279zM485 345l279 -279h-558zM95 0h780v780h-780v-780z" />
    <glyph glyph-name=".notdef" horiz-adv-x="970" 
d="M530 390l275 275v-550zM440 390l-275 -275v550zM206 714h558l-279 -279zM485 345l279 -279h-558zM95 0h780v780h-780v-780z" />
    <glyph glyph-name="space" unicode=" " horiz-adv-x="200" 
 />
    <glyph glyph-name="exclam" unicode="!" horiz-adv-x="200" 
d="M88 60h-60l-7 -60h60zM130 780l-68 -605h24l90 605h-46z" />
    <glyph glyph-name="quotedbl" unicode="&#x22;" 
d="M230 780l-22 -250h24l44 250h-46zM130 780l-22 -250h24l44 250h-46z" />
    <glyph glyph-name="numbersign" unicode="#" horiz-adv-x="600" 
d="M258 490h161l-74 -200h-161zM527 780l-93 -250h-161l93 250h-43l-93 -250h-110l-5 -40h100l-74 -200h-115l-5 -40h105l-92 -250h43l92 250h161l-92 -250h43l92 250h111l5 40h-101l74 200h116l5 40h-106l93 250h-43z" />
    <glyph glyph-name="dollar" unicode="$" horiz-adv-x="597" 
d="M143 551l1 8l59 98l124 31h10l26 -1l23 -3l-98 -264l-117 43zM313 379l125 -44l32 -97l-1 -8l-57 -102l-129 -36h-6l-36 2l-32 4zM484 840h-40l-45 -120l-32 5l-35 1l-156 -42l-74 -125l-1 -8l33 -110l141 -57l-102 -276l-65 56l-12 107h-40l-2 -15l19 -116l87 -68
l-49 -132h40l45 122l40 -6l44 -2l161 47l70 129l1 8l-34 118l-152 59l96 259l71 -72l6 -104h40l2 15l-19 129l-86 68z" />
    <glyph glyph-name="percent" unicode="%" horiz-adv-x="898" 
d="M656 -10l114 40l60 125l1 8l-35 126l-111 41l-114 -40l-60 -125l-1 -8l35 -126zM655 28l-83 33l-24 95l1 8l46 96l85 32h6l84 -32l23 -96l-1 -8l-46 -96l-85 -32h-6zM356 616l-46 -96l-85 -32h-6l-83 33l-24 95l1 8l46 96l85 32h6l84 -32l23 -96zM261 0l405 743l5 37
l-77 -20l-105 -12l-86 8l-87 22l-30 9l-37 3l-114 -40l-60 -125l-1 -8l35 -126l111 -41l114 40l60 125l1 8l-1 57l-14 43l49 -9l55 -4l92 9l38 9l-397 -728h44z" />
    <glyph glyph-name="ampersand" unicode="&#x26;" horiz-adv-x="650" 
d="M146 634l39 81l103 35h6l94 -34l24 -82l-1 -8l-63 -100l-121 -81l-64 88l-18 93zM232 30l-133 49l-32 123l2 16l49 101l94 75l222 -271l-94 -73l-100 -20h-8zM236 -10l117 25l105 79l77 -94h56l-106 129l57 112l36 154h-40l-1 -8l-30 -132l-47 -96l-211 258l133 91
l71 118l1 8l-35 111l-129 45l-132 -44l-54 -112l-1 -8l17 -101l70 -104l-106 -83l-55 -120l-2 -16l46 -157z" />
    <glyph glyph-name="quotesingle" unicode="'" horiz-adv-x="200" 
d="M130 780l-22 -250h24l44 250h-46z" />
    <glyph glyph-name="parenleft" unicode="(" 
d="M51 350l17 -268l79 -202h45l-84 206l-16 264l3 24l86 276l140 190h-46l-128 -173l-93 -293z" />
    <glyph glyph-name="parenright" unicode=")" horiz-adv-x="294" 
d="M245 370l-17 268l-79 202h-45l84 -206l16 -264l-3 -24l-86 -276l-140 -190h46l129 173l92 293z" />
    <glyph glyph-name="asterisk" unicode="*" horiz-adv-x="380" 
d="M327 487l-77 118l-26 -17l68 -124zM397 695l-148 -51l6 -28l150 41zM112 464l100 124l-22 17l-107 -118zM49 657l140 -41l12 28l-134 51zM226 800l-15 -150h30l25 150h-40z" />
    <glyph glyph-name="plus" unicode="+" horiz-adv-x="600" 
d="M314 640l-31 -230h-230l-5 -40h230l-30 -230h40l30 230h230l5 40h-230l31 230h-40z" />
    <glyph glyph-name="comma" unicode="," horiz-adv-x="200" 
d="M88 60h-60l-7 -60h30l-25 -63l-46 -17l-4 -30l71 30l35 92z" />
    <glyph glyph-name="hyphen" unicode="-" horiz-adv-x="320" 
d="M34 331h240l5 38h-240z" />
    <glyph glyph-name="period" unicode="." horiz-adv-x="200" 
d="M88 60h-60l-7 -60h60z" />
    <glyph glyph-name="slash" unicode="/" 
d="M346 840h-40l-355 -960h39z" />
    <glyph glyph-name="zero" unicode="0" horiz-adv-x="596" 
d="M474 237l-58 -157l-152 -52h-6l-144 54l-25 153l41 308l58 157l152 52h6l144 -54l25 -153zM556 555l-34 169l-179 66l-182 -60l-69 -175l-44 -330l34 -169l179 -66l183 61l68 174z" />
    <glyph glyph-name="one" unicode="1" horiz-adv-x="600" 
d="M496 0l5 40h-215l98 745h-20l-267 -166l17 -34l222 138l-90 -683h-215l-5 -40h470z" />
    <glyph glyph-name="two" unicode="2" horiz-adv-x="598" 
d="M163 40l-76 -1l363 336l85 96l31 102l1 8l-51 153l-174 56l-185 -66l-75 -181l-3 -23h40l68 178l152 54h6l139 -48l41 -127l-1 -8l-29 -86l-83 -90l-398 -368l-3 -25h480l5 40h-333z" />
    <glyph glyph-name="three" unicode="3" horiz-adv-x="598" 
d="M78 250h-40l-1 -8l40 -183l188 -69l168 55l88 155l1 8l-24 125l-96 64l109 59l55 118l1 8l-51 153l-174 55l-185 -66l-75 -181l-3 -23h40l68 178l152 54h6l139 -46l41 -125l-1 -8l-69 -119l-138 -37h-112l-5 -38h117l128 -43l35 -129l-1 -8l-74 -129l-140 -42h-6l-147 54
z" />
    <glyph glyph-name="four" unicode="4" horiz-adv-x="600" 
d="M425 708l-17 -118l-43 -330h-190l-98 -1zM371 0l29 220h144l6 40h-145l68 520h-40l-415 -535l-4 -25h346l-29 -220h40z" />
    <glyph glyph-name="five" unicode="5" horiz-adv-x="600" 
d="M38 250l-1 -8l40 -183l188 -69l173 60l89 182l1 8l-53 186l-172 64l-116 -21l-78 -55l57 326h417l5 40h-455l-76 -435l32 -9l88 89l121 27h10l137 -54l41 -159l-1 -8l-76 -154l-144 -49h-6l-147 54l-34 168h-40z" />
    <glyph glyph-name="six" unicode="6" horiz-adv-x="600" 
d="M316 450l138 -56l36 -154l-1 -8l-68 -150l-149 -52h-6l-138 52l-43 178l6 44l4 19l90 92l125 35h6zM570 790l-181 -37l-185 -124l-112 -171l-46 -183l-1 -8l48 -206l176 -71l174 59l88 184l1 8l-49 188l-170 61l-116 -27l-85 -67l48 106l74 101l173 115l157 32z" />
    <glyph glyph-name="seven" unicode="7" horiz-adv-x="600" 
d="M81 500h40l32 240h272l118 1l-399 -741h45l406 755l3 25h-480z" />
    <glyph glyph-name="eight" unicode="8" horiz-adv-x="598" 
d="M345 752l139 -46l41 -125l-1 -8l-70 -119l-137 -37h-24l-126 39l-38 121l1 8l66 123l143 44h6zM310 379l131 -43l39 -129l-1 -8l-72 -128l-139 -43h-10l-138 41l-45 130l1 8l70 128l144 44h20zM258 -10l175 55l88 155l1 8l-23 125l-97 64l109 59l55 118l1 8l-51 153
l-174 55l-176 -54l-78 -152l-1 -8l28 -120l89 -57l-109 -59l-61 -134l-1 -8l54 -154z" />
    <glyph glyph-name="nine" unicode="9" horiz-adv-x="596" 
d="M287 330l-138 56l-36 154l1 8l68 150l149 52h6l138 -52l43 -178l-6 -44l-4 -19l-90 -92l-125 -35h-6zM33 -10l182 37l184 124l112 171l46 183l1 8l-48 206l-176 71l-174 -58l-88 -185l-1 -8l49 -187l170 -62l116 28l85 66l-48 -106l-74 -101l-172 -115l-158 -32z" />
    <glyph glyph-name="colon" unicode=":" horiz-adv-x="200" 
d="M136 420h-60l-8 -60h60zM88 60h-60l-7 -60h60z" />
    <glyph glyph-name="semicolon" unicode=";" horiz-adv-x="200" 
d="M136 420h-60l-8 -60h60zM88 60h-60l-7 -60h30l-25 -63l-46 -17l-4 -30l71 30l35 92z" />
    <glyph glyph-name="less" unicode="&#x3c;" horiz-adv-x="600" 
d="M53 410l-5 -40l468 -246l5 40l-430 224l489 224l6 44z" />
    <glyph glyph-name="equal" unicode="=" horiz-adv-x="600" 
d="M35 270h500l5 40h-500zM61 470h500l6 40h-500z" />
    <glyph glyph-name="greater" unicode="&#x3e;" horiz-adv-x="600" 
d="M548 370l5 40l-468 246l-5 -40l430 -224l-489 -224l-6 -44z" />
    <glyph glyph-name="question" unicode="?" horiz-adv-x="440" 
d="M208 60h-60l-7 -60h60zM267 752l99 -33l30 -99l-99 -219l-115 -226h24l129 219l103 236l-41 117l-130 43l-157 -75l-64 -202l-2 -13h40l53 183z" />
    <glyph glyph-name="at" unicode="@" horiz-adv-x="945" 
d="M614 410l-30 -230l-64 -61l-98 -31l-117 57l-20 140l3 20l59 140l130 57l90 -31zM425 -172l-288 114l-76 328l5 40l157 324l317 118h6l251 -88l77 -279l-4 -30l-92 -212l-165 -46l38 283l24 150h-30l-20 -77l-52 61l-98 26l-162 -73l-67 -162l-3 -20l24 -162l147 -73
l103 26l66 60v-76h25l198 58l106 237l4 30l-88 304l-288 101l-346 -127l-168 -353l-5 -40l82 -353l325 -127l182 22l181 88l-19 32l-164 -80l-177 -24h-6z" />
    <glyph glyph-name="A" unicode="A" horiz-adv-x="600" 
d="M351 750l82 -501h-297zM325 790l-340 -790h46l89 211h319l36 -211h42l-132 790h-60z" />
    <glyph glyph-name="B" unicode="B" horiz-adv-x="567" 
d="M320 742l122 -36l34 -118l-3 -24l-68 -113l-125 -31h-154l42 322h152zM298 382l114 -43l35 -128l-3 -24l-70 -117l-136 -32h-162l45 344h177zM133 780l-102 -780h204l169 44l82 143l3 24l-28 129l-101 61l102 52l53 111l3 24l-43 144l-155 48h-187z" />
    <glyph glyph-name="C" unicode="C" horiz-adv-x="601" 
d="M108 402l86 268l170 82h6l137 -58l19 -194h42l3 19l-30 199l-174 72l-201 -92l-100 -296l-3 -24l29 -299l184 -89l181 69l77 182l1 9h-42l-65 -165l-149 -57h-6l-149 80l-19 270z" />
    <glyph glyph-name="D" unicode="D" horiz-adv-x="623" 
d="M76 38l92 704h149l175 -78l36 -262l-3 -24l-105 -262l-199 -78h-145zM570 402l-47 290l-203 88h-187l-102 -780h190l226 88l120 290z" />
    <glyph glyph-name="E" unicode="E" horiz-adv-x="540" 
d="M133 780l-102 -780h420l5 38h-380l44 341h330l5 38h-330l43 325h380l5 38h-420z" />
    <glyph glyph-name="F" unicode="F" horiz-adv-x="500" 
d="M133 780l-102 -780h40l49 379h310l5 38h-310l43 325h360l5 38h-400z" />
    <glyph glyph-name="G" unicode="G" horiz-adv-x="632" 
d="M285 -10l150 29l88 60l38 292h-185l-5 -38h145l-30 -234l-76 -49l-122 -22h-6l-154 80l-24 270l3 24l89 268l172 82h6l140 -58l21 -194h42l3 19l-32 199l-177 72l-204 -92l-102 -296l-3 -24l34 -299z" />
    <glyph glyph-name="H" unicode="H" horiz-adv-x="630" 
d="M563 780l-48 -363h-390l48 363h-40l-102 -780h40l49 379h390l-49 -379h40l102 780h-40z" />
    <glyph glyph-name="I" unicode="I" horiz-adv-x="210" 
d="M178 780h-40l-102 -780h40z" />
    <glyph glyph-name="J" unicode="J" horiz-adv-x="480" 
d="M418 780l-70 -530l-57 -169l-120 -53l-107 52l-12 170h-38l-1 -7l17 -186l140 -67l153 67l64 183l71 540h-40z" />
    <glyph glyph-name="K" unicode="K" horiz-adv-x="540" 
d="M173 780h-40l-102 -780h40l32 246l140 166l164 -412h44l-180 445l282 335h-50l-391 -465z" />
    <glyph glyph-name="L" unicode="L" horiz-adv-x="480" 
d="M416 0l5 38h-345l97 742h-40l-102 -780h385z" />
    <glyph glyph-name="M" unicode="M" horiz-adv-x="780" 
d="M707 710l-27 -180l-69 -530h40l102 780h-53l-352 -712l-164 712h-51l-102 -780h40l69 530l21 180l165 -710h30z" />
    <glyph glyph-name="N" unicode="N" horiz-adv-x="650" 
d="M623 780h-39l-70 -530l-22 -190l-315 720h-44l-102 -780h39l69 530l22 190l316 -720h44z" />
    <glyph glyph-name="O" unicode="O" horiz-adv-x="631" 
d="M535 378l-86 -268l-170 -82h-6l-149 80l-19 270l3 24l86 268l170 82h6l149 -80l19 -270zM580 402l-29 299l-184 89l-201 -92l-100 -296l-3 -24l29 -299l184 -89l202 92l99 296z" />
    <glyph glyph-name="P" unicode="P" horiz-adv-x="557" 
d="M119 368l49 374h159l118 -34l47 -147l-3 -24l-80 -139l-123 -30h-167zM114 330h167l158 43l92 164l3 24l-54 173l-150 46h-197l-102 -780h40z" />
    <glyph glyph-name="Q" unicode="Q" horiz-adv-x="631" 
d="M280 213l45 -181l-23 -3l-23 -1h-6l-149 80l-19 270l3 24l86 268l170 82h6l149 -80l19 -270l-3 -24l-61 -227l-111 -108l-43 170h-40zM580 402l-29 299l-184 89l-201 -92l-100 -296l-3 -24l29 -299l184 -89l32 1l26 4l23 -95h42l-27 105l134 120l71 253z" />
    <glyph glyph-name="R" unicode="R" horiz-adv-x="567" 
d="M119 368l49 374h159l118 -34l47 -147l-3 -24l-80 -139l-123 -30h-167zM114 330h167l23 1l24 2l89 -333h44l-94 341l106 61l58 135l3 24l-54 173l-150 46h-197l-102 -780h40z" />
    <glyph glyph-name="S" unicode="S" horiz-adv-x="585" 
d="M288 386l151 -60l37 -120l-2 -16l-71 -122l-148 -40h-10l-141 51l-30 171h-40l-3 -19l41 -177l178 -64l181 51l85 152l2 16l-36 135l-170 76l-152 62l-31 110l2 16l64 108l135 36h10l142 -54l27 -178h40l3 19l-35 183l-182 68l-165 -44l-81 -141l-2 -16l34 -124z" />
    <glyph glyph-name="T" unicode="T" horiz-adv-x="500" 
d="M318 742h205l5 38h-450l-5 -38h205l-97 -742h40z" />
    <glyph glyph-name="U" unicode="U" horiz-adv-x="630" 
d="M273 -10l179 54l85 196l71 540h-40l-70 -535l-72 -171l-153 -46l-144 46l-31 171l70 535h-40l-71 -540l42 -197z" />
    <glyph glyph-name="V" unicode="V" horiz-adv-x="600" 
d="M279 -10l340 790h-46l-320 -750l-124 750h-42l132 -790h60z" />
    <glyph glyph-name="W" unicode="W" horiz-adv-x="880" 
d="M569 -10h60l255 790h-44l-236 -748l-82 748h-60l-278 -748l-40 748h-42l47 -790h60l279 750z" />
    <glyph glyph-name="X" unicode="X" horiz-adv-x="600" 
d="M-14 0h51l263 355l171 -355h45l-191 392l293 388h-51l-263 -353l-171 353h-45l191 -386z" />
    <glyph glyph-name="Y" unicode="Y" horiz-adv-x="560" 
d="M281 235l307 545h-45l-277 -495l-147 495h-41l163 -545l-30 -235h40z" />
    <glyph glyph-name="Z" unicode="Z" horiz-adv-x="550" 
d="M-6 28l-3 -28h470l5 38h-301l-121 -2l506 716l3 28h-450l-5 -38h281l121 2z" />
    <glyph glyph-name="bracketleft" unicode="[" 
d="M131 840l-126 -960h185l5 40h-145l116 880h145l5 40h-185z" />
    <glyph glyph-name="backslash" unicode="\" 
d="M180 -120h40l-104 960h-40z" />
    <glyph glyph-name="bracketright" unicode="]" 
d="M165 -120l126 960h-185l-5 -40h145l-116 -880h-145l-5 -40h185z" />
    <glyph glyph-name="asciicircum" unicode="^" horiz-adv-x="600" 
d="M373 780h-40l-312 -500h44l285 459l163 -459h40z" />
    <glyph glyph-name="underscore" unicode="_" horiz-adv-x="320" 
d="M-15 -118h220l5 38h-220z" />
    <glyph glyph-name="grave" unicode="`" horiz-adv-x="500" 
d="M192 780l69 -160h42l-69 160h-42z" />
    <glyph glyph-name="a" unicode="a" horiz-adv-x="496" 
d="M160 28l-80 33l-20 73l2 16l43 77l98 34l176 28l-21 -160l-63 -63zM356 0h30l14 150l26 195l-20 141l-143 54l-146 -57l-48 -114l-2 -14h40l39 103l117 44l108 -37l16 -115l-3 -24l-176 -28l-120 -37l-68 -114l-2 -16l34 -102l108 -39l119 28l78 62z" />
    <glyph glyph-name="b" unicode="b" horiz-adv-x="521" 
d="M77 126l38 290l65 61l94 25l120 -63l21 -171l-2 -16l-61 -164l-134 -60l-93 33zM166 800h-40l-86 -650l-24 -150h30l19 81l52 -60l101 -31l166 74l71 191l2 16l-28 190l-155 79l-89 -20l-62 -50z" />
    <glyph glyph-name="c" unicode="c" horiz-adv-x="518" 
d="M83 278l62 164l133 60l118 -47l25 -115h39l2 15l-28 120l-156 65l-166 -74l-71 -191l-2 -16l32 -190l163 -79l152 60l51 116l2 14h-40l-44 -105l-121 -47l-128 64l-25 170z" />
    <glyph glyph-name="d" unicode="d" horiz-adv-x="525" 
d="M278 502l93 -32l48 -66l-38 -290l-63 -58l-96 -28l-120 63l-21 171l2 16l62 164zM222 -10l92 22l66 57l1 -69h30l14 150l86 650h-40l-45 -341l-50 52l-98 29l-166 -74l-71 -191l-2 -16l28 -190z" />
    <glyph glyph-name="e" unicode="e" horiz-adv-x="536" 
d="M288 502l123 -58l21 -160h-348l65 156zM468 246l4 32l-26 184l-158 78l-171 -74l-76 -191l-2 -16l30 -189l175 -80l153 55l60 118l1 7h-40l-45 -95l-129 -47l-138 60l-26 158h388z" />
    <glyph glyph-name="f" unicode="f" horiz-adv-x="370" 
d="M198 667l39 83l81 22l37 -3l26 -6l5 36l-24 7l-44 4l-106 -30l-52 -101l-20 -149h-85l-5 -38h85l-64 -492h40l64 492h160l5 38h-160z" />
    <glyph glyph-name="g" unicode="g" horiz-adv-x="525" 
d="M386 154l-64 -61l-95 -25l-121 58l-22 156l2 16l60 151l132 53l93 -32l48 -66zM365 -5l-46 -123l-127 -44l-114 42l-25 130h-37l-2 -15l29 -139l149 -56l155 59l57 141l52 390l24 150h-30l-19 -81l-52 60l-101 31l-165 -68l-69 -177l-2 -16l28 -175l157 -74l89 20l62 50z
" />
    <glyph glyph-name="h" unicode="h" horiz-adv-x="508" 
d="M166 800h-40l-105 -800h40l53 410l63 61l108 31l95 -30l24 -102l-48 -370h40l49 375l-30 121l-125 44l-101 -24l-68 -56z" />
    <glyph glyph-name="i" unicode="i" horiz-adv-x="200" 
d="M177 735h-60l-8 -60h60zM31 0h40l69 530h-40z" />
    <glyph glyph-name="j" unicode="j" horiz-adv-x="200" 
d="M22 -67l-39 -83l-80 -22l-37 3l-26 6l-5 -36l24 -7l44 -4l106 30l51 101l80 609h-40zM177 735h-60l-8 -60h60z" />
    <glyph glyph-name="k" unicode="k" horiz-adv-x="480" 
d="M21 0h40l21 162l147 140l129 -302h43l-142 330l211 200h-54l-327 -312l77 582h-40z" />
    <glyph glyph-name="l" unicode="l" horiz-adv-x="200" 
d="M31 0h40l105 800h-40z" />
    <glyph glyph-name="m" unicode="m" horiz-adv-x="783" 
d="M671 0l51 390l-31 113l-108 37l-98 -26l-70 -63l-42 64l-95 25l-98 -27l-66 -61l1 78h-30l-14 -150l-50 -380h40l53 410l63 61l96 31l82 -25l21 -92l-50 -385h40l53 410l63 61l96 31l80 -25l23 -92l-50 -385h40z" />
    <glyph glyph-name="n" unicode="n" horiz-adv-x="508" 
d="M396 0l49 375l-30 121l-125 44l-103 -25l-73 -63l1 78h-30l-14 -150l-50 -380h40l53 410l63 61l108 31l95 -30l24 -102l-48 -370h40z" />
    <glyph glyph-name="o" unicode="o" horiz-adv-x="536" 
d="M229 -10l168 74l74 191l2 16l-30 190l-160 79l-168 -74l-74 -191l-2 -16l30 -190zM229 28l-125 64l-23 170l2 16l64 164l136 60l125 -64l23 -170l-2 -16l-64 -164z" />
    <glyph glyph-name="p" unicode="p" horiz-adv-x="521" 
d="M218 28l-93 33l-48 65l38 290l63 58l96 28l120 -63l21 -171l-2 -16l-61 -164zM274 540l-92 -22l-66 -57l-1 69h-30l-14 -150l-77 -580h40l36 271l50 -52l98 -29l166 74l71 191l2 16l-28 190z" />
    <glyph glyph-name="q" unicode="q" horiz-adv-x="525" 
d="M381 114l-64 -61l-95 -25l-120 63l-21 171l2 16l62 164l133 60l93 -32l48 -66zM339 -200h40l77 580l24 150h-30l-19 -81l-52 60l-101 31l-166 -74l-71 -191l-2 -16l28 -190l155 -79l89 20l62 50z" />
    <glyph glyph-name="r" unicode="r" horiz-adv-x="315" 
d="M277 540l-97 -24l-65 -59v73h-30l-14 -150l-50 -380h40l53 410l60 61l103 31h10l4 37l-4 1h-10z" />
    <glyph glyph-name="s" unicode="s" horiz-adv-x="517" 
d="M220 28l-122 38l-21 94h-39l-1 -8l29 -112l154 -50l141 39l61 102l1 8l-30 101l-128 48l-125 40l-24 74l47 76l107 24l119 -38l19 -104h39l1 8l-29 124l-149 48l-138 -37l-58 -97l-1 -8l29 -90l133 -52l120 -37l25 -84l-47 -79z" />
    <glyph glyph-name="t" unicode="t" horiz-adv-x="390" 
d="M180 530l20 150h-40l-20 -150h-85l-5 -38h85l-47 -357l26 -110l98 -35l45 4l24 6l4 37l-29 -6l-44 -3l-66 23l-17 89l46 352h180l5 38h-180z" />
    <glyph glyph-name="u" unicode="u" horiz-adv-x="510" 
d="M85 530l-49 -375l30 -121l125 -44l103 25l73 63l-1 -78h30l14 150l50 380h-40l-53 -410l-63 -61l-108 -31l-95 30l-24 102l48 370h-40z" />
    <glyph glyph-name="v" unicode="v" horiz-adv-x="500" 
d="M177 0h48l265 530h-46l-239 -485l-111 485h-44z" />
    <glyph glyph-name="w" unicode="w" horiz-adv-x="700" 
d="M364 481l74 -481h56l191 530h-42l-174 -490l-75 490h-50l-203 -490l-46 490h-40l53 -530h56z" />
    <glyph glyph-name="x" unicode="x" horiz-adv-x="460" 
d="M45 530l145 -264l-214 -266h53l183 226l125 -226h49l-146 264l215 266h-51l-186 -230l-126 230h-47z" />
    <glyph glyph-name="y" unicode="y" horiz-adv-x="462" 
d="M198 65l-108 465h-41l124 -510l-111 -220h44l107 218l258 512h-43z" />
    <glyph glyph-name="z" unicode="z" horiz-adv-x="446" 
d="M-8 28l-3 -28h370l5 38h-200l-121 -1l372 465l3 28h-350l-5 -38h180l121 1z" />
    <glyph glyph-name="braceleft" unicode="{" 
d="M316 840h-15l-86 -24l-55 -101l-33 -245l-32 -74l-69 -16l-6 -40l66 -16l12 -74l-32 -245l28 -100l81 -25h15l5 40l-76 19l-10 91l31 232l-7 64l-33 34l42 34l24 64l30 232l36 90l79 20z" />
    <glyph glyph-name="bar" unicode="|" horiz-adv-x="180" 
d="M5 -120h40l126 960h-40z" />
    <glyph glyph-name="braceright" unicode="}" 
d="M-20 -120h15l86 24l55 101l33 245l32 74l69 16l6 40l-66 16l-12 74l32 245l-28 100l-81 25h-15l-5 -40l76 -19l10 -91l-31 -232l7 -64l33 -34l-42 -34l-24 -64l-30 -232l-36 -90l-79 -20z" />
    <glyph glyph-name="asciitilde" unicode="~" horiz-adv-x="600" 
d="M180 440l-87 -25l-54 -44l28 -28l46 39l63 20l118 -36l128 -37l87 25l54 44l-27 28l-47 -38l-63 -21l-118 37z" />
    <glyph glyph-name="nbspace" unicode="&#xa0;" horiz-adv-x="200" 
 />
    <glyph glyph-name="exclamdown" unicode="&#xa1;" horiz-adv-x="200" 
d="M150 530h-60l-7 -60h60zM47 -200l62 555h-24l-84 -555h46z" />
    <glyph glyph-name="cent" unicode="&#xa2;" horiz-adv-x="596" 
d="M115 400l78 214l157 72h6l16 -1l15 -1l-209 -562l-61 97l-4 165zM484 840h-40l-43 -117l-20 2l-28 1l-188 -86l-92 -243l-2 -16l8 -191l83 -110l-51 -140h40l46 126l40 -8l45 -2l163 61l70 147l2 14h-41l-55 -131l-137 -51h-4l-36 2l-33 7l213 572l71 -66l8 -130h41l2 15
l-14 138l-94 81z" />
    <glyph glyph-name="sterling" unicode="&#xa3;" horiz-adv-x="594" 
d="M370 752l133 -69l18 -183h40l3 19l-26 192l-168 79l-169 -73l-56 -214l1 -53l3 -40h-85l-5 -40h95l23 -160l8 -170h-169l-5 -40h480l5 40h-274l-2 168l-20 162h199l5 40h-209l-4 50l-2 43l41 181z" />
    <glyph glyph-name="yen" unicode="&#xa5;" horiz-adv-x="600" 
d="M53 440h142l57 -160h-220l-5 -40h235l-31 -240h40l31 240h235l5 40h-221l100 160h142l6 40h-123l187 300h-47l-298 -481l-172 481h-43l108 -300h-122z" />
    <glyph glyph-name="brokenbar" unicode="&#xa6;" horiz-adv-x="180" 
d="M5 -120h40l58 440h-40zM73 400h40l58 440h-40z" />
    <glyph glyph-name="section" unicode="&#xa7;" horiz-adv-x="498" 
d="M210 244l117 -25l30 -64l-40 -94l-116 -33l-117 38l-21 104h-40l-1 -11l31 -122l148 -47l142 40l54 99l1 8l-8 74l-56 46l86 48l36 79l1 8l-28 99l-135 45l-117 25l-30 64l41 94l115 33l117 -38l21 -104h40l1 11l-31 122l-148 47l-141 -40l-55 -99l-1 -8l8 -74l56 -46
l-86 -48l-36 -79l-1 -8l28 -99zM236 279l-108 20l-41 70l44 96l124 36h13l108 -20l41 -70l-43 -96l-125 -36h-13z" />
    <glyph glyph-name="dieresis" unicode="&#xa8;" horiz-adv-x="500" 
d="M402 735h-60l-8 -60h60zM252 735h-60l-8 -60h60z" />
    <glyph glyph-name="copyright" unicode="&#xa9;" horiz-adv-x="920" 
d="M100 390l105 255l255 105l255 -105l105 -255l-105 -255l-255 -105l-255 105zM60 390l117 -283l283 -117l283 117l117 283l-117 283l-283 117l-283 -117zM460 185l-126 63l-37 132v20l37 132l126 63l115 -42l30 -88h40v15l-38 96l-147 59l-159 -79l-46 -156v-20l46 -156
l159 -79l147 56l38 94v10h-40l-29 -78z" />
    <glyph glyph-name="ordfeminine" unicode="&#xaa;" horiz-adv-x="374" 
d="M30 223h285l4 35h-285zM165 414l-57 24l-13 52l1 8l29 56l71 26l126 20l-15 -117l-48 -43zM308 388h29l10 111l19 146l-15 104l-109 41l-110 -42l-38 -89l-1 -7h37l31 75l79 29l79 -29l9 -82l-2 -14l-126 -19l-91 -28l-52 -86l-1 -8l23 -79l86 -31l84 20l58 45z" />
    <glyph glyph-name="guillemotleft" unicode="&#xab;" horiz-adv-x="500" 
d="M468 510l-221 -155l-4 -30l180 -155l6 42l-147 125l180 125zM268 510l-221 -155l-4 -30l180 -155l6 42l-147 125l180 125z" />
    <glyph glyph-name="logicalnot" unicode="&#xac;" horiz-adv-x="600" 
d="M67 510h460l-39 -290h40l44 330h-500z" />
    <glyph glyph-name="uni00AD" unicode="&#xad;" horiz-adv-x="320" 
d="M34 331h240l5 38h-240z" />
    <glyph glyph-name="registered" unicode="&#xae;" horiz-adv-x="330" 
d="M197 700v-4l-8 -19l-23 -6h-33v54h33l23 -6zM225 694v8l-15 36l-39 13h-66v-172h28v66h35l28 -66h29l-31 69l23 17zM44 665l35 86l86 35l86 -35l35 -86l-35 -86l-86 -35l-86 35zM20 665l43 -102l102 -43l103 43l42 102l-42 103l-103 42l-102 -42z" />
    <glyph glyph-name="macron" unicode="&#xaf;" horiz-adv-x="500" 
d="M185 680h210l5 40h-210z" />
    <glyph glyph-name="degree" unicode="&#xb0;" horiz-adv-x="398" 
d="M248 790l-110 -37l-53 -109l-1 -8l30 -108l107 -38l110 37l53 109l1 8l-29 108zM218 528l-77 30l-19 78l1 8l41 82l81 26h6l77 -30l19 -78l-1 -8l-41 -82l-81 -26h-6z" />
    <glyph glyph-name="plusminus" unicode="&#xb1;" horiz-adv-x="600" 
d="M22 170h500l5 40h-500zM314 640l-20 -150h-230l-5 -40h230l-20 -150h40l20 150h230l5 40h-230l20 150h-40z" />
    <glyph glyph-name="twosuperior" unicode="&#xb2;" horiz-adv-x="299" 
d="M278 422h-190l164 153l40 43l19 52l1 8l-22 77l-91 30l-92 -31l-41 -89l-2 -15h35l32 79l66 24h4l59 -19l16 -56l-1 -8l-16 -42l-35 -37l-191 -179l-3 -22h244z" />
    <glyph glyph-name="threesuperior" unicode="&#xb3;" horiz-adv-x="299" 
d="M79 515h-36l-1 -8l23 -90l94 -33l89 28l40 74l1 8l-10 62l-41 33l49 27l24 54l1 8l-22 77l-91 30l-93 -31l-40 -89l-2 -15h35l32 79l66 24h4l59 -19l16 -56l-1 -8l-30 -50l-60 -15h-55l-4 -32h57l55 -21l15 -58l-1 -8l-30 -54l-60 -16h-6l-62 24z" />
    <glyph glyph-name="acute" unicode="&#xb4;" horiz-adv-x="500" 
d="M372 780l-111 -160h42l111 160h-42z" />
    <glyph glyph-name="paragraph" unicode="&#xb6;" horiz-adv-x="500" 
d="M368 742h70l-97 -742h40l102 780h-167l-158 -43l-92 -164l-3 -24l54 -173l150 -46h7l-43 -330h40zM270 368l-118 34l-47 147l3 24l81 139l122 30h17l-49 -374h-9z" />
    <glyph glyph-name="periodcentered" unicode="&#xb7;" horiz-adv-x="200" 
d="M131 380h-60l-8 -60h60z" />
    <glyph glyph-name="cedilla" unicode="&#xb8;" horiz-adv-x="602" 
d="M90 -183l38 -19l49 -8l71 18l30 62l-28 52l-57 14h-5l33 64h-36l-42 -83l14 -16l8 1l20 1l41 -7l18 -30l-18 -33l-49 -10l-42 7l-30 15z" />
    <glyph glyph-name="onesuperior" unicode="&#xb9;" 
d="M276 390l4 32h-101l47 360h-23l-133 -83l14 -28l100 62l-41 -311h-102l-4 -32h239z" />
    <glyph glyph-name="ordmasculine" unicode="&#xba;" horiz-adv-x="407" 
d="M30 223h310l4 35h-310zM110 593l45 116l99 46l88 -45l16 -117l-2 -16l-45 -116l-99 -46l-88 45l-16 117zM396 593l-20 139l-122 58l-125 -53l-57 -144l-2 -16l20 -139l122 -58l125 54l57 143z" />
    <glyph glyph-name="guillemotright" unicode="&#xbb;" horiz-adv-x="500" 
d="M62 468l146 -125l-179 -125l-6 -48l220 155l4 30l-179 155zM262 468l146 -125l-179 -125l-6 -48l220 155l4 30l-179 155z" />
    <glyph glyph-name="onequarter" unicode="&#xbc;" horiz-adv-x="800" 
d="M678 329l-8 -51l-18 -142h-80l-43 -1zM670 0l13 103h64l5 33h-64l33 254h-35l-202 -263l-4 -24h167l-13 -103h36zM86 0l678 780h-46l-678 -780h46zM276 390l4 32h-101l47 360h-23l-133 -83l14 -28l100 62l-41 -311h-102l-4 -32h239z" />
    <glyph glyph-name="onehalf" unicode="&#xbd;" horiz-adv-x="800" 
d="M727 32h-190l164 153l40 43l19 52l1 8l-22 77l-91 30l-92 -31l-41 -89l-2 -15h35l32 79l66 24h4l59 -19l16 -56l-1 -8l-16 -42l-35 -37l-191 -179l-3 -22h244zM86 0l678 780h-46l-678 -780h46zM276 390l4 32h-101l47 360h-23l-133 -83l14 -28l100 62l-41 -311h-102
l-4 -32h239z" />
    <glyph glyph-name="threequarters" unicode="&#xbe;" horiz-adv-x="800" 
d="M678 329l-8 -51l-18 -142h-80l-43 -1zM670 0l13 103h64l5 33h-64l33 254h-35l-202 -263l-4 -24h167l-13 -103h36zM86 0l678 780h-46l-678 -780h46zM79 515h-36l-1 -8l23 -90l94 -33l89 28l40 74l1 8l-10 62l-41 33l49 27l24 54l1 8l-22 77l-91 30l-93 -31l-40 -89l-2 -15
h35l32 79l66 24h4l59 -19l16 -56l-1 -8l-30 -50l-60 -15h-55l-4 -32h57l55 -21l15 -58l-1 -8l-30 -54l-60 -16h-6l-62 24z" />
    <glyph glyph-name="questiondown" unicode="&#xbf;" horiz-adv-x="440" 
d="M270 530h-60l-7 -60h60zM142 -172l-96 32l-28 90l98 191l113 214h-24l-127 -202l-102 -213l39 -108l127 -42l156 65l70 192l2 13h-40l-59 -173z" />
    <glyph glyph-name="Agrave" unicode="&#xc0;" horiz-adv-x="600" 
d="M351 750l82 -501h-297zM325 790l-340 -790h46l89 211h319l36 -211h42l-132 790h-60zM293 950l47 -110h42l-47 110h-42z" />
    <glyph glyph-name="Aacute" unicode="&#xc1;" horiz-adv-x="600" 
d="M351 750l82 -501h-297zM325 790l-340 -790h46l89 211h319l36 -211h42l-132 790h-60zM417 950l-77 -110h42l77 110h-42z" />
    <glyph glyph-name="Acircumflex" unicode="&#xc2;" horiz-adv-x="600" 
d="M351 750l82 -501h-297zM325 790l-340 -790h46l89 211h319l36 -211h42l-132 790h-60zM293 840l80 77l60 -77h43l-85 110h-30l-115 -110h47z" />
    <glyph glyph-name="Atilde" unicode="&#xc3;" horiz-adv-x="600" 
d="M351 750l82 -501h-297zM325 790l-340 -790h46l89 211h319l36 -211h42l-132 790h-60zM477 932l-15 -39l-31 -12l-55 31l-69 30l-55 -21l-29 -63h36l16 39l30 12l56 -30l69 -31l55 21l28 63h-36z" />
    <glyph glyph-name="Adieresis" unicode="&#xc4;" horiz-adv-x="600" 
d="M351 750l82 -501h-297zM325 790l-340 -790h46l89 211h319l36 -211h42l-132 790h-60zM477 925h-60l-8 -60h60zM327 925h-60l-8 -60h60z" />
    <glyph glyph-name="Aring" unicode="&#xc5;" horiz-adv-x="600" 
d="M307 860l20 51l45 17l37 -14l14 -34l-20 -51l-45 -17l-37 14zM351 750l82 -501h-297zM456 880l-23 57l-61 23l-70 -29l-28 -71l13 -45l36 -29l-338 -786h46l89 211h319l36 -211h42l-131 784l51 35z" />
    <glyph glyph-name="AE" unicode="&#xc6;" horiz-adv-x="820" 
d="M391 742l8 -483h-251zM370 780l-395 -780h43l111 221h270l4 -221h328l5 38h-293l-7 341h294l5 38h-299l-6 325h398l5 38h-463z" />
    <glyph glyph-name="Ccedilla" unicode="&#xc7;" horiz-adv-x="601" 
d="M166 -183l38 -19l49 -8l71 18l30 62l-28 52l-57 14h-5l28 54l169 73l73 178l1 9h-42l-65 -165l-149 -57h-6l-149 80l-19 270l3 24l86 268l170 82h6l137 -58l19 -194h42l3 19l-30 199l-174 72l-201 -92l-100 -296l-3 -24l25 -291l168 -96l-37 -74l14 -16l8 1l20 1l41 -7
l18 -30l-18 -33l-49 -10l-42 7l-30 15z" />
    <glyph glyph-name="Egrave" unicode="&#xc8;" horiz-adv-x="540" 
d="M293 950l47 -110h42l-47 110h-42zM133 780l-102 -780h420l5 38h-380l44 341h330l5 38h-330l43 325h380l5 38h-420z" />
    <glyph glyph-name="Eacute" unicode="&#xc9;" horiz-adv-x="540" 
d="M417 950l-77 -110h42l77 110h-42zM133 780l-102 -780h420l5 38h-380l44 341h330l5 38h-330l43 325h380l5 38h-420z" />
    <glyph glyph-name="Ecircumflex" unicode="&#xca;" horiz-adv-x="540" 
d="M293 840l80 77l60 -77h43l-85 110h-30l-115 -110h47zM133 780l-102 -780h420l5 38h-380l44 341h330l5 38h-330l43 325h380l5 38h-420z" />
    <glyph glyph-name="Edieresis" unicode="&#xcb;" horiz-adv-x="540" 
d="M327 925h-60l-8 -60h60zM477 925h-60l-8 -60h60zM133 780l-102 -780h420l5 38h-380l44 341h330l5 38h-330l43 325h380l5 38h-420z" />
    <glyph glyph-name="Igrave" unicode="&#xcc;" horiz-adv-x="210" 
d="M98 950l47 -110h42l-47 110h-42zM178 780h-40l-102 -780h40z" />
    <glyph glyph-name="Iacute" unicode="&#xcd;" horiz-adv-x="210" 
d="M222 950l-77 -110h42l77 110h-42zM178 780h-40l-102 -780h40z" />
    <glyph glyph-name="Icircumflex" unicode="&#xce;" horiz-adv-x="210" 
d="M98 840l80 77l60 -77h43l-85 110h-30l-115 -110h47zM178 780h-40l-102 -780h40z" />
    <glyph glyph-name="Idieresis" unicode="&#xcf;" horiz-adv-x="210" 
d="M132 925h-60l-8 -60h60zM282 925h-60l-8 -60h60zM178 780h-40l-102 -780h40z" />
    <glyph glyph-name="Eth" unicode="&#xd0;" horiz-adv-x="683" 
d="M136 38l44 341h230l5 38h-230l43 325h149l175 -78l36 -262l-3 -24l-105 -262l-199 -78h-145zM630 402l-47 290l-203 88h-187l-48 -363h-120l-5 -38h120l-49 -379h190l226 88l120 290z" />
    <glyph glyph-name="Ntilde" unicode="&#xd1;" horiz-adv-x="650" 
d="M623 780h-39l-70 -530l-22 -190l-315 720h-44l-102 -780h39l69 530l22 190l316 -720h44zM502 932l-15 -39l-31 -12l-55 31l-69 30l-55 -21l-29 -63h36l16 39l30 12l56 -30l69 -31l55 21l28 63h-36z" />
    <glyph glyph-name="Ograve" unicode="&#xd2;" horiz-adv-x="631" 
d="M535 378l-86 -268l-170 -82h-6l-149 80l-19 270l3 24l86 268l170 82h6l149 -80l19 -270zM580 402l-29 299l-184 89l-201 -92l-100 -296l-3 -24l29 -299l184 -89l202 92l99 296zM313 950l47 -110h42l-47 110h-42z" />
    <glyph glyph-name="Oacute" unicode="&#xd3;" horiz-adv-x="631" 
d="M535 378l-86 -268l-170 -82h-6l-149 80l-19 270l3 24l86 268l170 82h6l149 -80l19 -270zM580 402l-29 299l-184 89l-201 -92l-100 -296l-3 -24l29 -299l184 -89l202 92l99 296zM437 950l-77 -110h42l77 110h-42z" />
    <glyph glyph-name="Ocircumflex" unicode="&#xd4;" horiz-adv-x="631" 
d="M313 840l80 77l60 -77h43l-85 110h-30l-115 -110h47zM535 378l-86 -268l-170 -82h-6l-149 80l-19 270l3 24l86 268l170 82h6l149 -80l19 -270zM580 402l-29 299l-184 89l-201 -92l-100 -296l-3 -24l29 -299l184 -89l202 92l99 296z" />
    <glyph glyph-name="Otilde" unicode="&#xd5;" horiz-adv-x="631" 
d="M535 378l-86 -268l-170 -82h-6l-149 80l-19 270l3 24l86 268l170 82h6l149 -80l19 -270zM580 402l-29 299l-184 89l-201 -92l-100 -296l-3 -24l29 -299l184 -89l202 92l99 296zM497 932l-15 -39l-31 -12l-55 31l-69 30l-55 -21l-29 -63h36l16 39l30 12l56 -30l69 -31
l55 21l28 63h-36z" />
    <glyph glyph-name="Odieresis" unicode="&#xd6;" horiz-adv-x="631" 
d="M535 378l-86 -268l-170 -82h-6l-149 80l-19 270l3 24l86 268l170 82h6l149 -80l19 -270zM580 402l-29 299l-184 89l-201 -92l-100 -296l-3 -24l29 -299l184 -89l202 92l99 296zM497 925h-60l-8 -60h60zM347 925h-60l-8 -60h60z" />
    <glyph glyph-name="multiply" unicode="&#xd7;" horiz-adv-x="600" 
d="M33 128l264 233l202 -233l33 29l-202 233l264 233l-26 29l-263 -233l-203 233l-32 -29l202 -233l-264 -233z" />
    <glyph glyph-name="Oslash" unicode="&#xd8;" horiz-adv-x="626" 
d="M535 378l-86 -268l-170 -82h-6l-85 16l-58 52l400 549l16 -102l-8 -141zM105 378l3 24l86 268l170 82h6l85 -16l57 -53l-399 -549l-16 103zM580 402l6 166l-27 117l69 95h-45l-45 -61l-70 54l-101 17l-201 -92l-100 -296l-3 -24l-7 -167l28 -117l-69 -94h45l44 61l71 -54
l101 -17l202 92l99 296z" />
    <glyph glyph-name="Ugrave" unicode="&#xd9;" horiz-adv-x="630" 
d="M273 -10l179 54l85 196l71 540h-40l-70 -535l-72 -171l-153 -46l-144 46l-31 171l70 535h-40l-71 -540l42 -197zM308 950l47 -110h42l-47 110h-42z" />
    <glyph glyph-name="Uacute" unicode="&#xda;" horiz-adv-x="630" 
d="M273 -10l179 54l85 196l71 540h-40l-70 -535l-72 -171l-153 -46l-144 46l-31 171l70 535h-40l-71 -540l42 -197zM432 950l-77 -110h42l77 110h-42z" />
    <glyph glyph-name="Ucircumflex" unicode="&#xdb;" horiz-adv-x="630" 
d="M273 -10l179 54l85 196l71 540h-40l-70 -535l-72 -171l-153 -46l-144 46l-31 171l70 535h-40l-71 -540l42 -197zM308 840l80 77l60 -77h43l-85 110h-30l-115 -110h47z" />
    <glyph glyph-name="Udieresis" unicode="&#xdc;" horiz-adv-x="630" 
d="M273 -10l179 54l85 196l71 540h-40l-70 -535l-72 -171l-153 -46l-144 46l-31 171l70 535h-40l-71 -540l42 -197zM342 925h-60l-8 -60h60zM492 925h-60l-8 -60h60z" />
    <glyph glyph-name="Yacute" unicode="&#xdd;" horiz-adv-x="560" 
d="M281 235l307 545h-45l-277 -495l-147 495h-41l163 -545l-30 -235h40zM397 950l-77 -110h42l77 110h-42z" />
    <glyph glyph-name="Thorn" unicode="&#xde;" horiz-adv-x="557" 
d="M97 203l49 374h159l118 -34l47 -147l-3 -24l-80 -139l-123 -30h-167zM92 165h167l158 43l92 164l3 24l-54 173l-150 46h-157l22 165h-40l-102 -780h40z" />
    <glyph glyph-name="germandbls" unicode="&#xdf;" horiz-adv-x="548" 
d="M256 382l65 -46l105 -93l22 -93l-39 -86l-102 -36l-101 40l-14 92h-39l-1 -8l19 -108l136 -54l135 50l48 105l1 8l-28 109l-100 94l-51 37l123 100l47 114l1 8l-31 142l-143 53l-142 -50l-66 -146l-80 -614h40l80 610l53 120l115 40l110 -44l21 -115l-50 -110l-131 -91z
" />
    <glyph glyph-name="agrave" unicode="&#xe0;" horiz-adv-x="496" 
d="M160 28l-80 33l-20 73l2 16l43 77l98 34l176 28l-21 -160l-63 -63zM356 0h30l14 150l26 195l-20 141l-143 54l-146 -57l-48 -114l-2 -14h40l39 103l117 44l108 -37l16 -115l-3 -24l-176 -28l-120 -37l-68 -114l-2 -16l34 -102l108 -39l119 28l78 62zM192 780l69 -160h42
l-69 160h-42z" />
    <glyph glyph-name="aacute" unicode="&#xe1;" horiz-adv-x="496" 
d="M160 28l-80 33l-20 73l2 16l43 77l98 34l176 28l-21 -160l-63 -63zM356 0h30l14 150l26 195l-20 141l-143 54l-146 -57l-48 -114l-2 -14h40l39 103l117 44l108 -37l16 -115l-3 -24l-176 -28l-120 -37l-68 -114l-2 -16l34 -102l108 -39l119 28l78 62zM372 780l-111 -160
h42l111 160h-42z" />
    <glyph glyph-name="acircumflex" unicode="&#xe2;" horiz-adv-x="497" 
d="M160 28l-80 33l-20 73l2 16l43 77l98 34l176 28l-21 -160l-63 -63zM356 0h30l14 150l26 195l-20 141l-143 54l-146 -57l-48 -114l-2 -14h40l39 103l117 44l108 -37l16 -115l-3 -24l-176 -28l-120 -37l-68 -114l-2 -16l34 -102l108 -39l119 28l78 62zM184 620l116 124
l84 -124h43l-109 160h-30l-151 -160h47z" />
    <glyph glyph-name="atilde" unicode="&#xe3;" horiz-adv-x="500" 
d="M160 28l-80 33l-20 73l2 16l43 77l98 34l176 28l-21 -160l-63 -63zM356 0h30l14 150l26 195l-20 141l-143 54l-146 -57l-48 -114l-2 -14h40l39 103l117 44l108 -37l16 -115l-3 -24l-176 -28l-120 -37l-68 -114l-2 -16l34 -102l108 -39l119 28l78 62zM403 737l-16 -39
l-28 -11l-59 30l-71 30l-54 -21l-27 -63h35l16 39l27 11l59 -30l71 -30l54 21l28 63h-35z" />
    <glyph glyph-name="adieresis" unicode="&#xe4;" horiz-adv-x="496" 
d="M160 28l-80 33l-20 73l2 16l43 77l98 34l176 28l-21 -160l-63 -63zM356 0h30l14 150l26 195l-20 141l-143 54l-146 -57l-48 -114l-2 -14h40l39 103l117 44l108 -37l16 -115l-3 -24l-176 -28l-120 -37l-68 -114l-2 -16l34 -102l108 -39l119 28l78 62zM402 735h-60l-8 -60
h60zM252 735h-60l-8 -60h60z" />
    <glyph glyph-name="aring" unicode="&#xe5;" horiz-adv-x="496" 
d="M230 690l20 51l45 17l37 -14l14 -34l-20 -51l-45 -17l-37 14zM379 710l-23 57l-61 23l-70 -29l-28 -71l23 -57l61 -23l70 29zM160 28l-80 33l-20 73l2 16l43 77l98 34l176 28l-21 -160l-63 -63zM356 0h30l14 150l26 195l-20 141l-143 54l-146 -57l-48 -114l-2 -14h40
l39 103l117 44l108 -37l16 -115l-3 -24l-176 -28l-120 -37l-68 -114l-2 -16l34 -102l108 -39l119 28l78 62z" />
    <glyph glyph-name="ae" unicode="&#xe6;" horiz-adv-x="871" 
d="M160 28l-80 33l-20 73l2 16l43 77l98 34l176 28l-4 -30l-4 -54l4 -51l-80 -87zM624 502l123 -58l21 -160h-348l65 156zM804 246l4 32l-26 184l-158 78l-123 -35l-78 -96l-37 96l-123 35l-146 -57l-48 -114l-2 -14h40l39 103l117 44l108 -37l16 -115l-3 -24l-176 -28
l-120 -37l-68 -114l-2 -16l34 -102l108 -39l125 31l100 89l66 -87l129 -33l153 55l60 118l1 7h-40l-45 -95l-129 -47l-138 60l-26 158h388z" />
    <glyph glyph-name="ccedilla" unicode="&#xe7;" horiz-adv-x="518" 
d="M119 -183l38 -19l49 -8l71 18l30 62l-28 52l-57 14h-5l28 54l143 63l49 113l2 14h-40l-44 -105l-121 -47l-128 64l-25 170l2 16l62 164l133 60l118 -47l25 -115h39l2 15l-28 120l-156 65l-166 -74l-71 -191l-2 -16l27 -182l143 -86l-37 -74l14 -16l8 1l20 1l41 -7l18 -30
l-18 -33l-49 -10l-42 7l-30 15z" />
    <glyph glyph-name="egrave" unicode="&#xe8;" horiz-adv-x="536" 
d="M288 502l123 -58l21 -160h-348l65 156zM468 246l4 32l-26 184l-158 78l-171 -74l-76 -191l-2 -16l30 -189l175 -80l153 55l60 118l1 7h-40l-45 -95l-129 -47l-138 60l-26 158h388zM212 780l69 -160h42l-69 160h-42z" />
    <glyph glyph-name="eacute" unicode="&#xe9;" horiz-adv-x="536" 
d="M288 502l123 -58l21 -160h-348l65 156zM468 246l4 32l-26 184l-158 78l-171 -74l-76 -191l-2 -16l30 -189l175 -80l153 55l60 118l1 7h-40l-45 -95l-129 -47l-138 60l-26 158h388zM392 780l-111 -160h42l111 160h-42z" />
    <glyph glyph-name="ecircumflex" unicode="&#xea;" horiz-adv-x="536" 
d="M288 502l123 -58l21 -160h-348l65 156zM468 246l4 32l-26 184l-158 78l-171 -74l-76 -191l-2 -16l30 -189l175 -80l153 55l60 118l1 7h-40l-45 -95l-129 -47l-138 60l-26 158h388zM204 620l116 124l84 -124h43l-109 160h-30l-151 -160h47z" />
    <glyph glyph-name="edieresis" unicode="&#xeb;" horiz-adv-x="536" 
d="M288 502l123 -58l21 -160h-348l65 156zM468 246l4 32l-26 184l-158 78l-171 -74l-76 -191l-2 -16l30 -189l175 -80l153 55l60 118l1 7h-40l-45 -95l-129 -47l-138 60l-26 158h388zM422 735h-60l-8 -60h60zM272 735h-60l-8 -60h60z" />
    <glyph glyph-name="igrave" unicode="&#xec;" horiz-adv-x="200" 
d="M42 780l69 -160h42l-69 160h-42zM31 0h40l69 530h-40z" />
    <glyph glyph-name="iacute" unicode="&#xed;" horiz-adv-x="200" 
d="M222 780l-111 -160h42l111 160h-42zM31 0h40l69 530h-40z" />
    <glyph glyph-name="icircumflex" unicode="&#xee;" horiz-adv-x="200" 
d="M34 620l116 124l84 -124h43l-109 160h-30l-151 -160h47zM31 0h40l69 530h-40z" />
    <glyph glyph-name="idieresis" unicode="&#xef;" horiz-adv-x="200" 
d="M102 735h-60l-8 -60h60zM252 735h-60l-8 -60h60zM31 0h40l69 530h-40z" />
    <glyph glyph-name="eth" unicode="&#xf0;" horiz-adv-x="533" 
d="M229 28l-125 64l-23 170l2 16l64 164l136 60l125 -64l23 -170l-2 -16l-64 -164zM107 772l87 -18l81 -36l-143 -78l-6 -43l182 99l31 -26l29 -32l44 -80l24 -93l-58 55l-95 20l-168 -74l-74 -191l-2 -16l30 -190l160 -79l168 74l74 191l2 16l2 213l-71 180l-26 30l-28 25
l88 48l6 43l-125 -68l-99 47l-108 21z" />
    <glyph glyph-name="ntilde" unicode="&#xf1;" horiz-adv-x="509" 
d="M396 0l49 375l-30 121l-125 44l-103 -25l-73 -63l1 78h-30l-14 -150l-50 -380h40l53 410l63 61l108 31l95 -30l24 -102l-48 -370h40zM411 737l-16 -39l-28 -11l-59 30l-71 30l-54 -21l-27 -63h35l16 39l27 11l59 -30l71 -30l54 21l28 63h-35z" />
    <glyph glyph-name="ograve" unicode="&#xf2;" horiz-adv-x="536" 
d="M229 -10l168 74l74 191l2 16l-30 190l-160 79l-168 -74l-74 -191l-2 -16l30 -190zM229 28l-125 64l-23 170l2 16l64 164l136 60l125 -64l23 -170l-2 -16l-64 -164zM212 780l69 -160h42l-69 160h-42z" />
    <glyph glyph-name="oacute" unicode="&#xf3;" horiz-adv-x="536" 
d="M229 -10l168 74l74 191l2 16l-30 190l-160 79l-168 -74l-74 -191l-2 -16l30 -190zM229 28l-125 64l-23 170l2 16l64 164l136 60l125 -64l23 -170l-2 -16l-64 -164zM392 780l-111 -160h42l111 160h-42z" />
    <glyph glyph-name="ocircumflex" unicode="&#xf4;" horiz-adv-x="536" 
d="M229 -10l168 74l74 191l2 16l-30 190l-160 79l-168 -74l-74 -191l-2 -16l30 -190zM229 28l-125 64l-23 170l2 16l64 164l136 60l125 -64l23 -170l-2 -16l-64 -164zM204 620l116 124l84 -124h43l-109 160h-30l-151 -160h47z" />
    <glyph glyph-name="otilde" unicode="&#xf5;" horiz-adv-x="536" 
d="M229 -10l168 74l74 191l2 16l-30 190l-160 79l-168 -74l-74 -191l-2 -16l30 -190zM229 28l-125 64l-23 170l2 16l64 164l136 60l125 -64l23 -170l-2 -16l-64 -164zM423 737l-16 -39l-28 -11l-59 30l-71 30l-54 -21l-27 -63h35l16 39l27 11l59 -30l71 -30l54 21l28 63h-35
z" />
    <glyph glyph-name="odieresis" unicode="&#xf6;" horiz-adv-x="536" 
d="M229 -10l168 74l74 191l2 16l-30 190l-160 79l-168 -74l-74 -191l-2 -16l30 -190zM229 28l-125 64l-23 170l2 16l64 164l136 60l125 -64l23 -170l-2 -16l-64 -164zM422 735h-60l-8 -60h60zM272 735h-60l-8 -60h60z" />
    <glyph glyph-name="divide" unicode="&#xf7;" horiz-adv-x="600" 
d="M364 640h-60l-8 -60h60zM306 200h-60l-8 -60h60zM48 370h500l5 40h-500z" />
    <glyph glyph-name="oslash" unicode="&#xf8;" horiz-adv-x="540" 
d="M229 28l-67 12l-47 35l301 348l17 -69l-2 -86l-2 -16l-64 -164zM81 262l2 16l64 164l136 60l66 -12l47 -36l-300 -347l-17 69zM229 -10l168 74l74 191l2 16v102l-28 84l63 73h-46l-38 -44l-59 40l-82 14l-168 -74l-74 -191l-2 -16v-102l27 -85l-62 -72h46l38 44l59 -40z
" />
    <glyph glyph-name="ugrave" unicode="&#xf9;" horiz-adv-x="510" 
d="M85 530l-49 -375l30 -121l125 -44l103 25l73 63l-1 -78h30l14 150l50 380h-40l-53 -410l-63 -61l-108 -31l-95 30l-24 102l48 370h-40zM194 780l69 -160h42l-69 160h-42z" />
    <glyph glyph-name="uacute" unicode="&#xfa;" horiz-adv-x="510" 
d="M85 530l-49 -375l30 -121l125 -44l103 25l73 63l-1 -78h30l14 150l50 380h-40l-53 -410l-63 -61l-108 -31l-95 30l-24 102l48 370h-40zM374 780l-111 -160h42l111 160h-42z" />
    <glyph glyph-name="ucircumflex" unicode="&#xfb;" horiz-adv-x="510" 
d="M85 530l-49 -375l30 -121l125 -44l103 25l73 63l-1 -78h30l14 150l50 380h-40l-53 -410l-63 -61l-108 -31l-95 30l-24 102l48 370h-40zM186 620l116 124l84 -124h43l-109 160h-30l-151 -160h47z" />
    <glyph glyph-name="udieresis" unicode="&#xfc;" horiz-adv-x="510" 
d="M85 530l-49 -375l30 -121l125 -44l103 25l73 63l-1 -78h30l14 150l50 380h-40l-53 -410l-63 -61l-108 -31l-95 30l-24 102l48 370h-40zM404 735h-60l-8 -60h60zM254 735h-60l-8 -60h60z" />
    <glyph glyph-name="yacute" unicode="&#xfd;" horiz-adv-x="462" 
d="M198 65l-108 465h-41l124 -510l-111 -220h44l107 218l258 512h-43zM362 780l-111 -160h42l111 160h-42z" />
    <glyph glyph-name="thorn" unicode="&#xfe;" horiz-adv-x="521" 
d="M413 252l-61 -164l-134 -60l-93 33l-48 65l38 290l65 61l94 25l120 -63l21 -171zM126 800l-132 -1000h40l36 271l50 -52l98 -29l166 74l71 191l2 16l-28 190l-155 79l-89 -20l-62 -50l43 330h-40z" />
    <glyph glyph-name="ydieresis" unicode="&#xff;" horiz-adv-x="462" 
d="M198 65l-108 465h-41l124 -510l-111 -220h44l107 218l258 512h-43zM242 735h-60l-8 -60h60zM392 735h-60l-8 -60h60z" />
    <glyph glyph-name="Amacron" unicode="&#x100;" horiz-adv-x="600" 
d="M351 750l82 -501h-297zM325 790l-340 -790h46l89 211h319l36 -211h42l-132 790h-60zM266 875h200l5 40h-200z" />
    <glyph glyph-name="amacron" unicode="&#x101;" horiz-adv-x="496" 
d="M160 28l-80 33l-20 73l2 16l43 77l98 34l176 28l-21 -160l-63 -63zM356 0h30l14 150l26 195l-20 141l-143 54l-146 -57l-48 -114l-2 -14h40l39 103l117 44l108 -37l16 -115l-3 -24l-176 -28l-120 -37l-68 -114l-2 -16l34 -102l108 -39l119 28l78 62zM185 680h210l5 40
h-210z" />
    <glyph glyph-name="Abreve" unicode="&#x102;" horiz-adv-x="600" 
d="M351 750l82 -501h-297zM325 790l-340 -790h46l89 211h319l36 -211h42l-132 790h-60zM362 830l101 34l45 86h-36l-32 -62l-76 -25l-69 25l-15 62h-36l24 -86z" />
    <glyph glyph-name="abreve" unicode="&#x103;" horiz-adv-x="500" 
d="M160 28l-80 33l-20 73l2 16l43 77l98 34l176 28l-21 -160l-63 -63zM356 0h30l14 150l26 195l-20 141l-143 54l-146 -57l-48 -114l-2 -14h40l39 103l117 44l108 -37l16 -115l-3 -24l-176 -28l-120 -37l-68 -114l-2 -16l34 -102l108 -39l119 28l78 62zM283 610l121 48
l51 122h-36l-39 -98l-95 -39l-85 39l-13 98h-36l22 -122z" />
    <glyph glyph-name="Aogonek" unicode="&#x104;" horiz-adv-x="600" 
d="M351 750l82 -501h-297zM325 790l-340 -790h46l89 211h319l34 -200l-70 -56l-30 -86l25 -59l68 -20l40 5l38 14l-8 28l-30 -10l-33 -4l-48 13l-18 37l37 80l73 47l-132 790h-60z" />
    <glyph glyph-name="aogonek" unicode="&#x105;" horiz-adv-x="496" 
d="M160 28l-80 33l-20 73l2 16l43 77l98 34l176 28l-21 -160l-63 -63zM386 0l14 150l26 195l-20 141l-143 54l-146 -57l-48 -114l-2 -14h40l39 103l117 44l108 -37l16 -115l-3 -24l-176 -28l-120 -37l-68 -114l-2 -16l34 -102l108 -39l119 28l78 62l-1 -62l-79 -56l-35 -93
l25 -59l68 -20l40 5l38 14l-8 28l-30 -10l-33 -4l-48 13l-18 37l37 80z" />
    <glyph glyph-name="Cacute" unicode="&#x106;" horiz-adv-x="601" 
d="M108 402l86 268l170 82h6l137 -58l19 -194h42l3 19l-30 199l-174 72l-201 -92l-100 -296l-3 -24l29 -299l184 -89l181 69l77 182l1 9h-42l-65 -165l-149 -57h-6l-149 80l-19 270zM435 950l-77 -110h42l77 110h-42z" />
    <glyph glyph-name="cacute" unicode="&#x107;" horiz-adv-x="518" 
d="M83 278l62 164l133 60l118 -47l25 -115h39l2 15l-28 120l-156 65l-166 -74l-71 -191l-2 -16l32 -190l163 -79l152 60l51 116l2 14h-40l-44 -105l-121 -47l-128 64l-25 170zM392 780l-111 -160h42l111 160h-42z" />
    <glyph glyph-name="Ccircumflex" unicode="&#x108;" horiz-adv-x="601" 
d="M108 402l86 268l170 82h6l137 -58l19 -194h42l3 19l-30 199l-174 72l-201 -92l-100 -296l-3 -24l29 -299l184 -89l181 69l77 182l1 9h-42l-65 -165l-149 -57h-6l-149 80l-19 270zM311 840l80 77l60 -77h43l-85 110h-30l-115 -110h47z" />
    <glyph glyph-name="ccircumflex" unicode="&#x109;" horiz-adv-x="518" 
d="M83 278l62 164l133 60l118 -47l25 -115h39l2 15l-28 120l-156 65l-166 -74l-71 -191l-2 -16l32 -190l163 -79l152 60l51 116l2 14h-40l-44 -105l-121 -47l-128 64l-25 170zM204 620l116 124l84 -124h43l-109 160h-30l-151 -160h47z" />
    <glyph glyph-name="Cdotaccent" unicode="&#x10a;" horiz-adv-x="601" 
d="M108 402l86 268l170 82h6l137 -58l19 -194h42l3 19l-30 199l-174 72l-201 -92l-100 -296l-3 -24l29 -299l184 -89l181 69l77 182l1 9h-42l-65 -165l-149 -57h-6l-149 80l-19 270zM420 925h-60l-8 -60h60z" />
    <glyph glyph-name="cdotaccent" unicode="&#x10b;" horiz-adv-x="518" 
d="M83 278l62 164l133 60l118 -47l25 -115h39l2 15l-28 120l-156 65l-166 -74l-71 -191l-2 -16l32 -190l163 -79l152 60l51 116l2 14h-40l-44 -105l-121 -47l-128 64l-25 170zM347 735h-60l-8 -60h60z" />
    <glyph glyph-name="Ccaron" unicode="&#x10c;" horiz-adv-x="601" 
d="M108 402l86 268l170 82h6l137 -58l19 -194h42l3 19l-30 199l-174 72l-201 -92l-100 -296l-3 -24l29 -299l184 -89l181 69l77 182l1 9h-42l-65 -165l-149 -57h-6l-149 80l-19 270zM279 950l85 -110h30l115 110h-47l-81 -77l-59 77h-43z" />
    <glyph glyph-name="ccaron" unicode="&#x10d;" horiz-adv-x="520" 
d="M83 278l62 164l133 60l118 -47l25 -115h39l2 15l-28 120l-156 65l-166 -74l-71 -191l-2 -16l32 -190l163 -79l152 60l51 116l2 14h-40l-44 -105l-121 -47l-128 64l-25 170zM178 780l109 -160h30l151 160h-47l-116 -124l-84 124h-43z" />
    <glyph glyph-name="Dcaron" unicode="&#x10e;" horiz-adv-x="623" 
d="M76 38l92 704h149l175 -78l36 -262l-3 -24l-105 -262l-199 -78h-145zM570 402l-47 290l-203 88h-187l-102 -780h190l226 88l120 290zM246 950l85 -110h30l115 110h-49l-81 -77l-59 77h-41z" />
    <glyph glyph-name="dcaron" unicode="&#x10f;" horiz-adv-x="525" 
d="M278 502l93 -32l48 -66l-38 -290l-63 -58l-96 -28l-120 63l-21 171l2 16l62 164zM222 -10l92 22l66 57l1 -69h30l14 150l86 650h-40l-45 -341l-50 52l-98 29l-166 -74l-71 -191l-2 -16l28 -190zM591 800l-24 -180h30l39 180h-45z" />
    <glyph glyph-name="Dcroat" unicode="&#x110;" horiz-adv-x="683" 
d="M136 38l44 341h230l5 38h-230l43 325h149l175 -78l36 -262l-3 -24l-105 -262l-199 -78h-145zM630 402l-47 290l-203 88h-187l-48 -363h-120l-5 -38h120l-49 -379h190l226 88l120 290z" />
    <glyph glyph-name="dcroat" unicode="&#x111;" horiz-adv-x="525" 
d="M278 502l93 -32l48 -66l-38 -290l-63 -58l-96 -28l-120 63l-21 171l2 16l62 164zM222 -10l92 22l66 57l1 -69h30l14 150l65 496h101l5 38h-101l16 116h-40l-16 -116h-139l-5 -38h139l-24 -187l-50 52l-98 29l-166 -74l-71 -191l-2 -16l28 -190z" />
    <glyph glyph-name="Emacron" unicode="&#x112;" horiz-adv-x="540" 
d="M266 875h200l5 40h-200zM133 780l-102 -780h420l5 38h-380l44 341h330l5 38h-330l43 325h380l5 38h-420z" />
    <glyph glyph-name="emacron" unicode="&#x113;" horiz-adv-x="536" 
d="M288 502l123 -58l21 -160h-348l65 156zM468 246l4 32l-26 184l-158 78l-171 -74l-76 -191l-2 -16l30 -189l175 -80l153 55l60 118l1 7h-40l-45 -95l-129 -47l-138 60l-26 158h388zM205 680h210l5 40h-210z" />
    <glyph glyph-name="Ebreve" unicode="&#x114;" horiz-adv-x="540" 
d="M362 830l101 34l45 86h-36l-32 -62l-76 -25l-69 25l-15 62h-36l24 -86zM133 780l-102 -780h420l5 38h-380l44 341h330l5 38h-330l43 325h380l5 38h-420z" />
    <glyph glyph-name="ebreve" unicode="&#x115;" horiz-adv-x="539" 
d="M288 502l123 -58l21 -160h-348l65 156zM468 246l4 32l-26 184l-158 78l-171 -74l-76 -191l-2 -16l30 -189l175 -80l153 55l60 118l1 7h-40l-45 -95l-129 -47l-138 60l-26 158h388zM303 610l121 48l51 122h-36l-39 -98l-95 -39l-85 39l-13 98h-36l22 -122z" />
    <glyph glyph-name="Edotaccent" unicode="&#x116;" horiz-adv-x="540" 
d="M402 925h-60l-8 -60h60zM133 780l-102 -780h420l5 38h-380l44 341h330l5 38h-330l43 325h380l5 38h-420z" />
    <glyph glyph-name="edotaccent" unicode="&#x117;" horiz-adv-x="536" 
d="M288 502l123 -58l21 -160h-348l65 156zM468 246l4 32l-26 184l-158 78l-171 -74l-76 -191l-2 -16l30 -189l175 -80l153 55l60 118l1 7h-40l-45 -95l-129 -47l-138 60l-26 158h388zM347 735h-60l-8 -60h60z" />
    <glyph glyph-name="Eogonek" unicode="&#x118;" horiz-adv-x="540" 
d="M133 780l-102 -780h357l-57 -53l-24 -78l25 -59l68 -20l40 5l38 14l-8 28l-30 -10l-33 -4l-48 13l-18 37l37 80l73 47l5 38h-380l44 341h330l5 38h-330l43 325h380l5 38h-420z" />
    <glyph glyph-name="eogonek" unicode="&#x119;" horiz-adv-x="536" 
d="M288 502l123 -58l21 -160h-348l65 156zM468 246l4 32l-26 184l-158 78l-171 -74l-76 -191l-2 -16l29 -188l172 -81l-48 -51l-19 -70l25 -59l68 -20l40 5l38 14l-8 28l-30 -10l-33 -4l-48 13l-18 37l37 80l73 47l99 66l41 97l1 7h-40l-45 -95l-129 -47l-138 60l-26 158
h388z" />
    <glyph glyph-name="Ecaron" unicode="&#x11a;" horiz-adv-x="540" 
d="M261 950l85 -110h30l115 110h-45l-81 -77l-59 77h-45zM133 780l-102 -780h420l5 38h-380l44 341h330l5 38h-330l43 325h380l5 38h-420z" />
    <glyph glyph-name="ecaron" unicode="&#x11b;" horiz-adv-x="536" 
d="M288 502l123 -58l21 -160h-348l65 156zM468 246l4 32l-26 184l-158 78l-171 -74l-76 -191l-2 -16l30 -189l175 -80l153 55l60 118l1 7h-40l-45 -95l-129 -47l-138 60l-26 158h388zM178 780l109 -160h30l151 160h-47l-116 -124l-84 124h-43z" />
    <glyph glyph-name="Gcircumflex" unicode="&#x11c;" horiz-adv-x="632" 
d="M285 -10l150 29l88 60l38 292h-185l-5 -38h145l-30 -234l-76 -49l-122 -22h-6l-154 80l-24 270l3 24l89 268l172 82h6l140 -58l21 -194h42l3 19l-32 199l-177 72l-204 -92l-102 -296l-3 -24l34 -299zM317 840l80 77l60 -77h43l-85 110h-30l-115 -110h47z" />
    <glyph glyph-name="gcircumflex" unicode="&#x11d;" horiz-adv-x="525" 
d="M386 154l-64 -61l-95 -25l-121 58l-22 156l2 16l60 151l132 53l93 -32l48 -66zM365 -5l-46 -123l-127 -44l-114 42l-25 130h-37l-2 -15l29 -139l149 -56l155 59l57 141l52 390l24 150h-30l-19 -81l-52 60l-101 31l-165 -68l-69 -177l-2 -16l28 -175l157 -74l89 20l62 50z
M194 620l116 124l84 -124h43l-109 160h-30l-151 -160h47z" />
    <glyph glyph-name="Gbreve" unicode="&#x11e;" horiz-adv-x="632" 
d="M285 -10l150 29l88 60l38 292h-185l-5 -38h145l-30 -234l-76 -49l-122 -22h-6l-154 80l-24 270l3 24l89 268l172 82h6l140 -58l21 -194h42l3 19l-32 199l-177 72l-204 -92l-102 -296l-3 -24l34 -299zM386 830l101 34l45 86h-36l-32 -62l-76 -25l-69 25l-15 62h-36l24 -86
z" />
    <glyph glyph-name="gbreve" unicode="&#x11f;" horiz-adv-x="525" 
d="M386 154l-64 -61l-95 -25l-121 58l-22 156l2 16l60 151l132 53l93 -32l48 -66zM365 -5l-46 -123l-127 -44l-114 42l-25 130h-37l-2 -15l29 -139l149 -56l155 59l57 141l52 390l24 150h-30l-19 -81l-52 60l-101 31l-165 -68l-69 -177l-2 -16l28 -175l157 -74l89 20l62 50z
M293 610l121 48l51 122h-36l-39 -98l-95 -39l-85 39l-13 98h-36l22 -122z" />
    <glyph glyph-name="Gdotaccent" unicode="&#x120;" horiz-adv-x="632" 
d="M285 -10l150 29l88 60l38 292h-185l-5 -38h145l-30 -234l-76 -49l-122 -22h-6l-154 80l-24 270l3 24l89 268l172 82h6l140 -58l21 -194h42l3 19l-32 199l-177 72l-204 -92l-102 -296l-3 -24l34 -299zM426 925h-60l-8 -60h60z" />
    <glyph glyph-name="gdotaccent" unicode="&#x121;" horiz-adv-x="525" 
d="M386 154l-64 -61l-95 -25l-121 58l-22 156l2 16l60 151l132 53l93 -32l48 -66zM365 -5l-46 -123l-127 -44l-114 42l-25 130h-37l-2 -15l29 -139l149 -56l155 59l57 141l52 390l24 150h-30l-19 -81l-52 60l-101 31l-165 -68l-69 -177l-2 -16l28 -175l157 -74l89 20l62 50z
M337 735h-60l-8 -60h60z" />
    <glyph glyph-name="Gcommaaccent" unicode="&#x122;" horiz-adv-x="632" 
d="M285 -10l150 29l88 60l38 292h-185l-5 -38h145l-30 -234l-76 -49l-122 -22h-6l-154 80l-24 270l3 24l89 268l172 82h6l140 -58l21 -194h42l3 19l-32 199l-177 72l-204 -92l-102 -296l-3 -24l34 -299zM307 -60h-60l-8 -60h30l-25 -46l-43 -14l-4 -30l69 28l34 74z" />
    <glyph glyph-name="gcommaaccent" unicode="&#x123;" horiz-adv-x="525" 
d="M386 154l-64 -61l-95 -25l-121 58l-22 156l2 16l60 151l132 53l93 -32l48 -66zM365 -5l-46 -123l-127 -44l-114 42l-25 130h-37l-2 -15l29 -139l149 -56l155 59l57 141l52 390l24 150h-30l-19 -81l-52 60l-101 31l-165 -68l-69 -177l-2 -16l28 -175l157 -74l89 20l62 50z
M262 620h60l8 60h-30l25 63l46 17l4 30l-72 -30l-35 -92z" />
    <glyph glyph-name="Hcircumflex" unicode="&#x124;" horiz-adv-x="630" 
d="M308 840l80 77l60 -77h43l-85 110h-30l-115 -110h47zM563 780l-48 -363h-390l48 363h-40l-102 -780h40l49 379h390l-49 -379h40l102 780h-40z" />
    <glyph glyph-name="hcircumflex" unicode="&#x125;" horiz-adv-x="508" 
d="M166 800h-40l-105 -800h40l53 410l63 61l108 31l95 -30l24 -102l-48 -370h40l49 375l-30 121l-125 44l-101 -24l-68 -56zM83 840l80 77l60 -77h43l-85 110h-30l-115 -110h47z" />
    <glyph glyph-name="Hbar" unicode="&#x126;" horiz-adv-x="630" 
d="M125 417l22 164h390l-22 -164h-390zM563 780l-21 -161h-390l21 161h-40l-102 -780h40l49 379h390l-49 -379h40l102 780h-40z" />
    <glyph glyph-name="hbar" unicode="&#x127;" horiz-adv-x="508" 
d="M166 800h-40l-15 -116h-100l-5 -38h100l-85 -646h40l53 410l63 61l108 31l95 -30l24 -102l-48 -370h40l49 375l-30 121l-125 44l-101 -24l-68 -56l24 186h141l5 38h-141z" />
    <glyph glyph-name="Itilde" unicode="&#x128;" horiz-adv-x="210" 
d="M282 932l-15 -39l-31 -12l-55 31l-69 30l-55 -21l-29 -63h36l16 39l30 12l56 -30l69 -31l55 21l28 63h-36zM178 780h-40l-102 -780h40z" />
    <glyph glyph-name="itilde" unicode="&#x129;" horiz-adv-x="200" 
d="M253 737l-16 -39l-28 -11l-59 30l-71 30l-54 -21l-27 -63h35l16 39l27 11l59 -30l71 -30l54 21l28 63h-35zM31 0h40l69 530h-40z" />
    <glyph glyph-name="Imacron" unicode="&#x12a;" horiz-adv-x="210" 
d="M71 875h200l5 40h-200zM178 780h-40l-102 -780h40z" />
    <glyph glyph-name="imacron" unicode="&#x12b;" horiz-adv-x="200" 
d="M35 680h210l5 40h-210zM31 0h40l69 530h-40z" />
    <glyph glyph-name="Ibreve" unicode="&#x12c;" horiz-adv-x="210" 
d="M167 830l101 34l45 86h-36l-32 -62l-76 -25l-69 25l-15 62h-36l24 -86zM178 780h-40l-102 -780h40z" />
    <glyph glyph-name="ibreve" unicode="&#x12d;" horiz-adv-x="200" 
d="M133 610l121 48l51 122h-36l-39 -98l-95 -39l-85 39l-13 98h-36l22 -122zM31 0h40l69 530h-40z" />
    <glyph glyph-name="Iogonek" unicode="&#x12e;" horiz-adv-x="210" 
d="M178 780h-40l-100 -766l-74 -56l-32 -89l25 -59l68 -20l40 5l38 14l-8 28l-30 -10l-33 -4l-48 13l-18 37l37 80l73 47z" />
    <glyph glyph-name="iogonek" unicode="&#x12f;" horiz-adv-x="200" 
d="M71 0l69 530h-40l-67 -516l-74 -56l-32 -89l25 -59l68 -20l40 5l38 14l-8 28l-30 -10l-33 -4l-48 13l-18 37l37 80zM177 735h-60l-8 -60h60z" />
    <glyph glyph-name="Idotaccent" unicode="&#x130;" horiz-adv-x="210" 
d="M207 925h-60l-8 -60h60zM178 780h-40l-102 -780h40z" />
    <glyph glyph-name="dotlessi" unicode="&#x131;" horiz-adv-x="200" 
d="M31 0h40l69 530h-40z" />
    <glyph glyph-name="IJ" unicode="&#x132;" horiz-adv-x="460" 
d="M178 780h-40l-102 -780h40zM313 133l-35 -82l-71 -23l-39 4l-27 7l-5 -37l23 -8l48 -4l96 32l50 106l85 652h-40z" />
    <glyph glyph-name="ij" unicode="&#x133;" horiz-adv-x="350" 
d="M172 -67l-38 -83l-81 -22l-37 3l-26 6l-5 -36l24 -7l44 -4l106 30l51 101l80 609h-40zM327 735h-60l-8 -60h60zM177 735h-60l-8 -60h60zM31 0h40l69 530h-40z" />
    <glyph glyph-name="Jcircumflex" unicode="&#x134;" horiz-adv-x="480" 
d="M378 840l80 77l60 -77h43l-85 110h-30l-115 -110h47zM418 780l-70 -530l-57 -169l-120 -53l-107 52l-12 170h-38l-1 -7l17 -186l140 -67l153 67l64 183l71 540h-40z" />
    <glyph glyph-name="jcircumflex" unicode="&#x135;" horiz-adv-x="200" 
d="M22 -67l-39 -83l-80 -22l-37 3l-26 6l-5 -36l24 -7l44 -4l106 30l51 101l80 609h-40zM34 620l116 124l84 -124h43l-109 160h-30l-151 -160h47z" />
    <glyph glyph-name="Kcommaaccent" unicode="&#x136;" horiz-adv-x="540" 
d="M173 780h-40l-102 -780h40l32 246l140 166l164 -412h44l-180 445l282 335h-50l-391 -465zM238 -60h-60l-8 -60h30l-25 -46l-43 -14l-4 -30l69 28l34 74z" />
    <glyph glyph-name="kcommaaccent" unicode="&#x137;" horiz-adv-x="480" 
d="M21 0h40l21 162l147 140l129 -302h43l-142 330l211 200h-54l-327 -312l77 582h-40zM218 -60h-60l-8 -60h30l-25 -46l-43 -14l-4 -30l69 28l34 74z" />
    <glyph glyph-name="kgreenlandic" unicode="&#x138;" horiz-adv-x="480" 
d="M21 0h40l21 162l147 140l129 -302h43l-142 330l211 200h-54l-327 -312l41 312h-40z" />
    <glyph glyph-name="Lacute" unicode="&#x139;" horiz-adv-x="480" 
d="M217 950l-77 -110h42l77 110h-42zM416 0l5 38h-345l97 742h-40l-102 -780h385z" />
    <glyph glyph-name="lacute" unicode="&#x13a;" horiz-adv-x="200" 
d="M217 950l-77 -110h42l77 110h-42zM31 0h40l105 800h-40z" />
    <glyph glyph-name="Lcommaaccent" unicode="&#x13b;" horiz-adv-x="480" 
d="M248 -60h-60l-8 -60h30l-25 -46l-43 -14l-4 -30l69 28l34 74zM416 0l5 38h-345l97 742h-40l-102 -780h385z" />
    <glyph glyph-name="lcommaaccent" unicode="&#x13c;" horiz-adv-x="200" 
d="M73 -60h-60l-8 -60h30l-25 -46l-43 -14l-4 -30l69 28l34 74zM31 0h40l105 800h-40z" />
    <glyph glyph-name="Lcaron" unicode="&#x13d;" horiz-adv-x="480" 
d="M334 800l-24 -180h30l39 180h-45zM416 0l5 38h-345l97 742h-40l-102 -780h385z" />
    <glyph glyph-name="lcaron" unicode="&#x13e;" horiz-adv-x="200" 
d="M256 800l-24 -180h30l39 180h-45zM31 0h40l105 800h-40z" />
    <glyph glyph-name="Ldot" unicode="&#x13f;" horiz-adv-x="480" 
d="M369 428h-60l-8 -60h60zM416 0l5 38h-345l97 742h-40l-102 -780h385z" />
    <glyph glyph-name="ldot" unicode="&#x140;" 
d="M281 380h-60l-8 -60h60zM31 0h40l105 800h-40z" />
    <glyph glyph-name="Lslash" unicode="&#x141;" horiz-adv-x="540" 
d="M9 293l128 63l-46 -356h385l5 38h-345l44 339l246 121l6 42l-246 -121l47 361h-40l-50 -382l-128 -63z" />
    <glyph glyph-name="lslash" unicode="&#x142;" horiz-adv-x="310" 
d="M23 287l106 78l-48 -365h40l52 398l127 94l7 48l-128 -94l47 354h-40l-51 -387l-105 -78z" />
    <glyph glyph-name="Nacute" unicode="&#x143;" horiz-adv-x="650" 
d="M623 780h-39l-70 -530l-22 -190l-315 720h-44l-102 -780h39l69 530l22 190l316 -720h44zM442 950l-77 -110h42l77 110h-42z" />
    <glyph glyph-name="nacute" unicode="&#x144;" horiz-adv-x="508" 
d="M396 0l49 375l-30 121l-125 44l-103 -25l-73 -63l1 78h-30l-14 -150l-50 -380h40l53 410l63 61l108 31l95 -30l24 -102l-48 -370h40zM380 780l-111 -160h42l111 160h-42z" />
    <glyph glyph-name="Ncommaaccent" unicode="&#x145;" horiz-adv-x="650" 
d="M623 780h-39l-70 -530l-22 -190l-315 720h-44l-102 -780h39l69 530l22 190l316 -720h44zM298 -60h-60l-8 -60h30l-25 -46l-43 -14l-4 -30l69 28l34 74z" />
    <glyph glyph-name="ncommaaccent" unicode="&#x146;" horiz-adv-x="508" 
d="M396 0l49 375l-30 121l-125 44l-103 -25l-73 -63l1 78h-30l-14 -150l-50 -380h40l53 410l63 61l108 31l95 -30l24 -102l-48 -370h40zM231 -60h-60l-8 -60h30l-25 -46l-43 -14l-4 -30l69 28l34 74z" />
    <glyph glyph-name="Ncaron" unicode="&#x147;" horiz-adv-x="650" 
d="M623 780h-39l-70 -530l-22 -190l-315 720h-44l-102 -780h39l69 530l22 190l316 -720h44zM286 950l85 -110h30l115 110h-45l-81 -77l-59 77h-45z" />
    <glyph glyph-name="ncaron" unicode="&#x148;" horiz-adv-x="510" 
d="M396 0l49 375l-30 121l-125 44l-103 -25l-73 -63l1 78h-30l-14 -150l-50 -380h40l53 410l63 61l108 31l95 -30l24 -102l-48 -370h40zM166 780l109 -160h30l151 160h-47l-116 -124l-84 124h-43z" />
    <glyph glyph-name="Eng" unicode="&#x14a;" horiz-adv-x="650" 
d="M473 -60l-42 -90l-81 -22l-36 3l-24 6l-5 -37l22 -6l46 -4l107 33l52 112l111 845h-39l-70 -530l-22 -190l-315 720h-44l-102 -780h39l69 530l22 190l319 -726z" />
    <glyph glyph-name="eng" unicode="&#x14b;" horiz-adv-x="508" 
d="M445 375l-30 121l-125 44l-103 -25l-73 -63l1 78h-30l-14 -150l-50 -380h40l53 410l63 61l108 31l95 -30l24 -102l-57 -437l-38 -83l-81 -22l-37 3l-26 6l-5 -36l24 -7l44 -4l106 30l51 101z" />
    <glyph glyph-name="Omacron" unicode="&#x14c;" horiz-adv-x="631" 
d="M535 378l-86 -268l-170 -82h-6l-149 80l-19 270l3 24l86 268l170 82h6l149 -80l19 -270zM580 402l-29 299l-184 89l-201 -92l-100 -296l-3 -24l29 -299l184 -89l202 92l99 296zM286 875h200l5 40h-200z" />
    <glyph glyph-name="omacron" unicode="&#x14d;" horiz-adv-x="536" 
d="M229 -10l168 74l74 191l2 16l-30 190l-160 79l-168 -74l-74 -191l-2 -16l30 -190zM229 28l-125 64l-23 170l2 16l64 164l136 60l125 -64l23 -170l-2 -16l-64 -164zM205 680h210l5 40h-210z" />
    <glyph glyph-name="Obreve" unicode="&#x14e;" horiz-adv-x="631" 
d="M535 378l-86 -268l-170 -82h-6l-149 80l-19 270l3 24l86 268l170 82h6l149 -80l19 -270zM580 402l-29 299l-184 89l-201 -92l-100 -296l-3 -24l29 -299l184 -89l202 92l99 296zM382 830l101 34l45 86h-36l-32 -62l-76 -25l-69 25l-15 62h-36l24 -86z" />
    <glyph glyph-name="obreve" unicode="&#x14f;" horiz-adv-x="538" 
d="M229 -10l168 74l74 191l2 16l-30 190l-160 79l-168 -74l-74 -191l-2 -16l30 -190zM229 28l-125 64l-23 170l2 16l64 164l136 60l125 -64l23 -170l-2 -16l-64 -164zM303 610l121 48l51 122h-36l-39 -98l-95 -39l-85 39l-13 98h-36l22 -122z" />
    <glyph glyph-name="Ohungarumlaut" unicode="&#x150;" horiz-adv-x="631" 
d="M535 378l-86 -268l-170 -82h-6l-149 80l-19 270l3 24l86 268l170 82h6l149 -80l19 -270zM580 402l-29 299l-184 89l-201 -92l-100 -296l-3 -24l29 -299l184 -89l202 92l99 296zM492 950l-77 -110h42l77 110h-42zM382 950l-77 -110h42l77 110h-42z" />
    <glyph glyph-name="ohungarumlaut" unicode="&#x151;" horiz-adv-x="540" 
d="M229 -10l168 74l74 191l2 16l-30 190l-160 79l-168 -74l-74 -191l-2 -16l30 -190zM229 28l-125 64l-23 170l2 16l64 164l136 60l125 -64l23 -170l-2 -16l-64 -164zM337 780l-111 -160h42l111 160h-42zM447 780l-111 -160h42l111 160h-42z" />
    <glyph glyph-name="OE" unicode="&#x152;" horiz-adv-x="940" 
d="M528 742l-92 -704h-120l-175 78l-36 262l3 24l106 262l198 78h116zM63 378l47 -290l203 -88h538l5 38h-380l44 341h330l5 38h-330l43 325h380l5 38h-541l-226 -88l-120 -290z" />
    <glyph glyph-name="oe" unicode="&#x153;" horiz-adv-x="924" 
d="M676 502l123 -58l20 -160h-346l65 156zM228 28l-125 64l-22 170l2 16l64 164l135 60l125 -64l22 -170l-2 -16l-63 -164zM855 246l4 32l-26 184l-157 78l-132 -41l-80 -110l-56 109l-126 42l-168 -74l-73 -191l-2 -16l29 -190l160 -79l130 40l77 109l58 -107l139 -42
l153 55l59 118l1 7h-40l-44 -95l-129 -47l-138 60l-25 158h386z" />
    <glyph glyph-name="Racute" unicode="&#x154;" horiz-adv-x="567" 
d="M382 950l-77 -110h42l77 110h-42zM119 368l49 374h159l118 -34l47 -147l-3 -24l-80 -139l-123 -30h-167zM114 330h167l23 1l24 2l89 -333h44l-94 341l106 61l58 135l3 24l-54 173l-150 46h-197l-102 -780h40z" />
    <glyph glyph-name="racute" unicode="&#x155;" horiz-adv-x="315" 
d="M277 540l-97 -24l-65 -59v73h-30l-14 -150l-50 -380h40l53 410l60 61l103 31h10l4 37l-4 1h-10zM290 780l-111 -160h42l111 160h-42z" />
    <glyph glyph-name="Rcommaaccent" unicode="&#x156;" horiz-adv-x="567" 
d="M248 -60h-60l-8 -60h30l-25 -46l-43 -14l-4 -30l69 28l34 74zM119 368l49 374h159l118 -34l47 -147l-3 -24l-80 -139l-123 -30h-167zM114 330h167l23 1l24 2l89 -333h44l-94 341l106 61l58 135l3 24l-54 173l-150 46h-197l-102 -780h40z" />
    <glyph glyph-name="rcommaaccent" unicode="&#x157;" horiz-adv-x="315" 
d="M277 540l-97 -24l-65 -59v73h-30l-14 -150l-50 -380h40l53 410l60 61l103 31h10l4 37l-4 1h-10zM65 -60h-60l-8 -60h30l-25 -46l-43 -14l-4 -30l69 28l34 74z" />
    <glyph glyph-name="Rcaron" unicode="&#x158;" horiz-adv-x="567" 
d="M226 950l85 -110h30l115 110h-47l-81 -77l-59 77h-43zM119 368l49 374h159l118 -34l47 -147l-3 -24l-80 -139l-123 -30h-167zM114 330h167l23 1l24 2l89 -333h44l-94 341l106 61l58 135l3 24l-54 173l-150 46h-197l-102 -780h40z" />
    <glyph glyph-name="rcaron" unicode="&#x159;" horiz-adv-x="315" 
d="M277 540l-97 -24l-65 -59v73h-30l-14 -150l-50 -380h40l53 410l60 61l103 31h10l4 37l-4 1h-10zM76 780l109 -160h30l151 160h-47l-116 -124l-84 124h-43z" />
    <glyph glyph-name="Sacute" unicode="&#x15a;" horiz-adv-x="585" 
d="M288 386l151 -60l37 -120l-2 -16l-71 -122l-148 -40h-10l-141 51l-30 171h-40l-3 -19l41 -177l178 -64l181 51l85 152l2 16l-36 135l-170 76l-152 62l-31 110l2 16l64 108l135 36h10l142 -54l27 -178h40l3 19l-35 183l-182 68l-165 -44l-81 -141l-2 -16l34 -124zM412 950
l-77 -110h42l77 110h-42z" />
    <glyph glyph-name="sacute" unicode="&#x15b;" horiz-adv-x="517" 
d="M220 28l-122 38l-21 94h-39l-1 -8l29 -112l154 -50l141 39l61 102l1 8l-30 101l-128 48l-125 40l-24 74l47 76l107 24l119 -38l19 -104h39l1 8l-29 124l-149 48l-138 -37l-58 -97l-1 -8l29 -90l133 -52l120 -37l25 -84l-47 -79zM382 780l-111 -160h42l111 160h-42z" />
    <glyph glyph-name="Scircumflex" unicode="&#x15c;" horiz-adv-x="585" 
d="M288 386l151 -60l37 -120l-2 -16l-71 -122l-148 -40h-10l-141 51l-30 171h-40l-3 -19l41 -177l178 -64l181 51l85 152l2 16l-36 135l-170 76l-152 62l-31 110l2 16l64 108l135 36h10l142 -54l27 -178h40l3 19l-35 183l-182 68l-165 -44l-81 -141l-2 -16l34 -124zM288 840
l80 77l60 -77h43l-85 110h-30l-115 -110h47z" />
    <glyph glyph-name="scircumflex" unicode="&#x15d;" horiz-adv-x="517" 
d="M220 28l-122 38l-21 94h-39l-1 -8l29 -112l154 -50l141 39l61 102l1 8l-30 101l-128 48l-125 40l-24 74l47 76l107 24l119 -38l19 -104h39l1 8l-29 124l-149 48l-138 -37l-58 -97l-1 -8l29 -90l133 -52l120 -37l25 -84l-47 -79zM194 620l116 124l84 -124h43l-109 160h-30
l-151 -160h47z" />
    <glyph glyph-name="Scedilla" unicode="&#x15e;" horiz-adv-x="585" 
d="M139 -183l38 -19l49 -8l71 18l30 62l-28 52l-57 14h-5l28 54l171 55l80 148l2 16l-36 135l-170 76l-152 62l-31 110l2 16l64 108l135 36h10l142 -54l27 -178h40l3 19l-35 183l-182 68l-165 -44l-81 -141l-2 -16l34 -124l167 -79l151 -60l37 -120l-2 -16l-71 -122
l-148 -40h-10l-141 51l-30 171h-40l-3 -19l36 -172l162 -68l-37 -74l14 -16l8 1l20 1l41 -7l18 -30l-18 -33l-49 -10l-42 7l-30 15z" />
    <glyph glyph-name="scedilla" unicode="&#x15f;" horiz-adv-x="517" 
d="M220 28l-122 38l-21 94h-39l-1 -8l25 -107l132 -54l-37 -74l14 -16l8 1l20 1l41 -7l18 -30l-18 -33l-49 -10l-42 7l-30 15l-15 -28l38 -19l49 -8l71 18l30 62l-28 52l-57 14h-5l28 54l134 42l58 99l1 8l-30 101l-128 48l-125 40l-24 74l47 76l107 24l119 -38l19 -104h39
l1 8l-29 124l-149 48l-138 -37l-58 -97l-1 -8l29 -90l133 -52l120 -37l25 -84l-47 -79z" />
    <glyph glyph-name="Scaron" unicode="&#x160;" horiz-adv-x="585" 
d="M288 386l151 -60l37 -120l-2 -16l-71 -122l-148 -40h-10l-141 51l-30 171h-40l-3 -19l41 -177l178 -64l181 51l85 152l2 16l-36 135l-170 76l-152 62l-31 110l2 16l64 108l135 36h10l142 -54l27 -178h40l3 19l-35 183l-182 68l-165 -44l-81 -141l-2 -16l34 -124zM256 950
l85 -110h30l115 110h-47l-81 -77l-59 77h-43z" />
    <glyph glyph-name="scaron" unicode="&#x161;" horiz-adv-x="520" 
d="M220 28l-122 38l-21 94h-39l-1 -8l29 -112l154 -50l141 39l61 102l1 8l-30 101l-128 48l-125 40l-24 74l47 76l107 24l119 -38l19 -104h39l1 8l-29 124l-149 48l-138 -37l-58 -97l-1 -8l29 -90l133 -52l120 -37l25 -84l-47 -79zM168 780l109 -160h30l151 160h-47
l-116 -124l-84 124h-43z" />
    <glyph glyph-name="Tcommaaccent" unicode="&#x162;" horiz-adv-x="500" 
d="M223 -60h-60l-8 -60h30l-25 -46l-43 -14l-4 -30l69 28l34 74zM318 742h205l5 38h-450l-5 -38h205l-97 -742h40z" />
    <glyph glyph-name="tcommaaccent" unicode="&#x163;" horiz-adv-x="390" 
d="M180 530l20 150h-40l-20 -150h-85l-5 -38h85l-47 -357l26 -110l98 -35l45 4l24 6l4 37l-29 -6l-44 -3l-66 23l-17 89l46 352h180l5 38h-180zM203 -60h-60l-8 -60h30l-25 -46l-43 -14l-4 -30l69 28l34 74z" />
    <glyph glyph-name="Tcaron" unicode="&#x164;" horiz-adv-x="500" 
d="M211 950l85 -110h30l115 110h-47l-81 -77l-59 77h-43zM318 742h205l5 38h-450l-5 -38h205l-97 -742h40z" />
    <glyph glyph-name="tcaron" unicode="&#x165;" horiz-adv-x="390" 
d="M180 530l20 150h-40l-20 -150h-85l-5 -38h85l-47 -357l26 -110l98 -35l45 4l24 6l4 37l-29 -6l-44 -3l-66 23l-17 89l46 352h180l5 38h-180zM296 800l-24 -180h30l39 180h-45z" />
    <glyph glyph-name="Tbar" unicode="&#x166;" horiz-adv-x="500" 
d="M318 742h205l5 38h-450l-5 -38h205l-43 -325h-130l-5 -38h130l-49 -379h40l49 379h130l5 38h-130z" />
    <glyph glyph-name="tbar" unicode="&#x167;" horiz-adv-x="390" 
d="M180 530l20 150h-40l-20 -150h-85l-5 -38h85l-28 -208h-84l-5 -38h84l-14 -111l26 -110l98 -35l45 4l24 6l4 37l-29 -6l-44 -3l-66 23l-17 89l14 106h140l5 38h-140l27 208h180l5 38h-180z" />
    <glyph glyph-name="Utilde" unicode="&#x168;" horiz-adv-x="630" 
d="M273 -10l179 54l85 196l71 540h-40l-70 -535l-72 -171l-153 -46l-144 46l-31 171l70 535h-40l-71 -540l42 -197zM492 932l-15 -39l-31 -12l-55 31l-69 30l-55 -21l-29 -63h36l16 39l30 12l56 -30l69 -31l55 21l28 63h-36z" />
    <glyph glyph-name="utilde" unicode="&#x169;" horiz-adv-x="510" 
d="M85 530l-49 -375l30 -121l125 -44l103 25l73 63l-1 -78h30l14 150l50 380h-40l-53 -410l-63 -61l-108 -31l-95 30l-24 102l48 370h-40zM405 737l-16 -39l-28 -11l-59 30l-71 30l-54 -21l-27 -63h35l16 39l27 11l59 -30l71 -30l54 21l28 63h-35z" />
    <glyph glyph-name="Umacron" unicode="&#x16a;" horiz-adv-x="630" 
d="M273 -10l179 54l85 196l71 540h-40l-70 -535l-72 -171l-153 -46l-144 46l-31 171l70 535h-40l-71 -540l42 -197zM281 875h200l5 40h-200z" />
    <glyph glyph-name="umacron" unicode="&#x16b;" horiz-adv-x="510" 
d="M85 530l-49 -375l30 -121l125 -44l103 25l73 63l-1 -78h30l14 150l50 380h-40l-53 -410l-63 -61l-108 -31l-95 30l-24 102l48 370h-40zM187 680h210l5 40h-210z" />
    <glyph glyph-name="Ubreve" unicode="&#x16c;" horiz-adv-x="630" 
d="M273 -10l179 54l85 196l71 540h-40l-70 -535l-72 -171l-153 -46l-144 46l-31 171l70 535h-40l-71 -540l42 -197zM377 830l101 34l45 86h-36l-32 -62l-76 -25l-69 25l-15 62h-36l24 -86z" />
    <glyph glyph-name="ubreve" unicode="&#x16d;" horiz-adv-x="510" 
d="M85 530l-49 -375l30 -121l125 -44l103 25l73 63l-1 -78h30l14 150l50 380h-40l-53 -410l-63 -61l-108 -31l-95 30l-24 102l48 370h-40zM285 610l121 48l51 122h-36l-39 -98l-95 -39l-85 39l-13 98h-36l22 -122z" />
    <glyph glyph-name="Uring" unicode="&#x16e;" horiz-adv-x="630" 
d="M273 -10l179 54l85 196l71 540h-40l-70 -535l-72 -171l-153 -46l-144 46l-31 171l70 535h-40l-71 -540l42 -197zM322 860l20 51l45 17l37 -14l14 -34l-20 -51l-45 -17l-37 14zM471 880l-23 57l-61 23l-70 -29l-28 -71l23 -57l61 -23l70 29z" />
    <glyph glyph-name="uring" unicode="&#x16f;" horiz-adv-x="510" 
d="M237 690l20 51l45 17l37 -14l14 -34l-20 -51l-45 -17l-37 14zM386 710l-23 57l-61 23l-70 -29l-28 -71l23 -57l61 -23l70 29zM85 530l-49 -375l30 -121l125 -44l103 25l73 63l-1 -78h30l14 150l50 380h-40l-53 -410l-63 -61l-108 -31l-95 30l-24 102l48 370h-40z" />
    <glyph glyph-name="Uhungarumlaut" unicode="&#x170;" horiz-adv-x="630" 
d="M273 -10l179 54l85 196l71 540h-40l-70 -535l-72 -171l-153 -46l-144 46l-31 171l70 535h-40l-71 -540l42 -197zM377 950l-77 -110h42l77 110h-42zM487 950l-77 -110h42l77 110h-42z" />
    <glyph glyph-name="uhungarumlaut" unicode="&#x171;" horiz-adv-x="510" 
d="M85 530l-49 -375l30 -121l125 -44l103 25l73 63l-1 -78h30l14 150l50 380h-40l-53 -410l-63 -61l-108 -31l-95 30l-24 102l48 370h-40zM429 780l-111 -160h42l111 160h-42zM319 780l-111 -160h42l111 160h-42z" />
    <glyph glyph-name="Uogonek" unicode="&#x172;" horiz-adv-x="630" 
d="M273 -10h15l-48 -51l-19 -70l25 -59l68 -20l40 5l38 14l-8 28l-30 -10l-33 -4l-48 13l-18 37l36 83l74 44l114 74l58 166l71 540h-40l-70 -535l-72 -171l-153 -46l-144 46l-31 171l70 535h-40l-71 -540l42 -197z" />
    <glyph glyph-name="uogonek" unicode="&#x173;" horiz-adv-x="510" 
d="M85 530l-49 -375l30 -121l125 -44l103 25l73 63l-1 -60l-79 -56l-35 -93l25 -59l68 -20l40 5l38 14l-8 28l-30 -10l-33 -4l-48 13l-18 37l37 80l73 47l14 150l50 380h-40l-53 -410l-63 -61l-108 -31l-95 30l-24 102l48 370h-40z" />
    <glyph glyph-name="Wcircumflex" unicode="&#x174;" horiz-adv-x="880" 
d="M569 -10h60l255 790h-44l-236 -748l-82 748h-60l-278 -748l-40 748h-42l47 -790h60l279 750zM433 840l80 77l60 -77h43l-85 110h-30l-115 -110h47z" />
    <glyph glyph-name="wcircumflex" unicode="&#x175;" horiz-adv-x="700" 
d="M364 481l74 -481h56l191 530h-42l-174 -490l-75 490h-50l-203 -490l-46 490h-40l53 -530h56zM284 620l116 124l84 -124h43l-109 160h-30l-151 -160h47z" />
    <glyph glyph-name="Ycircumflex" unicode="&#x176;" horiz-adv-x="560" 
d="M281 235l307 545h-45l-277 -495l-147 495h-41l163 -545l-30 -235h40zM273 840l80 77l60 -77h43l-85 110h-30l-115 -110h47z" />
    <glyph glyph-name="ycircumflex" unicode="&#x177;" horiz-adv-x="462" 
d="M198 65l-108 465h-41l124 -510l-111 -220h44l107 218l258 512h-43zM174 620l116 124l84 -124h43l-109 160h-30l-151 -160h47z" />
    <glyph glyph-name="Ydieresis" unicode="&#x178;" horiz-adv-x="560" 
d="M281 235l307 545h-45l-277 -495l-147 495h-41l163 -545l-30 -235h40zM307 925h-60l-8 -60h60zM457 925h-60l-8 -60h60z" />
    <glyph glyph-name="Zacute" unicode="&#x179;" horiz-adv-x="550" 
d="M-6 28l-3 -28h470l5 38h-301l-121 -2l506 716l3 28h-450l-5 -38h281l121 2zM389 950l-77 -110h42l77 110h-42z" />
    <glyph glyph-name="zacute" unicode="&#x17a;" horiz-adv-x="446" 
d="M-8 28l-3 -28h370l5 38h-200l-121 -1l372 465l3 28h-350l-5 -38h180l121 1zM343 780l-111 -160h42l111 160h-42z" />
    <glyph glyph-name="Zdotaccent" unicode="&#x17b;" horiz-adv-x="550" 
d="M-6 28l-3 -28h470l5 38h-301l-121 -2l506 716l3 28h-450l-5 -38h281l121 2zM374 925h-60l-8 -60h60z" />
    <glyph glyph-name="zdotaccent" unicode="&#x17c;" horiz-adv-x="446" 
d="M-8 28l-3 -28h370l5 38h-200l-121 -1l372 465l3 28h-350l-5 -38h180l121 1zM298 735h-60l-8 -60h60z" />
    <glyph glyph-name="Zcaron" unicode="&#x17d;" horiz-adv-x="550" 
d="M-6 28l-3 -28h470l5 38h-301l-121 -2l506 716l3 28h-450l-5 -38h281l121 2zM233 950l85 -110h30l115 110h-47l-81 -77l-59 77h-43z" />
    <glyph glyph-name="zcaron" unicode="&#x17e;" horiz-adv-x="446" 
d="M-8 28l-3 -28h370l5 38h-200l-121 -1l372 465l3 28h-350l-5 -38h180l121 1zM129 780l109 -160h30l151 160h-47l-116 -124l-84 124h-43z" />
    <glyph glyph-name="Scommaaccent" unicode="&#x218;" horiz-adv-x="585" 
d="M288 386l151 -60l37 -120l-2 -16l-71 -122l-148 -40h-10l-141 51l-30 171h-40l-3 -19l41 -177l178 -64l181 51l85 152l2 16l-36 135l-170 76l-152 62l-31 110l2 16l64 108l135 36h10l142 -54l27 -178h40l3 19l-35 183l-182 68l-165 -44l-81 -141l-2 -16l34 -124zM268 -60
h-60l-8 -60h30l-25 -46l-43 -14l-4 -30l69 28l34 74z" />
    <glyph glyph-name="scommaaccent" unicode="&#x219;" horiz-adv-x="517" 
d="M220 28l-122 38l-21 94h-39l-1 -8l29 -112l154 -50l141 39l61 102l1 8l-30 101l-128 48l-125 40l-24 74l47 76l107 24l119 -38l19 -104h39l1 8l-29 124l-149 48l-138 -37l-58 -97l-1 -8l29 -90l133 -52l120 -37l25 -84l-47 -79zM233 -60h-60l-8 -60h30l-25 -46l-43 -14
l-4 -30l69 28l34 74z" />
    <glyph glyph-name="Ymacron" unicode="&#x232;" horiz-adv-x="560" 
d="M281 235l307 545h-45l-277 -495l-147 495h-41l163 -545l-30 -235h40zM246 875h200l5 40h-200z" />
    <glyph glyph-name="ymacron" unicode="&#x233;" horiz-adv-x="462" 
d="M198 65l-108 465h-41l124 -510l-111 -220h44l107 218l258 512h-43zM175 680h210l5 40h-210z" />
    <glyph glyph-name="dotlessj" unicode="&#x237;" horiz-adv-x="200" 
d="M22 -67l-39 -83l-80 -22l-37 3l-26 6l-5 -36l24 -7l44 -4l106 30l51 101l80 609h-40z" />
    <glyph glyph-name="circumflex" unicode="&#x2c6;" horiz-adv-x="500" 
d="M184 620l116 124l84 -124h43l-109 160h-30l-151 -160h47z" />
    <glyph glyph-name="caron" unicode="&#x2c7;" horiz-adv-x="500" 
d="M158 780l109 -160h30l151 160h-47l-116 -124l-84 124h-43z" />
    <glyph glyph-name="breve" unicode="&#x2d8;" horiz-adv-x="500" 
d="M283 610l121 48l51 122h-36l-39 -98l-95 -39l-85 39l-13 98h-36l22 -122z" />
    <glyph glyph-name="dotaccent" unicode="&#x2d9;" horiz-adv-x="500" 
d="M327 735h-60l-8 -60h60z" />
    <glyph glyph-name="ring" unicode="&#x2da;" horiz-adv-x="500" 
d="M235 690l20 51l45 17l37 -14l14 -34l-20 -51l-45 -17l-37 14zM384 710l-23 57l-61 23l-70 -29l-28 -71l23 -57l61 -23l70 29z" />
    <glyph glyph-name="ogonek" unicode="&#x2db;" horiz-adv-x="602" 
d="M231 0l-10 27l-91 -58l-43 -100l25 -59l68 -20l40 5l38 14l-8 28l-30 -10l-33 -4l-48 13l-18 37l37 80z" />
    <glyph glyph-name="tilde" unicode="&#x2dc;" horiz-adv-x="500" 
d="M403 737l-16 -39l-28 -11l-59 30l-71 30l-54 -21l-27 -63h35l16 39l27 11l59 -30l71 -30l54 21l28 63h-35z" />
    <glyph glyph-name="hungarumlaut" unicode="&#x2dd;" horiz-adv-x="500" 
d="M317 780l-111 -160h42l111 160h-42zM427 780l-111 -160h42l111 160h-42z" />
    <glyph glyph-name="Bdotaccent" unicode="&#x1e02;" horiz-adv-x="567" 
d="M320 742l122 -36l34 -118l-3 -24l-68 -113l-125 -31h-154l42 322h152zM298 382l114 -43l35 -128l-3 -24l-70 -117l-136 -32h-162l45 344h177zM133 780l-102 -780h204l169 44l82 143l3 24l-28 129l-101 61l102 52l53 111l3 24l-43 144l-155 48h-187zM367 925h-60l-8 -60
h60z" />
    <glyph glyph-name="bdotaccent" unicode="&#x1e03;" horiz-adv-x="521" 
d="M77 126l38 290l65 61l94 25l120 -63l21 -171l-2 -16l-61 -164l-134 -60l-93 33zM166 800h-40l-86 -650l-24 -150h30l19 81l52 -60l101 -31l166 74l71 191l2 16l-28 190l-155 79l-89 -20l-62 -50zM192 925h-60l-8 -60h60z" />
    <glyph glyph-name="Ddotaccent" unicode="&#x1e0a;" horiz-adv-x="623" 
d="M76 38l92 704h149l175 -78l36 -262l-3 -24l-105 -262l-199 -78h-145zM570 402l-47 290l-203 88h-187l-102 -780h190l226 88l120 290zM387 925h-60l-8 -60h60z" />
    <glyph glyph-name="ddotaccent" unicode="&#x1e0b;" horiz-adv-x="525" 
d="M278 502l93 -32l48 -66l-38 -290l-63 -58l-96 -28l-120 63l-21 171l2 16l62 164zM222 -10l92 22l66 57l1 -69h30l14 150l86 650h-40l-45 -341l-50 52l-98 29l-166 -74l-71 -191l-2 -16l28 -190zM537 925h-60l-8 -60h60z" />
    <glyph glyph-name="Fdotaccent" unicode="&#x1e1e;" horiz-adv-x="500" 
d="M402 925h-60l-8 -60h60zM133 780l-102 -780h40l49 379h310l5 38h-310l43 325h360l5 38h-400z" />
    <glyph glyph-name="fdotaccent" unicode="&#x1e1f;" horiz-adv-x="370" 
d="M198 667l39 83l81 22l37 -3l26 -6l5 36l-24 7l-44 4l-106 -30l-52 -101l-20 -149h-85l-5 -38h85l-64 -492h40l64 492h160l5 38h-160zM332 925h-60l-8 -60h60z" />
    <glyph glyph-name="Mdotaccent" unicode="&#x1e40;" horiz-adv-x="780" 
d="M707 710l-27 -180l-69 -530h40l102 780h-53l-352 -712l-164 712h-51l-102 -780h40l69 530l21 180l165 -710h30zM492 925h-60l-8 -60h60z" />
    <glyph glyph-name="mdotaccent" unicode="&#x1e41;" horiz-adv-x="783" 
d="M671 0l51 390l-31 113l-108 37l-98 -26l-70 -63l-42 64l-95 25l-98 -27l-66 -61l1 78h-30l-14 -150l-50 -380h40l53 410l63 61l96 31l82 -25l21 -92l-50 -385h40l53 410l63 61l96 31l80 -25l23 -92l-50 -385h40zM472 735h-60l-8 -60h60z" />
    <glyph glyph-name="Pdotaccent" unicode="&#x1e56;" horiz-adv-x="557" 
d="M119 368l49 374h159l118 -34l47 -147l-3 -24l-80 -139l-123 -30h-167zM114 330h167l158 43l92 164l3 24l-54 173l-150 46h-197l-102 -780h40zM387 925h-60l-8 -60h60z" />
    <glyph glyph-name="pdotaccent" unicode="&#x1e57;" horiz-adv-x="521" 
d="M218 28l-93 33l-48 65l38 290l63 58l96 28l120 -63l21 -171l-2 -16l-61 -164zM274 540l-92 -22l-66 -57l-1 69h-30l-14 -150l-77 -580h40l36 271l50 -52l98 -29l166 74l71 191l2 16l-28 190zM342 735h-60l-8 -60h60z" />
    <glyph glyph-name="Tdotaccent" unicode="&#x1e6a;" horiz-adv-x="500" 
d="M352 925h-60l-8 -60h60zM318 742h205l5 38h-450l-5 -38h205l-97 -742h40z" />
    <glyph glyph-name="tdotaccent" unicode="&#x1e6b;" horiz-adv-x="390" 
d="M180 530l20 150h-40l-20 -150h-85l-5 -38h85l-47 -357l26 -110l98 -35l45 4l24 6l4 37l-29 -6l-44 -3l-66 23l-17 89l46 352h180l5 38h-180zM226 805h-60l-7 -60h60z" />
    <glyph glyph-name="Wgrave" unicode="&#x1e80;" horiz-adv-x="880" 
d="M569 -10h60l255 790h-44l-236 -748l-82 748h-60l-278 -748l-40 748h-42l47 -790h60l279 750zM433 950l47 -110h42l-47 110h-42z" />
    <glyph glyph-name="wgrave" unicode="&#x1e81;" horiz-adv-x="700" 
d="M364 481l74 -481h56l191 530h-42l-174 -490l-75 490h-50l-203 -490l-46 490h-40l53 -530h56zM292 780l69 -160h42l-69 160h-42z" />
    <glyph glyph-name="Wacute" unicode="&#x1e82;" horiz-adv-x="880" 
d="M569 -10h60l255 790h-44l-236 -748l-82 748h-60l-278 -748l-40 748h-42l47 -790h60l279 750zM557 950l-77 -110h42l77 110h-42z" />
    <glyph glyph-name="wacute" unicode="&#x1e83;" horiz-adv-x="700" 
d="M364 481l74 -481h56l191 530h-42l-174 -490l-75 490h-50l-203 -490l-46 490h-40l53 -530h56zM472 780l-111 -160h42l111 160h-42z" />
    <glyph glyph-name="Wdieresis" unicode="&#x1e84;" horiz-adv-x="880" 
d="M569 -10h60l255 790h-44l-236 -748l-82 748h-60l-278 -748l-40 748h-42l47 -790h60l279 750zM467 925h-60l-8 -60h60zM617 925h-60l-8 -60h60z" />
    <glyph glyph-name="wdieresis" unicode="&#x1e85;" horiz-adv-x="700" 
d="M364 481l74 -481h56l191 530h-42l-174 -490l-75 490h-50l-203 -490l-46 490h-40l53 -530h56zM352 735h-60l-8 -60h60zM502 735h-60l-8 -60h60z" />
    <glyph glyph-name="Eszett" unicode="&#x1e9e;" horiz-adv-x="737" 
d="M315 434l-4 -29l137 -18l152 -60l34 -124l-2 -16l-66 -118l-136 -41h-10l-126 51l-20 171h-40l-3 -19l32 -181l162 -60l170 52l79 148l2 16l-36 142l-169 75l-109 14l201 284l4 28l-77 31l-100 10l-191 -51l-102 -199l-71 -540h40l70 535l87 174l167 43l72 -6l60 -19z
" />
    <glyph glyph-name="Ygrave" unicode="&#x1ef2;" horiz-adv-x="560" 
d="M281 235l307 545h-45l-277 -495l-147 495h-41l163 -545l-30 -235h40zM273 950l47 -110h42l-47 110h-42z" />
    <glyph glyph-name="ygrave" unicode="&#x1ef3;" horiz-adv-x="462" 
d="M198 65l-108 465h-41l124 -510l-111 -220h44l107 218l258 512h-43zM182 780l69 -160h42l-69 160h-42z" />
    <glyph glyph-name="enspace" unicode="&#x2002;" horiz-adv-x="500" 
 />
    <glyph glyph-name="emspace" unicode="&#x2003;" horiz-adv-x="1000" 
 />
    <glyph glyph-name="threeperemspace" unicode="&#x2004;" horiz-adv-x="333" 
 />
    <glyph glyph-name="fourperemspace" unicode="&#x2005;" horiz-adv-x="250" 
 />
    <glyph glyph-name="sixperemspace" unicode="&#x2006;" horiz-adv-x="167" 
 />
    <glyph glyph-name="figurespace" unicode="&#x2007;" horiz-adv-x="600" 
 />
    <glyph glyph-name="punctuationspace" unicode="&#x2008;" horiz-adv-x="180" 
 />
    <glyph glyph-name="thinspace" unicode="&#x2009;" horiz-adv-x="150" 
 />
    <glyph glyph-name="hairspace" unicode="&#x200a;" horiz-adv-x="50" 
 />
    <glyph glyph-name="zerowidthspace" unicode="&#x200b;" horiz-adv-x="0" 
 />
    <glyph glyph-name="figuredash" unicode="&#x2012;" horiz-adv-x="600" 
d="M34 331h520l5 38h-520z" />
    <glyph glyph-name="endash" unicode="&#x2013;" horiz-adv-x="500" 
d="M34 331h420l5 38h-420z" />
    <glyph glyph-name="emdash" unicode="&#x2014;" horiz-adv-x="1000" 
d="M34 331h920l5 38h-920z" />
    <glyph glyph-name="uni2015" unicode="&#x2015;" horiz-adv-x="1200" 
d="M34 331h1120l5 38h-1120z" />
    <glyph glyph-name="doublebar" unicode="&#x2016;" horiz-adv-x="280" 
d="M105 -120h40l126 960h-40zM5 -120h40l126 960h-40z" />
    <glyph glyph-name="quoteleft" unicode="&#x2018;" horiz-adv-x="200" 
d="M72 620h60l8 60h-30l25 63l46 17l4 30l-72 -30l-35 -92z" />
    <glyph glyph-name="quoteright" unicode="&#x2019;" horiz-adv-x="200" 
d="M183 780h-60l-8 -60h30l-24 -63l-46 -17l-4 -30l71 30l35 92z" />
    <glyph glyph-name="quotesinglbase" unicode="&#x201a;" horiz-adv-x="200" 
d="M88 60h-60l-7 -60h30l-25 -63l-46 -17l-4 -30l71 30l35 92z" />
    <glyph glyph-name="reversequoteleft" unicode="&#x201b;" horiz-adv-x="200" 
d="M93 780l-6 -48l10 -92l64 -30l4 30l-41 17l-9 63h30l8 60h-60z" />
    <glyph glyph-name="quotedblleft" unicode="&#x201c;" horiz-adv-x="320" 
d="M192 620h60l8 60h-30l25 63l46 17l4 30l-72 -30l-35 -92zM72 620h60l8 60h-30l25 63l46 17l4 30l-72 -30l-35 -92z" />
    <glyph glyph-name="quotedblright" unicode="&#x201d;" horiz-adv-x="320" 
d="M183 780h-60l-8 -60h30l-24 -63l-46 -17l-4 -30l71 30l35 92zM303 780h-60l-8 -60h30l-24 -63l-46 -17l-4 -30l71 30l35 92z" />
    <glyph glyph-name="quotedblbase" unicode="&#x201e;" horiz-adv-x="320" 
d="M88 60h-60l-7 -60h30l-25 -63l-46 -17l-4 -30l71 30l35 92zM208 60h-60l-7 -60h30l-25 -63l-46 -17l-4 -30l71 30l35 92z" />
    <glyph glyph-name="reversequotedblleft" unicode="&#x201f;" horiz-adv-x="320" 
d="M93 780l-6 -48l10 -92l64 -30l4 30l-41 17l-9 63h30l8 60h-60zM213 780l-6 -48l10 -92l64 -30l4 30l-41 17l-9 63h30l8 60h-60z" />
    <glyph glyph-name="dagger" unicode="&#x2020;" horiz-adv-x="380" 
d="M49 600l141 5l4 30l-139 5zM395 640l-141 -5l-4 -30l139 -5zM226 800l-15 -150h30l25 150h-40zM182 465l-12 -125h30l22 125l11 125h-30z" />
    <glyph glyph-name="daggerdbl" unicode="&#x2021;" horiz-adv-x="380" 
d="M395 640l-141 -5l-4 -30l139 -5zM22 390l141 5l3 30l-139 5zM49 600l141 5l4 30l-139 5zM367 430l-141 -5l-3 -30l139 -5zM228 515l5 75h-30l-15 -75l-5 -75h30zM226 800l-15 -150h30l25 150h-40zM154 255l-11 -125h30l21 125l12 125h-30z" />
    <glyph glyph-name="bullet" unicode="&#x2022;" horiz-adv-x="380" 
d="M322 470h-240l-31 -240h240z" />
    <glyph glyph-name="ellipsis" unicode="&#x2026;" horiz-adv-x="1000" 
d="M488 60h-60l-7 -60h60zM808 60h-60l-7 -60h60zM168 60h-60l-7 -60h60z" />
    <glyph glyph-name="perthousand" unicode="&#x2030;" horiz-adv-x="1278" 
d="M1036 -10l114 40l60 125l1 8l-35 126l-111 41l-114 -40l-60 -125l-1 -8l35 -126zM1035 28l-83 33l-24 95l1 8l46 96l85 32h6l84 -32l23 -96l-1 -8l-46 -96l-85 -32h-6zM656 -10l114 40l60 125l1 8l-35 126l-111 41l-114 -40l-60 -125l-1 -8l35 -126zM655 28l-83 33
l-24 95l1 8l46 96l85 32h6l84 -32l23 -96l-1 -8l-46 -96l-85 -32h-6zM356 616l-46 -96l-85 -32h-6l-83 33l-24 95l1 8l46 96l85 32h6l84 -32l23 -96zM261 0l405 743l5 37l-77 -20l-105 -12l-86 8l-87 22l-30 9l-37 3l-114 -40l-60 -125l-1 -8l35 -126l111 -41l114 40l60 125
l1 8l-1 57l-14 43l49 -9l55 -4l92 9l38 9l-397 -728h44z" />
    <glyph glyph-name="tripleprime" unicode="&#x2034;" horiz-adv-x="400" 
d="M230 780l-22 -250h24l44 250h-46zM330 780l-22 -250h24l44 250h-46zM130 780l-22 -250h24l44 250h-46z" />
    <glyph glyph-name="guilsinglleft" unicode="&#x2039;" 
d="M268 510l-221 -155l-4 -30l180 -155l6 42l-147 125l180 125z" />
    <glyph glyph-name="guilsinglright" unicode="&#x203a;" 
d="M62 468l146 -125l-179 -125l-6 -48l220 155l4 30l-179 155z" />
    <glyph glyph-name="interrobang" unicode="&#x203d;" horiz-adv-x="440" 
d="M208 60h-60l-7 -60h60zM396 620l-63 -177l-108 -140l66 447l80 -38zM206 175l129 219l103 236l-41 117l-130 43l-157 -75l-64 -202l-2 -13h40l48 175l114 76l-64 -576h24z" />
    <glyph glyph-name="fraction" unicode="&#x2044;" horiz-adv-x="200" 
d="M-214 0l678 780h-46l-678 -780h46z" />
    <glyph glyph-name="uni2070" unicode="&#x2070;" horiz-adv-x="299" 
d="M250 506l-25 -68l-67 -22h-2l-63 23l-10 66l21 158l25 68l67 22h2l62 -23l11 -66zM47 501l18 -84l89 -33l95 29l36 88l22 167l-18 84l-89 33l-95 -29l-36 -88z" />
    <glyph glyph-name="uni2074" unicode="&#x2074;" 
d="M229 719l-8 -51l-18 -142h-80l-43 -1zM221 390l13 103h64l5 33h-64l33 254h-35l-202 -263l-4 -24h167l-13 -103h36z" />
    <glyph glyph-name="uni2075" unicode="&#x2075;" 
d="M43 515l-1 -8l23 -90l94 -33l89 31l43 88l1 8l-23 93l-90 33l-50 -10l-33 -21l25 141h197l4 33h-231l-39 -219l29 -9l42 40l53 13h6l58 -22l17 -71l-1 -8l-33 -67l-61 -21h-6l-62 24l-15 75h-36z" />
    <glyph glyph-name="uni2076" unicode="&#x2076;" 
d="M187 603l58 -22l14 -65l-1 -8l-32 -67l-67 -25h-4l-57 29l-16 77l3 25l42 40l56 16h4zM312 785l-97 -17l-90 -61l-54 -83l-23 -89l-1 -8l21 -103l89 -40l92 31l44 93l1 8l-27 91l-79 28l-51 -11l-37 -25l21 45l31 42l76 52l80 15z" />
    <glyph glyph-name="uni2077" unicode="&#x2077;" 
d="M64 640h32l14 107h117l55 1l-193 -358h38l198 368l3 22h-246z" />
    <glyph glyph-name="uni2078" unicode="&#x2078;" horiz-adv-x="299" 
d="M199 753l60 -18l17 -55l-1 -8l-30 -51l-60 -16h-10l-55 18l-17 54l1 8l29 51l62 17h4zM183 573l55 -20l15 -57l-1 -8l-32 -55l-61 -17h-6l-58 19l-18 58l1 8l31 53l60 19h14zM156 384l90 29l42 75l1 8l-10 61l-41 32l49 28l24 55l1 8l-23 76l-92 29l-91 -27l-38 -73
l-1 -8l11 -55l40 -33l-50 -30l-26 -58l-1 -8l24 -77z" />
    <glyph glyph-name="uni2079" unicode="&#x2079;" horiz-adv-x="299" 
d="M167 566l-58 22l-14 65l1 8l32 67l67 25h4l58 -29l15 -77l-3 -25l-42 -40l-56 -16h-4zM42 384l97 17l90 61l54 83l23 89l1 8l-21 103l-89 40l-92 -30l-44 -94l-1 -8l27 -91l79 -28l51 11l37 25l-21 -45l-31 -42l-76 -52l-80 -15z" />
    <glyph glyph-name="uni207A" unicode="&#x207a;" 
d="M177 711l-14 -110h-109l-5 -33h109l-14 -109h33l14 109h110l5 33h-110l14 110h-33z" />
    <glyph glyph-name="uni207B" unicode="&#x207b;" 
d="M49 568h252l5 33h-252z" />
    <glyph glyph-name="uni207C" unicode="&#x207c;" 
d="M43 517h252l4 33h-252zM56 619h252l4 33h-252z" />
    <glyph glyph-name="uni207D" unicode="&#x207d;" horiz-adv-x="158" 
d="M56 585l5 -106l32 -89h36l-31 89l-6 106l1 8l33 107l55 80h-38l-55 -80l-31 -107z" />
    <glyph glyph-name="uni207E" unicode="&#x207e;" horiz-adv-x="156" 
d="M156 585l-5 106l-32 89h-36l31 -89l6 -106l-1 -8l-33 -107l-55 -80h38l55 80l31 107z" />
    <glyph glyph-name="uni2080" unicode="&#x2080;" horiz-adv-x="298" 
d="M199 116l-25 -68l-67 -22h-2l-63 23l-10 66l21 158l25 68l67 22h2l62 -23l11 -66zM-4 111l18 -84l89 -33l95 29l36 88l22 167l-18 84l-89 33l-95 -29l-36 -88z" />
    <glyph glyph-name="uni2081" unicode="&#x2081;" 
d="M225 0l4 32h-101l47 360h-23l-133 -83l14 -28l100 62l-41 -311h-102l-4 -32h239z" />
    <glyph glyph-name="uni2082" unicode="&#x2082;" horiz-adv-x="298" 
d="M227 32h-190l164 153l40 43l19 52l1 8l-22 77l-91 30l-92 -31l-41 -89l-2 -15h35l32 79l66 24h4l59 -19l16 -56l-1 -8l-16 -42l-35 -37l-191 -179l-3 -22h244z" />
    <glyph glyph-name="uni2083" unicode="&#x2083;" horiz-adv-x="298" 
d="M28 125h-36l-1 -8l23 -90l94 -33l89 28l40 74l1 8l-10 62l-41 33l49 27l24 54l1 8l-22 77l-91 30l-93 -31l-40 -89l-2 -15h35l32 79l66 24h4l59 -19l16 -56l-1 -8l-30 -50l-60 -15h-55l-4 -32h57l55 -21l15 -58l-1 -8l-30 -54l-60 -16h-6l-62 24z" />
    <glyph glyph-name="uni2084" unicode="&#x2084;" 
d="M178 329l-8 -51l-18 -142h-80l-43 -1zM170 0l13 103h64l5 33h-64l33 254h-35l-202 -263l-4 -24h167l-13 -103h36z" />
    <glyph glyph-name="uni2085" unicode="&#x2085;" 
d="M-8 125l-1 -8l23 -90l94 -33l89 31l43 88l1 8l-23 93l-90 33l-50 -10l-33 -21l25 141h197l4 33h-231l-39 -219l29 -9l42 40l53 13h6l58 -22l17 -71l-1 -8l-33 -67l-61 -21h-6l-62 24l-15 75h-36z" />
    <glyph glyph-name="uni2086" unicode="&#x2086;" 
d="M136 213l58 -22l14 -65l-1 -8l-32 -67l-67 -25h-4l-57 29l-16 77l3 25l42 40l56 16h4zM261 395l-97 -17l-90 -61l-54 -83l-23 -89l-1 -8l21 -103l89 -40l92 31l44 93l1 8l-27 91l-79 28l-51 -11l-37 -25l21 45l31 42l76 52l80 15z" />
    <glyph glyph-name="uni2087" unicode="&#x2087;" 
d="M13 250h32l14 107h117l55 1l-193 -358h38l198 368l3 22h-246z" />
    <glyph glyph-name="uni2088" unicode="&#x2088;" horiz-adv-x="298" 
d="M148 363l60 -18l17 -55l-1 -8l-30 -51l-60 -16h-10l-55 18l-17 54l1 8l29 51l62 17h4zM132 183l55 -20l15 -57l-1 -8l-32 -55l-61 -17h-6l-58 19l-18 58l1 8l31 53l60 19h14zM105 -6l90 29l42 75l1 8l-10 61l-41 32l49 28l24 55l1 8l-23 76l-92 29l-91 -27l-38 -73l-1 -8
l11 -55l40 -33l-50 -30l-26 -58l-1 -8l24 -77z" />
    <glyph glyph-name="uni2089" unicode="&#x2089;" horiz-adv-x="298" 
d="M116 176l-58 22l-14 65l1 8l32 67l67 25h4l58 -29l15 -77l-3 -25l-42 -40l-56 -16h-4zM-9 -6l97 17l90 61l54 83l23 89l1 8l-21 103l-89 40l-92 -30l-44 -94l-1 -8l27 -91l79 -28l51 11l37 25l-21 -45l-31 -42l-76 -52l-80 -15z" />
    <glyph glyph-name="uni208A" unicode="&#x208a;" 
d="M126 321l-14 -110h-109l-5 -33h109l-14 -109h33l14 109h110l5 33h-110l14 110h-33z" />
    <glyph glyph-name="uni208B" unicode="&#x208b;" 
d="M-2 178h252l5 33h-252z" />
    <glyph glyph-name="uni208C" unicode="&#x208c;" 
d="M-8 127h252l4 33h-252zM5 229h252l4 33h-252z" />
    <glyph glyph-name="uni208D" unicode="&#x208d;" horiz-adv-x="158" 
d="M5 195l5 -106l32 -89h36l-31 89l-6 106l1 8l33 107l55 80h-38l-55 -80l-31 -107z" />
    <glyph glyph-name="uni208E" unicode="&#x208e;" horiz-adv-x="155" 
d="M105 195l-5 106l-32 89h-36l31 -89l6 -106l-1 -8l-33 -107l-55 -80h38l55 80l31 107z" />
    <glyph glyph-name="Euro" unicode="&#x20ac;" horiz-adv-x="592" 
d="M43 440h75l-10 -67l-3 -33h-75l-5 -40h77l40 -237l163 -73l159 69l68 182l1 9h-40l-60 -165l-124 -57h-6l-127 63l-33 209h218l24 40h-239l3 33l10 67h270l25 40h-287l88 208l139 64h6l115 -58l11 -194h40l3 19l-19 199l-155 72l-170 -73l-99 -237h-77z" />
    <glyph glyph-name="ruble" unicode="&#x20bd;" horiz-adv-x="597" 
d="M159 368l49 374h159l118 -34l47 -147l-3 -24l-80 -139l-123 -30h-167zM154 330h167l158 43l92 164l3 24l-54 173l-150 46h-197l-54 -412h-95l-5 -38h95l-13 -102h-95l-5 -38h95l-25 -190h40l25 190h215l5 38h-215z" />
    <glyph glyph-name="numero" unicode="&#x2116;" horiz-adv-x="1057" 
d="M680 223h310l4 35h-310zM760 593l45 116l99 46l88 -45l16 -117l-2 -16l-45 -116l-99 -46l-88 45l-16 117zM1046 593l-20 139l-122 58l-125 -53l-57 -144l-2 -16l20 -139l122 -58l125 54l57 143zM623 780h-39l-70 -530l-22 -190l-315 720h-44l-102 -780h39l69 530l22 190
l316 -720h44z" />
    <glyph glyph-name="published" unicode="&#x2117;" horiz-adv-x="920" 
d="M100 390l105 255l255 105l255 -105l105 -255l-105 -255l-255 -105l-255 105zM60 390l117 -283l283 -117l283 117l117 283l-117 283l-283 117l-283 -117zM351 391v198h120l68 -17l34 -78v-8l-34 -77l-68 -18h-120zM351 355h120l96 26l46 103v12l-46 104l-96 25h-160v-470
h40v200z" />
    <glyph glyph-name="servicemark" unicode="&#x2120;" horiz-adv-x="510" 
d="M423 750l-2 -70v-150h34v270h-52l-60 -218l-60 218h-52v-270h34v150l-2 70l60 -220h40zM100 653l47 -16l13 -34v-2l-12 -35l-39 -12h-2l-41 17l-12 49h-34v-4l22 -69l66 -25l64 23l22 59v4l-18 50l-62 25l-46 16l-11 30v3l13 30l37 10h2l38 -15l10 -50h34v8l-18 67
l-65 22l-63 -20l-22 -55v-4l16 -48z" />
    <glyph glyph-name="trademark" unicode="&#x2122;" horiz-adv-x="510" 
d="M423 750l-2 -70v-150h34v270h-52l-60 -218l-60 218h-52v-270h34v150l-2 70l60 -220h40zM125 768h71v32h-176v-32h71v-238h34v238z" />
    <glyph glyph-name="uni2153" unicode="&#x2153;" horiz-adv-x="800" 
d="M528 125h-36l-1 -8l23 -90l94 -33l89 28l40 74l1 8l-10 62l-41 33l49 27l24 54l1 8l-22 77l-91 30l-93 -31l-40 -89l-2 -15h35l32 79l66 24h4l59 -19l16 -56l-1 -8l-30 -50l-60 -15h-55l-4 -32h57l55 -21l15 -58l-1 -8l-30 -54l-60 -16h-6l-62 24zM86 0l678 780h-46
l-678 -780h46zM276 390l4 32h-101l47 360h-23l-133 -83l14 -28l100 62l-41 -311h-102l-4 -32h239z" />
    <glyph glyph-name="uni2154" unicode="&#x2154;" horiz-adv-x="800" 
d="M528 125h-36l-1 -8l23 -90l94 -33l89 28l40 74l1 8l-10 62l-41 33l49 27l24 54l1 8l-22 77l-91 30l-93 -31l-40 -89l-2 -15h35l32 79l66 24h4l59 -19l16 -56l-1 -8l-30 -50l-60 -15h-55l-4 -32h57l55 -21l15 -58l-1 -8l-30 -54l-60 -16h-6l-62 24zM86 0l678 780h-46
l-678 -780h46zM278 422h-190l164 153l40 43l19 52l1 8l-22 77l-91 30l-92 -31l-41 -89l-2 -15h35l32 79l66 24h4l59 -19l16 -56l-1 -8l-16 -42l-35 -37l-191 -179l-3 -22h244z" />
    <glyph glyph-name="uni2155" unicode="&#x2155;" horiz-adv-x="800" 
d="M492 125l-1 -8l23 -90l94 -33l89 31l43 88l1 8l-23 93l-90 33l-50 -10l-33 -21l25 141h197l4 33h-231l-39 -219l29 -9l42 40l53 13h6l58 -22l17 -71l-1 -8l-33 -67l-61 -21h-6l-62 24l-15 75h-36zM86 0l678 780h-46l-678 -780h46zM276 390l4 32h-101l47 360h-23l-133 -83
l14 -28l100 62l-41 -311h-102l-4 -32h239z" />
    <glyph glyph-name="uni2156" unicode="&#x2156;" horiz-adv-x="800" 
d="M492 125l-1 -8l23 -90l94 -33l89 31l43 88l1 8l-23 93l-90 33l-50 -10l-33 -21l25 141h197l4 33h-231l-39 -219l29 -9l42 40l53 13h6l58 -22l17 -71l-1 -8l-33 -67l-61 -21h-6l-62 24l-15 75h-36zM86 0l678 780h-46l-678 -780h46zM278 422h-190l164 153l40 43l19 52l1 8
l-22 77l-91 30l-92 -31l-41 -89l-2 -15h35l32 79l66 24h4l59 -19l16 -56l-1 -8l-16 -42l-35 -37l-191 -179l-3 -22h244z" />
    <glyph glyph-name="uni2157" unicode="&#x2157;" horiz-adv-x="800" 
d="M492 125l-1 -8l23 -90l94 -33l89 31l43 88l1 8l-23 93l-90 33l-50 -10l-33 -21l25 141h197l4 33h-231l-39 -219l29 -9l42 40l53 13h6l58 -22l17 -71l-1 -8l-33 -67l-61 -21h-6l-62 24l-15 75h-36zM86 0l678 780h-46l-678 -780h46zM79 515h-36l-1 -8l23 -90l94 -33l89 28
l40 74l1 8l-10 62l-41 33l49 27l24 54l1 8l-22 77l-91 30l-93 -31l-40 -89l-2 -15h35l32 79l66 24h4l59 -19l16 -56l-1 -8l-30 -50l-60 -15h-55l-4 -32h57l55 -21l15 -58l-1 -8l-30 -54l-60 -16h-6l-62 24z" />
    <glyph glyph-name="uni2158" unicode="&#x2158;" horiz-adv-x="800" 
d="M492 125l-1 -8l23 -90l94 -33l89 31l43 88l1 8l-23 93l-90 33l-50 -10l-33 -21l25 141h197l4 33h-231l-39 -219l29 -9l42 40l53 13h6l58 -22l17 -71l-1 -8l-33 -67l-61 -21h-6l-62 24l-15 75h-36zM86 0l678 780h-46l-678 -780h46zM229 719l-8 -51l-18 -142h-80l-43 -1z
M221 390l13 103h64l5 33h-64l33 254h-35l-202 -263l-4 -24h167l-13 -103h36z" />
    <glyph glyph-name="uni2159" unicode="&#x2159;" horiz-adv-x="800" 
d="M636 213l58 -22l14 -65l-1 -8l-32 -67l-67 -25h-4l-57 29l-16 77l3 25l42 40l56 16h4zM761 395l-97 -17l-90 -61l-54 -83l-23 -89l-1 -8l21 -103l89 -40l92 31l44 93l1 8l-27 91l-79 28l-51 -11l-37 -25l21 45l31 42l76 52l80 15zM86 0l678 780h-46l-678 -780h46z
M276 390l4 32h-101l47 360h-23l-133 -83l14 -28l100 62l-41 -311h-102l-4 -32h239z" />
    <glyph glyph-name="uni215A" unicode="&#x215a;" horiz-adv-x="800" 
d="M636 213l58 -22l14 -65l-1 -8l-32 -67l-67 -25h-4l-57 29l-16 77l3 25l42 40l56 16h4zM761 395l-97 -17l-90 -61l-54 -83l-23 -89l-1 -8l21 -103l89 -40l92 31l44 93l1 8l-27 91l-79 28l-51 -11l-37 -25l21 45l31 42l76 52l80 15zM86 0l678 780h-46l-678 -780h46zM43 515
l-1 -8l23 -90l94 -33l89 31l43 88l1 8l-23 93l-90 33l-50 -10l-33 -21l25 141h197l4 33h-231l-39 -219l29 -9l42 40l53 13h6l58 -22l17 -71l-1 -8l-33 -67l-61 -21h-6l-62 24l-15 75h-36z" />
    <glyph glyph-name="uni215B" unicode="&#x215b;" horiz-adv-x="800" 
d="M648 363l60 -18l17 -55l-1 -8l-30 -51l-60 -16h-10l-55 18l-17 54l1 8l29 51l62 17h4zM632 183l55 -20l15 -57l-1 -8l-32 -55l-61 -17h-6l-58 19l-18 58l1 8l31 53l60 19h14zM605 -6l90 29l42 75l1 8l-10 61l-41 32l49 28l24 55l1 8l-23 76l-92 29l-91 -27l-38 -73l-1 -8
l11 -55l40 -33l-50 -30l-26 -58l-1 -8l24 -77zM86 0l678 780h-46l-678 -780h46zM276 390l4 32h-101l47 360h-23l-133 -83l14 -28l100 62l-41 -311h-102l-4 -32h239z" />
    <glyph glyph-name="uni215C" unicode="&#x215c;" horiz-adv-x="800" 
d="M648 363l60 -18l17 -55l-1 -8l-30 -51l-60 -16h-10l-55 18l-17 54l1 8l29 51l62 17h4zM632 183l55 -20l15 -57l-1 -8l-32 -55l-61 -17h-6l-58 19l-18 58l1 8l31 53l60 19h14zM605 -6l90 29l42 75l1 8l-10 61l-41 32l49 28l24 55l1 8l-23 76l-92 29l-91 -27l-38 -73l-1 -8
l11 -55l40 -33l-50 -30l-26 -58l-1 -8l24 -77zM86 0l678 780h-46l-678 -780h46zM79 515h-36l-1 -8l23 -90l94 -33l89 28l40 74l1 8l-10 62l-41 33l49 27l24 54l1 8l-22 77l-91 30l-93 -31l-40 -89l-2 -15h35l32 79l66 24h4l59 -19l16 -56l-1 -8l-30 -50l-60 -15h-55l-4 -32
h57l55 -21l15 -58l-1 -8l-30 -54l-60 -16h-6l-62 24z" />
    <glyph glyph-name="uni215D" unicode="&#x215d;" horiz-adv-x="800" 
d="M648 363l60 -18l17 -55l-1 -8l-30 -51l-60 -16h-10l-55 18l-17 54l1 8l29 51l62 17h4zM632 183l55 -20l15 -57l-1 -8l-32 -55l-61 -17h-6l-58 19l-18 58l1 8l31 53l60 19h14zM605 -6l90 29l42 75l1 8l-10 61l-41 32l49 28l24 55l1 8l-23 76l-92 29l-91 -27l-38 -73l-1 -8
l11 -55l40 -33l-50 -30l-26 -58l-1 -8l24 -77zM86 0l678 780h-46l-678 -780h46zM43 515l-1 -8l23 -90l94 -33l89 31l43 88l1 8l-23 93l-90 33l-50 -10l-33 -21l25 141h197l4 33h-231l-39 -219l29 -9l42 40l53 13h6l58 -22l17 -71l-1 -8l-33 -67l-61 -21h-6l-62 24l-15 75
h-36z" />
    <glyph glyph-name="uni215E" unicode="&#x215e;" horiz-adv-x="800" 
d="M648 363l60 -18l17 -55l-1 -8l-30 -51l-60 -16h-10l-55 18l-17 54l1 8l29 51l62 17h4zM632 183l55 -20l15 -57l-1 -8l-32 -55l-61 -17h-6l-58 19l-18 58l1 8l31 53l60 19h14zM605 -6l90 29l42 75l1 8l-10 61l-41 32l49 28l24 55l1 8l-23 76l-92 29l-91 -27l-38 -73l-1 -8
l11 -55l40 -33l-50 -30l-26 -58l-1 -8l24 -77zM86 0l678 780h-46l-678 -780h46zM64 640h32l14 107h117l55 1l-193 -358h38l198 368l3 22h-246z" />
    <glyph glyph-name="uni215F" unicode="&#x215f;" horiz-adv-x="500" 
d="M86 0l678 780h-46l-678 -780h46zM276 390l4 32h-101l47 360h-23l-133 -83l14 -28l100 62l-41 -311h-102l-4 -32h239z" />
    <glyph glyph-name="arrowleft" unicode="&#x2190;" horiz-adv-x="920" 
d="M450 780l-390 -390l390 -390h56l-370 370h714v40h-714l370 370h-56z" />
    <glyph glyph-name="arrowup" unicode="&#x2191;" horiz-adv-x="920" 
d="M70 344l370 370v-714h40v714l370 -370v56l-390 390l-390 -390v-56z" />
    <glyph glyph-name="arrowright" unicode="&#x2192;" horiz-adv-x="920" 
d="M414 780l370 -370h-714v-40h714l-370 -370h56l390 390l-390 390h-56z" />
    <glyph glyph-name="arrowdown" unicode="&#x2193;" horiz-adv-x="920" 
d="M70 380l390 -390l390 390v56l-370 -370v714h-40v-714l-370 370v-56z" />
    <glyph glyph-name="uni2196" unicode="&#x2196;" horiz-adv-x="920" 
d="M110 0v712l722 -722l28 28l-722 722h712v40h-780v-780h40z" />
    <glyph glyph-name="uni2197" unicode="&#x2197;" horiz-adv-x="920" 
d="M850 0v780h-780v-40h712l-722 -722l28 -28l722 722v-712h40z" />
    <glyph glyph-name="uni2198" unicode="&#x2198;" horiz-adv-x="920" 
d="M70 0h780v780h-40v-712l-722 722l-28 -28l722 -722h-712v-40z" />
    <glyph glyph-name="uni2199" unicode="&#x2199;" horiz-adv-x="920" 
d="M850 40h-712l722 722l-28 28l-722 -722v712h-40v-780h780v40z" />
    <glyph glyph-name="minus" unicode="&#x2212;" horiz-adv-x="600" 
d="M48 370h500l5 40h-500z" />
    <glyph glyph-name="approxequal" unicode="&#x2248;" horiz-adv-x="600" 
d="M195 540l-89 -25l-54 -44l24 -28l46 39l64 20l118 -36l128 -37l89 25l54 44l-24 28l-46 -38l-64 -21l-118 37zM168 340l-88 -25l-55 -44l24 -28l47 39l63 20l119 -36l128 -37l88 25l55 44l-25 28l-46 -38l-63 -21l-119 37z" />
    <glyph glyph-name="notequal" unicode="&#x2260;" horiz-adv-x="600" 
d="M61 470h274l-113 -160h-182l-5 -40h159l-92 -130h43l92 130h298l5 40h-275l114 160h182l6 40h-159l92 130h-43l-93 -130h-297z" />
    <glyph glyph-name="equivalence" unicode="&#x2261;" horiz-adv-x="600" 
d="M48 370h500l5 40h-500zM22 170h500l5 40h-500zM75 570h500l5 40h-500z" />
    <glyph glyph-name="lessequal" unicode="&#x2264;" horiz-adv-x="600" 
d="M521 165l-476 179l-6 -41l477 -179zM580 613l6 43l-524 -179l-5 -40l476 -179l6 41l-424 157z" />
    <glyph glyph-name="greaterequal" unicode="&#x2265;" horiz-adv-x="600" 
d="M16 124l523 179l6 43l-524 -179zM39 301l-6 -43l524 179l5 40l-476 179l-6 -41l424 -157z" />
    <glyph glyph-name="squaremultiply" unicode="&#x22a0;" horiz-adv-x="920" 
d="M227 128l233 233l233 -233l29 29l-233 233l233 233l-29 29l-233 -233l-233 233l-29 -29l233 -233l-233 -233zM810 740v-700h-700v700h700zM850 0v780h-780v-780h780z" />
    <glyph glyph-name="house" unicode="&#x2302;" horiz-adv-x="850" 
d="M780 0v450l-355 340l-355 -340v-450h710z" />
    <glyph glyph-name="whitesquare" unicode="&#x25a1;" horiz-adv-x="920" 
d="M810 740v-700h-700v700h700zM850 0v780h-780v-780h780z" />
    <glyph glyph-name="blacksmallsquare" unicode="&#x25aa;" horiz-adv-x="680" 
d="M600 0v530h-530v-530h530z" />
    <glyph glyph-name="whitesmallsquare" unicode="&#x25ab;" horiz-adv-x="680" 
d="M560 490v-450h-450v450h450zM70 530v-530h530v530h-530z" />
    <glyph glyph-name="triagup" unicode="&#x25b2;" horiz-adv-x="930" 
d="M485 790h-40l-380 -790h42l358 746l358 -746h42z" />
    <glyph glyph-name="triagrt" unicode="&#x25ba;" horiz-adv-x="930" 
d="M870 410l-790 380v-42l746 -358l-746 -358v-42l790 380v40z" />
    <glyph glyph-name="triagdn" unicode="&#x25bc;" horiz-adv-x="930" 
d="M445 -10h40l380 790h-42l-358 -746l-358 746h-42z" />
    <glyph glyph-name="triaglf" unicode="&#x25c4;" horiz-adv-x="930" 
d="M60 410v-40l790 -380v42l-746 358l746 358v42z" />
    <glyph glyph-name="blackcircle" unicode="&#x25cf;" horiz-adv-x="920" 
d="M60 390l117 -283l283 -117l283 117l117 283l-117 283l-283 117l-283 -117z" />
    <glyph glyph-name="uni25E2" unicode="&#x25e2;" horiz-adv-x="930" 
d="M864 14l-289 827l-30 -30l274 -781l-780 275l-30 -30l827 -289z" />
    <glyph glyph-name="uni25E3" unicode="&#x25e3;" horiz-adv-x="930" 
d="M66 14l28 -28l827 289l-30 30l-781 -275l275 781l-30 30z" />
    <glyph glyph-name="uni25E4" unicode="&#x25e4;" horiz-adv-x="930" 
d="M66 766l289 -827l30 30l-275 780l781 -274l30 30l-827 289z" />
    <glyph glyph-name="uni25E5" unicode="&#x25e5;" horiz-adv-x="930" 
d="M864 766l-28 28l-827 -289l30 -30l780 274l-274 -780l30 -30z" />
    <glyph glyph-name="whitecircle" unicode="&#x25ef;" horiz-adv-x="920" 
d="M100 390l105 255l255 105l255 -105l105 -255l-105 -255l-255 -105l-255 105zM60 390l117 -283l283 -117l283 117l117 283l-117 283l-283 117l-283 -117z" />
    <glyph glyph-name="uni2605" unicode="&#x2605;" horiz-adv-x="880" 
d="M440 180l260 -190l-99 307l260 189h-322l-99 306l-99 -306h-322l260 -189l-99 -307z" />
    <glyph glyph-name="ballotboxwithx" unicode="&#x2612;" horiz-adv-x="680" 
d="M560 490v-450h-450v450h450zM70 530v-530h530v530h-530zM202 103l133 133l133 -133l29 29l-133 133l133 133l-29 29l-133 -133l-133 133l-29 -29l133 -133l-133 -133z" />
    <glyph glyph-name="uni263C" unicode="&#x263c;" horiz-adv-x="960" 
d="M521 191l21 -32l17 -64l20 -50l49 -21l15 2l13 6l-24 9l-24 50l4 31l4 31l-12 47l-14 19l172 -113l-113 172l46 -10l49 -31l24 -16l27 -5l38 11l24 35l-10 -6l-25 -6l-43 22l-35 46l-42 25l-24 4l202 42l-202 42l32 21l64 17l51 20l20 49l-2 15l-6 13l-9 -24l-50 -24
l-31 4l-31 4l-47 -12l-19 -14l113 172l-172 -113l10 46l31 49l16 24l5 27l-11 38l-35 24l6 -10l6 -25l-22 -43l-46 -35l-25 -42l-4 -24l-42 202l-42 -202l-21 32l-17 64l-20 51l-49 20l-15 -2l-13 -6l24 -9l24 -50l-4 -31l-4 -31l12 -47l14 -19l-172 113l113 -172l-46 10
l-49 31l-24 16l-27 5l-38 -11l-24 -35l10 6l25 6l43 -22l35 -46l42 -25l24 -4l-202 -42l202 -42l-32 -21l-64 -17l-50 -20l-21 -49l2 -15l6 -13l9 24l50 24l31 -4l31 -4l47 12l19 14l-113 -172l172 113l-10 -46l-31 -49l-16 -24l-5 -27l11 -38l35 -24l-6 10l-6 25l22 43
l46 35l25 42l4 24l42 -202z" />
    <glyph glyph-name="uni263E" unicode="&#x263e;" horiz-adv-x="960" 
d="M624 728l49 -4l47 -11l-112 57l-128 20l-283 -117l-117 -283l117 -283l283 -117l128 20l112 57l-47 -11l-49 -4l-229 99l-95 239l95 239z" />
    <glyph glyph-name="spade" unicode="&#x2660;" horiz-adv-x="900" 
d="M451 790h-2l-89 -108l-144 -122l-115 -95l-49 -131l51 -124l125 -50l124 49l76 112l3 -1l-26 -173l-56 -147h202l-56 147l-26 173l3 1l76 -112l124 -49l125 50l51 124l-49 131l-115 95l-144 122z" />
    <glyph glyph-name="club" unicode="&#x2663;" horiz-adv-x="900" 
d="M349 0h202l-56 147l-26 173l3 1l76 -112l124 -49l125 50l51 124l-48 129l-126 51l-46 -7l-38 -16l-2 2l27 54l11 63l-50 127l-126 53l-126 -53l-50 -127l11 -63l27 -54l-2 -2l-38 16l-46 7l-126 -51l-48 -129l51 -124l125 -50l124 49l76 112l3 -1l-26 -173z" />
    <glyph glyph-name="heart" unicode="&#x2665;" horiz-adv-x="900" 
d="M451 -10l89 120l144 173l108 141l56 160l-51 147l-140 59l-138 -47l-67 -110h-4l-67 110l-138 47l-140 -59l-51 -147l56 -160l108 -141l144 -173l89 -120h2z" />
    <glyph glyph-name="diamond" unicode="&#x2666;" horiz-adv-x="900" 
d="M817 390l-203 189l-163 211h-2l-163 -211l-203 -189l203 -189l163 -211h2l163 211z" />
    <glyph glyph-name="uni267B" unicode="&#x267b;" horiz-adv-x="959" 
d="M806 527l-149 -86l116 -201l72 37l40 89l-3 25l-7 19zM446 41v173h-232l-5 -81l58 -79l24 -10l20 -3h135zM200 598l150 -86l116 201l-68 45l-97 -10l-21 -15l-13 -16zM404 779l34 -9l57 -48l72 -125l-41 -24l173 -31l61 166l-43 -24l-28 49l-41 40l-51 7h-193v-1z
M186 122l-9 35l13 73l37 64l35 61l41 -24l-59 166l-174 -31l42 -24l-28 -49l-14 -56l18 -47l96 -168h2zM863 266l-25 -26l-70 -26h-145v49l-113 -135l113 -136v49h57l56 16l32 40l96 167z" />
    <glyph glyph-name="uni267C" unicode="&#x267c;" horiz-adv-x="960" 
d="M64 390l116 -280l280 -116l280 116l116 280l-116 280l-280 116l-280 -116zM755 294l-75 -130l-24 -30l-44 -13h-44v-38l-88 105l88 105v-38h112l54 20l20 20zM763 407l6 -14l2 -20l-31 -69l-56 -29l-90 156l116 67zM228 184l-75 130l-14 36l11 44l22 38l-33 19l135 24
l46 -129l-32 19l-56 -97l-10 -57l7 -27h-1zM322 121l-15 2l-19 8l-44 61l3 63h180v-134h-105zM394 694h150l39 -5l32 -32l22 -38l33 19l-47 -129l-134 24l32 19l-56 97l-44 37l-27 7v1zM292 645l10 12l16 12l75 8l53 -35l-90 -156l-116 67z" />
    <glyph glyph-name="uni267D" unicode="&#x267d;" horiz-adv-x="960" 
d="M98 390l106 256l256 106l256 -106l106 -256l-106 -256l-256 -106l-256 106zM60 390l117 -283l283 -117l283 117l117 283l-117 283l-283 117l-283 -117zM754 295l-20 -20l-54 -20h-112v38l-88 -105l88 -105v38h44l44 13l24 30l75 130zM710 498l-116 -67l90 -156l56 29
l31 69l-2 20l-6 14zM229 184l-7 27l10 57l56 97l32 -19l-46 129l-135 -24l33 -19l-22 -38l-11 -44l14 -36l75 -130h1zM427 121v134h-180l-3 -63l44 -61l19 -8l15 -2h105zM394 693l27 -7l44 -37l56 -97l-32 -19l134 -24l47 129l-33 -19l-22 38l-32 32l-39 5h-150v-1zM240 553
l116 -67l90 156l-53 35l-75 -8l-16 -12l-10 -12z" />
    <glyph glyph-name="mediumwhitecircle" unicode="&#x26aa;" horiz-adv-x="670" 
d="M100 265l69 166l166 69l166 -69l69 -166l-69 -166l-166 -69l-166 69zM60 265l81 -194l194 -81l195 81l80 194l-80 195l-195 80l-194 -80z" />
    <glyph glyph-name="mediumblackcircle" unicode="&#x26ab;" horiz-adv-x="670" 
d="M60 265l81 -194l194 -81l195 81l80 194l-80 195l-195 80l-194 -80z" />
    <glyph glyph-name="anglebracketleft" unicode="&#x3008;" 
d="M321 840h-43l-225 -480l99 -480h40l-98 476z" />
    <glyph glyph-name="anglebracketright" unicode="&#x3009;" 
d="M-25 -120h43l225 480l-99 480h-40l98 -476z" />
    <glyph glyph-name="fi" unicode="&#xe38c;" horiz-adv-x="570" 
d="M547 735h-60l-8 -60h60zM401 0h40l69 530h-40zM198 667l39 83l81 22l37 -3l26 -6l5 36l-24 7l-44 4l-106 -30l-52 -101l-20 -149h-85l-5 -38h85l-64 -492h40l64 492h160l5 38h-160z" />
    <glyph glyph-name="fl" unicode="&#xe38d;" horiz-adv-x="570" 
d="M401 0h40l105 800h-40zM198 667l39 83l81 22l37 -3l26 -6l5 36l-24 7l-44 4l-106 -30l-52 -101l-20 -149h-85l-5 -38h85l-64 -492h40l64 492h160l5 38h-160z" />
    <glyph glyph-name="invertedbreve" unicode="&#xe411;" horiz-adv-x="497" 
d="M303 790l-121 -47l-52 -123h36l39 98l95 39l85 -39l13 -98h36l-21 123z" />
    <glyph glyph-name="doublegrave" unicode="&#xe412;" horiz-adv-x="500" 
d="M247 780l69 -160h42l-69 160h-42zM137 780l69 -160h42l-69 160h-42z" />
    <glyph glyph-name="caronSlovak" unicode="&#xe413;" horiz-adv-x="500" 
d="M386 800l-24 -180h30l39 180h-45z" />
    <glyph glyph-name="dotbelow" unicode="&#xe415;" horiz-adv-x="602" 
d="M217 -100h-60l-8 -60h60z" />
    <glyph glyph-name="altcedilla" unicode="&#xe416;" horiz-adv-x="601" 
d="M244 -136l-22 -32l-53 -9l-38 5l-29 14l-17 -30l37 -16l48 -6l71 17l36 58l-23 56l-57 15l-39 -4l-31 -8l-4 -31l28 7l33 3l45 -9z" />
    <glyph glyph-name="grave.cap" unicode="&#xe421;" horiz-adv-x="500" 
d="M243 950l47 -110h42l-47 110h-42z" />
    <glyph glyph-name="acute.cap" unicode="&#xe422;" horiz-adv-x="500" 
d="M367 950l-77 -110h42l77 110h-42z" />
    <glyph glyph-name="circumflex.cap" unicode="&#xe423;" horiz-adv-x="500" 
d="M243 840l80 77l60 -77h43l-85 110h-30l-115 -110h47z" />
    <glyph glyph-name="tilde.cap" unicode="&#xe424;" horiz-adv-x="500" 
d="M427 932l-15 -39l-31 -12l-55 31l-69 30l-55 -21l-29 -63h36l16 39l30 12l56 -30l69 -31l55 21l28 63h-36z" />
    <glyph glyph-name="macron.cap" unicode="&#xe425;" horiz-adv-x="500" 
d="M216 875h200l5 40h-200z" />
    <glyph glyph-name="breve.cap" unicode="&#xe426;" horiz-adv-x="500" 
d="M312 830l101 34l45 86h-36l-32 -62l-76 -25l-69 25l-15 62h-36l24 -86z" />
    <glyph glyph-name="invertedbreve.cap" unicode="&#xe427;" horiz-adv-x="498" 
d="M325 960l-101 -34l-45 -86h36l32 62l76 25l69 -25l15 -62h36l-24 86z" />
    <glyph glyph-name="dotaccent.cap" unicode="&#xe428;" horiz-adv-x="500" 
d="M352 925h-60l-8 -60h60z" />
    <glyph glyph-name="dieresis.cap" unicode="&#xe429;" horiz-adv-x="500" 
d="M427 925h-60l-8 -60h60zM277 925h-60l-8 -60h60z" />
    <glyph glyph-name="ring.cap" unicode="&#xe42a;" horiz-adv-x="499" 
d="M257 870l23 41l43 17l39 -17l11 -41l-22 -41l-44 -17l-38 17zM225 870l18 -64l60 -26l67 26l35 64l-18 64l-60 26l-67 -26z" />
    <glyph glyph-name="hungarumlaut.cap" unicode="&#xe42b;" horiz-adv-x="500" 
d="M422 950l-77 -110h42l77 110h-42zM312 950l-77 -110h42l77 110h-42z" />
    <glyph glyph-name="doublegrave.cap" unicode="&#xe42c;" horiz-adv-x="500" 
d="M188 950l47 -110h42l-47 110h-42zM298 950l47 -110h42l-47 110h-42z" />
    <glyph glyph-name="caron.cap" unicode="&#xe42d;" horiz-adv-x="500" 
d="M211 950l85 -110h30l115 110h-47l-81 -77l-59 77h-43z" />
    <glyph glyph-name="commaaccent.cap" unicode="&#xe42e;" horiz-adv-x="500" 
d="M281 840h60l8 60h-30l15 23l34 7l4 30l-61 -22l-24 -50z" />
    <glyph glyph-name="exclamdown.cap" unicode="&#xe441;" horiz-adv-x="200" 
d="M116 720h60l7 60h-60zM74 0l68 605h-24l-90 -605h46z" />
    <glyph glyph-name="questiondown.cap" unicode="&#xe444;" horiz-adv-x="440" 
d="M302 780h-60l-7 -60h60zM176 28l-99 33l-30 99l100 219l114 226h-24l-129 -218l-103 -237l41 -117l130 -43l157 76l64 201l2 13h-40l-53 -183z" />
    <glyph glyph-name="guilsinglleft.cap" unicode="&#xe451;" 
d="M274 560l-220 -155l-4 -30l179 -155l6 42l-146 125l179 125z" />
    <glyph glyph-name="guilsinglright.cap" unicode="&#xe452;" 
d="M68 518l147 -125l-180 -125l-6 -48l221 155l4 30l-180 155z" />
    <glyph glyph-name="guillemotleft.cap" unicode="&#xe453;" horiz-adv-x="500" 
d="M474 560l-221 -155l-4 -30l180 -155l6 42l-147 125l180 125zM274 560l-221 -155l-4 -30l180 -155l6 42l-147 125l180 125z" />
    <glyph glyph-name="guillemotright.cap" unicode="&#xe454;" horiz-adv-x="500" 
d="M68 518l146 -125l-179 -125l-6 -48l220 155l4 30l-179 155zM268 518l146 -125l-179 -125l-6 -48l220 155l4 30l-179 155z" />
    <glyph glyph-name="slash.cap" unicode="&#xe461;" 
d="M25 0l294 780h-40l-294 -780h40z" />
    <glyph glyph-name="backslash.cap" unicode="&#xe462;" 
d="M87 780l90 -780h40l-90 780h-40z" />
    <glyph glyph-name="bar.cap" unicode="&#xe463;" horiz-adv-x="180" 
d="M21 0h40l102 780h-40z" />
    <glyph glyph-name="doublebar.cap" unicode="&#xe464;" horiz-adv-x="280" 
d="M121 0h40l102 780h-40zM21 0h40l102 780h-40z" />
    <glyph glyph-name="brokenbar.cap" unicode="&#xe465;" horiz-adv-x="180" 
d="M21 0h40l46 350h-40zM77 430h40l46 350h-40z" />
    <glyph glyph-name="bullet.cap" unicode="&#xe466;" horiz-adv-x="380" 
d="M328 510h-240l-32 -240h240z" />
    <glyph glyph-name="onethirdemdash" unicode="&#xe471;" horiz-adv-x="333" 
d="M287 331l5 38h-253l-5 -38h253z" />
    <glyph glyph-name="threequarteremdash" unicode="&#xe472;" horiz-adv-x="750" 
d="M34 331h670l5 38h-670z" />
    <glyph glyph-name="periodcentered.cap" unicode="&#xe481;" horiz-adv-x="200" 
d="M136 420h-60l-8 -60h60z" />
    <glyph glyph-name="hyphen.cap" unicode="&#xe482;" horiz-adv-x="320" 
d="M39 371h240l5 38h-240z" />
    <glyph glyph-name="onethirdemdash.cap" unicode="&#xe483;" horiz-adv-x="333" 
d="M292 371l5 38h-244l-5 -38h244z" />
    <glyph glyph-name="endash.cap" unicode="&#xe484;" horiz-adv-x="500" 
d="M39 371h420l5 38h-420z" />
    <glyph glyph-name="threequarteremdash.cap" unicode="&#xe485;" horiz-adv-x="750" 
d="M39 371h670l5 38h-670z" />
    <glyph glyph-name="emdash.cap" unicode="&#xe486;" horiz-adv-x="1000" 
d="M39 371h920l5 38h-920z" />
    <glyph glyph-name="figuredash.cap" unicode="&#xe487;" horiz-adv-x="600" 
d="M39 371h520l5 38h-520z" />
    <glyph glyph-name="uni2015.cap" unicode="&#xe488;" horiz-adv-x="1200" 
d="M39 371h1120l5 38h-1120z" />
    <glyph glyph-name="parenleft.cap" unicode="&#xe491;" 
d="M65 379l7 -206l64 -173h44l-65 174l-9 204l3 24l63 204l113 174h-46l-110 -172l-61 -206z" />
    <glyph glyph-name="parenright.cap" unicode="&#xe492;" horiz-adv-x="294" 
d="M237 401l-7 206l-64 173h-44l66 -174l8 -204l-3 -24l-63 -204l-113 -174h46l110 173l61 205z" />
    <glyph glyph-name="bracketleft.cap" unicode="&#xe493;" 
d="M123 780l-102 -780h185l5 40h-145l92 700h145l5 40h-185z" />
    <glyph glyph-name="bracketright.cap" unicode="&#xe494;" 
d="M181 0l102 780h-185l-5 -40h145l-92 -700h-145l-5 -40h185z" />
    <glyph glyph-name="braceleft.cap" unicode="&#xe495;" 
d="M308 780h-15l-86 -24l-55 -101l-21 -155l-32 -74l-69 -16l-6 -40l66 -16l12 -74l-20 -155l28 -100l81 -25h15l5 40l-76 19l-10 91l19 142l-7 64l-33 34l42 34l24 64l18 142l36 90l79 20z" />
    <glyph glyph-name="braceright.cap" unicode="&#xe496;" 
d="M-4 0h15l86 24l55 101l21 155l32 74l69 16l6 40l-66 16l-12 74l20 155l-28 100l-81 25h-15l-5 -40l76 -19l10 -91l-19 -142l7 -64l33 -34l-42 -34l-24 -64l-18 -142l-36 -89l-79 -21z" />
    <glyph glyph-name="anglebracketleft.cap" unicode="&#xe497;" 
d="M180 0l-82 387l186 393h-42l-185 -390l83 -390h40z" />
    <glyph glyph-name="anglebracketright.cap" unicode="&#xe498;" 
d="M124 780l82 -387l-186 -393h42l185 390l-83 390h-40z" />
    <glyph glyph-name="lowline" unicode="&#xe511;" horiz-adv-x="320" 
d="M1 0h220l5 38h-220z" />
    <glyph glyph-name="underscoremonospace" unicode="&#xe512;" horiz-adv-x="600" 
d="M-15 -118h500l5 38h-500z" />
    <glyph glyph-name="at.cap" unicode="&#xe513;" horiz-adv-x="945" 
d="M627 510l-30 -230l-64 -61l-98 -31l-117 57l-20 140l3 20l59 140l130 57l90 -31zM438 -72l-288 114l-76 328l5 40l157 324l317 118h6l251 -88l77 -279l-4 -30l-92 -212l-165 -46l38 283l24 150h-30l-20 -77l-52 61l-98 26l-162 -73l-67 -162l-3 -20l24 -162l147 -73
l103 26l66 60v-76h25l198 58l106 237l4 30l-88 304l-288 101l-346 -127l-168 -353l-5 -40l82 -352l325 -128l182 22l181 88l-19 32l-164 -80l-177 -24h-6z" />
    <glyph glyph-name="zero.inf" unicode="&#xe571;" horiz-adv-x="298" 
d="M172 -84l-25 -68l-67 -22h-2l-63 23l-10 66l21 158l25 68l67 22h2l62 -23l11 -66zM-31 -89l18 -84l89 -33l95 29l36 88l22 167l-18 84l-89 33l-95 -29l-36 -88z" />
    <glyph glyph-name="one.inf" unicode="&#xe572;" 
d="M198 -200l4 32h-101l47 360h-23l-133 -83l14 -28l100 62l-41 -311h-102l-4 -32h239z" />
    <glyph glyph-name="two.inf" unicode="&#xe573;" horiz-adv-x="298" 
d="M200 -168h-190l164 153l40 43l19 52l1 8l-22 77l-91 30l-92 -31l-41 -89l-2 -15h35l32 79l66 24h4l59 -19l16 -56l-1 -8l-16 -42l-35 -37l-191 -179l-3 -22h244z" />
    <glyph glyph-name="three.inf" unicode="&#xe574;" horiz-adv-x="298" 
d="M1 -75h-36l-1 -8l23 -90l94 -33l89 28l40 74l1 8l-10 62l-41 33l49 27l24 54l1 8l-22 77l-91 30l-93 -31l-40 -89l-2 -15h35l32 79l66 24h4l59 -19l16 -56l-1 -8l-30 -50l-60 -15h-55l-4 -32h57l55 -21l15 -58l-1 -8l-30 -54l-60 -16h-6l-62 24z" />
    <glyph glyph-name="four.inf" unicode="&#xe575;" 
d="M151 129l-8 -51l-18 -142h-80l-43 -1zM143 -200l13 103h64l5 33h-64l33 254h-35l-202 -263l-4 -24h167l-13 -103h36z" />
    <glyph glyph-name="five.inf" unicode="&#xe576;" 
d="M-35 -75l-1 -8l23 -90l94 -33l89 31l43 88l1 8l-23 93l-90 33l-50 -10l-33 -21l25 141h197l4 33h-231l-39 -219l29 -9l42 40l53 13h6l58 -23l17 -70l-1 -8l-33 -67l-61 -21h-6l-62 24l-15 75h-36z" />
    <glyph glyph-name="six.inf" unicode="&#xe577;" 
d="M109 13l58 -22l14 -65l-1 -8l-32 -67l-67 -25h-4l-57 29l-16 77l3 25l42 40l56 16h4zM234 195l-97 -17l-90 -61l-54 -83l-23 -89l-1 -8l21 -103l89 -40l92 30l44 94l1 8l-27 91l-79 28l-51 -11l-37 -25l21 45l31 42l76 52l80 15z" />
    <glyph glyph-name="seven.inf" unicode="&#xe578;" 
d="M-14 50h32l14 107h117l55 1l-193 -358h38l198 368l3 22h-246z" />
    <glyph glyph-name="eight.inf" unicode="&#xe579;" horiz-adv-x="298" 
d="M121 163l60 -18l17 -55l-1 -8l-30 -51l-60 -16h-10l-55 18l-17 54l1 8l29 51l62 17h4zM105 -17l55 -20l15 -57l-1 -8l-32 -55l-61 -17h-6l-58 19l-18 58l1 8l31 53l60 19h14zM78 -206l90 29l42 75l1 8l-10 61l-41 32l49 28l24 55l1 8l-23 76l-92 29l-91 -27l-38 -73
l-1 -8l11 -55l40 -33l-50 -30l-26 -58l-1 -8l24 -77z" />
    <glyph glyph-name="nine.inf" unicode="&#xe57a;" horiz-adv-x="298" 
d="M89 -24l-58 22l-14 65l1 8l32 67l67 25h4l58 -29l15 -77l-3 -25l-42 -40l-56 -16h-4zM-36 -206l97 17l90 61l54 83l23 89l1 8l-21 103l-89 40l-92 -30l-44 -94l-1 -8l27 -91l79 -28l51 11l37 25l-21 -45l-31 -42l-76 -52l-80 -15z" />
    <glyph glyph-name="plus.inf" unicode="&#xe57b;" 
d="M99 121l-14 -110h-109l-5 -33h109l-14 -109h33l14 109h110l5 33h-110l14 110h-33z" />
    <glyph glyph-name="minus.inf" unicode="&#xe57c;" 
d="M-29 -22h252l5 33h-252z" />
    <glyph glyph-name="equal.inf" unicode="&#xe57d;" 
d="M-35 -73h252l4 33h-252zM-22 29h252l4 33h-252z" />
    <glyph glyph-name="parenleft.inf" unicode="&#xe57e;" horiz-adv-x="158" 
d="M-22 -5l5 -106l32 -89h36l-31 89l-6 106l1 8l33 107l55 80h-38l-55 -80l-31 -107z" />
    <glyph glyph-name="parenright.inf" unicode="&#xe57f;" horiz-adv-x="155" 
d="M78 -5l-5 106l-32 89h-36l31 -89l6 -106l-1 -8l-33 -107l-55 -80h38l55 80l31 107z" />
    <glyph glyph-name="Anocross" unicode="&#xe731;" horiz-adv-x="600" 
d="M325 790l-340 -790h46l320 750l124 -750h42l-132 790h-60z" />
    <glyph glyph-name="blacksquare" unicode="&#xe740;" horiz-adv-x="920" 
d="M850 0v780h-780v-780h780z" />
    <glyph glyph-name="idotaccent" unicode="&#xe785;" horiz-adv-x="200" 
d="M177 735h-60l-8 -60h60zM31 0h40l69 530h-40z" />
    <glyph glyph-name="interrobangdown" unicode="&#xe935;" horiz-adv-x="440" 
d="M270 530h-60l-7 -60h60zM18 -50l61 155l107 124l-61 -400l-83 35zM205 355l-127 -202l-102 -213l39 -108l127 -42l156 65l70 192l2 13h-40l-51 -162l-109 -68l59 525h-24z" />
    <glyph glyph-name="interrobangdown.cap" unicode="&#xe99b;" horiz-adv-x="440" 
d="M236 720h60l7 60h-60zM48 160l62 176l109 140l-67 -447l-80 39zM238 605l-129 -218l-103 -237l41 -117l130 -43l157 76l64 201l2 13h-40l-48 -175l-115 -76l65 576h-24z" />
    <glyph glyph-name="registered.cap" unicode="&#xe99c;" horiz-adv-x="920" 
d="M100 390l105 255l255 105l255 -105l105 -255l-105 -255l-255 -105l-255 105zM60 390l117 -283l283 -117l283 117l117 283l-117 283l-283 117l-283 -117zM351 391v198h120l68 -17l34 -78v-8l-34 -77l-68 -18h-120zM351 355h120h11l10 1l78 -201h43l-81 208l57 39l24 82v12
l-46 104l-96 25h-160v-470h40v200z" />
    <glyph glyph-name="period.T" unicode="&#xf182;" 
d="M138 60h-60l-7 -60h60z" />
    <glyph glyph-name="comma.T" unicode="&#xf183;" 
d="M138 60h-60l-7 -60h30l-25 -63l-46 -17l-4 -30l71 30l35 92z" />
    <glyph glyph-name="colon.T" unicode="&#xf184;" 
d="M186 420h-60l-8 -60h60zM138 60h-60l-7 -60h60z" />
    <glyph glyph-name="semicolon.T" unicode="&#xf185;" 
d="M186 420h-60l-8 -60h60zM138 60h-60l-7 -60h30l-25 -63l-46 -17l-4 -30l71 30l35 92z" />
    <glyph glyph-name="onesixteenth" unicode="&#xf215;" horiz-adv-x="1100" 
d="M936 213l58 -22l14 -65l-1 -8l-32 -67l-67 -25h-4l-57 29l-16 77l3 25l42 40l56 16h4zM1061 395l-97 -17l-90 -61l-54 -83l-23 -89l-1 -8l21 -103l89 -40l92 31l44 93l1 8l-27 91l-79 28l-51 -11l-37 -25l21 45l31 42l76 52l80 15zM725 0l4 32h-101l47 360h-23l-133 -83
l14 -28l100 62l-41 -311h-102l-4 -32h239zM86 0l678 780h-46l-678 -780h46zM276 390l4 32h-101l47 360h-23l-133 -83l14 -28l100 62l-41 -311h-102l-4 -32h239z" />
    <glyph glyph-name="threesixteenths" unicode="&#xf216;" horiz-adv-x="1100" 
d="M936 213l58 -22l14 -65l-1 -8l-32 -67l-67 -25h-4l-57 29l-16 77l3 25l42 40l56 16h4zM1061 395l-97 -17l-90 -61l-54 -83l-23 -89l-1 -8l21 -103l89 -40l92 31l44 93l1 8l-27 91l-79 28l-51 -11l-37 -25l21 45l31 42l76 52l80 15zM725 0l4 32h-101l47 360h-23l-133 -83
l14 -28l100 62l-41 -311h-102l-4 -32h239zM86 0l678 780h-46l-678 -780h46zM79 515h-36l-1 -8l23 -90l94 -33l89 28l40 74l1 8l-10 62l-41 33l49 27l24 54l1 8l-22 77l-91 30l-93 -31l-40 -89l-2 -15h35l32 79l66 24h4l59 -19l16 -56l-1 -8l-30 -50l-60 -15h-55l-4 -32h57
l55 -21l15 -58l-1 -8l-30 -54l-60 -16h-6l-62 24z" />
    <glyph glyph-name="fivesixteenths" unicode="&#xf217;" horiz-adv-x="1100" 
d="M936 213l58 -22l14 -65l-1 -8l-32 -67l-67 -25h-4l-57 29l-16 77l3 25l42 40l56 16h4zM1061 395l-97 -17l-90 -61l-54 -83l-23 -89l-1 -8l21 -103l89 -40l92 31l44 93l1 8l-27 91l-79 28l-51 -11l-37 -25l21 45l31 42l76 52l80 15zM725 0l4 32h-101l47 360h-23l-133 -83
l14 -28l100 62l-41 -311h-102l-4 -32h239zM86 0l678 780h-46l-678 -780h46zM43 515l-1 -8l23 -90l94 -33l89 31l43 88l1 8l-23 93l-90 33l-50 -10l-33 -21l25 141h197l4 33h-231l-39 -219l29 -9l42 40l53 13h6l58 -22l17 -71l-1 -8l-33 -67l-61 -21h-6l-62 24l-15 75h-36z
" />
    <glyph glyph-name="sevensixteenths" unicode="&#xf218;" horiz-adv-x="1100" 
d="M936 213l58 -22l14 -65l-1 -8l-32 -67l-67 -25h-4l-57 29l-16 77l3 25l42 40l56 16h4zM1061 395l-97 -17l-90 -61l-54 -83l-23 -89l-1 -8l21 -103l89 -40l92 31l44 93l1 8l-27 91l-79 28l-51 -11l-37 -25l21 45l31 42l76 52l80 15zM725 0l4 32h-101l47 360h-23l-133 -83
l14 -28l100 62l-41 -311h-102l-4 -32h239zM86 0l678 780h-46l-678 -780h46zM64 640h32l14 107h117l55 1l-193 -358h38l198 368l3 22h-246z" />
    <glyph glyph-name="ninesixteenths" unicode="&#xf219;" horiz-adv-x="1100" 
d="M936 213l58 -22l14 -65l-1 -8l-32 -67l-67 -25h-4l-57 29l-16 77l3 25l42 40l56 16h4zM1061 395l-97 -17l-90 -61l-54 -83l-23 -89l-1 -8l21 -103l89 -40l92 31l44 93l1 8l-27 91l-79 28l-51 -11l-37 -25l21 45l31 42l76 52l80 15zM725 0l4 32h-101l47 360h-23l-133 -83
l14 -28l100 62l-41 -311h-102l-4 -32h239zM86 0l678 780h-46l-678 -780h46zM167 566l-58 22l-14 65l1 8l32 67l67 25h4l58 -29l15 -77l-3 -25l-42 -40l-56 -16h-4zM42 384l97 17l90 61l54 83l23 89l1 8l-21 103l-89 40l-92 -30l-44 -94l-1 -8l27 -91l79 -28l51 11l37 25
l-21 -45l-31 -42l-76 -52l-80 -15z" />
    <glyph glyph-name="elevensixteenths" unicode="&#xf220;" horiz-adv-x="1400" 
d="M1236 213l58 -22l14 -65l-1 -8l-32 -67l-67 -25h-4l-57 29l-16 77l3 25l42 40l56 16h4zM1361 395l-97 -17l-90 -61l-54 -83l-23 -89l-1 -8l21 -103l89 -40l92 31l44 93l1 8l-27 91l-79 28l-51 -11l-37 -25l21 45l31 42l76 52l80 15zM1025 0l4 32h-101l47 360h-23
l-133 -83l14 -28l100 62l-41 -311h-102l-4 -32h239zM386 0l678 780h-46l-678 -780h46zM576 390l4 32h-101l47 360h-23l-133 -83l14 -28l100 62l-41 -311h-102l-4 -32h239zM276 390l4 32h-101l47 360h-23l-133 -83l14 -28l100 62l-41 -311h-102l-4 -32h239z" />
    <glyph glyph-name="thirteensixteenths" unicode="&#xf221;" horiz-adv-x="1400" 
d="M1236 213l58 -22l14 -65l-1 -8l-32 -67l-67 -25h-4l-57 29l-16 77l3 25l42 40l56 16h4zM1361 395l-97 -17l-90 -61l-54 -83l-23 -89l-1 -8l21 -103l89 -40l92 31l44 93l1 8l-27 91l-79 28l-51 -11l-37 -25l21 45l31 42l76 52l80 15zM1025 0l4 32h-101l47 360h-23
l-133 -83l14 -28l100 62l-41 -311h-102l-4 -32h239zM386 0l678 780h-46l-678 -780h46zM379 515h-36l-1 -8l23 -90l94 -33l89 28l40 74l1 8l-10 62l-41 33l49 27l24 54l1 8l-22 77l-91 30l-93 -31l-40 -89l-2 -15h35l32 79l66 24h4l59 -19l16 -56l-1 -8l-30 -50l-60 -15h-55
l-4 -32h57l55 -21l15 -58l-1 -8l-30 -54l-60 -16h-6l-62 24zM276 390l4 32h-101l47 360h-23l-133 -83l14 -28l100 62l-41 -311h-102l-4 -32h239z" />
    <glyph glyph-name="fifteensixteenths" unicode="&#xf222;" horiz-adv-x="1400" 
d="M1236 213l58 -22l14 -65l-1 -8l-32 -67l-67 -25h-4l-57 29l-16 77l3 25l42 40l56 16h4zM1361 395l-97 -17l-90 -61l-54 -83l-23 -89l-1 -8l21 -103l89 -40l92 31l44 93l1 8l-27 91l-79 28l-51 -11l-37 -25l21 45l31 42l76 52l80 15zM1025 0l4 32h-101l47 360h-23
l-133 -83l14 -28l100 62l-41 -311h-102l-4 -32h239zM386 0l678 780h-46l-678 -780h46zM343 515l-1 -8l23 -90l94 -33l89 31l43 88l1 8l-23 93l-90 33l-50 -10l-33 -21l25 141h197l4 33h-231l-39 -219l29 -9l42 40l53 13h6l58 -22l17 -71l-1 -8l-33 -67l-61 -21h-6l-62 24
l-15 75h-36zM276 390l4 32h-101l47 360h-23l-133 -83l14 -28l100 62l-41 -311h-102l-4 -32h239z" />
    <glyph glyph-name="commaaccent" unicode="&#xf6c3;" horiz-adv-x="602" 
d="M223 -60h-60l-8 -60h30l-25 -46l-43 -14l-4 -30l69 28l34 74z" />
    </font>
</defs>
</svg>
