<?xml version="1.0" standalone="no"?>
<!DOCTYPE svg PUBLIC "-//W3C//DTD SVG 1.1//EN" "http://www.w3.org/Graphics/SVG/1.1/DTD/svg11.dtd" >
<svg>
<metadata>
Created by FontForge 20120731 at Sun Aug 14 12:57:35 2016
 By www-data
Copyright (c) 2014, Cooper Hewitt Smithsonian Design Museum (cooperhewitt.org)
</metadata>
<defs>
<font id="CooperHewittInterpol1-BoldItalic" horiz-adv-x="300" >
  <font-face 
    font-family="Cooper Hewitt Interpol 1"
    font-weight="712"
    font-style="italic"
    font-stretch="normal"
    units-per-em="1000"
    panose-1="0 0 0 0 0 0 0 0 0 0"
    ascent="750"
    descent="-250"
    x-height="530"
    cap-height="780"
    bbox="-304 -226 1382 969"
    underline-thickness="50"
    underline-position="-75"
    unicode-range="U+0020-F6C3"
  />
<missing-glyph horiz-adv-x="962" 
d="M526 390l275 275v-550zM436 390l-275 -275v550zM202 714h558l-279 -279zM481 345l279 -279h-558zM91 0h780v780h-780v-780z" />
    <glyph glyph-name=".notdef" horiz-adv-x="962" 
d="M526 390l275 275v-550zM436 390l-275 -275v550zM202 714h558l-279 -279zM481 345l279 -279h-558zM91 0h780v780h-780v-780z" />
    <glyph glyph-name="space" unicode=" " horiz-adv-x="200" 
 />
    <glyph glyph-name="exclam" unicode="!" horiz-adv-x="265" 
d="M190 167h-167l-22 -167h167zM88 780l-30 -552h112l114 552h-196z" />
    <glyph glyph-name="quotedbl" unicode="&#x22;" horiz-adv-x="446" 
d="M298 780l-34 -323h121l67 323h-154zM100 780l-17 -323h121l51 323h-155z" />
    <glyph glyph-name="numbersign" unicode="#" horiz-adv-x="600" 
d="M280 449h81l-37 -118h-81zM384 780h-137l-61 -193h-91l-18 -138h66l-37 -118h-89l-18 -138h63l-60 -193h137l60 193h81l-60 -193h137l60 193h92l18 138h-66l37 118h89l18 138h-64l61 193h-137l-61 -193h-81z" />
    <glyph glyph-name="dollar" unicode="$" horiz-adv-x="597" 
d="M263 333l88 -26l30 -51l-25 -56l-71 -20h-5l-73 27l-16 74h-159l-1 -7l14 -121l82 -76l-50 -137h121l41 112l14 -1h15l191 50l82 146l2 17l-45 129l-152 60l-92 25l-25 46l24 56l68 21h5l72 -29l11 -81h157l2 11l-12 122l-76 78l51 138h-121l-41 -110l-17 1h-17l-181 -51
l-82 -141l-2 -17l38 -127z" />
    <glyph glyph-name="percent" unicode="%" horiz-adv-x="979" 
d="M57 592l38 -136l140 -52l129 50l71 140l1 11l1 12v11l27 -3h21l42 3l30 5l-347 -633h138l388 708l10 75l-88 -20l-138 -12l-95 7l-82 20l-41 11l-44 4l-129 -50l-71 -140zM174 604l25 53l48 19h10l47 -20l16 -52l-1 -11l-24 -53l-49 -19h-10l-47 20l-16 52zM811 176
l-24 -53l-49 -19h-10l-47 20l-16 52l1 11l25 53l48 19h10l47 -20l16 -52zM928 188l-38 136l-140 52l-129 -50l-71 -140l-1 -11l38 -136l140 -52l129 50l71 140z" />
    <glyph glyph-name="ampersand" unicode="&#x26;" horiz-adv-x="691" 
d="M249 608l21 40l43 15h6l39 -16l10 -41l-1 -8l-30 -53l-64 -42l-20 44l-5 53zM242 123l-68 27l-14 74l1 8l17 49l33 38l122 -171l-35 -17l-50 -8h-6zM204 -13l112 13l96 37l28 -37h190l-93 129l84 120l43 146h-166l-1 -7l-20 -73l-32 -58l-101 141l115 74l65 124l2 13
l-35 128l-165 56l-168 -52l-68 -125l-2 -14l6 -98l41 -80l-90 -76l-46 -124l-2 -17l42 -161z" />
    <glyph glyph-name="quotesingle" unicode="'" horiz-adv-x="265" 
d="M100 780l-17 -323h121l67 323h-171z" />
    <glyph glyph-name="parenleft" unicode="(" horiz-adv-x="365" 
d="M36 346l13 -272l72 -194h160l-74 209l-16 257l3 29l78 261l135 204h-162l-130 -193l-76 -272z" />
    <glyph glyph-name="parenright" unicode=")" horiz-adv-x="359" 
d="M326 374l-13 272l-72 194h-160l74 -209l16 -257l-3 -29l-78 -261l-135 -204h162l130 193l76 272z" />
    <glyph glyph-name="asterisk" unicode="*" horiz-adv-x="413" 
d="M370 467l-69 105l-70 -46l61 -111zM423 706l-131 -47l14 -75l134 37zM131 415l90 111l-58 46l-97 -105zM37 621l123 -37l35 75l-120 47zM218 800l-13 -134h79l23 134h-89z" />
    <glyph glyph-name="plus" unicode="+" horiz-adv-x="600" 
d="M265 648l-25 -188h-188l-18 -140h188l-25 -188h140l25 188h188l18 140h-188l25 188h-140z" />
    <glyph glyph-name="comma" unicode="," horiz-adv-x="266" 
d="M190 167h-167l-22 -167h85l-34 -50l-64 -17l-10 -76l134 44l61 136z" />
    <glyph glyph-name="hyphen" unicode="-" horiz-adv-x="353" 
d="M27 281h273l18 138h-273z" />
    <glyph glyph-name="period" unicode="." horiz-adv-x="266" 
d="M190 167h-167l-22 -167h167z" />
    <glyph glyph-name="slash" unicode="/" horiz-adv-x="414" 
d="M460 840h-153l-356 -960h153z" />
    <glyph glyph-name="zero" unicode="0" horiz-adv-x="597" 
d="M374 223l-31 -74l-73 -22h-4l-68 26l-14 69l44 335l31 74l73 22h4l68 -26l14 -69zM578 558l-47 171l-191 64l-194 -58l-78 -177l-44 -336l47 -171l191 -64l194 58l78 177z" />
    <glyph glyph-name="one" unicode="1" horiz-adv-x="600" 
d="M512 0l19 140h-172l84 641h-118l-266 -165l64 -116l134 82l-58 -442h-171l-18 -140h502z" />
    <glyph glyph-name="two" unicode="2" horiz-adv-x="597" 
d="M310 140l-71 -1l227 219l79 89l33 100l3 22l-44 154l-197 70l-191 -62l-83 -189l-3 -22h160l37 104l73 29h10l61 -26l15 -79l-1 -8l-18 -53l-49 -55l-343 -331l-13 -101h512l18 140h-215z" />
    <glyph glyph-name="three" unicode="3" horiz-adv-x="598" 
d="M182 250h-160l-3 -22l47 -175l203 -66l198 69l71 143l3 22l-13 114l-70 62l81 54l40 104l3 22l-44 147l-198 69l-190 -64l-84 -187l-3 -22h160l39 104l73 29h10l59 -24l16 -63l-1 -8l-33 -67l-71 -23h-104l-18 -140h106l67 -24l15 -73l-1 -8l-37 -74l-69 -22h-10l-66 24z
" />
    <glyph glyph-name="four" unicode="4" horiz-adv-x="600" 
d="M349 525l-8 -59l-21 -156h-84l-52 -2zM439 0l23 170h84l19 140h-85l62 470h-152l-376 -494l-15 -116h303l-23 -170h160z" />
    <glyph glyph-name="five" unicode="5" horiz-adv-x="600" 
d="M22 250l-3 -22l47 -175l203 -66l187 66l86 182l3 22l-41 179l-169 70l-75 -10l-59 -30l31 174h353l19 140h-488l-75 -427l132 -47l51 46l62 15h10l67 -27l21 -89l-1 -8l-39 -89l-70 -27h-10l-66 24l-16 99h-160z" />
    <glyph glyph-name="six" unicode="6" horiz-adv-x="600" 
d="M189 293l50 44l55 15h10l63 -25l19 -76l-1 -8l-38 -89l-74 -27h-10l-59 26l-23 83l3 29zM578 793l-213 -27l-179 -111l-111 -176l-42 -175l-3 -22l40 -212l198 -83l192 66l84 182l3 22l-37 172l-148 64l-75 -12l-60 -35l28 63l39 51l114 69l152 22z" />
    <glyph glyph-name="seven" unicode="7" horiz-adv-x="600" 
d="M52 500h141l18 140h115l95 2l-353 -642h173l365 679l13 101h-530z" />
    <glyph glyph-name="eight" unicode="8" horiz-adv-x="598" 
d="M345 653l58 -24l17 -63l-1 -8l-33 -67l-71 -23h-11l-58 23l-19 63l1 8l34 68l73 23h10zM299 328l66 -24l16 -73l-1 -8l-37 -74l-69 -22h-10l-66 23l-19 69l1 8l36 76l69 25h14zM264 -13l202 69l72 143l3 22l-13 114l-69 62l80 54l40 104l3 22l-45 147l-199 69l-200 -69
l-67 -140l-3 -22l17 -105l66 -60l-87 -57l-44 -109l-3 -22l50 -155z" />
    <glyph glyph-name="nine" unicode="9" horiz-adv-x="595" 
d="M415 487l-49 -44l-56 -15h-10l-63 25l-19 76l1 8l38 90l74 26h10l59 -26l23 -83l-3 -28zM26 -13l213 27l179 111l111 176l42 175l3 22l-40 212l-198 83l-192 -66l-84 -182l-3 -22l37 -172l148 -64l75 12l60 35l-27 -63l-40 -51l-114 -69l-152 -22z" />
    <glyph glyph-name="colon" unicode=":" horiz-adv-x="266" 
d="M231 474h-167l-22 -167h167zM190 167h-167l-22 -167h167z" />
    <glyph glyph-name="semicolon" unicode=";" horiz-adv-x="266" 
d="M190 167h-167l-22 -167h85l-34 -50l-64 -17l-10 -76l134 44l61 136zM231 474h-167l-22 -167h167z" />
    <glyph glyph-name="less" unicode="&#x3c;" horiz-adv-x="600" 
d="M53 467l-20 -154l489 -205l20 151l-325 130l359 130l20 153z" />
    <glyph glyph-name="equal" unicode="=" horiz-adv-x="600" 
d="M20 211h516l18 140h-516zM48 429h516l18 140h-516z" />
    <glyph glyph-name="greater" unicode="&#x3e;" horiz-adv-x="600" 
d="M549 313l20 154l-489 205l-20 -151l325 -130l-359 -130l-20 -153z" />
    <glyph glyph-name="question" unicode="?" horiz-adv-x="497" 
d="M301 167h-167l-22 -167h167zM290 654l45 -15l13 -41l-89 -158l-90 -212h112l124 185l105 212l-44 119l-171 49l-177 -64l-76 -190l-3 -23h159l30 106z" />
    <glyph glyph-name="at" unicode="@" horiz-adv-x="986" 
d="M563 374l-21 -158l-34 -31l-56 -16l-60 29l-10 80l5 38l30 78l65 27l54 -16zM464 -110l-270 98l-76 290l5 38l136 282l275 92h10l233 -61l85 -229l-5 -38l-58 -158l-127 -42l30 231l26 137h-122l-16 -59l-49 52l-86 20l-145 -63l-67 -164l-5 -38l25 -166l137 -65l81 20
l60 52l3 -59h95l208 61l115 241l5 38l-104 299l-324 94l-344 -120l-177 -357l-5 -38l99 -361l357 -130l173 25l208 106l-52 82l-152 -81l-172 -29h-10z" />
    <glyph glyph-name="A" unicode="A" horiz-adv-x="641" 
d="M351 601l25 -293h-128zM262 782l-297 -782h174l60 168h190l15 -168h174l-93 782h-223z" />
    <glyph glyph-name="B" unicode="B" horiz-adv-x="628" 
d="M348 640l57 -17l19 -62l-2 -15l-36 -62l-60 -15h-96l23 171h95zM322 328l62 -19l17 -71l-2 -15l-37 -68l-68 -15h-107l24 188h111zM109 780l-102 -780h265l185 35l104 179l3 23l-12 107l-67 59l69 48l31 91l3 23l-56 174l-165 41h-258z" />
    <glyph glyph-name="C" unicode="C" horiz-adv-x="646" 
d="M207 407l51 182l104 64h10l83 -42l8 -127h163l4 32l-45 208l-214 69l-224 -92l-105 -295l-4 -32l43 -295l214 -92l204 60l96 204l2 15h-163l-32 -102l-98 -37h-10l-86 65l-5 182z" />
    <glyph glyph-name="D" unicode="D" horiz-adv-x="656" 
d="M187 140l66 500h76l121 -59l13 -175l-4 -32l-62 -179l-147 -55h-63zM628 406l-49 290l-242 84h-228l-102 -780h241l259 82l117 292z" />
    <glyph glyph-name="E" unicode="E" horiz-adv-x="573" 
d="M109 780l-102 -780h477l18 140h-315l25 188h265l18 140h-265l23 172h315l18 140h-477z" />
    <glyph glyph-name="F" unicode="F" horiz-adv-x="549" 
d="M109 780l-102 -780h162l43 328h261l18 140h-261l23 172h311l18 140h-473z" />
    <glyph glyph-name="G" unicode="G" horiz-adv-x="669" 
d="M314 -13l165 29l104 61l45 345h-265l-18 -140h103l-17 -128l-43 -19l-63 -8h-10l-100 65l-12 182l4 33l54 182l106 64h10l86 -42l10 -127h163l4 32l-47 208l-217 69l-227 -92l-107 -295l-4 -32l53 -295z" />
    <glyph glyph-name="H" unicode="H" horiz-adv-x="663" 
d="M498 780l-41 -312h-227l41 312h-162l-102 -780h162l43 328h227l-43 -328h162l102 780h-162z" />
    <glyph glyph-name="I" unicode="I" horiz-adv-x="283" 
d="M276 780h-162l-102 -780h162z" />
    <glyph glyph-name="J" unicode="J" horiz-adv-x="537" 
d="M377 780l-68 -528l-28 -97l-62 -28l-55 33l-2 106h-154l-4 -32l34 -182l179 -65l178 63l74 189l70 541h-162z" />
    <glyph glyph-name="K" unicode="K" horiz-adv-x="625" 
d="M271 780h-162l-102 -780h162l28 225l81 97l100 -322h179l-159 467l261 313h-197l-232 -301z" />
    <glyph glyph-name="L" unicode="L" horiz-adv-x="521" 
d="M457 0l18 140h-288l84 640h-162l-102 -780h450z" />
    <glyph glyph-name="M" unicode="M" horiz-adv-x="869" 
d="M673 499l-28 -177l-42 -322h162l102 780h-249l-202 -499l-71 499h-236l-102 -780h162l42 322l18 177l74 -499h165z" />
    <glyph glyph-name="N" unicode="N" horiz-adv-x="683" 
d="M109 780l-102 -780h155l42 322l17 162l188 -484h169l102 780h-155l-42 -322l-17 -162l-188 484h-169z" />
    <glyph glyph-name="O" unicode="O" horiz-adv-x="666" 
d="M299 127l-93 65l-3 182l4 32l50 182l110 65h10l93 -65l3 -182l-4 -32l-50 -182l-110 -65h-10zM376 793l-230 -92l-104 -295l-4 -32l42 -295l220 -92l230 92l104 295l4 32l-42 296z" />
    <glyph glyph-name="P" unicode="P" horiz-adv-x="605" 
d="M223 420l30 220h100l65 -20l23 -86l-2 -15l-45 -81l-69 -18h-102zM206 280h104l183 41l109 194l3 23l-55 193l-178 49h-263l-102 -780h162z" />
    <glyph glyph-name="Q" unicode="Q" horiz-adv-x="666" 
d="M372 262h-122l34 -134l-80 71l-1 175l4 32l50 182l110 65h10l93 -65l3 -182l-4 -32l-26 -127l-45 -83zM376 793l-230 -92l-104 -295l-4 -32l42 -295l220 -92h20l22 -87h126l-30 112l130 123l66 239l4 32l-42 296z" />
    <glyph glyph-name="R" unicode="R" horiz-adv-x="619" 
d="M223 420l30 220h100l65 -20l23 -86l-2 -15l-45 -81l-69 -18h-102zM206 280h89l69 -280h170l-83 300l96 70l55 145l3 23l-55 193l-178 49h-263l-102 -780h162z" />
    <glyph glyph-name="S" unicode="S" horiz-adv-x="627" 
d="M279 327l111 -43l22 -65l-2 -15l-33 -58l-79 -19h-10l-87 32l-20 107h-162l-3 -23l54 -191l219 -65l197 55l89 163l3 23l-44 150l-177 80l-109 42l-20 61l2 15l34 57l70 20h10l90 -37l12 -112h162l3 23l-47 198l-221 68l-192 -55l-86 -163l-3 -23l40 -143z" />
    <glyph glyph-name="T" unicode="T" horiz-adv-x="557" 
d="M394 640h181l18 140h-523l-18 -140h180l-84 -640h162z" />
    <glyph glyph-name="U" unicode="U" horiz-adv-x="663" 
d="M293 -13l222 67l80 193l70 533h-162l-69 -528l-38 -94l-99 -31l-89 32l-11 93l69 528h-162l-70 -533l42 -194z" />
    <glyph glyph-name="V" unicode="V" horiz-adv-x="641" 
d="M383 -2l297 782h-174l-212 -601l-53 601h-174l93 -782h223z" />
    <glyph glyph-name="W" unicode="W" horiz-adv-x="937" 
d="M529 -2h209l233 782h-157l-159 -560l-27 560h-213l-167 -559l-18 559h-158l29 -782h225l175 587z" />
    <glyph glyph-name="X" unicode="X" horiz-adv-x="649" 
d="M-30 0h183l155 260l86 -260h187l-146 396l248 384h-183l-155 -261l-86 261h-187l146 -383z" />
    <glyph glyph-name="Y" unicode="Y" horiz-adv-x="625" 
d="M376 239l294 541h-180l-172 -343l-83 343h-174l153 -541l-31 -239h162z" />
    <glyph glyph-name="Z" unicode="Z" horiz-adv-x="599" 
d="M4 108l-14 -108h519l18 140h-181l-142 -3l383 535l14 108h-499l-18 -140h160l143 3z" />
    <glyph glyph-name="bracketleft" unicode="[" horiz-adv-x="365" 
d="M119 840l-126 -960h274l18 138h-117l90 684h117l18 138h-274z" />
    <glyph glyph-name="backslash" unicode="\" horiz-adv-x="412" 
d="M180 -120h154l-104 960h-154z" />
    <glyph glyph-name="bracketright" unicode="]" horiz-adv-x="365" 
d="M242 -120l126 960h-274l-18 -138h117l-90 -684h-117l-18 -138h274z" />
    <glyph glyph-name="asciicircum" unicode="^" horiz-adv-x="600" 
d="M430 780h-154l-273 -516h160l171 338l81 -338h152z" />
    <glyph glyph-name="underscore" unicode="_" horiz-adv-x="320" 
d="M-32 -185h236l18 138h-236z" />
    <glyph glyph-name="grave" unicode="`" horiz-adv-x="500" 
d="M118 780l83 -184h156l-67 184h-172z" />
    <glyph glyph-name="a" unicode="a" horiz-adv-x="546" 
d="M208 115l-40 15l-8 36l2 13l18 35l49 23l98 15l-12 -89l-38 -32zM320 0h141l10 149l25 192l-39 147l-177 55l-174 -49l-57 -124l-2 -15h149l20 48l58 20l55 -16l11 -53l-1 -8l-130 -20l-143 -44l-65 -119l-2 -15l29 -112l127 -49l93 20l72 52v-59z" />
    <glyph glyph-name="b" unicode="b" horiz-adv-x="569" 
d="M265 123l-54 19l-27 33l24 183l33 32l59 17l63 -31l11 -92l-5 -38l-32 -91zM266 800h-158l-85 -650l-28 -150h142l18 65l54 -56l93 -22l156 72l69 187l5 38l-26 189l-144 70l-81 -15l-56 -40z" />
    <glyph glyph-name="c" unicode="c" horiz-adv-x="524" 
d="M176 284l35 94l66 29l55 -24l10 -59h149l2 15l-41 150l-170 54l-186 -71l-78 -188l-5 -38l40 -186l182 -73l167 51l70 143l2 15h-149l-25 -51l-60 -22l-61 32l-8 91z" />
    <glyph glyph-name="d" unicode="d" horiz-adv-x="582" 
d="M287 407l54 -18l27 -34l-24 -183l-32 -32l-60 -17l-63 31l-11 92l5 38l33 92zM190 -13l98 23l60 60v-70h141l10 149l86 651h-158l-42 -316l-45 39l-90 20l-156 -72l-69 -187l-5 -38l27 -189z" />
    <glyph glyph-name="e" unicode="e" horiz-adv-x="551" 
d="M287 423l60 -26l14 -75h-183l38 76zM504 208l6 47l-34 207l-189 81l-190 -74l-79 -185l-5 -38l42 -185l197 -74l175 48l70 120l2 15h-149l-27 -46l-71 -17l-70 23l-19 78h341z" />
    <glyph glyph-name="f" unicode="f" horiz-adv-x="411" 
d="M288 606l29 58l55 13l33 -3l17 -4l17 130l-28 8l-59 5l-148 -43l-72 -147l-12 -93h-82l-18 -138h82l-51 -392h158l51 392h116l18 138h-116z" />
    <glyph glyph-name="g" unicode="g" horiz-adv-x="574" 
d="M341 204l-33 -32l-60 -17l-63 29l-12 78l5 38l31 78l71 29l54 -18l27 -34zM315 7l-31 -71l-68 -21l-67 23l-9 62h-149l-2 -15l37 -140l192 -58l172 52l82 161l50 380l28 150h-142l-18 -65l-54 56l-93 22l-156 -70l-67 -173l-5 -38l28 -175l144 -68l81 15l56 40z" />
    <glyph glyph-name="h" unicode="h" horiz-adv-x="577" 
d="M5 0h158l47 358l40 32l60 17l50 -19l9 -53l-44 -335h158l47 358l-25 132l-130 53l-82 -17l-67 -44l42 318h-158z" />
    <glyph glyph-name="i" unicode="i" horiz-adv-x="266" 
d="M268 772h-167l-22 -167h167zM5 0h158l69 530h-158z" />
    <glyph glyph-name="j" unicode="j" horiz-adv-x="268" 
d="M4 -6l-29 -58l-55 -13l-33 3l-17 4l-17 -130l28 -8l59 -5l148 43l72 147l72 553h-158zM268 772h-167l-22 -167h167z" />
    <glyph glyph-name="k" unicode="k" horiz-adv-x="562" 
d="M1 0h158l19 146l62 62l77 -208h178l-133 329l202 201h-190l-169 -178l59 448h-158z" />
    <glyph glyph-name="l" unicode="l" horiz-adv-x="266" 
d="M5 0h158l105 800h-158z" />
    <glyph glyph-name="m" unicode="m" horiz-adv-x="860" 
d="M512 366l33 28l50 13l47 -17l10 -47l-45 -343h158l48 366l-27 125l-123 52l-91 -19l-71 -61l-50 58l-89 22l-93 -20l-63 -53v60h-141l-10 -149l-50 -381h158l48 366l33 28l50 13l47 -17l10 -47l-45 -343h158z" />
    <glyph glyph-name="n" unicode="n" horiz-adv-x="577" 
d="M483 0l47 358l-25 132l-130 53l-96 -23l-73 -60v70h-141l-10 -149l-50 -381h158l47 358l40 32l60 17l50 -19l9 -53l-44 -335h158z" />
    <glyph glyph-name="o" unicode="o" horiz-adv-x="552" 
d="M242 -13l189 71l78 188l5 38l-41 186l-188 73l-189 -71l-78 -188l-5 -38l41 -186zM247 123l-66 32l-10 91l5 38l34 94l70 29l67 -31l9 -92l-5 -38l-34 -94z" />
    <glyph glyph-name="p" unicode="p" horiz-adv-x="569" 
d="M265 123l-54 19l-27 33l24 183l33 32l59 17l63 -31l11 -92l-5 -38l-32 -91zM134 -200l33 246l45 -39l90 -20l156 72l69 187l5 38l-26 189l-144 70l-98 -23l-60 -60v70h-141l-10 -149l-77 -581h158z" />
    <glyph glyph-name="q" unicode="q" horiz-adv-x="581" 
d="M282 407l54 -18l27 -34l-24 -183l-32 -32l-60 -17l-63 31l-11 92l5 38l33 92zM448 -200l76 580l28 150h-142l-18 -65l-54 56l-93 22l-156 -72l-69 -187l-5 -38l27 -189l143 -70l81 15l56 40l-32 -242h158z" />
    <glyph glyph-name="r" unicode="r" horiz-adv-x="384" 
d="M360 543l-87 -21l-67 -62v70h-141l-10 -149l-50 -381h158l44 335l47 31l86 14h13l21 162l-4 1h-10z" />
    <glyph glyph-name="s" unicode="s" horiz-adv-x="525" 
d="M267 324l-56 14l-16 30l20 40l52 15l53 -18l9 -49h155l2 15l-41 127l-173 45l-154 -36l-75 -115l-2 -15l39 -115l155 -49l56 -16l16 -32l-17 -41l-56 -17l-57 17l-12 44h-157l-2 -15l44 -122l179 -44l165 42l69 113l2 15l-47 122z" />
    <glyph glyph-name="t" unicode="t" horiz-adv-x="431" 
d="M278 530l20 150h-158l-20 -150h-82l-18 -138h82l-29 -220l29 -132l158 -53l47 5l28 8l17 130l-21 -5l-30 -2l-59 19l-8 53l26 197h136l18 138h-136z" />
    <glyph glyph-name="u" unicode="u" horiz-adv-x="580" 
d="M68 530l-47 -358l25 -132l130 -53l96 24l73 59v-70h141l10 149l50 381h-158l-47 -358l-39 -32l-61 -17l-50 19l-9 53l44 335h-158z" />
    <glyph glyph-name="v" unicode="v" horiz-adv-x="549" 
d="M115 0h221l224 530h-168l-154 -403l-49 403h-159z" />
    <glyph glyph-name="w" unicode="w" horiz-adv-x="766" 
d="M382 365l27 -365h199l159 530h-153l-87 -359l-28 359h-192l-120 -359l2 359h-150l19 -530h203z" />
    <glyph glyph-name="x" unicode="x" horiz-adv-x="558" 
d="M37 530l109 -257l-178 -273h181l105 172l56 -172h183l-100 267l169 263h-181l-101 -166l-60 166h-183z" />
    <glyph glyph-name="y" unicode="y" horiz-adv-x="551" 
d="M251 192l-57 338h-169l120 -502l-115 -228h188l98 228l253 502h-175z" />
    <glyph glyph-name="z" unicode="z" horiz-adv-x="499" 
d="M-12 108l-14 -108h451l18 138h-130l-111 -3l268 287l14 108h-431l-18 -138h110l111 3z" />
    <glyph glyph-name="braceleft" unicode="{" horiz-adv-x="365" 
d="M393 840h-27l-155 -39l-74 -139l-20 -151l-27 -64l-59 -18l-18 -138l53 -17l12 -57l-21 -159l42 -140l141 -38h27l18 138l-55 18l-10 67l19 141l-6 73l-43 43l54 43l25 73l20 150l28 60l58 16z" />
    <glyph glyph-name="bar" unicode="|" horiz-adv-x="261" 
d="M-11 -120h154l126 960h-154z" />
    <glyph glyph-name="braceright" unicode="}" horiz-adv-x="365" 
d="M-32 -120h27l155 39l74 139l20 151l27 64l59 18l18 138l-53 17l-12 57l21 159l-42 140l-141 38h-27l-18 -138l55 -18l10 -67l-19 -141l7 -73l42 -43l-54 -43l-25 -73l-20 -150l-28 -60l-58 -16z" />
    <glyph glyph-name="asciitilde" unicode="~" horiz-adv-x="600" 
d="M192 482l-99 -29l-63 -66l64 -74l37 31l61 17l97 -32l123 -33l99 29l63 66l-64 74l-37 -31l-63 -17l-95 33z" />
    <glyph glyph-name="nbspace" unicode="&#xa0;" horiz-adv-x="200" 
 />
    <glyph glyph-name="exclamdown" unicode="&#xa1;" horiz-adv-x="265" 
d="M47 363h167l22 167h-167zM155 -200l24 502h-112l-108 -502h196z" />
    <glyph glyph-name="cent" unicode="&#xa2;" horiz-adv-x="597" 
d="M192 -60l42 113l23 -1l25 -1l184 61l82 169l2 13h-155l-34 -79l-71 -26l-83 49l-8 141l4 30l46 141l85 43l70 -28l13 -99h156l4 30l-17 133l-84 77l49 134h-121l-40 -110l-10 1h-10l-206 -78l-95 -244l-5 -38l8 -174l79 -108l-54 -149h121z" />
    <glyph glyph-name="sterling" unicode="&#xa3;" horiz-adv-x="594" 
d="M355 654l55 -41l4 -113h159l4 29l-34 199l-183 65l-199 -93l-47 -187l2 -41l4 -38h-67l-19 -137h113l13 -76l6 -82h-152l-19 -139h512l19 139h-222l1 83l-5 75h140l19 137h-177l-5 45l-2 42l16 95z" />
    <glyph glyph-name="yen" unicode="&#xa5;" horiz-adv-x="600" 
d="M37 342h148l18 -62h-175l-18 -138h178l-18 -142h162l18 142h178l18 138h-175l34 62h150l18 138h-92l165 300h-178l-159 -334l-71 334h-178l86 -300h-91z" />
    <glyph glyph-name="brokenbar" unicode="&#xa6;" horiz-adv-x="261" 
d="M-11 -120h154l60 456h-154zM55 384h154l60 456h-154z" />
    <glyph glyph-name="section" unicode="&#xa7;" horiz-adv-x="547" 
d="M267 325l-58 15l-20 41l21 52l66 22h9l59 -15l19 -41l-21 -52l-66 -22h-9zM122 514l-61 -46l-28 -74l-2 -15l39 -115l155 -49l58 -17l17 -33l-17 -43l-53 -16l-52 18l-13 50h-153l-2 -15l40 -125l175 -47l153 38l78 120l2 15l-3 61l-25 45l61 46l28 74l2 15l-39 115
l-155 49l-58 18l-17 32l17 43l53 16l52 -18l13 -50h153l2 15l-40 125l-175 47l-153 -38l-78 -120l-2 -15l3 -61z" />
    <glyph glyph-name="dieresis" unicode="&#xa8;" horiz-adv-x="500" 
d="M493 772h-167l-22 -167h167zM278 772h-167l-22 -167h167z" />
    <glyph glyph-name="copyright" unicode="&#xa9;" horiz-adv-x="920" 
d="M463 264l-61 31l-17 78v34l17 79l61 30l53 -19l17 -53h133v21l-51 125l-155 49l-165 -66l-51 -166v-34l51 -165l165 -67l155 48l51 118v20h-133l-17 -45zM113 390l102 246l245 101l246 -101l101 -246l-101 -245l-246 -102l-245 102zM57 390l118 -285l285 -118l285 118
l118 285l-118 285l-285 118l-285 -118z" />
    <glyph glyph-name="ordfeminine" unicode="&#xaa;" horiz-adv-x="427" 
d="M218 487l-29 10l-6 22l1 6l13 23l30 13l57 9l-8 -61l-26 -15zM375 181l16 119h-362l-16 -119h362zM280 387h125l7 112l19 142l-26 109l-143 43l-135 -39l-47 -93l-1 -9h130l12 27l34 11l32 -10l7 -32l-86 -13l-111 -35l-52 -90l-2 -11l17 -85l98 -37l73 15l49 37v-42z
" />
    <glyph glyph-name="guillemotleft" unicode="&#xab;" horiz-adv-x="565" 
d="M541 563l-236 -147l-20 -152l197 -147l18 134l-98 84l120 84zM291 563l-236 -147l-20 -152l197 -147l18 134l-98 84l120 84z" />
    <glyph glyph-name="logicalnot" unicode="&#xac;" horiz-adv-x="600" 
d="M67 576l-18 -140h376l-32 -242h139l51 382h-516z" />
    <glyph glyph-name="uni00AD" unicode="&#xad;" horiz-adv-x="353" 
d="M27 281h273l18 138h-273z" />
    <glyph glyph-name="registered" unicode="&#xae;" horiz-adv-x="330" 
d="M186 693v-3l-5 -13l-13 -4h-24v37h24l13 -4zM241 689v5l-19 45l-42 12h-91v-172h55v53h19l21 -53h57l-28 59l20 18zM41 665l36 88l88 36l88 -36l36 -88l-36 -88l-88 -36l-88 36zM17 665l43 -105l105 -43l105 43l43 105l-43 105l-105 43l-105 -43z" />
    <glyph glyph-name="macron" unicode="&#xaf;" horiz-adv-x="500" 
d="M132 619h300l18 138h-300z" />
    <glyph glyph-name="degree" unicode="&#xb0;" horiz-adv-x="399" 
d="M299 624l-20 -44l-46 -18h-10l-44 19l-12 43l1 11l20 44l46 18h10l44 -19l12 -43zM245 793l-117 -42l-57 -117l-1 -11l37 -116l115 -41l117 42l57 117l1 11l-37 116z" />
    <glyph glyph-name="plusminus" unicode="&#xb1;" horiz-adv-x="600" 
d="M11 136h516l18 140h-516zM362 317l14 108h188l18 140h-188l14 108h-140l-14 -108h-188l-18 -140h188l-14 -108h140z" />
    <glyph glyph-name="twosuperior" unicode="&#xb2;" 
d="M305 493h-108l73 69l40 45l19 54l2 15l-22 74l-108 43l-110 -40l-37 -94l-1 -9h120l7 30l14 9h2l11 -6l2 -18l-2 -15l-6 -16l-13 -15l-158 -151l-10 -78h272z" />
    <glyph glyph-name="threesuperior" unicode="&#xb3;" 
d="M149 515h-120l-1 -9l30 -94l100 -35l98 29l47 84l2 15l-8 54l-35 30l40 24l21 48l2 15l-22 74l-108 43l-110 -40l-37 -94l-1 -9h120l7 30l14 9h2l11 -6l2 -18l-1 -7l-7 -16l-14 -5h-47l-12 -96h48l14 -6l3 -19l-1 -7l-7 -21l-14 -7h-2l-13 7z" />
    <glyph glyph-name="acute" unicode="&#xb4;" horiz-adv-x="500" 
d="M316 780l-115 -184h156l131 184h-172z" />
    <glyph glyph-name="paragraph" unicode="&#xb6;" horiz-adv-x="549" 
d="M283 0h162l102 780h-209l-183 -41l-109 -194l-3 -23l55 -193l178 -49h43z" />
    <glyph glyph-name="periodcentered" unicode="&#xb7;" horiz-adv-x="266" 
d="M225 434h-167l-22 -167h167z" />
    <glyph glyph-name="cedilla" unicode="&#xb8;" horiz-adv-x="602" 
d="M69 -190l41 -17l70 -8l91 26l35 71l-25 57l-65 21l21 40h-72l-39 -72l11 -28l13 2l26 3l34 -5l11 -16l-11 -18l-35 -7l-43 5l-31 12z" />
    <glyph glyph-name="onesuperior" unicode="&#xb9;" 
d="M292 390l13 103h-71l38 289h-89l-136 -85l48 -85l38 23l-19 -142h-72l-13 -103h263z" />
    <glyph glyph-name="ordmasculine" unicode="&#xba;" horiz-adv-x="440" 
d="M377 181l16 119h-364l-16 -119h364zM299 571l-20 -58l-38 -18l-42 19l-6 57l4 29l20 58l38 18l42 -19l6 -57zM230 376l141 54l65 141l4 29l-37 141l-137 54l-141 -54l-65 -141l-4 -29l37 -141z" />
    <glyph glyph-name="guillemotright" unicode="&#xbb;" horiz-adv-x="565" 
d="M15 117l236 147l20 152l-197 147l-18 -134l98 -84l-120 -84zM265 117l236 147l20 152l-197 147l-18 -134l98 -84l-120 -84z" />
    <glyph glyph-name="onequarter" unicode="&#xbc;" horiz-adv-x="800" 
d="M619 235l-9 -64h-37zM708 0l9 68h32l13 103h-32l29 219h-114l-167 -225l-12 -97h131l-9 -68h120zM130 0l678 780h-134l-678 -780h134zM292 390l13 103h-71l38 289h-89l-136 -85l48 -85l38 23l-19 -142h-72l-13 -103h263z" />
    <glyph glyph-name="onehalf" unicode="&#xbd;" horiz-adv-x="800" 
d="M754 103h-108l73 69l40 45l19 54l2 15l-22 74l-108 43l-110 -40l-37 -94l-1 -9h120l7 30l14 9h2l11 -6l2 -18l-2 -15l-6 -16l-13 -15l-158 -151l-10 -78h272zM130 0l678 780h-134l-678 -780h134zM292 390l13 103h-71l38 289h-89l-136 -85l48 -85l38 23l-19 -142h-72
l-13 -103h263z" />
    <glyph glyph-name="threequarters" unicode="&#xbe;" horiz-adv-x="800" 
d="M619 235l-9 -64h-37zM708 0l9 68h32l13 103h-32l29 219h-114l-167 -225l-12 -97h131l-9 -68h120zM130 0l678 780h-134l-678 -780h134zM149 515h-120l-1 -9l30 -94l100 -35l98 29l47 84l2 15l-8 54l-35 30l40 24l21 48l2 15l-22 74l-108 43l-110 -40l-37 -94l-1 -9h120
l7 30l14 9h2l11 -6l2 -18l-1 -7l-7 -16l-14 -5h-47l-12 -96h48l14 -6l3 -19l-1 -7l-7 -21l-14 -7h-2l-13 7z" />
    <glyph glyph-name="questiondown" unicode="&#xbf;" horiz-adv-x="497" 
d="M166 363h167l22 167h-167zM182 -74l-44 14l-12 39l86 136l86 187h-112l-120 -155l-102 -195l43 -115l170 -50l177 62l76 188l3 23h-159l-30 -104z" />
    <glyph glyph-name="Agrave" unicode="&#xc0;" horiz-adv-x="641" 
d="M351 601l25 -293h-128zM262 782l-297 -782h174l60 168h190l15 -168h174l-93 782h-223zM254 950l49 -110h156l-40 110h-165z" />
    <glyph glyph-name="Aacute" unicode="&#xc1;" horiz-adv-x="641" 
d="M351 601l25 -293h-128zM262 782l-297 -782h174l60 168h190l15 -168h174l-93 782h-223zM373 950l-70 -110h156l79 110h-165z" />
    <glyph glyph-name="Acircumflex" unicode="&#xc2;" horiz-adv-x="641" 
d="M351 601l25 -293h-128zM262 782l-297 -782h174l60 168h190l15 -168h174l-93 782h-223zM585 840l-109 110h-160l-139 -110h145l67 50l57 -50h139z" />
    <glyph glyph-name="Atilde" unicode="&#xc3;" horiz-adv-x="641" 
d="M351 601l25 -293h-128zM262 782l-297 -782h174l60 168h190l15 -168h174l-93 782h-223zM495 947l-12 -26l-25 -7l-64 24l-84 24l-74 -26l-40 -93h85l13 26l24 7l64 -24l84 -24l74 27l40 92h-85z" />
    <glyph glyph-name="Adieresis" unicode="&#xc4;" horiz-adv-x="641" 
d="M351 601l25 -293h-128zM262 782l-297 -782h174l60 168h190l15 -168h174l-93 782h-223zM549 945h-133l-13 -100h133zM374 945h-133l-13 -100h133z" />
    <glyph glyph-name="Aring" unicode="&#xc5;" horiz-adv-x="641" 
d="M434 863l-16 -40l-41 -16l-33 13l-13 33l17 40l40 16l33 -13zM351 601l25 -293h-128zM262 782l-297 -782h174l60 168h190l15 -168h174l-93 782h-36l29 38l11 50l-27 66l-69 27l-82 -33l-35 -84l7 -35l18 -29h-39z" />
    <glyph glyph-name="AE" unicode="&#xc6;" horiz-adv-x="885" 
d="M400 596l-6 -288h-122zM333 780l-374 -780h174l76 168h182l-3 -168h408l18 140h-255l-1 188h231l18 140h-250l-1 172h324l18 140h-565z" />
    <glyph glyph-name="Ccedilla" unicode="&#xc7;" horiz-adv-x="646" 
d="M207 407l51 182l104 64h10l83 -42l8 -127h163l4 32l-45 208l-214 69l-224 -92l-105 -295l-4 -32l33 -280l180 -105l-33 -61l11 -28l13 2l26 3l34 -5l11 -16l-11 -18l-35 -7l-43 5l-31 12l-32 -66l41 -17l70 -8l91 26l35 71l-25 57l-65 21l14 28l185 66l88 197l2 15h-163
l-32 -102l-98 -37h-10l-86 65l-5 182z" />
    <glyph glyph-name="Egrave" unicode="&#xc8;" horiz-adv-x="573" 
d="M109 780l-102 -780h477l18 140h-315l25 188h265l18 140h-265l23 172h315l18 140h-477zM230 950l49 -110h156l-40 110h-165z" />
    <glyph glyph-name="Eacute" unicode="&#xc9;" horiz-adv-x="573" 
d="M109 780l-102 -780h477l18 140h-315l25 188h265l18 140h-265l23 172h315l18 140h-477zM349 950l-70 -110h156l79 110h-165z" />
    <glyph glyph-name="Ecircumflex" unicode="&#xca;" horiz-adv-x="573" 
d="M109 780l-102 -780h477l18 140h-315l25 188h265l18 140h-265l23 172h315l18 140h-477zM561 840l-109 110h-160l-139 -110h145l67 50l57 -50h139z" />
    <glyph glyph-name="Edieresis" unicode="&#xcb;" horiz-adv-x="573" 
d="M109 780l-102 -780h477l18 140h-315l25 188h265l18 140h-265l23 172h315l18 140h-477zM525 945h-133l-13 -100h133zM350 945h-133l-13 -100h133z" />
    <glyph glyph-name="Igrave" unicode="&#xcc;" horiz-adv-x="283" 
d="M276 780h-162l-102 -780h162zM76 950l49 -110h156l-40 110h-165z" />
    <glyph glyph-name="Iacute" unicode="&#xcd;" horiz-adv-x="283" 
d="M276 780h-162l-102 -780h162zM195 950l-70 -110h156l79 110h-165z" />
    <glyph glyph-name="Icircumflex" unicode="&#xce;" horiz-adv-x="283" 
d="M276 780h-162l-102 -780h162zM407 840l-109 110h-160l-139 -110h145l67 50l57 -50h139z" />
    <glyph glyph-name="Idieresis" unicode="&#xcf;" horiz-adv-x="283" 
d="M276 780h-162l-102 -780h162zM371 945h-133l-13 -100h133zM196 945h-133l-13 -100h133z" />
    <glyph glyph-name="Eth" unicode="&#xd0;" horiz-adv-x="716" 
d="M247 140l26 198h165l16 121h-165l24 181h76l121 -59l13 -175l-4 -32l-62 -179l-147 -55h-63zM688 406l-49 290l-242 84h-228l-42 -321h-104l-16 -121h104l-44 -338h241l259 82l117 292z" />
    <glyph glyph-name="Ntilde" unicode="&#xd1;" horiz-adv-x="683" 
d="M109 780l-102 -780h155l42 322l17 162l188 -484h169l102 780h-155l-42 -322l-17 -162l-188 484h-169zM519 947l-12 -26l-25 -7l-64 24l-84 24l-74 -26l-40 -93h85l13 26l24 7l64 -24l84 -24l74 27l40 92h-85z" />
    <glyph glyph-name="Ograve" unicode="&#xd2;" horiz-adv-x="666" 
d="M299 127l-93 65l-3 182l4 32l50 182l110 65h10l93 -65l3 -182l-4 -32l-50 -182l-110 -65h-10zM376 793l-230 -92l-104 -295l-4 -32l42 -295l220 -92l230 92l104 295l4 32l-42 296zM270 950l49 -110h156l-40 110h-165z" />
    <glyph glyph-name="Oacute" unicode="&#xd3;" horiz-adv-x="666" 
d="M299 127l-93 65l-3 182l4 32l50 182l110 65h10l93 -65l3 -182l-4 -32l-50 -182l-110 -65h-10zM376 793l-230 -92l-104 -295l-4 -32l42 -295l220 -92l230 92l104 295l4 32l-42 296zM389 950l-70 -110h156l79 110h-165z" />
    <glyph glyph-name="Ocircumflex" unicode="&#xd4;" horiz-adv-x="666" 
d="M299 127l-93 65l-3 182l4 32l50 182l110 65h10l93 -65l3 -182l-4 -32l-50 -182l-110 -65h-10zM376 793l-230 -92l-104 -295l-4 -32l42 -295l220 -92l230 92l104 295l4 32l-42 296zM601 840l-109 110h-160l-139 -110h145l67 50l57 -50h139z" />
    <glyph glyph-name="Otilde" unicode="&#xd5;" horiz-adv-x="666" 
d="M299 127l-93 65l-3 182l4 32l50 182l110 65h10l93 -65l3 -182l-4 -32l-50 -182l-110 -65h-10zM376 793l-230 -92l-104 -295l-4 -32l42 -295l220 -92l230 92l104 295l4 32l-42 296zM511 947l-12 -26l-25 -7l-64 24l-84 24l-74 -26l-40 -93h85l13 26l24 7l64 -24l84 -24
l74 27l40 92h-85z" />
    <glyph glyph-name="Odieresis" unicode="&#xd6;" horiz-adv-x="666" 
d="M299 127l-93 65l-3 182l4 32l50 182l110 65h10l93 -65l3 -182l-4 -32l-50 -182l-110 -65h-10zM376 793l-230 -92l-104 -295l-4 -32l42 -295l220 -92l230 92l104 295l4 32l-42 296zM565 945h-133l-13 -100h133zM390 945h-133l-13 -100h133z" />
    <glyph glyph-name="multiply" unicode="&#xd7;" horiz-adv-x="600" 
d="M94 119l194 171l148 -171l114 100l-149 171l194 171l-87 100l-194 -171l-148 171l-114 -100l149 -171l-194 -171z" />
    <glyph glyph-name="Oslash" unicode="&#xd8;" horiz-adv-x="670" 
d="M299 127l-50 10l-32 31l263 342l-1 -49l-6 -55l-4 -32l-50 -182l-110 -65h-10zM207 406l50 182l110 65h10l50 -10l32 -31l-263 -342l1 49l6 55zM376 793l-230 -92l-104 -295l-4 -32l-4 -159l32 -114l-77 -101h99l30 39l79 -40l103 -12l230 92l104 295l4 32l4 159l-32 114
l77 101h-99l-30 -39l-79 40z" />
    <glyph glyph-name="Ugrave" unicode="&#xd9;" horiz-adv-x="663" 
d="M293 -13l222 67l80 193l70 533h-162l-69 -528l-38 -94l-99 -31l-89 32l-11 93l69 528h-162l-70 -533l42 -194zM265 950l49 -110h156l-40 110h-165z" />
    <glyph glyph-name="Uacute" unicode="&#xda;" horiz-adv-x="663" 
d="M293 -13l222 67l80 193l70 533h-162l-69 -528l-38 -94l-99 -31l-89 32l-11 93l69 528h-162l-70 -533l42 -194zM384 950l-70 -110h156l79 110h-165z" />
    <glyph glyph-name="Ucircumflex" unicode="&#xdb;" horiz-adv-x="663" 
d="M293 -13l222 67l80 193l70 533h-162l-69 -528l-38 -94l-99 -31l-89 32l-11 93l69 528h-162l-70 -533l42 -194zM596 840l-109 110h-160l-139 -110h145l67 50l57 -50h139z" />
    <glyph glyph-name="Udieresis" unicode="&#xdc;" horiz-adv-x="663" 
d="M293 -13l222 67l80 193l70 533h-162l-69 -528l-38 -94l-99 -31l-89 32l-11 93l69 528h-162l-70 -533l42 -194zM560 945h-133l-13 -100h133zM385 945h-133l-13 -100h133z" />
    <glyph glyph-name="Yacute" unicode="&#xdd;" horiz-adv-x="625" 
d="M376 239l294 541h-180l-172 -343l-83 343h-174l153 -541l-31 -239h162zM366 950l-70 -110h156l79 110h-165z" />
    <glyph glyph-name="Thorn" unicode="&#xde;" horiz-adv-x="605" 
d="M169 0l19 140h104l183 41l109 194l3 23l-55 193l-178 49h-101l18 140h-162l-102 -780h162zM205 280l30 220h100l65 -20l23 -86l-2 -15l-45 -81l-69 -18h-102z" />
    <glyph glyph-name="germandbls" unicode="&#xdf;" horiz-adv-x="630" 
d="M280 334l84 -64l50 -52l12 -47l-9 -44l-32 -20l-31 16l-3 45h-134l-2 -15l20 -114l149 -52l144 54l55 120l2 15l-20 109l-90 94l-25 19l84 77l41 106l2 15l-42 152l-192 65l-189 -64l-76 -155l-78 -594h158l77 585l28 65l70 27l65 -22l19 -57l-34 -95l-90 -69z" />
    <glyph glyph-name="agrave" unicode="&#xe0;" horiz-adv-x="546" 
d="M208 115l-40 15l-8 36l2 13l18 35l49 23l98 15l-12 -89l-38 -32zM320 0h141l10 149l25 192l-39 147l-177 55l-174 -49l-57 -124l-2 -15h149l20 48l58 20l55 -16l11 -53l-1 -8l-130 -20l-143 -44l-65 -119l-2 -15l29 -112l127 -49l93 20l72 52v-59zM142 780l83 -184h156
l-67 184h-172z" />
    <glyph glyph-name="aacute" unicode="&#xe1;" horiz-adv-x="549" 
d="M208 115l-40 15l-8 36l2 13l18 35l49 23l98 15l-12 -89l-38 -32zM320 0h141l10 149l25 192l-39 147l-177 55l-174 -49l-57 -124l-2 -15h149l20 48l58 20l55 -16l11 -53l-1 -8l-130 -20l-143 -44l-65 -119l-2 -15l29 -112l127 -49l93 20l72 52v-59zM340 780l-115 -184h156
l131 184h-172z" />
    <glyph glyph-name="acircumflex" unicode="&#xe2;" horiz-adv-x="549" 
d="M208 115l-40 15l-8 36l2 13l18 35l49 23l98 15l-12 -89l-38 -32zM320 0h141l10 149l25 192l-39 147l-177 55l-174 -49l-57 -124l-2 -15h149l20 48l58 20l55 -16l11 -53l-1 -8l-130 -20l-143 -44l-65 -119l-2 -15l29 -112l127 -49l93 20l72 52v-59zM513 596l-110 184h-152
l-158 -184h141l83 83l61 -83h135z" />
    <glyph glyph-name="atilde" unicode="&#xe3;" horiz-adv-x="549" 
d="M208 115l-40 15l-8 36l2 13l18 35l49 23l98 15l-12 -89l-38 -32zM320 0h141l10 149l25 192l-39 147l-177 55l-174 -49l-57 -124l-2 -15h149l20 48l58 20l55 -16l11 -53l-1 -8l-130 -20l-143 -44l-65 -119l-2 -15l29 -112l127 -49l93 20l72 52v-59zM422 772l-11 -28
l-23 -9l-68 26l-88 26l-81 -38l-45 -121h105l11 28l23 9l68 -26l88 -26l81 38l45 121h-105z" />
    <glyph glyph-name="adieresis" unicode="&#xe4;" horiz-adv-x="549" 
d="M208 115l-40 15l-8 36l2 13l18 35l49 23l98 15l-12 -89l-38 -32zM320 0h141l10 149l25 192l-39 147l-177 55l-174 -49l-57 -124l-2 -15h149l20 48l58 20l55 -16l11 -53l-1 -8l-130 -20l-143 -44l-65 -119l-2 -15l29 -112l127 -49l93 20l72 52v-59zM517 772h-167l-22 -167
h167zM302 772h-167l-22 -167h167z" />
    <glyph glyph-name="aring" unicode="&#xe5;" horiz-adv-x="546" 
d="M208 115l-40 15l-8 36l2 13l18 35l49 23l98 15l-12 -89l-38 -32zM320 0h141l10 149l25 192l-39 147l-177 55l-174 -49l-57 -124l-2 -15h149l20 48l58 20l55 -16l11 -53l-1 -8l-130 -20l-143 -44l-65 -119l-2 -15l29 -112l127 -49l93 20l72 52v-59zM367 693l-16 -40
l-41 -16l-33 13l-13 33l17 40l40 16l33 -13zM422 700l-27 66l-69 27l-82 -33l-35 -84l27 -66l69 -27l83 33z" />
    <glyph glyph-name="ae" unicode="&#xe6;" horiz-adv-x="864" 
d="M600 423l60 -26l14 -75h-183l38 76zM208 115l-40 15l-8 36l2 13l18 35l49 23l98 15l-1 -6l-3 -38l1 -35l-48 -42zM817 208l6 47l-34 207l-189 81l-92 -14l-66 -41l-60 41l-102 14l-174 -49l-57 -124l-2 -15h149l20 48l58 20l55 -16l11 -53l-1 -8l-130 -20l-143 -44
l-65 -119l-2 -15l29 -112l127 -49l101 20l101 67l79 -64l129 -23l175 48l70 120l2 15h-149l-27 -46l-71 -17l-70 23l-19 78h341z" />
    <glyph glyph-name="ccedilla" unicode="&#xe7;" horiz-adv-x="524" 
d="M176 284l35 94l66 29l55 -24l10 -59h149l2 15l-41 150l-170 54l-186 -71l-78 -188l-5 -38l28 -169l139 -86l-34 -63l11 -28l13 2l26 3l34 -5l11 -16l-11 -18l-35 -7l-43 5l-31 12l-32 -66l41 -17l70 -8l91 26l35 71l-25 57l-65 21l14 27l156 55l66 139l2 15h-149l-25 -51
l-60 -22l-61 32l-8 91z" />
    <glyph glyph-name="egrave" unicode="&#xe8;" horiz-adv-x="551" 
d="M287 423l60 -26l14 -75h-183l38 76zM504 208l6 47l-34 207l-189 81l-190 -74l-79 -185l-5 -38l42 -185l197 -74l175 48l70 120l2 15h-149l-27 -46l-71 -17l-70 23l-19 78h341zM149 780l83 -184h156l-67 184h-172z" />
    <glyph glyph-name="eacute" unicode="&#xe9;" horiz-adv-x="556" 
d="M287 423l60 -26l14 -75h-183l38 76zM504 208l6 47l-34 207l-189 81l-190 -74l-79 -185l-5 -38l42 -185l197 -74l175 48l70 120l2 15h-149l-27 -46l-71 -17l-70 23l-19 78h341zM347 780l-115 -184h156l131 184h-172z" />
    <glyph glyph-name="ecircumflex" unicode="&#xea;" horiz-adv-x="556" 
d="M287 423l60 -26l14 -75h-183l38 76zM504 208l6 47l-34 207l-189 81l-190 -74l-79 -185l-5 -38l42 -185l197 -74l175 48l70 120l2 15h-149l-27 -46l-71 -17l-70 23l-19 78h341zM520 596l-110 184h-152l-158 -184h141l83 83l61 -83h135z" />
    <glyph glyph-name="edieresis" unicode="&#xeb;" horiz-adv-x="556" 
d="M287 423l60 -26l14 -75h-183l38 76zM504 208l6 47l-34 207l-189 81l-190 -74l-79 -185l-5 -38l42 -185l197 -74l175 48l70 120l2 15h-149l-27 -46l-71 -17l-70 23l-19 78h341zM524 772h-167l-22 -167h167zM309 772h-167l-22 -167h167z" />
    <glyph glyph-name="igrave" unicode="&#xec;" horiz-adv-x="266" 
d="M5 0h158l69 530h-158zM1 780l83 -184h156l-67 184h-172z" />
    <glyph glyph-name="iacute" unicode="&#xed;" horiz-adv-x="265" 
d="M5 0h158l69 530h-158zM199 780l-115 -184h156l131 184h-172z" />
    <glyph glyph-name="icircumflex" unicode="&#xee;" horiz-adv-x="265" 
d="M5 0h158l69 530h-158zM372 596l-110 184h-152l-158 -184h141l83 83l61 -83h135z" />
    <glyph glyph-name="idieresis" unicode="&#xef;" horiz-adv-x="265" 
d="M5 0h158l69 530h-158zM376 772h-167l-22 -167h167zM161 772h-167l-22 -167h167z" />
    <glyph glyph-name="eth" unicode="&#xf0;" horiz-adv-x="547" 
d="M247 123l-66 32l-10 91l5 38l34 94l70 29l67 -31l9 -92l-5 -38l-34 -94zM70 673l57 -8l52 -12l-90 -46l-11 -89l189 98l43 -36l33 -47l-28 8l-40 2l-178 -71l-79 -188l-5 -38l41 -186l188 -73l189 71l78 188l5 38v222l-91 191l53 27l11 89l-128 -67l-125 47l-145 20z" />
    <glyph glyph-name="ntilde" unicode="&#xf1;" horiz-adv-x="580" 
d="M483 0l47 358l-25 132l-130 53l-96 -23l-73 -60v70h-141l-10 -149l-50 -381h158l47 358l40 32l60 17l50 -19l9 -53l-44 -335h158zM441 772l-11 -28l-23 -9l-68 26l-88 26l-81 -38l-45 -121h105l11 28l23 9l68 -26l88 -26l81 38l45 121h-105z" />
    <glyph glyph-name="ograve" unicode="&#xf2;" horiz-adv-x="552" 
d="M242 -13l189 71l78 188l5 38l-41 186l-188 73l-189 -71l-78 -188l-5 -38l41 -186zM247 123l-66 32l-10 91l5 38l34 94l70 29l67 -31l9 -92l-5 -38l-34 -94zM146 780l83 -184h156l-67 184h-172z" />
    <glyph glyph-name="oacute" unicode="&#xf3;" horiz-adv-x="554" 
d="M242 -13l189 71l78 188l5 38l-41 186l-188 73l-189 -71l-78 -188l-5 -38l41 -186zM247 123l-66 32l-10 91l5 38l34 94l70 29l67 -31l9 -92l-5 -38l-34 -94zM344 780l-115 -184h156l131 184h-172z" />
    <glyph glyph-name="ocircumflex" unicode="&#xf4;" horiz-adv-x="555" 
d="M242 -13l189 71l78 188l5 38l-41 186l-188 73l-189 -71l-78 -188l-5 -38l41 -186zM247 123l-66 32l-10 91l5 38l34 94l70 29l67 -31l9 -92l-5 -38l-34 -94zM517 596l-110 184h-152l-158 -184h141l83 83l61 -83h135z" />
    <glyph glyph-name="otilde" unicode="&#xf5;" horiz-adv-x="556" 
d="M242 -13l189 71l78 188l5 38l-41 186l-188 73l-189 -71l-78 -188l-5 -38l41 -186zM247 123l-66 32l-10 91l5 38l34 94l70 29l67 -31l9 -92l-5 -38l-34 -94zM426 772l-11 -28l-23 -9l-68 26l-88 26l-81 -38l-45 -121h105l11 28l23 9l68 -26l88 -26l81 38l45 121h-105z" />
    <glyph glyph-name="odieresis" unicode="&#xf6;" horiz-adv-x="556" 
d="M242 -13l189 71l78 188l5 38l-41 186l-188 73l-189 -71l-78 -188l-5 -38l41 -186zM247 123l-66 32l-10 91l5 38l34 94l70 29l67 -31l9 -92l-5 -38l-34 -94zM521 772h-167l-22 -167h167zM306 772h-167l-22 -167h167z" />
    <glyph glyph-name="divide" unicode="&#xf7;" horiz-adv-x="600" 
d="M179 99h167l22 167h-167zM423 681h-167l-22 -167h167zM34 320h516l18 140h-516z" />
    <glyph glyph-name="oslash" unicode="&#xf8;" horiz-adv-x="556" 
d="M91 27l67 -30l84 -10l189 71l78 188l5 38l-1 97l-32 78l65 71h-86l-24 -27l-66 30l-85 10l-189 -71l-78 -188l-5 -38l2 -96l31 -79l-65 -71h86zM247 123l-31 4l-23 12l166 184l-1 -19l-2 -20l-5 -38l-34 -94zM176 284l34 94l70 29l31 -4l23 -12l-166 -184l1 19l2 20z" />
    <glyph glyph-name="ugrave" unicode="&#xf9;" horiz-adv-x="580" 
d="M68 530l-47 -358l25 -132l130 -53l96 24l73 59v-70h141l10 149l50 381h-158l-47 -358l-39 -32l-61 -17l-50 19l-9 53l44 335h-158zM154 780l83 -184h156l-67 184h-172z" />
    <glyph glyph-name="uacute" unicode="&#xfa;" horiz-adv-x="580" 
d="M68 530l-47 -358l25 -132l130 -53l96 24l73 59v-70h141l10 149l50 381h-158l-47 -358l-39 -32l-61 -17l-50 19l-9 53l44 335h-158zM352 780l-115 -184h156l131 184h-172z" />
    <glyph glyph-name="ucircumflex" unicode="&#xfb;" horiz-adv-x="580" 
d="M68 530l-47 -358l25 -132l130 -53l96 24l73 59v-70h141l10 149l50 381h-158l-47 -358l-39 -32l-61 -17l-50 19l-9 53l44 335h-158zM525 596l-110 184h-152l-158 -184h141l83 83l61 -83h135z" />
    <glyph glyph-name="udieresis" unicode="&#xfc;" horiz-adv-x="580" 
d="M68 530l-47 -358l25 -132l130 -53l96 24l73 59v-70h141l10 149l50 381h-158l-47 -358l-39 -32l-61 -17l-50 19l-9 53l44 335h-158zM529 772h-167l-22 -167h167zM314 772h-167l-22 -167h167z" />
    <glyph glyph-name="yacute" unicode="&#xfd;" horiz-adv-x="551" 
d="M251 192l-57 338h-169l120 -502l-115 -228h188l98 228l253 502h-175zM343 780l-115 -184h156l131 184h-172z" />
    <glyph glyph-name="thorn" unicode="&#xfe;" horiz-adv-x="569" 
d="M265 123l-54 19l-27 33l24 183l33 32l59 17l63 -31l11 -92l-5 -38l-32 -91zM108 800l-132 -1000h158l33 246l45 -39l90 -20l156 72l69 187l5 38l-26 189l-144 70l-81 -15l-56 -40l41 312h-158z" />
    <glyph glyph-name="ydieresis" unicode="&#xff;" horiz-adv-x="551" 
d="M251 192l-57 338h-169l120 -502l-115 -228h188l98 228l253 502h-175zM520 772h-167l-22 -167h167zM305 772h-167l-22 -167h167z" />
    <glyph glyph-name="Amacron" unicode="&#x100;" horiz-adv-x="641" 
d="M351 601l25 -293h-128zM262 782l-297 -782h174l60 168h190l15 -168h174l-93 782h-223zM233 847h298l13 96h-298z" />
    <glyph glyph-name="amacron" unicode="&#x101;" horiz-adv-x="546" 
d="M208 115l-40 15l-8 36l2 13l18 35l49 23l98 15l-12 -89l-38 -32zM320 0h141l10 149l25 192l-39 147l-177 55l-174 -49l-57 -124l-2 -15h149l20 48l58 20l55 -16l11 -53l-1 -8l-130 -20l-143 -44l-65 -119l-2 -15l29 -112l127 -49l93 20l72 52v-59zM156 619h300l18 138
h-300z" />
    <glyph glyph-name="Abreve" unicode="&#x102;" horiz-adv-x="641" 
d="M351 601l25 -293h-128zM262 782l-297 -782h174l60 168h190l15 -168h174l-93 782h-223zM384 825l149 37l46 88h-111l-22 -30l-58 -10l-52 10l-16 30h-107l29 -88z" />
    <glyph glyph-name="abreve" unicode="&#x103;" horiz-adv-x="549" 
d="M208 115l-40 15l-8 36l2 13l18 35l49 23l98 15l-12 -89l-38 -32zM320 0h141l10 149l25 192l-39 147l-177 55l-174 -49l-57 -124l-2 -15h149l20 48l58 20l55 -16l11 -53l-1 -8l-130 -20l-143 -44l-65 -119l-2 -15l29 -112l127 -49l93 20l72 52v-59zM301 582l154 56l59 142
h-115l-29 -61l-55 -17l-51 17l-13 61h-111l22 -142z" />
    <glyph glyph-name="Aogonek" unicode="&#x104;" horiz-adv-x="641" 
d="M351 601l25 -293h-128zM262 782l-297 -782h174l60 168h190l15 -168h36l-41 -54l-16 -66l34 -72l93 -23l56 8l45 17l-23 96l-18 -7l-25 -4l-29 8l-10 22l24 49l48 26l-93 782h-223z" />
    <glyph glyph-name="aogonek" unicode="&#x105;" horiz-adv-x="546" 
d="M208 115l-40 15l-8 36l2 13l18 35l49 23l98 15l-12 -89l-38 -32zM461 0l10 149l25 192l-39 147l-177 55l-174 -49l-57 -124l-2 -15h149l20 48l58 20l55 -16l11 -53l-1 -8l-130 -20l-143 -44l-65 -119l-2 -15l29 -112l127 -49l93 20l72 52v-62l-39 -53l-15 -64l34 -72
l93 -23l56 8l45 17l-23 96l-18 -7l-25 -4l-29 8l-10 22l24 49z" />
    <glyph glyph-name="Cacute" unicode="&#x106;" horiz-adv-x="646" 
d="M207 407l51 182l104 64h10l83 -42l8 -127h163l4 32l-45 208l-214 69l-224 -92l-105 -295l-4 -32l43 -295l214 -92l204 60l96 204l2 15h-163l-32 -102l-98 -37h-10l-86 65l-5 182zM385 950l-70 -110h156l79 110h-165z" />
    <glyph glyph-name="cacute" unicode="&#x107;" horiz-adv-x="527" 
d="M176 284l35 94l66 29l55 -24l10 -59h149l2 15l-41 150l-170 54l-186 -71l-78 -188l-5 -38l40 -186l182 -73l167 51l70 143l2 15h-149l-25 -51l-60 -22l-61 32l-8 91zM336 780l-115 -184h156l131 184h-172z" />
    <glyph glyph-name="Ccircumflex" unicode="&#x108;" horiz-adv-x="646" 
d="M207 407l51 182l104 64h10l83 -42l8 -127h163l4 32l-45 208l-214 69l-224 -92l-105 -295l-4 -32l43 -295l214 -92l204 60l96 204l2 15h-163l-32 -102l-98 -37h-10l-86 65l-5 182zM597 840l-109 110h-160l-139 -110h145l67 50l57 -50h139z" />
    <glyph glyph-name="ccircumflex" unicode="&#x109;" horiz-adv-x="527" 
d="M176 284l35 94l66 29l55 -24l10 -59h149l2 15l-41 150l-170 54l-186 -71l-78 -188l-5 -38l40 -186l182 -73l167 51l70 143l2 15h-149l-25 -51l-60 -22l-61 32l-8 91zM509 596l-110 184h-152l-158 -184h141l83 83l61 -83h135z" />
    <glyph glyph-name="Cdotaccent" unicode="&#x10a;" horiz-adv-x="646" 
d="M207 407l51 182l104 64h10l83 -42l8 -127h163l4 32l-45 208l-214 69l-224 -92l-105 -295l-4 -32l43 -295l214 -92l204 60l96 204l2 15h-163l-32 -102l-98 -37h-10l-86 65l-5 182zM473 945h-133l-13 -100h133z" />
    <glyph glyph-name="cdotaccent" unicode="&#x10b;" horiz-adv-x="524" 
d="M176 284l35 94l66 29l55 -24l10 -59h149l2 15l-41 150l-170 54l-186 -71l-78 -188l-5 -38l40 -186l182 -73l167 51l70 143l2 15h-149l-25 -51l-60 -22l-61 32l-8 91zM406 772h-167l-22 -167h167z" />
    <glyph glyph-name="Ccaron" unicode="&#x10c;" horiz-adv-x="646" 
d="M207 407l51 182l104 64h10l83 -42l8 -127h163l4 32l-45 208l-214 69l-224 -92l-105 -295l-4 -32l43 -295l214 -92l204 60l96 204l2 15h-163l-32 -102l-98 -37h-10l-86 65l-5 182zM204 950l109 -110h160l139 110h-145l-67 -50l-57 50h-139z" />
    <glyph glyph-name="ccaron" unicode="&#x10d;" horiz-adv-x="527" 
d="M176 284l35 94l66 29l55 -24l10 -59h149l2 15l-41 150l-170 54l-186 -71l-78 -188l-5 -38l40 -186l182 -73l167 51l70 143l2 15h-149l-25 -51l-60 -22l-61 32l-8 91zM113 780l110 -184h152l158 184h-141l-83 -83l-61 83h-135z" />
    <glyph glyph-name="Dcaron" unicode="&#x10e;" horiz-adv-x="656" 
d="M187 140l66 500h76l121 -59l13 -175l-4 -32l-62 -179l-147 -55h-63zM628 406l-49 290l-242 84h-228l-102 -780h241l259 82l117 292zM185 950l109 -110h160l139 110h-145l-67 -50l-57 50h-139z" />
    <glyph glyph-name="dcaron" unicode="&#x10f;" horiz-adv-x="582" 
d="M640 800l-27 -204h70l52 204h-95zM287 407l54 -18l27 -34l-24 -183l-32 -32l-60 -17l-63 31l-11 92l5 38l33 92zM190 -13l98 23l60 60v-70h141l10 149l86 651h-158l-42 -316l-45 39l-90 20l-156 -72l-69 -187l-5 -38l27 -189z" />
    <glyph glyph-name="Dcroat" unicode="&#x110;" horiz-adv-x="716" 
d="M247 140l26 198h165l16 121h-165l24 181h76l121 -59l13 -175l-4 -32l-62 -179l-147 -55h-63zM688 406l-49 290l-242 84h-228l-42 -321h-104l-16 -121h104l-44 -338h241l259 82l117 292z" />
    <glyph glyph-name="dcroat" unicode="&#x111;" horiz-adv-x="582" 
d="M287 407l54 -18l27 -34l-24 -183l-32 -32l-60 -17l-63 31l-11 92l5 38l33 92zM289 609h112l-16 -125l-45 39l-90 20l-156 -72l-69 -187l-5 -38l27 -189l143 -70l98 23l60 60v-70h141l10 149l61 460h67l15 112h-68l11 79h-158l-11 -79h-112z" />
    <glyph glyph-name="Emacron" unicode="&#x112;" horiz-adv-x="573" 
d="M109 780l-102 -780h477l18 140h-315l25 188h265l18 140h-265l23 172h315l18 140h-477zM209 847h298l13 96h-298z" />
    <glyph glyph-name="emacron" unicode="&#x113;" horiz-adv-x="551" 
d="M287 423l60 -26l14 -75h-183l38 76zM504 208l6 47l-34 207l-189 81l-190 -74l-79 -185l-5 -38l42 -185l197 -74l175 48l70 120l2 15h-149l-27 -46l-71 -17l-70 23l-19 78h341zM163 619h300l18 138h-300z" />
    <glyph glyph-name="Ebreve" unicode="&#x114;" horiz-adv-x="573" 
d="M109 780l-102 -780h477l18 140h-315l25 188h265l18 140h-265l23 172h315l18 140h-477zM360 825l149 37l46 88h-111l-22 -30l-58 -10l-52 10l-16 30h-107l29 -88z" />
    <glyph glyph-name="ebreve" unicode="&#x115;" horiz-adv-x="556" 
d="M287 423l60 -26l14 -75h-183l38 76zM504 208l6 47l-34 207l-189 81l-190 -74l-79 -185l-5 -38l42 -185l197 -74l175 48l70 120l2 15h-149l-27 -46l-71 -17l-70 23l-19 78h341zM308 582l154 56l59 142h-115l-29 -61l-55 -17l-51 17l-13 61h-111l22 -142z" />
    <glyph glyph-name="Edotaccent" unicode="&#x116;" horiz-adv-x="573" 
d="M109 780l-102 -780h477l18 140h-315l25 188h265l18 140h-265l23 172h315l18 140h-477zM437 945h-133l-13 -100h133z" />
    <glyph glyph-name="edotaccent" unicode="&#x117;" horiz-adv-x="551" 
d="M287 423l60 -26l14 -75h-183l38 76zM504 208l6 47l-34 207l-189 81l-190 -74l-79 -185l-5 -38l42 -185l197 -74l175 48l70 120l2 15h-149l-27 -46l-71 -17l-70 23l-19 78h341zM417 772h-167l-22 -167h167z" />
    <glyph glyph-name="Eogonek" unicode="&#x118;" horiz-adv-x="573" 
d="M109 780l-102 -780h339l-41 -54l-16 -66l34 -72l93 -23l56 8l45 17l-23 96l-18 -7l-25 -4l-29 8l-10 22l24 49l48 26l18 140h-315l25 188h265l18 140h-265l23 172h315l18 140h-477z" />
    <glyph glyph-name="eogonek" unicode="&#x119;" horiz-adv-x="551" 
d="M287 423l60 -26l14 -75h-183l38 76zM504 208l6 47l-34 207l-189 81l-190 -74l-79 -185l-5 -38l32 -173l160 -83l-34 -50l-13 -60l34 -72l93 -23l56 8l45 17l-23 96l-18 -7l-25 -4l-29 8l-10 22l24 49l48 26l101 60l43 95l2 15h-149l-27 -46l-71 -17l-70 23l-19 78h341z
" />
    <glyph glyph-name="Ecaron" unicode="&#x11a;" horiz-adv-x="573" 
d="M109 780l-102 -780h477l18 140h-315l25 188h265l18 140h-265l23 172h315l18 140h-477zM168 950l109 -110h160l139 110h-145l-67 -50l-57 50h-139z" />
    <glyph glyph-name="ecaron" unicode="&#x11b;" horiz-adv-x="556" 
d="M287 423l60 -26l14 -75h-183l38 76zM504 208l6 47l-34 207l-189 81l-190 -74l-79 -185l-5 -38l42 -185l197 -74l175 48l70 120l2 15h-149l-27 -46l-71 -17l-70 23l-19 78h341zM124 780l110 -184h152l158 184h-141l-83 -83l-61 83h-135z" />
    <glyph glyph-name="Gcircumflex" unicode="&#x11c;" horiz-adv-x="669" 
d="M314 -13l165 29l104 61l45 345h-265l-18 -140h103l-17 -128l-43 -19l-63 -8h-10l-100 65l-12 182l4 33l54 182l106 64h10l86 -42l10 -127h163l4 32l-47 208l-217 69l-227 -92l-107 -295l-4 -32l53 -295zM602 840l-109 110h-160l-139 -110h145l67 50l57 -50h139z" />
    <glyph glyph-name="gcircumflex" unicode="&#x11d;" horiz-adv-x="574" 
d="M341 204l-33 -32l-60 -17l-63 29l-12 78l5 38l31 78l71 29l54 -18l27 -34zM315 7l-31 -71l-68 -21l-67 23l-9 62h-149l-2 -15l37 -140l192 -58l172 52l82 161l50 380l28 150h-142l-18 -65l-54 56l-93 22l-156 -70l-67 -173l-5 -38l28 -175l144 -68l81 15l56 40zM519 596
l-110 184h-152l-158 -184h141l83 83l61 -83h135z" />
    <glyph glyph-name="Gbreve" unicode="&#x11e;" horiz-adv-x="669" 
d="M314 -13l165 29l104 61l45 345h-265l-18 -140h103l-17 -128l-43 -19l-63 -8h-10l-100 65l-12 182l4 33l54 182l106 64h10l86 -42l10 -127h163l4 32l-47 208l-217 69l-227 -92l-107 -295l-4 -32l53 -295zM401 825l149 37l46 88h-111l-22 -30l-58 -10l-52 10l-16 30h-107
l29 -88z" />
    <glyph glyph-name="gbreve" unicode="&#x11f;" horiz-adv-x="574" 
d="M341 204l-33 -32l-60 -17l-63 29l-12 78l5 38l31 78l71 29l54 -18l27 -34zM315 7l-31 -71l-68 -21l-67 23l-9 62h-149l-2 -15l37 -140l192 -58l172 52l82 161l50 380l28 150h-142l-18 -65l-54 56l-93 22l-156 -70l-67 -173l-5 -38l28 -175l144 -68l81 15l56 40zM307 582
l154 56l59 142h-115l-29 -61l-55 -17l-51 17l-13 61h-111l22 -142z" />
    <glyph glyph-name="Gdotaccent" unicode="&#x120;" horiz-adv-x="669" 
d="M314 -13l165 29l104 61l45 345h-265l-18 -140h103l-17 -128l-43 -19l-63 -8h-10l-100 65l-12 182l4 33l54 182l106 64h10l86 -42l10 -127h163l4 32l-47 208l-217 69l-227 -92l-107 -295l-4 -32l53 -295zM478 945h-133l-13 -100h133z" />
    <glyph glyph-name="gdotaccent" unicode="&#x121;" horiz-adv-x="574" 
d="M341 204l-33 -32l-60 -17l-63 29l-12 78l5 38l31 78l71 29l54 -18l27 -34zM315 7l-31 -71l-68 -21l-67 23l-9 62h-149l-2 -15l37 -140l192 -58l172 52l82 161l50 380l28 150h-142l-18 -65l-54 56l-93 22l-156 -70l-67 -173l-5 -38l28 -175l144 -68l81 15l56 40zM416 772
h-167l-22 -167h167z" />
    <glyph glyph-name="Gcommaaccent" unicode="&#x122;" horiz-adv-x="669" 
d="M314 -13l165 29l104 61l45 345h-265l-18 -140h103l-17 -128l-43 -19l-63 -8h-10l-100 65l-12 182l4 33l54 182l106 64h10l86 -42l10 -127h163l4 32l-47 208l-217 69l-227 -92l-107 -295l-4 -32l53 -295zM363 -44h-142l-12 -92h79l-34 -28l-55 -7l-7 -55l114 28l49 97z
" />
    <glyph glyph-name="gcommaaccent" unicode="&#x123;" horiz-adv-x="574" 
d="M341 204l-33 -32l-60 -17l-63 29l-12 78l5 38l31 78l71 29l54 -18l27 -34zM315 7l-31 -71l-68 -21l-67 23l-9 62h-149l-2 -15l37 -140l192 -58l172 52l82 161l50 380l28 150h-142l-18 -65l-54 56l-93 22l-156 -70l-67 -173l-5 -38l28 -175l144 -68l81 15l56 40zM235 596
h142l13 104h-79l35 30l55 8l7 55l-114 -28l-49 -97z" />
    <glyph glyph-name="Hcircumflex" unicode="&#x124;" horiz-adv-x="663" 
d="M498 780l-41 -312h-227l41 312h-162l-102 -780h162l43 328h227l-43 -328h162l102 780h-162zM596 840l-109 110h-160l-139 -110h145l67 50l57 -50h139z" />
    <glyph glyph-name="hcircumflex" unicode="&#x125;" horiz-adv-x="576" 
d="M397 840l-109 110h-160l-139 -110h145l67 50l57 -50h139zM5 0h158l47 358l40 32l60 17l50 -19l9 -53l-44 -335h158l47 358l-25 132l-130 53l-82 -17l-67 -44l42 318h-158z" />
    <glyph glyph-name="Hbar" unicode="&#x126;" horiz-adv-x="663" 
d="M242 564h227l-12 -96h-227zM498 780l-13 -95h-227l13 95h-162l-102 -780h162l43 328h227l-43 -328h162l102 780h-162z" />
    <glyph glyph-name="hbar" unicode="&#x127;" horiz-adv-x="576" 
d="M17 609h68l-80 -609h158l47 358l40 32l60 17l50 -19l9 -53l-44 -335h158l47 358l-25 132l-130 53l-82 -17l-67 -44l17 127h112l15 112h-113l11 79h-158l-11 -79h-67z" />
    <glyph glyph-name="Itilde" unicode="&#x128;" horiz-adv-x="283" 
d="M276 780h-162l-102 -780h162zM317 947l-12 -26l-25 -7l-64 24l-84 24l-74 -26l-40 -93h85l13 26l24 7l64 -24l84 -24l74 27l40 92h-85z" />
    <glyph glyph-name="itilde" unicode="&#x129;" horiz-adv-x="266" 
d="M5 0h158l69 530h-158zM281 772l-11 -28l-23 -9l-68 26l-88 26l-81 -38l-45 -121h105l11 28l23 9l68 -26l88 -26l81 38l45 121h-105z" />
    <glyph glyph-name="Imacron" unicode="&#x12a;" horiz-adv-x="283" 
d="M276 780h-162l-102 -780h162zM55 847h298l13 96h-298z" />
    <glyph glyph-name="imacron" unicode="&#x12b;" horiz-adv-x="266" 
d="M5 0h158l69 530h-158zM15 619h300l18 138h-300z" />
    <glyph glyph-name="Ibreve" unicode="&#x12c;" horiz-adv-x="283" 
d="M276 780h-162l-102 -780h162zM206 825l149 37l46 88h-111l-22 -30l-58 -10l-52 10l-16 30h-107l29 -88z" />
    <glyph glyph-name="ibreve" unicode="&#x12d;" horiz-adv-x="265" 
d="M5 0h158l69 530h-158zM160 582l154 56l59 142h-115l-29 -61l-55 -17l-51 17l-13 61h-111l22 -142z" />
    <glyph glyph-name="Iogonek" unicode="&#x12e;" horiz-adv-x="283" 
d="M276 780h-162l-106 -811l-21 -42l-8 -47l34 -72l93 -23l56 8l45 17l-23 96l-18 -7l-25 -4l-29 8l-10 22l24 49l48 26z" />
    <glyph glyph-name="iogonek" unicode="&#x12f;" horiz-adv-x="266" 
d="M-32 -120l34 -72l93 -23l56 8l45 17l-23 96l-18 -7l-25 -4l-29 8l-10 22l24 49l48 26l69 530h-158l-73 -556l-24 -43zM268 772h-167l-22 -167h167z" />
    <glyph glyph-name="Idotaccent" unicode="&#x130;" horiz-adv-x="283" 
d="M276 780h-162l-102 -780h162zM283 945h-133l-13 -100h133z" />
    <glyph glyph-name="dotlessi" unicode="&#x131;" horiz-adv-x="266" 
d="M5 0h158l69 530h-158z" />
    <glyph glyph-name="IJ" unicode="&#x132;" horiz-adv-x="608" 
d="M372 199l-29 -58l-57 -14l-33 4l-18 5l-18 -136l31 -8l59 -5l152 44l73 150l78 599h-162zM276 780h-162l-102 -780h162z" />
    <glyph glyph-name="ij" unicode="&#x133;" horiz-adv-x="483" 
d="M219 -6l-29 -58l-55 -13l-32 3l-18 4l-17 -130l28 -8l59 -5l148 43l72 147l72 553h-158zM483 772h-167l-22 -167h167zM268 772h-167l-22 -167h167zM5 0h158l69 530h-158z" />
    <glyph glyph-name="Jcircumflex" unicode="&#x134;" horiz-adv-x="537" 
d="M377 780l-68 -528l-28 -97l-62 -28l-55 33l-2 106h-154l-4 -32l34 -182l179 -65l178 63l74 189l70 541h-162zM670 840l-109 110h-160l-139 -110h145l67 50l57 -50h139z" />
    <glyph glyph-name="jcircumflex" unicode="&#x135;" horiz-adv-x="266" 
d="M4 -6l-29 -58l-55 -13l-33 3l-17 4l-17 -130l28 -8l59 -5l148 43l72 147l72 553h-158zM372 596l-110 184h-152l-158 -184h141l83 83l61 -83h135z" />
    <glyph glyph-name="Kcommaaccent" unicode="&#x136;" horiz-adv-x="625" 
d="M271 780h-162l-102 -780h162l28 225l81 97l100 -322h179l-159 467l261 313h-197l-232 -301zM336 -44h-142l-12 -92h79l-34 -28l-55 -7l-7 -55l114 28l49 97z" />
    <glyph glyph-name="kcommaaccent" unicode="&#x137;" horiz-adv-x="562" 
d="M305 -44h-142l-12 -92h79l-34 -28l-55 -7l-7 -55l114 28l49 97zM1 0h158l19 146l62 62l77 -208h178l-133 329l202 201h-190l-169 -178l59 448h-158z" />
    <glyph glyph-name="kgreenlandic" unicode="&#x138;" horiz-adv-x="562" 
d="M71 530l-70 -530h158l19 146l62 62l77 -208h178l-133 329l202 201h-190l-169 -178l23 178h-157z" />
    <glyph glyph-name="Lacute" unicode="&#x139;" horiz-adv-x="521" 
d="M457 0l18 140h-288l84 640h-162l-102 -780h450zM190 950l-70 -110h156l79 110h-165z" />
    <glyph glyph-name="lacute" unicode="&#x13a;" horiz-adv-x="266" 
d="M5 0h158l105 800h-158z" />
    <glyph glyph-name="Lcommaaccent" unicode="&#x13b;" horiz-adv-x="521" 
d="M457 0l18 140h-288l84 640h-162l-102 -780h450zM296 -44h-142l-12 -92h79l-34 -28l-55 -7l-7 -55l114 28l49 97z" />
    <glyph glyph-name="lcommaaccent" unicode="&#x13c;" horiz-adv-x="266" 
d="M149 -44h-142l-12 -92h79l-34 -28l-55 -7l-7 -55l114 28l49 97zM5 0h158l105 800h-158z" />
    <glyph glyph-name="Lcaron" unicode="&#x13d;" horiz-adv-x="521" 
d="M387 800l-27 -204h70l52 204h-95zM457 0l18 140h-288l84 640h-162l-102 -780h450z" />
    <glyph glyph-name="lcaron" unicode="&#x13e;" horiz-adv-x="266" 
d="M5 0h158l105 800h-158zM324 800l-27 -204h70l52 204h-95z" />
    <glyph glyph-name="Ldot" unicode="&#x13f;" horiz-adv-x="521" 
d="M495 482h-167l-22 -167h167zM457 0l18 140h-288l84 640h-162l-102 -780h450z" />
    <glyph glyph-name="ldot" unicode="&#x140;" horiz-adv-x="439" 
d="M445 434h-167l-22 -167h167zM5 0h158l105 800h-158z" />
    <glyph glyph-name="Lslash" unicode="&#x141;" horiz-adv-x="581" 
d="M-13 188l111 51l-31 -239h450l18 140h-288l23 179l193 90l18 134l-193 -89l43 326h-162l-53 -406l-111 -51z" />
    <glyph glyph-name="lslash" unicode="&#x142;" horiz-adv-x="384" 
d="M-1 190l96 56l-32 -246h158l46 346l109 64l17 133l-109 -64l42 321h-158l-55 -420l-97 -57z" />
    <glyph glyph-name="Nacute" unicode="&#x143;" horiz-adv-x="683" 
d="M109 780l-102 -780h155l42 322l17 162l188 -484h169l102 780h-155l-42 -322l-17 -162l-188 484h-169zM397 950l-70 -110h156l79 110h-165z" />
    <glyph glyph-name="nacute" unicode="&#x144;" horiz-adv-x="578" 
d="M483 0l47 358l-25 132l-130 53l-96 -23l-73 -60v70h-141l-10 -149l-50 -381h158l47 358l40 32l60 17l50 -19l9 -53l-44 -335h158zM359 780l-115 -184h156l131 184h-172z" />
    <glyph glyph-name="Ncommaaccent" unicode="&#x145;" horiz-adv-x="683" 
d="M109 780l-102 -780h155l42 322l17 162l188 -484h169l102 780h-155l-42 -322l-17 -162l-188 484h-169zM360 -44h-142l-12 -92h79l-34 -28l-55 -7l-7 -55l114 28l49 97z" />
    <glyph glyph-name="ncommaaccent" unicode="&#x146;" horiz-adv-x="577" 
d="M483 0l47 358l-25 132l-130 53l-96 -23l-73 -60v70h-141l-10 -149l-50 -381h158l47 358l40 32l60 17l50 -19l9 -53l-44 -335h158zM309 -44h-142l-12 -92h79l-34 -28l-55 -7l-7 -55l114 28l49 97z" />
    <glyph glyph-name="Ncaron" unicode="&#x147;" horiz-adv-x="683" 
d="M109 780l-102 -780h155l42 322l17 162l188 -484h169l102 780h-155l-42 -322l-17 -162l-188 484h-169zM216 950l109 -110h160l139 110h-145l-67 -50l-57 50h-139z" />
    <glyph glyph-name="ncaron" unicode="&#x148;" horiz-adv-x="580" 
d="M483 0l47 358l-25 132l-130 53l-96 -23l-73 -60v70h-141l-10 -149l-50 -381h158l47 358l40 32l60 17l50 -19l9 -53l-44 -335h158zM136 780l110 -184h152l158 184h-141l-83 -83l-61 83h-135z" />
    <glyph glyph-name="Eng" unicode="&#x14a;" horiz-adv-x="683" 
d="M109 780l-102 -780h155l42 322l17 162l196 -503l-30 -47l-52 -11l-32 3l-18 4l-17 -130l28 -8l59 -5l148 43l72 147l105 803h-155l-42 -322l-17 -162l-188 484h-169z" />
    <glyph glyph-name="eng" unicode="&#x14b;" horiz-adv-x="577" 
d="M530 358l-25 132l-130 53l-96 -23l-73 -60v70h-141l-10 -149l-50 -381h158l47 358l40 32l60 17l50 -19l9 -53l-45 -341l-29 -58l-55 -13l-32 3l-18 4l-17 -130l28 -8l59 -5l148 43l72 147z" />
    <glyph glyph-name="Omacron" unicode="&#x14c;" horiz-adv-x="666" 
d="M299 127l-93 65l-3 182l4 32l50 182l110 65h10l93 -65l3 -182l-4 -32l-50 -182l-110 -65h-10zM376 793l-230 -92l-104 -295l-4 -32l42 -295l220 -92l230 92l104 295l4 32l-42 296zM249 847h298l13 96h-298z" />
    <glyph glyph-name="omacron" unicode="&#x14d;" horiz-adv-x="552" 
d="M242 -13l189 71l78 188l5 38l-41 186l-188 73l-189 -71l-78 -188l-5 -38l41 -186zM247 123l-66 32l-10 91l5 38l34 94l70 29l67 -31l9 -92l-5 -38l-34 -94zM160 619h300l18 138h-300z" />
    <glyph glyph-name="Obreve" unicode="&#x14e;" horiz-adv-x="666" 
d="M299 127l-93 65l-3 182l4 32l50 182l110 65h10l93 -65l3 -182l-4 -32l-50 -182l-110 -65h-10zM376 793l-230 -92l-104 -295l-4 -32l42 -295l220 -92l230 92l104 295l4 32l-42 296zM400 825l149 37l46 88h-111l-22 -30l-58 -10l-52 10l-16 30h-107l29 -88z" />
    <glyph glyph-name="obreve" unicode="&#x14f;" horiz-adv-x="556" 
d="M242 -13l189 71l78 188l5 38l-41 186l-188 73l-189 -71l-78 -188l-5 -38l41 -186zM247 123l-66 32l-10 91l5 38l34 94l70 29l67 -31l9 -92l-5 -38l-34 -94zM305 582l154 56l59 142h-115l-29 -61l-55 -17l-51 17l-13 61h-111l22 -142z" />
    <glyph glyph-name="Ohungarumlaut" unicode="&#x150;" horiz-adv-x="666" 
d="M299 127l-93 65l-3 182l4 32l50 182l110 65h10l93 -65l3 -182l-4 -32l-50 -182l-110 -65h-10zM376 793l-230 -92l-104 -295l-4 -32l42 -295l220 -92l230 92l104 295l4 32l-42 296zM480 950l-69 -110h139l79 110h-149zM305 950l-61 -110h139l71 110h-149z" />
    <glyph glyph-name="ohungarumlaut" unicode="&#x151;" horiz-adv-x="556" 
d="M242 -13l189 71l78 188l5 38l-41 186l-188 73l-189 -71l-78 -188l-5 -38l41 -186zM247 123l-66 32l-10 91l5 38l34 94l70 29l67 -31l9 -92l-5 -38l-34 -94zM440 780l-115 -184h123l131 184h-139zM256 780l-91 -184h123l108 184h-140z" />
    <glyph glyph-name="OE" unicode="&#x152;" horiz-adv-x="942" 
d="M39 374l49 -290l242 -84h523l18 140h-315l25 188h265l18 140h-265l23 172h315l18 140h-536l-259 -82l-117 -292zM460 640l-66 -500h-56l-121 59l-13 175l4 32l62 179l147 55h43z" />
    <glyph glyph-name="oe" unicode="&#x153;" horiz-adv-x="889" 
d="M625 423l60 -26l14 -75h-183l38 76zM247 123l-66 32l-10 91l5 38l34 94l70 29l67 -31l9 -92l-5 -38l-34 -94zM842 208l6 47l-34 207l-189 81l-103 -19l-68 -53l-63 53l-106 19l-189 -71l-78 -188l-5 -38l41 -186l188 -73l103 18l67 52l66 -51l112 -19l175 48l70 120l2 15
h-149l-27 -46l-71 -17l-70 23l-19 78h341z" />
    <glyph glyph-name="Racute" unicode="&#x154;" horiz-adv-x="619" 
d="M223 420l30 220h100l65 -20l23 -86l-2 -15l-45 -81l-69 -18h-102zM206 280h89l69 -280h170l-83 300l96 70l55 145l3 23l-55 193l-178 49h-263l-102 -780h162zM351 950l-70 -110h156l79 110h-165z" />
    <glyph glyph-name="racute" unicode="&#x155;" horiz-adv-x="385" 
d="M360 543l-87 -21l-67 -62v70h-141l-10 -149l-50 -381h158l44 335l47 31l86 14h13l21 162l-4 1h-10zM269 780l-115 -184h156l131 184h-172z" />
    <glyph glyph-name="Rcommaaccent" unicode="&#x156;" horiz-adv-x="619" 
d="M223 420l30 220h100l65 -20l23 -86l-2 -15l-45 -81l-69 -18h-102zM206 280h89l69 -280h170l-83 300l96 70l55 145l3 23l-55 193l-178 49h-263l-102 -780h162zM334 -44h-142l-12 -92h79l-34 -28l-55 -7l-7 -55l114 28l49 97z" />
    <glyph glyph-name="rcommaaccent" unicode="&#x157;" horiz-adv-x="384" 
d="M360 543l-87 -21l-67 -62v70h-141l-10 -149l-50 -381h158l44 335l47 31l86 14h13l21 162l-4 1h-10zM150 -44h-142l-12 -92h79l-34 -28l-55 -7l-7 -55l114 28l49 97z" />
    <glyph glyph-name="Rcaron" unicode="&#x158;" horiz-adv-x="619" 
d="M223 420l30 220h100l65 -20l23 -86l-2 -15l-45 -81l-69 -18h-102zM206 280h89l69 -280h170l-83 300l96 70l55 145l3 23l-55 193l-178 49h-263l-102 -780h162zM170 950l109 -110h160l139 110h-145l-67 -50l-57 50h-139z" />
    <glyph glyph-name="rcaron" unicode="&#x159;" horiz-adv-x="385" 
d="M360 543l-87 -21l-67 -62v70h-141l-10 -149l-50 -381h158l44 335l47 31l86 14h13l21 162l-4 1h-10zM46 780l110 -184h152l158 184h-141l-83 -83l-61 83h-135z" />
    <glyph glyph-name="Sacute" unicode="&#x15a;" horiz-adv-x="627" 
d="M279 327l111 -43l22 -65l-2 -15l-33 -58l-79 -19h-10l-87 32l-20 107h-162l-3 -23l54 -191l219 -65l197 55l89 163l3 23l-44 150l-177 80l-109 42l-20 61l2 15l34 57l70 20h10l90 -37l12 -112h162l3 23l-47 198l-221 68l-192 -55l-86 -163l-3 -23l40 -143zM368 950
l-70 -110h156l79 110h-165z" />
    <glyph glyph-name="sacute" unicode="&#x15b;" horiz-adv-x="528" 
d="M267 324l-56 14l-16 30l20 40l52 15l53 -18l9 -49h155l2 15l-41 127l-173 45l-154 -36l-75 -115l-2 -15l39 -115l155 -49l56 -16l16 -32l-17 -41l-56 -17l-57 17l-12 44h-157l-2 -15l44 -122l179 -44l165 42l69 113l2 15l-47 122zM330 780l-115 -184h156l131 184h-172z
" />
    <glyph glyph-name="Scircumflex" unicode="&#x15c;" horiz-adv-x="627" 
d="M279 327l111 -43l22 -65l-2 -15l-33 -58l-79 -19h-10l-87 32l-20 107h-162l-3 -23l54 -191l219 -65l197 55l89 163l3 23l-44 150l-177 80l-109 42l-20 61l2 15l34 57l70 20h10l90 -37l12 -112h162l3 23l-47 198l-221 68l-192 -55l-86 -163l-3 -23l40 -143zM580 840
l-109 110h-160l-139 -110h145l67 50l57 -50h139z" />
    <glyph glyph-name="scircumflex" unicode="&#x15d;" horiz-adv-x="528" 
d="M267 324l-56 14l-16 30l20 40l52 15l53 -18l9 -49h155l2 15l-41 127l-173 45l-154 -36l-75 -115l-2 -15l39 -115l155 -49l56 -16l16 -32l-17 -41l-56 -17l-57 17l-12 44h-157l-2 -15l44 -122l179 -44l165 42l69 113l2 15l-47 122zM503 596l-110 184h-152l-158 -184h141
l83 83l61 -83h135z" />
    <glyph glyph-name="Scedilla" unicode="&#x15e;" horiz-adv-x="627" 
d="M279 327l111 -43l22 -65l-2 -15l-33 -58l-79 -19h-10l-87 32l-20 107h-162l-3 -23l40 -175l169 -77l-34 -63l11 -28l13 2l26 3l34 -5l11 -16l-11 -18l-35 -7l-43 5l-31 12l-32 -66l41 -17l70 -8l91 26l35 71l-25 57l-65 21l14 27l193 56l87 162l3 23l-44 150l-177 80
l-109 42l-20 61l2 15l34 57l70 20h10l90 -37l12 -112h162l3 23l-47 198l-221 68l-192 -55l-86 -163l-3 -23l40 -143z" />
    <glyph glyph-name="scedilla" unicode="&#x15f;" horiz-adv-x="525" 
d="M267 324l-56 14l-16 30l20 40l52 15l53 -18l9 -49h155l2 15l-41 127l-173 45l-154 -36l-75 -115l-2 -15l39 -115l155 -49l56 -16l16 -32l-17 -41l-56 -17l-57 17l-12 44h-157l-2 -15l33 -112l140 -51l-33 -62l11 -28l13 2l26 3l34 -5l11 -16l-11 -18l-35 -7l-43 5l-31 12
l-32 -66l41 -17l70 -8l91 26l35 71l-25 57l-65 21l14 28l150 45l63 109l2 15l-47 122z" />
    <glyph glyph-name="Scaron" unicode="&#x160;" horiz-adv-x="627" 
d="M279 327l111 -43l22 -65l-2 -15l-33 -58l-79 -19h-10l-87 32l-20 107h-162l-3 -23l54 -191l219 -65l197 55l89 163l3 23l-44 150l-177 80l-109 42l-20 61l2 15l34 57l70 20h10l90 -37l12 -112h162l3 23l-47 198l-221 68l-192 -55l-86 -163l-3 -23l40 -143zM187 950
l109 -110h160l139 110h-145l-67 -50l-57 50h-139z" />
    <glyph glyph-name="scaron" unicode="&#x161;" horiz-adv-x="528" 
d="M267 324l-56 14l-16 30l20 40l52 15l53 -18l9 -49h155l2 15l-41 127l-173 45l-154 -36l-75 -115l-2 -15l39 -115l155 -49l56 -16l16 -32l-17 -41l-56 -17l-57 17l-12 44h-157l-2 -15l44 -122l179 -44l165 42l69 113l2 15l-47 122zM107 780l110 -184h152l158 184h-141
l-83 -83l-61 83h-135z" />
    <glyph glyph-name="Tcommaaccent" unicode="&#x162;" horiz-adv-x="557" 
d="M394 640h181l18 140h-523l-18 -140h180l-84 -640h162zM294 -44h-142l-12 -92h79l-34 -28l-55 -7l-7 -55l114 28l49 97z" />
    <glyph glyph-name="tcommaaccent" unicode="&#x163;" horiz-adv-x="431" 
d="M278 530l20 150h-158l-20 -150h-82l-18 -138h82l-29 -220l29 -132l158 -53l47 5l28 8l17 130l-21 -5l-30 -2l-59 19l-8 53l26 197h136l18 138h-136zM266 -44h-142l-12 -92h79l-34 -28l-55 -7l-7 -55l114 28l49 97z" />
    <glyph glyph-name="Tcaron" unicode="&#x164;" horiz-adv-x="557" 
d="M394 640h181l18 140h-523l-18 -140h180l-84 -640h162zM150 950l109 -110h160l139 110h-145l-67 -50l-57 50h-139z" />
    <glyph glyph-name="tcaron" unicode="&#x165;" horiz-adv-x="431" 
d="M278 530l20 150h-158l-20 -150h-82l-18 -138h82l-29 -220l29 -132l158 -53l47 5l28 8l17 130l-21 -5l-30 -2l-59 19l-8 53l26 197h136l18 138h-136zM370 800l-27 -204h70l52 204h-95z" />
    <glyph glyph-name="Tbar" unicode="&#x166;" horiz-adv-x="557" 
d="M394 640h181l18 140h-523l-18 -140h180l-24 -181h-119l-16 -121h119l-44 -338h162l44 338h119l16 121h-119z" />
    <glyph glyph-name="tbar" unicode="&#x167;" horiz-adv-x="431" 
d="M13 208h64l-4 -36l29 -132l158 -53l47 5l28 8l17 130l-21 -5l-30 -2l-59 19l-8 53l1 13h96l15 112h-96l10 72h136l18 138h-136l20 150h-158l-20 -150h-82l-18 -138h82l-10 -72h-64z" />
    <glyph glyph-name="Utilde" unicode="&#x168;" horiz-adv-x="663" 
d="M293 -13l222 67l80 193l70 533h-162l-69 -528l-38 -94l-99 -31l-89 32l-11 93l69 528h-162l-70 -533l42 -194zM506 947l-12 -26l-25 -7l-64 24l-84 24l-74 -26l-40 -93h85l13 26l24 7l64 -24l84 -24l74 27l40 92h-85z" />
    <glyph glyph-name="utilde" unicode="&#x169;" horiz-adv-x="580" 
d="M68 530l-47 -358l25 -132l130 -53l96 24l73 59v-70h141l10 149l50 381h-158l-47 -358l-39 -32l-61 -17l-50 19l-9 53l44 335h-158zM434 772l-11 -28l-23 -9l-68 26l-88 26l-81 -38l-45 -121h105l11 28l23 9l68 -26l88 -26l81 38l45 121h-105z" />
    <glyph glyph-name="Umacron" unicode="&#x16a;" horiz-adv-x="663" 
d="M293 -13l222 67l80 193l70 533h-162l-69 -528l-38 -94l-99 -31l-89 32l-11 93l69 528h-162l-70 -533l42 -194zM244 847h298l13 96h-298z" />
    <glyph glyph-name="umacron" unicode="&#x16b;" horiz-adv-x="580" 
d="M68 530l-47 -358l25 -132l130 -53l96 24l73 59v-70h141l10 149l50 381h-158l-47 -358l-39 -32l-61 -17l-50 19l-9 53l44 335h-158zM168 619h300l18 138h-300z" />
    <glyph glyph-name="Ubreve" unicode="&#x16c;" horiz-adv-x="663" 
d="M293 -13l222 67l80 193l70 533h-162l-69 -528l-38 -94l-99 -31l-89 32l-11 93l69 528h-162l-70 -533l42 -194zM395 825l149 37l46 88h-111l-22 -30l-58 -10l-52 10l-16 30h-107l29 -88z" />
    <glyph glyph-name="ubreve" unicode="&#x16d;" horiz-adv-x="580" 
d="M68 530l-47 -358l25 -132l130 -53l96 24l73 59v-70h141l10 149l50 381h-158l-47 -358l-39 -32l-61 -17l-50 19l-9 53l44 335h-158zM313 582l154 56l59 142h-115l-29 -61l-55 -17l-51 17l-13 61h-111l22 -142z" />
    <glyph glyph-name="Uring" unicode="&#x16e;" horiz-adv-x="663" 
d="M293 -13l222 67l80 193l70 533h-162l-69 -528l-38 -94l-99 -31l-89 32l-11 93l69 528h-162l-70 -533l42 -194zM445 863l-16 -40l-41 -16l-33 13l-13 33l17 40l40 16l33 -13zM500 870l-27 66l-69 27l-82 -33l-35 -84l27 -66l69 -27l83 33z" />
    <glyph glyph-name="uring" unicode="&#x16f;" horiz-adv-x="580" 
d="M68 530l-47 -358l25 -132l130 -53l96 24l73 59v-70h141l10 149l50 381h-158l-47 -358l-39 -32l-61 -17l-50 19l-9 53l44 335h-158zM379 693l-16 -40l-41 -16l-33 13l-13 33l17 40l40 16l33 -13zM434 700l-27 66l-69 27l-82 -33l-35 -84l27 -66l69 -27l83 33z" />
    <glyph glyph-name="Uhungarumlaut" unicode="&#x170;" horiz-adv-x="663" 
d="M293 -13l222 67l80 193l70 533h-162l-69 -528l-38 -94l-99 -31l-89 32l-11 93l69 528h-162l-70 -533l42 -194zM475 950l-69 -110h139l79 110h-149zM300 950l-61 -110h139l71 110h-149z" />
    <glyph glyph-name="uhungarumlaut" unicode="&#x171;" horiz-adv-x="580" 
d="M68 530l-47 -358l25 -132l130 -53l96 24l73 59v-70h141l10 149l50 381h-158l-47 -358l-39 -32l-61 -17l-50 19l-9 53l44 335h-158zM448 780l-115 -184h123l131 184h-139zM264 780l-91 -184h123l108 184h-140z" />
    <glyph glyph-name="Uogonek" unicode="&#x172;" horiz-adv-x="663" 
d="M412 0l130 85l53 162l70 533h-162l-69 -528l-38 -94l-99 -31l-89 32l-11 93l69 528h-162l-70 -533l36 -187l192 -72l-33 -50l-12 -58l34 -72l93 -23l56 8l45 17l-23 96l-18 -7l-25 -4l-29 8l-10 22l24 49z" />
    <glyph glyph-name="uogonek" unicode="&#x173;" horiz-adv-x="580" 
d="M68 530l-47 -358l25 -132l130 -53l96 24l73 59v-73l-39 -53l-15 -64l34 -72l93 -23l56 8l45 17l-23 96l-18 -7l-25 -4l-29 8l-10 22l24 49l48 26l10 149l50 381h-158l-47 -358l-39 -32l-61 -17l-50 19l-9 53l44 335h-158z" />
    <glyph glyph-name="Wcircumflex" unicode="&#x174;" horiz-adv-x="937" 
d="M529 -2h209l233 782h-157l-159 -560l-27 560h-213l-167 -559l-18 559h-158l29 -782h225l175 587zM733 840l-109 110h-160l-139 -110h145l67 50l57 -50h139z" />
    <glyph glyph-name="wcircumflex" unicode="&#x175;" horiz-adv-x="766" 
d="M382 365l27 -365h199l159 530h-153l-87 -359l-28 359h-192l-120 -359l2 359h-150l19 -530h203zM622 596l-110 184h-152l-158 -184h141l83 83l61 -83h135z" />
    <glyph glyph-name="Ycircumflex" unicode="&#x176;" horiz-adv-x="625" 
d="M376 239l294 541h-180l-172 -343l-83 343h-174l153 -541l-31 -239h162zM578 840l-109 110h-160l-139 -110h145l67 50l57 -50h139z" />
    <glyph glyph-name="ycircumflex" unicode="&#x177;" horiz-adv-x="551" 
d="M251 192l-57 338h-169l120 -502l-115 -228h188l98 228l253 502h-175zM516 596l-110 184h-152l-158 -184h141l83 83l61 -83h135z" />
    <glyph glyph-name="Ydieresis" unicode="&#x178;" horiz-adv-x="625" 
d="M376 239l294 541h-180l-172 -343l-83 343h-174l153 -541l-31 -239h162zM542 945h-133l-13 -100h133zM367 945h-133l-13 -100h133z" />
    <glyph glyph-name="Zacute" unicode="&#x179;" horiz-adv-x="599" 
d="M4 108l-14 -108h519l18 140h-181l-142 -3l383 535l14 108h-499l-18 -140h160l143 3zM351 950l-70 -110h156l79 110h-165z" />
    <glyph glyph-name="zacute" unicode="&#x17a;" horiz-adv-x="499" 
d="M-12 108l-14 -108h451l18 138h-130l-111 -3l268 287l14 108h-431l-18 -138h110l111 3zM314 780l-115 -184h156l131 184h-172z" />
    <glyph glyph-name="Zdotaccent" unicode="&#x17b;" horiz-adv-x="599" 
d="M4 108l-14 -108h519l18 140h-181l-142 -3l383 535l14 108h-499l-18 -140h160l143 3zM439 945h-133l-13 -100h133z" />
    <glyph glyph-name="zdotaccent" unicode="&#x17c;" horiz-adv-x="499" 
d="M-12 108l-14 -108h451l18 138h-130l-111 -3l268 287l14 108h-431l-18 -138h110l111 3zM384 772h-167l-22 -167h167z" />
    <glyph glyph-name="Zcaron" unicode="&#x17d;" horiz-adv-x="599" 
d="M4 108l-14 -108h519l18 140h-181l-142 -3l383 535l14 108h-499l-18 -140h160l143 3zM170 950l109 -110h160l139 110h-145l-67 -50l-57 50h-139z" />
    <glyph glyph-name="zcaron" unicode="&#x17e;" horiz-adv-x="499" 
d="M-12 108l-14 -108h451l18 138h-130l-111 -3l268 287l14 108h-431l-18 -138h110l111 3zM91 780l110 -184h152l158 184h-141l-83 -83l-61 83h-135z" />
    <glyph glyph-name="Scommaaccent" unicode="&#x218;" horiz-adv-x="627" 
d="M279 327l111 -43l22 -65l-2 -15l-33 -58l-79 -19h-10l-87 32l-20 107h-162l-3 -23l54 -191l219 -65l197 55l89 163l3 23l-44 150l-177 80l-109 42l-20 61l2 15l34 57l70 20h10l90 -37l12 -112h162l3 23l-47 198l-221 68l-192 -55l-86 -163l-3 -23l40 -143zM331 -44h-142
l-12 -92h79l-34 -28l-55 -7l-7 -55l114 28l49 97z" />
    <glyph glyph-name="scommaaccent" unicode="&#x219;" horiz-adv-x="525" 
d="M267 324l-56 14l-16 30l20 40l52 15l53 -18l9 -49h155l2 15l-41 127l-173 45l-154 -36l-75 -115l-2 -15l39 -115l155 -49l56 -16l16 -32l-17 -41l-56 -17l-57 17l-12 44h-157l-2 -15l44 -122l179 -44l165 42l69 113l2 15l-47 122zM280 -44h-142l-12 -92h79l-34 -28
l-55 -7l-7 -55l114 28l49 97z" />
    <glyph glyph-name="Ymacron" unicode="&#x232;" horiz-adv-x="625" 
d="M376 239l294 541h-180l-172 -343l-83 343h-174l153 -541l-31 -239h162zM226 847h298l13 96h-298z" />
    <glyph glyph-name="ymacron" unicode="&#x233;" horiz-adv-x="551" 
d="M251 192l-57 338h-169l120 -502l-115 -228h188l98 228l253 502h-175zM159 619h300l18 138h-300z" />
    <glyph glyph-name="dotlessj" unicode="&#x237;" horiz-adv-x="268" 
d="M4 -6l-29 -58l-55 -13l-33 3l-17 4l-17 -130l28 -8l59 -5l148 43l72 147l72 553h-158z" />
    <glyph glyph-name="circumflex" unicode="&#x2c6;" horiz-adv-x="500" 
d="M489 596l-110 184h-152l-158 -184h141l83 83l61 -83h135z" />
    <glyph glyph-name="caron" unicode="&#x2c7;" horiz-adv-x="500" 
d="M93 780l110 -184h152l158 184h-141l-83 -83l-61 83h-135z" />
    <glyph glyph-name="breve" unicode="&#x2d8;" horiz-adv-x="500" 
d="M277 582l154 56l59 142h-115l-29 -61l-55 -17l-51 17l-13 61h-111l22 -142z" />
    <glyph glyph-name="dotaccent" unicode="&#x2d9;" horiz-adv-x="500" 
d="M386 772h-167l-22 -167h167z" />
    <glyph glyph-name="ring" unicode="&#x2da;" horiz-adv-x="500" 
d="M343 693l-16 -40l-41 -16l-33 13l-13 33l17 40l40 16l33 -13zM398 700l-27 66l-69 27l-82 -33l-35 -84l27 -66l69 -27l83 33z" />
    <glyph glyph-name="ogonek" unicode="&#x2db;" horiz-adv-x="602" 
d="M243 0l-19 66l-119 -67l-57 -119l34 -72l93 -23l56 8l45 17l-23 96l-18 -7l-25 -4l-29 8l-10 22l24 49z" />
    <glyph glyph-name="tilde" unicode="&#x2dc;" horiz-adv-x="500" 
d="M398 772l-11 -28l-23 -9l-68 26l-88 26l-81 -38l-45 -121h105l11 28l23 9l68 -26l88 -26l81 38l45 121h-105z" />
    <glyph glyph-name="hungarumlaut" unicode="&#x2dd;" horiz-adv-x="500" 
d="M412 780l-115 -184h123l131 184h-139zM228 780l-91 -184h123l108 184h-140z" />
    <glyph glyph-name="Bdotaccent" unicode="&#x1e02;" horiz-adv-x="628" 
d="M348 640l57 -17l19 -62l-2 -15l-36 -62l-60 -15h-96l23 171h95zM322 328l62 -19l17 -71l-2 -15l-37 -68l-68 -15h-107l24 188h111zM109 780l-102 -780h265l185 35l104 179l3 23l-12 107l-67 59l69 48l31 91l3 23l-56 174l-165 41h-258zM439 945h-133l-13 -100h133z" />
    <glyph glyph-name="bdotaccent" unicode="&#x1e03;" horiz-adv-x="569" 
d="M272 945h-133l-13 -100h133zM265 123l-54 19l-27 33l24 183l33 32l59 17l63 -31l11 -92l-5 -38l-32 -91zM266 800h-158l-85 -650l-28 -150h142l18 65l54 -56l93 -22l156 72l69 187l5 38l-26 189l-144 70l-81 -15l-56 -40z" />
    <glyph glyph-name="Ddotaccent" unicode="&#x1e0a;" horiz-adv-x="656" 
d="M187 140l66 500h76l121 -59l13 -175l-4 -32l-62 -179l-147 -55h-63zM628 406l-49 290l-242 84h-228l-102 -780h241l259 82l117 292zM454 945h-133l-13 -100h133z" />
    <glyph glyph-name="ddotaccent" unicode="&#x1e0b;" horiz-adv-x="582" 
d="M591 945h-133l-13 -100h133zM287 407l54 -18l27 -34l-24 -183l-32 -32l-60 -17l-63 31l-11 92l5 38l33 92zM190 -13l98 23l60 60v-70h141l10 149l86 651h-158l-42 -316l-45 39l-90 20l-156 -72l-69 -187l-5 -38l27 -189z" />
    <glyph glyph-name="Fdotaccent" unicode="&#x1e1e;" horiz-adv-x="549" 
d="M109 780l-102 -780h162l43 328h261l18 140h-261l23 172h311l18 140h-473zM437 945h-133l-13 -100h133z" />
    <glyph glyph-name="fdotaccent" unicode="&#x1e1f;" horiz-adv-x="411" 
d="M385 945h-133l-13 -100h133zM288 606l29 58l55 13l33 -3l17 -4l17 130l-28 8l-59 5l-148 -43l-72 -147l-12 -93h-82l-18 -138h82l-51 -392h158l51 392h116l18 138h-116z" />
    <glyph glyph-name="Mdotaccent" unicode="&#x1e40;" horiz-adv-x="869" 
d="M673 499l-28 -177l-42 -322h162l102 780h-249l-202 -499l-71 499h-236l-102 -780h162l42 322l18 177l74 -499h165zM576 945h-133l-13 -100h133z" />
    <glyph glyph-name="mdotaccent" unicode="&#x1e41;" horiz-adv-x="860" 
d="M512 366l33 28l50 13l47 -17l10 -47l-45 -343h158l48 366l-27 125l-123 52l-91 -19l-71 -61l-50 58l-89 22l-93 -20l-63 -53v60h-141l-10 -149l-50 -381h158l48 366l33 28l50 13l47 -17l10 -47l-45 -343h158zM571 772h-167l-22 -167h167z" />
    <glyph glyph-name="Pdotaccent" unicode="&#x1e56;" horiz-adv-x="605" 
d="M223 420l30 220h100l65 -20l23 -86l-2 -15l-45 -81l-69 -18h-102zM206 280h104l183 41l109 194l3 23l-55 193l-178 49h-263l-102 -780h162zM434 945h-133l-13 -100h133z" />
    <glyph glyph-name="pdotaccent" unicode="&#x1e57;" horiz-adv-x="569" 
d="M265 123l-54 19l-27 33l24 183l33 32l59 17l63 -31l11 -92l-5 -38l-32 -91zM134 -200l33 246l45 -39l90 -20l156 72l69 187l5 38l-26 189l-144 70l-98 -23l-60 -60v70h-141l-10 -149l-77 -581h158zM434 772h-167l-22 -167h167z" />
    <glyph glyph-name="Tdotaccent" unicode="&#x1e6a;" horiz-adv-x="557" 
d="M394 640h181l18 140h-523l-18 -140h180l-84 -640h162zM419 945h-133l-13 -100h133z" />
    <glyph glyph-name="tdotaccent" unicode="&#x1e6b;" horiz-adv-x="431" 
d="M303 825h-133l-13 -100h133zM278 530l20 150h-158l-20 -150h-82l-18 -138h82l-29 -220l29 -132l158 -53l47 5l28 8l17 130l-21 -5l-30 -2l-59 19l-8 53l26 197h136l18 138h-136z" />
    <glyph glyph-name="Wgrave" unicode="&#x1e80;" horiz-adv-x="937" 
d="M529 -2h209l233 782h-157l-159 -560l-27 560h-213l-167 -559l-18 559h-158l29 -782h225l175 587zM402 950l49 -110h156l-40 110h-165z" />
    <glyph glyph-name="wgrave" unicode="&#x1e81;" horiz-adv-x="766" 
d="M382 365l27 -365h199l159 530h-153l-87 -359l-28 359h-192l-120 -359l2 359h-150l19 -530h203zM251 780l83 -184h156l-67 184h-172z" />
    <glyph glyph-name="Wacute" unicode="&#x1e82;" horiz-adv-x="937" 
d="M529 -2h209l233 782h-157l-159 -560l-27 560h-213l-167 -559l-18 559h-158l29 -782h225l175 587zM521 950l-70 -110h156l79 110h-165z" />
    <glyph glyph-name="wacute" unicode="&#x1e83;" horiz-adv-x="766" 
d="M382 365l27 -365h199l159 530h-153l-87 -359l-28 359h-192l-120 -359l2 359h-150l19 -530h203zM449 780l-115 -184h156l131 184h-172z" />
    <glyph glyph-name="Wdieresis" unicode="&#x1e84;" horiz-adv-x="937" 
d="M529 -2h209l233 782h-157l-159 -560l-27 560h-213l-167 -559l-18 559h-158l29 -782h225l175 587zM697 945h-133l-13 -100h133zM522 945h-133l-13 -100h133z" />
    <glyph glyph-name="wdieresis" unicode="&#x1e85;" horiz-adv-x="766" 
d="M382 365l27 -365h199l159 530h-153l-87 -359l-28 359h-192l-120 -359l2 359h-150l19 -530h203zM626 772h-167l-22 -167h167zM411 772h-167l-22 -167h167z" />
    <glyph glyph-name="Eszett" unicode="&#x1e9e;" horiz-adv-x="802" 
d="M313 444l-13 -97l190 -23l88 -34l19 -69l-2 -15l-31 -62l-57 -17h-10l-65 30l-10 109h-162l-3 -23l42 -193l199 -63l179 51l84 164l3 23l-53 163l-172 72l-33 4l139 192l12 100l-101 28l-132 9l-258 -66l-94 -194l-70 -533h162l69 528l52 94l135 31l22 -1l20 -1z" />
    <glyph glyph-name="Ygrave" unicode="&#x1ef2;" horiz-adv-x="625" 
d="M376 239l294 541h-180l-172 -343l-83 343h-174l153 -541l-31 -239h162zM247 950l49 -110h156l-40 110h-165z" />
    <glyph glyph-name="ygrave" unicode="&#x1ef3;" horiz-adv-x="551" 
d="M251 192l-57 338h-169l120 -502l-115 -228h188l98 228l253 502h-175zM145 780l83 -184h156l-67 184h-172z" />
    <glyph glyph-name="enspace" unicode="&#x2002;" horiz-adv-x="500" 
 />
    <glyph glyph-name="emspace" unicode="&#x2003;" horiz-adv-x="1000" 
 />
    <glyph glyph-name="threeperemspace" unicode="&#x2004;" horiz-adv-x="333" 
 />
    <glyph glyph-name="fourperemspace" unicode="&#x2005;" horiz-adv-x="250" 
 />
    <glyph glyph-name="sixperemspace" unicode="&#x2006;" horiz-adv-x="167" 
 />
    <glyph glyph-name="figurespace" unicode="&#x2007;" horiz-adv-x="600" 
 />
    <glyph glyph-name="punctuationspace" unicode="&#x2008;" horiz-adv-x="180" 
 />
    <glyph glyph-name="thinspace" unicode="&#x2009;" horiz-adv-x="150" 
 />
    <glyph glyph-name="hairspace" unicode="&#x200a;" horiz-adv-x="50" 
 />
    <glyph glyph-name="zerowidthspace" unicode="&#x200b;" horiz-adv-x="0" 
 />
    <glyph glyph-name="figuredash" unicode="&#x2012;" horiz-adv-x="600" 
d="M27 281h520l18 138h-520z" />
    <glyph glyph-name="endash" unicode="&#x2013;" horiz-adv-x="500" 
d="M27 281h420l18 138h-420z" />
    <glyph glyph-name="emdash" unicode="&#x2014;" horiz-adv-x="1000" 
d="M27 281h920l18 138h-920z" />
    <glyph glyph-name="uni2015" unicode="&#x2015;" horiz-adv-x="1200" 
d="M27 281h1120l18 138h-1120z" />
    <glyph glyph-name="doublebar" unicode="&#x2016;" horiz-adv-x="459" 
d="M186 -120h154l126 960h-154zM-11 -120h154l126 960h-154z" />
    <glyph glyph-name="quoteleft" unicode="&#x2018;" horiz-adv-x="266" 
d="M66 496h167l22 167h-85l34 50l64 17l10 76l-133 -44l-62 -136z" />
    <glyph glyph-name="quoteright" unicode="&#x2019;" horiz-adv-x="266" 
d="M269 780h-167l-22 -167h85l-34 -50l-64 -17l-10 -76l134 44l61 136z" />
    <glyph glyph-name="quotesinglbase" unicode="&#x201a;" horiz-adv-x="266" 
d="M189 167h-167l-22 -167h85l-34 -50l-64 -17l-10 -76l134 44l61 136z" />
    <glyph glyph-name="reversequoteleft" unicode="&#x201b;" horiz-adv-x="266" 
d="M103 780l-17 -130l27 -134l120 -46l10 76l-60 17l-21 50h85l22 167h-166z" />
    <glyph glyph-name="quotedblleft" unicode="&#x201c;" horiz-adv-x="486" 
d="M66 496h167l22 167h-85l34 50l64 17l10 76l-133 -44l-62 -136zM286 496h167l22 167h-85l34 50l64 17l10 76l-133 -44l-62 -136z" />
    <glyph glyph-name="quotedblright" unicode="&#x201d;" horiz-adv-x="486" 
d="M489 780h-167l-22 -167h85l-34 -50l-64 -17l-10 -76l134 44l61 136zM269 780h-167l-22 -167h85l-34 -50l-64 -17l-10 -76l134 44l61 136z" />
    <glyph glyph-name="quotedblbase" unicode="&#x201e;" horiz-adv-x="486" 
d="M409 167h-167l-22 -167h85l-34 -50l-64 -17l-10 -76l134 44l61 136zM189 167h-167l-22 -167h85l-34 -50l-64 -17l-10 -76l134 44l61 136z" />
    <glyph glyph-name="reversequotedblleft" unicode="&#x201f;" horiz-adv-x="486" 
d="M323 780l-17 -130l27 -134l120 -46l10 76l-60 17l-21 50h85l22 167h-166zM103 780l-17 -130l27 -134l120 -46l10 76l-60 17l-21 50h85l22 167h-166z" />
    <glyph glyph-name="dagger" unicode="&#x2020;" horiz-adv-x="413" 
d="M218 800l-13 -134h79l23 134h-89zM426 660l-132 -5l-11 -78l132 -5zM50 572l132 5l11 78l-132 5zM170 437l-12 -130h79l22 130l12 129h-79z" />
    <glyph glyph-name="daggerdbl" unicode="&#x2021;" horiz-adv-x="413" 
d="M395 426l-132 -5l-11 -78l132 -5zM19 338l132 5l11 78l-132 5zM139 203l-12 -130h79l22 130l12 129h-79zM426 660l-132 -5l-11 -78l132 -5zM50 572l132 5l11 78l-132 5zM178 499l-4 -67h79l14 67l4 67h-79zM218 800l-13 -134h79l23 134h-89z" />
    <glyph glyph-name="bullet" unicode="&#x2022;" horiz-adv-x="445" 
d="M400 511h-321l-42 -322h321z" />
    <glyph glyph-name="ellipsis" unicode="&#x2026;" horiz-adv-x="1000" 
d="M875 167h-167l-22 -167h167zM555 167h-167l-22 -167h167zM235 167h-167l-22 -167h167z" />
    <glyph glyph-name="perthousand" unicode="&#x2030;" horiz-adv-x="1399" 
d="M57 592l38 -136l140 -52l129 50l71 140l1 11l1 12v11l27 -3h21l42 3l30 5l-347 -633h138l388 708l10 75l-88 -20l-138 -12l-95 7l-82 20l-41 11l-44 4l-129 -50l-71 -140zM1231 176l-24 -53l-49 -19h-10l-47 20l-16 52l1 11l25 53l48 19h10l47 -20l16 -52zM811 176
l-24 -53l-49 -19h-10l-47 20l-16 52l1 11l25 53l48 19h10l47 -20l16 -52zM174 604l25 53l48 19h10l47 -20l16 -52l-1 -11l-24 -53l-49 -19h-10l-47 20l-16 52zM1348 188l-38 136l-140 52l-129 -50l-71 -140l-1 -11l38 -136l140 -52l129 50l71 140zM928 188l-38 136l-140 52
l-129 -50l-71 -140l-1 -11l38 -136l140 -52l129 50l71 140z" />
    <glyph glyph-name="tripleprime" unicode="&#x2034;" horiz-adv-x="628" 
d="M480 780l-34 -323h121l67 323h-154zM386 457l51 323h-139l-34 -323h122zM100 780l-17 -323h121l51 323h-155z" />
    <glyph glyph-name="guilsinglleft" unicode="&#x2039;" horiz-adv-x="316" 
d="M291 563l-236 -147l-20 -152l197 -147l18 134l-98 84l120 84z" />
    <glyph glyph-name="guilsinglright" unicode="&#x203a;" horiz-adv-x="316" 
d="M15 117l236 147l20 152l-197 147l-18 -134l98 -84l-120 -84z" />
    <glyph glyph-name="interrobang" unicode="&#x203d;" horiz-adv-x="497" 
d="M363 593l-19 -65l-43 -62l29 180l25 -21zM311 167h-167l-22 -167h167zM281 228l124 185l105 212l-44 119l-171 49l-177 -64l-76 -190l-3 -23h144l21 85l41 44l-49 -417h85z" />
    <glyph glyph-name="fraction" unicode="&#x2044;" horiz-adv-x="200" 
d="M-170 0l678 780h-134l-678 -780h134z" />
    <glyph glyph-name="uni2070" unicode="&#x2070;" 
d="M183 498l-6 -13l-12 -4h-2l-11 4l-3 13l23 174l6 13l12 4h2l11 -4l3 -13zM327 676l-30 84l-100 33l-101 -32l-43 -85l-25 -182l30 -84l100 -33l101 32l43 85z" />
    <glyph glyph-name="uni2074" unicode="&#x2074;" 
d="M170 625l-9 -64h-37zM259 390l9 68h32l13 103h-32l29 219h-114l-167 -225l-12 -97h131l-9 -68h120z" />
    <glyph glyph-name="uni2075" unicode="&#x2075;" 
d="M29 515l-1 -9l30 -94l100 -35l101 33l46 96l2 15l-18 89l-84 34l-29 -4l-20 -8l8 45h157l13 103h-255l-37 -210l99 -35l11 8l13 3h2l16 -7l4 -23l-1 -7l-7 -21l-14 -7h-2l-13 7l-1 27h-120z" />
    <glyph glyph-name="uni2076" unicode="&#x2076;" 
d="M333 793l-124 -14l-95 -58l-56 -84l-24 -90l-2 -15l21 -109l105 -46l101 33l46 96l2 15l-19 85l-68 30l-25 -3l-21 -10l9 19l14 15l52 26l71 7zM171 533l12 -6l3 -17l-1 -7l-7 -17l-13 -5h-2l-11 6l-4 20l1 10l1 5l5 6l14 5h2z" />
    <glyph glyph-name="uni2077" unicode="&#x2077;" 
d="M43 640h103l5 37h48l-161 -287h128l169 311l10 79h-284z" />
    <glyph glyph-name="uni2078" unicode="&#x2078;" 
d="M163 481l-13 7l-3 18l1 7l8 22l13 6h2l13 -6l3 -19l-1 -7l-7 -21l-14 -7h-2zM184 637l-9 6l-2 18l1 7l6 17l10 4h2l9 -6l2 -18l-1 -7l-6 -16l-10 -5h-2zM158 377l98 29l47 84l2 15l-8 54l-35 30l40 24l21 48l2 15l-22 74l-108 43l-104 -40l-35 -68l-2 -15l8 -52l28 -29
l-39 -28l-22 -52l-2 -15l30 -84z" />
    <glyph glyph-name="uni2079" unicode="&#x2079;" horiz-adv-x="299" 
d="M22 377l124 14l95 58l56 84l24 90l2 15l-21 109l-105 46l-101 -33l-46 -96l-2 -15l19 -84l68 -31l25 3l21 10l-9 -18l-14 -16l-52 -25l-71 -8zM184 637l-12 6l-3 17l1 7l7 17l13 5h2l11 -6l4 -20l-1 -10l-1 -5l-5 -5l-14 -6h-2z" />
    <glyph glyph-name="uni207A" unicode="&#x207a;" 
d="M143 717l-11 -80h-80l-13 -104h80l-11 -80h104l11 80h80l13 104h-80l11 80h-104z" />
    <glyph glyph-name="uni207B" unicode="&#x207b;" 
d="M52 637l-13 -104h264l13 104h-264z" />
    <glyph glyph-name="uni207C" unicode="&#x207c;" 
d="M44 575l-13 -104h264l13 104h-264zM60 699l-13 -104h264l13 104h-264z" />
    <glyph glyph-name="uni207D" unicode="&#x207d;" horiz-adv-x="205" 
d="M42 580l8 -111l33 -79h116l-30 81l-8 109l1 9l36 109l57 82h-126l-55 -78l-31 -113z" />
    <glyph glyph-name="uni207E" unicode="&#x207e;" horiz-adv-x="204" 
d="M217 590l-8 111l-33 79h-116l30 -81l8 -109l-1 -9l-36 -109l-57 -82h126l55 78l31 113z" />
    <glyph glyph-name="uni2080" unicode="&#x2080;" horiz-adv-x="299" 
d="M132 108l-6 -13l-12 -4h-2l-11 4l-3 13l23 174l6 13l12 4h2l11 -4l3 -13zM276 286l-30 84l-100 33l-101 -32l-43 -85l-25 -182l30 -84l100 -33l101 32l43 85z" />
    <glyph glyph-name="uni2081" unicode="&#x2081;" 
d="M241 0l13 103h-71l38 289h-89l-136 -85l48 -85l38 23l-19 -142h-72l-13 -103h263z" />
    <glyph glyph-name="uni2082" unicode="&#x2082;" horiz-adv-x="299" 
d="M254 103h-108l73 69l40 45l19 54l2 15l-22 74l-108 43l-110 -40l-37 -94l-1 -9h120l7 30l14 9h2l11 -6l2 -18l-2 -15l-6 -16l-13 -15l-158 -151l-10 -78h272z" />
    <glyph glyph-name="uni2083" unicode="&#x2083;" horiz-adv-x="299" 
d="M98 125h-120l-1 -9l30 -94l100 -35l98 29l47 84l2 15l-8 54l-35 30l40 24l21 48l2 15l-22 74l-108 43l-110 -40l-37 -94l-1 -9h120l7 30l14 9h2l11 -6l2 -18l-1 -7l-7 -16l-14 -5h-47l-12 -96h48l14 -6l3 -19l-1 -7l-7 -21l-14 -7h-2l-13 7z" />
    <glyph glyph-name="uni2084" unicode="&#x2084;" 
d="M119 235l-9 -64h-37zM208 0l9 68h32l13 103h-32l29 219h-114l-167 -225l-12 -97h131l-9 -68h120z" />
    <glyph glyph-name="uni2085" unicode="&#x2085;" 
d="M-22 125l-1 -9l30 -94l100 -35l101 33l46 96l2 15l-18 89l-84 34l-29 -4l-20 -8l8 45h157l13 103h-255l-37 -210l99 -35l11 8l13 3h2l16 -7l4 -23l-1 -7l-7 -21l-14 -7h-2l-13 7l-1 27h-120z" />
    <glyph glyph-name="uni2086" unicode="&#x2086;" 
d="M282 403l-124 -14l-95 -58l-56 -84l-24 -90l-2 -15l21 -109l105 -46l101 33l46 96l2 15l-19 85l-68 30l-25 -3l-21 -10l9 19l14 15l52 26l71 7zM120 143l12 -6l3 -17l-1 -7l-7 -17l-13 -5h-2l-11 6l-4 20l1 10l1 5l5 6l14 5h2z" />
    <glyph glyph-name="uni2087" unicode="&#x2087;" 
d="M-8 250h103l5 37h48l-161 -287h128l169 311l10 79h-284z" />
    <glyph glyph-name="uni2088" unicode="&#x2088;" horiz-adv-x="299" 
d="M112 91l-13 7l-3 18l1 7l8 22l13 6h2l13 -6l3 -19l-1 -7l-7 -21l-14 -7h-2zM133 247l-9 6l-2 18l1 7l6 17l10 4h2l9 -6l2 -18l-1 -7l-6 -16l-10 -5h-2zM107 -13l98 29l47 84l2 15l-8 54l-35 30l40 24l21 48l2 15l-22 74l-108 43l-104 -40l-35 -68l-2 -15l8 -52l28 -29
l-40 -28l-21 -52l-2 -15l30 -84z" />
    <glyph glyph-name="uni2089" unicode="&#x2089;" horiz-adv-x="298" 
d="M-29 -13l124 14l95 58l56 84l24 90l2 15l-21 109l-105 46l-101 -33l-46 -96l-2 -15l19 -84l68 -31l25 3l21 10l-9 -18l-14 -16l-52 -25l-71 -8zM133 247l-12 6l-3 17l1 7l7 17l13 5h2l11 -6l4 -20l-1 -10l-1 -5l-5 -5l-14 -6h-2z" />
    <glyph glyph-name="uni208A" unicode="&#x208a;" 
d="M92 327l-11 -80h-80l-13 -104h80l-11 -80h104l11 80h80l13 104h-80l11 80h-104z" />
    <glyph glyph-name="uni208B" unicode="&#x208b;" 
d="M1 247l-13 -104h264l13 104h-264z" />
    <glyph glyph-name="uni208C" unicode="&#x208c;" 
d="M-7 185l-13 -104h264l13 104h-264zM9 309l-13 -104h264l13 104h-264z" />
    <glyph glyph-name="uni208D" unicode="&#x208d;" horiz-adv-x="205" 
d="M-9 190l8 -111l33 -79h116l-30 81l-8 109l1 9l36 109l57 82h-126l-55 -78l-31 -113z" />
    <glyph glyph-name="uni208E" unicode="&#x208e;" horiz-adv-x="203" 
d="M166 200l-8 111l-33 79h-116l30 -81l8 -109l-1 -9l-36 -109l-57 -82h126l55 78l31 113z" />
    <glyph glyph-name="Euro" unicode="&#x20ac;" horiz-adv-x="595" 
d="M88 309l43 -247l177 -75l157 61l78 187l2 15h-138l-30 -92l-56 -30h-9l-52 47l-6 134h133l88 141h-203l41 150l68 52h9l49 -36l1 -116h138l4 32l-31 197l-163 64l-180 -81l-102 -262h-65l-19 -141h66z" />
    <glyph glyph-name="ruble" unicode="&#x20bd;" horiz-adv-x="596" 
d="M254 420l30 220h51l65 -20l23 -86l-2 -15l-45 -81l-69 -18h-53zM400 101l18 140h-186l5 39h55l183 41l109 194l3 23l-55 193l-178 49h-214l-47 -360h-71l-18 -140h70l-5 -39h-70l-18 -140h70l-13 -101h162l13 101h187z" />
    <glyph glyph-name="numero" unicode="&#x2116;" horiz-adv-x="1123" 
d="M1060 181l16 119h-364l-16 -119h364zM982 571l-20 -58l-38 -18l-42 19l-6 57l4 29l20 58l38 18l42 -19l6 -57zM913 376l141 54l65 141l4 29l-37 141l-137 54l-141 -54l-65 -141l-4 -29l37 -141zM109 780l-102 -780h155l42 322l17 162l188 -484h169l102 780h-155l-42 -322
l-17 -162l-188 484h-169z" />
    <glyph glyph-name="published" unicode="&#x2117;" horiz-adv-x="920" 
d="M414 411v110h71l37 -10l17 -42v-6l-17 -42l-37 -10h-71zM414 307h103l111 30l53 123v12l-53 123l-111 30h-243v-470h140v152zM113 390l102 246l245 101l246 -101l101 -246l-101 -245l-246 -102l-245 102zM57 390l118 -285l285 -118l285 118l118 285l-118 285l-285 118
l-285 -118z" />
    <glyph glyph-name="servicemark" unicode="&#x2120;" horiz-adv-x="559" 
d="M454 691l-2 -60v-101h64v270h-96l-41 -159l-42 159h-95v-270h64v101l-2 60l41 -161h68zM103 638l37 -11l9 -21v-2l-7 -19l-25 -9h-3l-29 12l-9 35h-63v-2l25 -76l76 -25l75 23l26 63v5l-22 58l-68 24l-35 11l-10 21v2l8 18l22 7h4l28 -12l8 -38h63v7l-24 75l-75 25
l-74 -23l-25 -62v-4l22 -58z" />
    <glyph glyph-name="trademark" unicode="&#x2122;" horiz-adv-x="559" 
d="M454 691l-2 -60v-101h64v270h-96l-41 -159l-42 159h-95v-270h64v101l-2 60l41 -161h68zM147 744h67v56h-197v-56h66v-214h64v214z" />
    <glyph glyph-name="uni2153" unicode="&#x2153;" horiz-adv-x="800" 
d="M598 125h-120l-1 -9l30 -94l100 -35l98 29l47 84l2 15l-8 54l-35 30l40 24l21 48l2 15l-22 74l-108 43l-110 -40l-37 -94l-1 -9h120l7 30l14 9h2l11 -6l2 -18l-1 -7l-7 -16l-14 -5h-47l-12 -96h48l14 -6l3 -19l-1 -7l-7 -21l-14 -7h-2l-13 7zM130 0l678 780h-134
l-678 -780h134zM292 390l13 103h-71l38 289h-89l-136 -85l48 -85l38 23l-19 -142h-72l-13 -103h263z" />
    <glyph glyph-name="uni2154" unicode="&#x2154;" horiz-adv-x="800" 
d="M598 125h-120l-1 -9l30 -94l100 -35l98 29l47 84l2 15l-8 54l-35 30l40 24l21 48l2 15l-22 74l-108 43l-110 -40l-37 -94l-1 -9h120l7 30l14 9h2l11 -6l2 -18l-1 -7l-7 -16l-14 -5h-47l-12 -96h48l14 -6l3 -19l-1 -7l-7 -21l-14 -7h-2l-13 7zM130 0l678 780h-134
l-678 -780h134zM305 493h-108l73 69l40 45l19 54l2 15l-22 74l-108 43l-110 -40l-37 -94l-1 -9h120l7 30l14 9h2l11 -6l2 -18l-2 -15l-6 -16l-13 -15l-158 -151l-10 -78h272z" />
    <glyph glyph-name="uni2155" unicode="&#x2155;" horiz-adv-x="800" 
d="M478 125l-1 -9l30 -94l100 -35l101 33l46 96l2 15l-18 89l-84 34l-29 -4l-20 -8l8 45h157l13 103h-255l-37 -210l99 -35l11 8l13 3h2l16 -7l4 -23l-1 -7l-7 -21l-14 -7h-2l-13 7l-1 27h-120zM130 0l678 780h-134l-678 -780h134zM292 390l13 103h-71l38 289h-89l-136 -85
l48 -85l38 23l-19 -142h-72l-13 -103h263z" />
    <glyph glyph-name="uni2156" unicode="&#x2156;" horiz-adv-x="800" 
d="M478 125l-1 -9l30 -94l100 -35l101 33l46 96l2 15l-18 89l-84 34l-29 -4l-20 -8l8 45h157l13 103h-255l-37 -210l99 -35l11 8l13 3h2l16 -7l4 -23l-1 -7l-7 -21l-14 -7h-2l-13 7l-1 27h-120zM130 0l678 780h-134l-678 -780h134zM305 493h-108l73 69l40 45l19 54l2 15
l-22 74l-108 43l-110 -40l-37 -94l-1 -9h120l7 30l14 9h2l11 -6l2 -18l-2 -15l-6 -16l-13 -15l-158 -151l-10 -78h272z" />
    <glyph glyph-name="uni2157" unicode="&#x2157;" horiz-adv-x="800" 
d="M478 125l-1 -9l30 -94l100 -35l101 33l46 96l2 15l-18 89l-84 34l-29 -4l-20 -8l8 45h157l13 103h-255l-37 -210l99 -35l11 8l13 3h2l16 -7l4 -23l-1 -7l-7 -21l-14 -7h-2l-13 7l-1 27h-120zM130 0l678 780h-134l-678 -780h134zM149 515h-120l-1 -9l30 -94l100 -35l98 29
l47 84l2 15l-8 54l-35 30l40 24l21 48l2 15l-22 74l-108 43l-110 -40l-37 -94l-1 -9h120l7 30l14 9h2l11 -6l2 -18l-1 -7l-7 -16l-14 -5h-47l-12 -96h48l14 -6l3 -19l-1 -7l-7 -21l-14 -7h-2l-13 7z" />
    <glyph glyph-name="uni2158" unicode="&#x2158;" horiz-adv-x="800" 
d="M478 125l-1 -9l30 -94l100 -35l101 33l46 96l2 15l-18 89l-84 34l-29 -4l-20 -8l8 45h157l13 103h-255l-37 -210l99 -35l11 8l13 3h2l16 -7l4 -23l-1 -7l-7 -21l-14 -7h-2l-13 7l-1 27h-120zM130 0l678 780h-134l-678 -780h134zM170 625l-9 -64h-37zM259 390l9 68h32
l13 103h-32l29 219h-114l-167 -225l-12 -97h131l-9 -68h120z" />
    <glyph glyph-name="uni2159" unicode="&#x2159;" horiz-adv-x="800" 
d="M782 403l-124 -14l-95 -58l-56 -84l-24 -90l-2 -15l21 -109l105 -46l101 33l46 96l2 15l-19 85l-68 30l-25 -3l-21 -10l9 19l14 15l52 26l71 7zM620 143l12 -6l3 -17l-1 -7l-7 -17l-13 -5h-2l-11 6l-4 20l1 10l1 5l5 6l14 5h2zM130 0l678 780h-134l-678 -780h134z
M292 390l13 103h-71l38 289h-89l-136 -85l48 -85l38 23l-19 -142h-72l-13 -103h263z" />
    <glyph glyph-name="uni215A" unicode="&#x215a;" horiz-adv-x="800" 
d="M782 403l-124 -14l-95 -58l-56 -84l-24 -90l-2 -15l21 -109l105 -46l101 33l46 96l2 15l-19 85l-68 30l-25 -3l-21 -10l9 19l14 15l52 26l71 7zM620 143l12 -6l3 -17l-1 -7l-7 -17l-13 -5h-2l-11 6l-4 20l1 10l1 5l5 6l14 5h2zM130 0l678 780h-134l-678 -780h134zM29 515
l-1 -9l30 -94l100 -35l101 33l46 96l2 15l-18 89l-84 34l-29 -4l-20 -8l8 45h157l13 103h-255l-37 -210l99 -35l11 8l13 3h2l16 -7l4 -23l-1 -7l-7 -21l-14 -7h-2l-13 7l-1 27h-120z" />
    <glyph glyph-name="uni215B" unicode="&#x215b;" horiz-adv-x="800" 
d="M612 91l-13 7l-3 18l1 7l8 22l13 6h2l13 -6l3 -19l-1 -7l-7 -21l-14 -7h-2zM633 247l-9 6l-2 18l1 7l6 17l10 4h2l9 -6l2 -18l-1 -7l-6 -16l-10 -5h-2zM607 -13l98 29l47 84l2 15l-8 54l-35 30l40 24l21 48l2 15l-22 74l-108 43l-104 -40l-35 -68l-2 -15l8 -52l28 -29
l-39 -28l-22 -52l-2 -15l30 -84zM130 0l678 780h-134l-678 -780h134zM292 390l13 103h-71l38 289h-89l-136 -85l48 -85l38 23l-19 -142h-72l-13 -103h263z" />
    <glyph glyph-name="uni215C" unicode="&#x215c;" horiz-adv-x="800" 
d="M612 91l-13 7l-3 18l1 7l8 22l13 6h2l13 -6l3 -19l-1 -7l-7 -21l-14 -7h-2zM633 247l-9 6l-2 18l1 7l6 17l10 4h2l9 -6l2 -18l-1 -7l-6 -16l-10 -5h-2zM607 -13l98 29l47 84l2 15l-8 54l-35 30l40 24l21 48l2 15l-22 74l-108 43l-104 -40l-35 -68l-2 -15l8 -52l28 -29
l-39 -28l-22 -52l-2 -15l30 -84zM130 0l678 780h-134l-678 -780h134zM149 515h-120l-1 -9l30 -94l100 -35l98 29l47 84l2 15l-8 54l-35 30l40 24l21 48l2 15l-22 74l-108 43l-110 -40l-37 -94l-1 -9h120l7 30l14 9h2l11 -6l2 -18l-1 -7l-7 -16l-14 -5h-47l-12 -96h48l14 -6
l3 -19l-1 -7l-7 -21l-14 -7h-2l-13 7z" />
    <glyph glyph-name="uni215D" unicode="&#x215d;" horiz-adv-x="800" 
d="M612 91l-13 7l-3 18l1 7l8 22l13 6h2l13 -6l3 -19l-1 -7l-7 -21l-14 -7h-2zM633 247l-9 6l-2 18l1 7l6 17l10 4h2l9 -6l2 -18l-1 -7l-6 -16l-10 -5h-2zM607 -13l98 29l47 84l2 15l-8 54l-35 30l40 24l21 48l2 15l-22 74l-108 43l-104 -40l-35 -68l-2 -15l8 -52l28 -29
l-39 -28l-22 -52l-2 -15l30 -84zM130 0l678 780h-134l-678 -780h134zM29 515l-1 -9l30 -94l100 -35l101 33l46 96l2 15l-18 89l-84 34l-29 -4l-20 -8l8 45h157l13 103h-255l-37 -210l99 -35l11 8l13 3h2l16 -7l4 -23l-1 -7l-7 -21l-14 -7h-2l-13 7l-1 27h-120z" />
    <glyph glyph-name="uni215E" unicode="&#x215e;" horiz-adv-x="800" 
d="M612 91l-13 7l-3 18l1 7l8 22l13 6h2l13 -6l3 -19l-1 -7l-7 -21l-14 -7h-2zM633 247l-9 6l-2 18l1 7l6 17l10 4h2l9 -6l2 -18l-1 -7l-6 -16l-10 -5h-2zM607 -13l98 29l47 84l2 15l-8 54l-35 30l40 24l21 48l2 15l-22 74l-108 43l-104 -40l-35 -68l-2 -15l8 -52l28 -29
l-39 -28l-22 -52l-2 -15l30 -84zM130 0l678 780h-134l-678 -780h134zM43 640h103l5 37h48l-161 -287h128l169 311l10 79h-284z" />
    <glyph glyph-name="uni215F" unicode="&#x215f;" horiz-adv-x="500" 
d="M130 0l678 780h-134l-678 -780h134zM292 390l13 103h-71l38 289h-89l-136 -85l48 -85l38 23l-19 -142h-72l-13 -103h263z" />
    <glyph glyph-name="arrowleft" unicode="&#x2190;" horiz-adv-x="920" 
d="M447 780l-390 -390l390 -390h198l-320 320h525v140h-525l320 320h-198z" />
    <glyph glyph-name="arrowup" unicode="&#x2191;" horiz-adv-x="920" 
d="M70 205l320 320v-525h140v525l320 -320v198l-390 390l-390 -390v-198z" />
    <glyph glyph-name="arrowright" unicode="&#x2192;" horiz-adv-x="920" 
d="M275 780l320 -320h-525v-140h525l-320 -320h198l390 390l-390 390h-198z" />
    <glyph glyph-name="arrowdown" unicode="&#x2193;" horiz-adv-x="920" 
d="M70 377l390 -390l390 390v198l-320 -320v525h-140v-525l-320 320v-198z" />
    <glyph glyph-name="uni2196" unicode="&#x2196;" horiz-adv-x="920" 
d="M211 0v540l553 -554l100 100l-554 553h540v141h-780v-780h141z" />
    <glyph glyph-name="uni2197" unicode="&#x2197;" horiz-adv-x="920" 
d="M70 639h540l-554 -553l100 -100l553 554v-540h141v780h-780v-141z" />
    <glyph glyph-name="uni2198" unicode="&#x2198;" horiz-adv-x="920" 
d="M70 0h780v780h-141v-540l-553 554l-100 -100l554 -553h-540v-141z" />
    <glyph glyph-name="uni2199" unicode="&#x2199;" horiz-adv-x="920" 
d="M850 141h-540l554 553l-100 100l-553 -554v540h-141v-780h780v141z" />
    <glyph glyph-name="minus" unicode="&#x2212;" horiz-adv-x="600" 
d="M34 320h516l18 140h-516z" />
    <glyph glyph-name="approxequal" unicode="&#x2248;" horiz-adv-x="600" 
d="M176 374l-99 -29l-63 -66l64 -74l37 31l61 17l97 -32l123 -33l99 29l63 66l-64 74l-37 -31l-63 -17l-95 33zM205 590l-99 -29l-63 -66l64 -74l37 31l61 17l97 -32l123 -33l99 29l63 66l-64 74l-37 -31l-63 -17l-95 33z" />
    <glyph glyph-name="notequal" unicode="&#x2260;" horiz-adv-x="600" 
d="M565 673h-115l-76 -104h-308l-18 -140h224l-57 -78h-177l-18 -140h93l-76 -104h115l76 104h308l18 140h-224l57 78h177l18 140h-93z" />
    <glyph glyph-name="equivalence" unicode="&#x2261;" horiz-adv-x="600" 
d="M6 102h516l18 140h-516zM34 320h516l18 140h-516zM62 538h516l18 140h-516z" />
    <glyph glyph-name="lessequal" unicode="&#x2264;" horiz-adv-x="600" 
d="M531 175l-495 161l-12 -91l495 -161zM579 543l20 154l-537 -161l-20 -153l495 -161l20 152l-276 85z" />
    <glyph glyph-name="greaterequal" unicode="&#x2265;" horiz-adv-x="600" 
d="M552 336l-537 -161l-12 -90l537 161zM41 376l-20 -154l537 161l20 153l-495 161l-20 -152l276 -85z" />
    <glyph glyph-name="squaremultiply" unicode="&#x22a0;" horiz-adv-x="920" 
d="M338 168l122 122l122 -122h100v100l-122 122l122 122v100h-100l-122 -122l-122 122h-100v-100l122 -122l-122 -122v-100h100zM711 641v-502h-502v502h502zM70 780v-780h780v780h-780z" />
    <glyph glyph-name="house" unicode="&#x2302;" horiz-adv-x="850" 
d="M780 0v450l-355 340l-355 -340v-450h710z" />
    <glyph glyph-name="whitesquare" unicode="&#x25a1;" horiz-adv-x="920" 
d="M711 641v-502h-502v502h502zM850 0v780h-780v-780h780z" />
    <glyph glyph-name="blacksmallsquare" unicode="&#x25aa;" horiz-adv-x="680" 
d="M600 0v530h-530v-530h530z" />
    <glyph glyph-name="whitesmallsquare" unicode="&#x25ab;" horiz-adv-x="680" 
d="M461 391v-252h-252v252h252zM70 530v-530h530v530h-530z" />
    <glyph glyph-name="triagup" unicode="&#x25b2;" horiz-adv-x="930" 
d="M542 793h-154l-326 -793h156l247 617l247 -617h156z" />
    <glyph glyph-name="triagrt" unicode="&#x25ba;" horiz-adv-x="930" 
d="M873 467l-793 326v-156l617 -247l-617 -247v-156l793 326v154z" />
    <glyph glyph-name="triagdn" unicode="&#x25bc;" horiz-adv-x="930" 
d="M388 -13h154l326 793h-156l-247 -618l-247 618h-156z" />
    <glyph glyph-name="triaglf" unicode="&#x25c4;" horiz-adv-x="930" 
d="M57 467v-154l793 -326v156l-618 247l618 247v156z" />
    <glyph glyph-name="blackcircle" unicode="&#x25cf;" horiz-adv-x="920" 
d="M57 390l118 -285l285 -118l285 118l118 285l-118 285l-285 118l-285 -118z" />
    <glyph glyph-name="uni25E2" unicode="&#x25e2;" horiz-adv-x="930" 
d="M906 54l-329 791l-111 -110l261 -611l-611 262l-109 -111l791 -330l54 54z" />
    <glyph glyph-name="uni25E3" unicode="&#x25e3;" horiz-adv-x="930" 
d="M78 -1l54 -54l791 330l-109 111l-612 -262l262 611l-111 110l-329 -791z" />
    <glyph glyph-name="uni25E4" unicode="&#x25e4;" horiz-adv-x="930" 
d="M24 728l329 -791l111 109l-262 611l612 -261l109 111l-791 329z" />
    <glyph glyph-name="uni25E5" unicode="&#x25e5;" horiz-adv-x="930" 
d="M906 728l-108 108l-791 -329l109 -111l611 261l-261 -611l111 -109z" />
    <glyph glyph-name="whitecircle" unicode="&#x25ef;" horiz-adv-x="920" 
d="M196 390l77 187l187 77l187 -77l77 -187l-77 -187l-187 -77l-187 77zM57 390l118 -285l285 -118l285 118l118 285l-118 285l-285 118l-285 -118z" />
    <glyph glyph-name="uni2605" unicode="&#x2605;" horiz-adv-x="880" 
d="M440 180l260 -190l-99 307l260 189h-322l-99 306l-99 -306h-322l260 -189l-99 -307z" />
    <glyph glyph-name="ballotboxwithx" unicode="&#x2612;" horiz-adv-x="680" 
d="M432 168v194h-194v-194h194zM461 391v-252h-252v252h252zM70 530v-530h530v530h-530z" />
    <glyph glyph-name="uni263C" unicode="&#x263c;" horiz-adv-x="960" 
d="M521 191l21 -32l17 -64l20 -50l49 -21l15 2l13 6l-24 9l-24 50l4 31l4 31l-12 47l-14 19l172 -113l-113 172l46 -10l49 -31l24 -16l27 -5l38 11l24 35l-10 -6l-25 -6l-43 22l-35 46l-42 25l-24 4l202 42l-202 42l32 21l64 17l51 20l20 49l-2 15l-6 13l-9 -24l-50 -24
l-31 4l-31 4l-47 -12l-19 -14l113 172l-172 -113l10 46l31 49l16 24l5 27l-11 38l-35 24l6 -10l6 -25l-22 -43l-46 -35l-25 -42l-4 -24l-42 202l-42 -202l-21 32l-17 64l-20 51l-49 20l-15 -2l-13 -6l24 -9l24 -50l-4 -31l-4 -31l12 -47l14 -19l-172 113l113 -172l-46 10
l-49 31l-24 16l-27 5l-38 -11l-24 -35l10 6l25 6l43 -22l35 -46l42 -25l24 -4l-202 -42l202 -42l-32 -21l-64 -17l-50 -20l-21 -49l2 -15l6 -13l9 24l50 24l31 -4l31 -4l47 12l19 14l-113 -172l172 113l-10 -46l-31 -49l-16 -24l-5 -27l11 -38l35 -24l-6 10l-6 25l22 43
l46 35l25 42l4 24l42 -202z" />
    <glyph glyph-name="uni263E" unicode="&#x263e;" horiz-adv-x="960" 
d="M624 728l49 -4l47 -11l-112 57l-128 20l-283 -117l-117 -283l117 -283l283 -117l128 20l112 57l-47 -11l-49 -4l-229 99l-95 239l95 239z" />
    <glyph glyph-name="spade" unicode="&#x2660;" horiz-adv-x="900" 
d="M451 790h-2l-89 -108l-144 -122l-115 -95l-49 -131l51 -124l125 -50l124 49l76 112l3 -1l-26 -173l-56 -147h202l-56 147l-26 173l3 1l76 -112l124 -49l125 50l51 124l-49 131l-115 95l-144 122z" />
    <glyph glyph-name="club" unicode="&#x2663;" horiz-adv-x="900" 
d="M349 0h202l-56 147l-26 173l3 1l76 -112l124 -49l125 50l51 124l-48 129l-126 51l-46 -7l-38 -16l-2 2l27 54l11 63l-50 127l-126 53l-126 -53l-50 -127l11 -63l27 -54l-2 -2l-38 16l-46 7l-126 -51l-48 -129l51 -124l125 -50l124 49l76 112l3 -1l-26 -173z" />
    <glyph glyph-name="heart" unicode="&#x2665;" horiz-adv-x="900" 
d="M451 -10l89 120l144 173l108 141l56 160l-51 147l-140 59l-138 -47l-67 -110h-4l-67 110l-138 47l-140 -59l-51 -147l56 -160l108 -141l144 -173l89 -120h2z" />
    <glyph glyph-name="diamond" unicode="&#x2666;" horiz-adv-x="900" 
d="M817 390l-203 189l-163 211h-2l-163 -211l-203 -189l203 -189l163 -211h2l163 211z" />
    <glyph glyph-name="uni267B" unicode="&#x267b;" horiz-adv-x="959" 
d="M806 527l-149 -86l116 -201l72 37l40 89l-3 25l-7 19zM446 41v173h-232l-5 -81l58 -79l24 -10l20 -3h135zM200 598l150 -86l116 201l-68 45l-97 -10l-21 -15l-13 -16zM404 779l34 -9l57 -48l72 -125l-41 -24l173 -31l61 166l-43 -24l-28 49l-41 40l-51 7h-193v-1z
M186 122l-9 35l13 73l37 64l35 61l41 -24l-59 166l-174 -31l42 -24l-28 -49l-14 -56l18 -47l96 -168h2zM863 266l-25 -26l-70 -26h-145v49l-113 -135l113 -136v49h57l56 16l32 40l96 167z" />
    <glyph glyph-name="uni267C" unicode="&#x267c;" horiz-adv-x="960" 
d="M64 390l116 -280l280 -116l280 116l116 280l-116 280l-280 116l-280 -116zM755 294l-75 -130l-24 -30l-44 -13h-44v-38l-88 105l88 105v-38h112l54 20l20 20zM763 407l6 -14l2 -20l-31 -69l-56 -29l-90 156l116 67zM228 184l-75 130l-14 36l11 44l22 38l-33 19l135 24
l46 -129l-32 19l-56 -97l-10 -57l7 -27h-1zM322 121l-15 2l-19 8l-44 61l3 63h180v-134h-105zM394 694h150l39 -5l32 -32l22 -38l33 19l-47 -129l-134 24l32 19l-56 97l-44 37l-27 7v1zM292 645l10 12l16 12l75 8l53 -35l-90 -156l-116 67z" />
    <glyph glyph-name="uni267D" unicode="&#x267d;" horiz-adv-x="960" 
d="M98 390l106 256l256 106l256 -106l106 -256l-106 -256l-256 -106l-256 106zM60 390l117 -283l283 -117l283 117l117 283l-117 283l-283 117l-283 -117zM754 295l-20 -20l-54 -20h-112v38l-88 -105l88 -105v38h44l44 13l24 30l75 130zM710 498l-116 -67l90 -156l56 29
l31 69l-2 20l-6 14zM229 184l-7 27l10 57l56 97l32 -19l-46 129l-135 -24l33 -19l-22 -38l-11 -44l14 -36l75 -130h1zM427 121v134h-180l-3 -63l44 -61l19 -8l15 -2h105zM394 693l27 -7l44 -37l56 -97l-32 -19l134 -24l47 129l-33 -19l-22 38l-32 32l-39 5h-150v-1zM240 553
l116 -67l90 156l-53 35l-75 -8l-16 -12l-10 -12z" />
    <glyph glyph-name="mediumwhitecircle" unicode="&#x26aa;" horiz-adv-x="670" 
d="M196 265l41 98l98 41l98 -41l41 -98l-41 -98l-98 -41l-98 41zM57 265l81 -197l197 -81l197 81l81 197l-81 197l-197 81l-197 -81z" />
    <glyph glyph-name="mediumblackcircle" unicode="&#x26ab;" horiz-adv-x="670" 
d="M57 265l81 -197l197 -81l197 81l81 197l-81 197l-197 81l-197 -81z" />
    <glyph glyph-name="anglebracketleft" unicode="&#x3008;" horiz-adv-x="365" 
d="M408 840h-163l-225 -480l99 -480h163l-99 480z" />
    <glyph glyph-name="anglebracketright" unicode="&#x3009;" horiz-adv-x="365" 
d="M-47 -120h163l225 480l-99 480h-163l99 -480z" />
    <glyph glyph-name="fi" unicode="&#xe38c;" horiz-adv-x="677" 
d="M679 772h-167l-22 -167h167zM416 0h158l69 530h-158zM288 606l29 58l55 13l33 -3l17 -4l17 130l-28 8l-59 5l-148 -43l-72 -147l-12 -93h-82l-18 -138h82l-51 -392h158l51 392h116l18 138h-116z" />
    <glyph glyph-name="fl" unicode="&#xe38d;" horiz-adv-x="677" 
d="M416 0h158l105 800h-158zM288 606l29 58l55 13l33 -3l17 -4l17 130l-28 8l-59 5l-148 -43l-72 -147l-12 -93h-82l-18 -138h82l-51 -392h158l51 392h116l18 138h-116z" />
    <glyph glyph-name="invertedbreve" unicode="&#xe411;" horiz-adv-x="496" 
d="M305 794l-154 -56l-59 -142h115l29 61l55 17l51 -17l13 -61h111l-22 142z" />
    <glyph glyph-name="doublegrave" unicode="&#xe412;" horiz-adv-x="500" 
d="M55 780l83 -184h123l-67 184h-139zM238 780l60 -184h123l-43 184h-140z" />
    <glyph glyph-name="caronSlovak" unicode="&#xe413;" horiz-adv-x="500" 
d="M362 800l-27 -204h70l52 204h-95z" />
    <glyph glyph-name="dotbelow" unicode="&#xe415;" horiz-adv-x="602" 
d="M99 -200h151l20 151h-151z" />
    <glyph glyph-name="altcedilla" unicode="&#xe416;" horiz-adv-x="602" 
d="M306 -118l-28 59l-75 19l-40 -3l-29 -7l-7 -53l21 5l28 3l34 -5l11 -16l-11 -18l-35 -7l-43 5l-31 12l-32 -66l41 -17l70 -8l91 26z" />
    <glyph glyph-name="grave.cap" unicode="&#xe421;" horiz-adv-x="500" 
d="M184 950l49 -110h156l-40 110h-165z" />
    <glyph glyph-name="acute.cap" unicode="&#xe422;" horiz-adv-x="500" 
d="M303 950l-70 -110h156l79 110h-165z" />
    <glyph glyph-name="circumflex.cap" unicode="&#xe423;" horiz-adv-x="500" 
d="M515 840l-109 110h-160l-139 -110h145l67 50l57 -50h139z" />
    <glyph glyph-name="tilde.cap" unicode="&#xe424;" horiz-adv-x="500" 
d="M425 947l-12 -26l-25 -7l-64 24l-84 24l-74 -26l-40 -93h85l13 26l24 7l64 -24l84 -24l74 27l40 92h-85z" />
    <glyph glyph-name="macron.cap" unicode="&#xe425;" horiz-adv-x="500" 
d="M163 847h298l13 96h-298z" />
    <glyph glyph-name="breve.cap" unicode="&#xe426;" horiz-adv-x="500" 
d="M314 825l149 37l46 88h-111l-22 -30l-58 -10l-52 10l-16 30h-107l29 -88z" />
    <glyph glyph-name="invertedbreve.cap" unicode="&#xe427;" horiz-adv-x="499" 
d="M323 965l-149 -37l-46 -88h111l22 30l58 10l52 -10l16 -30h107l-28 88z" />
    <glyph glyph-name="dotaccent.cap" unicode="&#xe428;" horiz-adv-x="500" 
d="M391 945h-133l-13 -100h133z" />
    <glyph glyph-name="dieresis.cap" unicode="&#xe429;" horiz-adv-x="500" 
d="M479 945h-133l-13 -100h133zM304 945h-133l-13 -100h133z" />
    <glyph glyph-name="ring.cap" unicode="&#xe42a;" horiz-adv-x="500" 
d="M364 863l-16 -40l-41 -16l-33 13l-13 33l17 40l40 16l33 -13zM419 870l-27 66l-69 27l-82 -33l-35 -84l27 -66l69 -27l83 33z" />
    <glyph glyph-name="hungarumlaut.cap" unicode="&#xe42b;" horiz-adv-x="500" 
d="M394 950l-69 -110h139l79 110h-149zM219 950l-61 -110h139l71 110h-149z" />
    <glyph glyph-name="doublegrave.cap" unicode="&#xe42c;" horiz-adv-x="500" 
d="M109 950l49 -110h139l-39 110h-149zM284 950l41 -110h139l-31 110h-149z" />
    <glyph glyph-name="caron.cap" unicode="&#xe42d;" horiz-adv-x="500" 
d="M122 950l109 -110h160l139 110h-145l-67 -50l-57 50h-139z" />
    <glyph glyph-name="commaaccent.cap" unicode="&#xe42e;" horiz-adv-x="500" 
d="M244 840h134l8 60h-76l34 24l51 5l5 40l-107 -23l-46 -81z" />
    <glyph glyph-name="exclamdown.cap" unicode="&#xe441;" horiz-adv-x="265" 
d="M80 613h167l22 167h-167zM182 0l30 552h-112l-114 -552h196z" />
    <glyph glyph-name="questiondown.cap" unicode="&#xe444;" horiz-adv-x="497" 
d="M199 613h167l22 167h-167zM210 126l-45 15l-13 41l90 158l89 212h-112l-124 -185l-105 -212l44 -118l171 -50l177 64l76 190l3 23h-159l-30 -106z" />
    <glyph glyph-name="guilsinglleft.cap" unicode="&#xe451;" horiz-adv-x="316" 
d="M297 613l-236 -147l-20 -152l197 -147l18 134l-98 84l120 84z" />
    <glyph glyph-name="guilsinglright.cap" unicode="&#xe452;" horiz-adv-x="316" 
d="M21 167l236 147l20 152l-197 147l-18 -134l98 -84l-120 -84z" />
    <glyph glyph-name="guillemotleft.cap" unicode="&#xe453;" horiz-adv-x="565" 
d="M547 613l-236 -147l-20 -152l197 -147l18 134l-98 84l120 84zM297 613l-236 -147l-20 -152l197 -147l18 134l-98 84l120 84z" />
    <glyph glyph-name="guillemotright.cap" unicode="&#xe454;" horiz-adv-x="565" 
d="M21 167l236 147l20 152l-197 147l-18 -134l98 -84l-120 -84zM271 167l236 147l20 152l-197 147l-18 -134l98 -84l-120 -84z" />
    <glyph glyph-name="slash.cap" unicode="&#xe461;" horiz-adv-x="381" 
d="M123 0l294 780h-154l-294 -780h154z" />
    <glyph glyph-name="backslash.cap" unicode="&#xe462;" horiz-adv-x="381" 
d="M71 780l90 -780h154l-90 780h-154z" />
    <glyph glyph-name="bar.cap" unicode="&#xe463;" horiz-adv-x="261" 
d="M5 0h154l102 780h-154z" />
    <glyph glyph-name="doublebar.cap" unicode="&#xe464;" horiz-adv-x="459" 
d="M202 0h154l102 780h-154zM5 0h154l102 780h-154z" />
    <glyph glyph-name="brokenbar.cap" unicode="&#xe465;" horiz-adv-x="261" 
d="M5 0h154l48 366h-154zM59 414h154l48 366h-154z" />
    <glyph glyph-name="bullet.cap" unicode="&#xe466;" horiz-adv-x="445" 
d="M406 551h-321l-42 -322h321z" />
    <glyph glyph-name="onethirdemdash" unicode="&#xe471;" horiz-adv-x="333" 
d="M280 281l18 138h-253l-18 -138h253z" />
    <glyph glyph-name="threequarteremdash" unicode="&#xe472;" horiz-adv-x="750" 
d="M27 281h670l18 138h-670z" />
    <glyph glyph-name="periodcentered.cap" unicode="&#xe481;" horiz-adv-x="266" 
d="M230 474h-167l-22 -167h167z" />
    <glyph glyph-name="hyphen.cap" unicode="&#xe482;" horiz-adv-x="320" 
d="M32 321h273l18 138h-273z" />
    <glyph glyph-name="onethirdemdash.cap" unicode="&#xe483;" horiz-adv-x="333" 
d="M285 321l18 138h-253l-18 -138h253z" />
    <glyph glyph-name="endash.cap" unicode="&#xe484;" horiz-adv-x="500" 
d="M32 321h420l18 138h-420z" />
    <glyph glyph-name="threequarteremdash.cap" unicode="&#xe485;" horiz-adv-x="750" 
d="M32 321h670l18 138h-670z" />
    <glyph glyph-name="emdash.cap" unicode="&#xe486;" horiz-adv-x="1000" 
d="M32 321h920l18 138h-920z" />
    <glyph glyph-name="figuredash.cap" unicode="&#xe487;" horiz-adv-x="600" 
d="M32 321h520l18 138h-520z" />
    <glyph glyph-name="uni2015.cap" unicode="&#xe488;" horiz-adv-x="1200" 
d="M32 321h1120l18 138h-1120z" />
    <glyph glyph-name="parenleft.cap" unicode="&#xe491;" horiz-adv-x="365" 
d="M45 375l14 -220l61 -155h163l-61 159l-18 216l3 29l67 216l111 160h-163l-111 -152l-63 -224z" />
    <glyph glyph-name="parenright.cap" unicode="&#xe492;" horiz-adv-x="361" 
d="M324 405l-13 220l-62 155h-163l61 -159l18 -216l-3 -29l-67 -216l-111 -160h163l111 152l63 224z" />
    <glyph glyph-name="bracketleft.cap" unicode="&#xe493;" horiz-adv-x="365" 
d="M111 780l-102 -780h274l18 138h-117l66 504h117l18 138h-274z" />
    <glyph glyph-name="bracketright.cap" unicode="&#xe494;" horiz-adv-x="365" 
d="M258 0l102 780h-274l-18 -138h117l-66 -504h-117l-18 -138h274z" />
    <glyph glyph-name="braceleft.cap" unicode="&#xe495;" horiz-adv-x="365" 
d="M385 780h-27l-155 -39l-74 -139l-8 -61l-27 -64l-59 -18l-18 -138l53 -17l12 -57l-9 -69l42 -140l141 -38h27l18 138l-55 18l-10 67l7 51l-6 73l-43 43l54 43l25 73l8 60l28 60l58 16z" />
    <glyph glyph-name="braceright.cap" unicode="&#xe496;" horiz-adv-x="365" 
d="M-16 0h27l155 39l74 139l8 61l27 64l59 18l18 138l-53 17l-12 57l9 69l-42 140l-141 38h-27l-18 -138l55 -18l10 -67l-7 -51l7 -73l42 -43l-54 -43l-25 -73l-8 -60l-28 -60l-58 -16z" />
    <glyph glyph-name="anglebracketleft.cap" unicode="&#xe497;" horiz-adv-x="365" 
d="M380 780h-163l-188 -390l86 -390h163l-86 390z" />
    <glyph glyph-name="anglebracketright.cap" unicode="&#xe498;" horiz-adv-x="365" 
d="M-10 0h163l188 390l-86 390h-163l86 -390z" />
    <glyph glyph-name="lowline" unicode="&#xe511;" horiz-adv-x="320" 
d="M-7 0h236l18 138h-236z" />
    <glyph glyph-name="underscoremonospace" unicode="&#xe512;" horiz-adv-x="600" 
d="M-32 -185h516l18 138h-516z" />
    <glyph glyph-name="at.cap" unicode="&#xe513;" horiz-adv-x="986" 
d="M576 474l-21 -158l-34 -31l-56 -16l-60 29l-10 80l5 38l30 78l65 27l54 -16zM477 -10l-270 98l-76 290l5 38l136 282l275 92h10l233 -61l85 -229l-5 -38l-58 -158l-127 -42l30 231l26 137h-122l-16 -59l-49 52l-86 20l-145 -63l-67 -164l-5 -38l25 -166l137 -65l81 20
l60 52l3 -59h95l208 61l115 241l5 38l-104 299l-324 94l-344 -120l-177 -357l-5 -38l99 -361l357 -130l173 25l208 106l-52 82l-152 -81l-172 -29h-10z" />
    <glyph glyph-name="zero.inf" unicode="&#xe571;" horiz-adv-x="299" 
d="M106 -92l-6 -13l-12 -4h-2l-11 4l-3 13l23 174l6 13l12 4h2l11 -4l3 -13zM250 86l-30 84l-100 33l-101 -32l-43 -85l-25 -182l30 -84l100 -33l101 32l43 85z" />
    <glyph glyph-name="one.inf" unicode="&#xe572;" 
d="M215 -200l13 103h-71l38 289h-89l-136 -85l48 -85l38 23l-19 -142h-72l-13 -103h263z" />
    <glyph glyph-name="two.inf" unicode="&#xe573;" horiz-adv-x="299" 
d="M228 -97h-108l73 69l40 45l19 54l2 15l-22 74l-108 43l-110 -40l-37 -94l-1 -9h120l7 30l14 9h2l11 -6l2 -18l-2 -15l-6 -16l-13 -15l-158 -151l-10 -78h272z" />
    <glyph glyph-name="three.inf" unicode="&#xe574;" horiz-adv-x="299" 
d="M72 -75h-120l-1 -9l30 -94l100 -35l98 29l47 84l2 15l-8 54l-35 30l40 24l21 48l2 15l-22 74l-108 43l-110 -40l-37 -94l-1 -9h120l7 30l14 9h2l11 -6l2 -18l-1 -7l-7 -16l-14 -5h-47l-12 -96h48l14 -7l3 -18l-1 -7l-7 -22l-14 -6h-2l-13 7z" />
    <glyph glyph-name="four.inf" unicode="&#xe575;" 
d="M93 35l-9 -64h-37zM182 -200l9 68h32l13 103h-32l29 219h-114l-167 -225l-12 -97h131l-9 -68h120z" />
    <glyph glyph-name="five.inf" unicode="&#xe576;" 
d="M-48 -75l-1 -9l30 -94l100 -35l101 33l46 96l2 15l-18 89l-84 34l-29 -4l-20 -8l8 45h157l13 103h-255l-37 -210l99 -35l11 8l13 3h2l16 -7l4 -23l-1 -7l-7 -22l-14 -6h-2l-13 7l-1 27h-120z" />
    <glyph glyph-name="six.inf" unicode="&#xe577;" 
d="M256 203l-124 -14l-95 -58l-56 -84l-24 -90l-2 -15l21 -109l105 -46l101 33l46 96l2 15l-19 85l-68 30l-25 -3l-21 -10l9 19l14 15l52 26l71 7zM94 -57l12 -6l3 -17l-1 -7l-7 -17l-13 -5h-2l-11 6l-4 20l1 10l1 5l5 5l14 6h2z" />
    <glyph glyph-name="seven.inf" unicode="&#xe578;" 
d="M-34 50h103l5 37h48l-161 -287h128l169 311l10 79h-284z" />
    <glyph glyph-name="eight.inf" unicode="&#xe579;" horiz-adv-x="299" 
d="M86 -109l-13 6l-3 19l1 7l8 21l13 7h2l13 -7l3 -18l-1 -7l-7 -22l-14 -6h-2zM107 47l-9 6l-2 18l1 7l6 17l10 4h2l9 -6l2 -18l-1 -7l-6 -16l-10 -5h-2zM81 -213l98 29l47 84l2 15l-8 54l-35 30l40 24l21 48l2 15l-22 74l-108 43l-104 -40l-35 -68l-2 -15l7 -52l29 -29
l-40 -28l-21 -52l-2 -15l30 -84z" />
    <glyph glyph-name="nine.inf" unicode="&#xe57a;" horiz-adv-x="298" 
d="M-55 -213l124 14l95 58l56 84l24 90l2 15l-21 109l-105 46l-101 -33l-46 -96l-2 -15l19 -85l68 -30l25 3l21 10l-9 -19l-14 -15l-52 -26l-71 -7zM107 47l-12 6l-3 17l1 7l7 17l13 5h2l11 -6l4 -20l-1 -10l-1 -5l-5 -5l-14 -6h-2z" />
    <glyph glyph-name="plus.inf" unicode="&#xe57b;" 
d="M66 127l-11 -80h-80l-13 -104h80l-11 -80h104l11 80h80l13 104h-80l11 80h-104z" />
    <glyph glyph-name="minus.inf" unicode="&#xe57c;" 
d="M-25 47l-13 -104h264l13 104h-264z" />
    <glyph glyph-name="equal.inf" unicode="&#xe57d;" 
d="M-33 -15l-13 -104h264l13 104h-264zM-17 109l-13 -104h264l13 104h-264z" />
    <glyph glyph-name="parenleft.inf" unicode="&#xe57e;" horiz-adv-x="205" 
d="M-35 -10l8 -111l33 -79h116l-30 81l-8 109l1 9l36 109l57 82h-126l-55 -78l-31 -113z" />
    <glyph glyph-name="parenright.inf" unicode="&#xe57f;" horiz-adv-x="203" 
d="M140 0l-8 111l-33 79h-116l30 -81l8 -109l-1 -9l-36 -109l-57 -82h126l55 78l31 113z" />
    <glyph glyph-name="Anocross" unicode="&#xe731;" horiz-adv-x="641" 
d="M262 782l-297 -782h174l212 601l53 -601h174l-93 782h-223z" />
    <glyph glyph-name="blacksquare" unicode="&#xe740;" horiz-adv-x="920" 
d="M850 0v780h-780v-780h780z" />
    <glyph glyph-name="idotaccent" unicode="&#xe785;" horiz-adv-x="266" 
d="M268 772h-167l-22 -167h167zM5 0h158l69 530h-158z" />
    <glyph glyph-name="interrobangdown" unicode="&#xe935;" horiz-adv-x="497" 
d="M109 -22l17 61l41 48l-26 -156l-25 17zM156 363h167l22 167h-167zM-36 -48l43 -116l169 -49l178 62l76 188l3 23h-144l-22 -84l-41 -42l45 368h-85l-120 -155z" />
    <glyph glyph-name="interrobangdown.cap" unicode="&#xe99b;" horiz-adv-x="497" 
d="M137 187l19 64l42 62l-29 -180l-24 22zM189 613h167l22 167h-167zM-10 155l44 -118l171 -50l177 64l76 190l3 23h-144l-22 -85l-40 -44l49 417h-85l-124 -185z" />
    <glyph glyph-name="registered.cap" unicode="&#xe99c;" horiz-adv-x="920" 
d="M398 411v110h71l37 -10l17 -42v-6l-17 -42l-37 -10h-71zM398 307h70l48 -152h148l-69 172l50 47l19 86v12l-53 123l-111 30h-243v-470h141v152zM113 390l102 246l245 101l246 -101l101 -246l-101 -245l-246 -102l-245 102zM57 390l118 -285l285 -118l285 118l118 285
l-118 285l-285 118l-285 -118z" />
    <glyph glyph-name="period.T" unicode="&#xf182;" 
d="M207 167h-167l-22 -167h167z" />
    <glyph glyph-name="comma.T" unicode="&#xf183;" 
d="M207 167h-167l-22 -167h85l-34 -50l-64 -17l-10 -76l134 44l61 136z" />
    <glyph glyph-name="colon.T" unicode="&#xf184;" 
d="M248 474h-167l-22 -167h167zM207 167h-167l-22 -167h167z" />
    <glyph glyph-name="semicolon.T" unicode="&#xf185;" 
d="M207 167h-167l-22 -167h85l-34 -50l-64 -17l-10 -76l134 44l61 136zM248 474h-167l-22 -167h167z" />
    <glyph glyph-name="onesixteenth" unicode="&#xf215;" horiz-adv-x="1100" 
d="M1082 403l-124 -14l-95 -58l-56 -84l-24 -90l-2 -15l21 -109l105 -46l101 33l46 96l2 15l-19 85l-68 30l-25 -3l-21 -10l9 19l14 15l52 26l71 7zM920 143l12 -6l3 -17l-1 -7l-7 -17l-13 -5h-2l-11 6l-4 20l1 10l1 5l5 6l14 5h2zM741 0l13 103h-71l38 289h-89l-136 -85
l48 -85l38 23l-19 -142h-72l-13 -103h263zM130 0l678 780h-134l-678 -780h134zM292 390l13 103h-71l38 289h-89l-136 -85l48 -85l38 23l-19 -142h-72l-13 -103h263z" />
    <glyph glyph-name="threesixteenths" unicode="&#xf216;" horiz-adv-x="1100" 
d="M1082 403l-124 -14l-95 -58l-56 -84l-24 -90l-2 -15l21 -109l105 -46l101 33l46 96l2 15l-19 85l-68 30l-25 -3l-21 -10l9 19l14 15l52 26l71 7zM920 143l12 -6l3 -17l-1 -7l-7 -17l-13 -5h-2l-11 6l-4 20l1 10l1 5l5 6l14 5h2zM741 0l13 103h-71l38 289h-89l-136 -85
l48 -85l38 23l-19 -142h-72l-13 -103h263zM130 0l678 780h-134l-678 -780h134zM149 515h-120l-1 -9l30 -94l100 -35l98 29l47 84l2 15l-8 54l-35 30l40 24l21 48l2 15l-22 74l-108 43l-110 -40l-37 -94l-1 -9h120l7 30l14 9h2l11 -6l2 -18l-1 -7l-7 -16l-14 -5h-47l-12 -96
h48l14 -6l3 -19l-1 -7l-7 -21l-14 -7h-2l-13 7z" />
    <glyph glyph-name="fivesixteenths" unicode="&#xf217;" horiz-adv-x="1100" 
d="M1082 403l-124 -14l-95 -58l-56 -84l-24 -90l-2 -15l21 -109l105 -46l101 33l46 96l2 15l-19 85l-68 30l-25 -3l-21 -10l9 19l14 15l52 26l71 7zM920 143l12 -6l3 -17l-1 -7l-7 -17l-13 -5h-2l-11 6l-4 20l1 10l1 5l5 6l14 5h2zM741 0l13 103h-71l38 289h-89l-136 -85
l48 -85l38 23l-19 -142h-72l-13 -103h263zM130 0l678 780h-134l-678 -780h134zM29 515l-1 -9l30 -94l100 -35l101 33l46 96l2 15l-18 89l-84 34l-29 -4l-20 -8l8 45h157l13 103h-255l-37 -210l99 -35l11 8l13 3h2l16 -7l4 -23l-1 -7l-7 -21l-14 -7h-2l-13 7l-1 27h-120z" />
    <glyph glyph-name="sevensixteenths" unicode="&#xf218;" horiz-adv-x="1100" 
d="M1082 403l-124 -14l-95 -58l-56 -84l-24 -90l-2 -15l21 -109l105 -46l101 33l46 96l2 15l-19 85l-68 30l-25 -3l-21 -10l9 19l14 15l52 26l71 7zM920 143l12 -6l3 -17l-1 -7l-7 -17l-13 -5h-2l-11 6l-4 20l1 10l1 5l5 6l14 5h2zM741 0l13 103h-71l38 289h-89l-136 -85
l48 -85l38 23l-19 -142h-72l-13 -103h263zM130 0l678 780h-134l-678 -780h134zM43 640h103l5 37h48l-161 -287h128l169 311l10 79h-284z" />
    <glyph glyph-name="ninesixteenths" unicode="&#xf219;" horiz-adv-x="1100" 
d="M1082 403l-124 -14l-95 -58l-56 -84l-24 -90l-2 -15l21 -109l105 -46l101 33l46 96l2 15l-19 85l-68 30l-25 -3l-21 -10l9 19l14 15l52 26l71 7zM920 143l12 -6l3 -17l-1 -7l-7 -17l-13 -5h-2l-11 6l-4 20l1 10l1 5l5 6l14 5h2zM741 0l13 103h-71l38 289h-89l-136 -85
l48 -85l38 23l-19 -142h-72l-13 -103h263zM130 0l678 780h-134l-678 -780h134zM22 377l124 14l95 58l56 84l24 90l2 15l-21 109l-105 46l-101 -33l-46 -96l-2 -15l19 -84l68 -31l25 3l21 10l-9 -18l-14 -16l-52 -25l-71 -8zM184 637l-12 6l-3 17l1 7l7 17l13 5h2l11 -6
l4 -20l-1 -10l-1 -5l-5 -5l-14 -6h-2z" />
    <glyph glyph-name="elevensixteenths" unicode="&#xf220;" horiz-adv-x="1400" 
d="M1382 403l-124 -14l-95 -58l-56 -84l-24 -90l-2 -15l21 -109l105 -46l101 33l46 96l2 15l-19 85l-68 30l-25 -3l-21 -10l9 19l14 15l52 26l71 7zM1220 143l12 -6l3 -17l-1 -7l-7 -17l-13 -5h-2l-11 6l-4 20l1 10l1 5l5 6l14 5h2zM1041 0l13 103h-71l38 289h-89l-136 -85
l48 -85l38 23l-19 -142h-72l-13 -103h263zM430 0l678 780h-134l-678 -780h134zM592 390l13 103h-71l38 289h-89l-136 -85l48 -85l38 23l-19 -142h-72l-13 -103h263zM292 390l13 103h-71l38 289h-89l-136 -85l48 -85l38 23l-19 -142h-72l-13 -103h263z" />
    <glyph glyph-name="thirteensixteenths" unicode="&#xf221;" horiz-adv-x="1400" 
d="M1382 403l-124 -14l-95 -58l-56 -84l-24 -90l-2 -15l21 -109l105 -46l101 33l46 96l2 15l-19 85l-68 30l-25 -3l-21 -10l9 19l14 15l52 26l71 7zM1220 143l12 -6l3 -17l-1 -7l-7 -17l-13 -5h-2l-11 6l-4 20l1 10l1 5l5 6l14 5h2zM1041 0l13 103h-71l38 289h-89l-136 -85
l48 -85l38 23l-19 -142h-72l-13 -103h263zM430 0l678 780h-134l-678 -780h134zM449 515h-120l-1 -9l30 -94l100 -35l98 29l47 84l2 15l-8 54l-35 30l40 24l21 48l2 15l-22 74l-108 43l-110 -40l-37 -94l-1 -9h120l7 30l14 9h2l11 -6l2 -18l-1 -7l-7 -16l-14 -5h-47l-12 -96
h48l14 -6l3 -19l-1 -7l-7 -21l-14 -7h-2l-13 7zM292 390l13 103h-71l38 289h-89l-136 -85l48 -85l38 23l-19 -142h-72l-13 -103h263z" />
    <glyph glyph-name="fifteensixteenths" unicode="&#xf222;" horiz-adv-x="1400" 
d="M1382 403l-124 -14l-95 -58l-56 -84l-24 -90l-2 -15l21 -109l105 -46l101 33l46 96l2 15l-19 85l-68 30l-25 -3l-21 -10l9 19l14 15l52 26l71 7zM1220 143l12 -6l3 -17l-1 -7l-7 -17l-13 -5h-2l-11 6l-4 20l1 10l1 5l5 6l14 5h2zM1041 0l13 103h-71l38 289h-89l-136 -85
l48 -85l38 23l-19 -142h-72l-13 -103h263zM430 0l678 780h-134l-678 -780h134zM329 515l-1 -9l30 -94l100 -35l101 33l46 96l2 15l-18 89l-84 34l-29 -4l-20 -8l8 45h157l13 103h-255l-37 -210l99 -35l11 8l13 3h2l16 -7l4 -23l-1 -7l-7 -21l-14 -7h-2l-13 7l-1 27h-120z
M292 390l13 103h-71l38 289h-89l-136 -85l48 -85l38 23l-19 -142h-72l-13 -103h263z" />
    <glyph glyph-name="commaaccent" unicode="&#xf6c3;" horiz-adv-x="602" 
d="M266 -44h-142l-12 -92h79l-34 -28l-55 -7l-7 -55l114 28l49 97z" />
    </font>
</defs>
</svg>
