<?xml version="1.0" standalone="no"?>
<!DOCTYPE svg PUBLIC "-//W3C//DTD SVG 1.1//EN" "http://www.w3.org/Graphics/SVG/1.1/DTD/svg11.dtd" >
<svg>
<metadata>
Created by FontForge 20120731 at Sun Aug 14 12:45:51 2016
 By www-data
Copyright (c) 2014, Cooper Hewitt Smithsonian Design Museum (cooperhewitt.org)
</metadata>
<defs>
<font id="CooperHewittInterpol1-ThinItalic" horiz-adv-x="300" >
  <font-face 
    font-family="Cooper Hewitt Interpol 1"
    font-weight="702"
    font-style="italic"
    font-stretch="normal"
    units-per-em="1000"
    panose-1="0 0 0 0 0 0 0 0 0 0"
    ascent="750"
    descent="-250"
    x-height="530"
    cap-height="780"
    bbox="-249 -206 1360 956"
    underline-thickness="20"
    underline-position="-80"
    unicode-range="U+0020-F6C3"
  />
<missing-glyph horiz-adv-x="963" 
d="M527 390l275 275v-550zM437 390l-275 -275v550zM203 714h558l-279 -279zM482 345l279 -279h-558zM92 0h780v780h-780v-780z" />
    <glyph glyph-name=".notdef" horiz-adv-x="963" 
d="M527 390l275 275v-550zM437 390l-275 -275v550zM203 714h558l-279 -279zM482 345l279 -279h-558zM92 0h780v780h-780v-780z" />
    <glyph glyph-name="space" unicode=" " horiz-adv-x="180" 
 />
    <glyph glyph-name="exclam" unicode="!" horiz-adv-x="180" 
d="M66 40h-40l-5 -40h40zM133 780l-76 -605h14l82 605h-20z" />
    <glyph glyph-name="quotedbl" unicode="&#x22;" horiz-adv-x="280" 
d="M233 780l-28 -250h10l38 250h-20zM133 780l-28 -250h10l38 250h-20z" />
    <glyph glyph-name="numbersign" unicode="#" horiz-adv-x="600" 
d="M250 510h193l-89 -240h-193zM350 780h-20l-93 -250h-116l-3 -20h112l-89 -240h-118l-3 -20h113l-92 -250h20l92 250h193l-92 -250h20l92 250h117l3 20h-112l89 240h118l3 20h-114l93 250h-20l-93 -250h-193z" />
    <glyph glyph-name="dollar" unicode="$" horiz-adv-x="597" 
d="M259 80l-34 2l-30 4l113 304l135 -39l45 -94l-69 -130l-157 -47h-3zM475 840h-20l-47 -126l-30 5l-34 1l-161 -45l-80 -122l-1 -8l34 -101l153 -52l-112 -301l-83 66l-13 114h-20l-2 -16l18 -109l93 -74l-49 -132h20l47 127l33 -5l37 -2l166 45l82 128l1 8l-36 114
l-156 54l104 281l85 -61l12 -131h20l3 24l-18 120l-95 67zM296 411l-133 38l-41 78l72 130l147 43h3l30 -1l27 -4z" />
    <glyph glyph-name="percent" unicode="%" horiz-adv-x="898" 
d="M361 616l-46 -102l-96 -40h-6l-87 38l-21 104l1 8l46 102l96 40h6l87 -38l21 -104zM652 -6l111 43l54 119l1 8l-26 119l-105 43l-111 -43l-54 -119l-1 -8l27 -119zM649 14l-87 38l-21 104l1 8l46 102l96 40h6l87 -38l21 -104l-1 -8l-46 -102l-96 -40h-6zM382 624l-2 68
l-26 53l58 -10l78 -5l105 11l44 11l-411 -752h22l418 765l2 15l-76 -19l-104 -11l-93 6l-95 23l-25 5l-26 2l-111 -43l-54 -119l-1 -8l27 -119l104 -43l111 43l54 119z" />
    <glyph glyph-name="ampersand" unicode="&#x26;" horiz-adv-x="640" 
d="M140 639l45 90l107 37h6l104 -37l28 -90l-1 -8l-70 -110l-133 -87l-70 99l-17 98zM224 14l-136 52l-32 140l1 8l57 114l107 82l232 -284l-108 -88l-115 -24h-6zM227 -6l126 26l113 90l90 -110h25l-104 127l55 110l36 158h-20l-1 -8l-32 -141l-51 -103l-226 277l137 92
l74 119l1 8l-32 105l-123 42l-125 -43l-50 -104l-1 -8l18 -105l72 -102l-111 -86l-61 -124l-1 -8l39 -157z" />
    <glyph glyph-name="quotesingle" unicode="'" horiz-adv-x="180" 
d="M133 780l-28 -250h10l38 250h-20z" />
    <glyph glyph-name="parenleft" unicode="(" 
d="M62 348l12 -279l88 -189h23l-91 197l-12 271l3 24l83 273l143 195h-23l-138 -187l-85 -281z" />
    <glyph glyph-name="parenright" unicode=")" horiz-adv-x="292" 
d="M234 372l-12 279l-88 189h-23l91 -196l12 -272l-3 -24l-83 -273l-143 -195h23l138 187l85 281z" />
    <glyph glyph-name="asterisk" unicode="*" horiz-adv-x="380" 
d="M400 686l-149 -46l3 -19l149 46zM317 479l-71 122l-17 -11l71 -122zM53 668l137 -46l9 18l-137 46zM104 468l104 121l-14 13l-104 -121zM236 800l-20 -150h20l20 150h-20z" />
    <glyph glyph-name="plus" unicode="+" horiz-adv-x="600" 
d="M324 640l-32 -240h-241l-3 -20h241l-32 -240h20l32 240h239l3 20h-239l32 240h-20z" />
    <glyph glyph-name="comma" unicode="," horiz-adv-x="180" 
d="M66 40h-40l-5 -40h20l-29 -67l-48 -18l-2 -20l65 28l35 85z" />
    <glyph glyph-name="hyphen" unicode="-" horiz-adv-x="320" 
d="M44 330h220l3 20h-220z" />
    <glyph glyph-name="period" unicode="." horiz-adv-x="180" 
d="M66 40h-40l-5 -40h40z" />
    <glyph glyph-name="slash" unicode="/" 
d="M336 840h-20l-356 -960h20z" />
    <glyph glyph-name="zero" unicode="0" horiz-adv-x="596" 
d="M257 -6l177 59l78 184l41 315l-37 173l-169 61l-177 -58l-78 -185l-41 -315l37 -173zM254 14l-148 52l-35 163l40 307l78 181l155 49h6l149 -52l34 -163l-40 -307l-78 -181l-155 -49h-6z" />
    <glyph glyph-name="one" unicode="1" horiz-adv-x="600" 
d="M490 0l3 20h-220l101 765h-15l-256 -158l10 -18l237 146l-97 -735h-219l-3 -20h459z" />
    <glyph glyph-name="two" unicode="2" horiz-adv-x="598" 
d="M158 20l-110 -1l378 348l101 105l34 94l3 24l-53 142l-162 54l-186 -63l-76 -179l-3 -24h20l66 183l175 63h8l142 -48l48 -128l-3 -24l-33 -88l-92 -97l-398 -366l-2 -15h470l3 20h-330z" />
    <glyph glyph-name="three" unicode="3" horiz-adv-x="598" 
d="M538 568l-67 -119l-146 -41h-121l-3 -20h124l139 -44l33 -132l-3 -24l-76 -130l-157 -44h-8l-159 57l-31 179h-20l-3 -24l40 -171l177 -61l173 46l85 148l3 24l-29 131l-109 55l120 52l59 118l3 24l-52 143l-161 51l-186 -63l-76 -179l-3 -24h20l66 183l175 63h8l141 -48
l47 -126z" />
    <glyph glyph-name="four" unicode="4" horiz-adv-x="600" 
d="M442 753l-22 -153l-46 -350h-211l-113 -1zM361 0l30 230h149l3 20h-149l70 530h-25l-416 -535l-2 -15h350l-30 -230h20z" />
    <glyph glyph-name="five" unicode="5" horiz-adv-x="600" 
d="M312 466l148 -57l43 -157l-3 -24l-79 -156l-160 -58h-8l-159 57l-31 179h-20l-3 -24l40 -171l177 -61l176 61l88 173l3 24l-50 173l-166 61l-136 -29l-83 -77l66 380h425l3 20h-445l-77 -441l19 -6l87 100l137 33h8z" />
    <glyph glyph-name="six" unicode="6" horiz-adv-x="600" 
d="M79 314l95 107l140 45h8l146 -57l40 -157l-3 -24l-79 -156l-160 -58h-8l-138 52l-54 144l5 60zM564 786l-186 -38l-175 -131l-108 -174l-45 -178l-1 -8l47 -195l166 -68l176 61l88 173l3 24l-48 173l-163 61l-135 -36l-95 -90l48 123l81 122l165 123l179 38z" />
    <glyph glyph-name="seven" unicode="7" horiz-adv-x="600" 
d="M86 500h20l34 260h310l117 1l-415 -761h22l417 765l2 15h-470z" />
    <glyph glyph-name="eight" unicode="8" horiz-adv-x="598" 
d="M348 766l144 -46l49 -128l-3 -24l-67 -119l-146 -41h-44l-134 43l-35 123l3 24l72 123l153 45h8zM279 388h46l139 -44l33 -132l-3 -24l-76 -130l-157 -44h-8l-150 46l-46 135l3 24l69 128zM562 592l-54 143l-164 51l-170 -48l-80 -140l-3 -24l25 -118l95 -58l-116 -54
l-56 -125l-3 -24l54 -151l167 -50l173 46l85 148l3 24l-29 131l-109 55l120 52l59 118z" />
    <glyph glyph-name="nine" unicode="9" horiz-adv-x="597" 
d="M525 466l-95 -107l-140 -45h-8l-146 57l-40 157l3 24l79 157l160 57h8l138 -52l54 -144l-5 -60zM40 -6l186 38l175 131l108 174l45 178l1 8l-47 195l-166 68l-175 -61l-89 -173l-3 -24l48 -173l163 -61l135 36l95 90l-48 -123l-81 -122l-165 -123l-179 -38z" />
    <glyph glyph-name="colon" unicode=":" horiz-adv-x="180" 
d="M114 410h-40l-5 -40h40zM66 40h-40l-5 -40h40z" />
    <glyph glyph-name="semicolon" unicode=";" horiz-adv-x="180" 
d="M66 40h-40l-5 -40h20l-29 -67l-48 -18l-2 -20l65 28l35 85zM114 410h-40l-5 -40h40z" />
    <glyph glyph-name="less" unicode="&#x3c;" horiz-adv-x="600" 
d="M52 399l-2 -18l467 -247l3 21l-449 234l511 234l3 23z" />
    <glyph glyph-name="equal" unicode="=" horiz-adv-x="600" 
d="M37 280h499l3 20h-499zM63 480h499l3 20h-499z" />
    <glyph glyph-name="greater" unicode="&#x3e;" horiz-adv-x="600" 
d="M550 381l2 18l-467 247l-3 -21l449 -234l-511 -234l-3 -23z" />
    <glyph glyph-name="question" unicode="?" horiz-adv-x="440" 
d="M196 40h-40l-5 -40h40zM270 786l-150 -73l-68 -189l-3 -24h20l64 195l137 71l110 -46l31 -105l-103 -212l-121 -228h14l126 222l105 217l-37 121z" />
    <glyph glyph-name="at" unicode="@" horiz-adv-x="926" 
d="M619 423l-34 -252l-69 -68l-102 -29l-123 49l-36 160l3 24l76 160l130 49l102 -31zM418 -186l-294 125l-82 339l3 24l157 339l315 125h6l267 -96l86 -288l-3 -24l-98 -224l-177 -54l9 100l30 228l21 122h-15l-18 -83l-56 60l-105 29l-144 -54l-82 -175l-3 -24l40 -175
l139 -54l108 30l63 60l-4 -84h5l200 59l107 239l3 24l-90 300l-286 104l-329 -128l-166 -356l-3 -24l87 -351l312 -133l173 20l177 83l-10 16l-167 -78l-170 -21h-6z" />
    <glyph glyph-name="A" unicode="A" horiz-adv-x="590" 
d="M347 760l93 -510h-321zM340 790l-354 -790h22l102 230h334l42 -230h20l-146 790h-20z" />
    <glyph glyph-name="B" unicode="B" horiz-adv-x="549" 
d="M310 760l123 -30l48 -138l-3 -24l-74 -133l-127 -27h-172l46 352h159zM277 388l125 -30l50 -146l-3 -24l-81 -142l-138 -26h-176l48 368h175zM133 780l-102 -780h199l156 33l84 155l3 24l-29 137l-100 49l99 43l56 127l3 24l-49 151l-143 37h-177z" />
    <glyph glyph-name="C" unicode="C" horiz-adv-x="587" 
d="M65 378l26 -293l176 -91l176 62l73 170l3 24h-20l-77 -184l-152 -52h-6l-158 85l-20 279l3 24l93 281l181 83h6l143 -56l19 -210h20l3 24l-28 202l-160 60l-198 -88l-100 -296z" />
    <glyph glyph-name="D" unicode="D" horiz-adv-x="608" 
d="M54 20l97 740h170l180 -81l36 -277l-3 -24l-112 -278l-207 -80h-161zM558 402l-43 294l-194 84h-188l-102 -780h184l219 84l121 294z" />
    <glyph glyph-name="E" unicode="E" horiz-adv-x="540" 
d="M133 780l-102 -780h410l3 20h-390l48 368h339l3 20h-339l46 352h389l3 20h-410z" />
    <glyph glyph-name="F" unicode="F" horiz-adv-x="484" 
d="M133 780l-102 -780h20l51 388h319l3 20h-319l46 352h369l3 20h-390z" />
    <glyph glyph-name="G" unicode="G" horiz-adv-x="620" 
d="M288 -6l140 27l83 56l37 285h-179l-3 -20h160l-34 -256l-76 -48l-125 -24h-6l-171 85l-28 279l3 24l97 281l181 83h6l150 -60l23 -206h20l3 24l-29 196l-170 66l-200 -88l-102 -296l-3 -24l32 -293z" />
    <glyph glyph-name="H" unicode="H" horiz-adv-x="620" 
d="M573 780l-49 -372h-420l49 372h-20l-102 -780h20l51 388h420l-51 -388h20l102 780h-20z" />
    <glyph glyph-name="I" unicode="I" horiz-adv-x="190" 
d="M158 780h-20l-102 -780h20z" />
    <glyph glyph-name="J" unicode="J" horiz-adv-x="470" 
d="M426 780l-70 -535l-56 -174l-133 -57l-120 60l-11 173h-20l-3 -24l20 -165l134 -64l147 62l59 167l73 557h-20z" />
    <glyph glyph-name="K" unicode="K" horiz-adv-x="518" 
d="M153 780h-20l-102 -780h20l32 245l151 179l174 -424h23l-183 441l285 339h-28l-418 -501z" />
    <glyph glyph-name="L" unicode="L" horiz-adv-x="464" 
d="M401 0l3 20h-350l100 760h-21l-102 -780h370z" />
    <glyph glyph-name="M" unicode="M" horiz-adv-x="760" 
d="M334 30l-180 750h-21l-102 -780h20l73 560l21 174l176 -734h20l368 734l-25 -173l-73 -561h20l102 780h-23z" />
    <glyph glyph-name="N" unicode="N" horiz-adv-x="640" 
d="M496 32l-341 748h-22l-102 -780h20l79 605l18 143l341 -748h22l102 780h-20l-79 -605z" />
    <glyph glyph-name="O" unicode="O" horiz-adv-x="621" 
d="M361 786l-195 -88l-98 -296l-3 -24l28 -293l179 -91l195 88l98 296l3 24l-28 293zM269 14l-160 85l-23 279l3 24l90 281l179 83h6l161 -84l22 -280l-3 -24l-90 -281l-179 -83h-6z" />
    <glyph glyph-name="P" unicode="P" horiz-adv-x="541" 
d="M98 360l52 400h170l128 -35l51 -156l-3 -24l-90 -154l-136 -31h-172zM96 340h174l155 40l92 165l3 24l-50 166l-150 45h-187l-102 -780h20z" />
    <glyph glyph-name="Q" unicode="Q" horiz-adv-x="617" 
d="M269 14l-160 85l-23 279l3 24l90 281l179 83h6l161 -84l22 -280l-3 -24l-68 -246l-125 -108l-44 181h-20l45 -185l-28 -4l-29 -2h-6zM361 786l-195 -88l-98 -296l-3 -24l28 -293l179 -91l34 1l31 5l25 -100h20l-26 105l136 114l73 259l3 24l-28 293z" />
    <glyph glyph-name="R" unicode="R" horiz-adv-x="550" 
d="M98 360l52 400h170l128 -35l51 -156l-3 -24l-90 -154l-136 -31h-172zM96 340h174l29 1l29 3l97 -344h20l-98 348l109 58l61 139l3 24l-50 166l-150 45h-187l-102 -780h20z" />
    <glyph glyph-name="S" unicode="S" horiz-adv-x="576" 
d="M289 395l162 -63l35 -134l-3 -24l-76 -123l-158 -37h-6l-160 57l-30 179h-20l-3 -24l39 -171l177 -61l173 39l85 141l3 24l-35 143l-171 73l-163 58l-35 114l3 24l75 117l150 39h6l156 -56l31 -190h20l3 24l-38 179l-175 63l-168 -42l-81 -134l-3 -24l36 -123z" />
    <glyph glyph-name="T" unicode="T" horiz-adv-x="490" 
d="M305 760h209l3 20h-439l-3 -20h209l-99 -760h20z" />
    <glyph glyph-name="U" unicode="U" horiz-adv-x="620" 
d="M267 -6l172 50l86 195l71 541h-20l-70 -535l-78 -183l-161 -48l-153 47l-34 183l70 536h-20l-71 -541l42 -195z" />
    <glyph glyph-name="V" unicode="V" horiz-adv-x="590" 
d="M254 -10l354 790h-22l-339 -760l-139 760h-20l146 -790h20z" />
    <glyph glyph-name="W" unicode="W" horiz-adv-x="860" 
d="M493 780h-22l-299 -745l-61 745h-20l65 -780h22l301 748l105 -748h22l269 780h-22l-255 -747z" />
    <glyph glyph-name="X" unicode="X" horiz-adv-x="580" 
d="M290 371l190 -371h23l-199 389l301 391h-26l-285 -371l-190 371h-23l199 -389l-301 -391h26z" />
    <glyph glyph-name="Y" unicode="Y" horiz-adv-x="540" 
d="M248 253l-159 527h-21l168 -550l-30 -230h20l30 230l312 550h-23z" />
    <glyph glyph-name="Z" unicode="Z" horiz-adv-x="550" 
d="M-7 14l-2 -14h470l3 20h-331l-112 -1l530 747l2 14h-450l-3 -20h311l112 1z" />
    <glyph glyph-name="bracketleft" unicode="[" 
d="M141 840l-126 -960h170l3 20h-150l120 920h150l3 20h-170z" />
    <glyph glyph-name="backslash" unicode="\" 
d="M190 -120h20l-104 960h-20z" />
    <glyph glyph-name="bracketright" unicode="]" 
d="M155 -120l126 960h-170l-3 -20h150l-120 -920h-150l-3 -20h170z" />
    <glyph glyph-name="asciicircum" unicode="^" horiz-adv-x="600" 
d="M363 780h-20l-312 -500h23l298 479l170 -479h21z" />
    <glyph glyph-name="underscore" unicode="_" horiz-adv-x="320" 
d="M-14 -110h220l3 20h-220z" />
    <glyph glyph-name="grave" unicode="`" horiz-adv-x="500" 
d="M202 780l69 -160h22l-69 160h-22z" />
    <glyph glyph-name="a" unicode="a" horiz-adv-x="482" 
d="M158 14l-96 33l-24 81l2 16l53 92l100 31l191 29l-24 -185l-63 -60zM18 128l34 -101l106 -33l132 31l70 61l-5 -86h16l10 118l32 246l-19 121l-131 51l-144 -52l-45 -118l-2 -16h20l41 119l130 47l117 -48l12 -114l-5 -38l-184 -28l-120 -36l-63 -108z" />
    <glyph glyph-name="b" unicode="b" horiz-adv-x="506" 
d="M96 419l70 68l103 29l129 -64l24 -175l-3 -24l-67 -175l-144 -64l-101 31l-52 62zM146 800h-20l-89 -678l-21 -122h15l18 83l55 -60l104 -29l158 69l73 190l3 24l-29 190l-144 69l-105 -28l-64 -58z" />
    <glyph glyph-name="c" unicode="c" horiz-adv-x="503" 
d="M39 253l33 -190l148 -69l149 54l53 111l2 16h-20l-52 -116l-132 -45l-133 64l-28 175l3 24l69 175l147 64l127 -48l21 -123h20l2 16l-25 119l-145 56l-161 -69l-75 -190z" />
    <glyph glyph-name="d" unicode="d" horiz-adv-x="510" 
d="M426 423l-41 -312l-70 -68l-103 -29l-129 64l-24 175l3 24l67 175l144 64l101 -31zM273 536l-158 -69l-73 -190l-3 -24l29 -190l144 -69l106 29l67 63l-5 -86h16l10 118l89 682h-20l-46 -348l-53 56z" />
    <glyph glyph-name="e" unicode="e" horiz-adv-x="525" 
d="M282 516l137 -68l23 -173h-380l71 177zM459 255l2 16l-24 190l-155 75l-163 -69l-77 -190l-3 -24l39 -190l155 -69l159 52l54 108l2 16h-20l-49 -109l-146 -47l-140 64l-34 177h400z" />
    <glyph glyph-name="f" unicode="f" horiz-adv-x="340" 
d="M174 672l43 92l81 22l42 -5l22 -8l3 20l-22 7l-45 6l-90 -23l-52 -98l-21 -155h-85l-3 -20h86l-67 -510h20l67 510h164l3 20h-165z" />
    <glyph glyph-name="g" unicode="g" horiz-adv-x="510" 
d="M390 151l-69 -68l-102 -29l-128 54l-30 165l3 24l69 165l138 54l102 -31l53 -62zM180 -206l149 54l60 139l55 421l21 122h-15l-18 -83l-56 60l-105 29l-152 -59l-75 -180l-3 -24l35 -180l143 -59l105 28l62 58l-15 -120l-55 -136l-136 -50l-133 46l-21 140h-20l-2 -16
l30 -139z" />
    <glyph glyph-name="h" unicode="h" horiz-adv-x="488" 
d="M21 0h20l55 419l70 65l117 32l101 -32l26 -110l-49 -374h20l50 381l-31 118l-117 37l-114 -28l-69 -59l46 351h-20z" />
    <glyph glyph-name="i" unicode="i" horiz-adv-x="180" 
d="M155 720h-40l-5 -40h40zM31 0h20l69 530h-20z" />
    <glyph glyph-name="j" unicode="j" horiz-adv-x="180" 
d="M155 720h-40l-5 -40h40zM23 -63l-45 -99l-86 -24l-36 3l-23 7l-2 -20l19 -6l43 -4l95 28l54 109l78 599h-20z" />
    <glyph glyph-name="k" unicode="k" horiz-adv-x="458" 
d="M151 800h-20l-105 -800h20l22 171l150 143l135 -314h23l-142 329l211 201h-28l-345 -329z" />
    <glyph glyph-name="l" unicode="l" horiz-adv-x="180" 
d="M31 0h20l105 800h-20z" />
    <glyph glyph-name="m" unicode="m" horiz-adv-x="748" 
d="M563 536l-100 -28l-70 -65l-42 72l-88 21l-104 -30l-63 -62l5 86h-16l-10 -118l-54 -412h20l55 419l64 65l103 32l86 -27l23 -100l-51 -389h20l52 396l1 4v4l2 15l64 65l103 32l86 -27l23 -100l-51 -389h20l52 396l-28 109z" />
    <glyph glyph-name="n" unicode="n" horiz-adv-x="488" 
d="M381 0l50 381l-31 118l-117 37l-118 -30l-69 -62l5 86h-16l-10 -118l-54 -412h20l55 419l70 65l117 32l101 -32l26 -110l-49 -374h20z" />
    <glyph glyph-name="o" unicode="o" horiz-adv-x="522" 
d="M220 14l-133 64l-28 175l3 24l69 175l147 64l133 -64l28 -175l-3 -24l-69 -175zM220 -6l161 69l75 190l3 24l-33 190l-148 69l-161 -69l-75 -190l-3 -24l33 -190z" />
    <glyph glyph-name="p" unicode="p" horiz-adv-x="506" 
d="M95 419l70 68l103 29l129 -64l24 -175l-3 -24l-67 -175l-144 -64l-101 31l-52 62zM207 -6l158 69l73 190l3 24l-29 190l-144 69l-106 -29l-67 -63l5 86h-16l-10 -118l-80 -612h20l37 278l53 -56z" />
    <glyph glyph-name="q" unicode="q" horiz-adv-x="510" 
d="M385 111l-70 -68l-103 -29l-129 64l-24 175l3 24l67 175l144 64l101 -31l52 -62zM344 -200h20l80 608l21 122h-15l-18 -83l-55 60l-104 29l-158 -69l-73 -190l-3 -24l29 -190l144 -69l106 28l63 58z" />
    <glyph glyph-name="r" unicode="r" horiz-adv-x="297" 
d="M261 536l-102 -30l-63 -62l5 86h-16l-10 -118l-54 -412h20l55 419l60 63l108 34h9l3 19l-4 1h-11z" />
    <glyph glyph-name="s" unicode="s" horiz-adv-x="478" 
d="M213 261l129 -30l38 -77l-49 -101l-131 -39l-136 40l-22 106h-20l-2 -16l30 -105l150 -45l140 39l58 100l1 8l-27 94l-135 43l-127 29l-34 68l46 104l128 37l131 -40l22 -116h20l2 16l-29 115l-146 45l-133 -37l-59 -99l-1 -8l23 -86z" />
    <glyph glyph-name="t" unicode="t" horiz-adv-x="360" 
d="M155 530l20 150h-20l-20 -150h-85l-3 -20h86l-50 -381l26 -108l91 -27l41 4l20 6l3 20l-25 -6l-39 -4l-78 25l-18 98l49 373h184l3 20h-185z" />
    <glyph glyph-name="u" unicode="u" horiz-adv-x="490" 
d="M80 530l-50 -381l31 -118l117 -37l118 30l69 62l-5 -86h16l10 118l54 412h-20l-55 -419l-70 -65l-117 -32l-101 32l-26 110l49 374h-20z" />
    <glyph glyph-name="v" unicode="v" horiz-adv-x="480" 
d="M194 25l-123 505h-21l131 -530h20l269 530h-23z" />
    <glyph glyph-name="w" unicode="w" horiz-adv-x="670" 
d="M352 504l86 -504h24l195 530h-22l-183 -506l-85 506h-24l-217 -504l-52 504h-21l57 -530h24z" />
    <glyph glyph-name="x" unicode="x" horiz-adv-x="440" 
d="M41 530l153 -264l-222 -266h25l207 249l143 -249h23l-153 265l222 265h-25l-207 -249l-143 249h-23z" />
    <glyph glyph-name="y" unicode="y" horiz-adv-x="460" 
d="M186 44l-118 486h-21l127 -513l-111 -217h22l107 217l261 513h-23z" />
    <glyph glyph-name="z" unicode="z" horiz-adv-x="430" 
d="M-13 14l-2 -14h360l3 20h-221l-111 -1l386 497l2 14h-340l-3 -20h201l111 1z" />
    <glyph glyph-name="braceleft" unicode="{" 
d="M311 840h-4l-88 -22l-49 -103l-33 -251l-35 -77l-68 -17l-3 -20l64 -16l15 -76l-33 -251l22 -103l82 -24h4l3 20l-74 20l-17 90l32 247l-7 72l-39 31l47 30l26 73l33 247l41 91l78 19z" />
    <glyph glyph-name="bar" unicode="|" horiz-adv-x="180" 
d="M15 -120h20l126 960h-20z" />
    <glyph glyph-name="braceright" unicode="}" 
d="M-15 -120h4l88 22l49 103l33 251l35 77l68 17l3 20l-63 16l-16 76l33 251l-22 103l-82 24h-4l-3 -20l74 -20l17 -90l-32 -247l7 -72l39 -31l-47 -30l-26 -73l-33 -247l-41 -91l-78 -19z" />
    <glyph glyph-name="asciitilde" unicode="~" horiz-adv-x="600" 
d="M424 354l-121 41l-126 41l-88 -27l-46 -39l14 -14l44 37l76 23l121 -41l126 -41l88 27l46 39l-14 14l-43 -37z" />
    <glyph glyph-name="nbspace" unicode="&#xa0;" horiz-adv-x="180" 
 />
    <glyph glyph-name="exclamdown" unicode="&#xa1;" horiz-adv-x="180" 
d="M85 490h40l5 40h-40zM24 -200l70 555h-14l-76 -555h20z" />
    <glyph glyph-name="cent" unicode="&#xa2;" horiz-adv-x="597" 
d="M97 402l86 225l172 73h6l21 -1l19 -2l-221 -597l-77 98l-9 180zM475 840h-20l-46 -124l-25 3l-26 1l-190 -80l-91 -238l-3 -24l10 -193l88 -105l-51 -140h20l49 133l40 -10l45 -3l167 54l68 140l3 24h-20l-68 -152l-147 -46h-6l-40 3l-35 9l223 601l90 -68l10 -144h20
l3 24l-17 137l-99 70z" />
    <glyph glyph-name="sterling" unicode="&#xa3;" horiz-adv-x="596" 
d="M378 766l134 -65l24 -201h20l3 24l-32 193l-149 69l-174 -79l-53 -177l3 -69l7 -61h-98l-3 -20h104l24 -175l2 -185h-176l-3 -20h480l3 20h-284v183l-24 177h214l3 20h-220l-8 63l-4 67l46 159z" />
    <glyph glyph-name="yen" unicode="&#xa5;" horiz-adv-x="600" 
d="M59 450h143l64 -180h-230l-3 -20h239l-32 -250h20l32 250h241l3 20h-230l112 180h141l3 20h-132l193 310h-23l-315 -509l-181 509h-21l111 -310h-132z" />
    <glyph glyph-name="brokenbar" unicode="&#xa6;" horiz-adv-x="180" 
d="M15 -120h20l58 440h-20zM83 400h20l58 440h-20z" />
    <glyph glyph-name="section" unicode="&#xa7;" horiz-adv-x="498" 
d="M51 388l26 -96l137 -45l126 -28l35 -68l-46 -103l-128 -38l-131 40l-22 116h-20l-2 -16l29 -114l146 -46l133 37l59 99l1 8l-12 72l-80 46l104 46l46 84l1 6l-26 96l-137 45l-126 28l-35 68l46 104l128 37l131 -40l22 -116h20l2 16l-29 115l-146 45l-133 -37l-59 -99
l-1 -8l12 -72l80 -46l-103 -45l-47 -85zM70 366l50 106l138 40h10l125 -27l42 -75l-50 -106l-138 -40h-10l-125 27z" />
    <glyph glyph-name="dieresis" unicode="&#xa8;" horiz-adv-x="500" 
d="M385 720h-40l-5 -40h40zM245 720h-40l-5 -40h40z" />
    <glyph glyph-name="copyright" unicode="&#xa9;" horiz-adv-x="900" 
d="M450 149l139 48l41 93v10h-20l-39 -92l-121 -39l-136 59l-47 152v20l47 152l136 59l121 -37l39 -104h20v10l-41 106l-139 45l-151 -65l-52 -166v-20l52 -166zM74 390l110 266l266 110l266 -110l110 -266l-110 -266l-266 -110l-266 110zM54 390l116 -280l280 -116l280 116
l116 280l-116 280l-280 116l-280 -116z" />
    <glyph glyph-name="ordfeminine" unicode="&#xaa;" horiz-adv-x="374" 
d="M30 230h272l3 20h-272zM157 400l-66 25l-15 57l1 8l38 69l74 26l140 21l-16 -127l-50 -49zM56 482l22 -75l79 -27l97 23l58 47l-4 -62h17l8 97l22 164l-15 97l-102 40l-107 -42l-35 -90l-1 -8h20l29 84l94 36l85 -34l11 -88l-2 -18l-137 -21l-87 -28l-51 -87z" />
    <glyph glyph-name="guillemotleft" unicode="&#xab;" horiz-adv-x="500" 
d="M467 506l-220 -156l-3 -20l179 -156l4 23l-164 141l201 141zM267 506l-220 -156l-3 -20l179 -156l4 23l-164 141l201 141z" />
    <glyph glyph-name="logicalnot" unicode="&#xac;" horiz-adv-x="600" 
d="M71 540h479l-42 -320h20l45 340h-499z" />
    <glyph glyph-name="uni00AD" unicode="&#xad;" horiz-adv-x="320" 
d="M44 330h220l3 20h-220z" />
    <glyph glyph-name="registered" unicode="&#xae;" horiz-adv-x="330" 
d="M204 703v-6l-10 -25l-31 -7h-36v70h36l31 -7zM219 696v8l-14 35l-39 12h-55v-172h16v70h43l32 -70h17l-32 73l24 15zM40 665l37 88l88 37l88 -37l37 -88l-37 -88l-88 -37l-88 37zM24 665l41 -100l100 -41l100 41l41 100l-41 100l-100 41l-100 -41z" />
    <glyph glyph-name="macron" unicode="&#xaf;" horiz-adv-x="500" 
d="M191 690h200l3 20h-200z" />
    <glyph glyph-name="degree" unicode="&#xb0;" horiz-adv-x="398" 
d="M247 786l-104 -37l-54 -105l-1 -8l31 -104l103 -38l105 37l53 105l1 8l-31 104zM219 514l-86 32l-25 90l1 8l46 89l89 33h6l86 -32l25 -90l-1 -8l-46 -89l-89 -33h-6z" />
    <glyph glyph-name="plusminus" unicode="&#xb1;" horiz-adv-x="600" 
d="M23 180h499l3 20h-499zM324 640l-21 -160h-241l-3 -20h241l-21 -160h20l21 160h239l3 20h-239l21 160h-20z" />
    <glyph glyph-name="twosuperior" unicode="&#xb2;" 
d="M106 410l-41 -1l185 168l42 46l17 48l1 10l-24 76l-85 28l-94 -32l-39 -88l-2 -15h20l35 90l77 26h6l68 -24l17 -62l-1 -10l-14 -39l-41 -45l-199 -181l-2 -15h235l3 20h-164z" />
    <glyph glyph-name="threesuperior" unicode="&#xb3;" 
d="M154 404l-73 25l-16 86h-20l-1 -10l22 -87l91 -33l87 26l43 75l1 10l-13 62l-47 30l56 30l25 58l1 10l-25 73l-85 26l-95 -34l-38 -91l-1 -10h20l34 89l77 27h6l67 -22l19 -59l-1 -10l-34 -58l-69 -19h-56l-3 -20h59l63 -20l19 -62l-1 -10l-36 -62l-70 -20h-6z" />
    <glyph glyph-name="acute" unicode="&#xb4;" horiz-adv-x="500" 
d="M382 780l-111 -160h22l111 160h-22z" />
    <glyph glyph-name="paragraph" unicode="&#xb6;" horiz-adv-x="500" 
d="M97 575l90 154l136 31h17l-52 -400h-15l-128 35l-51 156zM351 0h20l102 780h-150l-155 -40l-92 -165l-3 -24l51 -166l149 -45h13l-45 -340h20l99 760h90z" />
    <glyph glyph-name="periodcentered" unicode="&#xb7;" horiz-adv-x="180" 
d="M108 360h-40l-5 -40h40z" />
    <glyph glyph-name="cedilla" unicode="&#xb8;" horiz-adv-x="602" 
d="M98 -186l38 -15l43 -5l66 17l30 63l-25 49l-53 13h-10l-9 -1l32 65h-19l-36 -73l9 -11l8 1l18 1l47 -7l20 -37l-25 -50l-53 -12l-40 5l-33 13z" />
    <glyph glyph-name="onesuperior" unicode="&#xb9;" 
d="M273 390l3 20h-107l49 372h-15l-135 -83l10 -18l116 71l-45 -342h-108l-3 -20h235z" />
    <glyph glyph-name="ordmasculine" unicode="&#xba;" horiz-adv-x="407" 
d="M393 595l-36 153l-98 38l-109 -36l-76 -155l-3 -24l36 -152l98 -39l109 36l76 155zM370 571l-57 -130l-108 -41l-90 40l-24 131l3 24l57 130l108 41l90 -40l24 -131zM37 230h298l3 20h-298z" />
    <glyph glyph-name="guillemotright" unicode="&#xbb;" horiz-adv-x="500" 
d="M24 174l220 156l3 20l-179 156l-4 -23l164 -141l-201 -141zM224 174l220 156l3 20l-179 156l-4 -23l164 -141l-201 -141z" />
    <glyph glyph-name="onequarter" unicode="&#xbc;" horiz-adv-x="800" 
d="M687 352l-29 -222h-95l-52 -1zM661 0l14 110h72l3 20h-72l34 260h-19l-209 -265l-2 -15h173l-14 -110h20zM77 0l676 780h-26l-676 -780h26zM273 390l3 20h-107l49 372h-15l-135 -83l10 -18l116 71l-45 -342h-108l-3 -20h235z" />
    <glyph glyph-name="onehalf" unicode="&#xbd;" horiz-adv-x="799" 
d="M555 20l-41 -1l185 168l42 46l17 48l1 10l-24 76l-85 28l-94 -32l-39 -88l-2 -15h20l35 90l77 26h6l68 -24l17 -62l-1 -10l-14 -39l-41 -45l-199 -181l-2 -15h235l3 20h-164zM273 390l3 20h-107l49 372h-15l-135 -83l10 -18l116 71l-45 -342h-108l-3 -20h235zM77 0
l676 780h-26l-676 -780h26z" />
    <glyph glyph-name="threequarters" unicode="&#xbe;" horiz-adv-x="800" 
d="M687 352l-29 -222h-95l-52 -1zM661 0l14 110h72l3 20h-72l34 260h-19l-209 -265l-2 -15h173l-14 -110h20zM77 0l676 780h-26l-676 -780h26zM154 404l-73 25l-16 86h-20l-1 -10l22 -87l91 -33l87 26l43 75l1 10l-13 62l-47 30l56 30l25 58l1 10l-25 73l-85 26l-95 -34
l-38 -91l-1 -10h20l34 89l77 27h6l67 -22l19 -59l-1 -10l-34 -58l-69 -19h-56l-3 -20h59l63 -20l19 -62l-1 -10l-36 -62l-70 -20h-6z" />
    <glyph glyph-name="questiondown" unicode="&#xbf;" horiz-adv-x="440" 
d="M215 490h40l5 40h-40zM141 -206l152 66l69 176l3 24h-20l-64 -181l-140 -65l-110 43l-31 98l103 188l121 212h-14l-126 -204l-105 -195l37 -114z" />
    <glyph glyph-name="Agrave" unicode="&#xc0;" horiz-adv-x="590" 
d="M298 950l47 -110h22l-47 110h-22zM347 760l93 -510h-321zM340 790l-354 -790h22l102 230h334l42 -230h20l-146 790h-20z" />
    <glyph glyph-name="Aacute" unicode="&#xc1;" horiz-adv-x="590" 
d="M422 950l-77 -110h22l77 110h-22zM347 760l93 -510h-321zM340 790l-354 -790h22l102 230h334l42 -230h20l-146 790h-20z" />
    <glyph glyph-name="Acircumflex" unicode="&#xc2;" horiz-adv-x="590" 
d="M271 840l99 95l73 -95h23l-85 110h-20l-115 -110h25zM347 760l93 -510h-321zM340 790l-354 -790h22l102 230h334l42 -230h20l-146 790h-20z" />
    <glyph glyph-name="Atilde" unicode="&#xc3;" horiz-adv-x="590" 
d="M485 927l-21 -43l-33 -9l-66 29l-69 29l-45 -14l-27 -56h18l21 43l33 9l66 -29l69 -29l45 14l27 56h-18zM347 760l93 -510h-321zM340 790l-354 -790h22l102 230h334l42 -230h20l-146 790h-20z" />
    <glyph glyph-name="Adieresis" unicode="&#xc4;" horiz-adv-x="590" 
d="M456 915h-40l-5 -40h40zM316 915h-40l-5 -40h40zM347 760l93 -510h-321zM340 790l-354 -790h22l102 230h334l42 -230h20l-146 790h-20z" />
    <glyph glyph-name="Aring" unicode="&#xc5;" horiz-adv-x="590" 
d="M367 956l-66 -27l-29 -67l18 -53l48 -24l-352 -785h22l102 230h334l42 -230h20l-145 784l60 31l26 63l-22 57zM367 938l44 -15l17 -45l-22 -55l-54 -21l-44 15l-17 45l22 55zM347 760l93 -510h-321z" />
    <glyph glyph-name="AE" unicode="&#xc6;" horiz-adv-x="820" 
d="M387 758l14 -508h-272zM378 780l-397 -780h21l117 230h283l7 -230h312l2 20h-294l-11 368h304l2 20h-307l-11 352h415l2 20h-445z" />
    <glyph glyph-name="Ccedilla" unicode="&#xc7;" horiz-adv-x="587" 
d="M164 -186l38 -15l43 -5l66 17l30 63l-25 49l-53 13h-10l-9 -1l29 59l171 63l72 169l3 24h-20l-77 -184l-152 -52h-6l-158 85l-20 279l3 24l93 281l181 83h6l143 -56l19 -210h20l3 24l-28 202l-160 60l-198 -88l-100 -296l-3 -24l23 -288l166 -96l-33 -67l9 -11l8 1l18 1
l47 -7l20 -37l-25 -50l-53 -12l-40 5l-33 13z" />
    <glyph glyph-name="Egrave" unicode="&#xc8;" horiz-adv-x="540" 
d="M293 950l47 -110h22l-47 110h-22zM133 780l-102 -780h410l3 20h-390l48 368h339l3 20h-339l46 352h389l3 20h-410z" />
    <glyph glyph-name="Eacute" unicode="&#xc9;" horiz-adv-x="540" 
d="M417 950l-77 -110h22l77 110h-22zM133 780l-102 -780h410l3 20h-390l48 368h339l3 20h-339l46 352h389l3 20h-410z" />
    <glyph glyph-name="Ecircumflex" unicode="&#xca;" horiz-adv-x="540" 
d="M266 840l99 95l73 -95h23l-85 110h-20l-115 -110h25zM133 780l-102 -780h410l3 20h-390l48 368h339l3 20h-339l46 352h389l3 20h-410z" />
    <glyph glyph-name="Edieresis" unicode="&#xcb;" horiz-adv-x="540" 
d="M451 915h-40l-5 -40h40zM311 915h-40l-5 -40h40zM133 780l-102 -780h410l3 20h-390l48 368h339l3 20h-339l46 352h389l3 20h-410z" />
    <glyph glyph-name="Igrave" unicode="&#xcc;" horiz-adv-x="190" 
d="M98 950l47 -110h22l-47 110h-22zM158 780h-20l-102 -780h20z" />
    <glyph glyph-name="Iacute" unicode="&#xcd;" horiz-adv-x="190" 
d="M222 950l-77 -110h22l77 110h-22zM158 780h-20l-102 -780h20z" />
    <glyph glyph-name="Icircumflex" unicode="&#xce;" horiz-adv-x="190" 
d="M71 840l99 95l73 -95h23l-85 110h-20l-115 -110h25zM158 780h-20l-102 -780h20z" />
    <glyph glyph-name="Idieresis" unicode="&#xcf;" horiz-adv-x="190" 
d="M116 915h-40l-5 -40h40zM256 915h-40l-5 -40h40zM158 780h-20l-102 -780h20z" />
    <glyph glyph-name="Eth" unicode="&#xd0;" horiz-adv-x="663" 
d="M109 20l48 368h230l3 20h-230l46 352h170l180 -81l36 -277l-3 -24l-112 -278l-207 -80h-161zM27 388h110l-51 -388h184l219 84l121 294l3 24l-43 294l-194 84h-188l-49 -372h-109z" />
    <glyph glyph-name="Ntilde" unicode="&#xd1;" horiz-adv-x="640" 
d="M510 927l-21 -43l-33 -9l-66 29l-69 29l-45 -14l-27 -56h18l21 43l33 9l66 -29l69 -29l45 14l27 56h-18zM496 32l-341 748h-22l-102 -780h20l79 605l18 143l341 -748h22l102 780h-20l-79 -605z" />
    <glyph glyph-name="Ograve" unicode="&#xd2;" horiz-adv-x="621" 
d="M318 950l47 -110h22l-47 110h-22zM361 786l-195 -88l-98 -296l-3 -24l28 -293l179 -91l195 88l98 296l3 24l-28 293zM269 14l-160 85l-23 279l3 24l90 281l179 83h6l161 -84l22 -280l-3 -24l-90 -281l-179 -83h-6z" />
    <glyph glyph-name="Oacute" unicode="&#xd3;" horiz-adv-x="621" 
d="M442 950l-77 -110h22l77 110h-22zM361 786l-195 -88l-98 -296l-3 -24l28 -293l179 -91l195 88l98 296l3 24l-28 293zM269 14l-160 85l-23 279l3 24l90 281l179 83h6l161 -84l22 -280l-3 -24l-90 -281l-179 -83h-6z" />
    <glyph glyph-name="Ocircumflex" unicode="&#xd4;" horiz-adv-x="621" 
d="M291 840l99 95l73 -95h23l-85 110h-20l-115 -110h25zM361 786l-195 -88l-98 -296l-3 -24l28 -293l179 -91l195 88l98 296l3 24l-28 293zM269 14l-160 85l-23 279l3 24l90 281l179 83h6l161 -84l22 -280l-3 -24l-90 -281l-179 -83h-6z" />
    <glyph glyph-name="Otilde" unicode="&#xd5;" horiz-adv-x="621" 
d="M505 927l-21 -43l-33 -9l-66 29l-69 29l-45 -14l-27 -56h18l21 43l33 9l66 -29l69 -29l45 14l27 56h-18zM361 786l-195 -88l-98 -296l-3 -24l28 -293l179 -91l195 88l98 296l3 24l-28 293zM269 14l-160 85l-23 279l3 24l90 281l179 83h6l161 -84l22 -280l-3 -24l-90 -281
l-179 -83h-6z" />
    <glyph glyph-name="Odieresis" unicode="&#xd6;" horiz-adv-x="621" 
d="M476 915h-40l-5 -40h40zM336 915h-40l-5 -40h40zM361 786l-195 -88l-98 -296l-3 -24l28 -293l179 -91l195 88l98 296l3 24l-28 293zM269 14l-160 85l-23 279l3 24l90 281l179 83h6l161 -84l22 -280l-3 -24l-90 -281l-179 -83h-6z" />
    <glyph glyph-name="multiply" unicode="&#xd7;" horiz-adv-x="600" 
d="M77 630l209 -240l-272 -240l15 -15l272 240l208 -240l15 15l-208 240l271 240l-15 15l-271 -240l-209 240z" />
    <glyph glyph-name="Oslash" unicode="&#xd8;" horiz-adv-x="626" 
d="M544 378l-90 -281l-179 -83h-6l-96 20l-63 62l422 569l23 -109l-8 -154zM39 0l58 78l71 -63l104 -21l195 88l98 296l3 24l6 166l-28 116l71 96h-23l-58 -78l-71 63l-104 21l-195 -88l-98 -296l-3 -24l-6 -166l28 -116l-71 -96h23zM86 378l3 24l90 281l179 83h6l96 -20
l63 -62l-422 -569l-22 109z" />
    <glyph glyph-name="Ugrave" unicode="&#xd9;" horiz-adv-x="620" 
d="M313 950l47 -110h22l-47 110h-22zM267 -6l172 50l86 195l71 541h-20l-70 -535l-78 -183l-161 -48l-153 47l-34 183l70 536h-20l-71 -541l42 -195z" />
    <glyph glyph-name="Uacute" unicode="&#xda;" horiz-adv-x="620" 
d="M437 950l-77 -110h22l77 110h-22zM267 -6l172 50l86 195l71 541h-20l-70 -535l-78 -183l-161 -48l-153 47l-34 183l70 536h-20l-71 -541l42 -195z" />
    <glyph glyph-name="Ucircumflex" unicode="&#xdb;" horiz-adv-x="620" 
d="M286 840l99 95l73 -95h23l-85 110h-20l-115 -110h25zM267 -6l172 50l86 195l71 541h-20l-70 -535l-78 -183l-161 -48l-153 47l-34 183l70 536h-20l-71 -541l42 -195z" />
    <glyph glyph-name="Udieresis" unicode="&#xdc;" horiz-adv-x="620" 
d="M471 915h-40l-5 -40h40zM331 915h-40l-5 -40h40zM267 -6l172 50l86 195l71 541h-20l-70 -535l-78 -183l-161 -48l-153 47l-34 183l70 536h-20l-71 -541l42 -195z" />
    <glyph glyph-name="Yacute" unicode="&#xdd;" horiz-adv-x="540" 
d="M392 950l-77 -110h22l77 110h-22zM248 253l-159 527h-21l168 -550l-30 -230h20l30 230l312 550h-23z" />
    <glyph glyph-name="Thorn" unicode="&#xde;" horiz-adv-x="541" 
d="M153 780h-20l-102 -780h20l22 170h175l155 40l92 165l3 24l-50 166l-150 45h-167zM76 190l52 400h170l128 -35l51 -156l-3 -24l-90 -154l-136 -31h-172z" />
    <glyph glyph-name="germandbls" unicode="&#xdf;" horiz-adv-x="548" 
d="M261 393l51 -37l108 -84l43 -96l-43 -118l-115 -44l-107 43l-16 103h-20l-2 -16l24 -102l121 -48l127 49l48 106l1 8l-31 109l-117 99l-48 34l129 93l56 114l1 8l-24 137l-137 55l-140 -52l-59 -140l-80 -614h20l80 610l52 130l127 46l110 -36l34 -102l-50 -141l-141 -99
z" />
    <glyph glyph-name="agrave" unicode="&#xe0;" horiz-adv-x="482" 
d="M197 780l69 -160h22l-69 160h-22zM158 14l-96 33l-24 81l2 16l53 92l100 31l191 29l-24 -185l-63 -60zM18 128l34 -101l106 -33l132 31l70 61l-5 -86h16l10 118l32 246l-19 121l-131 51l-144 -52l-45 -118l-2 -16h20l41 119l130 47l117 -48l12 -114l-5 -38l-184 -28
l-120 -36l-63 -108z" />
    <glyph glyph-name="aacute" unicode="&#xe1;" horiz-adv-x="482" 
d="M377 780l-111 -160h22l111 160h-22zM158 14l-96 33l-24 81l2 16l53 92l100 31l191 29l-24 -185l-63 -60zM18 128l34 -101l106 -33l132 31l70 61l-5 -86h16l10 118l32 246l-19 121l-131 51l-144 -52l-45 -118l-2 -16h20l41 119l130 47l117 -48l12 -114l-5 -38l-184 -28
l-120 -36l-63 -108z" />
    <glyph glyph-name="acircumflex" unicode="&#xe2;" horiz-adv-x="482" 
d="M412 620l-104 160h-20l-146 -160h26l129 142l91 -142h24zM158 14l-96 33l-24 81l2 16l53 92l100 31l191 29l-24 -185l-63 -60zM18 128l34 -101l106 -33l132 31l70 61l-5 -86h16l10 118l32 246l-19 121l-131 51l-144 -52l-45 -118l-2 -16h20l41 119l130 47l117 -48
l12 -114l-5 -38l-184 -28l-120 -36l-63 -108z" />
    <glyph glyph-name="atilde" unicode="&#xe3;" horiz-adv-x="485" 
d="M409 732l-21 -43l-33 -9l-66 29l-69 29l-45 -14l-27 -56h18l21 43l33 9l66 -29l69 -29l45 14l27 56h-18zM158 14l-96 33l-24 81l2 16l53 92l100 31l191 29l-24 -185l-63 -60zM18 128l34 -101l106 -33l132 31l70 61l-5 -86h16l10 118l32 246l-19 121l-131 51l-144 -52
l-45 -118l-2 -16h20l41 119l130 47l117 -48l12 -114l-5 -38l-184 -28l-120 -36l-63 -108z" />
    <glyph glyph-name="adieresis" unicode="&#xe4;" horiz-adv-x="482" 
d="M380 720h-40l-5 -40h40zM240 720h-40l-5 -40h40zM158 14l-96 33l-24 81l2 16l53 92l100 31l191 29l-24 -185l-63 -60zM18 128l34 -101l106 -33l132 31l70 61l-5 -86h16l10 118l32 246l-19 121l-131 51l-144 -52l-45 -118l-2 -16h20l41 119l130 47l117 -48l12 -114l-5 -38
l-184 -28l-120 -36l-63 -108z" />
    <glyph glyph-name="aring" unicode="&#xe5;" horiz-adv-x="482" 
d="M295 786l-66 -27l-29 -67l22 -57l58 -21l66 28l29 66l-22 57zM295 768l44 -15l17 -45l-22 -55l-54 -21l-44 15l-17 45l22 55zM158 14l-96 33l-24 81l2 16l53 92l100 31l191 29l-24 -185l-63 -60zM18 128l34 -101l106 -33l132 31l70 61l-5 -86h16l10 118l32 246l-19 121
l-131 51l-144 -52l-45 -118l-2 -16h20l41 119l130 47l117 -48l12 -114l-5 -38l-184 -28l-120 -36l-63 -108z" />
    <glyph glyph-name="ae" unicode="&#xe6;" horiz-adv-x="860" 
d="M622 516l137 -68l23 -173h-380l71 177zM573 -6l159 52l54 108l2 16h-20l-49 -109l-146 -47l-140 64l-34 177h400l2 16l-24 190l-155 75l-121 -34l-87 -110l-26 101l-125 43l-144 -52l-45 -118l-2 -16h20l41 119l130 47l117 -47l12 -115l-5 -38l-184 -28l-120 -32
l-63 -112l-2 -16l34 -101l106 -33l150 42l80 86l64 -92zM158 14l-96 33l-24 81l2 16l53 93l100 30l191 29l-5 -43l-3 -56l6 -54l-77 -86z" />
    <glyph glyph-name="ccedilla" unicode="&#xe7;" horiz-adv-x="503" 
d="M116 -186l38 -15l43 -5l66 17l30 63l-25 49l-53 13h-10l-9 -1l29 59l145 55l52 110l2 16h-20l-52 -116l-132 -45l-133 64l-28 175l3 24l69 175l147 64l127 -48l21 -123h20l2 16l-25 119l-145 56l-161 -69l-75 -190l-3 -24l29 -186l138 -73l-33 -67l9 -11l8 1l18 1l47 -7
l20 -37l-25 -50l-53 -12l-40 5l-33 13z" />
    <glyph glyph-name="egrave" unicode="&#xe8;" horiz-adv-x="525" 
d="M217 780l69 -160h22l-69 160h-22zM282 516l137 -68l23 -173h-380l71 177zM459 255l2 16l-24 190l-155 75l-163 -69l-77 -190l-3 -24l39 -190l155 -69l159 52l54 108l2 16h-20l-49 -109l-146 -47l-140 64l-34 177h400z" />
    <glyph glyph-name="eacute" unicode="&#xe9;" horiz-adv-x="525" 
d="M397 780l-111 -160h22l111 160h-22zM282 516l137 -68l23 -173h-380l71 177zM459 255l2 16l-24 190l-155 75l-163 -69l-77 -190l-3 -24l39 -190l155 -69l159 52l54 108l2 16h-20l-49 -109l-146 -47l-140 64l-34 177h400z" />
    <glyph glyph-name="ecircumflex" unicode="&#xea;" horiz-adv-x="525" 
d="M432 620l-104 160h-20l-146 -160h26l129 142l91 -142h24zM282 516l137 -68l23 -173h-380l71 177zM459 255l2 16l-24 190l-155 75l-163 -69l-77 -190l-3 -24l39 -190l155 -69l159 52l54 108l2 16h-20l-49 -109l-146 -47l-140 64l-34 177h400z" />
    <glyph glyph-name="edieresis" unicode="&#xeb;" horiz-adv-x="525" 
d="M400 720h-40l-5 -40h40zM260 720h-40l-5 -40h40zM282 516l137 -68l23 -173h-380l71 177zM459 255l2 16l-24 190l-155 75l-163 -69l-77 -190l-3 -24l39 -190l155 -69l159 52l54 108l2 16h-20l-49 -109l-146 -47l-140 64l-34 177h400z" />
    <glyph glyph-name="igrave" unicode="&#xec;" horiz-adv-x="180" 
d="M42 780l69 -160h22l-69 160h-22zM31 0h20l69 530h-20z" />
    <glyph glyph-name="iacute" unicode="&#xed;" horiz-adv-x="180" 
d="M222 780l-111 -160h22l111 160h-22zM31 0h20l69 530h-20z" />
    <glyph glyph-name="icircumflex" unicode="&#xee;" horiz-adv-x="180" 
d="M257 620l-104 160h-20l-146 -160h26l129 142l91 -142h24zM31 0h20l69 530h-20z" />
    <glyph glyph-name="idieresis" unicode="&#xef;" horiz-adv-x="180" 
d="M225 720h-40l-5 -40h40zM85 720h-40l-5 -40h40zM31 0h20l69 530h-20z" />
    <glyph glyph-name="eth" unicode="&#xf0;" horiz-adv-x="521" 
d="M423 806l-129 -70l-89 47l-92 23l-3 -20l78 -20l85 -42l-142 -78l-4 -24l164 89l46 -39l42 -49l46 -94l20 -104l-60 82l-107 29l-161 -69l-75 -190l-3 -24l33 -190l148 -69l161 69l75 190l3 24l2 185l-68 175l-39 47l-42 39l107 59zM220 14l-133 64l-28 175l3 24l69 175
l147 64l133 -64l28 -175l-3 -24l-69 -175z" />
    <glyph glyph-name="ntilde" unicode="&#xf1;" horiz-adv-x="489" 
d="M414 732l-21 -43l-33 -9l-66 29l-69 29l-45 -14l-27 -56h18l21 43l33 9l66 -29l69 -29l45 14l27 56h-18zM381 0l50 381l-31 118l-117 37l-118 -30l-69 -62l5 86h-16l-10 -118l-54 -412h20l55 419l70 65l117 32l101 -32l26 -110l-49 -374h20z" />
    <glyph glyph-name="ograve" unicode="&#xf2;" horiz-adv-x="522" 
d="M215 780l69 -160h22l-69 160h-22zM220 14l-133 64l-28 175l3 24l69 175l147 64l133 -64l28 -175l-3 -24l-69 -175zM220 -6l161 69l75 190l3 24l-33 190l-148 69l-161 -69l-75 -190l-3 -24l33 -190z" />
    <glyph glyph-name="oacute" unicode="&#xf3;" horiz-adv-x="522" 
d="M395 780l-111 -160h22l111 160h-22zM220 14l-133 64l-28 175l3 24l69 175l147 64l133 -64l28 -175l-3 -24l-69 -175zM220 -6l161 69l75 190l3 24l-33 190l-148 69l-161 -69l-75 -190l-3 -24l33 -190z" />
    <glyph glyph-name="ocircumflex" unicode="&#xf4;" horiz-adv-x="522" 
d="M430 620l-104 160h-20l-146 -160h26l129 142l91 -142h24zM220 14l-133 64l-28 175l3 24l69 175l147 64l133 -64l28 -175l-3 -24l-69 -175zM220 -6l161 69l75 190l3 24l-33 190l-148 69l-161 -69l-75 -190l-3 -24l33 -190z" />
    <glyph glyph-name="otilde" unicode="&#xf5;" horiz-adv-x="522" 
d="M427 732l-21 -43l-33 -9l-66 29l-69 29l-45 -14l-27 -56h18l21 43l33 9l66 -29l69 -29l45 14l27 56h-18zM220 14l-133 64l-28 175l3 24l69 175l147 64l133 -64l28 -175l-3 -24l-69 -175zM220 -6l161 69l75 190l3 24l-33 190l-148 69l-161 -69l-75 -190l-3 -24l33 -190z
" />
    <glyph glyph-name="odieresis" unicode="&#xf6;" horiz-adv-x="522" 
d="M398 720h-40l-5 -40h40zM258 720h-40l-5 -40h40zM220 14l-133 64l-28 175l3 24l69 175l147 64l133 -64l28 -175l-3 -24l-69 -175zM220 -6l161 69l75 190l3 24l-33 190l-148 69l-161 -69l-75 -190l-3 -24l33 -190z" />
    <glyph glyph-name="divide" unicode="&#xf7;" horiz-adv-x="600" 
d="M49 380h499l3 20h-499zM293 180h-40l-5 -40h40zM354 640h-40l-6 -40h40z" />
    <glyph glyph-name="oslash" unicode="&#xf8;" horiz-adv-x="526" 
d="M436 253l-69 -175l-147 -64l-75 14l-53 42l325 374l23 -73l-1 -94zM31 0l47 54l60 -45l82 -15l161 69l75 190l3 24v104l-28 79l61 70h-25l-47 -54l-60 45l-82 15l-161 -69l-75 -190l-3 -24v-104l28 -79l-61 -70h25zM59 253l3 24l69 175l147 64l75 -14l53 -42l-325 -374
l-23 73z" />
    <glyph glyph-name="ugrave" unicode="&#xf9;" horiz-adv-x="490" 
d="M192 780l69 -160h22l-69 160h-22zM80 530l-50 -381l31 -118l117 -37l118 30l69 62l-5 -86h16l10 118l54 412h-20l-55 -419l-70 -65l-117 -32l-101 32l-26 110l49 374h-20z" />
    <glyph glyph-name="uacute" unicode="&#xfa;" horiz-adv-x="490" 
d="M372 780l-111 -160h22l111 160h-22zM80 530l-50 -381l31 -118l117 -37l118 30l69 62l-5 -86h16l10 118l54 412h-20l-55 -419l-70 -65l-117 -32l-101 32l-26 110l49 374h-20z" />
    <glyph glyph-name="ucircumflex" unicode="&#xfb;" horiz-adv-x="490" 
d="M407 620l-104 160h-20l-146 -160h26l129 142l91 -142h24zM80 530l-50 -381l31 -118l117 -37l118 30l69 62l-5 -86h16l10 118l54 412h-20l-55 -419l-70 -65l-117 -32l-101 32l-26 110l49 374h-20z" />
    <glyph glyph-name="udieresis" unicode="&#xfc;" horiz-adv-x="490" 
d="M375 720h-40l-5 -40h40zM235 720h-40l-5 -40h40zM80 530l-50 -381l31 -118l117 -37l118 30l69 62l-5 -86h16l10 118l54 412h-20l-55 -419l-70 -65l-117 -32l-101 32l-26 110l49 374h-20z" />
    <glyph glyph-name="yacute" unicode="&#xfd;" horiz-adv-x="460" 
d="M362 780l-111 -160h22l111 160h-22zM186 44l-118 486h-21l127 -513l-111 -217h22l107 217l261 513h-23z" />
    <glyph glyph-name="thorn" unicode="&#xfe;" horiz-adv-x="506" 
d="M95 419l70 68l103 29l129 -64l24 -175l-3 -24l-67 -175l-144 -64l-101 31l-52 62zM125 800l-131 -1000h20l37 278l53 -56l103 -28l158 69l73 190l3 24l-29 190l-144 69l-105 -28l-64 -58l46 350h-20z" />
    <glyph glyph-name="ydieresis" unicode="&#xff;" horiz-adv-x="460" 
d="M365 720h-40l-5 -40h40zM225 720h-40l-5 -40h40zM186 44l-118 486h-21l127 -513l-111 -217h22l107 217l261 513h-23z" />
    <glyph glyph-name="Amacron" unicode="&#x100;" horiz-adv-x="590" 
d="M262 885h200l3 20h-200zM347 760l93 -510h-321zM340 790l-354 -790h22l102 230h334l42 -230h20l-146 790h-20z" />
    <glyph glyph-name="amacron" unicode="&#x101;" horiz-adv-x="482" 
d="M186 690h200l3 20h-200zM158 14l-96 33l-24 81l2 16l53 92l100 31l191 29l-24 -185l-63 -60zM18 128l34 -101l106 -33l132 31l70 61l-5 -86h16l10 118l32 246l-19 121l-131 51l-144 -52l-45 -118l-2 -16h20l41 119l130 47l117 -48l12 -114l-5 -38l-184 -28l-120 -36
l-63 -108z" />
    <glyph glyph-name="Abreve" unicode="&#x102;" horiz-adv-x="590" 
d="M355 852l-78 27l-19 71h-17l22 -84l93 -32l100 32l45 84h-19l-40 -71zM347 760l93 -510h-321zM340 790l-354 -790h22l102 230h334l42 -230h20l-146 790h-20z" />
    <glyph glyph-name="abreve" unicode="&#x103;" horiz-adv-x="485" 
d="M277 614l120 49l51 117h-19l-45 -104l-107 -44l-94 44l-18 104h-17l22 -117zM158 14l-96 33l-24 81l2 16l53 92l100 31l191 29l-24 -185l-63 -60zM18 128l34 -101l106 -33l132 31l70 61l-5 -86h16l10 118l32 246l-19 121l-131 51l-144 -52l-45 -118l-2 -16h20l41 119
l130 47l117 -48l12 -114l-5 -38l-184 -28l-120 -36l-63 -108z" />
    <glyph glyph-name="Aogonek" unicode="&#x104;" horiz-adv-x="590" 
d="M521 -170l-31 -12l-44 -6l-45 13l-19 46l43 89l81 40l-146 790h-20l-354 -790h22l102 230h334l40 -220l-82 -47l-38 -92l24 -58l58 -19l47 6l32 13zM347 760l93 -510h-321z" />
    <glyph glyph-name="aogonek" unicode="&#x105;" horiz-adv-x="482" 
d="M386 -170l-31 -12l-44 -6l-45 13l-19 46l43 89l81 40l10 118l32 246l-19 121l-131 51l-144 -52l-45 -118l-2 -16h20l41 119l130 47l117 -48l12 -114l-5 -38l-184 -28l-120 -36l-63 -108l-2 -16l34 -101l106 -33l132 31l70 61l-5 -74l-86 -47l-40 -94l24 -58l58 -19l47 6
l32 13zM158 14l-96 33l-24 81l2 16l53 92l100 31l191 29l-24 -185l-63 -60z" />
    <glyph glyph-name="Cacute" unicode="&#x106;" horiz-adv-x="587" 
d="M442 950l-77 -110h22l77 110h-22zM65 378l26 -293l176 -91l176 62l73 170l3 24h-20l-77 -184l-152 -52h-6l-158 85l-20 279l3 24l93 281l181 83h6l143 -56l19 -210h20l3 24l-28 202l-160 60l-198 -88l-100 -296z" />
    <glyph glyph-name="cacute" unicode="&#x107;" horiz-adv-x="503" 
d="M400 780l-111 -160h22l111 160h-22zM39 253l33 -190l148 -69l149 54l53 111l2 16h-20l-52 -116l-132 -45l-133 64l-28 175l3 24l69 175l147 64l127 -48l21 -123h20l2 16l-25 119l-145 56l-161 -69l-75 -190z" />
    <glyph glyph-name="Ccircumflex" unicode="&#x108;" horiz-adv-x="587" 
d="M291 840l99 95l73 -95h23l-85 110h-20l-115 -110h25zM65 378l26 -293l176 -91l176 62l73 170l3 24h-20l-77 -184l-152 -52h-6l-158 85l-20 279l3 24l93 281l181 83h6l143 -56l19 -210h20l3 24l-28 202l-160 60l-198 -88l-100 -296z" />
    <glyph glyph-name="ccircumflex" unicode="&#x109;" horiz-adv-x="503" 
d="M435 620l-104 160h-20l-146 -160h26l129 142l91 -142h24zM39 253l33 -190l148 -69l149 54l53 111l2 16h-20l-52 -116l-132 -45l-133 64l-28 175l3 24l69 175l147 64l127 -48l21 -123h20l2 16l-25 119l-145 56l-161 -69l-75 -190z" />
    <glyph glyph-name="Cdotaccent" unicode="&#x10a;" horiz-adv-x="587" 
d="M406 915h-40l-5 -40h40zM65 378l26 -293l176 -91l176 62l73 170l3 24h-20l-77 -184l-152 -52h-6l-158 85l-20 279l3 24l93 281l181 83h6l143 -56l19 -210h20l3 24l-28 202l-160 60l-198 -88l-100 -296z" />
    <glyph glyph-name="cdotaccent" unicode="&#x10b;" horiz-adv-x="503" 
d="M333 720h-40l-5 -40h40zM39 253l33 -190l148 -69l149 54l53 111l2 16h-20l-52 -116l-132 -45l-133 64l-28 175l3 24l69 175l147 64l127 -48l21 -123h20l2 16l-25 119l-145 56l-161 -69l-75 -190z" />
    <glyph glyph-name="Ccaron" unicode="&#x10c;" horiz-adv-x="587" 
d="M476 950l-99 -95l-73 95h-23l85 -110h20l115 110h-25zM65 378l26 -293l176 -91l176 62l73 170l3 24h-20l-77 -184l-152 -52h-6l-158 85l-20 279l3 24l93 281l181 83h6l143 -56l19 -210h20l3 24l-28 202l-160 60l-198 -88l-100 -296z" />
    <glyph glyph-name="ccaron" unicode="&#x10d;" horiz-adv-x="505" 
d="M186 780l104 -160h20l146 160h-26l-129 -142l-91 142h-24zM39 253l33 -190l148 -69l149 54l53 111l2 16h-20l-52 -116l-132 -45l-133 64l-28 175l3 24l69 175l147 64l127 -48l21 -123h20l2 16l-25 119l-145 56l-161 -69l-75 -190z" />
    <glyph glyph-name="Dcaron" unicode="&#x10e;" horiz-adv-x="608" 
d="M431 950l-99 -95l-73 95h-23l85 -110h20l115 110h-25zM54 20l97 740h170l180 -81l36 -277l-3 -24l-112 -278l-207 -80h-161zM558 402l-43 294l-194 84h-188l-102 -780h184l219 84l121 294z" />
    <glyph glyph-name="dcaron" unicode="&#x10f;" horiz-adv-x="510" 
d="M583 780l-21 -160h10l31 160h-20zM426 423l-41 -312l-70 -68l-103 -29l-129 64l-24 175l3 24l67 175l144 64l101 -31zM273 536l-158 -69l-73 -190l-3 -24l29 -190l144 -69l106 29l67 63l-5 -86h16l10 118l89 682h-20l-46 -348l-53 56z" />
    <glyph glyph-name="Dcroat" unicode="&#x110;" horiz-adv-x="663" 
d="M109 20l48 368h230l3 20h-230l46 352h170l180 -81l36 -277l-3 -24l-112 -278l-207 -80h-161zM27 388h110l-51 -388h184l219 84l121 294l3 24l-43 294l-194 84h-188l-49 -372h-109z" />
    <glyph glyph-name="dcroat" unicode="&#x111;" horiz-adv-x="510" 
d="M291 655h165l-27 -203l-53 56l-103 28l-158 -69l-73 -190l-3 -24l29 -190l144 -69l106 29l67 63l-5 -86h16l10 118l70 537h105l3 20h-105l16 125h-20l-16 -125h-165zM426 423l-41 -312l-70 -68l-103 -29l-129 64l-24 175l3 24l67 175l144 64l101 -31z" />
    <glyph glyph-name="Emacron" unicode="&#x112;" horiz-adv-x="540" 
d="M257 885h200l3 20h-200zM133 780l-102 -780h410l3 20h-390l48 368h339l3 20h-339l46 352h389l3 20h-410z" />
    <glyph glyph-name="emacron" unicode="&#x113;" horiz-adv-x="525" 
d="M206 690h200l3 20h-200zM282 516l137 -68l23 -173h-380l71 177zM459 255l2 16l-24 190l-155 75l-163 -69l-77 -190l-3 -24l39 -190l155 -69l159 52l54 108l2 16h-20l-49 -109l-146 -47l-140 64l-34 177h400z" />
    <glyph glyph-name="Ebreve" unicode="&#x114;" horiz-adv-x="540" 
d="M350 852l-78 27l-19 71h-17l22 -84l93 -32l100 32l45 84h-19l-40 -71zM133 780l-102 -780h410l3 20h-390l48 368h339l3 20h-339l46 352h389l3 20h-410z" />
    <glyph glyph-name="ebreve" unicode="&#x115;" horiz-adv-x="530" 
d="M297 614l120 49l51 117h-19l-45 -104l-107 -44l-94 44l-18 104h-17l22 -117zM282 516l137 -68l23 -173h-380l71 177zM459 255l2 16l-24 190l-155 75l-163 -69l-77 -190l-3 -24l39 -190l155 -69l159 52l54 108l2 16h-20l-49 -109l-146 -47l-140 64l-34 177h400z" />
    <glyph glyph-name="Edotaccent" unicode="&#x116;" horiz-adv-x="540" 
d="M381 915h-40l-5 -40h40zM133 780l-102 -780h410l3 20h-390l48 368h339l3 20h-339l46 352h389l3 20h-410z" />
    <glyph glyph-name="edotaccent" unicode="&#x117;" horiz-adv-x="525" 
d="M330 720h-40l-5 -40h40zM282 516l137 -68l23 -173h-380l71 177zM459 255l2 16l-24 190l-155 75l-163 -69l-77 -190l-3 -24l39 -190l155 -69l159 52l54 108l2 16h-20l-49 -109l-146 -47l-140 64l-34 177h400z" />
    <glyph glyph-name="Eogonek" unicode="&#x118;" horiz-adv-x="540" 
d="M456 -170l-31 -12l-44 -6l-45 13l-19 46l43 89l81 40l3 20h-390l48 368h339l3 20h-339l46 352h389l3 20h-410l-102 -780h362l-66 -47l-28 -82l24 -58l58 -19l47 6l32 13z" />
    <glyph glyph-name="eogonek" unicode="&#x119;" horiz-adv-x="525" 
d="M282 516l137 -68l23 -173h-380l71 177zM312 -170l-31 -12l-44 -6l-45 13l-19 46l44 91l80 38l109 60l40 94l2 16h-20l-49 -109l-146 -47l-140 64l-34 177h400l2 16l-24 190l-155 75l-163 -69l-77 -190l-3 -24l39 -190l155 -69h4l-58 -47l-24 -76l24 -58l58 -19l47 6
l32 13z" />
    <glyph glyph-name="Ecaron" unicode="&#x11a;" horiz-adv-x="540" 
d="M451 950l-99 -95l-73 95h-23l85 -110h20l115 110h-25zM133 780l-102 -780h410l3 20h-390l48 368h339l3 20h-339l46 352h389l3 20h-410z" />
    <glyph glyph-name="ecaron" unicode="&#x11b;" horiz-adv-x="525" 
d="M183 780l104 -160h20l146 160h-26l-129 -142l-91 142h-24zM282 516l137 -68l23 -173h-380l71 177zM459 255l2 16l-24 190l-155 75l-163 -69l-77 -190l-3 -24l39 -190l155 -69l159 52l54 108l2 16h-20l-49 -109l-146 -47l-140 64l-34 177h400z" />
    <glyph glyph-name="Gcircumflex" unicode="&#x11c;" horiz-adv-x="620" 
d="M301 840l99 95l73 -95h23l-85 110h-20l-115 -110h25zM288 -6l140 27l83 56l37 285h-179l-3 -20h160l-34 -256l-76 -48l-125 -24h-6l-171 85l-28 279l3 24l97 281l181 83h6l150 -60l23 -206h20l3 24l-29 196l-170 66l-200 -88l-102 -296l-3 -24l32 -293z" />
    <glyph glyph-name="gcircumflex" unicode="&#x11d;" horiz-adv-x="510" 
d="M424 620l-104 160h-20l-146 -160h26l129 142l91 -142h24zM390 151l-69 -68l-102 -29l-128 54l-30 165l3 24l69 165l138 54l102 -31l53 -62zM180 -206l149 54l60 139l55 421l21 122h-15l-18 -83l-56 60l-105 29l-152 -59l-75 -180l-3 -24l35 -180l143 -59l105 28l62 58
l-15 -120l-55 -136l-136 -50l-133 46l-21 140h-20l-2 -16l30 -139z" />
    <glyph glyph-name="Gbreve" unicode="&#x11e;" horiz-adv-x="620" 
d="M385 852l-78 27l-19 71h-17l22 -84l93 -32l100 32l45 84h-19l-40 -71zM288 -6l140 27l83 56l37 285h-179l-3 -20h160l-34 -256l-76 -48l-125 -24h-6l-171 85l-28 279l3 24l97 281l181 83h6l150 -60l23 -206h20l3 24l-29 196l-170 66l-200 -88l-102 -296l-3 -24l32 -293z
" />
    <glyph glyph-name="gbreve" unicode="&#x11f;" horiz-adv-x="510" 
d="M289 614l120 49l51 117h-19l-45 -104l-107 -44l-94 44l-18 104h-17l22 -117zM390 151l-69 -68l-102 -29l-128 54l-30 165l3 24l69 165l138 54l102 -31l53 -62zM180 -206l149 54l60 139l55 421l21 122h-15l-18 -83l-56 60l-105 29l-152 -59l-75 -180l-3 -24l35 -180
l143 -59l105 28l62 58l-15 -120l-55 -136l-136 -50l-133 46l-21 140h-20l-2 -16l30 -139z" />
    <glyph glyph-name="Gdotaccent" unicode="&#x120;" horiz-adv-x="620" 
d="M416 915h-40l-5 -40h40zM288 -6l140 27l83 56l37 285h-179l-3 -20h160l-34 -256l-76 -48l-125 -24h-6l-171 85l-28 279l3 24l97 281l181 83h6l150 -60l23 -206h20l3 24l-29 196l-170 66l-200 -88l-102 -296l-3 -24l32 -293z" />
    <glyph glyph-name="gdotaccent" unicode="&#x121;" horiz-adv-x="510" 
d="M322 720h-40l-5 -40h40zM390 151l-69 -68l-102 -29l-128 54l-30 165l3 24l69 165l138 54l102 -31l53 -62zM180 -206l149 54l60 139l55 421l21 122h-15l-18 -83l-56 60l-105 29l-152 -59l-75 -180l-3 -24l35 -180l143 -59l105 28l62 58l-15 -120l-55 -136l-136 -50
l-133 46l-21 140h-20l-2 -16l30 -139z" />
    <glyph glyph-name="Gcommaaccent" unicode="&#x122;" horiz-adv-x="620" 
d="M297 -70h-40l-5 -40h20l-30 -63l-41 -13l-2 -20l59 23l35 81zM288 -6l140 27l83 56l37 285h-179l-3 -20h160l-34 -256l-76 -48l-125 -24h-6l-171 85l-28 279l3 24l97 281l181 83h6l150 -60l23 -206h20l3 24l-29 196l-170 66l-200 -88l-102 -296l-3 -24l32 -293z" />
    <glyph glyph-name="gcommaaccent" unicode="&#x123;" horiz-adv-x="510" 
d="M273 650h40l5 40h-20l30 63l41 13l2 20l-59 -23l-35 -81zM390 151l-69 -68l-102 -29l-128 54l-30 165l3 24l69 165l138 54l102 -31l53 -62zM180 -206l149 54l60 139l55 421l21 122h-15l-18 -83l-56 60l-105 29l-152 -59l-75 -180l-3 -24l35 -180l143 -59l105 28l62 58
l-15 -120l-55 -136l-136 -50l-133 46l-21 140h-20l-2 -16l30 -139z" />
    <glyph glyph-name="Hcircumflex" unicode="&#x124;" horiz-adv-x="620" 
d="M286 840l99 95l73 -95h23l-85 110h-20l-115 -110h25zM573 780l-49 -372h-420l49 372h-20l-102 -780h20l51 388h420l-51 -388h20l102 780h-20z" />
    <glyph glyph-name="hcircumflex" unicode="&#x125;" horiz-adv-x="488" 
d="M56 840l99 95l73 -95h23l-85 110h-20l-115 -110h25zM21 0h20l55 419l70 65l117 32l101 -32l26 -110l-49 -374h20l50 381l-31 118l-117 37l-114 -28l-69 -59l46 351h-20z" />
    <glyph glyph-name="Hbar" unicode="&#x126;" horiz-adv-x="620" 
d="M104 408l23 176h420l-23 -176h-420zM573 780l-23 -176h-420l23 176h-20l-102 -780h20l51 388h420l-51 -388h20l102 780h-20z" />
    <glyph glyph-name="hbar" unicode="&#x127;" horiz-adv-x="488" 
d="M2 655h105l-86 -655h20l55 419l70 65l117 32l101 -32l26 -110l-49 -374h20l50 381l-31 118l-117 37l-114 -28l-69 -59l27 206h165l3 20h-165l16 125h-20l-16 -125h-105z" />
    <glyph glyph-name="Itilde" unicode="&#x128;" horiz-adv-x="190" 
d="M285 927l-21 -43l-33 -9l-66 29l-69 29l-45 -14l-27 -56h18l21 43l33 9l66 -29l69 -29l45 14l27 56h-18zM158 780h-20l-102 -780h20z" />
    <glyph glyph-name="itilde" unicode="&#x129;" horiz-adv-x="180" 
d="M254 732l-21 -43l-33 -9l-66 29l-69 29l-45 -14l-27 -56h18l21 43l33 9l66 -29l69 -29l45 14l27 56h-18zM31 0h20l69 530h-20z" />
    <glyph glyph-name="Imacron" unicode="&#x12a;" horiz-adv-x="190" 
d="M62 885h200l3 20h-200zM158 780h-20l-102 -780h20z" />
    <glyph glyph-name="imacron" unicode="&#x12b;" horiz-adv-x="180" 
d="M31 690h200l3 20h-200zM31 0h20l69 530h-20z" />
    <glyph glyph-name="Ibreve" unicode="&#x12c;" horiz-adv-x="190" 
d="M155 852l-78 27l-19 71h-17l22 -84l93 -32l100 32l45 84h-19l-40 -71zM158 780h-20l-102 -780h20z" />
    <glyph glyph-name="ibreve" unicode="&#x12d;" horiz-adv-x="180" 
d="M122 614l120 49l51 117h-19l-45 -104l-107 -44l-94 44l-18 104h-17l22 -117zM31 0h20l69 530h-20z" />
    <glyph glyph-name="Iogonek" unicode="&#x12e;" horiz-adv-x="190" 
d="M71 -170l-31 -12l-44 -6l-45 13l-19 46l43 89l81 40l102 780h-20l-101 -769l-84 -47l-39 -93l24 -58l58 -19l47 6l32 13z" />
    <glyph glyph-name="iogonek" unicode="&#x12f;" horiz-adv-x="180" 
d="M66 -170l-31 -12l-44 -6l-45 13l-19 46l43 89l81 40l69 530h-20l-68 -519l-84 -47l-39 -93l24 -58l58 -19l47 6l32 13zM155 720h-40l-5 -40h40z" />
    <glyph glyph-name="Idotaccent" unicode="&#x130;" horiz-adv-x="190" 
d="M186 915h-40l-5 -40h40zM158 780h-20l-102 -780h20z" />
    <glyph glyph-name="dotlessi" unicode="&#x131;" horiz-adv-x="180" 
d="M31 0h20l69 530h-20z" />
    <glyph glyph-name="IJ" unicode="&#x132;" horiz-adv-x="450" 
d="M322 142l-45 -102l-86 -26l-36 4l-23 6l-2 -20l19 -6l43 -4l95 29l54 113l85 644h-20zM158 780h-20l-102 -780h20z" />
    <glyph glyph-name="ij" unicode="&#x133;" horiz-adv-x="320" 
d="M295 720h-40l-5 -40h40zM163 -63l-45 -99l-86 -24l-36 3l-23 7l-2 -20l19 -6l43 -4l95 28l54 109l78 599h-20zM155 720h-40l-5 -40h40zM31 0h20l69 530h-20z" />
    <glyph glyph-name="Jcircumflex" unicode="&#x134;" horiz-adv-x="470" 
d="M359 840l99 95l73 -95h23l-85 110h-20l-115 -110h25zM426 780l-70 -535l-56 -174l-133 -57l-120 60l-11 173h-20l-3 -24l20 -165l134 -64l147 62l59 167l73 557h-20z" />
    <glyph glyph-name="jcircumflex" unicode="&#x135;" horiz-adv-x="180" 
d="M257 620l-104 160h-20l-146 -160h26l129 142l91 -142h24zM23 -63l-45 -99l-86 -24l-36 3l-23 7l-2 -20l19 -6l43 -4l95 28l54 109l78 599h-20z" />
    <glyph glyph-name="Kcommaaccent" unicode="&#x136;" horiz-adv-x="518" 
d="M153 780h-20l-102 -780h20l32 245l151 179l174 -424h23l-183 441l285 339h-28l-418 -501zM221 -70h-40l-5 -40h20l-30 -63l-41 -13l-2 -20l59 23l35 81z" />
    <glyph glyph-name="kcommaaccent" unicode="&#x137;" horiz-adv-x="458" 
d="M201 -70h-40l-5 -40h20l-30 -63l-41 -13l-2 -20l59 23l35 81zM151 800h-20l-105 -800h20l22 171l150 143l135 -314h23l-142 329l211 201h-28l-345 -329z" />
    <glyph glyph-name="kgreenlandic" unicode="&#x138;" horiz-adv-x="458" 
d="M95 530l-69 -530h20l22 171l150 143l135 -314h23l-142 329l211 201h-28l-345 -329l43 329h-20z" />
    <glyph glyph-name="Lacute" unicode="&#x139;" horiz-adv-x="464" 
d="M401 0l3 20h-350l100 760h-21l-102 -780h370zM217 950l-77 -110h22l77 110h-22z" />
    <glyph glyph-name="lacute" unicode="&#x13a;" horiz-adv-x="180" 
d="M217 950l-77 -110h22l77 110h-22zM31 0h20l105 800h-20z" />
    <glyph glyph-name="Lcommaaccent" unicode="&#x13b;" horiz-adv-x="464" 
d="M226 -70h-40l-5 -40h20l-30 -63l-41 -13l-2 -20l59 23l35 81zM401 0l3 20h-350l100 760h-21l-102 -780h370z" />
    <glyph glyph-name="lcommaaccent" unicode="&#x13c;" horiz-adv-x="180" 
d="M51 -70h-40l-5 -40h20l-30 -63l-41 -13l-2 -20l59 23l35 81zM31 0h20l105 800h-20z" />
    <glyph glyph-name="Lcaron" unicode="&#x13d;" horiz-adv-x="464" 
d="M353 780l-21 -160h10l31 160h-20zM401 0l3 20h-350l100 760h-21l-102 -780h370z" />
    <glyph glyph-name="lcaron" unicode="&#x13e;" horiz-adv-x="180" 
d="M243 780l-21 -160h10l31 160h-20zM31 0h20l105 800h-20z" />
    <glyph glyph-name="Ldot" unicode="&#x13f;" horiz-adv-x="464" 
d="M347 418h-40l-5 -40h40zM401 0l3 20h-350l100 760h-21l-102 -780h370z" />
    <glyph glyph-name="ldot" unicode="&#x140;" horiz-adv-x="280" 
d="M248 360h-40l-5 -40h40zM31 0h20l105 800h-20z" />
    <glyph glyph-name="Lslash" unicode="&#x141;" horiz-adv-x="519" 
d="M17 306l-4 -24l118 63l-45 -345h370l2 20h-349l44 337l247 133l4 24l-248 -133l53 399h-21l-54 -411z" />
    <glyph glyph-name="lslash" unicode="&#x142;" horiz-adv-x="260" 
d="M260 530l-109 -74l45 344h-20l-47 -358l-99 -66l-3 -25l98 66l-54 -417h20l56 431l110 74z" />
    <glyph glyph-name="Nacute" unicode="&#x143;" horiz-adv-x="640" 
d="M447 950l-77 -110h22l77 110h-22zM496 32l-341 748h-22l-102 -780h20l79 605l18 143l341 -748h22l102 780h-20l-79 -605z" />
    <glyph glyph-name="nacute" unicode="&#x144;" horiz-adv-x="488" 
d="M382 780l-111 -160h22l111 160h-22zM381 0l50 381l-31 118l-117 37l-118 -30l-69 -62l5 86h-16l-10 -118l-54 -412h20l55 419l70 65l117 32l101 -32l26 -110l-49 -374h20z" />
    <glyph glyph-name="Ncommaaccent" unicode="&#x145;" horiz-adv-x="640" 
d="M281 -70h-40l-5 -40h20l-30 -63l-41 -13l-2 -20l59 23l35 81zM496 32l-341 748h-22l-102 -780h20l79 605l18 143l341 -748h22l102 780h-20l-79 -605z" />
    <glyph glyph-name="ncommaaccent" unicode="&#x146;" horiz-adv-x="488" 
d="M211 -70h-40l-5 -40h20l-30 -63l-41 -13l-2 -20l59 23l35 81zM381 0l50 381l-31 118l-117 37l-118 -30l-69 -62l5 86h-16l-10 -118l-54 -412h20l55 419l70 65l117 32l101 -32l26 -110l-49 -374h20z" />
    <glyph glyph-name="Ncaron" unicode="&#x147;" horiz-adv-x="640" 
d="M481 950l-99 -95l-73 95h-23l85 -110h20l115 110h-25zM496 32l-341 748h-22l-102 -780h20l79 605l18 143l341 -748h22l102 780h-20l-79 -605z" />
    <glyph glyph-name="ncaron" unicode="&#x148;" horiz-adv-x="490" 
d="M168 780l104 -160h20l146 160h-26l-129 -142l-91 142h-24zM381 0l50 381l-31 118l-117 37l-118 -30l-69 -62l5 86h-16l-10 -118l-54 -412h20l55 419l70 65l117 32l101 -32l26 -110l-49 -374h20z" />
    <glyph glyph-name="Eng" unicode="&#x14a;" horiz-adv-x="640" 
d="M491 -4l-8 -59l-45 -99l-86 -24l-36 3l-23 7l-2 -20l19 -6l43 -4l95 28l54 109l111 849h-20l-79 -605l-18 -143l-341 748h-22l-102 -780h20l79 605l18 143z" />
    <glyph glyph-name="eng" unicode="&#x14b;" horiz-adv-x="488" 
d="M431 381l-31 118l-117 37l-118 -30l-69 -62l5 86h-16l-10 -118l-54 -412h20l55 419l70 65l117 32l101 -32l26 -110l-57 -437l-45 -99l-86 -24l-36 3l-23 7l-2 -20l19 -6l43 -4l95 28l54 109z" />
    <glyph glyph-name="Omacron" unicode="&#x14c;" horiz-adv-x="621" 
d="M282 885h200l3 20h-200zM361 786l-195 -88l-98 -296l-3 -24l28 -293l179 -91l195 88l98 296l3 24l-28 293zM269 14l-160 85l-23 279l3 24l90 281l179 83h6l161 -84l22 -280l-3 -24l-90 -281l-179 -83h-6z" />
    <glyph glyph-name="omacron" unicode="&#x14d;" horiz-adv-x="522" 
d="M204 690h200l3 20h-200zM220 14l-133 64l-28 175l3 24l69 175l147 64l133 -64l28 -175l-3 -24l-69 -175zM220 -6l161 69l75 190l3 24l-33 190l-148 69l-161 -69l-75 -190l-3 -24l33 -190z" />
    <glyph glyph-name="Obreve" unicode="&#x14e;" horiz-adv-x="621" 
d="M375 852l-78 27l-19 71h-17l22 -84l93 -32l100 32l45 84h-19l-40 -71zM361 786l-195 -88l-98 -296l-3 -24l28 -293l179 -91l195 88l98 296l3 24l-28 293zM269 14l-160 85l-23 279l3 24l90 281l179 83h6l161 -84l22 -280l-3 -24l-90 -281l-179 -83h-6z" />
    <glyph glyph-name="obreve" unicode="&#x14f;" horiz-adv-x="526" 
d="M295 614l120 49l51 117h-19l-45 -104l-107 -44l-94 44l-18 104h-17l22 -117zM220 14l-133 64l-28 175l3 24l69 175l147 64l133 -64l28 -175l-3 -24l-69 -175zM220 -6l161 69l75 190l3 24l-33 190l-148 69l-161 -69l-75 -190l-3 -24l33 -190z" />
    <glyph glyph-name="Ohungarumlaut" unicode="&#x150;" horiz-adv-x="621" 
d="M392 950l-77 -110h22l77 110h-22zM492 950l-77 -110h22l77 110h-22zM361 786l-195 -88l-98 -296l-3 -24l28 -293l179 -91l195 88l98 296l3 24l-28 293zM269 14l-160 85l-23 279l3 24l90 281l179 83h6l161 -84l22 -280l-3 -24l-90 -281l-179 -83h-6z" />
    <glyph glyph-name="ohungarumlaut" unicode="&#x151;" horiz-adv-x="526" 
d="M345 780l-111 -160h22l111 160h-22zM445 780l-111 -160h22l111 160h-22zM220 14l-133 64l-28 175l3 24l69 175l147 64l133 -64l28 -175l-3 -24l-69 -175zM220 -6l161 69l75 190l3 24l-33 190l-148 69l-161 -69l-75 -190l-3 -24l33 -190z" />
    <glyph glyph-name="OE" unicode="&#x152;" horiz-adv-x="940" 
d="M841 0l3 20h-390l48 368h339l3 20h-339l46 352h389l3 20h-540l-219 -84l-121 -294l-3 -24l44 -294l193 -84h544zM531 760l-97 -740h-137l-180 81l-36 277l3 24l112 278l207 80h128z" />
    <glyph glyph-name="oe" unicode="&#x153;" horiz-adv-x="921" 
d="M855 255l2 16l-24 190l-155 75l-138 -46l-82 -130l-52 130l-128 46l-161 -69l-75 -190l-3 -24l33 -190l148 -69l137 47l79 131l59 -131l134 -47l159 52l54 108l2 16h-20l-49 -109l-146 -47l-140 64l-34 177h400zM678 516l137 -68l23 -173h-380l71 177zM220 14l-133 64
l-28 175l3 24l69 175l147 64l133 -64l28 -175l-3 -24l-69 -175z" />
    <glyph glyph-name="Racute" unicode="&#x154;" horiz-adv-x="550" 
d="M387 950l-77 -110h22l77 110h-22zM98 360l52 400h170l128 -35l51 -156l-3 -24l-90 -154l-136 -31h-172zM96 340h174l29 1l29 3l97 -344h20l-98 348l109 58l61 139l3 24l-50 166l-150 45h-187l-102 -780h20z" />
    <glyph glyph-name="racute" unicode="&#x155;" horiz-adv-x="297" 
d="M292 780l-111 -160h22l111 160h-22zM261 536l-102 -30l-63 -62l5 86h-16l-10 -118l-54 -412h20l55 419l60 63l108 34h9l3 19l-4 1h-11z" />
    <glyph glyph-name="Rcommaaccent" unicode="&#x156;" horiz-adv-x="550" 
d="M241 -70h-40l-5 -40h20l-30 -63l-41 -13l-2 -20l59 23l35 81zM98 360l52 400h170l128 -35l51 -156l-3 -24l-90 -154l-136 -31h-172zM96 340h174l29 1l29 3l97 -344h20l-98 348l109 58l61 139l3 24l-50 166l-150 45h-187l-102 -780h20z" />
    <glyph glyph-name="rcommaaccent" unicode="&#x157;" horiz-adv-x="297" 
d="M46 -70h-40l-5 -40h20l-30 -63l-41 -13l-2 -20l59 23l35 81zM261 536l-102 -30l-63 -62l5 86h-16l-10 -118l-54 -412h20l55 419l60 63l108 34h9l3 19l-4 1h-11z" />
    <glyph glyph-name="Rcaron" unicode="&#x158;" horiz-adv-x="550" 
d="M421 950l-99 -95l-73 95h-23l85 -110h20l115 110h-25zM98 360l52 400h170l128 -35l51 -156l-3 -24l-90 -154l-136 -31h-172zM96 340h174l29 1l29 3l97 -344h20l-98 348l109 58l61 139l3 24l-50 166l-150 45h-187l-102 -780h20z" />
    <glyph glyph-name="rcaron" unicode="&#x159;" horiz-adv-x="297" 
d="M78 780l104 -160h20l146 160h-26l-129 -142l-91 142h-24zM261 536l-102 -30l-63 -62l5 86h-16l-10 -118l-54 -412h20l55 419l60 63l108 34h9l3 19l-4 1h-11z" />
    <glyph glyph-name="Sacute" unicode="&#x15a;" horiz-adv-x="576" 
d="M417 950l-77 -110h22l77 110h-22zM289 395l162 -63l35 -134l-3 -24l-76 -123l-158 -37h-6l-160 57l-30 179h-20l-3 -24l39 -171l177 -61l173 39l85 141l3 24l-35 143l-171 73l-163 58l-35 114l3 24l75 117l150 39h6l156 -56l31 -190h20l3 24l-38 179l-175 63l-168 -42
l-81 -134l-3 -24l36 -123z" />
    <glyph glyph-name="sacute" unicode="&#x15b;" horiz-adv-x="478" 
d="M372 780l-111 -160h22l111 160h-22zM213 261l129 -30l38 -77l-49 -101l-131 -39l-136 40l-22 106h-20l-2 -16l30 -105l150 -45l140 39l58 100l1 8l-27 94l-135 43l-127 29l-34 68l46 104l128 37l131 -40l22 -116h20l2 16l-29 115l-146 45l-133 -37l-59 -99l-1 -8l23 -86z
" />
    <glyph glyph-name="Scircumflex" unicode="&#x15c;" horiz-adv-x="576" 
d="M266 840l99 95l73 -95h23l-85 110h-20l-115 -110h25zM289 395l162 -63l35 -134l-3 -24l-76 -123l-158 -37h-6l-160 57l-30 179h-20l-3 -24l39 -171l177 -61l173 39l85 141l3 24l-35 143l-171 73l-163 58l-35 114l3 24l75 117l150 39h6l156 -56l31 -190h20l3 24l-38 179
l-175 63l-168 -42l-81 -134l-3 -24l36 -123z" />
    <glyph glyph-name="scircumflex" unicode="&#x15d;" horiz-adv-x="478" 
d="M407 620l-104 160h-20l-146 -160h26l129 142l91 -142h24zM213 261l129 -30l38 -77l-49 -101l-131 -39l-136 40l-22 106h-20l-2 -16l30 -105l150 -45l140 39l58 100l1 8l-27 94l-135 43l-127 29l-34 68l46 104l128 37l131 -40l22 -116h20l2 16l-29 115l-146 45l-133 -37
l-59 -99l-1 -8l23 -86z" />
    <glyph glyph-name="Scedilla" unicode="&#x15e;" horiz-adv-x="576" 
d="M137 -186l38 -15l43 -5l66 17l30 63l-25 49l-53 13h-10l-9 -1l29 59l173 39l85 141l3 24l-35 143l-171 73l-163 58l-35 114l3 24l75 117l150 39h6l156 -56l31 -190h20l3 24l-38 179l-175 63l-168 -42l-81 -134l-3 -24l36 -123l171 -68l162 -63l35 -134l-3 -24l-76 -123
l-158 -37h-6l-160 57l-30 179h-20l-3 -24l34 -166l163 -65l-33 -68l9 -11l8 1l18 1l47 -7l20 -37l-25 -50l-53 -12l-40 5l-33 13z" />
    <glyph glyph-name="scedilla" unicode="&#x15f;" horiz-adv-x="478" 
d="M91 -186l38 -15l43 -5l66 17l30 63l-25 49l-53 13h-10l-9 -1l29 59l140 39l58 100l1 8l-27 94l-135 43l-127 29l-34 68l46 104l128 37l131 -40l22 -116h20l2 16l-29 115l-146 45l-133 -37l-59 -99l-1 -8l23 -86l133 -45l129 -30l38 -77l-49 -101l-131 -39l-136 40
l-22 106h-20l-2 -16l27 -101l134 -48l-33 -68l9 -11l8 1l18 1l47 -7l20 -37l-25 -50l-53 -12l-40 5l-33 13z" />
    <glyph glyph-name="Scaron" unicode="&#x160;" horiz-adv-x="576" 
d="M451 950l-99 -95l-73 95h-23l85 -110h20l115 110h-25zM289 395l162 -63l35 -134l-3 -24l-76 -123l-158 -37h-6l-160 57l-30 179h-20l-3 -24l39 -171l177 -61l173 39l85 141l3 24l-35 143l-171 73l-163 58l-35 114l3 24l75 117l150 39h6l156 -56l31 -190h20l3 24l-38 179
l-175 63l-168 -42l-81 -134l-3 -24l36 -123z" />
    <glyph glyph-name="scaron" unicode="&#x161;" horiz-adv-x="480" 
d="M158 780l104 -160h20l146 160h-26l-129 -142l-91 142h-24zM213 261l129 -30l38 -77l-49 -101l-131 -39l-136 40l-22 106h-20l-2 -16l30 -105l150 -45l140 39l58 100l1 8l-27 94l-135 43l-127 29l-34 68l46 104l128 37l131 -40l22 -116h20l2 16l-29 115l-146 45l-133 -37
l-59 -99l-1 -8l23 -86z" />
    <glyph glyph-name="Tcommaaccent" unicode="&#x162;" horiz-adv-x="490" 
d="M206 -70h-40l-5 -40h20l-30 -63l-41 -13l-2 -20l59 23l35 81zM305 760h209l3 20h-439l-3 -20h209l-99 -760h20z" />
    <glyph glyph-name="tcommaaccent" unicode="&#x163;" horiz-adv-x="360" 
d="M171 -70h-40l-5 -40h20l-30 -63l-41 -13l-2 -20l59 23l35 81zM155 530l20 150h-20l-20 -150h-85l-3 -20h86l-50 -381l26 -108l91 -27l41 4l20 6l3 20l-25 -6l-39 -4l-78 25l-18 98l49 373h184l3 20h-185z" />
    <glyph glyph-name="Tcaron" unicode="&#x164;" horiz-adv-x="490" 
d="M406 950l-99 -95l-73 95h-23l85 -110h20l115 110h-25zM305 760h209l3 20h-439l-3 -20h209l-99 -760h20z" />
    <glyph glyph-name="tcaron" unicode="&#x165;" horiz-adv-x="360" 
d="M278 780l-21 -160h10l31 160h-20zM155 530l20 150h-20l-20 -150h-85l-3 -20h86l-50 -381l26 -108l91 -27l41 4l20 6l3 20l-25 -6l-39 -4l-78 25l-18 98l49 373h184l3 20h-185z" />
    <glyph glyph-name="Tbar" unicode="&#x166;" horiz-adv-x="490" 
d="M117 388h118l-50 -388h20l51 388h121l3 20h-122l47 352h209l3 20h-439l-3 -20h209l-46 -352h-118z" />
    <glyph glyph-name="tbar" unicode="&#x167;" horiz-adv-x="360" 
d="M155 530l20 150h-20l-20 -150h-85l-3 -20h86l-31 -235h-85l-3 -20h85l-16 -126l26 -108l91 -27l41 4l20 6l3 20l-25 -6l-39 -4l-78 25l-18 98l15 118h145l3 20h-145l31 235h184l3 20h-185z" />
    <glyph glyph-name="Utilde" unicode="&#x168;" horiz-adv-x="620" 
d="M500 927l-21 -43l-33 -9l-66 29l-69 29l-45 -14l-27 -56h18l21 43l33 9l66 -29l69 -29l45 14l27 56h-18zM267 -6l172 50l86 195l71 541h-20l-70 -535l-78 -183l-161 -48l-153 47l-34 183l70 536h-20l-71 -541l42 -195z" />
    <glyph glyph-name="utilde" unicode="&#x169;" horiz-adv-x="490" 
d="M404 732l-21 -43l-33 -9l-66 29l-69 29l-45 -14l-27 -56h18l21 43l33 9l66 -29l69 -29l45 14l27 56h-18zM80 530l-50 -381l31 -118l117 -37l118 30l69 62l-5 -86h16l10 118l54 412h-20l-55 -419l-70 -65l-117 -32l-101 32l-26 110l49 374h-20z" />
    <glyph glyph-name="Umacron" unicode="&#x16a;" horiz-adv-x="620" 
d="M277 885h200l3 20h-200zM267 -6l172 50l86 195l71 541h-20l-70 -535l-78 -183l-161 -48l-153 47l-34 183l70 536h-20l-71 -541l42 -195z" />
    <glyph glyph-name="umacron" unicode="&#x16b;" horiz-adv-x="490" 
d="M181 690h200l3 20h-200zM80 530l-50 -381l31 -118l117 -37l118 30l69 62l-5 -86h16l10 118l54 412h-20l-55 -419l-70 -65l-117 -32l-101 32l-26 110l49 374h-20z" />
    <glyph glyph-name="Ubreve" unicode="&#x16c;" horiz-adv-x="620" 
d="M370 852l-78 27l-19 71h-17l22 -84l93 -32l100 32l45 84h-19l-40 -71zM267 -6l172 50l86 195l71 541h-20l-70 -535l-78 -183l-161 -48l-153 47l-34 183l70 536h-20l-71 -541l42 -195z" />
    <glyph glyph-name="ubreve" unicode="&#x16d;" horiz-adv-x="490" 
d="M272 614l120 49l51 117h-19l-45 -104l-107 -44l-94 44l-18 104h-17l22 -117zM80 530l-50 -381l31 -118l117 -37l118 30l69 62l-5 -86h16l10 118l54 412h-20l-55 -419l-70 -65l-117 -32l-101 32l-26 110l49 374h-20z" />
    <glyph glyph-name="Uring" unicode="&#x16e;" horiz-adv-x="620" 
d="M383 956l-66 -27l-29 -67l22 -57l58 -21l66 28l29 66l-22 57zM383 938l44 -15l17 -45l-22 -55l-54 -21l-44 15l-17 45l22 55zM267 -6l172 50l86 195l71 541h-20l-70 -535l-78 -183l-161 -48l-153 47l-34 183l70 536h-20l-71 -541l42 -195z" />
    <glyph glyph-name="uring" unicode="&#x16f;" horiz-adv-x="490" 
d="M290 786l-66 -27l-29 -67l22 -57l58 -21l66 28l29 66l-22 57zM290 768l44 -15l17 -45l-22 -55l-54 -21l-44 15l-17 45l22 55zM80 530l-50 -381l31 -118l117 -37l118 30l69 62l-5 -86h16l10 118l54 412h-20l-55 -419l-70 -65l-117 -32l-101 32l-26 110l49 374h-20z" />
    <glyph glyph-name="Uhungarumlaut" unicode="&#x170;" horiz-adv-x="620" 
d="M387 950l-77 -110h22l77 110h-22zM487 950l-77 -110h22l77 110h-22zM267 -6l172 50l86 195l71 541h-20l-70 -535l-78 -183l-161 -48l-153 47l-34 183l70 536h-20l-71 -541l42 -195z" />
    <glyph glyph-name="uhungarumlaut" unicode="&#x171;" horiz-adv-x="490" 
d="M322 780l-111 -160h22l111 160h-22zM422 780l-111 -160h22l111 160h-22zM80 530l-50 -381l31 -118l117 -37l118 30l69 62l-5 -86h16l10 118l54 412h-20l-55 -419l-70 -65l-117 -32l-101 32l-26 110l49 374h-20z" />
    <glyph glyph-name="Uogonek" unicode="&#x172;" horiz-adv-x="620" 
d="M355 -170l-31 -12l-44 -6l-45 13l-19 46l46 92l78 37l122 68l63 171l71 541h-20l-70 -535l-78 -183l-161 -48l-153 47l-34 183l70 536h-20l-71 -541l42 -195l166 -50h13l-58 -47l-24 -76l24 -58l58 -19l47 6l32 13z" />
    <glyph glyph-name="uogonek" unicode="&#x173;" horiz-adv-x="490" 
d="M391 -170l-31 -12l-44 -6l-45 13l-19 46l43 89l81 40l10 118l54 412h-20l-55 -419l-70 -65l-117 -32l-101 32l-26 110l49 374h-20l-50 -381l31 -118l117 -37l118 30l69 62l-5 -74l-86 -47l-40 -94l24 -58l58 -19l47 6l32 13z" />
    <glyph glyph-name="Wcircumflex" unicode="&#x174;" horiz-adv-x="860" 
d="M406 840l99 95l73 -95h23l-85 110h-20l-115 -110h25zM493 780h-22l-299 -745l-61 745h-20l65 -780h22l301 748l105 -748h22l269 780h-22l-255 -747z" />
    <glyph glyph-name="wcircumflex" unicode="&#x175;" horiz-adv-x="670" 
d="M502 620l-104 160h-20l-146 -160h26l129 142l91 -142h24zM352 504l86 -504h24l195 530h-22l-183 -506l-85 506h-24l-217 -504l-52 504h-21l57 -530h24z" />
    <glyph glyph-name="Ycircumflex" unicode="&#x176;" horiz-adv-x="540" 
d="M241 840l99 95l73 -95h23l-85 110h-20l-115 -110h25zM248 253l-159 527h-21l168 -550l-30 -230h20l30 230l312 550h-23z" />
    <glyph glyph-name="ycircumflex" unicode="&#x177;" horiz-adv-x="460" 
d="M397 620l-104 160h-20l-146 -160h26l129 142l91 -142h24zM186 44l-118 486h-21l127 -513l-111 -217h22l107 217l261 513h-23z" />
    <glyph glyph-name="Ydieresis" unicode="&#x178;" horiz-adv-x="540" 
d="M426 915h-40l-5 -40h40zM286 915h-40l-5 -40h40zM248 253l-159 527h-21l168 -550l-30 -230h20l30 230l312 550h-23z" />
    <glyph glyph-name="Zacute" unicode="&#x179;" horiz-adv-x="536" 
d="M402 950l-77 -110h22l77 110h-22zM-7 14l-2 -14h470l3 20h-331l-112 -1l530 747l2 14h-450l-3 -20h311l112 1z" />
    <glyph glyph-name="zacute" unicode="&#x17a;" horiz-adv-x="420" 
d="M346 780l-111 -160h22l111 160h-22zM-13 14l-2 -14h360l3 20h-221l-111 -1l386 497l2 14h-340l-3 -20h201l111 1z" />
    <glyph glyph-name="Zdotaccent" unicode="&#x17b;" horiz-adv-x="536" 
d="M366 915h-40l-5 -40h40zM-7 14l-2 -14h470l3 20h-331l-112 -1l530 747l2 14h-450l-3 -20h311l112 1z" />
    <glyph glyph-name="zdotaccent" unicode="&#x17c;" horiz-adv-x="420" 
d="M279 720h-40l-5 -40h40zM-13 14l-2 -14h360l3 20h-221l-111 -1l386 497l2 14h-340l-3 -20h201l111 1z" />
    <glyph glyph-name="Zcaron" unicode="&#x17d;" horiz-adv-x="536" 
d="M436 950l-99 -95l-73 95h-23l85 -110h20l115 110h-25zM-7 14l-2 -14h470l3 20h-331l-112 -1l530 747l2 14h-450l-3 -20h311l112 1z" />
    <glyph glyph-name="zcaron" unicode="&#x17e;" horiz-adv-x="420" 
d="M132 780l104 -160h20l146 160h-26l-129 -142l-91 142h-24zM-13 14l-2 -14h360l3 20h-221l-111 -1l386 497l2 14h-340l-3 -20h201l111 1z" />
    <glyph glyph-name="Scommaaccent" unicode="&#x218;" horiz-adv-x="576" 
d="M251 -70h-40l-5 -40h20l-30 -63l-41 -13l-2 -20l59 23l35 81zM289 395l162 -63l35 -134l-3 -24l-76 -123l-158 -37h-6l-160 57l-30 179h-20l-3 -24l39 -171l177 -61l173 39l85 141l3 24l-35 143l-171 73l-163 58l-35 114l3 24l75 117l150 39h6l156 -56l31 -190h20l3 24
l-38 179l-175 63l-168 -42l-81 -134l-3 -24l36 -123z" />
    <glyph glyph-name="scommaaccent" unicode="&#x219;" horiz-adv-x="478" 
d="M201 -70h-40l-5 -40h20l-30 -63l-41 -13l-2 -20l59 23l35 81zM213 261l129 -30l38 -77l-49 -101l-131 -39l-136 40l-22 106h-20l-2 -16l30 -105l150 -45l140 39l58 100l1 8l-27 94l-135 43l-127 29l-34 68l46 104l128 37l131 -40l22 -116h20l2 16l-29 115l-146 45
l-133 -37l-59 -99l-1 -8l23 -86z" />
    <glyph glyph-name="Ymacron" unicode="&#x232;" horiz-adv-x="540" 
d="M232 885h200l3 20h-200zM248 253l-159 527h-21l168 -550l-30 -230h20l30 230l312 550h-23z" />
    <glyph glyph-name="ymacron" unicode="&#x233;" horiz-adv-x="460" 
d="M171 690h200l3 20h-200zM186 44l-118 486h-21l127 -513l-111 -217h22l107 217l261 513h-23z" />
    <glyph glyph-name="dotlessj" unicode="&#x237;" horiz-adv-x="180" 
d="M23 -63l-45 -99l-86 -24l-36 3l-23 7l-2 -20l19 -6l43 -4l95 28l54 109l78 599h-20z" />
    <glyph glyph-name="circumflex" unicode="&#x2c6;" horiz-adv-x="500" 
d="M417 620l-104 160h-20l-146 -160h26l129 142l91 -142h24z" />
    <glyph glyph-name="caron" unicode="&#x2c7;" horiz-adv-x="500" 
d="M168 780l104 -160h20l146 160h-26l-129 -142l-91 142h-24z" />
    <glyph glyph-name="breve" unicode="&#x2d8;" horiz-adv-x="500" 
d="M282 614l120 49l51 117h-19l-45 -104l-107 -44l-94 44l-18 104h-17l22 -117z" />
    <glyph glyph-name="dotaccent" unicode="&#x2d9;" horiz-adv-x="500" 
d="M315 720h-40l-5 -40h40z" />
    <glyph glyph-name="ring" unicode="&#x2da;" horiz-adv-x="500" 
d="M300 786l-66 -27l-29 -67l22 -57l58 -21l66 28l29 66l-22 57zM300 768l44 -15l17 -45l-22 -55l-54 -21l-44 15l-17 45l22 55z" />
    <glyph glyph-name="ogonek" unicode="&#x2db;" horiz-adv-x="602" 
d="M250 -170l-31 -12l-44 -6l-45 13l-19 46l43 89l81 40l-5 16l-92 -47l-45 -98l24 -58l58 -19l47 6l32 13z" />
    <glyph glyph-name="tilde" unicode="&#x2dc;" horiz-adv-x="500" 
d="M414 732l-21 -43l-33 -9l-66 29l-69 29l-45 -14l-27 -56h18l21 43l33 9l66 -29l69 -29l45 14l27 56h-18z" />
    <glyph glyph-name="hungarumlaut" unicode="&#x2dd;" horiz-adv-x="500" 
d="M332 780l-111 -160h22l111 160h-22zM432 780l-111 -160h22l111 160h-22z" />
    <glyph glyph-name="Bdotaccent" unicode="&#x1e02;" horiz-adv-x="549" 
d="M351 915h-40l-5 -40h40zM310 760l123 -30l48 -138l-3 -24l-74 -133l-127 -27h-172l46 352h159zM277 388l125 -30l50 -146l-3 -24l-81 -142l-138 -26h-176l48 368h175zM133 780l-102 -780h199l156 33l84 155l3 24l-29 137l-100 49l99 43l56 127l3 24l-49 151l-143 37h-177
z" />
    <glyph glyph-name="bdotaccent" unicode="&#x1e03;" horiz-adv-x="506" 
d="M171 915h-40l-5 -40h40zM96 419l70 68l103 29l129 -64l24 -175l-3 -24l-67 -175l-144 -64l-101 31l-52 62zM146 800h-20l-89 -678l-21 -122h15l18 83l55 -60l104 -29l158 69l73 190l3 24l-29 190l-144 69l-105 -28l-64 -58z" />
    <glyph glyph-name="Ddotaccent" unicode="&#x1e0a;" horiz-adv-x="608" 
d="M361 915h-40l-5 -40h40zM54 20l97 740h170l180 -81l36 -277l-3 -24l-112 -278l-207 -80h-161zM558 402l-43 294l-194 84h-188l-102 -780h184l219 84l121 294z" />
    <glyph glyph-name="ddotaccent" unicode="&#x1e0b;" horiz-adv-x="510" 
d="M521 915h-40l-5 -40h40zM426 423l-41 -312l-70 -68l-103 -29l-129 64l-24 175l3 24l67 175l144 64l101 -31zM273 536l-158 -69l-73 -190l-3 -24l29 -190l144 -69l106 29l67 63l-5 -86h16l10 118l89 682h-20l-46 -348l-53 56z" />
    <glyph glyph-name="Fdotaccent" unicode="&#x1e1e;" horiz-adv-x="484" 
d="M366 915h-40l-5 -40h40zM133 780l-102 -780h20l51 388h319l3 20h-319l46 352h369l3 20h-390z" />
    <glyph glyph-name="fdotaccent" unicode="&#x1e1f;" horiz-adv-x="340" 
d="M291 915h-40l-5 -40h40zM174 672l43 92l81 22l42 -5l22 -8l3 20l-22 7l-45 6l-90 -23l-52 -98l-21 -155h-85l-3 -20h86l-67 -510h20l67 510h164l3 20h-165z" />
    <glyph glyph-name="Mdotaccent" unicode="&#x1e40;" horiz-adv-x="760" 
d="M334 30l-180 750h-21l-102 -780h20l73 560l21 174l176 -734h20l368 734l-25 -173l-73 -561h20l102 780h-23zM471 915h-40l-5 -40h40z" />
    <glyph glyph-name="mdotaccent" unicode="&#x1e41;" horiz-adv-x="748" 
d="M445 720h-40l-5 -40h40zM563 536l-100 -28l-70 -65l-42 72l-88 21l-104 -30l-63 -62l5 86h-16l-10 -118l-54 -412h20l55 419l64 65l103 32l86 -27l23 -100l-51 -389h20l52 396l1 4v4l2 15l64 65l103 32l86 -27l23 -100l-51 -389h20l52 396l-28 109z" />
    <glyph glyph-name="Pdotaccent" unicode="&#x1e56;" horiz-adv-x="541" 
d="M356 915h-40l-5 -40h40zM98 360l52 400h170l128 -35l51 -156l-3 -24l-90 -154l-136 -31h-172zM96 340h174l155 40l92 165l3 24l-50 166l-150 45h-187l-102 -780h20z" />
    <glyph glyph-name="pdotaccent" unicode="&#x1e57;" horiz-adv-x="506" 
d="M317 720h-40l-5 -40h40zM95 419l70 68l103 29l129 -64l24 -175l-3 -24l-67 -175l-144 -64l-101 31l-52 62zM207 -6l158 69l73 190l3 24l-29 190l-144 69l-106 -29l-67 -63l5 86h-16l-10 -118l-80 -612h20l37 278l53 -56z" />
    <glyph glyph-name="Tdotaccent" unicode="&#x1e6a;" horiz-adv-x="490" 
d="M336 915h-40l-5 -40h40zM305 760h209l3 20h-439l-3 -20h209l-99 -760h20z" />
    <glyph glyph-name="tdotaccent" unicode="&#x1e6b;" horiz-adv-x="360" 
d="M200 795h-40l-5 -40h40zM155 530l20 150h-20l-20 -150h-85l-3 -20h86l-50 -381l26 -108l91 -27l41 4l20 6l3 20l-25 -6l-39 -4l-78 25l-18 98l49 373h184l3 20h-185z" />
    <glyph glyph-name="Wgrave" unicode="&#x1e80;" horiz-adv-x="860" 
d="M433 950l47 -110h22l-47 110h-22zM493 780h-22l-299 -745l-61 745h-20l65 -780h22l301 748l105 -748h22l269 780h-22l-255 -747z" />
    <glyph glyph-name="wgrave" unicode="&#x1e81;" horiz-adv-x="670" 
d="M287 780l69 -160h22l-69 160h-22zM352 504l86 -504h24l195 530h-22l-183 -506l-85 506h-24l-217 -504l-52 504h-21l57 -530h24z" />
    <glyph glyph-name="Wacute" unicode="&#x1e82;" horiz-adv-x="860" 
d="M557 950l-77 -110h22l77 110h-22zM493 780h-22l-299 -745l-61 745h-20l65 -780h22l301 748l105 -748h22l269 780h-22l-255 -747z" />
    <glyph glyph-name="wacute" unicode="&#x1e83;" horiz-adv-x="670" 
d="M467 780l-111 -160h22l111 160h-22zM352 504l86 -504h24l195 530h-22l-183 -506l-85 506h-24l-217 -504l-52 504h-21l57 -530h24z" />
    <glyph glyph-name="Wdieresis" unicode="&#x1e84;" horiz-adv-x="860" 
d="M591 915h-40l-5 -40h40zM451 915h-40l-5 -40h40zM493 780h-22l-299 -745l-61 745h-20l65 -780h22l301 748l105 -748h22l269 780h-22l-255 -747z" />
    <glyph glyph-name="wdieresis" unicode="&#x1e85;" horiz-adv-x="670" 
d="M470 720h-40l-5 -40h40zM330 720h-40l-5 -40h40zM352 504l86 -504h24l195 530h-22l-183 -506l-85 506h-24l-217 -504l-52 504h-21l57 -530h24z" />
    <glyph glyph-name="Eszett" unicode="&#x1e9e;" horiz-adv-x="698" 
d="M315 424l-2 -14l116 -15l148 -56l40 -129l-3 -24l-68 -129l-142 -43h-6l-136 48l-29 188h-20l-3 -24l36 -178l155 -54l156 45l78 147l3 24l-39 136l-157 67l-101 13l214 302l2 15l-70 32l-95 11l-190 -50l-103 -195l-71 -541h20l70 535l95 183l179 48l83 -8l60 -24z" />
    <glyph glyph-name="Ygrave" unicode="&#x1ef2;" horiz-adv-x="540" 
d="M268 950l47 -110h22l-47 110h-22zM248 253l-159 527h-21l168 -550l-30 -230h20l30 230l312 550h-23z" />
    <glyph glyph-name="ygrave" unicode="&#x1ef3;" horiz-adv-x="460" 
d="M182 780l69 -160h22l-69 160h-22zM186 44l-118 486h-21l127 -513l-111 -217h22l107 217l261 513h-23z" />
    <glyph glyph-name="enspace" unicode="&#x2002;" horiz-adv-x="500" 
 />
    <glyph glyph-name="emspace" unicode="&#x2003;" horiz-adv-x="1000" 
 />
    <glyph glyph-name="threeperemspace" unicode="&#x2004;" horiz-adv-x="333" 
 />
    <glyph glyph-name="fourperemspace" unicode="&#x2005;" horiz-adv-x="250" 
 />
    <glyph glyph-name="sixperemspace" unicode="&#x2006;" horiz-adv-x="167" 
 />
    <glyph glyph-name="figurespace" unicode="&#x2007;" horiz-adv-x="600" 
 />
    <glyph glyph-name="punctuationspace" unicode="&#x2008;" horiz-adv-x="180" 
 />
    <glyph glyph-name="thinspace" unicode="&#x2009;" horiz-adv-x="150" 
 />
    <glyph glyph-name="hairspace" unicode="&#x200a;" horiz-adv-x="50" 
 />
    <glyph glyph-name="zerowidthspace" unicode="&#x200b;" horiz-adv-x="0" 
 />
    <glyph glyph-name="figuredash" unicode="&#x2012;" horiz-adv-x="600" 
d="M44 330h500l3 20h-500z" />
    <glyph glyph-name="endash" unicode="&#x2013;" horiz-adv-x="500" 
d="M44 330h400l3 20h-400z" />
    <glyph glyph-name="emdash" unicode="&#x2014;" horiz-adv-x="1000" 
d="M44 330h900l3 20h-900z" />
    <glyph glyph-name="uni2015" unicode="&#x2015;" horiz-adv-x="1200" 
d="M44 330h1100l3 20h-1100z" />
    <glyph glyph-name="doublebar" unicode="&#x2016;" horiz-adv-x="280" 
d="M115 -120h20l126 960h-20zM15 -120h20l126 960h-20z" />
    <glyph glyph-name="quoteleft" unicode="&#x2018;" horiz-adv-x="180" 
d="M105 641h40l5 40h-20l29 67l48 18l2 20l-65 -28l-35 -85z" />
    <glyph glyph-name="quoteright" unicode="&#x2019;" horiz-adv-x="180" 
d="M163 780h-40l-5 -40h20l-29 -67l-48 -18l-2 -20l65 28l35 85z" />
    <glyph glyph-name="quotesinglbase" unicode="&#x201a;" horiz-adv-x="180" 
d="M66 40h-40l-5 -40h20l-29 -67l-48 -18l-2 -20l65 28l35 85z" />
    <glyph glyph-name="reversequoteleft" unicode="&#x201b;" horiz-adv-x="180" 
d="M119 748l12 -85l58 -28l2 20l-43 18l-10 67h20l5 40h-40z" />
    <glyph glyph-name="quotedblleft" unicode="&#x201c;" horiz-adv-x="260" 
d="M185 641h40l5 40h-20l29 67l48 18l2 20l-65 -28l-35 -85zM105 641h40l5 40h-20l29 67l48 18l2 20l-65 -28l-35 -85z" />
    <glyph glyph-name="quotedblright" unicode="&#x201d;" horiz-adv-x="260" 
d="M243 780h-40l-5 -40h20l-29 -67l-48 -18l-2 -20l65 28l35 85zM163 780h-40l-5 -40h20l-29 -67l-48 -18l-2 -20l65 28l35 85z" />
    <glyph glyph-name="quotedblbase" unicode="&#x201e;" horiz-adv-x="260" 
d="M146 40h-40l-5 -40h20l-29 -67l-48 -18l-2 -20l65 28l35 85zM66 40h-40l-5 -40h20l-29 -67l-48 -18l-2 -20l65 28l35 85z" />
    <glyph glyph-name="reversequotedblleft" unicode="&#x201f;" horiz-adv-x="260" 
d="M199 748l12 -85l58 -28l2 20l-43 18l-10 67h20l5 40h-40zM119 748l12 -85l58 -28l2 20l-43 18l-10 67h20l5 40h-40z" />
    <glyph glyph-name="dagger" unicode="&#x2020;" horiz-adv-x="380" 
d="M393 630h-140l-3 -20h140zM51 610h140l3 20h-140zM195 340l33 250h-20l-33 -250h20zM236 800l-20 -150h20l20 150h-20z" />
    <glyph glyph-name="daggerdbl" unicode="&#x2021;" horiz-adv-x="380" 
d="M365 420h-140l-3 -20h140zM23 400h140l3 20h-140zM167 130l33 250h-20l-33 -250h20zM208 590l-20 -150h20l20 150h-20zM393 630h-140l-3 -20h140zM51 610h140l3 20h-140zM236 800l-20 -150h20l20 150h-20z" />
    <glyph glyph-name="bullet" unicode="&#x2022;" horiz-adv-x="380" 
d="M321 460h-240l-32 -240h240z" />
    <glyph glyph-name="ellipsis" unicode="&#x2026;" horiz-adv-x="1000" 
d="M476 40h-40l-5 -40h40zM796 40h-40l-5 -40h40zM156 40h-40l-5 -40h40z" />
    <glyph glyph-name="perthousand" unicode="&#x2030;" horiz-adv-x="1258" 
d="M1012 -6l111 43l54 119l1 8l-26 119l-105 43l-111 -43l-54 -119l-1 -8l27 -119zM1009 14l-87 38l-21 104l1 8l46 102l96 40h6l87 -38l21 -104l-1 -8l-46 -102l-96 -40h-6zM361 616l-46 -102l-96 -40h-6l-87 38l-21 104l1 8l46 102l96 40h6l87 -38l21 -104zM652 -6l111 43
l54 119l1 8l-26 119l-105 43l-111 -43l-54 -119l-1 -8l27 -119zM649 14l-87 38l-21 104l1 8l46 102l96 40h6l87 -38l21 -104l-1 -8l-46 -102l-96 -40h-6zM382 624l-2 68l-26 53l58 -10l78 -5l105 11l44 11l-411 -752h22l418 765l2 15l-76 -19l-104 -11l-93 6l-95 23l-25 5
l-26 2l-111 -43l-54 -119l-1 -8l27 -119l104 -43l111 43l54 119z" />
    <glyph glyph-name="tripleprime" unicode="&#x2034;" horiz-adv-x="380" 
d="M233 780l-28 -250h10l38 250h-20zM333 780l-28 -250h10l38 250h-20zM133 780l-28 -250h10l38 250h-20z" />
    <glyph glyph-name="guilsinglleft" unicode="&#x2039;" 
d="M267 506l-220 -156l-3 -20l179 -156l4 23l-164 141l201 141z" />
    <glyph glyph-name="guilsinglright" unicode="&#x203a;" 
d="M24 174l220 156l3 20l-179 156l-4 -23l164 -141l-201 -141z" />
    <glyph glyph-name="interrobang" unicode="&#x203d;" horiz-adv-x="437" 
d="M196 40h-40l-5 -40h40zM409 575l-83 -153l-114 -159l69 503l112 -63zM201 175l118 214l111 193l-22 138l-131 66l-154 -75l-73 -204l-1 -7h20l62 192l130 74l-74 -591h14z" />
    <glyph glyph-name="fraction" unicode="&#x2044;" horiz-adv-x="200" 
d="M-223 0l676 780h-26l-676 -780h26z" />
    <glyph glyph-name="uni2070" unicode="&#x2070;" horiz-adv-x="299" 
d="M262 504l-30 -75l-75 -25h-6l-67 27l-12 74l21 161l30 75l75 25h6l67 -27l12 -74zM305 673l-18 81l-86 31l-91 -30l-37 -82l-23 -176l18 -81l86 -31l91 30l37 82z" />
    <glyph glyph-name="uni2074" unicode="&#x2074;" 
d="M238 742l-29 -222h-95l-52 -1zM212 390l14 110h72l3 20h-72l34 260h-19l-209 -265l-2 -15h173l-14 -110h20z" />
    <glyph glyph-name="uni2075" unicode="&#x2075;" 
d="M71 555l45 46l59 15h6l66 -24l22 -77l-1 -10l-37 -77l-71 -24h-6l-73 25l-16 86h-20l-1 -10l22 -87l91 -33l88 31l44 90l1 10l-29 90l-83 29l-56 -10l-42 -30l29 165h208l3 20h-227l-39 -221z" />
    <glyph glyph-name="uni2076" unicode="&#x2076;" 
d="M185 616l66 -25l21 -76l-1 -10l-33 -74l-74 -27h-6l-65 26l-25 73l2 26l4 23l43 45l62 19h6zM311 785l-92 -16l-91 -61l-55 -88l-23 -90l-1 -10l24 -99l88 -36l88 29l43 92l1 10l-26 91l-85 28l-57 -14l-43 -33l24 54l37 53l81 56l84 14z" />
    <glyph glyph-name="uni2077" unicode="&#x2077;" 
d="M67 640h19l16 120h197l-200 -370h22l202 375l2 15h-240z" />
    <glyph glyph-name="uni2078" unicode="&#x2078;" 
d="M203 766l67 -22l19 -59l-1 -10l-35 -59l-68 -18h-12l-62 19l-20 57l1 10l32 59l73 23h6zM185 578l63 -20l19 -62l-1 -10l-36 -62l-70 -20h-6l-69 19l-22 63l1 10l35 62l69 20h17zM157 385l87 26l43 75l1 10l-13 62l-47 30l56 29l25 59l1 10l-25 73l-85 26l-90 -27
l-39 -73l-1 -10l13 -57l45 -29l-57 -30l-28 -63l-1 -10l29 -77z" />
    <glyph glyph-name="uni2079" unicode="&#x2079;" 
d="M169 554l-66 25l-21 76l1 10l33 75l74 26h6l65 -25l25 -74l-2 -26l-4 -23l-43 -45l-62 -19h-6zM41 385l93 16l92 61l56 88l22 90l1 10l-24 99l-88 36l-88 -29l-43 -92l-1 -10l26 -91l85 -28l57 14l43 33l-24 -54l-37 -53l-82 -56l-85 -14z" />
    <glyph glyph-name="uni207A" unicode="&#x207a;" 
d="M184 710l-15 -115h-115l-3 -20h115l-15 -115h20l15 115h115l3 20h-115l15 115h-20z" />
    <glyph glyph-name="uni207B" unicode="&#x207b;" 
d="M51 575h250l3 20h-250z" />
    <glyph glyph-name="uni207C" unicode="&#x207c;" 
d="M44 525h250l3 20h-250zM58 625h250l3 20h-250z" />
    <glyph glyph-name="uni207D" unicode="&#x207d;" horiz-adv-x="150" 
d="M59 583l5 -105l32 -88h22l-35 89l-4 104l1 8l30 102l59 87h-23l-56 -85l-30 -104z" />
    <glyph glyph-name="uni207E" unicode="&#x207e;" horiz-adv-x="147" 
d="M145 587l-5 105l-32 88h-22l35 -89l4 -104l-1 -8l-30 -102l-59 -87h23l57 85l29 104z" />
    <glyph glyph-name="uni2080" unicode="&#x2080;" horiz-adv-x="298" 
d="M211 114l-30 -75l-75 -25h-6l-67 27l-12 74l21 161l30 75l75 25h6l67 -27l12 -74zM254 283l-18 81l-86 31l-91 -30l-37 -82l-23 -176l18 -81l86 -31l91 30l37 82z" />
    <glyph glyph-name="uni2081" unicode="&#x2081;" 
d="M222 0l3 20h-107l49 372h-15l-135 -83l10 -18l116 71l-45 -342h-108l-3 -20h235z" />
    <glyph glyph-name="uni2082" unicode="&#x2082;" horiz-adv-x="299" 
d="M55 20l-41 -1l185 168l42 46l17 48l1 10l-24 76l-85 28l-94 -32l-39 -88l-2 -15h20l35 90l77 26h6l68 -24l17 -62l-1 -10l-14 -39l-41 -45l-199 -181l-2 -15h235l3 20h-164z" />
    <glyph glyph-name="uni2083" unicode="&#x2083;" horiz-adv-x="299" 
d="M103 14l-73 25l-16 86h-20l-1 -10l22 -87l91 -33l87 26l43 75l1 10l-13 62l-47 30l56 30l25 58l1 10l-25 73l-85 26l-95 -34l-38 -91l-1 -10h20l34 89l77 27h6l67 -22l19 -59l-1 -10l-34 -58l-69 -19h-56l-3 -20h59l63 -20l19 -62l-1 -10l-36 -62l-70 -20h-6z" />
    <glyph glyph-name="uni2084" unicode="&#x2084;" 
d="M187 352l-29 -222h-95l-52 -1zM161 0l14 110h72l3 20h-72l34 260h-19l-209 -265l-2 -15h173l-14 -110h20z" />
    <glyph glyph-name="uni2085" unicode="&#x2085;" 
d="M20 165l45 46l59 15h6l66 -24l22 -77l-1 -10l-37 -77l-71 -24h-6l-73 25l-16 86h-20l-1 -10l22 -87l91 -33l88 31l44 90l1 10l-29 90l-83 29l-56 -10l-42 -30l29 165h208l3 20h-227l-39 -221z" />
    <glyph glyph-name="uni2086" unicode="&#x2086;" 
d="M134 226l66 -25l21 -76l-1 -10l-33 -74l-74 -27h-6l-65 26l-25 73l2 26l4 23l43 45l62 19h6zM260 395l-92 -16l-91 -61l-55 -88l-23 -90l-1 -10l24 -99l88 -36l88 29l43 92l1 10l-26 91l-85 28l-57 -14l-43 -33l24 54l37 53l81 56l84 14z" />
    <glyph glyph-name="uni2087" unicode="&#x2087;" 
d="M16 250h19l16 120h197l-200 -370h22l202 375l2 15h-240z" />
    <glyph glyph-name="uni2088" unicode="&#x2088;" horiz-adv-x="299" 
d="M152 376l67 -22l19 -59l-1 -10l-35 -59l-68 -18h-12l-62 19l-20 57l1 10l32 59l73 23h6zM134 188l63 -20l19 -62l-1 -10l-36 -62l-70 -20h-6l-69 19l-22 63l1 10l35 62l69 20h17zM106 -5l87 26l43 75l1 10l-13 62l-47 30l56 29l25 59l1 10l-25 73l-85 26l-90 -27l-39 -73
l-1 -10l13 -57l45 -29l-57 -30l-28 -63l-1 -10l29 -77z" />
    <glyph glyph-name="uni2089" unicode="&#x2089;" horiz-adv-x="299" 
d="M118 164l-66 25l-21 76l1 10l33 75l74 26h6l65 -25l25 -74l-2 -26l-4 -23l-43 -45l-62 -19h-6zM-10 -5l93 16l92 61l56 88l22 90l1 10l-24 99l-88 36l-88 -29l-43 -92l-1 -10l26 -91l85 -28l57 14l43 33l-24 -54l-37 -53l-82 -56l-85 -14z" />
    <glyph glyph-name="uni208A" unicode="&#x208a;" 
d="M133 320l-15 -115h-115l-3 -20h115l-15 -115h20l15 115h115l3 20h-115l15 115h-20z" />
    <glyph glyph-name="uni208B" unicode="&#x208b;" 
d="M0 185h250l3 20h-250z" />
    <glyph glyph-name="uni208C" unicode="&#x208c;" 
d="M-7 135h250l3 20h-250zM7 235h250l3 20h-250z" />
    <glyph glyph-name="uni208D" unicode="&#x208d;" horiz-adv-x="150" 
d="M8 193l5 -105l32 -88h22l-35 89l-4 104l1 8l30 102l59 87h-23l-56 -85l-30 -104z" />
    <glyph glyph-name="uni208E" unicode="&#x208e;" horiz-adv-x="147" 
d="M94 197l-5 105l-32 88h-22l35 -89l4 -104l-1 -8l-30 -102l-59 -87h23l57 85l29 104z" />
    <glyph glyph-name="Euro" unicode="&#x20ac;" horiz-adv-x="594" 
d="M31 310h76l30 -237l158 -79l163 62l68 170l3 24h-20l-69 -182l-142 -54h-6l-139 75l-25 221h243l13 20h-254l16 120h293l13 20h-303l82 227l160 69h6l131 -58l13 -208h20l3 24l-23 202l-147 60l-176 -75l-89 -241h-76l-3 -20h76l-16 -120h-76z" />
    <glyph glyph-name="ruble" unicode="&#x20bd;" horiz-adv-x="597" 
d="M153 360l52 400h170l128 -35l51 -156l-3 -24l-90 -154l-136 -31h-172zM151 340h174l155 40l92 165l3 24l-50 166l-150 45h-187l-56 -420h-109l-3 -20h110l-16 -120h-109l-3 -20h110l-26 -200h20l26 200h220l3 20h-220z" />
    <glyph glyph-name="numero" unicode="&#x2116;" horiz-adv-x="1047" 
d="M1033 595l-36 153l-98 38l-109 -36l-76 -155l-3 -24l36 -152l98 -39l109 36l76 155zM1010 571l-57 -130l-108 -41l-90 40l-24 131l3 24l57 130l108 41l90 -40l24 -131zM677 230h298l3 20h-298zM496 32l-341 748h-22l-102 -780h20l79 605l18 143l341 -748h22l102 780h-20
l-79 -605z" />
    <glyph glyph-name="published" unicode="&#x2117;" horiz-adv-x="900" 
d="M327 375v230h143l74 -21l39 -89v-10l-39 -89l-74 -21h-143zM327 355h141l91 26l44 102v14l-44 102l-91 26h-161v-470h20v200zM74 390l110 266l266 110l266 -110l110 -266l-110 -266l-266 -110l-266 110zM54 390l116 -280l280 -116l280 116l116 280l-116 280l-280 116
l-280 -116z" />
    <glyph glyph-name="servicemark" unicode="&#x2120;" horiz-adv-x="460" 
d="M98 663l56 -19l18 -42v-3l-18 -42l-52 -15h-4l-46 16l-18 58h-16v-3l20 -63l62 -24l63 20l25 54v4l-18 47l-63 25l-56 19l-15 37v4l18 38l46 14h4l51 -16l15 -62h16v5l-20 68l-64 21l-59 -18l-23 -52v-4l17 -42zM326 530h16l79 224l-2 -73v-151h16v270h-14l-87 -248
l-87 248h-14v-270h16v151l-2 73z" />
    <glyph glyph-name="trademark" unicode="&#x2122;" horiz-adv-x="460" 
d="M115 784h79v16h-174v-16h79v-254h16v254zM326 530h16l79 224l-2 -73v-151h16v270h-14l-87 -248l-87 248h-14v-270h16v151l-2 73z" />
    <glyph glyph-name="uni2153" unicode="&#x2153;" horiz-adv-x="799" 
d="M603 14l-73 25l-16 86h-20l-1 -10l22 -87l91 -33l87 26l43 75l1 10l-13 62l-47 30l56 30l25 58l1 10l-25 73l-85 26l-95 -34l-38 -91l-1 -10h20l34 89l77 27h6l67 -22l19 -59l-1 -10l-34 -58l-69 -19h-56l-3 -20h59l63 -20l19 -62l-1 -10l-36 -62l-70 -20h-6zM77 0
l676 780h-26l-676 -780h26zM273 390l3 20h-107l49 372h-15l-135 -83l10 -18l116 71l-45 -342h-108l-3 -20h235z" />
    <glyph glyph-name="uni2154" unicode="&#x2154;" horiz-adv-x="799" 
d="M603 14l-73 25l-16 86h-20l-1 -10l22 -87l91 -33l87 26l43 75l1 10l-13 62l-47 30l56 30l25 58l1 10l-25 73l-85 26l-95 -34l-38 -91l-1 -10h20l34 89l77 27h6l67 -22l19 -59l-1 -10l-34 -58l-69 -19h-56l-3 -20h59l63 -20l19 -62l-1 -10l-36 -62l-70 -20h-6zM77 0
l676 780h-26l-676 -780h26zM106 410l-41 -1l185 168l42 46l17 48l1 10l-24 76l-85 28l-94 -32l-39 -88l-2 -15h20l35 90l77 26h6l68 -24l17 -62l-1 -10l-14 -39l-41 -45l-199 -181l-2 -15h235l3 20h-164z" />
    <glyph glyph-name="uni2155" unicode="&#x2155;" horiz-adv-x="800" 
d="M520 165l45 46l59 15h6l66 -24l22 -77l-1 -10l-37 -77l-71 -24h-6l-73 25l-16 86h-20l-1 -10l22 -87l91 -33l88 31l44 90l1 10l-29 90l-83 29l-56 -10l-42 -30l29 165h208l3 20h-227l-39 -221zM77 0l676 780h-26l-676 -780h26zM273 390l3 20h-107l49 372h-15l-135 -83
l10 -18l116 71l-45 -342h-108l-3 -20h235z" />
    <glyph glyph-name="uni2156" unicode="&#x2156;" horiz-adv-x="800" 
d="M520 165l45 46l59 15h6l66 -24l22 -77l-1 -10l-37 -77l-71 -24h-6l-73 25l-16 86h-20l-1 -10l22 -87l91 -33l88 31l44 90l1 10l-29 90l-83 29l-56 -10l-42 -30l29 165h208l3 20h-227l-39 -221zM77 0l676 780h-26l-676 -780h26zM106 410l-41 -1l185 168l42 46l17 48l1 10
l-24 76l-85 28l-94 -32l-39 -88l-2 -15h20l35 90l77 26h6l68 -24l17 -62l-1 -10l-14 -39l-41 -45l-199 -181l-2 -15h235l3 20h-164z" />
    <glyph glyph-name="uni2157" unicode="&#x2157;" horiz-adv-x="800" 
d="M520 165l45 46l59 15h6l66 -24l22 -77l-1 -10l-37 -77l-71 -24h-6l-73 25l-16 86h-20l-1 -10l22 -87l91 -33l88 31l44 90l1 10l-29 90l-83 29l-56 -10l-42 -30l29 165h208l3 20h-227l-39 -221zM77 0l676 780h-26l-676 -780h26zM154 404l-73 25l-16 86h-20l-1 -10l22 -87
l91 -33l87 26l43 75l1 10l-13 62l-47 30l56 30l25 58l1 10l-25 73l-85 26l-95 -34l-38 -91l-1 -10h20l34 89l77 27h6l67 -22l19 -59l-1 -10l-34 -58l-69 -19h-56l-3 -20h59l63 -20l19 -62l-1 -10l-36 -62l-70 -20h-6z" />
    <glyph glyph-name="uni2158" unicode="&#x2158;" horiz-adv-x="800" 
d="M520 165l45 46l59 15h6l66 -24l22 -77l-1 -10l-37 -77l-71 -24h-6l-73 25l-16 86h-20l-1 -10l22 -87l91 -33l88 31l44 90l1 10l-29 90l-83 29l-56 -10l-42 -30l29 165h208l3 20h-227l-39 -221zM77 0l676 780h-26l-676 -780h26zM238 742l-29 -222h-95l-52 -1zM212 390
l14 110h72l3 20h-72l34 260h-19l-209 -265l-2 -15h173l-14 -110h20z" />
    <glyph glyph-name="uni2159" unicode="&#x2159;" horiz-adv-x="800" 
d="M634 226l66 -25l21 -76l-1 -10l-33 -74l-74 -27h-6l-65 26l-25 73l2 26l4 23l43 45l62 19h6zM760 395l-92 -16l-91 -61l-55 -88l-23 -90l-1 -10l24 -99l88 -36l88 29l43 92l1 10l-26 91l-85 28l-57 -14l-43 -33l24 54l37 53l81 56l84 14zM77 0l676 780h-26l-676 -780h26z
M273 390l3 20h-107l49 372h-15l-135 -83l10 -18l116 71l-45 -342h-108l-3 -20h235z" />
    <glyph glyph-name="uni215A" unicode="&#x215a;" horiz-adv-x="800" 
d="M634 226l66 -25l21 -76l-1 -10l-33 -74l-74 -27h-6l-65 26l-25 73l2 26l4 23l43 45l62 19h6zM760 395l-92 -16l-91 -61l-55 -88l-23 -90l-1 -10l24 -99l88 -36l88 29l43 92l1 10l-26 91l-85 28l-57 -14l-43 -33l24 54l37 53l81 56l84 14zM77 0l676 780h-26l-676 -780h26z
M71 555l45 46l59 15h6l66 -24l22 -77l-1 -10l-37 -77l-71 -24h-6l-73 25l-16 86h-20l-1 -10l22 -87l91 -33l88 31l44 90l1 10l-29 90l-83 29l-56 -10l-42 -30l29 165h208l3 20h-227l-39 -221z" />
    <glyph glyph-name="uni215B" unicode="&#x215b;" horiz-adv-x="799" 
d="M652 376l67 -22l19 -59l-1 -10l-35 -59l-68 -18h-12l-62 19l-20 57l1 10l32 59l73 23h6zM634 188l63 -20l19 -62l-1 -10l-36 -62l-70 -20h-6l-69 19l-22 63l1 10l35 62l69 20h17zM606 -5l87 26l43 75l1 10l-13 62l-47 30l56 29l25 59l1 10l-25 73l-85 26l-90 -27l-39 -73
l-1 -10l13 -57l45 -29l-57 -30l-28 -63l-1 -10l29 -77zM77 0l676 780h-26l-676 -780h26zM273 390l3 20h-107l49 372h-15l-135 -83l10 -18l116 71l-45 -342h-108l-3 -20h235z" />
    <glyph glyph-name="uni215C" unicode="&#x215c;" horiz-adv-x="799" 
d="M652 376l67 -22l19 -59l-1 -10l-35 -59l-68 -18h-12l-62 19l-20 57l1 10l32 59l73 23h6zM634 188l63 -20l19 -62l-1 -10l-36 -62l-70 -20h-6l-69 19l-22 63l1 10l35 62l69 20h17zM606 -5l87 26l43 75l1 10l-13 62l-47 30l56 29l25 59l1 10l-25 73l-85 26l-90 -27l-39 -73
l-1 -10l13 -57l45 -29l-57 -30l-28 -63l-1 -10l29 -77zM77 0l676 780h-26l-676 -780h26zM154 404l-73 25l-16 86h-20l-1 -10l22 -87l91 -33l87 26l43 75l1 10l-13 62l-47 30l56 30l25 58l1 10l-25 73l-85 26l-95 -34l-38 -91l-1 -10h20l34 89l77 27h6l67 -22l19 -59l-1 -10
l-34 -58l-69 -19h-56l-3 -20h59l63 -20l19 -62l-1 -10l-36 -62l-70 -20h-6z" />
    <glyph glyph-name="uni215D" unicode="&#x215d;" horiz-adv-x="799" 
d="M652 376l67 -22l19 -59l-1 -10l-35 -59l-68 -18h-12l-62 19l-20 57l1 10l32 59l73 23h6zM634 188l63 -20l19 -62l-1 -10l-36 -62l-70 -20h-6l-69 19l-22 63l1 10l35 62l69 20h17zM606 -5l87 26l43 75l1 10l-13 62l-47 30l56 29l25 59l1 10l-25 73l-85 26l-90 -27l-39 -73
l-1 -10l13 -57l45 -29l-57 -30l-28 -63l-1 -10l29 -77zM77 0l676 780h-26l-676 -780h26zM71 555l45 46l59 15h6l66 -24l22 -77l-1 -10l-37 -77l-71 -24h-6l-73 25l-16 86h-20l-1 -10l22 -87l91 -33l88 31l44 90l1 10l-29 90l-83 29l-56 -10l-42 -30l29 165h208l3 20h-227
l-39 -221z" />
    <glyph glyph-name="uni215E" unicode="&#x215e;" horiz-adv-x="799" 
d="M652 376l67 -22l19 -59l-1 -10l-35 -59l-68 -18h-12l-62 19l-20 57l1 10l32 59l73 23h6zM634 188l63 -20l19 -62l-1 -10l-36 -62l-70 -20h-6l-69 19l-22 63l1 10l35 62l69 20h17zM606 -5l87 26l43 75l1 10l-13 62l-47 30l56 29l25 59l1 10l-25 73l-85 26l-90 -27l-39 -73
l-1 -10l13 -57l45 -29l-57 -30l-28 -63l-1 -10l29 -77zM77 0l676 780h-26l-676 -780h26zM67 640h19l16 120h197l-200 -370h22l202 375l2 15h-240z" />
    <glyph glyph-name="uni215F" unicode="&#x215f;" horiz-adv-x="500" 
d="M273 390l3 20h-107l49 372h-15l-135 -83l10 -18l116 71l-45 -342h-108l-3 -20h235zM77 0l676 780h-26l-676 -780h26z" />
    <glyph glyph-name="arrowleft" unicode="&#x2190;" horiz-adv-x="920" 
d="M454 780l-390 -390l390 -390h29l-380 380h747v20h-747l380 380h-29z" />
    <glyph glyph-name="arrowup" unicode="&#x2191;" horiz-adv-x="920" 
d="M850 396l-390 390l-390 -390v-29l380 380v-747h20v747l380 -380v29z" />
    <glyph glyph-name="arrowright" unicode="&#x2192;" horiz-adv-x="920" 
d="M466 0l390 390l-390 390h-29l380 -380h-747v-20h747l-380 -380h29z" />
    <glyph glyph-name="arrowdown" unicode="&#x2193;" horiz-adv-x="920" 
d="M70 384l390 -390l390 390v29l-380 -380v747h-20v-747l-380 380v-29z" />
    <glyph glyph-name="uni2196" unicode="&#x2196;" horiz-adv-x="920" 
d="M90 0v746l752 -752l14 14l-752 752h746v20h-780v-780h20z" />
    <glyph glyph-name="uni2197" unicode="&#x2197;" horiz-adv-x="920" 
d="M70 760h746l-752 -752l14 -14l752 752v-746h20v780h-780v-20z" />
    <glyph glyph-name="uni2198" unicode="&#x2198;" horiz-adv-x="920" 
d="M70 0h780v780h-20v-746l-752 752l-14 -14l752 -752h-746v-20z" />
    <glyph glyph-name="uni2199" unicode="&#x2199;" horiz-adv-x="920" 
d="M850 20h-746l752 752l-14 14l-752 -752v746h-20v-780h780v20z" />
    <glyph glyph-name="minus" unicode="&#x2212;" horiz-adv-x="600" 
d="M49 380h499l3 20h-499z" />
    <glyph glyph-name="approxequal" unicode="&#x2248;" horiz-adv-x="600" 
d="M410 254l-121 41l-126 41l-88 -27l-46 -39l14 -14l44 37l76 23l121 -41l126 -41l88 27l46 39l-14 14l-43 -37zM437 454l-121 41l-126 41l-88 -27l-46 -39l14 -14l44 37l76 23l121 -41l126 -41l88 27l46 39l-14 14l-43 -37z" />
    <glyph glyph-name="notequal" unicode="&#x2260;" horiz-adv-x="600" 
d="M63 480h288l-127 -180h-184l-3 -20h173l-98 -140h26l98 140h300l3 20h-289l127 180h185l3 20h-174l99 140h-26l-99 -140h-299z" />
    <glyph glyph-name="equivalence" unicode="&#x2261;" horiz-adv-x="600" 
d="M24 180h499l3 20h-499zM50 380h499l3 20h-499zM76 580h499l3 20h-499z" />
    <glyph glyph-name="lessequal" unicode="&#x2264;" horiz-adv-x="600" 
d="M520 155l-475 189l-3 -21l475 -189zM88 446l494 177l3 23l-526 -190l-2 -18l475 -190l3 21z" />
    <glyph glyph-name="greaterequal" unicode="&#x2265;" horiz-adv-x="600" 
d="M20 157l-3 -23l526 190l3 23zM529 448l-494 -177l-3 -23l526 190l2 18l-475 190l-3 -21z" />
    <glyph glyph-name="squaremultiply" unicode="&#x22a0;" horiz-adv-x="920" 
d="M205 630l240 -240l-240 -240l15 -15l240 240l240 -240l15 15l-240 240l240 240l-15 15l-240 -240l-240 240zM830 760v-740h-740v740h740zM850 0v780h-780v-780h780z" />
    <glyph glyph-name="house" unicode="&#x2302;" horiz-adv-x="850" 
d="M780 0v450l-355 340l-355 -340v-450h710z" />
    <glyph glyph-name="whitesquare" unicode="&#x25a1;" horiz-adv-x="920" 
d="M830 760v-740h-740v740h740zM850 0v780h-780v-780h780z" />
    <glyph glyph-name="blacksmallsquare" unicode="&#x25aa;" horiz-adv-x="680" 
d="M600 0v530h-530v-530h530z" />
    <glyph glyph-name="whitesmallsquare" unicode="&#x25ab;" horiz-adv-x="680" 
d="M580 510v-490h-490v490h490zM600 0v530h-530v-530h530z" />
    <glyph glyph-name="triagup" unicode="&#x25b2;" horiz-adv-x="930" 
d="M475 786h-20l-386 -786h22l374 763l374 -763h22z" />
    <glyph glyph-name="triagrt" unicode="&#x25ba;" horiz-adv-x="930" 
d="M866 400l-786 386v-22l763 -374l-763 -374v-22l786 386v20z" />
    <glyph glyph-name="triagdn" unicode="&#x25bc;" horiz-adv-x="930" 
d="M455 -6h20l386 786h-22l-374 -763l-374 763h-22z" />
    <glyph glyph-name="triaglf" unicode="&#x25c4;" horiz-adv-x="930" 
d="M64 400v-20l786 -386v22l-763 374l763 374v22z" />
    <glyph glyph-name="blackcircle" unicode="&#x25cf;" horiz-adv-x="920" 
d="M64 390l116 -280l280 -116l280 116l116 280l-116 280l-280 116l-280 -116z" />
    <glyph glyph-name="uni25E2" unicode="&#x25e2;" horiz-adv-x="930" 
d="M857 7l-285 831l-15 -15l278 -808l-808 278l-15 -15l831 -285z" />
    <glyph glyph-name="uni25E3" unicode="&#x25e3;" horiz-adv-x="930" 
d="M87 -7l831 285l-15 15l-808 -278l278 808l-15 15l-285 -831z" />
    <glyph glyph-name="uni25E4" unicode="&#x25e4;" horiz-adv-x="930" 
d="M73 773l285 -831l15 15l-278 808l808 -278l15 15l-831 285z" />
    <glyph glyph-name="uni25E5" unicode="&#x25e5;" horiz-adv-x="930" 
d="M857 773l-14 14l-831 -285l15 -15l808 278l-278 -808l15 -15z" />
    <glyph glyph-name="whitecircle" unicode="&#x25ef;" horiz-adv-x="920" 
d="M84 390l110 266l266 110l266 -110l110 -266l-110 -266l-266 -110l-266 110zM64 390l116 -280l280 -116l280 116l116 280l-116 280l-280 116l-280 -116z" />
    <glyph glyph-name="uni2605" unicode="&#x2605;" horiz-adv-x="880" 
d="M440 180l260 -190l-99 307l260 189h-322l-99 306l-99 -306h-322l260 -189l-99 -307z" />
    <glyph glyph-name="ballotboxwithx" unicode="&#x2612;" horiz-adv-x="680" 
d="M180 405l140 -140l-140 -140l15 -15l140 140l140 -140l15 15l-140 140l140 140l-15 15l-140 -140l-140 140zM580 510v-490h-490v490h490zM600 0v530h-530v-530h530z" />
    <glyph glyph-name="uni263C" unicode="&#x263c;" horiz-adv-x="960" 
d="M521 191l21 -32l17 -64l20 -50l49 -21l15 2l13 6l-24 9l-24 50l4 31l4 31l-12 47l-14 19l172 -113l-113 172l46 -10l49 -31l24 -16l27 -5l38 11l24 35l-10 -6l-25 -6l-43 22l-35 46l-42 25l-24 4l202 42l-202 42l32 21l64 17l51 20l20 49l-2 15l-6 13l-9 -24l-50 -24
l-31 4l-31 4l-47 -12l-19 -14l113 172l-172 -113l10 46l31 49l16 24l5 27l-11 38l-35 24l6 -10l6 -25l-22 -43l-46 -35l-25 -42l-4 -24l-42 202l-42 -202l-21 32l-17 64l-20 51l-49 20l-15 -2l-13 -6l24 -9l24 -50l-4 -31l-4 -31l12 -47l14 -19l-172 113l113 -172l-46 10
l-49 31l-24 16l-27 5l-38 -11l-24 -35l10 6l25 6l43 -22l35 -46l42 -25l24 -4l-202 -42l202 -42l-32 -21l-64 -17l-50 -20l-21 -49l2 -15l6 -13l9 24l50 24l31 -4l31 -4l47 12l19 14l-113 -172l172 113l-10 -46l-31 -49l-16 -24l-5 -27l11 -38l35 -24l-6 10l-6 25l22 43
l46 35l25 42l4 24l42 -202z" />
    <glyph glyph-name="uni263E" unicode="&#x263e;" horiz-adv-x="960" 
d="M624 728l49 -4l47 -11l-112 57l-128 20l-283 -117l-117 -283l117 -283l283 -117l128 20l112 57l-47 -11l-49 -4l-229 99l-95 239l95 239z" />
    <glyph glyph-name="spade" unicode="&#x2660;" horiz-adv-x="900" 
d="M451 790h-2l-89 -108l-144 -122l-115 -95l-49 -131l51 -124l125 -50l124 49l76 112l3 -1l-26 -173l-56 -147h202l-56 147l-26 173l3 1l76 -112l124 -49l125 50l51 124l-49 131l-115 95l-144 122z" />
    <glyph glyph-name="club" unicode="&#x2663;" horiz-adv-x="900" 
d="M349 0h202l-56 147l-26 173l3 1l76 -112l124 -49l125 50l51 124l-48 129l-126 51l-46 -7l-38 -16l-2 2l27 54l11 63l-50 127l-126 53l-126 -53l-50 -127l11 -63l27 -54l-2 -2l-38 16l-46 7l-126 -51l-48 -129l51 -124l125 -50l124 49l76 112l3 -1l-26 -173z" />
    <glyph glyph-name="heart" unicode="&#x2665;" horiz-adv-x="900" 
d="M451 -10l89 120l144 173l108 141l56 160l-51 147l-140 59l-138 -47l-67 -110h-4l-67 110l-138 47l-140 -59l-51 -147l56 -160l108 -141l144 -173l89 -120h2z" />
    <glyph glyph-name="diamond" unicode="&#x2666;" horiz-adv-x="900" 
d="M817 390l-203 189l-163 211h-2l-163 -211l-203 -189l203 -189l163 -211h2l163 211z" />
    <glyph glyph-name="uni267B" unicode="&#x267b;" horiz-adv-x="959" 
d="M806 527l-149 -86l116 -201l72 37l40 89l-3 25l-7 19zM446 41v173h-232l-5 -81l58 -79l24 -10l20 -3h135zM200 598l150 -86l116 201l-68 45l-97 -10l-21 -15l-13 -16zM404 779l34 -9l57 -48l72 -125l-41 -24l173 -31l61 166l-43 -24l-28 49l-41 40l-51 7h-193v-1z
M186 122l-9 35l13 73l37 64l35 61l41 -24l-59 166l-174 -31l42 -24l-28 -49l-14 -56l18 -47l96 -168h2zM863 266l-25 -26l-70 -26h-145v49l-113 -135l113 -136v49h57l56 16l32 40l96 167z" />
    <glyph glyph-name="uni267C" unicode="&#x267c;" horiz-adv-x="960" 
d="M64 390l116 -280l280 -116l280 116l116 280l-116 280l-280 116l-280 -116zM755 294l-75 -130l-24 -30l-44 -13h-44v-38l-88 105l88 105v-38h112l54 20l20 20zM763 407l6 -14l2 -20l-31 -69l-56 -29l-90 156l116 67zM228 184l-75 130l-14 36l11 44l22 38l-33 19l135 24
l46 -129l-32 19l-56 -97l-10 -57l7 -27h-1zM322 121l-15 2l-19 8l-44 61l3 63h180v-134h-105zM394 694h150l39 -5l32 -32l22 -38l33 19l-47 -129l-134 24l32 19l-56 97l-44 37l-27 7v1zM292 645l10 12l16 12l75 8l53 -35l-90 -156l-116 67z" />
    <glyph glyph-name="uni267D" unicode="&#x267d;" horiz-adv-x="960" 
d="M84 390l110 266l266 110l266 -110l110 -266l-110 -266l-266 -110l-266 110zM64 390l116 -280l280 -116l280 116l116 280l-116 280l-280 116l-280 -116zM754 295l-20 -20l-54 -20h-112v38l-88 -105l88 -105v38h44l44 13l24 30l75 130zM710 498l-116 -67l90 -156l56 29
l31 69l-2 20l-6 14zM229 184l-7 27l10 57l56 97l32 -19l-46 129l-135 -24l33 -19l-22 -38l-11 -44l14 -36l75 -130h1zM427 121v134h-180l-3 -63l44 -61l19 -8l15 -2h105zM394 693l27 -7l44 -37l56 -97l-32 -19l134 -24l47 129l-33 -19l-22 38l-32 32l-39 5h-150v-1zM240 553
l116 -67l90 156l-53 35l-75 -8l-16 -12l-10 -12z" />
    <glyph glyph-name="mediumwhitecircle" unicode="&#x26aa;" horiz-adv-x="670" 
d="M84 265l73 178l178 73l178 -73l73 -178l-73 -178l-178 -73l-178 73zM64 265l79 -192l192 -79l192 79l79 192l-79 192l-192 79l-192 -79z" />
    <glyph glyph-name="mediumblackcircle" unicode="&#x26ab;" horiz-adv-x="670" 
d="M64 265l79 -192l192 -79l192 79l79 192l-79 192l-192 79l-192 -79z" />
    <glyph glyph-name="anglebracketleft" unicode="&#x3008;" 
d="M310 840h-22l-225 -480l99 -480h20l-98 478z" />
    <glyph glyph-name="anglebracketright" unicode="&#x3009;" 
d="M-14 -120h22l225 480l-99 480h-20l98 -478z" />
    <glyph glyph-name="fi" unicode="&#xe38c;" horiz-adv-x="520" 
d="M495 720h-40l-5 -40h40zM371 0h20l69 530h-20zM174 672l43 92l81 22l42 -5l22 -8l3 20l-22 7l-45 6l-90 -23l-52 -98l-21 -155h-85l-3 -20h86l-67 -510h20l67 510h164l3 20h-165z" />
    <glyph glyph-name="fl" unicode="&#xe38d;" horiz-adv-x="520" 
d="M371 0h20l105 800h-20zM174 672l43 92l81 22l42 -5l22 -8l3 20l-22 7l-45 6l-90 -23l-52 -98l-21 -155h-85l-3 -20h86l-67 -510h20l67 510h164l3 20h-165z" />
    <glyph glyph-name="invertedbreve" unicode="&#xe411;" horiz-adv-x="497" 
d="M303 786l-120 -49l-51 -117h19l45 104l107 44l94 -44l18 -104h17l-22 117z" />
    <glyph glyph-name="doublegrave" unicode="&#xe412;" horiz-adv-x="500" 
d="M252 780l69 -160h22l-69 160h-22zM152 780l69 -160h22l-69 160h-22z" />
    <glyph glyph-name="caronSlovak" unicode="&#xe413;" horiz-adv-x="500" 
d="M393 780l-21 -160h10l31 160h-20z" />
    <glyph glyph-name="dotbelow" unicode="&#xe415;" horiz-adv-x="602" 
d="M161 -150h40l5 40h-40z" />
    <glyph glyph-name="altcedilla" unicode="&#xe416;" horiz-adv-x="602" 
d="M196 -64l-37 -3l-28 -8v-17l28 7l30 3l47 -7l21 -37l-25 -50l-53 -12l-40 5l-33 13l-8 -16l38 -15l43 -5l66 17l30 63l-26 49z" />
    <glyph glyph-name="grave.cap" unicode="&#xe421;" horiz-adv-x="500" 
d="M253 950l47 -110h22l-47 110h-22z" />
    <glyph glyph-name="acute.cap" unicode="&#xe422;" horiz-adv-x="500" 
d="M377 950l-77 -110h22l77 110h-22z" />
    <glyph glyph-name="circumflex.cap" unicode="&#xe423;" horiz-adv-x="500" 
d="M226 840l99 95l73 -95h23l-85 110h-20l-115 -110h25z" />
    <glyph glyph-name="tilde.cap" unicode="&#xe424;" horiz-adv-x="500" 
d="M440 927l-21 -43l-33 -9l-66 29l-69 29l-45 -14l-27 -56h18l21 43l33 9l66 -29l69 -29l45 14l27 56h-18z" />
    <glyph glyph-name="macron.cap" unicode="&#xe425;" horiz-adv-x="500" 
d="M217 885h200l3 20h-200z" />
    <glyph glyph-name="breve.cap" unicode="&#xe426;" horiz-adv-x="500" 
d="M310 852l-78 27l-19 71h-17l22 -84l93 -32l100 32l45 84h-19l-40 -71z" />
    <glyph glyph-name="invertedbreve.cap" unicode="&#xe427;" horiz-adv-x="498" 
d="M327 938l79 -26l18 -72h17l-22 84l-93 32l-100 -32l-45 -84h19l40 72z" />
    <glyph glyph-name="dotaccent.cap" unicode="&#xe428;" horiz-adv-x="500" 
d="M341 915h-40l-5 -40h40z" />
    <glyph glyph-name="dieresis.cap" unicode="&#xe429;" horiz-adv-x="500" 
d="M411 915h-40l-5 -40h40zM271 915h-40l-5 -40h40z" />
    <glyph glyph-name="ring.cap" unicode="&#xe42a;" horiz-adv-x="500" 
d="M323 956l-66 -27l-29 -67l22 -57l58 -21l66 28l29 66l-22 57zM323 938l44 -15l17 -45l-22 -55l-54 -21l-44 15l-17 45l22 55z" />
    <glyph glyph-name="hungarumlaut.cap" unicode="&#xe42b;" horiz-adv-x="500" 
d="M327 950l-77 -110h22l77 110h-22zM427 950l-77 -110h22l77 110h-22z" />
    <glyph glyph-name="doublegrave.cap" unicode="&#xe42c;" horiz-adv-x="500" 
d="M303 950l47 -110h22l-47 110h-22zM203 950l47 -110h22l-47 110h-22z" />
    <glyph glyph-name="caron.cap" unicode="&#xe42d;" horiz-adv-x="500" 
d="M411 950l-99 -95l-73 95h-23l85 -110h20l115 110h-25z" />
    <glyph glyph-name="commaaccent.cap" unicode="&#xe42e;" horiz-adv-x="500" 
d="M291 840h40l5 40h-20l18 42l42 14l2 20l-58 -21l-25 -63z" />
    <glyph glyph-name="exclamdown.cap" unicode="&#xe441;" horiz-adv-x="180" 
d="M118 740h40l5 40h-40zM51 0l76 605h-14l-82 -605h20z" />
    <glyph glyph-name="questiondown.cap" unicode="&#xe444;" horiz-adv-x="440" 
d="M248 740h40l5 40h-40zM174 -6l150 73l68 189l3 24h-20l-64 -195l-137 -71l-110 46l-31 105l103 212l121 228h-14l-126 -222l-105 -217l37 -121z" />
    <glyph glyph-name="guilsinglleft.cap" unicode="&#xe451;" 
d="M274 556l-220 -156l-3 -20l179 -156l4 23l-164 141l201 141z" />
    <glyph glyph-name="guilsinglright.cap" unicode="&#xe452;" 
d="M31 224l220 156l3 20l-179 156l-4 -23l164 -141l-201 -141z" />
    <glyph glyph-name="guillemotleft.cap" unicode="&#xe453;" horiz-adv-x="500" 
d="M474 556l-220 -156l-3 -20l179 -156l4 23l-164 141l201 141zM274 556l-220 -156l-3 -20l179 -156l4 23l-164 141l201 141z" />
    <glyph glyph-name="guillemotright.cap" unicode="&#xe454;" horiz-adv-x="500" 
d="M31 224l220 156l3 20l-179 156l-4 -23l164 -141l-201 -141zM231 224l220 156l3 20l-179 156l-4 -23l164 -141l-201 -141z" />
    <glyph glyph-name="slash.cap" unicode="&#xe461;" 
d="M15 0l294 780h-20l-294 -780h20z" />
    <glyph glyph-name="backslash.cap" unicode="&#xe462;" 
d="M97 780l90 -780h20l-90 780h-20z" />
    <glyph glyph-name="bar.cap" unicode="&#xe463;" horiz-adv-x="180" 
d="M31 0h20l102 780h-20z" />
    <glyph glyph-name="doublebar.cap" unicode="&#xe464;" horiz-adv-x="280" 
d="M131 0h20l102 780h-20zM31 0h20l102 780h-20z" />
    <glyph glyph-name="brokenbar.cap" unicode="&#xe465;" horiz-adv-x="180" 
d="M31 0h20l46 350h-20zM87 430h20l46 350h-20z" />
    <glyph glyph-name="bullet.cap" unicode="&#xe466;" horiz-adv-x="380" 
d="M328 510h-240l-32 -240h240z" />
    <glyph glyph-name="onethirdemdash" unicode="&#xe471;" horiz-adv-x="333" 
d="M44 330h233l3 20h-233z" />
    <glyph glyph-name="threequarteremdash" unicode="&#xe472;" horiz-adv-x="750" 
d="M44 330h650l3 20h-650z" />
    <glyph glyph-name="periodcentered.cap" unicode="&#xe481;" horiz-adv-x="180" 
d="M115 410h-40l-5 -40h40z" />
    <glyph glyph-name="hyphen.cap" unicode="&#xe482;" horiz-adv-x="320" 
d="M51 380h220l3 20h-220z" />
    <glyph glyph-name="onethirdemdash.cap" unicode="&#xe483;" horiz-adv-x="333" 
d="M51 380h233l3 20h-233z" />
    <glyph glyph-name="endash.cap" unicode="&#xe484;" horiz-adv-x="500" 
d="M51 380h400l3 20h-400z" />
    <glyph glyph-name="threequarteremdash.cap" unicode="&#xe485;" horiz-adv-x="750" 
d="M51 380h650l3 20h-650z" />
    <glyph glyph-name="emdash.cap" unicode="&#xe486;" horiz-adv-x="1000" 
d="M51 380h900l3 20h-900z" />
    <glyph glyph-name="figuredash.cap" unicode="&#xe487;" horiz-adv-x="600" 
d="M51 380h500l3 20h-500z" />
    <glyph glyph-name="uni2015.cap" unicode="&#xe488;" horiz-adv-x="1200" 
d="M51 380h1100l3 20h-1100z" />
    <glyph glyph-name="parenleft.cap" unicode="&#xe491;" 
d="M76 378l9 -205l66 -173h22l-67 176l-10 202l3 24l63 202l113 176h-23l-111 -172l-62 -206z" />
    <glyph glyph-name="parenright.cap" unicode="&#xe492;" horiz-adv-x="295" 
d="M228 402l-9 206l-66 172h-22l67 -176l10 -202l-3 -24l-63 -202l-113 -176h23l111 173l62 205z" />
    <glyph glyph-name="bracketleft.cap" unicode="&#xe493;" 
d="M133 780l-102 -780h170l3 20h-150l97 740h149l3 20h-170z" />
    <glyph glyph-name="bracketright.cap" unicode="&#xe494;" 
d="M171 0l102 780h-170l-3 -20h150l-97 -740h-149l-3 -20h170z" />
    <glyph glyph-name="braceleft.cap" unicode="&#xe495;" 
d="M303 780h-4l-88 -22l-49 -103l-21 -161l-35 -77l-68 -17l-3 -20l64 -16l15 -76l-21 -161l22 -103l82 -24h4l3 20l-74 20l-17 90l20 157l-7 72l-39 31l47 30l26 73l21 157l41 91l78 19z" />
    <glyph glyph-name="braceright.cap" unicode="&#xe496;" 
d="M1 0h4l88 22l49 103l21 161l35 77l68 17l3 20l-63 16l-16 76l21 161l-22 103l-82 24h-4l-3 -20l74 -20l17 -90l-20 -157l7 -72l39 -31l-47 -30l-26 -73l-21 -157l-41 -91l-78 -19z" />
    <glyph glyph-name="anglebracketleft.cap" unicode="&#xe497;" 
d="M168 0l-80 388l184 392h-22l-183 -390l81 -390h20z" />
    <glyph glyph-name="anglebracketright.cap" unicode="&#xe498;" 
d="M134 780l80 -388l-184 -392h22l183 390l-81 390h-20z" />
    <glyph glyph-name="lowline" unicode="&#xe511;" horiz-adv-x="320" 
d="M1 0h220l3 20h-220z" />
    <glyph glyph-name="underscoremonospace" unicode="&#xe512;" horiz-adv-x="600" 
d="M-14 -110h500l3 20h-500z" />
    <glyph glyph-name="at.cap" unicode="&#xe513;" horiz-adv-x="926" 
d="M632 523l-34 -252l-69 -68l-102 -29l-123 49l-36 160l3 24l76 160l130 49l102 -31zM431 -86l-294 125l-82 339l3 24l157 339l315 125h6l267 -96l86 -288l-3 -24l-98 -224l-177 -54l9 100l30 228l21 122h-15l-18 -83l-56 60l-105 29l-144 -54l-82 -175l-3 -24l40 -175
l139 -54l108 30l63 60l-4 -84h5l200 59l107 239l3 24l-90 300l-286 104l-329 -128l-166 -356l-3 -24l87 -351l312 -133l173 20l177 83l-10 16l-167 -78l-170 -21h-6z" />
    <glyph glyph-name="zero.inf" unicode="&#xe571;" horiz-adv-x="298" 
d="M185 -86l-30 -75l-75 -25h-6l-67 27l-12 74l21 161l30 75l75 25h6l67 -27l12 -74zM228 83l-18 81l-86 31l-91 -30l-37 -82l-23 -176l18 -81l86 -31l91 30l37 82z" />
    <glyph glyph-name="one.inf" unicode="&#xe572;" 
d="M196 -200l3 20h-107l49 372h-15l-135 -83l10 -18l116 71l-45 -342h-108l-3 -20h235z" />
    <glyph glyph-name="two.inf" unicode="&#xe573;" horiz-adv-x="299" 
d="M29 -180l-41 -1l185 168l42 46l17 48l1 10l-24 76l-85 28l-94 -32l-39 -88l-2 -15h20l35 90l77 26h6l68 -24l17 -62l-1 -10l-14 -39l-41 -45l-199 -181l-2 -15h235l3 20h-164z" />
    <glyph glyph-name="three.inf" unicode="&#xe574;" horiz-adv-x="299" 
d="M77 -186l-73 25l-16 86h-20l-1 -10l22 -87l91 -33l87 26l43 75l1 10l-13 62l-47 30l56 30l25 58l1 10l-25 73l-85 26l-95 -34l-38 -91l-1 -10h20l34 89l77 27h6l67 -22l19 -59l-1 -10l-34 -58l-69 -19h-56l-3 -20h59l63 -20l19 -62l-1 -10l-36 -62l-70 -20h-6z" />
    <glyph glyph-name="four.inf" unicode="&#xe575;" 
d="M161 152l-29 -222h-95l-52 -1zM135 -200l14 110h72l3 20h-72l34 260h-19l-209 -265l-2 -15h173l-14 -110h20z" />
    <glyph glyph-name="five.inf" unicode="&#xe576;" 
d="M-6 -35l45 46l59 15h6l66 -24l22 -77l-1 -10l-37 -77l-71 -24h-6l-73 25l-16 86h-20l-1 -10l22 -87l91 -33l88 30l44 91l1 10l-29 90l-83 29l-56 -10l-42 -30l29 165h208l3 20h-227l-39 -221z" />
    <glyph glyph-name="six.inf" unicode="&#xe577;" 
d="M108 26l66 -25l21 -76l-1 -10l-33 -75l-74 -26h-6l-65 25l-25 74l2 26l4 23l43 45l62 19h6zM234 195l-92 -16l-91 -61l-56 -88l-22 -90l-1 -10l24 -99l88 -36l88 29l43 92l1 10l-26 91l-85 28l-57 -14l-43 -33l24 54l37 53l81 56l84 14z" />
    <glyph glyph-name="seven.inf" unicode="&#xe578;" 
d="M-10 50h19l16 120h197l-200 -370h22l202 375l2 15h-240z" />
    <glyph glyph-name="eight.inf" unicode="&#xe579;" horiz-adv-x="299" 
d="M126 176l67 -22l19 -59l-1 -10l-35 -59l-68 -18h-12l-62 19l-20 57l1 10l32 59l73 23h6zM108 -12l63 -20l19 -62l-1 -10l-36 -62l-70 -20h-6l-69 18l-22 64l1 10l35 62l69 20h17zM80 -205l87 26l43 75l1 10l-13 62l-47 30l56 29l25 59l1 10l-25 73l-85 26l-90 -27
l-39 -73l-1 -10l13 -57l45 -29l-57 -30l-28 -63l-1 -10l29 -77z" />
    <glyph glyph-name="nine.inf" unicode="&#xe57a;" horiz-adv-x="299" 
d="M92 -36l-66 25l-21 76l1 10l33 75l74 26h6l65 -25l25 -74l-2 -26l-4 -23l-43 -45l-62 -19h-6zM-36 -205l93 16l92 61l56 88l22 90l1 10l-24 99l-88 36l-88 -29l-43 -92l-1 -10l26 -91l85 -28l57 14l43 33l-24 -54l-37 -53l-82 -56l-85 -14z" />
    <glyph glyph-name="plus.inf" unicode="&#xe57b;" 
d="M107 120l-15 -115h-115l-3 -20h115l-15 -115h20l15 115h115l3 20h-115l15 115h-20z" />
    <glyph glyph-name="minus.inf" unicode="&#xe57c;" 
d="M-26 -15h250l3 20h-250z" />
    <glyph glyph-name="equal.inf" unicode="&#xe57d;" 
d="M-33 -65h250l3 20h-250zM-19 35h250l3 20h-250z" />
    <glyph glyph-name="parenleft.inf" unicode="&#xe57e;" horiz-adv-x="150" 
d="M-18 -7l5 -105l32 -88h22l-35 89l-4 104l1 8l30 102l59 87h-23l-56 -85l-30 -104z" />
    <glyph glyph-name="parenright.inf" unicode="&#xe57f;" horiz-adv-x="147" 
d="M68 -3l-5 105l-32 88h-22l35 -89l4 -104l-1 -8l-30 -102l-59 -87h23l57 85l29 104z" />
    <glyph glyph-name="Anocross" unicode="&#xe731;" horiz-adv-x="590" 
d="M340 790l-354 -790h22l339 760l139 -760h20l-146 790h-20z" />
    <glyph glyph-name="blacksquare" unicode="&#xe740;" horiz-adv-x="920" 
d="M850 0v780h-780v-780h780z" />
    <glyph glyph-name="idotaccent" unicode="&#xe785;" horiz-adv-x="180" 
d="M155 720h-40l-5 -40h40zM31 0h20l69 530h-20z" />
    <glyph glyph-name="interrobangdown" unicode="&#xe935;" horiz-adv-x="440" 
d="M215 490h40l5 40h-40zM0 -45l77 163l120 147l-61 -451l-106 44zM141 -206l152 66l69 176l3 24h-20l-60 -175l-129 -70l68 540h-14l-126 -204l-105 -195l37 -114z" />
    <glyph glyph-name="interrobangdown.cap" unicode="&#xe99b;" horiz-adv-x="440" 
d="M248 740h40l5 40h-40zM33 165l77 184l121 168l-68 -503l-101 49zM174 -6l150 73l68 189l3 24h-20l-61 -192l-131 -74l74 591h-14l-126 -222l-105 -217l37 -121z" />
    <glyph glyph-name="registered.cap" unicode="&#xe99c;" horiz-adv-x="900" 
d="M327 375v230h138l74 -21l39 -89v-10l-39 -89l-74 -21h-138zM327 355h136h17l17 2l79 -202h22l-81 207l57 39l24 82v14l-44 102l-91 26h-156v-470h20v200zM74 390l110 266l266 110l266 -110l110 -266l-110 -266l-266 -110l-266 110zM54 390l116 -280l280 -116l280 116
l116 280l-116 280l-280 116l-280 -116z" />
    <glyph glyph-name="period.T" unicode="&#xf182;" 
d="M126 40h-40l-5 -40h40z" />
    <glyph glyph-name="comma.T" unicode="&#xf183;" 
d="M126 40h-40l-5 -40h20l-29 -67l-48 -18l-2 -20l65 28l35 85z" />
    <glyph glyph-name="colon.T" unicode="&#xf184;" 
d="M174 410h-40l-5 -40h40zM126 40h-40l-5 -40h40z" />
    <glyph glyph-name="semicolon.T" unicode="&#xf185;" 
d="M126 40h-40l-5 -40h20l-29 -67l-48 -18l-2 -20l65 28l35 85zM174 410h-40l-5 -40h40z" />
    <glyph glyph-name="onesixteenth" unicode="&#xf215;" horiz-adv-x="1100" 
d="M934 226l66 -25l21 -76l-1 -10l-33 -74l-74 -27h-6l-65 26l-25 73l2 26l4 23l43 45l62 19h6zM1060 395l-92 -16l-91 -61l-55 -88l-23 -90l-1 -10l24 -99l88 -36l88 29l43 92l1 10l-26 91l-85 28l-57 -14l-43 -33l24 54l37 53l81 56l84 14zM722 0l3 20h-107l49 372h-15
l-135 -83l10 -18l116 71l-45 -342h-108l-3 -20h235zM77 0l676 780h-26l-676 -780h26zM273 390l3 20h-107l49 372h-15l-135 -83l10 -18l116 71l-45 -342h-108l-3 -20h235z" />
    <glyph glyph-name="threesixteenths" unicode="&#xf216;" horiz-adv-x="1100" 
d="M934 226l66 -25l21 -76l-1 -10l-33 -74l-74 -27h-6l-65 26l-25 73l2 26l4 23l43 45l62 19h6zM1060 395l-92 -16l-91 -61l-55 -88l-23 -90l-1 -10l24 -99l88 -36l88 29l43 92l1 10l-26 91l-85 28l-57 -14l-43 -33l24 54l37 53l81 56l84 14zM722 0l3 20h-107l49 372h-15
l-135 -83l10 -18l116 71l-45 -342h-108l-3 -20h235zM77 0l676 780h-26l-676 -780h26zM154 404l-73 25l-16 86h-20l-1 -10l22 -87l91 -33l87 26l43 75l1 10l-13 62l-47 30l56 30l25 58l1 10l-25 73l-85 26l-95 -34l-38 -91l-1 -10h20l34 89l77 27h6l67 -22l19 -59l-1 -10
l-34 -58l-69 -19h-56l-3 -20h59l63 -20l19 -62l-1 -10l-36 -62l-70 -20h-6z" />
    <glyph glyph-name="fivesixteenths" unicode="&#xf217;" horiz-adv-x="1100" 
d="M934 226l66 -25l21 -76l-1 -10l-33 -74l-74 -27h-6l-65 26l-25 73l2 26l4 23l43 45l62 19h6zM1060 395l-92 -16l-91 -61l-55 -88l-23 -90l-1 -10l24 -99l88 -36l88 29l43 92l1 10l-26 91l-85 28l-57 -14l-43 -33l24 54l37 53l81 56l84 14zM722 0l3 20h-107l49 372h-15
l-135 -83l10 -18l116 71l-45 -342h-108l-3 -20h235zM77 0l676 780h-26l-676 -780h26zM71 555l45 46l59 15h6l66 -24l22 -77l-1 -10l-37 -77l-71 -24h-6l-73 25l-16 86h-20l-1 -10l22 -87l91 -33l88 31l44 90l1 10l-29 90l-83 29l-56 -10l-42 -30l29 165h208l3 20h-227
l-39 -221z" />
    <glyph glyph-name="sevensixteenths" unicode="&#xf218;" horiz-adv-x="1100" 
d="M934 226l66 -25l21 -76l-1 -10l-33 -74l-74 -27h-6l-65 26l-25 73l2 26l4 23l43 45l62 19h6zM1060 395l-92 -16l-91 -61l-55 -88l-23 -90l-1 -10l24 -99l88 -36l88 29l43 92l1 10l-26 91l-85 28l-57 -14l-43 -33l24 54l37 53l81 56l84 14zM722 0l3 20h-107l49 372h-15
l-135 -83l10 -18l116 71l-45 -342h-108l-3 -20h235zM77 0l676 780h-26l-676 -780h26zM67 640h19l16 120h197l-200 -370h22l202 375l2 15h-240z" />
    <glyph glyph-name="ninesixteenths" unicode="&#xf219;" horiz-adv-x="1100" 
d="M934 226l66 -25l21 -76l-1 -10l-33 -74l-74 -27h-6l-65 26l-25 73l2 26l4 23l43 45l62 19h6zM1060 395l-92 -16l-91 -61l-55 -88l-23 -90l-1 -10l24 -99l88 -36l88 29l43 92l1 10l-26 91l-85 28l-57 -14l-43 -33l24 54l37 53l81 56l84 14zM722 0l3 20h-107l49 372h-15
l-135 -83l10 -18l116 71l-45 -342h-108l-3 -20h235zM77 0l676 780h-26l-676 -780h26zM169 554l-66 25l-21 76l1 10l33 75l74 26h6l65 -25l25 -74l-2 -26l-4 -23l-43 -45l-62 -19h-6zM41 385l93 16l92 61l56 88l22 90l1 10l-24 99l-88 36l-88 -29l-43 -92l-1 -10l26 -91
l85 -28l57 14l43 33l-24 -54l-37 -53l-82 -56l-85 -14z" />
    <glyph glyph-name="elevensixteenths" unicode="&#xf220;" horiz-adv-x="1400" 
d="M1234 226l66 -25l21 -76l-1 -10l-33 -74l-74 -27h-6l-65 26l-25 73l2 26l4 23l43 45l62 19h6zM1360 395l-92 -16l-91 -61l-55 -88l-23 -90l-1 -10l24 -99l88 -36l88 29l43 92l1 10l-26 91l-85 28l-57 -14l-43 -33l24 54l37 53l81 56l84 14zM1022 0l3 20h-107l49 372h-15
l-135 -83l10 -18l116 71l-45 -342h-108l-3 -20h235zM377 0l676 780h-26l-676 -780h26zM573 390l3 20h-107l49 372h-15l-135 -83l10 -18l116 71l-45 -342h-108l-3 -20h235zM273 390l3 20h-107l49 372h-15l-135 -83l10 -18l116 71l-45 -342h-108l-3 -20h235z" />
    <glyph glyph-name="thirteensixteenths" unicode="&#xf221;" horiz-adv-x="1400" 
d="M1234 226l66 -25l21 -76l-1 -10l-33 -74l-74 -27h-6l-65 26l-25 73l2 26l4 23l43 45l62 19h6zM1360 395l-92 -16l-91 -61l-55 -88l-23 -90l-1 -10l24 -99l88 -36l88 29l43 92l1 10l-26 91l-85 28l-57 -14l-43 -33l24 54l37 53l81 56l84 14zM1022 0l3 20h-107l49 372h-15
l-135 -83l10 -18l116 71l-45 -342h-108l-3 -20h235zM377 0l676 780h-26l-676 -780h26zM454 404l-73 25l-16 86h-20l-1 -10l22 -87l91 -33l87 26l43 75l1 10l-13 62l-47 30l56 30l25 58l1 10l-25 73l-85 26l-95 -34l-38 -91l-1 -10h20l34 89l77 27h6l67 -22l19 -59l-1 -10
l-34 -58l-69 -19h-56l-3 -20h59l63 -20l19 -62l-1 -10l-36 -62l-70 -20h-6zM273 390l3 20h-107l49 372h-15l-135 -83l10 -18l116 71l-45 -342h-108l-3 -20h235z" />
    <glyph glyph-name="fifteensixteenths" unicode="&#xf222;" horiz-adv-x="1400" 
d="M1234 226l66 -25l21 -76l-1 -10l-33 -74l-74 -27h-6l-65 26l-25 73l2 26l4 23l43 45l62 19h6zM1360 395l-92 -16l-91 -61l-55 -88l-23 -90l-1 -10l24 -99l88 -36l88 29l43 92l1 10l-26 91l-85 28l-57 -14l-43 -33l24 54l37 53l81 56l84 14zM1022 0l3 20h-107l49 372h-15
l-135 -83l10 -18l116 71l-45 -342h-108l-3 -20h235zM377 0l676 780h-26l-676 -780h26zM371 555l45 46l59 15h6l66 -24l22 -77l-1 -10l-37 -77l-71 -24h-6l-73 25l-16 86h-20l-1 -10l22 -87l91 -33l88 31l44 90l1 10l-29 90l-83 29l-56 -10l-42 -30l29 165h208l3 20h-227
l-39 -221zM273 390l3 20h-107l49 372h-15l-135 -83l10 -18l116 71l-45 -342h-108l-3 -20h235z" />
    <glyph glyph-name="commaaccent" unicode="&#xf6c3;" horiz-adv-x="602" 
d="M211 -70h-40l-5 -40h20l-30 -63l-41 -13l-2 -20l59 23l35 81z" />
    </font>
</defs>
</svg>
