<?xml version="1.0" standalone="no"?>
<!DOCTYPE svg PUBLIC "-//W3C//DTD SVG 1.1//EN" "http://www.w3.org/Graphics/SVG/1.1/DTD/svg11.dtd" >
<svg>
<metadata>
Created by FontForge 20120731 at Sun Aug 14 12:57:09 2016
 By www-data
Copyright (c) 2014, Cooper Hewitt Smithsonian Design Museum (cooperhewitt.org)
</metadata>
<defs>
<font id="CooperHewittInterpol1-Bold" horiz-adv-x="300" >
  <font-face 
    font-family="Cooper Hewitt Interpol 1"
    font-weight="711"
    font-stretch="normal"
    units-per-em="1000"
    panose-1="0 0 0 0 0 0 0 0 0 0"
    ascent="750"
    descent="-250"
    x-height="530"
    cap-height="780"
    bbox="-255 -226 1388 968"
    underline-thickness="50"
    underline-position="-75"
    unicode-range="U+0020-F6C3"
  />
<missing-glyph horiz-adv-x="962" 
d="M526 390l275 275v-550zM436 390l-275 -275v550zM202 714h558l-279 -279zM481 345l279 -279h-558zM91 0h780v780h-780v-780z" />
    <glyph glyph-name=".notdef" horiz-adv-x="962" 
d="M526 390l275 275v-550zM436 390l-275 -275v550zM202 714h558l-279 -279zM481 345l279 -279h-558zM91 0h780v780h-780v-780z" />
    <glyph glyph-name="space" unicode=" " horiz-adv-x="200" 
 />
    <glyph glyph-name="exclam" unicode="!" horiz-adv-x="265" 
d="M216 167h-166v-167h166v167zM35 780l42 -552h112l42 552h-196z" />
    <glyph glyph-name="quotedbl" unicode="&#x22;" horiz-adv-x="446" 
d="M245 780l8 -323h122l24 323h-154zM47 780l25 -323h121l9 323h-155z" />
    <glyph glyph-name="numbersign" unicode="#" horiz-adv-x="600" 
d="M270 449h81l-21 -118h-81zM67 449h65l-21 -118h-88v-138h63l-35 -193h137l35 193h81l-35 -193h138l35 193h91v138h-66l21 118h89v138h-64l36 193h-137l-36 -193h-81l36 193h-138l-36 -193h-90v-138z" />
    <glyph glyph-name="dollar" unicode="$" horiz-adv-x="600" 
d="M300 601l72 -29l22 -81h157v14l-28 124l-85 75l32 136h-121l-27 -109h-22l-181 -51l-69 -149v-10l55 -129l162 -60l104 -30l25 -51v-5l-22 -48l-67 -18h-5l-76 29l-24 72h-159v-6l31 -126l92 -74l-32 -135h121l26 110h21l191 53l65 150v10l-56 131l-173 61l-98 29l-22 46
v5l24 49l59 17h8z" />
    <glyph glyph-name="percent" unicode="%" horiz-adv-x="981" 
d="M289 605v-13l-19 -51l-50 -19h-6l-51 19l-19 51v13l19 51l51 20h6l50 -20zM692 175v13l19 51l51 19h6l50 -19l19 -51v-13l-19 -51l-50 -20h-6l-51 20zM575 187v-12l54 -140l136 -48l135 48l54 140v12l-54 140l-135 49l-136 -49zM296 779l-38 10l-41 4l-136 -48l-54 -140
v-12l54 -140l136 -49l135 49l54 140v12v12l-1 11l23 -2l24 -1l42 3l29 5l-264 -633h138l295 708v75l-84 -20l-127 -12l-103 6z" />
    <glyph glyph-name="ampersand" unicode="&#x26;" horiz-adv-x="691" 
d="M224 608l14 40l40 15h6l39 -15l14 -40v-6l-23 -55l-58 -44l-23 48l-9 51v6zM276 123l-72 27l-24 75v6l11 49l28 39l149 -176l-41 -15l-46 -5h-5zM250 -13l113 13l94 37l32 -37h190l-111 131l70 126l23 134v4h-166v-3l-8 -73l-21 -67l-124 147l106 77l48 127v11l-50 126
l-165 53l-165 -53l-51 -126v-11l17 -96l47 -79l-77 -82l-33 -125v-10l60 -163z" />
    <glyph glyph-name="quotesingle" unicode="'" horiz-adv-x="265" 
d="M47 780l25 -323h121l25 323h-171z" />
    <glyph glyph-name="parenleft" unicode="(" horiz-adv-x="365" 
d="M39 350l42 -278l101 -192h164l-106 206l-43 264v20l43 264l106 206h-164l-101 -192l-42 -278v-20z" />
    <glyph glyph-name="parenright" unicode=")" horiz-adv-x="365" 
d="M326 370l-41 278l-102 192h-164l106 -206l43 -264v-20l-43 -264l-106 -206h164l102 192l41 278v20z" />
    <glyph glyph-name="asterisk" unicode="*" horiz-adv-x="413" 
d="M358 467l-83 105l-64 -46l76 -111zM380 706l-125 -47l24 -75l129 37zM126 415l75 111l-64 46l-83 -105zM5 621l128 -37l25 75l-126 47zM162 800l5 -134h79l5 134h-89z" />
    <glyph glyph-name="plus" unicode="+" horiz-adv-x="600" 
d="M230 648v-188h-188v-140h188v-188h140v188h188v140h-188v188h-140z" />
    <glyph glyph-name="comma" unicode="," horiz-adv-x="266" 
d="M216 167h-166v-167h84l-30 -48l-59 -16v-79l128 45l43 133v132z" />
    <glyph glyph-name="hyphen" unicode="-" horiz-adv-x="353" 
d="M40 281h273v138h-273v-138z" />
    <glyph glyph-name="period" unicode="." horiz-adv-x="266" 
d="M216 167h-166v-167h166v167z" />
    <glyph glyph-name="slash" unicode="/" horiz-adv-x="414" 
d="M399 840h-154l-230 -960h154z" />
    <glyph glyph-name="zero" unicode="0" horiz-adv-x="600" 
d="M395 557v-334l-22 -69l-71 -27h-4l-70 27l-23 69v334l23 69l70 27h4l71 -27zM555 221v338l-64 168l-191 66l-191 -66l-64 -168v-338l64 -168l191 -66l191 66z" />
    <glyph glyph-name="one" unicode="1" horiz-adv-x="600" 
d="M561 0v140h-171v641h-119l-243 -165l79 -116l123 83v-443h-171v-140h502z" />
    <glyph glyph-name="two" unicode="2" horiz-adv-x="600" 
d="M341 140l-71 -1l199 218l65 91l22 111v18l-57 146l-199 70l-193 -63l-63 -190v-20h160l25 104l66 29h10l65 -26l26 -80v-10l-13 -55l-39 -50l-300 -331v-101h512v140h-215z" />
    <glyph glyph-name="three" unicode="3" horiz-adv-x="600" 
d="M199 250h-160v-13l65 -185l196 -65l201 74l60 148v19l-28 106l-68 65l65 64l26 103v19l-57 139l-199 69l-193 -63l-63 -190v-20h160l25 104l66 29h10l65 -24l26 -63v-9l-24 -67l-68 -22h-104v-140h107l69 -23l25 -68v-11l-29 -75l-67 -24h-10l-68 27z" />
    <glyph glyph-name="four" unicode="4" horiz-adv-x="600" 
d="M330 526l-2 -58v-158h-84l-51 -2zM488 0v170h85v140h-85v470h-151l-310 -498v-112h301v-170h160z" />
    <glyph glyph-name="five" unicode="5" horiz-adv-x="600" 
d="M39 250v-13l65 -185l196 -65l195 68l66 182v19l-65 182l-188 68l-62 -6l-56 -18l7 158h354v140h-488l-18 -428l137 -47l47 47l62 15h6l74 -26l30 -89v-11l-29 -88l-67 -26h-10l-68 27l-28 96h-160z" />
    <glyph glyph-name="six" unicode="6" horiz-adv-x="600" 
d="M303 352h5l67 -24l27 -78v-19l-29 -77l-69 -27h-6l-70 34l-29 99v32l45 45zM523 793l-214 -30l-160 -117l-86 -175l-24 -185v-13l68 -207l194 -79l195 67l66 182v10l-60 181l-158 65l-68 -10l-55 -27l22 55l30 46l103 73l147 22v142z" />
    <glyph glyph-name="seven" unicode="7" horiz-adv-x="600" 
d="M36 500h141v140h115l95 2l-269 -642h171l277 681v99h-530v-280z" />
    <glyph glyph-name="eight" unicode="8" horiz-adv-x="600" 
d="M305 653l65 -23l26 -63v-10l-24 -67l-68 -22h-8l-68 22l-24 67v10l26 63l65 23h10zM293 328h14l69 -23l25 -68v-11l-29 -76l-67 -23h-10l-67 23l-29 76v11l25 68zM300 -13l201 73l60 148v19l-28 107l-68 65l65 64l26 104v19l-57 138l-199 69l-199 -69l-57 -138v-19
l26 -104l65 -64l-68 -65l-28 -107v-19l60 -148z" />
    <glyph glyph-name="nine" unicode="9" horiz-adv-x="600" 
d="M297 428h-5l-67 24l-27 78v19l29 77l69 27h6l70 -34l29 -99v-32l-46 -45zM77 -13l214 30l160 117l86 175l24 185v13l-68 208l-194 78l-195 -67l-66 -182v-10l60 -181l158 -65l67 10l55 26l-21 -54l-30 -46l-102 -73l-148 -22v-142z" />
    <glyph glyph-name="colon" unicode=":" horiz-adv-x="266" 
d="M216 474h-166v-167h166v167zM216 167h-166v-167h166v167z" />
    <glyph glyph-name="semicolon" unicode=";" horiz-adv-x="266" 
d="M216 474h-166v-167h166v167zM216 167h-166v-167h84l-30 -48l-59 -16v-79l128 45l43 133v132z" />
    <glyph glyph-name="less" unicode="&#x3c;" horiz-adv-x="600" 
d="M42 467v-154l516 -205v156l-338 126l338 126v156z" />
    <glyph glyph-name="equal" unicode="=" horiz-adv-x="600" 
d="M42 211h516v141h-516v-141zM42 428h516v141h-516v-141z" />
    <glyph glyph-name="greater" unicode="&#x3e;" horiz-adv-x="600" 
d="M558 467l-516 205v-156l338 -126l-338 -126v-156l516 205v154z" />
    <glyph glyph-name="question" unicode="?" horiz-adv-x="497" 
d="M328 167h-166v-167h166v167zM253 654l52 -20l15 -55l-71 -138l-60 -213h111l95 178l84 186l-47 138l-179 63l-181 -67l-51 -192v-18h159l16 106z" />
    <glyph glyph-name="at" unicode="@" horiz-adv-x="991" 
d="M563 374v-158l-30 -31l-54 -16l-64 29l-20 80v34l20 80l64 29l54 -16zM513 -110l-274 94l-107 286v40l106 285l270 95h6l235 -59l108 -233v-30l-35 -158l-122 -48v231l9 137h-123l-11 -59l-54 52l-85 20l-139 -65l-46 -166v-34l46 -166l139 -65l85 20l54 52l11 -59h105
l195 64l78 244v30l-136 303l-317 92l-347 -124l-137 -359v-40l138 -359l351 -124l188 25l204 107l-59 80l-156 -82l-174 -27h-6z" />
    <glyph glyph-name="A" unicode="A" horiz-adv-x="641" 
d="M320 595l64 -287h-128zM209 782l-195 -782h174l37 168h191l38 -168h173l-195 782h-223z" />
    <glyph glyph-name="B" unicode="B" horiz-adv-x="631" 
d="M311 640l60 -15l28 -64v-13l-28 -63l-60 -16h-93v171h93zM325 328l64 -18l30 -71v-9l-30 -72l-64 -18h-107v188h107zM56 780v-780h264l179 41l84 183v20l-27 101l-69 58l55 54l21 87v20l-80 177l-171 39h-256z" />
    <glyph glyph-name="C" unicode="C" horiz-adv-x="650" 
d="M203 370v40l26 180l103 63h9l86 -44l22 -125h162v36l-70 210l-209 63l-223 -90l-70 -293v-40l70 -293l223 -90l209 63l70 207v9h-162l-24 -101l-84 -38h-9l-103 63z" />
    <glyph glyph-name="D" unicode="D" horiz-adv-x="663" 
d="M218 140v500h68l137 -56l36 -174v-40l-36 -173l-137 -57h-68zM624 370v40l-77 286l-252 84h-239v-780h239l252 84z" />
    <glyph glyph-name="E" unicode="E" horiz-adv-x="573" 
d="M56 780v-780h477v140h-315v188h265v140h-265v172h315v140h-477z" />
    <glyph glyph-name="F" unicode="F" horiz-adv-x="549" 
d="M56 780v-780h162v328h261v140h-261v172h311v140h-473z" />
    <glyph glyph-name="G" unicode="G" horiz-adv-x="673" 
d="M348 -13l166 28l107 63v344h-265v-140h103v-125l-45 -21l-61 -9h-9l-113 63l-27 180v40l27 180l107 63h9l90 -44l23 -125h162v36l-72 210l-212 63l-225 -90l-74 -293v-40l75 -293z" />
    <glyph glyph-name="H" unicode="H" horiz-adv-x="663" 
d="M445 780v-312h-227v312h-162v-780h162v328h227v-328h162v780h-162z" />
    <glyph glyph-name="I" unicode="I" horiz-adv-x="283" 
d="M223 780h-162v-780h162v780z" />
    <glyph glyph-name="J" unicode="J" horiz-adv-x="537" 
d="M324 780v-522l-15 -97l-59 -34l-58 35l-16 104h-153v-26l51 -187l180 -66l178 66l54 185v542h-162z" />
    <glyph glyph-name="K" unicode="K" horiz-adv-x="625" 
d="M218 780h-162v-780h162v225l66 94l142 -319h180l-219 467l219 313h-196l-192 -306v306z" />
    <glyph glyph-name="L" unicode="L" horiz-adv-x="521" 
d="M506 0v140h-288v640h-162v-780h450z" />
    <glyph glyph-name="M" unicode="M" horiz-adv-x="869" 
d="M656 499l-4 -156v-343h162v780h-240l-139 -499l-140 499h-239v-780h162v343l-5 156l139 -499h165z" />
    <glyph glyph-name="N" unicode="N" horiz-adv-x="683" 
d="M627 780h-154v-327l5 -157l-251 484h-171v-780h153v327l-5 157l252 -484h171v780z" />
    <glyph glyph-name="O" unicode="O" horiz-adv-x="673" 
d="M332 127l-102 63l-27 180v40l27 180l102 63h9l102 -63l26 -180v-40l-26 -180l-102 -63h-9zM336 -13l225 90l73 293v40l-73 293l-225 90l-224 -90l-73 -293v-40l73 -293z" />
    <glyph glyph-name="P" unicode="P" horiz-adv-x="609" 
d="M218 420v220h101l67 -19l33 -86v-10l-33 -85l-67 -20h-101zM218 280h94l183 42l88 198v20l-88 198l-183 42h-256v-780h162v280z" />
    <glyph glyph-name="Q" unicode="Q" horiz-adv-x="673" 
d="M389 262h-122l52 -135l-92 69l-24 174v40l27 180l102 63h9l102 -63l26 -180v-40l-9 -124l-33 -81zM336 -13l19 1l18 1l34 -89h126l-47 117l112 123l36 230v40l-73 293l-225 90l-224 -90l-73 -293v-40l73 -293z" />
    <glyph glyph-name="R" unicode="R" horiz-adv-x="623" 
d="M218 420v220h101l67 -19l33 -86v-10l-33 -85l-67 -20h-101zM218 280h83l107 -280h175l-123 303l88 72l35 145v20l-88 198l-183 42h-256v-780h162v280z" />
    <glyph glyph-name="S" unicode="S" horiz-adv-x="631" 
d="M290 326l113 -36l29 -66v-5l-28 -65l-84 -27h-9l-86 33l-29 106h-162v-9l72 -205l209 -65l210 62l72 175v10l-64 159l-192 67l-111 35l-26 67v5l27 62l76 24h9l87 -36l26 -113h162v21l-66 203l-210 65l-204 -63l-71 -169v-11l61 -156z" />
    <glyph glyph-name="T" unicode="T" horiz-adv-x="557" 
d="M359 640h181v140h-523v-140h180v-640h162v640z" />
    <glyph glyph-name="U" unicode="U" horiz-adv-x="663" 
d="M331 -13l220 66l61 194v533h-162v-528l-25 -94l-94 -31l-93 31l-25 94v528h-162v-533l61 -194z" />
    <glyph glyph-name="V" unicode="V" horiz-adv-x="641" 
d="M432 -2l195 782h-174l-133 -595l-133 595h-173l195 -782h223z" />
    <glyph glyph-name="W" unicode="W" horiz-adv-x="937" 
d="M581 -2h208l129 782h-169l-75 -561l-105 561h-201l-105 -561l-75 561h-169l129 -782h207l113 597z" />
    <glyph glyph-name="X" unicode="X" horiz-adv-x="649" 
d="M19 0h179l126 291l126 -291h180l-190 409l190 371h-188l-118 -259l-117 259h-188l190 -371z" />
    <glyph glyph-name="Y" unicode="Y" horiz-adv-x="625" 
d="M394 239l223 541h-177l-127 -341l-128 341h-177l224 -541v-239h162v239z" />
    <glyph glyph-name="Z" unicode="Z" horiz-adv-x="599" 
d="M40 111v-111h519v140h-178l-143 -3l311 532v111h-499v-140h158l143 3z" />
    <glyph glyph-name="bracketleft" unicode="[" horiz-adv-x="365" 
d="M58 840v-960h274v138h-117v684h117v138h-274z" />
    <glyph glyph-name="backslash" unicode="\" horiz-adv-x="412" 
d="M245 -120h154l-230 960h-154z" />
    <glyph glyph-name="bracketright" unicode="]" horiz-adv-x="365" 
d="M307 -120v960h-274v-138h117v-684h-117v-138h274z" />
    <glyph glyph-name="asciicircum" unicode="^" horiz-adv-x="600" 
d="M377 780h-154l-205 -516h156l126 338l126 -338h156z" />
    <glyph glyph-name="underscore" unicode="_" horiz-adv-x="320" 
d="M42 -185h236v138h-236v-138z" />
    <glyph glyph-name="grave" unicode="`" horiz-adv-x="500" 
d="M65 780l107 -184h156l-91 184h-172z" />
    <glyph glyph-name="a" unicode="a" horiz-adv-x="549" 
d="M250 115l-49 17l-14 37v6l14 41l51 22l90 14v-97l-35 -27zM368 0h142l-10 150v191l-48 149l-177 53l-178 -55l-47 -124v-9h149l14 47l57 21l56 -19l16 -59l-122 -19l-137 -48l-53 -122v-10l36 -111l126 -48l97 19l69 49z" />
    <glyph glyph-name="b" unicode="b" horiz-adv-x="574" 
d="M211 357l32 32l58 18l65 -33l20 -91v-36l-20 -91l-65 -33l-58 18l-32 32v184zM211 800h-158v-650l-9 -150h141l11 64l59 -55l92 -22l153 73l44 187v36l-44 187l-153 73l-80 -16l-56 -42v315z" />
    <glyph glyph-name="c" unicode="c" horiz-adv-x="527" 
d="M188 247v36l20 91l65 33l57 -21l19 -62h149v23l-57 142l-171 54l-183 -73l-57 -187v-36l57 -187l183 -73l171 53l57 134v22h-149l-19 -52l-57 -21l-65 33z" />
    <glyph glyph-name="d" unicode="d" horiz-adv-x="582" 
d="M371 357v-184l-32 -32l-58 -18l-66 33l-20 91v36l20 91l66 33l58 -18zM235 543l-153 -73l-44 -187v-36l44 -187l153 -73l91 22l59 54l11 -63h142l-9 150v650h-158v-315l-56 42z" />
    <glyph glyph-name="e" unicode="e" horiz-adv-x="556" 
d="M278 423l64 -25l25 -76h-178l25 76zM526 208v71l-59 189l-186 75l-188 -75l-63 -189v-28l63 -189l194 -75l177 52l62 127v4h-149l-24 -43l-65 -20l-70 23l-30 78h338z" />
    <glyph glyph-name="f" unicode="f" horiz-adv-x="411" 
d="M258 599l21 63l57 15l28 -2l20 -5v130l-28 8l-57 5l-144 -44l-55 -153v-86h-81v-138h81v-392h158v392h116v138h-116v69z" />
    <glyph glyph-name="g" unicode="g" horiz-adv-x="574" 
d="M273 155l-64 28l-21 84v28l21 81l64 31l59 -18l31 -32v-152l-31 -32zM363 11l-22 -75l-68 -21l-67 24l-17 61h-149v-21l52 -136l184 -56l185 57l60 166v370l9 150h-141l-11 -61l-59 53l-92 21l-151 -71l-46 -177v-28l46 -181l151 -67l80 15l56 39v-62z" />
    <glyph glyph-name="h" unicode="h" horiz-adv-x="580" 
d="M212 800h-158v-800h158v357l32 32l61 18l55 -23l15 -51v-333h157v359l-37 128l-127 56l-92 -18l-64 -46v321z" />
    <glyph glyph-name="i" unicode="i" horiz-adv-x="266" 
d="M216 772h-166v-167h166v167zM54 0h158v530h-158v-530z" />
    <glyph glyph-name="j" unicode="j" horiz-adv-x="268" 
d="M216 772h-166v-167h166v167zM54 1l-21 -63l-57 -15l-29 2l-20 5v-130l28 -8l58 -5l144 44l55 153v546h-158v-529z" />
    <glyph glyph-name="k" unicode="k" horiz-adv-x="562" 
d="M50 0h158v144l52 60l100 -204h184l-175 329l175 201h-189l-147 -180v450h-158v-800z" />
    <glyph glyph-name="l" unicode="l" horiz-adv-x="266" 
d="M54 0h158v800h-158v-800z" />
    <glyph glyph-name="m" unicode="m" horiz-adv-x="863" 
d="M815 0v365l-37 127l-120 51l-99 -23l-64 -59l-51 60l-88 22l-96 -22l-63 -55l-11 64h-141l9 -150v-380h158v361l29 30l52 16l48 -18l15 -49v-340h157v361l29 30l53 16l48 -18l15 -49v-340h157z" />
    <glyph glyph-name="n" unicode="n" horiz-adv-x="580" 
d="M532 0v359l-37 128l-127 56l-103 -23l-67 -58l-12 68h-141l9 -150v-380h158v357l32 32l61 18l55 -23l15 -51v-333h157z" />
    <glyph glyph-name="o" unicode="o" horiz-adv-x="556" 
d="M278 123l-68 33l-22 91v36l22 91l68 33l69 -33l21 -91v-36l-21 -91zM278 -13l188 73l60 187v36l-60 187l-188 73l-188 -73l-60 -187v-36l60 -187z" />
    <glyph glyph-name="p" unicode="p" horiz-adv-x="574" 
d="M301 407l65 -33l20 -91v-36l-20 -91l-65 -33l-58 18l-32 32v184l32 32zM347 -13l153 73l44 187v36l-44 187l-153 73l-92 -22l-59 -56l-11 65h-141l9 -150v-580h158v245l56 -42z" />
    <glyph glyph-name="q" unicode="q" horiz-adv-x="581" 
d="M366 173l-32 -32l-58 -18l-66 33l-20 91v36l20 91l66 33l58 -18l32 -32v-184zM366 -200h158v580l9 150h-142l-11 -64l-59 55l-91 22l-153 -73l-44 -187v-36l44 -187l153 -73l80 16l56 42v-245z" />
    <glyph glyph-name="r" unicode="r" horiz-adv-x="385" 
d="M338 543l-82 -21l-59 -54l-11 62h-141l9 -150v-380h158v344l38 31l76 15h27v152l-7 1h-8z" />
    <glyph glyph-name="s" unicode="s" horiz-adv-x="528" 
d="M264 107l-56 17l-16 44h-157v-5l56 -127l173 -49l172 48l58 130v9l-61 113l-160 37l-61 15l-15 36l17 35l50 13l52 -18l16 -49h155v5l-53 134l-170 48l-159 -41l-64 -132v-9l51 -107l164 -42l63 -16l16 -37l-16 -37z" />
    <glyph glyph-name="t" unicode="t" horiz-adv-x="431" 
d="M258 530v150h-158v-150h-81v-138h81v-208l55 -153l144 -44l57 5l28 8v130l-20 -5l-28 -2l-57 15l-21 63v191h136v138h-136z" />
    <glyph glyph-name="u" unicode="u" horiz-adv-x="580" 
d="M48 530v-359l37 -128l127 -56l103 22l67 58l12 -67h141l-9 150v380h-158v-357l-33 -32l-60 -18l-55 23l-15 51v333h-157z" />
    <glyph glyph-name="v" unicode="v" horiz-adv-x="549" 
d="M164 0h221l155 530h-164l-101 -403l-102 403h-163z" />
    <glyph glyph-name="w" unicode="w" horiz-adv-x="766" 
d="M383 365l74 -365h198l92 530h-155l-40 -359l-75 359h-189l-74 -359l-40 359h-155l91 -530h199z" />
    <glyph glyph-name="x" unicode="x" horiz-adv-x="558" 
d="M17 530l135 -256l-135 -274h178l84 190l85 -190h178l-136 274l136 256h-183l-80 -179l-80 179h-182z" />
    <glyph glyph-name="y" unicode="y" horiz-adv-x="551" 
d="M277 192l-100 338h-172l186 -502l-85 -228h188l68 228l187 502h-172z" />
    <glyph glyph-name="z" unicode="z" horiz-adv-x="499" 
d="M24 108v-108h451v138h-134l-110 -3l234 287v108h-431v-138h114l110 3z" />
    <glyph glyph-name="braceleft" unicode="{" horiz-adv-x="365" 
d="M332 840h-27l-149 -39l-57 -139v-151l-18 -63l-57 -19v-138l54 -17l21 -57v-159l57 -139l149 -39h27v138l-57 20l-19 65v141l-15 71l-45 45l45 45l15 71v150l20 58l56 18v138z" />
    <glyph glyph-name="bar" unicode="|" horiz-adv-x="261" 
d="M54 -120h154v960h-154v-960z" />
    <glyph glyph-name="braceright" unicode="}" horiz-adv-x="365" 
d="M33 -120h27l150 39l56 139v151l18 63l57 19v138l-55 17l-20 56v160l-56 139l-150 39h-27v-138l57 -20l19 -65v-141l15 -71l44 -45l-44 -45l-15 -71v-141l-19 -65l-57 -20v-138z" />
    <glyph glyph-name="asciitilde" unicode="~" horiz-adv-x="600" 
d="M184 482l-93 -28l-63 -67l74 -74l35 31l53 17l101 -32l125 -33l93 28l63 67l-74 74l-35 -31l-53 -17l-101 33z" />
    <glyph glyph-name="nbspace" unicode="&#xa0;" horiz-adv-x="200" 
 />
    <glyph glyph-name="exclamdown" unicode="&#xa1;" horiz-adv-x="265" 
d="M50 363h166v167h-166v-167zM231 -200l-42 502h-112l-42 -502h196z" />
    <glyph glyph-name="cent" unicode="&#xa2;" horiz-adv-x="600" 
d="M561 466v30l-32 136l-96 79l31 129h-122l-26 -109h-9l-203 -81l-65 -241v-38l30 -180l92 -108l-34 -143h122l26 111l16 -1h16l190 58l64 170v16h-156l-20 -76l-71 -29h-7l-83 50l-24 134v36l24 134l83 50h7l71 -33l20 -94h156z" />
    <glyph glyph-name="sterling" unicode="&#xa3;" horiz-adv-x="600" 
d="M322 654l59 -41l17 -113h159v17l-53 207l-182 69l-181 -66l-49 -144l6 -79l14 -70h-68v-137h113l23 -76l17 -82h-153v-139h512v139h-221l-10 83l-15 75h140v137h-176l-16 70l-6 66l16 61z" />
    <glyph glyph-name="yen" unicode="&#xa5;" horiz-adv-x="600" 
d="M41 342h149l26 -62h-175v-138h178v-142h162v142h178v138h-176l26 62h150v138h-92l126 300h-178l-115 -334l-115 334h-178l125 -300h-91v-138z" />
    <glyph glyph-name="brokenbar" unicode="&#xa6;" horiz-adv-x="261" 
d="M54 -120h154v456h-154v-456zM54 384h154v456h-154v-456z" />
    <glyph glyph-name="section" unicode="&#xa7;" horiz-adv-x="549" 
d="M273 455l67 -18l20 -47l-18 -45l-58 -20h-9l-66 18l-20 47l18 45l57 20h9zM518 393v9l-60 122l-160 41l-62 20l-16 40l18 36l50 13l53 -18l16 -50h154v5l-53 134l-170 48l-158 -41l-64 -132v-9l8 -55l26 -44l-51 -50l-18 -75v-9l60 -122l160 -41l61 -20l16 -40l-17 -36
l-51 -13l-52 18l-16 50h-154v-5l53 -134l169 -48l159 41l64 132v9l-9 55l-26 43l52 51z" />
    <glyph glyph-name="dieresis" unicode="&#xa8;" horiz-adv-x="500" 
d="M440 772h-165v-166h165v166zM225 772h-165v-166h165v166z" />
    <glyph glyph-name="copyright" unicode="&#xa9;" horiz-adv-x="920" 
d="M463 264l-61 31l-17 78v34l17 79l61 30l53 -19l17 -53h133v21l-51 125l-155 49l-165 -66l-51 -166v-34l51 -165l165 -67l155 48l51 118v20h-133l-17 -45zM113 390l102 246l245 101l246 -101l101 -246l-101 -245l-246 -102l-245 102zM57 390l118 -285l285 -118l285 118
l118 285l-118 285l-285 118l-285 -118z" />
    <glyph glyph-name="ordfeminine" unicode="&#xaa;" horiz-adv-x="429" 
d="M203 487l-30 10l-8 23v4l9 24l29 13l55 9v-61l-23 -15zM401 181v119h-362v-119h362zM279 387h124l-7 112v142l-38 113l-139 39l-139 -40l-37 -94v-7h130l9 26l33 12l32 -10l11 -32l-84 -13l-106 -37l-40 -92v-7l27 -85l97 -37l69 14l50 36z" />
    <glyph glyph-name="guillemotleft" unicode="&#xab;" horiz-adv-x="565" 
d="M515 563l-216 -147v-152l216 -147v139l-109 84l109 84v139zM266 563l-216 -147v-152l216 -147v139l-109 84l109 84v139z" />
    <glyph glyph-name="logicalnot" unicode="&#xac;" horiz-adv-x="600" 
d="M42 435h375v-241h141v382h-516v-141z" />
    <glyph glyph-name="uni00AD" unicode="&#xad;" horiz-adv-x="353" 
d="M40 281h273v138h-273v-138z" />
    <glyph glyph-name="registered" unicode="&#xae;" horiz-adv-x="330" 
d="M186 693v-3l-5 -13l-13 -4h-24v37h24l13 -4zM241 689v5l-19 45l-42 12h-91v-172h55v53h19l21 -53h57l-28 59l20 18zM41 665l36 88l88 36l88 -36l36 -88l-36 -88l-88 -36l-88 36zM17 665l43 -105l105 -43l105 43l43 105l-43 105l-105 43l-105 -43z" />
    <glyph glyph-name="macron" unicode="&#xaf;" horiz-adv-x="500" 
d="M100 619h300v138h-300v-138z" />
    <glyph glyph-name="degree" unicode="&#xb0;" horiz-adv-x="400" 
d="M362 632l-46 118l-116 43l-115 -43l-47 -118v-5l47 -118l115 -43l116 43l46 118v5zM266 627l-18 -47l-46 -17h-4l-45 17l-19 47v6l19 47l45 17h4l46 -17l18 -47v-6z" />
    <glyph glyph-name="plusminus" unicode="&#xb1;" horiz-adv-x="600" 
d="M42 136h516v141h-516v-141zM230 673v-108h-188v-141h188v-108h140v108h188v141h-188v108h-140z" />
    <glyph glyph-name="twosuperior" unicode="&#xb2;" 
d="M284 493h-105l62 69l32 44l11 53v18l-27 74l-108 42l-109 -44l-27 -84v-15h120l3 29l11 10h3l11 -9l3 -18v-11l-3 -17l-10 -15l-138 -153v-76h271v103z" />
    <glyph glyph-name="threesuperior" unicode="&#xb3;" 
d="M131 515h-120v-8l38 -95l101 -35l101 32l37 83v10l-16 55l-36 32l34 31l14 54v10l-27 68l-108 41l-109 -44l-27 -90v-9h120l3 29l11 10h3l11 -10l3 -15v-2l-3 -18l-12 -7h-49v-96h50l14 -7l5 -18v-5l-6 -22l-11 -8h-3l-12 7z" />
    <glyph glyph-name="acute" unicode="&#xb4;" horiz-adv-x="500" 
d="M263 780l-91 -184h156l107 184h-172z" />
    <glyph glyph-name="paragraph" unicode="&#xb6;" horiz-adv-x="549" 
d="M333 0h162v780h-199l-183 -42l-88 -198v-20l88 -198l183 -42h37v-280z" />
    <glyph glyph-name="periodcentered" unicode="&#xb7;" horiz-adv-x="266" 
d="M216 434h-166v-167h166v167z" />
    <glyph glyph-name="cedilla" unicode="&#xb8;" horiz-adv-x="602" 
d="M144 -190l42 -17l65 -8l90 23l30 65l-29 63l-71 24l15 40h-72l-29 -72l15 -28l12 2l26 3l36 -6l12 -17l-10 -17l-37 -6l-40 5l-32 12z" />
    <glyph glyph-name="onesuperior" unicode="&#xb9;" 
d="M290 390v103h-71v288h-90l-124 -84l59 -85l35 23v-142h-72v-103h263z" />
    <glyph glyph-name="ordmasculine" unicode="&#xba;" horiz-adv-x="443" 
d="M168 570v30l13 56l40 20l41 -20l13 -56v-30l-13 -55l-41 -20l-40 20zM40 181h363v119h-363v-119zM412 570v30l-46 141l-145 53l-144 -53l-46 -141v-30l46 -140l144 -53l145 53z" />
    <glyph glyph-name="guillemotright" unicode="&#xbb;" horiz-adv-x="565" 
d="M50 424l109 -84l-109 -84v-139l216 147v152l-216 147v-139zM299 424l109 -84l-109 -84v-139l216 147v152l-216 147v-139z" />
    <glyph glyph-name="onequarter" unicode="&#xbc;" horiz-adv-x="800" 
d="M637 229v-57h-31zM290 390v103h-71v288h-90l-124 -84l59 -85l35 23v-142h-72v-103h263zM757 0v68h32v104h-32v218h-121l-126 -230v-92h127v-68h120zM179 0l576 780h-134l-576 -780h134z" />
    <glyph glyph-name="onehalf" unicode="&#xbd;" horiz-adv-x="800" 
d="M290 390v103h-71v288h-90l-124 -84l59 -85l35 23v-142h-72v-103h263zM784 103h-105l62 69l32 44l11 53v18l-27 74l-108 42l-109 -44l-27 -84v-15h120l3 29l11 10h3l11 -9l3 -18v-11l-3 -17l-10 -15l-138 -153v-76h271v103zM179 0l576 780h-134l-576 -780h134z" />
    <glyph glyph-name="threequarters" unicode="&#xbe;" horiz-adv-x="800" 
d="M637 229v-57h-31zM757 0v68h32v104h-32v218h-121l-126 -230v-92h127v-68h120zM131 515h-120v-8l38 -95l101 -35l101 32l37 83v10l-16 55l-36 32l34 31l14 54v10l-27 68l-108 41l-109 -44l-27 -90v-9h120l3 29l11 10h3l11 -10l3 -15v-2l-3 -18l-12 -7h-49v-96h50l14 -7
l5 -18v-5l-6 -22l-11 -8h-3l-12 7zM179 0l576 780h-134l-576 -780h134z" />
    <glyph glyph-name="questiondown" unicode="&#xbf;" horiz-adv-x="497" 
d="M169 363h166v167h-166v-167zM244 -74l-51 16l-16 45l70 131l61 184h-111l-94 -149l-85 -179l48 -128l178 -59l180 66l51 190v17h-158l-16 -103z" />
    <glyph glyph-name="Agrave" unicode="&#xc0;" horiz-adv-x="641" 
d="M178 950l64 -110h156l-55 110h-165zM320 595l64 -287h-128zM209 782l-195 -782h174l37 168h191l38 -168h173l-195 782h-223z" />
    <glyph glyph-name="Aacute" unicode="&#xc1;" horiz-adv-x="641" 
d="M297 950l-55 -110h156l64 110h-165zM320 595l64 -287h-128zM209 782l-195 -782h174l37 168h191l38 -168h173l-195 782h-223z" />
    <glyph glyph-name="Acircumflex" unicode="&#xc2;" horiz-adv-x="641" 
d="M320 595l64 -287h-128zM258 840l62 44l62 -44h142l-124 110h-160l-124 -110h142zM209 782l-195 -782h174l37 168h191l38 -168h173l-195 782h-223z" />
    <glyph glyph-name="Atilde" unicode="&#xc3;" horiz-adv-x="641" 
d="M320 595l64 -287h-128zM420 947l-10 -26l-23 -7l-65 24l-84 24l-72 -26l-31 -93h85l10 26l23 7l65 -24l84 -24l72 27l31 92h-85zM209 782l-195 -782h174l37 168h191l38 -168h173l-195 782h-223z" />
    <glyph glyph-name="Adieresis" unicode="&#xc4;" horiz-adv-x="641" 
d="M474 945h-133v-100h133v100zM299 945h-133v-100h133v100zM320 595l64 -287h-128zM209 782l-195 -782h174l37 168h191l38 -168h173l-195 782h-223z" />
    <glyph glyph-name="Aring" unicode="&#xc5;" horiz-adv-x="641" 
d="M269 858l15 36l36 14l36 -14l15 -36l-15 -36l-36 -15l-36 15zM320 595l64 -287h-128zM215 858l9 -42l23 -34h-38l-195 -782h174l37 168h191l38 -168h173l-195 782h-39l23 34l9 42l-31 74l-74 31l-74 -31z" />
    <glyph glyph-name="AE" unicode="&#xc6;" horiz-adv-x="885" 
d="M371 594l31 -284h-122zM280 780l-272 -780h174l54 170h182l19 -170h408v140h-255l-26 188h231v140h-251l-23 172h324v140h-565z" />
    <glyph glyph-name="Ccedilla" unicode="&#xc7;" horiz-adv-x="650" 
d="M235 -190l42 -17l65 -8l90 23l30 65l-29 63l-71 24l11 29l178 72l60 196v9h-162l-24 -101l-84 -38h-9l-103 63l-26 180v40l26 180l103 63h9l86 -44l22 -125h162v36l-70 210l-209 63l-223 -90l-70 -293v-40l63 -282l198 -100l-24 -60l15 -28l12 2l26 3l36 -6l12 -17
l-10 -17l-37 -6l-40 5l-32 12z" />
    <glyph glyph-name="Egrave" unicode="&#xc8;" horiz-adv-x="573" 
d="M154 950l64 -110h156l-55 110h-165zM56 780v-780h477v140h-315v188h265v140h-265v172h315v140h-477z" />
    <glyph glyph-name="Eacute" unicode="&#xc9;" horiz-adv-x="573" 
d="M273 950l-55 -110h156l64 110h-165zM56 780v-780h477v140h-315v188h265v140h-265v172h315v140h-477z" />
    <glyph glyph-name="Ecircumflex" unicode="&#xca;" horiz-adv-x="573" 
d="M234 840l62 44l62 -44h142l-124 110h-160l-124 -110h142zM56 780v-780h477v140h-315v188h265v140h-265v172h315v140h-477z" />
    <glyph glyph-name="Edieresis" unicode="&#xcb;" horiz-adv-x="573" 
d="M450 945h-133v-100h133v100zM275 945h-133v-100h133v100zM56 780v-780h477v140h-315v188h265v140h-265v172h315v140h-477z" />
    <glyph glyph-name="Igrave" unicode="&#xcc;" horiz-adv-x="283" 
d="M0 950l64 -110h156l-55 110h-165zM223 780h-162v-780h162v780z" />
    <glyph glyph-name="Iacute" unicode="&#xcd;" horiz-adv-x="283" 
d="M119 950l-55 -110h156l64 110h-165zM223 780h-162v-780h162v780z" />
    <glyph glyph-name="Icircumflex" unicode="&#xce;" horiz-adv-x="283" 
d="M80 840l62 44l62 -44h142l-124 110h-160l-124 -110h142zM223 780h-162v-780h162v780z" />
    <glyph glyph-name="Idieresis" unicode="&#xcf;" horiz-adv-x="283" 
d="M121 945h-133v-100h133v100zM296 945h-133v-100h133v100zM223 780h-162v-780h162v780z" />
    <glyph glyph-name="Eth" unicode="&#xd0;" horiz-adv-x="723" 
d="M278 640h68l137 -56l36 -174v-40l-36 -173l-137 -57h-68v199h165v121h-165v180zM12 339h104v-339h239l252 84l77 286v40l-77 286l-252 84h-239v-320h-104v-121z" />
    <glyph glyph-name="Ntilde" unicode="&#xd1;" horiz-adv-x="683" 
d="M441 947l-10 -26l-23 -7l-65 24l-84 24l-72 -26l-31 -93h85l10 26l23 7l65 -24l84 -24l72 27l31 92h-85zM627 780h-154v-327l5 -157l-251 484h-171v-780h153v327l-5 157l252 -484h171v780z" />
    <glyph glyph-name="Ograve" unicode="&#xd2;" horiz-adv-x="673" 
d="M194 950l64 -110h156l-55 110h-165zM332 127l-102 63l-27 180v40l27 180l102 63h9l102 -63l26 -180v-40l-26 -180l-102 -63h-9zM336 -13l225 90l73 293v40l-73 293l-225 90l-224 -90l-73 -293v-40l73 -293z" />
    <glyph glyph-name="Oacute" unicode="&#xd3;" horiz-adv-x="673" 
d="M313 950l-55 -110h156l64 110h-165zM332 127l-102 63l-27 180v40l27 180l102 63h9l102 -63l26 -180v-40l-26 -180l-102 -63h-9zM336 -13l225 90l73 293v40l-73 293l-225 90l-224 -90l-73 -293v-40l73 -293z" />
    <glyph glyph-name="Ocircumflex" unicode="&#xd4;" horiz-adv-x="673" 
d="M274 840l62 44l62 -44h142l-124 110h-160l-124 -110h142zM332 127l-102 63l-27 180v40l27 180l102 63h9l102 -63l26 -180v-40l-26 -180l-102 -63h-9zM336 -13l225 90l73 293v40l-73 293l-225 90l-224 -90l-73 -293v-40l73 -293z" />
    <glyph glyph-name="Otilde" unicode="&#xd5;" horiz-adv-x="673" 
d="M436 947l-10 -26l-23 -7l-65 24l-84 24l-72 -26l-31 -93h85l10 26l23 7l65 -24l84 -24l72 27l31 92h-85zM332 127l-102 63l-27 180v40l27 180l102 63h9l102 -63l26 -180v-40l-26 -180l-102 -63h-9zM336 -13l225 90l73 293v40l-73 293l-225 90l-224 -90l-73 -293v-40
l73 -293z" />
    <glyph glyph-name="Odieresis" unicode="&#xd6;" horiz-adv-x="673" 
d="M490 945h-133v-100h133v100zM315 945h-133v-100h133v100zM332 127l-102 63l-27 180v40l27 180l102 63h9l102 -63l26 -180v-40l-26 -180l-102 -63h-9zM336 -13l225 90l73 293v40l-73 293l-225 90l-224 -90l-73 -293v-40l73 -293z" />
    <glyph glyph-name="multiply" unicode="&#xd7;" horiz-adv-x="600" 
d="M129 119l171 171l171 -171l100 100l-171 171l171 171l-100 100l-171 -171l-171 171l-100 -100l171 -171l-171 -171z" />
    <glyph glyph-name="Oslash" unicode="&#xd8;" horiz-adv-x="670" 
d="M203 370v40l27 180l102 63h9l51 -10l37 -30l-220 -345l-4 48zM469 410v-40l-26 -180l-102 -63h-9l-52 10l-37 31l220 345l5 -48zM39 410v-40l15 -160l45 -115l-61 -95h98l21 34l79 -36l100 -11l225 90l73 293v40l-15 161l-46 115l60 94h-98l-21 -33l-79 35l-99 11
l-224 -90z" />
    <glyph glyph-name="Ugrave" unicode="&#xd9;" horiz-adv-x="663" 
d="M189 950l64 -110h156l-55 110h-165zM331 -13l220 66l61 194v533h-162v-528l-25 -94l-94 -31l-93 31l-25 94v528h-162v-533l61 -194z" />
    <glyph glyph-name="Uacute" unicode="&#xda;" horiz-adv-x="663" 
d="M308 950l-55 -110h156l64 110h-165zM331 -13l220 66l61 194v533h-162v-528l-25 -94l-94 -31l-93 31l-25 94v528h-162v-533l61 -194z" />
    <glyph glyph-name="Ucircumflex" unicode="&#xdb;" horiz-adv-x="663" 
d="M269 840l62 44l62 -44h142l-124 110h-160l-124 -110h142zM331 -13l220 66l61 194v533h-162v-528l-25 -94l-94 -31l-93 31l-25 94v528h-162v-533l61 -194z" />
    <glyph glyph-name="Udieresis" unicode="&#xdc;" horiz-adv-x="663" 
d="M485 945h-133v-100h133v100zM310 945h-133v-100h133v100zM331 -13l220 66l61 194v533h-162v-528l-25 -94l-94 -31l-93 31l-25 94v528h-162v-533l61 -194z" />
    <glyph glyph-name="Yacute" unicode="&#xdd;" horiz-adv-x="625" 
d="M290 950l-55 -110h156l64 110h-165zM394 239l223 541h-177l-127 -341l-128 341h-177l224 -541v-239h162v239z" />
    <glyph glyph-name="Thorn" unicode="&#xde;" horiz-adv-x="609" 
d="M218 280v220h101l67 -19l33 -86v-10l-33 -85l-67 -20h-101zM218 780h-162v-780h162v140h94l183 42l88 198v20l-88 198l-183 42h-94v140z" />
    <glyph glyph-name="germandbls" unicode="&#xdf;" horiz-adv-x="632" 
d="M285 334l93 -64l59 -57l17 -51l-7 -38l-30 -17l-29 16l-10 45h-134v-8l34 -124l142 -49l147 54l45 123v9l-36 112l-105 97l-24 16l74 78l27 108v10l-60 153l-189 66l-194 -64l-56 -155v-594h158v585l21 63l71 29l70 -28l21 -72l-29 -82l-76 -61v-100z" />
    <glyph glyph-name="agrave" unicode="&#xe0;" horiz-adv-x="549" 
d="M250 115l-49 17l-14 37v6l14 41l51 22l90 14v-97l-35 -27zM89 780l107 -184h156l-91 184h-172zM368 0h142l-10 150v191l-48 149l-177 53l-178 -55l-47 -124v-9h149l14 47l57 21l56 -19l16 -59l-122 -19l-137 -48l-53 -122v-10l36 -111l126 -48l97 19l69 49z" />
    <glyph glyph-name="aacute" unicode="&#xe1;" horiz-adv-x="549" 
d="M250 115l-49 17l-14 37v6l14 41l51 22l90 14v-97l-35 -27zM287 780l-91 -184h156l107 184h-172zM368 0h142l-10 150v191l-48 149l-177 53l-178 -55l-47 -124v-9h149l14 47l57 21l56 -19l16 -59l-122 -19l-137 -48l-53 -122v-10l36 -111l126 -48l97 19l69 49z" />
    <glyph glyph-name="acircumflex" unicode="&#xe2;" horiz-adv-x="549" 
d="M250 115l-49 17l-14 37v6l14 41l51 22l90 14v-97l-35 -27zM202 596l72 82l72 -82h138l-134 184h-152l-134 -184h138zM368 0h142l-10 150v191l-48 149l-177 53l-178 -55l-47 -124v-9h149l14 47l57 21l56 -19l16 -59l-122 -19l-137 -48l-53 -122v-10l36 -111l126 -48l97 19
l69 49z" />
    <glyph glyph-name="atilde" unicode="&#xe3;" horiz-adv-x="549" 
d="M250 115l-49 17l-14 37v6l14 41l51 22l90 14v-97l-35 -27zM370 772l-9 -29l-22 -8l-68 26l-87 26l-79 -37l-32 -122h105l9 29l22 8l69 -26l86 -26l79 38l32 121h-105zM368 0h142l-10 150v191l-48 149l-177 53l-178 -55l-47 -124v-9h149l14 47l57 21l56 -19l16 -59
l-122 -19l-137 -48l-53 -122v-10l36 -111l126 -48l97 19l69 49z" />
    <glyph glyph-name="adieresis" unicode="&#xe4;" horiz-adv-x="549" 
d="M250 115l-49 17l-14 37v6l14 41l51 22l90 14v-97l-35 -27zM464 772h-165v-166h165v166zM249 772h-165v-166h165v166zM368 0h142l-10 150v191l-48 149l-177 53l-178 -55l-47 -124v-9h149l14 47l57 21l56 -19l16 -59l-122 -19l-137 -48l-53 -122v-10l36 -111l126 -48l97 19
l69 49z" />
    <glyph glyph-name="aring" unicode="&#xe5;" horiz-adv-x="549" 
d="M224 688l15 36l36 14l36 -14l15 -36l-15 -36l-36 -15l-36 15zM250 115l-49 17l-14 37v6l14 41l51 22l90 14v-97l-35 -27zM170 688l31 -75l74 -31l74 31l31 75l-31 74l-74 31l-74 -31zM368 0h142l-10 150v191l-48 149l-177 53l-178 -55l-47 -124v-9h149l14 47l57 21
l56 -19l16 -59l-122 -19l-137 -48l-53 -122v-10l36 -111l126 -48l97 19l69 49z" />
    <glyph glyph-name="ae" unicode="&#xe6;" horiz-adv-x="859" 
d="M590 423l64 -25l25 -76h-178l25 76zM351 163l-34 -33l-67 -19l-49 17l-14 36v7l15 41l51 22l89 14l3 -43l7 -41zM838 208v71l-59 189l-185 75l-91 -16l-65 -43l-61 43l-102 16l-178 -55l-47 -124v-9h149l14 47l57 21l56 -19l16 -59l-121 -19l-137 -48l-54 -122v-10
l39 -111l135 -48l111 21l90 53l80 -55l114 -19l177 52l62 127v4h-149l-24 -43l-65 -20l-70 23l-30 78h338z" />
    <glyph glyph-name="ccedilla" unicode="&#xe7;" horiz-adv-x="527" 
d="M165 -190l42 -17l65 -8l90 23l30 65l-29 63l-71 24l10 29l147 58l49 127v22h-149l-19 -52l-57 -21l-65 33l-20 91v36l20 91l65 33l57 -21l19 -62h149v23l-57 142l-171 54l-183 -73l-57 -187v-36l48 -176l152 -81l-24 -62l15 -28l12 2l26 3l36 -6l12 -17l-10 -17l-37 -6
l-40 5l-32 12z" />
    <glyph glyph-name="egrave" unicode="&#xe8;" horiz-adv-x="556" 
d="M278 423l64 -25l25 -76h-178l25 76zM96 780l107 -184h156l-91 184h-172zM526 208v71l-59 189l-186 75l-188 -75l-63 -189v-28l63 -189l194 -75l177 52l62 127v4h-149l-24 -43l-65 -20l-70 23l-30 78h338z" />
    <glyph glyph-name="eacute" unicode="&#xe9;" horiz-adv-x="556" 
d="M278 423l64 -25l25 -76h-178l25 76zM294 780l-91 -184h156l107 184h-172zM526 208v71l-59 189l-186 75l-188 -75l-63 -189v-28l63 -189l194 -75l177 52l62 127v4h-149l-24 -43l-65 -20l-70 23l-30 78h338z" />
    <glyph glyph-name="ecircumflex" unicode="&#xea;" horiz-adv-x="556" 
d="M278 423l64 -25l25 -76h-178l25 76zM209 596l72 82l72 -82h138l-134 184h-152l-134 -184h138zM526 208v71l-59 189l-186 75l-188 -75l-63 -189v-28l63 -189l194 -75l177 52l62 127v4h-149l-24 -43l-65 -20l-70 23l-30 78h338z" />
    <glyph glyph-name="edieresis" unicode="&#xeb;" horiz-adv-x="556" 
d="M278 423l64 -25l25 -76h-178l25 76zM256 772h-165v-166h165v166zM471 772h-165v-166h165v166zM526 208v71l-59 189l-186 75l-188 -75l-63 -189v-28l63 -189l194 -75l177 52l62 127v4h-149l-24 -43l-65 -20l-70 23l-30 78h338z" />
    <glyph glyph-name="igrave" unicode="&#xec;" horiz-adv-x="266" 
d="M-52 780l107 -184h156l-91 184h-172zM54 0h157v530h-157v-530z" />
    <glyph glyph-name="iacute" unicode="&#xed;" horiz-adv-x="265" 
d="M146 780l-91 -184h156l107 184h-172zM54 0h157v530h-157v-530z" />
    <glyph glyph-name="icircumflex" unicode="&#xee;" horiz-adv-x="265" 
d="M61 596l72 82l72 -82h138l-134 184h-152l-134 -184h138zM54 0h157v530h-157v-530z" />
    <glyph glyph-name="idieresis" unicode="&#xef;" horiz-adv-x="265" 
d="M323 772h-165v-166h165v166zM108 772h-165v-166h165v166zM54 0h157v530h-157v-530z" />
    <glyph glyph-name="eth" unicode="&#xf0;" horiz-adv-x="556" 
d="M278 122l-69 33l-22 92v36l22 92l69 33l69 -33l22 -92v-36l-22 -92zM31 673l58 -8l54 -12l-84 -46v-89l176 98l34 -23l28 -27l13 -16l12 -17l-33 8l-35 2l-166 -73l-57 -187v-36l60 -187l187 -73l188 73l60 187v36l-21 191l-85 181l-19 22l-20 20l49 27v89l-120 -67
l-131 47l-148 20v-140z" />
    <glyph glyph-name="ntilde" unicode="&#xf1;" horiz-adv-x="580" 
d="M389 772l-9 -29l-22 -8l-68 26l-87 26l-79 -37l-32 -122h105l9 29l22 8l69 -26l86 -26l79 38l32 121h-105zM532 0v359l-37 128l-127 56l-103 -23l-67 -58l-12 68h-141l9 -150v-380h158v357l32 32l61 18l55 -23l15 -51v-333h157z" />
    <glyph glyph-name="ograve" unicode="&#xf2;" horiz-adv-x="556" 
d="M93 780l107 -184h156l-91 184h-172zM278 123l-68 33l-22 91v36l22 91l68 33l69 -33l21 -91v-36l-21 -91zM278 -13l188 73l60 187v36l-60 187l-188 73l-188 -73l-60 -187v-36l60 -187z" />
    <glyph glyph-name="oacute" unicode="&#xf3;" horiz-adv-x="556" 
d="M291 780l-91 -184h156l107 184h-172zM278 123l-68 33l-22 91v36l22 91l68 33l69 -33l21 -91v-36l-21 -91zM278 -13l188 73l60 187v36l-60 187l-188 73l-188 -73l-60 -187v-36l60 -187z" />
    <glyph glyph-name="ocircumflex" unicode="&#xf4;" horiz-adv-x="556" 
d="M278 123l-68 33l-22 91v36l22 91l68 33l69 -33l21 -91v-36l-21 -91zM206 596l72 82l72 -82h138l-134 184h-152l-134 -184h138zM278 -13l188 73l60 187v36l-60 187l-188 73l-188 -73l-60 -187v-36l60 -187z" />
    <glyph glyph-name="otilde" unicode="&#xf5;" horiz-adv-x="556" 
d="M278 123l-68 33l-22 91v36l22 91l68 33l69 -33l21 -91v-36l-21 -91zM374 772l-9 -29l-22 -8l-68 26l-87 26l-79 -37l-32 -122h105l9 29l22 8l69 -26l86 -26l79 38l32 121h-105zM278 -13l188 73l60 187v36l-60 187l-188 73l-188 -73l-60 -187v-36l60 -187z" />
    <glyph glyph-name="odieresis" unicode="&#xf6;" horiz-adv-x="556" 
d="M468 772h-165v-166h165v166zM253 772h-165v-166h165v166zM278 123l-68 33l-22 91v36l22 91l68 33l69 -33l21 -91v-36l-21 -91zM278 -13l188 73l60 187v36l-60 187l-188 73l-188 -73l-60 -187v-36l60 -187z" />
    <glyph glyph-name="divide" unicode="&#xf7;" horiz-adv-x="600" 
d="M383 681h-166v-166h166v166zM383 265h-166v-166h166v166zM42 320h516v140h-516v-140z" />
    <glyph glyph-name="oslash" unicode="&#xf8;" horiz-adv-x="556" 
d="M188 247v36l22 91l68 33l31 -4l24 -14l-142 -183l-2 20zM368 283v-36l-21 -91l-69 -33l-32 5l-24 14l143 182l2 -19zM526 530h-82l-19 -25l-65 28l-82 10l-188 -73l-60 -187v-36l13 -100l40 -79l-53 -68h81l19 25l65 -28l83 -10l188 73l60 187v36l-13 99l-40 80z" />
    <glyph glyph-name="ugrave" unicode="&#xf9;" horiz-adv-x="580" 
d="M101 780l107 -184h156l-91 184h-172zM48 530v-359l37 -128l127 -56l103 22l67 58l12 -67h141l-9 150v380h-158v-357l-33 -32l-60 -18l-55 23l-15 51v333h-157z" />
    <glyph glyph-name="uacute" unicode="&#xfa;" horiz-adv-x="580" 
d="M299 780l-91 -184h156l107 184h-172zM48 530v-359l37 -128l127 -56l103 22l67 58l12 -67h141l-9 150v380h-158v-357l-33 -32l-60 -18l-55 23l-15 51v333h-157z" />
    <glyph glyph-name="ucircumflex" unicode="&#xfb;" horiz-adv-x="580" 
d="M214 596l72 82l72 -82h138l-134 184h-152l-134 -184h138zM48 530v-359l37 -128l127 -56l103 22l67 58l12 -67h141l-9 150v380h-158v-357l-33 -32l-60 -18l-55 23l-15 51v333h-157z" />
    <glyph glyph-name="udieresis" unicode="&#xfc;" horiz-adv-x="580" 
d="M261 772h-165v-166h165v166zM476 772h-165v-166h165v166zM48 530v-359l37 -128l127 -56l103 22l67 58l12 -67h141l-9 150v380h-158v-357l-33 -32l-60 -18l-55 23l-15 51v333h-157z" />
    <glyph glyph-name="yacute" unicode="&#xfd;" horiz-adv-x="551" 
d="M290 780l-91 -184h156l107 184h-172zM277 192l-100 338h-172l186 -502l-85 -228h188l68 228l187 502h-172z" />
    <glyph glyph-name="thorn" unicode="&#xfe;" horiz-adv-x="574" 
d="M211 173v184l32 32l58 18l65 -33l20 -91v-36l-20 -91l-65 -33l-58 18zM52 800v-1000h158v246l56 -43l81 -16l153 73l44 187v36l-44 187l-153 73l-81 -16l-56 -43v316h-158z" />
    <glyph glyph-name="ydieresis" unicode="&#xff;" horiz-adv-x="551" 
d="M252 772h-165v-166h165v166zM467 772h-165v-166h165v166zM277 192l-100 338h-172l186 -502l-85 -228h188l68 228l187 502h-172z" />
    <glyph glyph-name="Amacron" unicode="&#x100;" horiz-adv-x="641" 
d="M320 595l64 -287h-128zM171 847h298v96h-298v-96zM209 782l-195 -782h174l37 168h191l38 -168h173l-195 782h-223z" />
    <glyph glyph-name="amacron" unicode="&#x101;" horiz-adv-x="549" 
d="M250 115l-49 17l-14 37v6l14 41l51 22l90 14v-97l-35 -27zM124 619h300v138h-300v-138zM368 0h142l-10 150v191l-48 149l-177 53l-178 -55l-47 -124v-9h149l14 47l57 21l56 -19l16 -59l-122 -19l-137 -48l-53 -122v-10l36 -111l126 -48l97 19l69 49z" />
    <glyph glyph-name="Abreve" unicode="&#x102;" horiz-adv-x="641" 
d="M320 595l64 -287h-128zM320 825l147 37l36 88h-109l-17 -30l-57 -10l-57 10l-17 30h-109l36 -88zM209 782l-195 -782h174l37 168h191l38 -168h173l-195 782h-223z" />
    <glyph glyph-name="abreve" unicode="&#x103;" horiz-adv-x="549" 
d="M250 115l-49 17l-14 37v6l14 41l51 22l90 14v-97l-35 -27zM274 582l147 56l40 142h-113l-21 -61l-53 -17l-53 17l-21 61h-113l40 -142zM368 0h142l-10 150v191l-48 149l-177 53l-178 -55l-47 -124v-9h149l14 47l57 21l56 -19l16 -59l-122 -19l-137 -48l-53 -122v-10
l36 -111l126 -48l97 19l69 49z" />
    <glyph glyph-name="Aogonek" unicode="&#x104;" horiz-adv-x="641" 
d="M320 595l64 -287h-128zM565 -69l16 39l46 30l-195 782h-223l-195 -782h174l37 168h191l38 -168h38l-32 -48l-12 -59l37 -81l98 -27l59 8l44 17l-36 96l-17 -7l-25 -4l-31 10z" />
    <glyph glyph-name="aogonek" unicode="&#x105;" horiz-adv-x="549" 
d="M329 -107l37 -81l98 -27l59 8l44 17l-36 96l-17 -7l-25 -4l-31 10l-12 26l16 39l46 30h2l-10 150v191l-48 149l-177 53l-178 -55l-47 -124v-9h149l14 47l57 21l56 -19l16 -59l-122 -19l-137 -48l-53 -122v-10l36 -111l126 -48l97 19l69 49l11 -59l-29 -47zM250 115
l-49 17l-14 37v6l14 41l51 22l90 14v-97l-35 -27z" />
    <glyph glyph-name="Cacute" unicode="&#x106;" horiz-adv-x="650" 
d="M309 950l-55 -110h156l64 110h-165zM203 370v40l26 180l103 63h9l86 -44l22 -125h162v36l-70 210l-209 63l-223 -90l-70 -293v-40l70 -293l223 -90l209 63l70 207v9h-162l-24 -101l-84 -38h-9l-103 63z" />
    <glyph glyph-name="cacute" unicode="&#x107;" horiz-adv-x="527" 
d="M283 780l-91 -184h156l107 184h-172zM188 247v36l20 91l65 33l57 -21l19 -62h149v23l-57 142l-171 54l-183 -73l-57 -187v-36l57 -187l183 -73l171 53l57 134v22h-149l-19 -52l-57 -21l-65 33z" />
    <glyph glyph-name="Ccircumflex" unicode="&#x108;" horiz-adv-x="650" 
d="M270 840l62 44l62 -44h142l-124 110h-160l-124 -110h142zM203 370v40l26 180l103 63h9l86 -44l22 -125h162v36l-70 210l-209 63l-223 -90l-70 -293v-40l70 -293l223 -90l209 63l70 207v9h-162l-24 -101l-84 -38h-9l-103 63z" />
    <glyph glyph-name="ccircumflex" unicode="&#x109;" horiz-adv-x="527" 
d="M198 596l72 82l72 -82h138l-134 184h-152l-134 -184h138zM188 247v36l20 91l65 33l57 -21l19 -62h149v23l-57 142l-171 54l-183 -73l-57 -187v-36l57 -187l183 -73l171 53l57 134v22h-149l-19 -52l-57 -21l-65 33z" />
    <glyph glyph-name="Cdotaccent" unicode="&#x10a;" horiz-adv-x="650" 
d="M399 945h-134v-100h134v100zM203 370v40l26 180l103 63h9l86 -44l22 -125h162v36l-70 210l-209 63l-223 -90l-70 -293v-40l70 -293l223 -90l209 63l70 207v9h-162l-24 -101l-84 -38h-9l-103 63z" />
    <glyph glyph-name="cdotaccent" unicode="&#x10b;" horiz-adv-x="527" 
d="M353 772h-166v-166h166v166zM188 247v36l20 91l65 33l57 -21l19 -62h149v23l-57 142l-171 54l-183 -73l-57 -187v-36l57 -187l183 -73l171 53l57 134v22h-149l-19 -52l-57 -21l-65 33z" />
    <glyph glyph-name="Ccaron" unicode="&#x10c;" horiz-adv-x="650" 
d="M128 950l124 -110h160l124 110h-142l-62 -45l-62 45h-142zM203 370v40l26 180l103 63h9l86 -44l22 -125h162v36l-70 210l-209 63l-223 -90l-70 -293v-40l70 -293l223 -90l209 63l70 207v9h-162l-24 -101l-84 -38h-9l-103 63z" />
    <glyph glyph-name="ccaron" unicode="&#x10d;" horiz-adv-x="527" 
d="M60 780l134 -184h152l134 184h-138l-72 -83l-72 83h-138zM188 247v36l20 91l65 33l57 -21l19 -62h149v23l-57 142l-171 54l-183 -73l-57 -187v-36l57 -187l183 -73l171 53l57 134v22h-149l-19 -52l-57 -21l-65 33z" />
    <glyph glyph-name="Dcaron" unicode="&#x10e;" horiz-adv-x="663" 
d="M109 950l124 -110h160l124 110h-142l-62 -45l-62 45h-142zM218 140v500h68l137 -56l36 -174v-40l-36 -173l-137 -57h-68zM624 370v40l-77 286l-252 84h-239v-780h239l252 84z" />
    <glyph glyph-name="dcaron" unicode="&#x10f;" horiz-adv-x="582" 
d="M584 800v-204h70l26 204h-96zM371 357v-184l-32 -32l-58 -18l-66 33l-20 91v36l20 91l66 33l58 -18zM235 543l-153 -73l-44 -187v-36l44 -187l153 -73l91 22l59 54l11 -63h142l-9 150v650h-158v-315l-56 42z" />
    <glyph glyph-name="Dcroat" unicode="&#x110;" horiz-adv-x="723" 
d="M278 640h68l137 -56l36 -174v-40l-36 -173l-137 -57h-68v199h165v121h-165v180zM12 339h104v-339h239l252 84l77 286v40l-77 286l-252 84h-239v-320h-104v-121z" />
    <glyph glyph-name="dcroat" unicode="&#x111;" horiz-adv-x="582" 
d="M371 357v-184l-32 -33l-59 -18l-65 33l-20 92v36l20 92l65 33l59 -18zM596 721h-68v79h-157v-79h-113v-112h113v-124l-56 42l-80 16l-153 -73l-44 -187v-36l44 -187l153 -73l92 22l58 55l12 -64h140l-9 150v459h68v112z" />
    <glyph glyph-name="Emacron" unicode="&#x112;" horiz-adv-x="573" 
d="M147 847h298v96h-298v-96zM56 780v-780h477v140h-315v188h265v140h-265v172h315v140h-477z" />
    <glyph glyph-name="emacron" unicode="&#x113;" horiz-adv-x="556" 
d="M278 423l64 -25l25 -76h-178l25 76zM131 619h300v138h-300v-138zM526 208v71l-59 189l-186 75l-188 -75l-63 -189v-28l63 -189l194 -75l177 52l62 127v4h-149l-24 -43l-65 -20l-70 23l-30 78h338z" />
    <glyph glyph-name="Ebreve" unicode="&#x114;" horiz-adv-x="573" 
d="M56 780v-780h477v140h-315v188h265v140h-265v172h315v140h-477zM296 825l147 37l36 88h-109l-17 -30l-57 -10l-57 10l-17 30h-109l36 -88z" />
    <glyph glyph-name="ebreve" unicode="&#x115;" horiz-adv-x="556" 
d="M278 423l64 -25l25 -76h-178l25 76zM281 582l147 56l40 142h-113l-21 -61l-53 -17l-53 17l-21 61h-113l40 -142zM526 208v71l-59 189l-186 75l-188 -75l-63 -189v-28l63 -189l194 -75l177 52l62 127v4h-149l-24 -43l-65 -20l-70 23l-30 78h338z" />
    <glyph glyph-name="Edotaccent" unicode="&#x116;" horiz-adv-x="573" 
d="M363 945h-134v-100h134v100zM56 780v-780h477v140h-315v188h265v140h-265v172h315v140h-477z" />
    <glyph glyph-name="edotaccent" unicode="&#x117;" horiz-adv-x="556" 
d="M278 423l64 -25l25 -76h-178l25 76zM364 772h-166v-166h166v166zM526 208v71l-59 189l-186 75l-188 -75l-63 -189v-28l63 -189l194 -75l177 52l62 127v4h-149l-24 -43l-65 -20l-70 23l-30 78h338z" />
    <glyph glyph-name="Eogonek" unicode="&#x118;" horiz-adv-x="573" 
d="M56 780v-780h341l-32 -48l-12 -59l37 -81l98 -27l59 8l44 17l-36 96l-17 -7l-25 -4l-31 10l-12 26l16 39l46 30h1v140h-315v188h265v140h-265v172h315v140h-477z" />
    <glyph glyph-name="eogonek" unicode="&#x119;" horiz-adv-x="556" 
d="M278 423l64 -25l25 -76h-178l25 76zM526 208v71l-59 189l-186 75l-188 -75l-63 -189v-28l52 -177l161 -84l-26 -44l-9 -53l37 -81l98 -27l59 8l44 17l-36 96l-17 -7l-25 -4l-31 10l-12 26l16 41l46 28l102 64l37 102v4h-149l-24 -43l-65 -20l-70 23l-30 78h338z" />
    <glyph glyph-name="Ecaron" unicode="&#x11a;" horiz-adv-x="573" 
d="M92 950l124 -110h160l124 110h-142l-62 -45l-62 45h-142zM56 780v-780h477v140h-315v188h265v140h-265v172h315v140h-477z" />
    <glyph glyph-name="ecaron" unicode="&#x11b;" horiz-adv-x="556" 
d="M278 423l64 -25l25 -76h-178l25 76zM71 780l134 -184h152l134 184h-138l-72 -83l-72 83h-138zM526 208v71l-59 189l-186 75l-188 -75l-63 -189v-28l63 -189l194 -75l177 52l62 127v4h-149l-24 -43l-65 -20l-70 23l-30 78h338z" />
    <glyph glyph-name="Gcircumflex" unicode="&#x11c;" horiz-adv-x="673" 
d="M276 840l62 44l62 -44h142l-124 110h-160l-124 -110h142zM348 -13l166 28l107 63v344h-265v-140h103v-125l-45 -21l-61 -9h-9l-113 63l-27 180v40l27 180l107 63h9l90 -44l23 -125h162v36l-72 210l-212 63l-225 -90l-74 -293v-40l75 -293z" />
    <glyph glyph-name="gcircumflex" unicode="&#x11d;" horiz-adv-x="574" 
d="M363 205l-31 -32l-59 -18l-64 28l-21 84v28l21 81l64 31l59 -18l31 -32v-152zM208 596l72 82l72 -82h138l-134 184h-152l-134 -184h138zM363 11l-22 -75l-68 -21l-67 24l-17 61h-149v-21l52 -136l184 -56l185 57l60 166v370l9 150h-141l-11 -61l-59 53l-92 21l-151 -71
l-46 -177v-28l46 -181l151 -67l80 15l56 39v-62z" />
    <glyph glyph-name="Gbreve" unicode="&#x11e;" horiz-adv-x="673" 
d="M338 825l147 37l36 88h-109l-17 -30l-57 -10l-57 10l-17 30h-109l36 -88zM348 -13l166 28l107 63v344h-265v-140h103v-125l-45 -21l-61 -9h-9l-113 63l-27 180v40l27 180l107 63h9l90 -44l23 -125h162v36l-72 210l-212 63l-225 -90l-74 -293v-40l75 -293z" />
    <glyph glyph-name="gbreve" unicode="&#x11f;" horiz-adv-x="574" 
d="M363 357v-152l-31 -32l-59 -18l-64 28l-21 84v28l21 81l64 31l59 -18zM280 582l147 56l40 142h-113l-21 -61l-53 -17l-53 17l-21 61h-113l40 -142zM363 11l-22 -75l-68 -21l-67 24l-17 61h-149v-21l52 -136l184 -56l185 57l60 166v370l9 150h-141l-11 -61l-59 53l-92 21
l-151 -71l-46 -177v-28l46 -181l151 -67l80 15l56 39v-62z" />
    <glyph glyph-name="Gdotaccent" unicode="&#x120;" horiz-adv-x="673" 
d="M405 945h-134v-100h134v100zM348 -13l166 28l107 63v344h-265v-140h103v-125l-45 -21l-61 -9h-9l-113 63l-27 180v40l27 180l107 63h9l90 -44l23 -125h162v36l-72 210l-212 63l-225 -90l-74 -293v-40l75 -293z" />
    <glyph glyph-name="gdotaccent" unicode="&#x121;" horiz-adv-x="574" 
d="M359 772h-166v-166h166v166zM363 357v-152l-31 -32l-59 -18l-64 28l-21 84v28l21 81l64 31l59 -18zM363 11l-22 -75l-68 -21l-67 24l-17 61h-149v-21l52 -136l184 -56l185 57l60 166v370l9 150h-141l-11 -61l-59 53l-92 21l-151 -71l-46 -177v-28l46 -181l151 -67l80 15
l56 39v-62z" />
    <glyph glyph-name="Gcommaaccent" unicode="&#x122;" horiz-adv-x="673" 
d="M419 -44h-142v-92h79l-31 -28l-53 -8v-54l111 29l36 96v57zM348 -13l166 28l107 63v344h-265v-140h103v-125l-45 -21l-61 -9h-9l-113 63l-27 180v40l27 180l107 63h9l90 -44l23 -125h162v36l-72 210l-212 63l-225 -90l-74 -293v-40l75 -293z" />
    <glyph glyph-name="gcommaaccent" unicode="&#x123;" horiz-adv-x="574" 
d="M206 596h141v100h-81l31 34l56 9v54l-111 -31l-36 -101v-65zM273 154l-65 28l-21 85v28l21 82l65 31l59 -18l32 -33v-152l-32 -33zM364 11l-23 -76l-68 -21l-67 24l-17 62h-148v-21l52 -136l183 -56l185 57l60 166v370l9 150h-141l-11 -60l-59 53l-92 20l-150 -71
l-46 -177v-28l46 -180l150 -68l81 15l56 39v-62z" />
    <glyph glyph-name="Hcircumflex" unicode="&#x124;" horiz-adv-x="663" 
d="M269 840l62 44l62 -44h142l-124 110h-160l-124 -110h142zM445 780v-312h-227v312h-162v-780h162v328h227v-328h162v780h-162z" />
    <glyph glyph-name="hcircumflex" unicode="&#x125;" horiz-adv-x="579" 
d="M70 840l62 44l62 -44h142l-124 110h-160l-124 -110h142zM212 800h-158v-800h158v357l32 32l61 18l55 -23l15 -51v-333h157v359l-37 128l-127 56l-92 -18l-64 -46v321z" />
    <glyph glyph-name="Hbar" unicode="&#x126;" horiz-adv-x="663" 
d="M218 468v96h227v-96h-227zM445 780v-95h-227v95h-162v-780h162v328h227v-328h162v780h-162z" />
    <glyph glyph-name="hbar" unicode="&#x127;" horiz-adv-x="579" 
d="M211 800h-157v-79h-68v-112h68v-609h157v357l33 33l60 18l56 -23l15 -52v-333h156v359l-37 128l-127 56l-92 -18l-64 -46v130h113v112h-113v79z" />
    <glyph glyph-name="Itilde" unicode="&#x128;" horiz-adv-x="283" 
d="M242 947l-10 -26l-23 -7l-65 24l-84 24l-72 -26l-31 -93h85l10 26l23 7l65 -24l84 -24l72 27l31 92h-85zM223 780h-162v-780h162v780z" />
    <glyph glyph-name="itilde" unicode="&#x129;" horiz-adv-x="266" 
d="M229 772l-9 -29l-22 -8l-68 26l-87 26l-79 -37l-32 -122h105l9 29l22 8l69 -26l86 -26l79 38l32 121h-105zM54 0h157v530h-157v-530z" />
    <glyph glyph-name="Imacron" unicode="&#x12a;" horiz-adv-x="283" 
d="M-7 847h298v96h-298v-96zM223 780h-162v-780h162v780z" />
    <glyph glyph-name="imacron" unicode="&#x12b;" horiz-adv-x="266" 
d="M-17 619h300v138h-300v-138zM54 0h157v530h-157v-530z" />
    <glyph glyph-name="Ibreve" unicode="&#x12c;" horiz-adv-x="283" 
d="M142 825l147 37l36 88h-109l-17 -30l-57 -10l-57 10l-17 30h-109l36 -88zM223 780h-162v-780h162v780z" />
    <glyph glyph-name="ibreve" unicode="&#x12d;" horiz-adv-x="265" 
d="M133 582l147 56l40 142h-113l-21 -61l-53 -17l-53 17l-21 61h-113l40 -142zM54 0h157v530h-157v-530z" />
    <glyph glyph-name="Iogonek" unicode="&#x12e;" horiz-adv-x="283" 
d="M160 -69l16 39l46 30h1v780h-162v-815l-13 -34l-5 -38l37 -81l98 -27l59 8l44 17l-36 96l-17 -7l-25 -4l-31 10z" />
    <glyph glyph-name="iogonek" unicode="&#x12f;" horiz-adv-x="266" 
d="M216 772h-166v-167h166v167zM32 -107l37 -81l98 -27l59 8l44 17l-36 96l-17 -7l-25 -4l-31 10l-12 26l16 39l46 30h1v530h-158v-558l-16 -37z" />
    <glyph glyph-name="Idotaccent" unicode="&#x130;" horiz-adv-x="283" 
d="M209 945h-134v-100h134v100zM223 780h-162v-780h162v780z" />
    <glyph glyph-name="dotlessi" unicode="&#x131;" horiz-adv-x="265" 
d="M54 0h157v530h-157v-530z" />
    <glyph glyph-name="IJ" unicode="&#x132;" horiz-adv-x="607" 
d="M223 780h-162v-780h162v780zM395 209l-20 -66l-57 -16l-30 3l-22 6v-133l32 -11l63 -5l141 46l55 158v589h-162v-571z" />
    <glyph glyph-name="ij" unicode="&#x133;" horiz-adv-x="481" 
d="M432 772h-166v-167h166v167zM216 772h-166v-167h166v167zM54 0h158v530h-158v-530zM270 1l-21 -63l-57 -15l-29 2l-20 5v-130l28 -8l58 -5l144 44l55 153v546h-158v-529z" />
    <glyph glyph-name="Jcircumflex" unicode="&#x134;" horiz-adv-x="537" 
d="M343 840l62 44l62 -44h142l-124 110h-160l-124 -110h142zM324 780v-522l-15 -97l-59 -34l-58 35l-16 104h-153v-26l51 -187l180 -66l178 66l54 185v542h-162z" />
    <glyph glyph-name="jcircumflex" unicode="&#x135;" horiz-adv-x="266" 
d="M61 596l72 82l72 -82h138l-134 184h-152l-134 -184h138zM54 1l-21 -64l-57 -15l-29 3l-20 4v-129l28 -8l58 -5l143 44l55 153v546h-157v-529z" />
    <glyph glyph-name="Kcommaaccent" unicode="&#x136;" horiz-adv-x="625" 
d="M385 -44h-142v-92h79l-31 -28l-53 -8v-54l111 29l36 96v57zM218 780h-162v-780h162v225l66 94l142 -319h180l-219 467l219 313h-196l-192 -306v306z" />
    <glyph glyph-name="kcommaaccent" unicode="&#x137;" horiz-adv-x="562" 
d="M350 -44h-142v-92h79l-31 -28l-53 -8v-54l111 29l36 96v57zM50 0h158v144l52 60l100 -204h184l-175 329l175 201h-189l-147 -180v450h-158v-800z" />
    <glyph glyph-name="kgreenlandic" unicode="&#x138;" horiz-adv-x="562" 
d="M50 0h158v144l52 60l100 -204h184l-175 329l175 201h-189l-147 -180v180h-158v-530z" />
    <glyph glyph-name="Lacute" unicode="&#x139;" horiz-adv-x="521" 
d="M114 950l-55 -110h156l64 110h-165zM506 0v140h-288v640h-162v-780h450z" />
    <glyph glyph-name="lacute" unicode="&#x13a;" horiz-adv-x="266" 
d="M110 950l-55 -110h156l64 110h-165zM54 0h158v800h-158v-800z" />
    <glyph glyph-name="Lcommaaccent" unicode="&#x13b;" horiz-adv-x="521" 
d="M352 -44h-142v-92h79l-31 -28l-53 -8v-54l111 29l36 96v57zM506 0v140h-288v640h-162v-780h450z" />
    <glyph glyph-name="lcommaaccent" unicode="&#x13c;" horiz-adv-x="266" 
d="M204 -44h-142v-92h79l-31 -28l-53 -8v-54l111 29l36 96v57zM54 0h158v800h-158v-800z" />
    <glyph glyph-name="Lcaron" unicode="&#x13d;" horiz-adv-x="521" 
d="M331 800v-204h70l26 204h-96zM506 0v140h-288v640h-162v-780h450z" />
    <glyph glyph-name="lcaron" unicode="&#x13e;" horiz-adv-x="266" 
d="M268 800v-204h70l26 204h-96zM54 0h158v800h-158v-800z" />
    <glyph glyph-name="Ldot" unicode="&#x13f;" horiz-adv-x="521" 
d="M478 481h-165v-166h165v166zM506 0v140h-288v640h-162v-780h450z" />
    <glyph glyph-name="ldot" unicode="&#x140;" horiz-adv-x="439" 
d="M436 434h-166v-167h166v167zM54 0h158v800h-158v-800z" />
    <glyph glyph-name="Lslash" unicode="&#x141;" horiz-adv-x="581" 
d="M12 188l104 51v-239h450v140h-288v179l181 90v134l-181 -89v326h-162v-406l-104 -51v-135z" />
    <glyph glyph-name="lslash" unicode="&#x142;" horiz-adv-x="384" 
d="M23 190l89 56v-246h158v347l101 64v132l-101 -64v321h-158v-421l-89 -56v-133z" />
    <glyph glyph-name="Nacute" unicode="&#x143;" horiz-adv-x="683" 
d="M318 950l-55 -110h156l64 110h-165zM627 780h-154v-327l5 -157l-251 484h-171v-780h153v327l-5 157l252 -484h171v780z" />
    <glyph glyph-name="nacute" unicode="&#x144;" horiz-adv-x="580" 
d="M306 780l-91 -184h156l107 184h-172zM532 0v359l-37 128l-127 56l-103 -23l-67 -58l-12 68h-141l9 -150v-380h158v357l32 32l61 18l55 -23l15 -51v-333h157z" />
    <glyph glyph-name="Ncommaaccent" unicode="&#x145;" horiz-adv-x="683" 
d="M412 -44h-142v-92h79l-31 -28l-53 -8v-54l111 29l36 96v57zM627 780h-154v-327l5 -157l-251 484h-171v-780h153v327l-5 157l252 -484h171v780z" />
    <glyph glyph-name="ncommaaccent" unicode="&#x146;" horiz-adv-x="580" 
d="M364 -44h-142v-92h79l-31 -28l-53 -8v-54l111 29l36 96v57zM532 0v359l-37 128l-127 56l-103 -23l-67 -58l-12 68h-141l9 -150v-380h158v357l32 32l61 18l55 -23l15 -51v-333h157z" />
    <glyph glyph-name="Ncaron" unicode="&#x147;" horiz-adv-x="683" 
d="M137 950l124 -110h160l124 110h-142l-62 -45l-62 45h-142zM627 780h-154v-327l5 -157l-251 484h-171v-780h153v327l-5 157l252 -484h171v780z" />
    <glyph glyph-name="ncaron" unicode="&#x148;" horiz-adv-x="580" 
d="M83 780l134 -184h152l134 184h-138l-72 -83l-72 83h-138zM532 0v359l-37 128l-127 56l-103 -23l-67 -58l-12 68h-141l9 -150v-380h158v357l32 32l61 18l55 -23l15 -51v-333h157z" />
    <glyph glyph-name="Eng" unicode="&#x14a;" horiz-adv-x="683" 
d="M627 780h-154v-327l5 -157l-251 484h-171v-780h153v327l-5 157l264 -508l-26 -44l-50 -10l-29 3l-20 4v-129l28 -8l57 -5l144 44l55 153v796z" />
    <glyph glyph-name="eng" unicode="&#x14b;" horiz-adv-x="580" 
d="M374 1l-21 -63l-57 -15l-29 2l-20 5v-130l28 -8l58 -5l144 44l55 153v375l-37 128l-127 56l-103 -23l-67 -58l-12 68h-141l9 -150v-380h158v357l32 32l61 18l55 -23l14 -51v-332z" />
    <glyph glyph-name="Omacron" unicode="&#x14c;" horiz-adv-x="673" 
d="M187 847h298v96h-298v-96zM332 127l-102 63l-27 180v40l27 180l102 63h9l102 -63l26 -180v-40l-26 -180l-102 -63h-9zM336 -13l225 90l73 293v40l-73 293l-225 90l-224 -90l-73 -293v-40l73 -293z" />
    <glyph glyph-name="omacron" unicode="&#x14d;" horiz-adv-x="556" 
d="M128 619h300v138h-300v-138zM278 123l-68 33l-22 91v36l22 91l68 33l69 -33l21 -91v-36l-21 -91zM278 -13l188 73l60 187v36l-60 187l-188 73l-188 -73l-60 -187v-36l60 -187z" />
    <glyph glyph-name="Obreve" unicode="&#x14e;" horiz-adv-x="673" 
d="M336 825l147 37l36 88h-109l-17 -30l-57 -10l-57 10l-17 30h-109l36 -88zM332 127l-102 63l-27 180v40l27 180l102 63h9l102 -63l26 -180v-40l-26 -180l-102 -63h-9zM336 -13l225 90l73 293v40l-73 293l-225 90l-224 -90l-73 -293v-40l73 -293z" />
    <glyph glyph-name="obreve" unicode="&#x14f;" horiz-adv-x="556" 
d="M278 123l-68 33l-22 91v36l22 91l68 33l69 -33l21 -91v-36l-21 -91zM278 582l147 56l40 142h-113l-21 -61l-53 -17l-53 17l-21 61h-113l40 -142zM278 -13l188 73l60 187v36l-60 187l-188 73l-188 -73l-60 -187v-36l60 -187z" />
    <glyph glyph-name="Ohungarumlaut" unicode="&#x150;" horiz-adv-x="673" 
d="M404 950l-54 -110h139l64 110h-149zM229 950l-46 -110h139l56 110h-149zM332 127l-102 63l-27 180v40l27 180l102 63h9l102 -63l26 -180v-40l-26 -180l-102 -63h-9zM336 -13l225 90l73 293v40l-73 293l-225 90l-224 -90l-73 -293v-40l73 -293z" />
    <glyph glyph-name="ohungarumlaut" unicode="&#x151;" horiz-adv-x="556" 
d="M387 780l-91 -184h123l107 184h-139zM203 780l-67 -184h123l84 184h-140zM278 123l-68 33l-22 91v36l22 91l68 33l69 -33l21 -91v-36l-21 -91zM278 -13l188 73l60 187v36l-60 187l-188 73l-188 -73l-60 -187v-36l60 -187z" />
    <glyph glyph-name="OE" unicode="&#x152;" horiz-adv-x="940" 
d="M423 640v-500h-47l-137 57l-36 173v40l36 174l137 56h47zM39 410v-40l77 -286l251 -84h533v140h-315v188h265v140h-265v172h315v140h-533l-251 -84z" />
    <glyph glyph-name="oe" unicode="&#x153;" horiz-adv-x="894" 
d="M616 423l64 -25l25 -76h-178l25 76zM188 247v36l22 91l68 33l69 -33l21 -91v-36l-21 -91l-69 -33l-68 33zM864 208v71l-59 189l-186 75l-100 -20l-70 -52l-69 52l-102 20l-188 -73l-60 -187v-36l60 -187l188 -73l102 19l69 52l72 -52l104 -19l177 52l62 127v4h-149
l-24 -43l-65 -20l-70 23l-30 78h338z" />
    <glyph glyph-name="Racute" unicode="&#x154;" horiz-adv-x="623" 
d="M275 950l-55 -110h156l64 110h-165zM218 420v220h101l67 -19l33 -86v-10l-33 -85l-67 -20h-101zM218 280h83l107 -280h175l-123 303l88 72l35 145v20l-88 198l-183 42h-256v-780h162v280z" />
    <glyph glyph-name="racute" unicode="&#x155;" horiz-adv-x="385" 
d="M216 780l-91 -184h156l107 184h-172zM338 543l-82 -21l-59 -54l-11 62h-141l9 -150v-380h158v344l38 31l76 15h27v152l-7 1h-8z" />
    <glyph glyph-name="Rcommaaccent" unicode="&#x156;" horiz-adv-x="623" 
d="M379 -44h-142v-92h79l-31 -28l-53 -8v-54l111 29l36 96v57zM218 420v220h101l67 -19l33 -86v-10l-33 -85l-67 -20h-101zM218 280h83l107 -280h175l-123 303l88 72l35 145v20l-88 198l-183 42h-256v-780h162v280z" />
    <glyph glyph-name="rcommaaccent" unicode="&#x157;" horiz-adv-x="385" 
d="M204 -44h-142v-92h79l-31 -28l-53 -8v-54l111 29l36 96v57zM338 543l-82 -21l-59 -54l-11 62h-141l9 -150v-380h158v344l38 31l76 15h27v152l-7 1h-8z" />
    <glyph glyph-name="Rcaron" unicode="&#x158;" horiz-adv-x="623" 
d="M94 950l124 -110h160l124 110h-142l-62 -45l-62 45h-142zM218 420v220h101l67 -19l33 -86v-10l-33 -85l-67 -20h-101zM218 280h83l107 -280h175l-123 303l88 72l35 145v20l-88 198l-183 42h-256v-780h162v280z" />
    <glyph glyph-name="rcaron" unicode="&#x159;" horiz-adv-x="385" 
d="M-7 780l134 -184h152l134 184h-138l-72 -83l-72 83h-138zM338 543l-82 -21l-59 -54l-11 62h-141l9 -150v-380h158v344l38 31l76 15h27v152l-7 1h-8z" />
    <glyph glyph-name="Sacute" unicode="&#x15a;" horiz-adv-x="631" 
d="M292 950l-55 -110h156l64 110h-165zM290 326l113 -36l29 -66v-5l-28 -65l-84 -27h-9l-86 33l-29 106h-162v-9l72 -205l209 -65l210 62l72 175v10l-64 159l-192 67l-111 35l-26 67v5l27 62l76 24h9l87 -36l26 -113h162v21l-66 203l-210 65l-204 -63l-71 -169v-11l61 -156z
" />
    <glyph glyph-name="sacute" unicode="&#x15b;" horiz-adv-x="528" 
d="M277 780l-91 -184h156l107 184h-172zM264 107l-56 17l-16 44h-157v-5l56 -127l173 -49l172 48l58 130v9l-61 113l-160 37l-61 15l-15 36l17 35l50 13l52 -18l16 -49h155v5l-53 134l-170 48l-159 -41l-64 -132v-9l51 -107l164 -42l63 -16l16 -37l-16 -37z" />
    <glyph glyph-name="Scircumflex" unicode="&#x15c;" horiz-adv-x="631" 
d="M253 840l62 44l62 -44h142l-124 110h-160l-124 -110h142zM290 326l113 -36l29 -66v-5l-28 -65l-84 -27h-9l-86 33l-29 106h-162v-9l72 -205l209 -65l210 62l72 175v10l-64 159l-192 67l-111 35l-26 67v5l27 62l76 24h9l87 -36l26 -113h162v21l-66 203l-210 65l-204 -63
l-71 -169v-11l61 -156z" />
    <glyph glyph-name="scircumflex" unicode="&#x15d;" horiz-adv-x="528" 
d="M192 596l72 82l72 -82h138l-134 184h-152l-134 -184h138zM264 107l-56 17l-16 44h-157v-5l56 -127l173 -49l172 48l58 130v9l-61 113l-160 37l-61 15l-15 36l17 35l50 13l52 -18l16 -49h155v5l-53 134l-170 48l-159 -41l-64 -132v-9l51 -107l164 -42l63 -16l16 -37
l-16 -37z" />
    <glyph glyph-name="Scedilla" unicode="&#x15e;" horiz-adv-x="631" 
d="M209 -190l42 -17l65 -8l90 23l30 65l-29 63l-71 24l10 28l187 69l64 167v10l-64 159l-192 67l-111 35l-26 67v5l27 62l76 24h9l87 -36l26 -113h162v21l-66 203l-210 65l-204 -63l-71 -169v-11l61 -156l189 -68l113 -36l29 -66v-5l-28 -65l-84 -27h-9l-86 33l-29 106h-162
v-9l61 -195l179 -73l-24 -61l15 -28l12 2l26 3l36 -6l12 -17l-10 -17l-37 -6l-40 5l-32 12z" />
    <glyph glyph-name="scedilla" unicode="&#x15f;" horiz-adv-x="528" 
d="M158 -190l42 -17l65 -8l90 23l30 65l-29 63l-71 24l10 28l149 54l50 123v9l-61 113l-160 37l-61 15l-15 36l17 35l50 13l52 -18l16 -49h155v5l-53 134l-170 48l-159 -41l-64 -132v-9l51 -107l164 -42l63 -16l16 -37l-16 -37l-55 -15l-56 17l-16 44h-157v-5l46 -118
l142 -56l-24 -61l15 -28l12 2l26 3l36 -6l12 -17l-10 -17l-37 -6l-40 5l-32 12z" />
    <glyph glyph-name="Scaron" unicode="&#x160;" horiz-adv-x="631" 
d="M111 950l124 -110h160l124 110h-142l-62 -45l-62 45h-142zM290 326l113 -36l29 -66v-5l-28 -65l-84 -27h-9l-86 33l-29 106h-162v-9l72 -205l209 -65l210 62l72 175v10l-64 159l-192 67l-111 35l-26 67v5l27 62l76 24h9l87 -36l26 -113h162v21l-66 203l-210 65l-204 -63
l-71 -169v-11l61 -156z" />
    <glyph glyph-name="scaron" unicode="&#x161;" horiz-adv-x="528" 
d="M54 780l134 -184h152l134 184h-138l-72 -83l-72 83h-138zM264 107l-56 17l-16 44h-157v-5l56 -127l173 -49l172 48l58 130v9l-61 113l-160 37l-61 15l-15 36l17 35l50 13l52 -18l16 -49h155v5l-53 134l-170 48l-159 -41l-64 -132v-9l51 -107l164 -42l63 -16l16 -37
l-16 -37z" />
    <glyph glyph-name="Tcommaaccent" unicode="&#x162;" horiz-adv-x="557" 
d="M349 -44h-142v-92h79l-31 -28l-53 -8v-54l111 29l36 96v57zM359 640h181v140h-523v-140h180v-640h162v640z" />
    <glyph glyph-name="tcommaaccent" unicode="&#x163;" horiz-adv-x="431" 
d="M309 -44h-142v-92h79l-31 -28l-53 -8v-54l111 29l36 96v57zM258 530v150h-158v-150h-81v-138h81v-208l55 -153l144 -44l57 5l28 8v130l-20 -5l-28 -2l-57 15l-21 63v191h136v138h-136z" />
    <glyph glyph-name="Tcaron" unicode="&#x164;" horiz-adv-x="557" 
d="M74 950l124 -110h160l124 110h-142l-62 -45l-62 45h-142zM359 640h181v140h-523v-140h180v-640h162v640z" />
    <glyph glyph-name="tcaron" unicode="&#x165;" horiz-adv-x="431" 
d="M314 800v-204h70l26 204h-96zM258 530v150h-158v-150h-81v-138h81v-208l55 -153l144 -44l57 5l28 8v130l-20 -5l-28 -2l-57 15l-21 63v191h136v138h-136z" />
    <glyph glyph-name="Tbar" unicode="&#x166;" horiz-adv-x="557" 
d="M359 640h181v140h-523v-140h180v-177h-113v-130h113v-333h162v333h114v130h-114v177z" />
    <glyph glyph-name="tbar" unicode="&#x167;" horiz-adv-x="431" 
d="M258 530v150h-158v-150h-81v-138h81v-70h-65v-114h65v-24l55 -153l144 -44l57 5l28 8v130l-20 -5l-28 -2l-57 15l-21 63v7h96v114h-96v70h136v138h-136z" />
    <glyph glyph-name="Utilde" unicode="&#x168;" horiz-adv-x="663" 
d="M331 -13l220 66l61 194v533h-162v-528l-25 -94l-94 -31l-93 31l-25 94v528h-162v-533l61 -194zM431 947l-10 -26l-23 -7l-65 24l-84 24l-72 -26l-31 -93h85l10 26l23 7l65 -24l84 -24l72 27l31 92h-85z" />
    <glyph glyph-name="utilde" unicode="&#x169;" horiz-adv-x="580" 
d="M382 772l-9 -29l-22 -8l-68 26l-87 26l-79 -37l-32 -122h105l9 29l22 8l69 -26l86 -26l79 38l32 121h-105zM48 530v-359l37 -128l127 -56l103 22l67 58l12 -67h141l-9 150v380h-158v-357l-33 -32l-60 -18l-55 23l-15 51v333h-157z" />
    <glyph glyph-name="Umacron" unicode="&#x16a;" horiz-adv-x="663" 
d="M182 847h298v96h-298v-96zM331 -13l220 66l61 194v533h-162v-528l-25 -94l-94 -31l-93 31l-25 94v528h-162v-533l61 -194z" />
    <glyph glyph-name="umacron" unicode="&#x16b;" horiz-adv-x="580" 
d="M136 619h300v138h-300v-138zM48 530v-359l37 -128l127 -56l103 22l67 58l12 -67h141l-9 150v380h-158v-357l-33 -32l-60 -18l-55 23l-15 51v333h-157z" />
    <glyph glyph-name="Ubreve" unicode="&#x16c;" horiz-adv-x="663" 
d="M331 -13l220 66l61 194v533h-162v-528l-25 -94l-94 -31l-93 31l-25 94v528h-162v-533l61 -194zM331 825l147 37l36 88h-109l-17 -30l-57 -10l-57 10l-17 30h-109l36 -88z" />
    <glyph glyph-name="ubreve" unicode="&#x16d;" horiz-adv-x="580" 
d="M286 582l147 56l40 142h-113l-21 -61l-53 -17l-53 17l-21 61h-113l40 -142zM48 530v-359l37 -128l127 -56l103 22l67 58l12 -67h141l-9 150v380h-158v-357l-33 -32l-60 -18l-55 23l-15 51v333h-157z" />
    <glyph glyph-name="Uring" unicode="&#x16e;" horiz-adv-x="663" 
d="M280 858l15 36l36 14l36 -14l15 -36l-15 -36l-36 -15l-36 15zM226 858l31 -75l74 -31l74 31l31 75l-31 74l-74 31l-74 -31zM331 -13l220 66l61 194v533h-162v-528l-25 -94l-94 -31l-93 31l-25 94v528h-162v-533l61 -194z" />
    <glyph glyph-name="uring" unicode="&#x16f;" horiz-adv-x="580" 
d="M235 688l15 36l36 14l36 -14l15 -36l-15 -36l-36 -15l-36 15zM181 688l31 -75l74 -31l74 31l31 75l-31 74l-74 31l-74 -31zM48 530v-359l37 -128l127 -56l103 22l67 58l12 -67h141l-9 150v380h-158v-357l-33 -32l-60 -18l-55 23l-15 51v333h-157z" />
    <glyph glyph-name="Uhungarumlaut" unicode="&#x170;" horiz-adv-x="663" 
d="M224 950l-46 -110h139l56 110h-149zM399 950l-54 -110h139l64 110h-149zM331 -13l220 66l61 194v533h-162v-528l-25 -94l-94 -31l-93 31l-25 94v528h-162v-533l61 -194z" />
    <glyph glyph-name="uhungarumlaut" unicode="&#x171;" horiz-adv-x="580" 
d="M395 780l-91 -184h123l107 184h-139zM211 780l-67 -184h123l84 184h-140zM48 530v-359l37 -128l127 -56l103 22l67 58l12 -67h141l-9 150v380h-158v-357l-33 -32l-60 -18l-55 23l-15 51v333h-157z" />
    <glyph glyph-name="Uogonek" unicode="&#x172;" horiz-adv-x="663" 
d="M390 -69l16 42l46 27l123 85l37 162v533h-162v-528l-25 -94l-94 -31l-93 31l-25 94v528h-162v-533l56 -188l199 -71l-24 -43l-9 -52l37 -81l98 -27l59 8l44 17l-36 96l-17 -7l-25 -4l-31 10z" />
    <glyph glyph-name="uogonek" unicode="&#x173;" horiz-adv-x="580" 
d="M48 530v-359l37 -128l127 -56l103 22l67 58l13 -72l-28 -46l-11 -56l37 -81l98 -27l59 8l44 17l-36 96l-17 -7l-25 -4l-31 10l-12 26l16 39l46 30l-9 150v380h-158v-357l-33 -32l-60 -18l-55 23l-15 51v333h-157z" />
    <glyph glyph-name="Wcircumflex" unicode="&#x174;" horiz-adv-x="937" 
d="M406 840l62 44l62 -44h142l-124 110h-160l-124 -110h142zM581 -2h208l129 782h-169l-75 -561l-105 561h-201l-105 -561l-75 561h-169l129 -782h207l113 597z" />
    <glyph glyph-name="wcircumflex" unicode="&#x175;" horiz-adv-x="766" 
d="M311 596l72 82l72 -82h138l-134 184h-152l-134 -184h138zM383 365l74 -365h198l92 530h-155l-40 -359l-75 359h-189l-74 -359l-40 359h-155l91 -530h199z" />
    <glyph glyph-name="Ycircumflex" unicode="&#x176;" horiz-adv-x="625" 
d="M251 840l62 44l62 -44h142l-124 110h-160l-124 -110h142zM394 239l223 541h-177l-127 -341l-128 341h-177l224 -541v-239h162v239z" />
    <glyph glyph-name="ycircumflex" unicode="&#x177;" horiz-adv-x="551" 
d="M205 596l72 82l72 -82h138l-134 184h-152l-134 -184h138zM277 192l-100 338h-172l186 -502l-85 -228h188l68 228l187 502h-172z" />
    <glyph glyph-name="Ydieresis" unicode="&#x178;" horiz-adv-x="625" 
d="M292 945h-133v-100h133v100zM467 945h-133v-100h133v100zM394 239l223 541h-177l-127 -341l-128 341h-177l224 -541v-239h162v239z" />
    <glyph glyph-name="Zacute" unicode="&#x179;" horiz-adv-x="599" 
d="M40 111v-111h519v140h-178l-143 -3l311 532v111h-499v-140h158l143 3zM276 950l-55 -110h156l64 110h-165z" />
    <glyph glyph-name="zacute" unicode="&#x17a;" horiz-adv-x="499" 
d="M24 108v-108h451v138h-134l-110 -3l234 287v108h-431v-138h114l110 3zM262 780l-91 -184h156l107 184h-172z" />
    <glyph glyph-name="Zdotaccent" unicode="&#x17b;" horiz-adv-x="599" 
d="M40 111v-111h519v140h-178l-143 -3l311 532v111h-499v-140h158l143 3zM366 945h-134v-100h134v100z" />
    <glyph glyph-name="zdotaccent" unicode="&#x17c;" horiz-adv-x="499" 
d="M332 772h-166v-166h166v166zM24 108v-108h451v138h-134l-110 -3l234 287v108h-431v-138h114l110 3z" />
    <glyph glyph-name="Zcaron" unicode="&#x17d;" horiz-adv-x="599" 
d="M40 111v-111h519v140h-178l-143 -3l311 532v111h-499v-140h158l143 3zM95 950l124 -110h160l124 110h-142l-62 -45l-62 45h-142z" />
    <glyph glyph-name="zcaron" unicode="&#x17e;" horiz-adv-x="499" 
d="M24 108v-108h451v138h-134l-110 -3l234 287v108h-431v-138h114l110 3zM39 780l134 -184h152l134 184h-138l-72 -83l-72 83h-138z" />
    <glyph glyph-name="Scommaaccent" unicode="&#x218;" horiz-adv-x="631" 
d="M386 -44h-142v-92h79l-31 -28l-53 -8v-54l111 29l36 96v57zM290 326l113 -36l29 -66v-5l-28 -65l-84 -27h-9l-86 33l-29 106h-162v-9l72 -205l209 -65l210 62l72 175v10l-64 159l-192 67l-111 35l-26 67v5l27 62l76 24h9l87 -36l26 -113h162v21l-66 203l-210 65l-204 -63
l-71 -169v-11l61 -156z" />
    <glyph glyph-name="scommaaccent" unicode="&#x219;" horiz-adv-x="528" 
d="M335 -44h-142v-92h79l-31 -28l-53 -8v-54l111 29l36 96v57zM264 107l-56 17l-16 44h-157v-5l56 -127l173 -49l172 48l58 130v9l-61 113l-160 37l-61 15l-15 36l17 35l50 13l52 -18l16 -49h155v5l-53 134l-170 48l-159 -41l-64 -132v-9l51 -107l164 -42l63 -16l16 -37
l-16 -37z" />
    <glyph glyph-name="Ymacron" unicode="&#x232;" horiz-adv-x="625" 
d="M164 847h298v96h-298v-96zM394 239l223 541h-177l-127 -341l-128 341h-177l224 -541v-239h162v239z" />
    <glyph glyph-name="ymacron" unicode="&#x233;" horiz-adv-x="551" 
d="M127 619h300v138h-300v-138zM277 192l-100 338h-172l186 -502l-85 -228h188l68 228l187 502h-172z" />
    <glyph glyph-name="dotlessj" unicode="&#x237;" horiz-adv-x="268" 
d="M54 1l-21 -64l-57 -15l-29 3l-20 4v-129l28 -8l58 -5l143 44l55 153v546h-157v-529z" />
    <glyph glyph-name="circumflex" unicode="&#x2c6;" horiz-adv-x="500" 
d="M178 596l72 82l72 -82h138l-134 184h-152l-134 -184h138z" />
    <glyph glyph-name="caron" unicode="&#x2c7;" horiz-adv-x="500" 
d="M40 780l134 -184h152l134 184h-138l-72 -83l-72 83h-138z" />
    <glyph glyph-name="breve" unicode="&#x2d8;" horiz-adv-x="499" 
d="M250 582l147 56l40 142h-113l-21 -61l-53 -17l-53 17l-21 61h-113l40 -142z" />
    <glyph glyph-name="dotaccent" unicode="&#x2d9;" horiz-adv-x="500" 
d="M333 772h-166v-166h166v166z" />
    <glyph glyph-name="ring" unicode="&#x2da;" horiz-adv-x="500" 
d="M199 688l15 36l36 14l36 -14l15 -36l-15 -36l-36 -15l-36 15zM145 688l31 -75l74 -31l74 31l31 75l-31 74l-74 31l-74 -31z" />
    <glyph glyph-name="ogonek" unicode="&#x2db;" horiz-adv-x="602" 
d="M230 -69l16 39l46 30l-27 66l-104 -61l-48 -112l37 -81l98 -27l59 8l44 17l-36 96l-17 -7l-25 -4l-31 10z" />
    <glyph glyph-name="tilde" unicode="&#x2dc;" horiz-adv-x="500" 
d="M346 772l-9 -29l-22 -8l-68 26l-87 26l-79 -37l-32 -122h105l9 29l22 8l69 -26l86 -26l79 38l32 121h-105z" />
    <glyph glyph-name="hungarumlaut" unicode="&#x2dd;" horiz-adv-x="500" 
d="M359 780l-91 -184h123l107 184h-139zM175 780l-67 -184h123l84 184h-140z" />
    <glyph glyph-name="Bdotaccent" unicode="&#x1e02;" horiz-adv-x="631" 
d="M365 945h-134v-100h134v100zM311 640l60 -15l28 -64v-13l-28 -63l-60 -16h-93v171h93zM325 328l64 -18l30 -71v-9l-30 -72l-64 -18h-107v188h107zM56 780v-780h264l179 41l84 183v20l-27 101l-69 58l55 54l21 87v20l-80 177l-171 39h-256z" />
    <glyph glyph-name="bdotaccent" unicode="&#x1e03;" horiz-adv-x="574" 
d="M198 945h-134v-100h134v100zM211 173v184l32 32l58 18l65 -33l20 -91v-36l-20 -91l-65 -33l-58 18zM211 800h-158v-650l-9 -150h141l11 64l59 -55l92 -22l153 73l44 187v36l-44 187l-153 73l-80 -16l-56 -42v315z" />
    <glyph glyph-name="Ddotaccent" unicode="&#x1e0a;" horiz-adv-x="663" 
d="M380 945h-134v-100h134v100zM218 140v500h68l137 -56l36 -174v-40l-36 -173l-137 -57h-68zM624 370v40l-77 286l-252 84h-239v-780h239l252 84z" />
    <glyph glyph-name="ddotaccent" unicode="&#x1e0b;" horiz-adv-x="582" 
d="M517 945h-134v-100h134v100zM371 357v-184l-32 -32l-58 -18l-66 33l-20 91v36l20 91l66 33l58 -18zM235 543l-153 -73l-44 -187v-36l44 -187l153 -73l91 22l59 54l11 -63h142l-9 150v650h-158v-315l-56 42z" />
    <glyph glyph-name="Fdotaccent" unicode="&#x1e1e;" horiz-adv-x="549" 
d="M363 945h-134v-100h134v100zM56 780v-780h162v328h261v140h-261v172h311v140h-473z" />
    <glyph glyph-name="fdotaccent" unicode="&#x1e1f;" horiz-adv-x="411" 
d="M311 945h-134v-100h134v100zM258 599l21 63l57 15l28 -2l20 -5v130l-28 8l-57 5l-144 -44l-55 -153v-86h-81v-138h81v-392h158v392h116v138h-116v69z" />
    <glyph glyph-name="Mdotaccent" unicode="&#x1e40;" horiz-adv-x="869" 
d="M502 945h-134v-100h134v100zM656 499l-4 -156v-343h162v780h-240l-139 -499l-140 499h-239v-780h162v343l-5 156l139 -499h165z" />
    <glyph glyph-name="mdotaccent" unicode="&#x1e41;" horiz-adv-x="863" 
d="M518 772h-166v-166h166v166zM815 0v365l-37 127l-120 51l-99 -23l-64 -59l-51 60l-88 22l-96 -22l-63 -55l-11 64h-141l9 -150v-380h158v361l29 30l52 16l48 -18l15 -49v-340h157v361l29 30l53 16l48 -18l15 -49v-340h157z" />
    <glyph glyph-name="Pdotaccent" unicode="&#x1e56;" horiz-adv-x="609" 
d="M360 945h-134v-100h134v100zM218 420v220h101l67 -19l33 -86v-10l-33 -85l-67 -20h-101zM218 280h94l183 42l88 198v20l-88 198l-183 42h-256v-780h162v280z" />
    <glyph glyph-name="pdotaccent" unicode="&#x1e57;" horiz-adv-x="574" 
d="M381 772h-166v-166h166v166zM211 357l32 32l58 18l65 -33l20 -91v-36l-20 -91l-65 -33l-58 18l-32 32v184zM347 -13l153 73l44 187v36l-44 187l-153 73l-92 -22l-59 -56l-11 65h-141l9 -150v-580h158v245l56 -42z" />
    <glyph glyph-name="Tdotaccent" unicode="&#x1e6a;" horiz-adv-x="557" 
d="M345 945h-134v-100h134v100zM359 640h181v140h-523v-140h180v-640h162v640z" />
    <glyph glyph-name="tdotaccent" unicode="&#x1e6b;" horiz-adv-x="431" 
d="M246 825h-134v-100h134v100zM258 530v150h-158v-150h-81v-138h81v-208l55 -153l144 -44l57 5l28 8v130l-20 -5l-28 -2l-57 15l-21 63v191h136v138h-136z" />
    <glyph glyph-name="Wgrave" unicode="&#x1e80;" horiz-adv-x="937" 
d="M326 950l64 -110h156l-55 110h-165zM581 -2h208l129 782h-169l-75 -561l-105 561h-201l-105 -561l-75 561h-169l129 -782h207l113 597z" />
    <glyph glyph-name="wgrave" unicode="&#x1e81;" horiz-adv-x="766" 
d="M198 780l107 -184h156l-91 184h-172zM383 365l74 -365h198l92 530h-155l-40 -359l-75 359h-189l-74 -359l-40 359h-155l91 -530h199z" />
    <glyph glyph-name="Wacute" unicode="&#x1e82;" horiz-adv-x="937" 
d="M445 950l-55 -110h156l64 110h-165zM581 -2h208l129 782h-169l-75 -561l-105 561h-201l-105 -561l-75 561h-169l129 -782h207l113 597z" />
    <glyph glyph-name="wacute" unicode="&#x1e83;" horiz-adv-x="766" 
d="M396 780l-91 -184h156l107 184h-172zM383 365l74 -365h198l92 530h-155l-40 -359l-75 359h-189l-74 -359l-40 359h-155l91 -530h199z" />
    <glyph glyph-name="Wdieresis" unicode="&#x1e84;" horiz-adv-x="937" 
d="M622 945h-133v-100h133v100zM447 945h-133v-100h133v100zM581 -2h208l129 782h-169l-75 -561l-105 561h-201l-105 -561l-75 561h-169l129 -782h207l113 597z" />
    <glyph glyph-name="wdieresis" unicode="&#x1e85;" horiz-adv-x="766" 
d="M573 772h-165v-166h165v166zM358 772h-165v-166h165v166zM383 365l74 -365h198l92 530h-155l-40 -359l-75 359h-189l-74 -359l-40 359h-155l91 -530h199z" />
    <glyph glyph-name="Eszett" unicode="&#x1e9e;" horiz-adv-x="805" 
d="M304 458v-111l193 -23l92 -32l28 -68v-5l-23 -68l-59 -24h-9l-63 30l-27 109h-162v-9l63 -211l191 -59l188 62l65 175v10l-65 159l-191 67l-31 4l113 181v111l-101 28l-120 9l-254 -66l-81 -194v-533h162v528l44 94l129 31l20 -1l20 -1z" />
    <glyph glyph-name="Ygrave" unicode="&#x1ef2;" horiz-adv-x="625" 
d="M171 950l64 -110h156l-55 110h-165zM394 239l223 541h-177l-127 -341l-128 341h-177l224 -541v-239h162v239z" />
    <glyph glyph-name="ygrave" unicode="&#x1ef3;" horiz-adv-x="551" 
d="M92 780l107 -184h156l-91 184h-172zM277 192l-100 338h-172l186 -502l-85 -228h188l68 228l187 502h-172z" />
    <glyph glyph-name="enspace" unicode="&#x2002;" horiz-adv-x="500" 
 />
    <glyph glyph-name="emspace" unicode="&#x2003;" horiz-adv-x="1000" 
 />
    <glyph glyph-name="threeperemspace" unicode="&#x2004;" horiz-adv-x="333" 
 />
    <glyph glyph-name="fourperemspace" unicode="&#x2005;" horiz-adv-x="250" 
 />
    <glyph glyph-name="sixperemspace" unicode="&#x2006;" horiz-adv-x="167" 
 />
    <glyph glyph-name="figurespace" unicode="&#x2007;" horiz-adv-x="600" 
 />
    <glyph glyph-name="punctuationspace" unicode="&#x2008;" horiz-adv-x="180" 
 />
    <glyph glyph-name="thinspace" unicode="&#x2009;" horiz-adv-x="150" 
 />
    <glyph glyph-name="hairspace" unicode="&#x200a;" horiz-adv-x="50" 
 />
    <glyph glyph-name="zerowidthspace" unicode="&#x200b;" horiz-adv-x="0" 
 />
    <glyph glyph-name="figuredash" unicode="&#x2012;" horiz-adv-x="600" 
d="M40 281h520v138h-520v-138z" />
    <glyph glyph-name="endash" unicode="&#x2013;" horiz-adv-x="500" 
d="M40 281h420v138h-420v-138z" />
    <glyph glyph-name="emdash" unicode="&#x2014;" horiz-adv-x="1000" 
d="M40 281h920v138h-920v-138z" />
    <glyph glyph-name="uni2015" unicode="&#x2015;" horiz-adv-x="1200" 
d="M40 281h1120v138h-1120v-138z" />
    <glyph glyph-name="doublebar" unicode="&#x2016;" horiz-adv-x="459" 
d="M251 -120h154v960h-154v-960zM54 -120h154v960h-154v-960z" />
    <glyph glyph-name="quoteleft" unicode="&#x2018;" horiz-adv-x="266" 
d="M50 496h166v167h-85l30 48l60 16v79l-128 -45l-43 -133v-132z" />
    <glyph glyph-name="quoteright" unicode="&#x2019;" horiz-adv-x="266" 
d="M216 780h-166v-167h84l-30 -48l-59 -16v-79l128 45l43 133v132z" />
    <glyph glyph-name="quotesinglbase" unicode="&#x201a;" horiz-adv-x="266" 
d="M216 167h-166v-167h84l-30 -48l-59 -16v-79l128 45l43 133v132z" />
    <glyph glyph-name="reversequoteleft" unicode="&#x201b;" horiz-adv-x="266" 
d="M50 780v-132l43 -133l128 -45v79l-60 16l-30 48h85v167h-166z" />
    <glyph glyph-name="quotedblleft" unicode="&#x201c;" horiz-adv-x="486" 
d="M270 496h166v167h-85l30 48l60 16v79l-128 -45l-43 -133v-132zM50 496h166v167h-85l30 48l60 16v79l-128 -45l-43 -133v-132z" />
    <glyph glyph-name="quotedblright" unicode="&#x201d;" horiz-adv-x="486" 
d="M436 780h-166v-167h84l-30 -48l-59 -16v-79l128 45l43 133v132zM216 780h-166v-167h84l-30 -48l-59 -16v-79l128 45l43 133v132z" />
    <glyph glyph-name="quotedblbase" unicode="&#x201e;" horiz-adv-x="486" 
d="M436 167h-166v-167h84l-30 -48l-59 -16v-79l128 45l43 133v132zM216 167h-166v-167h84l-30 -48l-59 -16v-79l128 45l43 133v132z" />
    <glyph glyph-name="reversequotedblleft" unicode="&#x201f;" horiz-adv-x="486" 
d="M270 780v-132l43 -133l128 -45v79l-60 16l-30 48h85v167h-166zM50 780v-132l43 -133l128 -45v79l-60 16l-30 48h85v167h-166z" />
    <glyph glyph-name="dagger" unicode="&#x2020;" horiz-adv-x="413" 
d="M388 660l-131 -5v-78l131 -5v88zM24 572l132 5v78l-132 5v-88zM162 800l5 -134h79l5 134h-89zM162 437l5 -130h79l5 130l-5 129h-79z" />
    <glyph glyph-name="daggerdbl" unicode="&#x2021;" horiz-adv-x="413" 
d="M388 660l-131 -5v-78l131 -5v88zM24 572l132 5v78l-132 5v-88zM388 426l-131 -5v-79l131 -5v89zM24 337l132 5v79l-132 5v-89zM162 499l5 -67h79l5 67l-5 67h-79zM162 800l5 -134h79l5 134h-89zM162 202l5 -129h79l5 129l-5 129h-79z" />
    <glyph glyph-name="bullet" unicode="&#x2022;" horiz-adv-x="445" 
d="M383 511h-321v-322h321v322z" />
    <glyph glyph-name="ellipsis" unicode="&#x2026;" horiz-adv-x="1000" 
d="M903 167h-166v-167h166v167zM583 167h-166v-167h166v167zM263 167h-166v-167h166v167z" />
    <glyph glyph-name="perthousand" unicode="&#x2030;" horiz-adv-x="1401" 
d="M296 779l-38 10l-41 4l-136 -48l-54 -140v-12l54 -140l136 -49l135 49l54 140v12v12l-1 11l23 -2l24 -1l42 3l29 5l-264 -633h138l295 708v75l-84 -20l-127 -12l-103 6zM289 605v-13l-19 -51l-50 -19h-6l-51 19l-19 51v13l19 51l51 20h6l50 -20zM1112 175v13l19 51l51 19
h6l50 -19l19 -51v-13l-19 -51l-50 -20h-6l-51 20zM692 175v13l19 51l51 19h6l50 -19l19 -51v-13l-19 -51l-50 -20h-6l-51 20zM995 187v-12l54 -140l136 -48l135 48l54 140v12l-54 140l-135 49l-136 -49zM575 187v-12l54 -140l136 -48l135 48l54 140v12l-54 140l-135 49
l-136 -49z" />
    <glyph glyph-name="tripleprime" unicode="&#x2034;" horiz-adv-x="628" 
d="M245 780l8 -323h122l8 323h-138zM47 780l25 -323h121l9 323h-155zM426 780l8 -323h122l25 323h-155z" />
    <glyph glyph-name="guilsinglleft" unicode="&#x2039;" horiz-adv-x="316" 
d="M266 563l-216 -147v-152l216 -147v139l-109 84l109 84v139z" />
    <glyph glyph-name="guilsinglright" unicode="&#x203a;" horiz-adv-x="316" 
d="M50 424l109 -84l-109 -84v-139l216 147v152l-216 147v-139z" />
    <glyph glyph-name="interrobang" unicode="&#x203d;" horiz-adv-x="497" 
d="M328 575l-12 -51l-28 -53l3 175l28 -28zM338 167h-166v-167h166v167zM300 228l95 178l84 186l-47 138l-179 63l-181 -67l-51 -192v-18h143l9 84l32 44l9 -416h86z" />
    <glyph glyph-name="fraction" unicode="&#x2044;" horiz-adv-x="200" 
d="M-121 0l576 780h-134l-576 -780h134z" />
    <glyph glyph-name="uni2070" unicode="&#x2070;" 
d="M133 496v178l4 11l11 4h4l11 -4l4 -11v-178l-4 -10l-11 -5h-4l-11 5zM287 494v182l-37 84l-100 33l-100 -33l-37 -84v-182l37 -84l100 -33l100 33z" />
    <glyph glyph-name="uni2074" unicode="&#x2074;" 
d="M137 619v-57h-31zM257 390v68h32v104h-32v218h-121l-126 -230v-92h127v-68h120z" />
    <glyph glyph-name="uni2075" unicode="&#x2075;" 
d="M11 515v-8l38 -95l101 -35l101 33l37 97v12l-30 90l-90 35l-24 -2l-22 -5l2 39h157v104h-256l-9 -210l104 -35l12 8l12 3h1l18 -7l6 -23v-5l-6 -22l-12 -8h-4l-11 7l-5 27h-120z" />
    <glyph glyph-name="uni2076" unicode="&#x2076;" 
d="M148 533h4l11 -5l6 -17v-5l-6 -18l-11 -7h-4l-11 8l-6 31v2l8 8zM278 793l-123 -16l-87 -58l-45 -85l-12 -92v-9l33 -109l105 -47l106 38l33 93v5l-28 91l-74 32l-24 -3l-21 -10l8 17l10 14l46 26l73 9v104z" />
    <glyph glyph-name="uni2077" unicode="&#x2077;" 
d="M8 640h104v36h48l-124 -286h128l128 316v74h-284v-140z" />
    <glyph glyph-name="uni2078" unicode="&#x2078;" 
d="M151 641h-2l-10 6l-3 17v4l3 18l10 5h2l10 -5l3 -18v-4l-3 -17zM148 537h4l13 -7l4 -20v-4l-4 -19l-13 -8h-4l-13 8l-4 19v4l4 20zM150 377l101 32l37 83v11l-15 54l-34 32l32 32l13 53v10l-26 68l-108 41l-107 -41l-27 -68v-10l14 -53l31 -32l-34 -32l-15 -54v-11
l37 -83z" />
    <glyph glyph-name="uni2079" unicode="&#x2079;" 
d="M148 637l-11 5l-6 17v5l6 19l11 6h4l11 -8l6 -31v-2l-8 -8l-9 -3h-4zM22 377l123 16l87 58l45 86l12 91v9l-33 109l-105 47l-106 -38l-33 -93v-5l28 -91l74 -32l24 4l21 9l-8 -17l-10 -14l-46 -26l-73 -9v-104z" />
    <glyph glyph-name="uni207A" unicode="&#x207a;" 
d="M98 717v-80h-80v-104h80v-80h104v80h80v104h-80v80h-104z" />
    <glyph glyph-name="uni207B" unicode="&#x207b;" 
d="M18 533h264v104h-264v-104z" />
    <glyph glyph-name="uni207C" unicode="&#x207c;" 
d="M18 472h264v104h-264v-104zM18 594h264v104h-264v-104z" />
    <glyph glyph-name="uni207D" unicode="&#x207d;" horiz-adv-x="205" 
d="M15 580l18 -119l41 -71h123l-41 76l-22 114v10l22 114l41 76h-123l-41 -71l-18 -119v-10z" />
    <glyph glyph-name="uni207E" unicode="&#x207e;" horiz-adv-x="205" 
d="M189 590l-18 119l-41 71h-122l40 -76l22 -114v-10l-22 -114l-40 -76h122l41 71l18 119v10z" />
    <glyph glyph-name="uni2080" unicode="&#x2080;" 
d="M133 106v178l4 11l11 4h4l11 -4l4 -11v-178l-4 -10l-11 -5h-4l-11 5zM287 104v182l-37 84l-100 33l-100 -33l-37 -84v-182l37 -84l100 -33l100 33z" />
    <glyph glyph-name="uni2081" unicode="&#x2081;" 
d="M290 0v103h-71v288h-90l-124 -84l59 -85l35 23v-142h-72v-103h263z" />
    <glyph glyph-name="uni2082" unicode="&#x2082;" 
d="M284 103h-105l62 69l32 44l11 53v18l-27 74l-108 42l-109 -44l-27 -84v-15h120l3 29l11 10h3l11 -9l3 -18v-11l-3 -17l-10 -15l-138 -153v-76h271v103z" />
    <glyph glyph-name="uni2083" unicode="&#x2083;" 
d="M131 125h-120v-8l38 -95l101 -35l101 32l37 83v10l-16 55l-36 32l34 31l14 54v10l-27 68l-108 41l-109 -44l-27 -90v-9h120l3 29l11 10h3l11 -10l3 -15v-2l-3 -18l-12 -7h-49v-96h50l14 -7l5 -18v-5l-6 -22l-11 -8h-3l-12 7z" />
    <glyph glyph-name="uni2084" unicode="&#x2084;" 
d="M137 229v-57h-31zM257 0v68h32v104h-32v218h-121l-126 -230v-92h127v-68h120z" />
    <glyph glyph-name="uni2085" unicode="&#x2085;" 
d="M11 125v-8l38 -95l101 -35l101 33l37 97v12l-30 90l-90 35l-24 -2l-22 -5l2 39h157v104h-256l-9 -210l104 -35l12 8l12 3h1l18 -7l6 -23v-5l-6 -22l-12 -8h-4l-11 7l-5 27h-120z" />
    <glyph glyph-name="uni2086" unicode="&#x2086;" 
d="M148 143h4l11 -5l6 -17v-5l-6 -18l-11 -7h-4l-11 8l-6 31v2l8 8zM278 403l-123 -16l-87 -58l-45 -85l-12 -92v-9l33 -109l105 -47l106 38l33 93v5l-28 91l-74 32l-24 -3l-21 -10l8 17l10 14l46 26l73 9v104z" />
    <glyph glyph-name="uni2087" unicode="&#x2087;" 
d="M8 250h104v36h48l-124 -286h128l128 316v74h-284v-140z" />
    <glyph glyph-name="uni2088" unicode="&#x2088;" 
d="M151 251h-2l-10 6l-3 17v4l3 18l10 5h2l10 -5l3 -18v-4l-3 -17zM148 147h4l13 -7l4 -20v-4l-4 -19l-13 -8h-4l-13 8l-4 19v4l4 20zM150 -13l101 32l37 83v11l-15 54l-34 32l32 32l13 53v10l-26 68l-108 41l-107 -41l-27 -68v-10l14 -53l31 -32l-34 -32l-15 -54v-11
l37 -83z" />
    <glyph glyph-name="uni2089" unicode="&#x2089;" 
d="M148 247l-11 5l-6 17v5l6 19l11 6h4l11 -8l6 -31v-2l-8 -8l-9 -3h-4zM22 -13l123 16l87 58l45 86l12 91v9l-33 109l-105 47l-106 -38l-33 -93v-5l28 -91l74 -32l24 4l21 9l-8 -17l-10 -14l-46 -26l-73 -9v-104z" />
    <glyph glyph-name="uni208A" unicode="&#x208a;" 
d="M98 327v-80h-80v-104h80v-80h104v80h80v104h-80v80h-104z" />
    <glyph glyph-name="uni208B" unicode="&#x208b;" 
d="M18 143h264v104h-264v-104z" />
    <glyph glyph-name="uni208C" unicode="&#x208c;" 
d="M18 82h264v104h-264v-104zM18 204h264v104h-264v-104z" />
    <glyph glyph-name="uni208D" unicode="&#x208d;" horiz-adv-x="205" 
d="M15 190l18 -119l41 -71h123l-41 76l-22 114v10l22 114l41 76h-123l-41 -71l-18 -119v-10z" />
    <glyph glyph-name="uni208E" unicode="&#x208e;" horiz-adv-x="205" 
d="M189 200l-18 119l-41 71h-122l40 -76l22 -114v-10l-22 -114l-40 -76h122l41 71l18 119v10z" />
    <glyph glyph-name="Euro" unicode="&#x20ac;" horiz-adv-x="600" 
d="M97 309l71 -246l177 -76l166 61l51 193v9h-138l-18 -92l-52 -30h-9l-59 47l-23 134h133l69 141h-203l22 150l61 52h9l54 -36l16 -116h138v37l-51 195l-166 61l-181 -81l-68 -262h-65v-141h66z" />
    <glyph glyph-name="ruble" unicode="&#x20bd;" horiz-adv-x="600" 
d="M249 420v220h53l67 -19l33 -86v-10l-33 -85l-67 -20h-53zM249 280h46l183 42l88 198v20l-88 198l-183 42h-208v-360h-70v-140h70v-38h-70v-141h70v-101h162v101h187v141h-187v38z" />
    <glyph glyph-name="numero" unicode="&#x2116;" horiz-adv-x="1126" 
d="M851 570v30l13 56l40 20l41 -20l13 -56v-30l-13 -55l-41 -20l-40 20zM723 181h363v119h-363v-119zM1095 570v30l-46 141l-145 53l-144 -53l-46 -141v-30l46 -140l144 -53l145 53zM627 780h-154v-327l5 -157l-251 484h-171v-780h153v327l-5 157l252 -484h171v780z" />
    <glyph glyph-name="published" unicode="&#x2117;" horiz-adv-x="920" 
d="M414 411v110h71l37 -10l17 -42v-6l-17 -42l-37 -10h-71zM414 307h103l111 30l53 123v12l-53 123l-111 30h-243v-470h140v152zM113 390l102 246l245 101l246 -101l101 -246l-101 -245l-246 -102l-245 102zM57 390l118 -285l285 -118l285 118l118 285l-118 285l-285 118
l-285 -118z" />
    <glyph glyph-name="servicemark" unicode="&#x2120;" horiz-adv-x="559" 
d="M454 691l-2 -60v-101h64v270h-96l-41 -159l-42 159h-95v-270h64v101l-2 60l41 -161h68zM103 638l37 -11l9 -21v-2l-7 -19l-25 -9h-3l-29 12l-9 35h-63v-2l25 -76l76 -25l75 23l26 63v5l-22 58l-68 24l-35 11l-10 21v2l8 18l22 7h4l28 -12l8 -38h63v7l-24 75l-75 25
l-74 -23l-25 -62v-4l22 -58z" />
    <glyph glyph-name="trademark" unicode="&#x2122;" horiz-adv-x="559" 
d="M454 691l-2 -60v-101h64v270h-96l-41 -159l-42 159h-95v-270h64v101l-2 60l41 -161h68zM147 744h67v56h-197v-56h66v-214h64v214z" />
    <glyph glyph-name="uni2153" unicode="&#x2153;" horiz-adv-x="800" 
d="M290 390v103h-71v288h-90l-124 -84l59 -85l35 23v-142h-72v-103h263zM631 125h-120v-8l38 -95l101 -35l101 32l37 83v10l-16 55l-36 32l34 31l14 54v10l-27 68l-108 41l-109 -44l-27 -90v-9h120l3 29l11 10h3l11 -10l3 -15v-2l-3 -18l-12 -7h-49v-96h50l14 -7l5 -18v-5
l-6 -22l-11 -8h-3l-12 7zM179 0l576 780h-134l-576 -780h134z" />
    <glyph glyph-name="uni2154" unicode="&#x2154;" horiz-adv-x="800" 
d="M284 493h-105l62 69l32 44l11 53v18l-27 74l-108 42l-109 -44l-27 -84v-15h120l3 29l11 10h3l11 -9l3 -18v-11l-3 -17l-10 -15l-138 -153v-76h271v103zM631 125h-120v-8l38 -95l101 -35l101 32l37 83v10l-16 55l-36 32l34 31l14 54v10l-27 68l-108 41l-109 -44l-27 -90
v-9h120l3 29l11 10h3l11 -10l3 -15v-2l-3 -18l-12 -7h-49v-96h50l14 -7l5 -18v-5l-6 -22l-11 -8h-3l-12 7zM179 0l576 780h-134l-576 -780h134z" />
    <glyph glyph-name="uni2155" unicode="&#x2155;" horiz-adv-x="800" 
d="M290 390v103h-71v288h-90l-124 -84l59 -85l35 23v-142h-72v-103h263zM511 125v-8l38 -95l101 -35l101 33l37 97v12l-30 90l-90 35l-24 -2l-22 -5l2 39h157v104h-256l-9 -210l104 -35l12 8l12 3h1l18 -7l6 -23v-5l-6 -22l-12 -8h-4l-11 7l-5 27h-120zM179 0l576 780h-134
l-576 -780h134z" />
    <glyph glyph-name="uni2156" unicode="&#x2156;" horiz-adv-x="800" 
d="M284 493h-105l62 69l32 44l11 53v18l-27 74l-108 42l-109 -44l-27 -84v-15h120l3 29l11 10h3l11 -9l3 -18v-11l-3 -17l-10 -15l-138 -153v-76h271v103zM511 125v-8l38 -95l101 -35l101 33l37 97v12l-30 90l-90 35l-24 -2l-22 -5l2 39h157v104h-256l-9 -210l104 -35l12 8
l12 3h1l18 -7l6 -23v-5l-6 -22l-12 -8h-4l-11 7l-5 27h-120zM179 0l576 780h-134l-576 -780h134z" />
    <glyph glyph-name="uni2157" unicode="&#x2157;" horiz-adv-x="800" 
d="M131 515h-120v-8l38 -95l101 -35l101 32l37 83v10l-16 55l-36 32l34 31l14 54v10l-27 68l-108 41l-109 -44l-27 -90v-9h120l3 29l11 10h3l11 -10l3 -15v-2l-3 -18l-12 -7h-49v-96h50l14 -7l5 -18v-5l-6 -22l-11 -8h-3l-12 7zM511 125v-8l38 -95l101 -35l101 33l37 97v12
l-30 90l-90 35l-24 -2l-22 -5l2 39h157v104h-256l-9 -210l104 -35l12 8l12 3h1l18 -7l6 -23v-5l-6 -22l-12 -8h-4l-11 7l-5 27h-120zM179 0l576 780h-134l-576 -780h134z" />
    <glyph glyph-name="uni2158" unicode="&#x2158;" horiz-adv-x="800" 
d="M137 619v-57h-31zM257 390v68h32v104h-32v218h-121l-126 -230v-92h127v-68h120zM511 125v-8l38 -95l101 -35l101 33l37 97v12l-30 90l-90 35l-24 -2l-22 -5l2 39h157v104h-256l-9 -210l104 -35l12 8l12 3h1l18 -7l6 -23v-5l-6 -22l-12 -8h-4l-11 7l-5 27h-120zM179 0
l576 780h-134l-576 -780h134z" />
    <glyph glyph-name="uni2159" unicode="&#x2159;" horiz-adv-x="800" 
d="M648 143h4l11 -5l6 -17v-5l-6 -18l-11 -7h-4l-11 8l-6 31v2l8 8zM290 390v103h-71v288h-90l-124 -84l59 -85l35 23v-142h-72v-103h263zM778 403l-123 -16l-87 -58l-45 -85l-12 -92v-9l33 -109l105 -47l106 38l33 93v5l-28 91l-74 32l-24 -3l-21 -10l8 17l10 14l46 26
l73 9v104zM179 0l576 780h-134l-576 -780h134z" />
    <glyph glyph-name="uni215A" unicode="&#x215a;" horiz-adv-x="800" 
d="M648 143h4l11 -5l6 -17v-5l-6 -18l-11 -7h-4l-11 8l-6 31v2l8 8zM778 403l-123 -16l-87 -58l-45 -85l-12 -92v-9l33 -109l105 -47l106 38l33 93v5l-28 91l-74 32l-24 -3l-21 -10l8 17l10 14l46 26l73 9v104zM11 515v-8l38 -95l101 -35l101 33l37 97v12l-30 90l-90 35
l-24 -2l-22 -5l2 39h157v104h-256l-9 -210l104 -35l12 8l12 3h1l18 -7l6 -23v-5l-6 -22l-12 -8h-4l-11 7l-5 27h-120zM179 0l576 780h-134l-576 -780h134z" />
    <glyph glyph-name="uni215B" unicode="&#x215b;" horiz-adv-x="800" 
d="M651 251h-2l-10 6l-3 17v4l3 18l10 5h2l10 -5l3 -18v-4l-3 -17zM648 147h4l13 -7l4 -20v-4l-4 -19l-13 -8h-4l-13 8l-4 19v4l4 20zM290 390v103h-71v288h-90l-124 -84l59 -85l35 23v-142h-72v-103h263zM650 -13l101 32l37 83v11l-15 54l-34 32l32 32l13 53v10l-26 68
l-108 41l-107 -41l-27 -68v-10l14 -53l31 -32l-34 -32l-15 -54v-11l37 -83zM179 0l576 780h-134l-576 -780h134z" />
    <glyph glyph-name="uni215C" unicode="&#x215c;" horiz-adv-x="800" 
d="M651 251h-2l-10 6l-3 17v4l3 18l10 5h2l10 -5l3 -18v-4l-3 -17zM648 147h4l13 -7l4 -20v-4l-4 -19l-13 -8h-4l-13 8l-4 19v4l4 20zM131 515h-120v-8l38 -95l101 -35l101 32l37 83v10l-16 55l-36 32l34 31l14 54v10l-27 68l-108 41l-109 -44l-27 -90v-9h120l3 29l11 10h3
l11 -10l3 -15v-2l-3 -18l-12 -7h-49v-96h50l14 -7l5 -18v-5l-6 -22l-11 -8h-3l-12 7zM650 -13l101 32l37 83v11l-15 54l-34 32l32 32l13 53v10l-26 68l-108 41l-107 -41l-27 -68v-10l14 -53l31 -32l-34 -32l-15 -54v-11l37 -83zM179 0l576 780h-134l-576 -780h134z" />
    <glyph glyph-name="uni215D" unicode="&#x215d;" horiz-adv-x="800" 
d="M651 251h-2l-10 6l-3 17v4l3 18l10 5h2l10 -5l3 -18v-4l-3 -17zM648 147h4l13 -7l4 -20v-4l-4 -19l-13 -8h-4l-13 8l-4 19v4l4 20zM11 515v-8l38 -95l101 -35l101 33l37 97v12l-30 90l-90 35l-24 -2l-22 -5l2 39h157v104h-256l-9 -210l104 -35l12 8l12 3h1l18 -7l6 -23
v-5l-6 -22l-12 -8h-4l-11 7l-5 27h-120zM650 -13l101 32l37 83v11l-15 54l-34 32l32 32l13 53v10l-26 68l-108 41l-107 -41l-27 -68v-10l14 -53l31 -32l-34 -32l-15 -54v-11l37 -83zM179 0l576 780h-134l-576 -780h134z" />
    <glyph glyph-name="uni215E" unicode="&#x215e;" horiz-adv-x="800" 
d="M651 251h-2l-10 6l-3 17v4l3 18l10 5h2l10 -5l3 -18v-4l-3 -17zM648 147h4l13 -7l4 -20v-4l-4 -19l-13 -8h-4l-13 8l-4 19v4l4 20zM8 640h104v36h48l-124 -286h128l128 316v74h-284v-140zM650 -13l101 32l37 83v11l-15 54l-34 32l32 32l13 53v10l-26 68l-108 41l-107 -41
l-27 -68v-10l14 -53l31 -32l-34 -32l-15 -54v-11l37 -83zM179 0l576 780h-134l-576 -780h134z" />
    <glyph glyph-name="uni215F" unicode="&#x215f;" horiz-adv-x="500" 
d="M290 390v103h-71v288h-90l-124 -84l59 -85l35 23v-142h-72v-103h263zM179 0l576 780h-134l-576 -780h134z" />
    <glyph glyph-name="arrowleft" unicode="&#x2190;" horiz-adv-x="920" 
d="M447 780l-390 -390l390 -390h198l-320 320h525v140h-525l320 320h-198z" />
    <glyph glyph-name="arrowup" unicode="&#x2191;" horiz-adv-x="920" 
d="M70 205l320 320v-525h140v525l320 -320v198l-390 390l-390 -390v-198z" />
    <glyph glyph-name="arrowright" unicode="&#x2192;" horiz-adv-x="920" 
d="M275 780l320 -320h-525v-140h525l-320 -320h198l390 390l-390 390h-198z" />
    <glyph glyph-name="arrowdown" unicode="&#x2193;" horiz-adv-x="920" 
d="M70 377l390 -390l390 390v198l-320 -320v525h-140v-525l-320 320v-198z" />
    <glyph glyph-name="uni2196" unicode="&#x2196;" horiz-adv-x="920" 
d="M211 0v540l553 -554l100 100l-554 553h540v141h-780v-780h141z" />
    <glyph glyph-name="uni2197" unicode="&#x2197;" horiz-adv-x="920" 
d="M70 639h540l-554 -553l100 -100l553 554v-540h141v780h-780v-141z" />
    <glyph glyph-name="uni2198" unicode="&#x2198;" horiz-adv-x="920" 
d="M70 0h780v780h-141v-540l-553 554l-100 -100l554 -553h-540v-141z" />
    <glyph glyph-name="uni2199" unicode="&#x2199;" horiz-adv-x="920" 
d="M850 141h-540l554 553l-100 100l-553 -554v540h-141v-780h780v141z" />
    <glyph glyph-name="minus" unicode="&#x2212;" horiz-adv-x="600" 
d="M42 320h516v140h-516v-140z" />
    <glyph glyph-name="approxequal" unicode="&#x2248;" horiz-adv-x="600" 
d="M184 590l-93 -28l-63 -67l74 -74l35 31l53 17l101 -32l125 -33l93 28l63 67l-74 74l-35 -31l-53 -17l-101 33zM184 374l-93 -28l-63 -67l74 -74l35 31l53 17l101 -32l125 -33l93 28l63 67l-74 74l-35 -32l-53 -17l-101 33z" />
    <glyph glyph-name="notequal" unicode="&#x2260;" horiz-adv-x="600" 
d="M42 428h224l-43 -76h-181v-141h100l-59 -104h110l59 104h306v141h-225l43 76h182v141h-101l60 104h-110l-60 -104h-305v-141z" />
    <glyph glyph-name="equivalence" unicode="&#x2261;" horiz-adv-x="600" 
d="M42 320h516v140h-516v-140zM42 103h516v141h-516v-141zM42 536h516v141h-516v-141z" />
    <glyph glyph-name="lessequal" unicode="&#x2264;" horiz-adv-x="600" 
d="M558 174l-516 160v-90l516 -161v91zM558 541v156l-516 -161v-153l516 -161v156l-288 81z" />
    <glyph glyph-name="greaterequal" unicode="&#x2265;" horiz-adv-x="600" 
d="M42 83l516 161v90l-516 -160v-91zM42 378v-156l516 161v153l-516 161v-156l288 -82z" />
    <glyph glyph-name="squaremultiply" unicode="&#x22a0;" horiz-adv-x="920" 
d="M338 168l122 122l122 -122h100v100l-122 122l122 122v100h-100l-122 -122l-122 122h-100v-100l122 -122l-122 -122v-100h100zM711 641v-502h-502v502h502zM70 780v-780h780v780h-780z" />
    <glyph glyph-name="house" unicode="&#x2302;" horiz-adv-x="850" 
d="M780 0v450l-355 340l-355 -340v-450h710z" />
    <glyph glyph-name="whitesquare" unicode="&#x25a1;" horiz-adv-x="920" 
d="M711 641v-502h-502v502h502zM850 0v780h-780v-780h780z" />
    <glyph glyph-name="blacksmallsquare" unicode="&#x25aa;" horiz-adv-x="680" 
d="M600 0v530h-530v-530h530z" />
    <glyph glyph-name="whitesmallsquare" unicode="&#x25ab;" horiz-adv-x="680" 
d="M461 391v-252h-252v252h252zM70 530v-530h530v530h-530z" />
    <glyph glyph-name="triagup" unicode="&#x25b2;" horiz-adv-x="930" 
d="M542 793h-154l-326 -793h156l247 617l247 -617h156z" />
    <glyph glyph-name="triagrt" unicode="&#x25ba;" horiz-adv-x="930" 
d="M873 467l-793 326v-156l617 -247l-617 -247v-156l793 326v154z" />
    <glyph glyph-name="triagdn" unicode="&#x25bc;" horiz-adv-x="930" 
d="M388 -13h154l326 793h-156l-247 -618l-247 618h-156z" />
    <glyph glyph-name="triaglf" unicode="&#x25c4;" horiz-adv-x="930" 
d="M57 467v-154l793 -326v156l-618 247l618 247v156z" />
    <glyph glyph-name="blackcircle" unicode="&#x25cf;" horiz-adv-x="920" 
d="M57 390l118 -285l285 -118l285 118l118 285l-118 285l-285 118l-285 -118z" />
    <glyph glyph-name="uni25E2" unicode="&#x25e2;" horiz-adv-x="930" 
d="M906 54l-329 791l-111 -110l261 -611l-611 262l-109 -111l791 -330l54 54z" />
    <glyph glyph-name="uni25E3" unicode="&#x25e3;" horiz-adv-x="930" 
d="M78 -1l54 -54l791 330l-109 111l-612 -262l262 611l-111 110l-329 -791z" />
    <glyph glyph-name="uni25E4" unicode="&#x25e4;" horiz-adv-x="930" 
d="M24 728l329 -791l111 109l-262 611l612 -261l109 111l-791 329z" />
    <glyph glyph-name="uni25E5" unicode="&#x25e5;" horiz-adv-x="930" 
d="M906 728l-108 108l-791 -329l109 -111l611 261l-261 -611l111 -109z" />
    <glyph glyph-name="whitecircle" unicode="&#x25ef;" horiz-adv-x="920" 
d="M196 390l77 187l187 77l187 -77l77 -187l-77 -187l-187 -77l-187 77zM57 390l118 -285l285 -118l285 118l118 285l-118 285l-285 118l-285 -118z" />
    <glyph glyph-name="uni2605" unicode="&#x2605;" horiz-adv-x="880" 
d="M440 180l260 -190l-99 307l260 189h-322l-99 306l-99 -306h-322l260 -189l-99 -307z" />
    <glyph glyph-name="ballotboxwithx" unicode="&#x2612;" horiz-adv-x="680" 
d="M432 168v194h-194v-194h194zM461 391v-252h-252v252h252zM70 530v-530h530v530h-530z" />
    <glyph glyph-name="uni263C" unicode="&#x263c;" horiz-adv-x="960" 
d="M521 191l21 -32l17 -64l20 -50l49 -21l15 2l13 6l-24 9l-24 50l4 31l4 31l-12 47l-14 19l172 -113l-113 172l46 -10l49 -31l24 -16l27 -5l38 11l24 35l-10 -6l-25 -6l-43 22l-35 46l-42 25l-24 4l202 42l-202 42l32 21l64 17l51 20l20 49l-2 15l-6 13l-9 -24l-50 -24
l-31 4l-31 4l-47 -12l-19 -14l113 172l-172 -113l10 46l31 49l16 24l5 27l-11 38l-35 24l6 -10l6 -25l-22 -43l-46 -35l-25 -42l-4 -24l-42 202l-42 -202l-21 32l-17 64l-20 51l-49 20l-15 -2l-13 -6l24 -9l24 -50l-4 -31l-4 -31l12 -47l14 -19l-172 113l113 -172l-46 10
l-49 31l-24 16l-27 5l-38 -11l-24 -35l10 6l25 6l43 -22l35 -46l42 -25l24 -4l-202 -42l202 -42l-32 -21l-64 -17l-50 -20l-21 -49l2 -15l6 -13l9 24l50 24l31 -4l31 -4l47 12l19 14l-113 -172l172 113l-10 -46l-31 -49l-16 -24l-5 -27l11 -38l35 -24l-6 10l-6 25l22 43
l46 35l25 42l4 24l42 -202z" />
    <glyph glyph-name="uni263E" unicode="&#x263e;" horiz-adv-x="960" 
d="M624 728l49 -4l47 -11l-112 57l-128 20l-283 -117l-117 -283l117 -283l283 -117l128 20l112 57l-47 -11l-49 -4l-229 99l-95 239l95 239z" />
    <glyph glyph-name="spade" unicode="&#x2660;" horiz-adv-x="900" 
d="M451 790h-2l-89 -108l-144 -122l-115 -95l-49 -131l51 -124l125 -50l124 49l76 112l3 -1l-26 -173l-56 -147h202l-56 147l-26 173l3 1l76 -112l124 -49l125 50l51 124l-49 131l-115 95l-144 122z" />
    <glyph glyph-name="club" unicode="&#x2663;" horiz-adv-x="900" 
d="M349 0h202l-56 147l-26 173l3 1l76 -112l124 -49l125 50l51 124l-48 129l-126 51l-46 -7l-38 -16l-2 2l27 54l11 63l-50 127l-126 53l-126 -53l-50 -127l11 -63l27 -54l-2 -2l-38 16l-46 7l-126 -51l-48 -129l51 -124l125 -50l124 49l76 112l3 -1l-26 -173z" />
    <glyph glyph-name="heart" unicode="&#x2665;" horiz-adv-x="900" 
d="M451 -10l89 120l144 173l108 141l56 160l-51 147l-140 59l-138 -47l-67 -110h-4l-67 110l-138 47l-140 -59l-51 -147l56 -160l108 -141l144 -173l89 -120h2z" />
    <glyph glyph-name="diamond" unicode="&#x2666;" horiz-adv-x="900" 
d="M817 390l-203 189l-163 211h-2l-163 -211l-203 -189l203 -189l163 -211h2l163 211z" />
    <glyph glyph-name="uni267B" unicode="&#x267b;" horiz-adv-x="959" 
d="M806 527l-149 -86l116 -201l72 37l40 89l-3 25l-7 19zM446 41v173h-232l-5 -81l58 -79l24 -10l20 -3h135zM200 598l150 -86l116 201l-68 45l-97 -10l-21 -15l-13 -16zM404 779l34 -9l57 -48l72 -125l-41 -24l173 -31l61 166l-43 -24l-28 49l-41 40l-51 7h-193v-1z
M186 122l-9 35l13 73l37 64l35 61l41 -24l-59 166l-174 -31l42 -24l-28 -49l-14 -56l18 -47l96 -168h2zM863 266l-25 -26l-70 -26h-145v49l-113 -135l113 -136v49h57l56 16l32 40l96 167z" />
    <glyph glyph-name="uni267C" unicode="&#x267c;" horiz-adv-x="960" 
d="M64 390l116 -280l280 -116l280 116l116 280l-116 280l-280 116l-280 -116zM755 294l-75 -130l-24 -30l-44 -13h-44v-38l-88 105l88 105v-38h112l54 20l20 20zM763 407l6 -14l2 -20l-31 -69l-56 -29l-90 156l116 67zM228 184l-75 130l-14 36l11 44l22 38l-33 19l135 24
l46 -129l-32 19l-56 -97l-10 -57l7 -27h-1zM322 121l-15 2l-19 8l-44 61l3 63h180v-134h-105zM394 694h150l39 -5l32 -32l22 -38l33 19l-47 -129l-134 24l32 19l-56 97l-44 37l-27 7v1zM292 645l10 12l16 12l75 8l53 -35l-90 -156l-116 67z" />
    <glyph glyph-name="uni267D" unicode="&#x267d;" horiz-adv-x="960" 
d="M98 390l106 256l256 106l256 -106l106 -256l-106 -256l-256 -106l-256 106zM60 390l117 -283l283 -117l283 117l117 283l-117 283l-283 117l-283 -117zM754 295l-20 -20l-54 -20h-112v38l-88 -105l88 -105v38h44l44 13l24 30l75 130zM710 498l-116 -67l90 -156l56 29
l31 69l-2 20l-6 14zM229 184l-7 27l10 57l56 97l32 -19l-46 129l-135 -24l33 -19l-22 -38l-11 -44l14 -36l75 -130h1zM427 121v134h-180l-3 -63l44 -61l19 -8l15 -2h105zM394 693l27 -7l44 -37l56 -97l-32 -19l134 -24l47 129l-33 -19l-22 38l-32 32l-39 5h-150v-1zM240 553
l116 -67l90 156l-53 35l-75 -8l-16 -12l-10 -12z" />
    <glyph glyph-name="mediumwhitecircle" unicode="&#x26aa;" horiz-adv-x="670" 
d="M196 265l41 98l98 41l98 -41l41 -98l-41 -98l-98 -41l-98 41zM57 265l81 -197l197 -81l197 81l81 197l-81 197l-197 81l-197 -81z" />
    <glyph glyph-name="mediumblackcircle" unicode="&#x26ab;" horiz-adv-x="670" 
d="M57 265l81 -197l197 -81l197 81l81 197l-81 197l-197 81l-197 -81z" />
    <glyph glyph-name="anglebracketleft" unicode="&#x3008;" horiz-adv-x="365" 
d="M347 840h-163l-162 -480l162 -480h163l-162 480z" />
    <glyph glyph-name="anglebracketright" unicode="&#x3009;" horiz-adv-x="365" 
d="M18 -120h163l162 480l-162 480h-163l162 -480z" />
    <glyph glyph-name="fi" unicode="&#xe38c;" horiz-adv-x="677" 
d="M627 772h-166v-167h166v167zM465 0h158v530h-158v-530zM258 599l21 63l57 15l28 -2l20 -5v130l-28 8l-57 5l-144 -44l-55 -153v-86h-81v-138h81v-392h158v392h116v138h-116v69z" />
    <glyph glyph-name="fl" unicode="&#xe38d;" horiz-adv-x="677" 
d="M465 0h158v800h-158v-800zM258 599l21 63l57 15l28 -2l20 -5v130l-28 8l-57 5l-144 -44l-55 -153v-86h-81v-138h81v-392h158v392h116v138h-116v69z" />
    <glyph glyph-name="invertedbreve" unicode="&#xe411;" horiz-adv-x="499" 
d="M250 793l-147 -56l-40 -141h113l21 61l53 17l53 -17l21 -61h113l-40 141z" />
    <glyph glyph-name="doublegrave" unicode="&#xe412;" horiz-adv-x="500" 
d="M2 780l107 -184h123l-91 184h-139zM185 780l84 -184h123l-67 184h-140z" />
    <glyph glyph-name="caronSlovak" unicode="&#xe413;" horiz-adv-x="500" 
d="M306 800v-204h70l26 204h-96z" />
    <glyph glyph-name="dotbelow" unicode="&#xe415;" horiz-adv-x="602" 
d="M321 -51h-142v-142h142v142z" />
    <glyph glyph-name="altcedilla" unicode="&#xe416;" horiz-adv-x="602" 
d="M286 -118l-10 -17l-37 -6l-40 5l-32 12l-23 -66l42 -17l65 -8l90 23l30 65l-33 66l-80 21l-40 -3l-28 -7v-52l19 5l30 2l36 -6z" />
    <glyph glyph-name="grave.cap" unicode="&#xe421;" horiz-adv-x="500" 
d="M108 950l64 -110h156l-55 110h-165z" />
    <glyph glyph-name="acute.cap" unicode="&#xe422;" horiz-adv-x="500" 
d="M227 950l-55 -110h156l64 110h-165z" />
    <glyph glyph-name="circumflex.cap" unicode="&#xe423;" horiz-adv-x="500" 
d="M188 840l62 44l62 -44h142l-124 110h-160l-124 -110h142z" />
    <glyph glyph-name="tilde.cap" unicode="&#xe424;" horiz-adv-x="500" 
d="M350 947l-10 -26l-23 -7l-65 24l-84 24l-72 -26l-31 -93h85l10 26l23 7l65 -24l84 -24l72 27l31 92h-85z" />
    <glyph glyph-name="macron.cap" unicode="&#xe425;" horiz-adv-x="500" 
d="M101 847h298v96h-298v-96z" />
    <glyph glyph-name="breve.cap" unicode="&#xe426;" horiz-adv-x="500" 
d="M250 825l147 37l36 88h-109l-17 -30l-57 -10l-57 10l-17 30h-109l36 -88z" />
    <glyph glyph-name="invertedbreve.cap" unicode="&#xe427;" horiz-adv-x="500" 
d="M250 965l-147 -37l-36 -88h109l17 30l57 10l57 -10l17 -30h109l-36 88z" />
    <glyph glyph-name="dotaccent.cap" unicode="&#xe428;" horiz-adv-x="500" 
d="M317 945h-134v-100h134v100z" />
    <glyph glyph-name="dieresis.cap" unicode="&#xe429;" horiz-adv-x="500" 
d="M404 945h-133v-100h133v100zM229 945h-133v-100h133v100z" />
    <glyph glyph-name="ring.cap" unicode="&#xe42a;" horiz-adv-x="500" 
d="M199 858l15 36l36 14l36 -14l15 -36l-15 -36l-36 -15l-36 15zM145 858l31 -75l74 -31l74 31l31 75l-31 74l-74 31l-74 -31z" />
    <glyph glyph-name="hungarumlaut.cap" unicode="&#xe42b;" horiz-adv-x="500" 
d="M318 950l-54 -110h139l64 110h-149zM143 950l-46 -110h139l56 110h-149z" />
    <glyph glyph-name="doublegrave.cap" unicode="&#xe42c;" horiz-adv-x="500" 
d="M33 950l64 -110h139l-54 110h-149zM208 950l56 -110h139l-46 110h-149z" />
    <glyph glyph-name="caron.cap" unicode="&#xe42d;" horiz-adv-x="500" 
d="M46 950l124 -110h160l124 110h-142l-62 -45l-62 45h-142z" />
    <glyph glyph-name="commaaccent.cap" unicode="&#xe42e;" horiz-adv-x="500" 
d="M183 840h134v60h-73l28 24l47 6v38l-102 -26l-34 -77v-25z" />
    <glyph glyph-name="exclamdown.cap" unicode="&#xe441;" horiz-adv-x="265" 
d="M50 613h166v167h-166v-167zM231 0l-42 552h-112l-42 -552h196z" />
    <glyph glyph-name="questiondown.cap" unicode="&#xe444;" horiz-adv-x="497" 
d="M169 613h166v167h-166v-167zM244 126l-52 20l-15 55l71 138l60 213h-111l-95 -177l-84 -187l47 -138l179 -63l181 67l51 192v18h-159l-16 -106z" />
    <glyph glyph-name="guilsinglleft.cap" unicode="&#xe451;" horiz-adv-x="316" 
d="M266 613l-216 -147v-152l216 -147v139l-109 84l109 84v139z" />
    <glyph glyph-name="guilsinglright.cap" unicode="&#xe452;" horiz-adv-x="316" 
d="M50 474l109 -84l-109 -84v-139l216 147v152l-216 147v-139z" />
    <glyph glyph-name="guillemotleft.cap" unicode="&#xe453;" horiz-adv-x="565" 
d="M515 613l-216 -147v-152l216 -147v139l-109 84l109 84v139zM266 613l-216 -147v-152l216 -147v139l-109 84l109 84v139z" />
    <glyph glyph-name="guillemotright.cap" unicode="&#xe454;" horiz-adv-x="565" 
d="M50 474l109 -84l-109 -84v-139l216 147v152l-216 147v-139zM299 474l109 -84l-109 -84v-139l216 147v152l-216 147v-139z" />
    <glyph glyph-name="slash.cap" unicode="&#xe461;" horiz-adv-x="381" 
d="M172 0l192 780h-154l-192 -780h154z" />
    <glyph glyph-name="backslash.cap" unicode="&#xe462;" horiz-adv-x="381" 
d="M18 780l192 -780h154l-192 780h-154z" />
    <glyph glyph-name="bar.cap" unicode="&#xe463;" horiz-adv-x="261" 
d="M54 0h154v780h-154v-780z" />
    <glyph glyph-name="doublebar.cap" unicode="&#xe464;" horiz-adv-x="459" 
d="M251 0h154v780h-154v-780zM54 0h154v780h-154v-780z" />
    <glyph glyph-name="brokenbar.cap" unicode="&#xe465;" horiz-adv-x="261" 
d="M54 0h154v366h-154v-366zM54 414h154v366h-154v-366z" />
    <glyph glyph-name="bullet.cap" unicode="&#xe466;" horiz-adv-x="445" 
d="M383 551h-321v-322h321v322z" />
    <glyph glyph-name="onethirdemdash" unicode="&#xe471;" horiz-adv-x="333" 
d="M293 281v138h-253v-138h253z" />
    <glyph glyph-name="threequarteremdash" unicode="&#xe472;" horiz-adv-x="750" 
d="M40 281h670v138h-670v-138z" />
    <glyph glyph-name="periodcentered.cap" unicode="&#xe481;" horiz-adv-x="266" 
d="M216 474h-166v-167h166v167z" />
    <glyph glyph-name="hyphen.cap" unicode="&#xe482;" horiz-adv-x="320" 
d="M40 321h273v138h-273v-138z" />
    <glyph glyph-name="onethirdemdash.cap" unicode="&#xe483;" horiz-adv-x="333" 
d="M293 321v138h-251v-138h251z" />
    <glyph glyph-name="endash.cap" unicode="&#xe484;" horiz-adv-x="500" 
d="M40 321h420v138h-420v-138z" />
    <glyph glyph-name="threequarteremdash.cap" unicode="&#xe485;" horiz-adv-x="750" 
d="M40 321h670v138h-670v-138z" />
    <glyph glyph-name="emdash.cap" unicode="&#xe486;" horiz-adv-x="1000" 
d="M40 321h920v138h-920v-138z" />
    <glyph glyph-name="figuredash.cap" unicode="&#xe487;" horiz-adv-x="600" 
d="M40 321h520v138h-520v-138z" />
    <glyph glyph-name="uni2015.cap" unicode="&#xe488;" horiz-adv-x="1200" 
d="M40 321h1120v138h-1120v-138z" />
    <glyph glyph-name="parenleft.cap" unicode="&#xe491;" horiz-adv-x="365" 
d="M45 380l35 -225l84 -155h164l-84 162l-41 218v20l41 219l84 161h-164l-84 -155l-35 -225v-20z" />
    <glyph glyph-name="parenright.cap" unicode="&#xe492;" horiz-adv-x="365" 
d="M320 400l-35 225l-84 155h-164l84 -161l41 -219v-20l-41 -218l-84 -162h164l84 155l35 225v20z" />
    <glyph glyph-name="bracketleft.cap" unicode="&#xe493;" horiz-adv-x="365" 
d="M58 780v-780h274v138h-117v504h117v138h-274z" />
    <glyph glyph-name="bracketright.cap" unicode="&#xe494;" horiz-adv-x="365" 
d="M307 0v780h-274v-138h117v-504h-117v-138h274z" />
    <glyph glyph-name="braceleft.cap" unicode="&#xe495;" horiz-adv-x="365" 
d="M332 780h-27l-149 -39l-57 -139v-61l-18 -63l-57 -19v-138l57 -19l18 -63v-61l57 -139l149 -39h27v138l-57 20l-19 65v51l-15 71l-45 45l45 45l15 71v60l20 58l56 18v138z" />
    <glyph glyph-name="braceright.cap" unicode="&#xe496;" horiz-adv-x="365" 
d="M33 642l57 -20l19 -65v-51l15 -71l44 -45l-44 -45l-15 -71v-51l-19 -65l-57 -20v-138h27l150 39l56 139v61l18 63l57 19v138l-57 19l-18 63v61l-56 139l-150 39h-27v-138z" />
    <glyph glyph-name="anglebracketleft.cap" unicode="&#xe497;" horiz-adv-x="365" 
d="M326 780h-163l-136 -390l136 -390h163l-136 390z" />
    <glyph glyph-name="anglebracketright.cap" unicode="&#xe498;" horiz-adv-x="365" 
d="M176 390l-137 -390h163l137 390l-137 390h-163z" />
    <glyph glyph-name="lowline" unicode="&#xe511;" horiz-adv-x="320" 
d="M42 0h236v137h-236v-137z" />
    <glyph glyph-name="underscoremonospace" unicode="&#xe512;" horiz-adv-x="600" 
d="M42 -185h516v138h-516v-138z" />
    <glyph glyph-name="at.cap" unicode="&#xe513;" horiz-adv-x="991" 
d="M563 474v-158l-30 -31l-54 -16l-64 29l-20 80v34l20 80l64 29l54 -16zM513 -10l-274 94l-107 286v40l106 285l270 95h6l235 -59l108 -233v-30l-35 -158l-122 -48v231l9 137h-123l-11 -59l-54 52l-85 20l-139 -65l-46 -166v-34l46 -166l139 -65l85 20l54 52l11 -59h105
l195 64l78 244v30l-136 303l-317 92l-347 -124l-137 -359v-40l138 -358l351 -125l188 25l204 107l-59 80l-156 -81l-174 -28h-6z" />
    <glyph glyph-name="zero.inf" unicode="&#xe571;" 
d="M133 -94v178l4 11l11 4h4l11 -4l4 -11v-178l-4 -11l-11 -4h-4l-11 4zM287 -96v182l-37 84l-100 33l-100 -33l-37 -84v-182l37 -84l100 -33l100 33z" />
    <glyph glyph-name="one.inf" unicode="&#xe572;" 
d="M290 -200v103h-71v288h-90l-124 -84l59 -85l35 23v-142h-72v-103h263z" />
    <glyph glyph-name="two.inf" unicode="&#xe573;" 
d="M284 -97h-105l62 69l32 44l11 53v18l-27 74l-108 42l-109 -44l-27 -84v-15h120l3 29l11 10h3l11 -9l3 -18v-11l-3 -17l-10 -15l-138 -153v-76h271v103z" />
    <glyph glyph-name="three.inf" unicode="&#xe574;" 
d="M131 -75h-120v-8l38 -95l101 -35l101 32l37 83v10l-16 55l-36 32l34 31l14 54v10l-27 68l-108 41l-109 -44l-27 -90v-9h120l3 29l11 10h3l11 -10l3 -15v-2l-3 -18l-12 -7h-49v-96h50l14 -7l5 -18v-5l-6 -23l-11 -7h-3l-12 7z" />
    <glyph glyph-name="four.inf" unicode="&#xe575;" 
d="M137 29v-57h-31zM257 -200v68h32v104h-32v218h-121l-126 -230v-92h127v-68h120z" />
    <glyph glyph-name="five.inf" unicode="&#xe576;" 
d="M11 -75v-8l38 -95l101 -35l101 33l37 97v12l-30 90l-90 35l-24 -2l-22 -5l2 39h157v104h-256l-9 -210l104 -35l12 8l12 3h1l18 -7l6 -23v-5l-6 -23l-12 -7h-4l-11 7l-5 27h-120z" />
    <glyph glyph-name="six.inf" unicode="&#xe577;" 
d="M148 -57h4l11 -5l6 -17v-5l-6 -19l-11 -6h-4l-11 8l-6 31v2l8 8zM278 203l-123 -16l-87 -58l-45 -85l-12 -92v-9l33 -109l105 -47l106 38l33 93v5l-28 91l-74 32l-24 -3l-21 -10l8 17l10 14l46 26l73 9v104z" />
    <glyph glyph-name="seven.inf" unicode="&#xe578;" 
d="M8 50h104v36h48l-124 -286h128l128 316v74h-284v-140z" />
    <glyph glyph-name="eight.inf" unicode="&#xe579;" 
d="M151 51h-2l-10 6l-3 17v4l3 18l10 5h2l10 -5l3 -18v-4l-3 -17zM148 -53h4l13 -8l4 -19v-4l-4 -20l-13 -7h-4l-13 7l-4 20v4l4 19zM150 -213l101 32l37 83v11l-15 54l-34 33l32 31l13 53v10l-26 68l-108 41l-107 -41l-27 -68v-10l14 -53l31 -31l-34 -33l-15 -54v-11
l37 -83z" />
    <glyph glyph-name="nine.inf" unicode="&#xe57a;" 
d="M148 47l-11 5l-6 17v5l6 19l11 6h4l11 -8l6 -31v-2l-8 -8l-9 -3h-4zM22 -213l123 16l87 58l45 85l12 92v9l-33 109l-105 47l-106 -38l-33 -93v-5l28 -91l74 -32l24 3l21 10l-8 -17l-10 -14l-46 -26l-73 -9v-104z" />
    <glyph glyph-name="plus.inf" unicode="&#xe57b;" 
d="M98 127v-80h-80v-104h80v-80h104v80h80v104h-80v80h-104z" />
    <glyph glyph-name="minus.inf" unicode="&#xe57c;" 
d="M18 -57h264v104h-264v-104z" />
    <glyph glyph-name="equal.inf" unicode="&#xe57d;" 
d="M18 -118h264v104h-264v-104zM18 4h264v104h-264v-104z" />
    <glyph glyph-name="parenleft.inf" unicode="&#xe57e;" horiz-adv-x="205" 
d="M15 -10l18 -119l41 -71h123l-41 76l-22 114v10l22 114l41 76h-123l-41 -71l-18 -119v-10z" />
    <glyph glyph-name="parenright.inf" unicode="&#xe57f;" horiz-adv-x="205" 
d="M189 0l-18 119l-41 71h-122l40 -76l22 -114v-10l-22 -114l-40 -76h122l41 71l18 119v10z" />
    <glyph glyph-name="Anocross" unicode="&#xe731;" horiz-adv-x="641" 
d="M209 782l-195 -782h174l132 595l134 -595h173l-195 782h-223z" />
    <glyph glyph-name="blacksquare" unicode="&#xe740;" horiz-adv-x="920" 
d="M850 0v780h-780v-780h780z" />
    <glyph glyph-name="idotaccent" unicode="&#xe785;" horiz-adv-x="266" 
d="M216 772h-166v-167h166v167zM54 0h158v530h-158v-530z" />
    <glyph glyph-name="interrobangdown" unicode="&#xe935;" horiz-adv-x="497" 
d="M177 -5l12 53l28 45l-3 -160l-29 25zM164 363h166v167h-166v-167zM18 -21l48 -131l178 -61l180 66l51 190v17h-138l-9 -79l-29 -43l-8 364h-94l-94 -146z" />
    <glyph glyph-name="interrobangdown.cap" unicode="&#xe99b;" horiz-adv-x="497" 
d="M172 205l12 50l28 53l-4 -174l-28 28zM162 613h166v167h-166v-167zM21 188l47 -138l179 -63l181 67l51 192v18h-143l-10 -85l-32 -44l-8 417h-86l-95 -177z" />
    <glyph glyph-name="registered.cap" unicode="&#xe99c;" horiz-adv-x="920" 
d="M398 411v110h71l37 -10l17 -42v-6l-17 -42l-37 -10h-71zM398 307h70l48 -152h148l-69 172l50 47l19 86v12l-53 123l-111 30h-243v-470h141v152zM113 390l102 246l245 101l246 -101l101 -246l-101 -245l-246 -102l-245 102zM57 390l118 -285l285 -118l285 118l118 285
l-118 285l-285 118l-285 -118z" />
    <glyph glyph-name="period.T" unicode="&#xf182;" 
d="M233 167h-166v-167h166v167z" />
    <glyph glyph-name="comma.T" unicode="&#xf183;" 
d="M233 167h-166v-167h84l-30 -48l-59 -16v-79l128 45l43 133v132z" />
    <glyph glyph-name="colon.T" unicode="&#xf184;" 
d="M233 474h-166v-167h166v167zM233 167h-166v-167h166v167z" />
    <glyph glyph-name="semicolon.T" unicode="&#xf185;" 
d="M233 474h-166v-167h166v167zM233 167h-166v-167h84l-30 -48l-59 -16v-79l128 45l43 133v132z" />
    <glyph glyph-name="onesixteenth" unicode="&#xf215;" horiz-adv-x="1100" 
d="M948 143h4l11 -5l6 -17v-5l-6 -18l-11 -7h-4l-11 8l-6 31v2l8 8zM290 390v103h-71v288h-90l-124 -84l59 -85l35 23v-142h-72v-103h263zM790 0v103h-71v288h-90l-124 -84l59 -85l35 23v-142h-72v-103h263zM1078 403l-123 -16l-87 -58l-45 -85l-12 -92v-9l33 -109l105 -47
l106 38l33 93v5l-28 91l-74 32l-24 -3l-21 -10l8 17l10 14l46 26l73 9v104zM179 0l576 780h-134l-576 -780h134z" />
    <glyph glyph-name="threesixteenths" unicode="&#xf216;" horiz-adv-x="1100" 
d="M948 143h4l11 -5l6 -17v-5l-6 -18l-11 -7h-4l-11 8l-6 31v2l8 8zM790 0v103h-71v288h-90l-124 -84l59 -85l35 23v-142h-72v-103h263zM131 515h-120v-8l38 -95l101 -35l101 32l37 83v10l-16 55l-36 32l34 31l14 54v10l-27 68l-108 41l-109 -44l-27 -90v-9h120l3 29l11 10
h3l11 -10l3 -15v-2l-3 -18l-12 -7h-49v-96h50l14 -7l5 -18v-5l-6 -22l-11 -8h-3l-12 7zM1078 403l-123 -16l-87 -58l-45 -85l-12 -92v-9l33 -109l105 -47l106 38l33 93v5l-28 91l-74 32l-24 -3l-21 -10l8 17l10 14l46 26l73 9v104zM179 0l576 780h-134l-576 -780h134z" />
    <glyph glyph-name="fivesixteenths" unicode="&#xf217;" horiz-adv-x="1100" 
d="M948 143h4l11 -5l6 -17v-5l-6 -18l-11 -7h-4l-11 8l-6 31v2l8 8zM790 0v103h-71v288h-90l-124 -84l59 -85l35 23v-142h-72v-103h263zM1078 403l-123 -16l-87 -58l-45 -85l-12 -92v-9l33 -109l105 -47l106 38l33 93v5l-28 91l-74 32l-24 -3l-21 -10l8 17l10 14l46 26l73 9
v104zM11 515v-8l38 -95l101 -35l101 33l37 97v12l-30 90l-90 35l-24 -2l-22 -5l2 39h157v104h-256l-9 -210l104 -35l12 8l12 3h1l18 -7l6 -23v-5l-6 -22l-12 -8h-4l-11 7l-5 27h-120zM179 0l576 780h-134l-576 -780h134z" />
    <glyph glyph-name="sevensixteenths" unicode="&#xf218;" horiz-adv-x="1100" 
d="M948 143h4l11 -5l6 -17v-5l-6 -18l-11 -7h-4l-11 8l-6 31v2l8 8zM8 640h104v36h48l-124 -286h128l128 316v74h-284v-140zM790 0v103h-71v288h-90l-124 -84l59 -85l35 23v-142h-72v-103h263zM1078 403l-123 -16l-87 -58l-45 -85l-12 -92v-9l33 -109l105 -47l106 38l33 93
v5l-28 91l-74 32l-24 -3l-21 -10l8 17l10 14l46 26l73 9v104zM179 0l576 780h-134l-576 -780h134z" />
    <glyph glyph-name="ninesixteenths" unicode="&#xf219;" horiz-adv-x="1100" 
d="M948 143h4l11 -5l6 -17v-5l-6 -18l-11 -7h-4l-11 8l-6 31v2l8 8zM790 0v103h-71v288h-90l-124 -84l59 -85l35 23v-142h-72v-103h263zM22 377l123 16l87 58l45 86l12 91v9l-33 109l-105 47l-106 -38l-33 -93v-5l28 -91l74 -32l24 4l20 9l-7 -18l-10 -13l-46 -26l-73 -9
v-104zM1078 403l-123 -16l-87 -58l-45 -85l-12 -92v-9l33 -109l105 -47l106 38l33 93v5l-28 91l-74 32l-24 -3l-21 -10l8 17l10 14l46 26l73 9v104zM179 0l576 780h-134l-576 -780h134z" />
    <glyph glyph-name="elevensixteenths" unicode="&#xf220;" horiz-adv-x="1400" 
d="M1248 143h4l11 -5l6 -17v-5l-6 -18l-11 -7h-4l-11 8l-6 31v2l8 8zM1090 0v103h-71v288h-90l-124 -84l59 -85l35 23v-142h-72v-103h263zM590 390v103h-71v288h-90l-124 -84l59 -85l35 23v-142h-72v-103h263zM290 390v103h-71v288h-90l-124 -84l59 -85l35 23v-142h-72v-103
h263zM1378 403l-123 -16l-87 -58l-45 -85l-12 -92v-9l33 -109l105 -47l106 38l33 93v5l-28 91l-74 32l-24 -3l-21 -10l8 17l10 14l46 26l73 9v104zM479 0l576 780h-134l-576 -780h134z" />
    <glyph glyph-name="thirteensixteenths" unicode="&#xf221;" horiz-adv-x="1400" 
d="M1248 143h4l11 -5l6 -17v-5l-6 -18l-11 -7h-4l-11 8l-6 31v2l8 8zM1090 0v103h-71v288h-90l-124 -84l59 -85l35 23v-142h-72v-103h263zM290 390v103h-71v288h-90l-124 -84l59 -85l35 23v-142h-72v-103h263zM431 515h-120v-8l38 -95l101 -35l101 32l37 83v10l-16 55
l-36 32l34 31l14 54v10l-27 68l-108 41l-109 -44l-27 -90v-9h120l3 29l11 10h3l11 -10l3 -15v-2l-3 -18l-12 -7h-49v-96h50l14 -7l5 -18v-5l-6 -22l-11 -8h-3l-12 7zM1378 403l-123 -16l-87 -58l-45 -85l-12 -92v-9l33 -109l105 -47l106 38l33 93v5l-28 91l-74 32l-24 -3
l-21 -10l8 17l10 14l46 26l73 9v104zM479 0l576 780h-134l-576 -780h134z" />
    <glyph glyph-name="fifteensixteenths" unicode="&#xf222;" horiz-adv-x="1400" 
d="M1248 143h4l11 -5l6 -17v-5l-6 -18l-11 -7h-4l-11 8l-6 31v2l8 8zM1090 0v103h-71v288h-90l-124 -84l59 -85l35 23v-142h-72v-103h263zM290 390v103h-71v288h-90l-124 -84l59 -85l35 23v-142h-72v-103h263zM1378 403l-123 -16l-87 -58l-45 -85l-12 -92v-9l33 -109
l105 -47l106 38l33 93v5l-28 91l-74 32l-24 -3l-21 -10l8 17l10 14l46 26l73 9v104zM311 515v-8l38 -95l101 -35l101 33l37 97v12l-30 90l-90 35l-24 -2l-22 -5l2 39h157v104h-256l-9 -210l104 -35l12 8l12 3h1l18 -7l6 -23v-5l-6 -22l-12 -8h-4l-11 7l-5 27h-120zM479 0
l576 780h-134l-576 -780h134z" />
    <glyph glyph-name="commaaccent" unicode="&#xf6c3;" horiz-adv-x="602" 
d="M321 -44h-142v-92h79l-31 -28l-53 -8v-54l111 29l36 96v57z" />
    </font>
</defs>
</svg>
