<?xml version="1.0" standalone="no"?>
<!DOCTYPE svg PUBLIC "-//W3C//DTD SVG 1.1//EN" "http://www.w3.org/Graphics/SVG/1.1/DTD/svg11.dtd" >
<svg>
<metadata>
Created by FontForge 20120731 at Sun Aug 14 12:50:31 2016
 By www-data
Copyright (c) 2014, Cooper Hewitt Smithsonian Design Museum (cooperhewitt.org)
</metadata>
<defs>
<font id="CooperHewittInterpol1-Medium" horiz-adv-x="300" >
  <font-face 
    font-family="Cooper Hewitt Interpol 1"
    font-weight="707"
    font-stretch="normal"
    units-per-em="1000"
    panose-1="0 0 0 0 0 0 0 0 0 0"
    ascent="750"
    descent="-250"
    x-height="530"
    cap-height="780"
    bbox="-240 -219 1381 964"
    underline-thickness="50"
    underline-position="-75"
    unicode-range="U+0020-F6C3"
  />
<missing-glyph horiz-adv-x="966" 
d="M528 390l275 275v-550zM438 390l-275 -275v550zM204 714h558l-279 -279zM483 345l279 -279h-558zM93 0h780v780h-780v-780z" />
    <glyph glyph-name=".notdef" horiz-adv-x="966" 
d="M528 390l275 275v-550zM438 390l-275 -275v550zM204 714h558l-279 -279zM483 345l279 -279h-558zM93 0h780v780h-780v-780z" />
    <glyph glyph-name="space" unicode=" " horiz-adv-x="200" 
 />
    <glyph glyph-name="exclam" unicode="!" horiz-adv-x="234" 
d="M174 114h-114v-114h114v114zM55 780l27 -577h70l27 577h-124z" />
    <glyph glyph-name="quotedbl" unicode="&#x22;" horiz-adv-x="377" 
d="M212 780l10 -288h75l19 288h-104zM61 780l18 -288h76l9 288h-103z" />
    <glyph glyph-name="numbersign" unicode="#" horiz-adv-x="600" 
d="M254 469h125l-33 -158h-125zM83 469h80l-33 -158h-100v-91h81l-46 -220h91l46 220h125l-46 -220h91l46 220h99v91h-80l33 158h100v91h-81l46 220h-91l-46 -220h-125l46 220h-91l-46 -220h-99v-91z" />
    <glyph glyph-name="dollar" unicode="$" horiz-adv-x="600" 
d="M167 541v5l38 71l92 25h4h8l8 -1l-47 -198l-80 36zM308 138h-4h-12l-12 1l50 210l84 -35l26 -67v-5l-37 -77zM448 840h-83l-27 -113l-19 1l-19 1l-172 -50l-65 -139v-8l44 -112l143 -59l-46 -193l-34 45l-12 63h-102v-6l32 -121l94 -76l-32 -133h83l27 114l23 -1l23 -1
l177 52l62 143v8l-49 120l-146 56l44 183l32 -48l10 -71h102v15l-30 126l-91 74z" />
    <glyph glyph-name="percent" unicode="%" horiz-adv-x="943" 
d="M355 0l301 725v57l-79 -20l-116 -12l-90 5l-82 21l-38 12l-41 4l-125 -45l-51 -133v-11l51 -132l125 -45l125 45l50 132v11l-2 30l-5 27l33 -4l35 -1l66 6l33 6l-282 -678h92zM637 163v16l27 70l66 25h6l66 -25l27 -70v-16l-27 -70l-66 -25h-6l-66 25zM306 617v-16
l-27 -70l-66 -25h-6l-66 25l-27 70v16l27 70l66 25h6l66 -25zM558 177v-11l50 -133l125 -45l125 45l50 133v11l-50 132l-125 45l-125 -45z" />
    <glyph glyph-name="ampersand" unicode="&#x26;" horiz-adv-x="671" 
d="M171 621l23 58l66 25h7l67 -25l23 -58v-8l-37 -77l-86 -61l-45 65l-18 73v8zM272 79l-102 37l-33 97v8l22 76l56 58l203 -226l-66 -37l-75 -13h-5zM260 -12l121 18l99 54l54 -60h126l-115 129l56 118l19 146v2h-106v-4l-10 -103l-28 -82l-181 202l113 83l52 122v11
l-48 119l-148 49l-148 -49l-49 -119v-11l23 -101l65 -89l-85 -84l-36 -123v-10l60 -160z" />
    <glyph glyph-name="quotesingle" unicode="'" horiz-adv-x="234" 
d="M61 780l18 -288h76l18 288h-112z" />
    <glyph glyph-name="parenleft" unicode="(" horiz-adv-x="334" 
d="M46 350l45 -277l107 -193h107l-111 204l-46 266v20l46 266l111 204h-107l-107 -193l-45 -277v-20z" />
    <glyph glyph-name="parenright" unicode=")" horiz-adv-x="334" 
d="M288 370l-45 277l-107 193h-107l112 -204l45 -266v-20l-45 -266l-112 -204h107l107 193l45 277v20z" />
    <glyph glyph-name="asterisk" unicode="*" horiz-adv-x="397" 
d="M336 477l-87 111l-45 -32l79 -118zM368 701l-133 -49l17 -53l137 39zM114 438l79 118l-45 32l-87 -111zM8 638l137 -39l17 53l-133 49zM166 800l5 -141h55l5 141h-65z" />
    <glyph glyph-name="plus" unicode="+" horiz-adv-x="600" 
d="M254 644v-208h-208v-92h208v-208h92v208h208v92h-208v208h-92z" />
    <glyph glyph-name="comma" unicode="," horiz-adv-x="234" 
d="M174 114h-114v-114h58l-23 -55l-53 -16v-56l99 38l33 113v90z" />
    <glyph glyph-name="hyphen" unicode="-" horiz-adv-x="337" 
d="M40 305h257v90h-257v-90z" />
    <glyph glyph-name="period" unicode="." horiz-adv-x="234" 
d="M174 114h-114v-114h114v114z" />
    <glyph glyph-name="slash" unicode="/" horiz-adv-x="360" 
d="M345 840h-100l-230 -960h100z" />
    <glyph glyph-name="zero" unicode="0" horiz-adv-x="600" 
d="M441 551v-322l-31 -109l-107 -41h-6l-107 41l-31 109v322l31 109l107 41h6l107 -41zM544 223v334l-58 168l-186 67l-186 -67l-58 -168v-334l58 -168l186 -67l186 67z" />
    <glyph glyph-name="one" unicode="1" horiz-adv-x="600" 
d="M553 0v92h-192v691h-71l-244 -166l51 -76l162 110v-559h-192v-92h486z" />
    <glyph glyph-name="two" unicode="2" horiz-adv-x="600" 
d="M275 92l-72 -1l256 275l69 95l20 106v14l-61 149l-187 62l-188 -64l-60 -186v-22h102l36 139l106 42h8l102 -36l39 -102v-10l-15 -69l-54 -71l-324 -349v-64h496v92h-273z" />
    <glyph glyph-name="three" unicode="3" horiz-adv-x="600" 
d="M149 250h-102v-12l62 -183l191 -67l187 64l66 151v17l-32 113l-81 65l77 63l31 107v17l-61 145l-187 62l-188 -64l-60 -186v-22h102l36 139l105 42h10l102 -35l38 -93v-8l-39 -92l-98 -30h-108v-90h112l99 -32l39 -97v-13l-44 -100l-101 -32h-10l-106 40z" />
    <glyph glyph-name="four" unicode="4" horiz-adv-x="600" 
d="M355 614l-2 -87v-241h-135l-74 -2zM455 0v194h114v92h-114v494h-97l-327 -516v-70h322v-194h102z" />
    <glyph glyph-name="five" unicode="5" horiz-adv-x="600" 
d="M47 250v-12l62 -183l191 -67l184 65l69 183v15l-69 182l-180 65l-85 -12l-71 -33l11 235h384v92h-472l-18 -434l86 -29l64 68l90 23h8l105 -37l44 -120v-15l-44 -120l-101 -37h-10l-106 40l-40 131h-102z" />
    <glyph glyph-name="six" unicode="6" horiz-adv-x="600" 
d="M305 399h5l104 -37l39 -113v-17l-40 -113l-107 -39h-6l-105 47l-44 133v45l63 69zM519 792l-199 -35l-161 -121l-86 -174l-24 -184v-11l70 -205l184 -74l185 64l68 183v10l-64 183l-165 63l-89 -17l-68 -44l28 77l42 70l125 94l154 28v93z" />
    <glyph glyph-name="seven" unicode="7" horiz-adv-x="600" 
d="M50 500h92v188h192l106 2l-285 -690h109l292 717v63h-506v-280z" />
    <glyph glyph-name="eight" unicode="8" horiz-adv-x="600" 
d="M305 701l102 -34l38 -92v-9l-39 -93l-98 -30h-16l-98 30l-39 93v9l39 92l101 34h10zM288 353h24l99 -33l39 -98v-13l-44 -99l-101 -31h-10l-101 31l-44 99v13l39 98zM300 -12l187 63l66 150v17l-33 114l-81 66l78 63l31 109v17l-61 144l-187 61l-187 -61l-61 -144v-17
l31 -109l78 -63l-82 -66l-32 -114v-17l66 -150z" />
    <glyph glyph-name="nine" unicode="9" horiz-adv-x="600" 
d="M295 381h-5l-104 38l-39 112v17l41 113l106 39h6l105 -47l44 -133v-10v-18l-1 -18l-63 -68zM81 -12l199 35l161 121l86 174l24 184v11l-70 205l-184 74l-185 -63l-68 -184v-10l64 -183l165 -63l89 17l68 43l-27 -77l-43 -69l-124 -94l-155 -28v-93z" />
    <glyph glyph-name="colon" unicode=":" horiz-adv-x="234" 
d="M174 447h-114v-114h114v114zM174 114h-114v-114h114v114z" />
    <glyph glyph-name="semicolon" unicode=";" horiz-adv-x="234" 
d="M174 447h-114v-114h114v114zM174 114h-114v-114h58l-23 -55l-53 -16v-56l99 38l33 113v90z" />
    <glyph glyph-name="less" unicode="&#x3c;" horiz-adv-x="600" 
d="M46 440v-100l508 -225v102l-404 173l404 173v102z" />
    <glyph glyph-name="equal" unicode="=" horiz-adv-x="600" 
d="M46 239h508v93h-508v-93zM46 448h508v93h-508v-93z" />
    <glyph glyph-name="greater" unicode="&#x3e;" horiz-adv-x="600" 
d="M554 440l-508 225v-102l404 -173l-404 -173v-102l508 225v100z" />
    <glyph glyph-name="question" unicode="?" horiz-adv-x="470" 
d="M290 114h-114v-114h114v114zM239 701l81 -33l22 -88l-76 -161l-68 -216h69l93 190l85 193l-46 147l-160 59l-169 -75l-45 -195v-13h102l23 142z" />
    <glyph glyph-name="at" unicode="@" horiz-adv-x="971" 
d="M585 391v-192l-42 -45l-73 -24l-92 43l-29 109v26l29 109l92 43l73 -24zM506 -140l-289 104l-112 306v40l111 304l285 106h6l247 -73l110 -255v-30l-49 -184l-139 -47v256l8 143h-79l-11 -69l-57 57l-92 24l-146 -69l-46 -165v-26l46 -165l146 -69l92 23l57 57l11 -68h66
l193 61l77 241v30l-130 304l-307 96l-341 -126l-132 -356v-40l134 -356l344 -126l184 24l190 98l-42 56l-157 -80l-172 -26h-6z" />
    <glyph glyph-name="A" unicode="A" horiz-adv-x="621" 
d="M311 669l102 -389h-204zM238 786l-215 -786h113l49 188h252l49 -188h112l-215 786h-145z" />
    <glyph glyph-name="B" unicode="B" horiz-adv-x="602" 
d="M288 688l94 -25l40 -89v-14l-40 -89l-94 -25h-117v242h117zM305 354l96 -28l41 -97v-12l-41 -97l-96 -28h-134v262h134zM67 780v-780h233l172 45l76 168v20l-34 110l-86 59l72 57l28 98v20l-73 160l-169 43h-219z" />
    <glyph glyph-name="C" unicode="C" horiz-adv-x="630" 
d="M157 370v40l39 219l129 71h7l113 -51l33 -158h105v31l-64 204l-194 66l-208 -90l-67 -292v-40l67 -292l208 -90l194 65l64 196v10h-105l-34 -132l-112 -47h-7l-130 71z" />
    <glyph glyph-name="D" unicode="D" horiz-adv-x="647" 
d="M171 92v596h108l160 -65l51 -213v-40l-51 -213l-160 -65h-108zM597 370v40l-79 286l-232 84h-219v-780h219l232 84z" />
    <glyph glyph-name="E" unicode="E" horiz-adv-x="557" 
d="M67 780v-780h450v92h-346v260h296v92h-296v244h346v92h-450z" />
    <glyph glyph-name="F" unicode="F" horiz-adv-x="526" 
d="M67 780v-780h104v352h285v92h-285v244h335v92h-439z" />
    <glyph glyph-name="G" unicode="G" horiz-adv-x="655" 
d="M343 -12l155 28l95 63v319h-227v-92h123v-177l-56 -34l-85 -15h-8l-142 71l-42 219v40l42 219l134 71h8l115 -51l33 -158h105v31l-65 204l-195 66l-212 -90l-71 -292v-40l73 -292z" />
    <glyph glyph-name="H" unicode="H" horiz-adv-x="647" 
d="M476 780v-336h-305v336h-104v-780h104v352h305v-352h104v780h-104z" />
    <glyph glyph-name="I" unicode="I" horiz-adv-x="248" 
d="M176 780h-104v-780h104v780z" />
    <glyph glyph-name="J" unicode="J" horiz-adv-x="510" 
d="M344 780v-526l-25 -131l-85 -43l-84 43l-25 136h-98v-19l46 -186l164 -66l163 67l48 184v541h-104z" />
    <glyph glyph-name="K" unicode="K" horiz-adv-x="585" 
d="M171 780h-104v-780h104v234l92 131l176 -365h116l-227 457l227 323h-126l-258 -385v385z" />
    <glyph glyph-name="L" unicode="L" horiz-adv-x="501" 
d="M486 0v92h-315v688h-104v-780h419z" />
    <glyph glyph-name="M" unicode="M" horiz-adv-x="827" 
d="M660 599l-4 -167v-432h104v780h-151l-196 -600l-195 600h-151v-780h104v432l-4 167l196 -599h101z" />
    <glyph glyph-name="N" unicode="N" horiz-adv-x="667" 
d="M600 780h-99v-423l4 -173l-327 596h-111v-780h99v423l-4 173l327 -596h111v780z" />
    <glyph glyph-name="O" unicode="O" horiz-adv-x="657" 
d="M325 80l-129 71l-39 219v40l39 219l129 71h7l129 -71l39 -219v-40l-39 -219l-129 -71h-7zM329 -12l209 90l69 292v40l-69 292l-209 90l-210 -90l-69 -292v-40l69 -292z" />
    <glyph glyph-name="P" unicode="P" horiz-adv-x="586" 
d="M171 395v293h130l93 -26l48 -114v-13l-48 -114l-93 -26h-130zM171 304h127l169 43l81 185v20l-81 185l-169 43h-231v-780h104v304z" />
    <glyph glyph-name="Q" unicode="Q" horiz-adv-x="657" 
d="M366 239h-83l60 -159h-18l-129 71l-39 219v40l39 219l129 71h7l129 -71l39 -219v-40l-19 -172l-62 -95zM329 -12l24 1l23 2l35 -91h87l-43 111l114 121l38 238v40l-69 292l-209 90l-210 -90l-69 -292v-40l69 -292z" />
    <glyph glyph-name="R" unicode="R" horiz-adv-x="598" 
d="M171 395v293h130l93 -26l48 -114v-13l-48 -114l-93 -26h-130zM171 304h146l118 -304h113l-130 322l92 68l38 142v20l-81 185l-169 43h-231v-780h104v304z" />
    <glyph glyph-name="S" unicode="S" horiz-adv-x="611" 
d="M289 354l135 -45l39 -92v-8l-41 -94l-112 -35h-8l-114 43l-43 136h-104v-10l68 -195l197 -66l194 60l70 166v11l-59 147l-187 69l-133 46l-35 88v8l40 85l104 32h7l116 -45l35 -144h104v24l-61 192l-195 65l-188 -59l-69 -158v-11l56 -140z" />
    <glyph glyph-name="T" unicode="T" horiz-adv-x="530" 
d="M317 688h192v92h-488v-92h192v-688h104v688z" />
    <glyph glyph-name="U" unicode="U" horiz-adv-x="647" 
d="M324 -12l199 60l62 195v537h-104v-532l-38 -130l-119 -38l-120 38l-38 130v532h-104v-537l62 -195z" />
    <glyph glyph-name="V" unicode="V" horiz-adv-x="621" 
d="M383 -6l215 786h-112l-175 -669l-176 669h-112l215 -786h145z" />
    <glyph glyph-name="W" unicode="W" horiz-adv-x="910" 
d="M600 -6h137l140 786h-109l-105 -650l-141 650h-134l-141 -650l-105 650h-109l140 -786h137l145 670z" />
    <glyph glyph-name="X" unicode="X" horiz-adv-x="626" 
d="M26 0h118l169 329l169 -329h117l-213 401l213 379h-121l-165 -304l-165 304h-122l213 -378z" />
    <glyph glyph-name="Y" unicode="Y" horiz-adv-x="594" 
d="M349 237l229 543h-113l-168 -414l-168 414h-113l229 -543v-237h104v237z" />
    <glyph glyph-name="Z" unicode="Z" horiz-adv-x="575" 
d="M40 72v-72h495v92h-236l-132 -3l358 619v72h-475v-92h216l132 3z" />
    <glyph glyph-name="bracketleft" unicode="[" horiz-adv-x="334" 
d="M64 840v-960h232v91h-131v778h131v91h-232z" />
    <glyph glyph-name="backslash" unicode="\" horiz-adv-x="359" 
d="M245 -120h100l-230 960h-100z" />
    <glyph glyph-name="bracketright" unicode="]" horiz-adv-x="334" 
d="M271 -120v960h-232v-91h130v-778h-130v-91h232z" />
    <glyph glyph-name="asciicircum" unicode="^" horiz-adv-x="600" 
d="M350 780h-100l-225 -509h102l173 405l173 -405h102z" />
    <glyph glyph-name="underscore" unicode="_" horiz-adv-x="320" 
d="M46 -153h228v90h-228v-90z" />
    <glyph glyph-name="grave" unicode="`" horiz-adv-x="500" 
d="M100 780l99 -173h102l-91 173h-110z" />
    <glyph glyph-name="a" unicode="a" horiz-adv-x="525" 
d="M228 72l-68 24l-21 54v8l24 60l71 30l132 22v-129l-46 -45zM386 0h87l-7 150v193l-43 145l-160 54l-163 -57l-40 -121v-9h95l21 75l84 32l83 -30l23 -89v-8l-147 -23l-125 -44l-54 -120v-10l39 -107l117 -43l109 23l71 57z" />
    <glyph glyph-name="b" unicode="b" horiz-adv-x="550" 
d="M161 383l43 46l77 25l96 -47l30 -128v-28l-30 -128l-96 -47l-77 25l-43 46v236zM161 800h-100v-650l-7 -150h87l10 69l59 -58l97 -23l155 76l46 187v28l-46 187l-155 76l-89 -19l-57 -49v326z" />
    <glyph glyph-name="c" unicode="c" horiz-adv-x="523" 
d="M143 251v28l31 127l98 48l87 -34l27 -88h96v21l-50 131l-162 58l-174 -76l-54 -187v-28l54 -187l174 -76l162 56l50 126v18h-96l-26 -78l-88 -34l-98 48z" />
    <glyph glyph-name="d" unicode="d" horiz-adv-x="554" 
d="M392 147l-42 -46l-77 -25l-96 47l-30 128v28l30 128l96 47l77 -25l42 -46v-236zM247 542l-155 -76l-46 -187v-28l46 -187l155 -76l96 23l59 58l11 -69h87l-7 150v650h-101v-325l-58 48z" />
    <glyph glyph-name="e" unicode="e" horiz-adv-x="548" 
d="M274 462l96 -42l35 -117h-262l34 117zM506 227v50l-55 188l-175 77l-177 -77l-57 -188v-24l57 -188l182 -77l169 56l56 122v4h-96l-31 -69l-97 -33l-102 41l-37 118h363z" />
    <glyph glyph-name="f" unicode="f" horiz-adv-x="391" 
d="M210 629l24 76l69 19l32 -3l23 -5v84l-25 8l-53 4l-122 -39l-48 -133v-110h-83v-89h83v-441h100v441h138v89h-138v99z" />
    <glyph glyph-name="g" unicode="g" horiz-adv-x="550" 
d="M389 383v-200l-43 -47l-77 -24l-94 42l-32 117v24l32 115l94 44l77 -25zM389 3l-28 -99l-94 -32l-92 33l-27 95h-96v-16l48 -139l168 -57l169 58l52 154v380l7 150h-87l-10 -68l-59 57l-97 23l-154 -72l-47 -175v-24l47 -176l154 -71l88 19l58 47v-87z" />
    <glyph glyph-name="h" unicode="h" horiz-adv-x="545" 
d="M162 800h-100v-800h100v383l44 46l84 25l74 -27l26 -76v-351h99v367l-39 124l-123 51l-100 -20l-65 -51v329z" />
    <glyph glyph-name="i" unicode="i" horiz-adv-x="234" 
d="M174 754h-114v-114h114v114zM67 0h100v530h-100v-530z" />
    <glyph glyph-name="j" unicode="j" horiz-adv-x="234" 
d="M174 754h-114v-114h114v114zM67 -29l-24 -76l-70 -19l-32 3l-22 5v-84l25 -8l53 -4l122 39l48 133v570h-100v-559z" />
    <glyph glyph-name="k" unicode="k" horiz-adv-x="522" 
d="M60 0h100v153l89 100l133 -253h116l-180 330l180 200h-122l-216 -247v517h-100v-800z" />
    <glyph glyph-name="l" unicode="l" horiz-adv-x="234" 
d="M67 0h100v800h-100v-800z" />
    <glyph glyph-name="m" unicode="m" horiz-adv-x="825" 
d="M768 0v377l-38 120l-113 45l-103 -25l-63 -61l-50 63l-87 23l-100 -24l-62 -57l-11 69h-86l7 -150v-380h100v385l40 46l75 23l64 -20l24 -72v-362h100v385l41 46l74 23l65 -20l24 -72v-362h99z" />
    <glyph glyph-name="n" unicode="n" horiz-adv-x="545" 
d="M489 0v367l-39 124l-123 51l-108 -24l-67 -61l-11 73h-86l7 -150v-380h100v383l44 46l84 25l74 -27l26 -76v-351h99z" />
    <glyph glyph-name="o" unicode="o" horiz-adv-x="548" 
d="M274 76l-99 48l-32 127v28l32 127l99 48l99 -48l32 -127v-28l-32 -127zM274 -12l176 76l56 187v28l-56 187l-176 76l-176 -76l-56 -187v-28l56 -187z" />
    <glyph glyph-name="p" unicode="p" horiz-adv-x="550" 
d="M161 383l43 46l77 25l96 -47l30 -128v-28l-30 -128l-96 -47l-77 25l-43 46v236zM307 -12l155 76l46 187v28l-46 187l-155 76l-97 -24l-59 -58l-10 70h-87l7 -150v-580h100v256l57 -49z" />
    <glyph glyph-name="q" unicode="q" horiz-adv-x="553" 
d="M390 147l-43 -46l-77 -25l-95 47l-30 128v28l30 128l95 47l77 -25l43 -46v-236zM390 -200h100v580l7 150h-87l-11 -69l-59 57l-95 24l-155 -76l-46 -187v-28l46 -187l155 -76l87 19l58 47v-254z" />
    <glyph glyph-name="r" unicode="r" horiz-adv-x="350" 
d="M297 542l-87 -23l-59 -57l-10 68h-86l7 -150v-380h100v377l45 45l87 23h18v96l-6 1h-9z" />
    <glyph glyph-name="s" unicode="s" horiz-adv-x="524" 
d="M262 68l-89 29l-24 67h-99v-4l49 -119l163 -53l159 45l54 119v6l-51 108l-150 39l-95 25l-23 55l28 57l78 20l84 -28l24 -76h99v4l-48 130l-159 50l-150 -41l-56 -118v-7l43 -99l151 -45l95 -22l28 -60l-28 -59z" />
    <glyph glyph-name="t" unicode="t" horiz-adv-x="411" 
d="M210 530v150h-100v-150h-83v-89h83v-281l48 -133l122 -39l53 4l25 8v84l-23 -5l-32 -3l-69 19l-24 76v270h158v89h-158z" />
    <glyph glyph-name="u" unicode="u" horiz-adv-x="545" 
d="M56 530v-367l40 -124l122 -51l108 25l67 60l11 -73h87l-7 150v380h-100v-383l-45 -46l-84 -25l-73 27l-26 76v351h-100z" />
    <glyph glyph-name="v" unicode="v" horiz-adv-x="525" 
d="M194 0h137l174 530h-105l-137 -443l-138 443h-105z" />
    <glyph glyph-name="w" unicode="w" horiz-adv-x="733" 
d="M367 422l105 -422h128l107 530h-99l-75 -423l-106 423h-121l-106 -423l-74 423h-99l106 -530h129z" />
    <glyph glyph-name="x" unicode="x" horiz-adv-x="510" 
d="M21 530l154 -260l-154 -270h115l119 214l119 -214h115l-155 270l155 260h-117l-117 -204l-117 204h-117z" />
    <glyph glyph-name="y" unicode="y" horiz-adv-x="507" 
d="M259 130l-134 400h-108l188 -507l-83 -223h117l73 223l189 507h-108z" />
    <glyph glyph-name="z" unicode="z" horiz-adv-x="475" 
d="M32 69v-69h411v89h-166l-116 -2l272 374v69h-391v-89h146l116 2z" />
    <glyph glyph-name="braceleft" unicode="{" horiz-adv-x="334" 
d="M296 840h-22l-118 -33l-50 -120v-196l-20 -68l-61 -17v-92l61 -17l20 -68v-196l50 -120l118 -33h22v91l-65 20l-23 77v185l-15 67l-41 40l41 40l15 67v185l23 77l65 20v91z" />
    <glyph glyph-name="bar" unicode="|" horiz-adv-x="223" 
d="M61 -120h100v960h-100v-960z" />
    <glyph glyph-name="braceright" unicode="}" horiz-adv-x="334" 
d="M39 -120h21l118 33l50 120v196l20 68l62 17v92l-62 17l-20 68v196l-50 120l-118 33h-21v-91l65 -20l22 -77v-185l15 -67l41 -40l-41 -40l-15 -67v-185l-22 -77l-65 -20v-91z" />
    <glyph glyph-name="asciitilde" unicode="~" horiz-adv-x="600" 
d="M179 462l-89 -27l-56 -55l52 -53l38 35l57 19l111 -34l129 -35l89 26l56 56l-52 52l-38 -34l-57 -19l-111 35z" />
    <glyph glyph-name="nbspace" unicode="&#xa0;" horiz-adv-x="200" 
 />
    <glyph glyph-name="exclamdown" unicode="&#xa1;" horiz-adv-x="234" 
d="M174 530h-114v-114h114v114zM179 -200l-27 527h-70l-27 -527h124z" />
    <glyph glyph-name="cent" unicode="&#xa2;" horiz-adv-x="600" 
d="M158 375v31l37 173l116 58h2l-107 -449l-36 75zM444 840h-82l-27 -112l-12 1h-12l-194 -83l-63 -240v-31l31 -185l96 -108l-34 -142h82l28 117l26 -3l28 -1l178 59l57 160v15h-101l-30 -103l-100 -39h-4l-17 1l-16 2l113 470l41 -55l13 -90h101v26l-32 135l-100 79z" />
    <glyph glyph-name="sterling" unicode="&#xa3;" horiz-adv-x="600" 
d="M326 701l94 -54l29 -147h102v14l-50 202l-175 76l-166 -62l-52 -151l6 -81l14 -75h-77v-91h103l35 -115l23 -125h-161v-92h498v92h-247l-16 126l-28 114h168v91h-192l-16 76l-7 71l28 95z" />
    <glyph glyph-name="yen" unicode="&#xa5;" horiz-adv-x="600" 
d="M43 389h148l49 -109h-197v-91h205v-189h104v189h205v91h-198l50 109h148v91h-107l137 300h-115l-172 -404l-172 404h-115l136 -300h-106v-91z" />
    <glyph glyph-name="brokenbar" unicode="&#xa6;" horiz-adv-x="223" 
d="M61 -120h100v449h-100v-449zM61 391h100v449h-100v-449z" />
    <glyph glyph-name="section" unicode="&#xa7;" horiz-adv-x="526" 
d="M385 390l-29 -63l-87 -24h-16l-86 24l-27 63l30 63l87 24h16l86 -24zM488 391v6l-51 113l-150 41l-95 27l-23 56l28 57l78 20l84 -28l23 -75h100v4l-48 131l-159 49l-150 -41l-57 -118v-7l12 -63l39 -46l-60 -51l-21 -77v-6l51 -113l150 -41l94 -27l23 -56l-28 -57
l-77 -20l-84 28l-24 75h-99v-4l48 -130l159 -50l150 41l56 118v7l-12 62l-38 47l60 51z" />
    <glyph glyph-name="dieresis" unicode="&#xa8;" horiz-adv-x="500" 
d="M400 754h-116v-115h116v115zM216 754h-116v-115h116v115z" />
    <glyph glyph-name="copyright" unicode="&#xa9;" horiz-adv-x="920" 
d="M462 226l-92 46l-27 105v26l27 105l92 46l82 -30l23 -70h89v18l-45 111l-151 54l-162 -72l-49 -162v-26l49 -162l162 -72l151 52l45 106v16h-89l-22 -61zM106 390l104 251l250 103l251 -103l103 -251l-103 -250l-251 -104l-250 104zM58 390l118 -284l284 -118l284 118
l118 284l-118 284l-284 118l-284 -118z" />
    <glyph glyph-name="ordfeminine" unicode="&#xaa;" horiz-adv-x="403" 
d="M183 451l-46 16l-14 37v5l17 41l47 20l88 15v-90l-32 -29zM368 202v77h-323v-77h323zM292 388h78l-6 111v144l-33 109l-124 40l-125 -42l-32 -91v-7h84l14 50l57 21l55 -20l15 -60v-4l-103 -15l-97 -34l-40 -90v-8l29 -81l89 -33l79 16l52 42z" />
    <glyph glyph-name="guillemotleft" unicode="&#xab;" horiz-adv-x="534" 
d="M484 538l-208 -151v-94l208 -151v94l-135 104l135 104v94zM259 538l-209 -151v-94l209 -151v94l-136 104l136 104v94z" />
    <glyph glyph-name="logicalnot" unicode="&#xac;" horiz-adv-x="600" 
d="M46 471h415v-265h93v358h-508v-93z" />
    <glyph glyph-name="uni00AD" unicode="&#xad;" horiz-adv-x="337" 
d="M40 305h257v90h-257v-90z" />
    <glyph glyph-name="registered" unicode="&#xae;" horiz-adv-x="330" 
d="M191 696v-3l-6 -16l-18 -5h-28v45h28l18 -5zM234 691v7l-17 41l-41 12h-80v-172h43v59h26l25 -59h44l-30 64l22 17zM42 665l36 87l87 36l87 -36l36 -87l-36 -87l-87 -36l-87 36zM18 665l43 -104l104 -43l104 43l43 104l-43 104l-104 43l-104 -43z" />
    <glyph glyph-name="macron" unicode="&#xaf;" horiz-adv-x="500" 
d="M122 648h256v91h-256v-91z" />
    <glyph glyph-name="degree" unicode="&#xb0;" horiz-adv-x="400" 
d="M356 637l-45 114l-111 41l-111 -41l-45 -114v-5l45 -113l111 -41l111 41l45 113v5zM288 631l-25 -62l-60 -23h-6l-60 23l-25 62v7l25 62l60 23h6l60 -23l25 -62v-7z" />
    <glyph glyph-name="plusminus" unicode="&#xb1;" horiz-adv-x="600" 
d="M46 152h508v93h-508v-93zM254 657v-128h-208v-93h208v-127h92v127h208v93h-208v128h-92z" />
    <glyph glyph-name="twosuperior" unicode="&#xb2;" 
d="M279 463h-140l96 105l33 44l11 56v10l-28 73l-101 35l-97 -31l-32 -95v-10h84l12 49l30 14h5l31 -12l12 -38v-5l-6 -27l-19 -24l-149 -164v-53h258v73z" />
    <glyph glyph-name="threesuperior" unicode="&#xb3;" 
d="M102 515h-84v-7l33 -92l99 -33l101 38l30 74v9l-14 52l-33 33l32 32l13 52v9l-28 69l-101 35l-97 -31l-32 -95v-10h84l12 49l30 14h5l31 -11l12 -29v-6l-11 -31l-32 -10h-52v-74h53l33 -11l12 -32v-5l-14 -36l-32 -12h-5l-32 13z" />
    <glyph glyph-name="acute" unicode="&#xb4;" horiz-adv-x="500" 
d="M290 780l-91 -173h102l99 173h-110z" />
    <glyph glyph-name="paragraph" unicode="&#xb6;" horiz-adv-x="526" 
d="M137 535v13l36 104l77 34v-290l-77 35zM360 0h104v780h-182l-169 -43l-82 -185v-20l69 -176l150 -51v-305h64v688h46v-688z" />
    <glyph glyph-name="periodcentered" unicode="&#xb7;" horiz-adv-x="234" 
d="M174 407h-114v-114h114v114z" />
    <glyph glyph-name="cedilla" unicode="&#xb8;" horiz-adv-x="602" 
d="M156 -191l40 -16l57 -6l80 20l29 62l-31 61l-71 20l19 50h-58l-29 -77l17 -25l10 1l22 2l42 -6l15 -21l-13 -22l-41 -7l-39 5l-31 11z" />
    <glyph glyph-name="onesuperior" unicode="&#xb9;" 
d="M286 390v73h-84v317h-63l-122 -82l42 -61l59 40v-214h-85v-73h253z" />
    <glyph glyph-name="ordmasculine" unicode="&#xba;" horiz-adv-x="427" 
d="M45 202h337v77h-337v-77zM126 574v23l21 86l66 32l67 -32l21 -86v-23l-21 -86l-67 -32l-66 32zM390 574v23l-43 140l-134 55l-134 -55l-42 -140v-23l42 -140l134 -56l134 56z" />
    <glyph glyph-name="guillemotright" unicode="&#xbb;" horiz-adv-x="534" 
d="M276 444l134 -104l-134 -104v-94l208 151v94l-208 151v-94zM50 444l134 -104l-134 -104v-94l209 151v94l-209 151v-94z" />
    <glyph glyph-name="onequarter" unicode="&#xbc;" horiz-adv-x="800" 
d="M663 256l-1 -26v-73h-38l-24 -2zM286 390v73h-84v317h-63l-122 -82l42 -61l59 40v-214h-85v-73h253zM746 0v83h40v74h-40v233h-79l-154 -248v-59h149v-83h84zM164 0l576 780h-104l-576 -780h104z" />
    <glyph glyph-name="onehalf" unicode="&#xbd;" horiz-adv-x="800" 
d="M286 390v73h-84v317h-63l-122 -82l42 -61l59 40v-214h-85v-73h253zM779 73h-140l96 105l33 44l11 56v10l-28 73l-101 35l-97 -31l-32 -95v-10h84l12 49l30 14h5l31 -12l12 -38v-5l-6 -27l-19 -24l-149 -164v-53h258v73zM164 0l576 780h-104l-576 -780h104z" />
    <glyph glyph-name="threequarters" unicode="&#xbe;" horiz-adv-x="800" 
d="M663 256l-1 -26v-73h-38l-24 -2zM746 0v83h40v74h-40v233h-79l-154 -248v-59h149v-83h84zM102 515h-84v-7l33 -92l99 -33l101 38l30 74v9l-14 52l-33 33l32 32l13 52v9l-28 69l-101 35l-97 -31l-32 -95v-10h84l12 49l30 14h5l31 -11l12 -29v-6l-11 -31l-32 -10h-52v-74
h53l33 -11l12 -32v-5l-14 -36l-32 -12h-5l-32 13zM164 0l576 780h-104l-576 -780h104z" />
    <glyph glyph-name="questiondown" unicode="&#xbf;" horiz-adv-x="470" 
d="M180 416h114v114h-114v-114zM231 -121l-79 28l-24 76l75 153l69 191h-70l-92 -166l-85 -187l48 -131l158 -55l169 71l45 187v14h-102l-23 -134z" />
    <glyph glyph-name="Agrave" unicode="&#xc0;" horiz-adv-x="621" 
d="M197 950l63 -110h102l-58 110h-107zM311 669l102 -389h-204zM238 786l-215 -786h113l49 188h252l49 -188h112l-215 786h-145z" />
    <glyph glyph-name="Aacute" unicode="&#xc1;" horiz-adv-x="621" 
d="M318 950l-58 -110h102l63 110h-107zM311 669l102 -389h-204zM238 786l-215 -786h113l49 188h252l49 -188h112l-215 786h-145z" />
    <glyph glyph-name="Acircumflex" unicode="&#xc2;" horiz-adv-x="621" 
d="M245 840l66 57l66 -57h96l-113 110h-98l-113 -110h96zM311 669l102 -389h-204zM238 786l-215 -786h113l49 188h252l49 -188h112l-215 786h-145z" />
    <glyph glyph-name="Atilde" unicode="&#xc3;" horiz-adv-x="621" 
d="M412 940l-10 -31l-25 -8l-62 26l-80 25l-62 -23l-25 -79h62l10 31l25 8l62 -25l80 -26l62 23l25 79h-62zM311 669l102 -389h-204zM238 786l-215 -786h113l49 188h252l49 -188h112l-215 786h-145z" />
    <glyph glyph-name="Adieresis" unicode="&#xc4;" horiz-adv-x="621" 
d="M442 936h-99v-82h99v82zM279 936h-99v-82h99v82zM311 669l102 -389h-204zM238 786l-215 -786h113l49 188h252l49 -188h112l-215 786h-145z" />
    <glyph glyph-name="Aring" unicode="&#xc5;" horiz-adv-x="621" 
d="M257 864l16 38l38 16l38 -16l16 -38l-16 -39l-38 -16l-38 16zM311 669l102 -389h-204zM213 864l10 -44l27 -34h-12l-215 -786h113l49 188h252l49 -188h112l-215 786h-12l28 34l10 44l-29 69l-69 29l-69 -29z" />
    <glyph glyph-name="AE" unicode="&#xc6;" horiz-adv-x="854" 
d="M358 664l49 -378h-181zM299 780l-284 -780h112l67 194h225l25 -194h370v92h-273l-37 260h260v92h-273l-35 244h358v92h-515z" />
    <glyph glyph-name="Ccedilla" unicode="&#xc7;" horiz-adv-x="630" 
d="M239 -191l40 -16l57 -6l80 20l29 62l-31 61l-71 20l15 39l169 73l56 187v10h-105l-34 -132l-112 -47h-7l-130 71l-38 219v40l39 219l129 71h7l113 -51l33 -158h105v31l-64 204l-194 66l-208 -90l-67 -292v-40l61 -283l189 -98l-25 -66l17 -25l10 1l22 2l42 -6l15 -21
l-13 -22l-41 -7l-39 5l-31 11z" />
    <glyph glyph-name="Egrave" unicode="&#xc8;" horiz-adv-x="557" 
d="M184 950l63 -110h102l-58 110h-107zM67 780v-780h450v92h-346v260h296v92h-296v244h346v92h-450z" />
    <glyph glyph-name="Eacute" unicode="&#xc9;" horiz-adv-x="557" 
d="M305 950l-58 -110h102l63 110h-107zM67 780v-780h450v92h-346v260h296v92h-296v244h346v92h-450z" />
    <glyph glyph-name="Ecircumflex" unicode="&#xca;" horiz-adv-x="557" 
d="M232 840l66 57l66 -57h96l-113 110h-98l-113 -110h96zM67 780v-780h450v92h-346v260h296v92h-296v244h346v92h-450z" />
    <glyph glyph-name="Edieresis" unicode="&#xcb;" horiz-adv-x="557" 
d="M429 936h-99v-82h99v82zM266 936h-99v-82h99v82zM67 780v-780h450v92h-346v260h296v92h-296v244h346v92h-450z" />
    <glyph glyph-name="Igrave" unicode="&#xcc;" horiz-adv-x="248" 
d="M10 950l63 -110h102l-58 110h-107zM176 780h-104v-780h104v780z" />
    <glyph glyph-name="Iacute" unicode="&#xcd;" horiz-adv-x="248" 
d="M131 950l-58 -110h102l63 110h-107zM176 780h-104v-780h104v780z" />
    <glyph glyph-name="Icircumflex" unicode="&#xce;" horiz-adv-x="248" 
d="M58 840l66 57l66 -57h96l-113 110h-98l-113 -110h96zM176 780h-104v-780h104v780z" />
    <glyph glyph-name="Idieresis" unicode="&#xcf;" horiz-adv-x="248" 
d="M92 936h-99v-82h99v82zM255 936h-99v-82h99v82zM176 780h-104v-780h104v780z" />
    <glyph glyph-name="Eth" unicode="&#xd0;" horiz-adv-x="707" 
d="M231 688h108l160 -65l51 -213v-40l-51 -213l-160 -65h-108v260h196v92h-196v244zM16 352h111v-352h219l232 84l79 286v40l-79 286l-232 84h-219v-336h-111v-92z" />
    <glyph glyph-name="Ntilde" unicode="&#xd1;" horiz-adv-x="667" 
d="M435 940l-10 -31l-25 -8l-62 26l-80 25l-62 -23l-25 -79h62l10 31l25 8l62 -25l80 -26l62 23l25 79h-62zM600 780h-99v-423l4 -173l-327 596h-111v-780h99v423l-4 173l327 -596h111v780z" />
    <glyph glyph-name="Ograve" unicode="&#xd2;" horiz-adv-x="657" 
d="M215 950l63 -110h102l-58 110h-107zM325 80l-129 71l-39 219v40l39 219l129 71h7l129 -71l39 -219v-40l-39 -219l-129 -71h-7zM329 -12l209 90l69 292v40l-69 292l-209 90l-210 -90l-69 -292v-40l69 -292z" />
    <glyph glyph-name="Oacute" unicode="&#xd3;" horiz-adv-x="657" 
d="M336 950l-58 -110h102l63 110h-107zM325 80l-129 71l-39 219v40l39 219l129 71h7l129 -71l39 -219v-40l-39 -219l-129 -71h-7zM329 -12l209 90l69 292v40l-69 292l-209 90l-210 -90l-69 -292v-40l69 -292z" />
    <glyph glyph-name="Ocircumflex" unicode="&#xd4;" horiz-adv-x="657" 
d="M263 840l66 57l66 -57h96l-113 110h-98l-113 -110h96zM325 80l-129 71l-39 219v40l39 219l129 71h7l129 -71l39 -219v-40l-39 -219l-129 -71h-7zM329 -12l209 90l69 292v40l-69 292l-209 90l-210 -90l-69 -292v-40l69 -292z" />
    <glyph glyph-name="Otilde" unicode="&#xd5;" horiz-adv-x="657" 
d="M430 940l-10 -31l-25 -8l-62 26l-80 25l-62 -23l-25 -79h62l10 31l25 8l62 -25l80 -26l62 23l25 79h-62zM325 80l-129 71l-39 219v40l39 219l129 71h7l129 -71l39 -219v-40l-39 -219l-129 -71h-7zM329 -12l209 90l69 292v40l-69 292l-209 90l-210 -90l-69 -292v-40
l69 -292z" />
    <glyph glyph-name="Odieresis" unicode="&#xd6;" horiz-adv-x="657" 
d="M460 936h-99v-82h99v82zM297 936h-99v-82h99v82zM325 80l-129 71l-39 219v40l39 219l129 71h7l129 -71l39 -219v-40l-39 -219l-129 -71h-7zM329 -12l209 90l69 292v40l-69 292l-209 90l-210 -90l-69 -292v-40l69 -292z" />
    <glyph glyph-name="multiply" unicode="&#xd7;" horiz-adv-x="600" 
d="M99 123l201 201l201 -201l66 66l-201 201l201 201l-66 66l-201 -201l-201 201l-66 -66l201 -201l-201 -201z" />
    <glyph glyph-name="Oslash" unicode="&#xd8;" horiz-adv-x="649" 
d="M157 370v40l39 219l129 71h7l68 -13l49 -40l-275 -443l-13 74zM500 410v-40l-39 -219l-129 -71h-7l-70 14l-50 42l275 446l15 -77zM50 410v-40l14 -160l43 -115l-59 -95h73l28 45l78 -43l102 -14l209 90l69 292v40l-15 164l-45 115l56 91h-72l-26 -43l-77 42l-99 13
l-210 -90z" />
    <glyph glyph-name="Ugrave" unicode="&#xd9;" horiz-adv-x="647" 
d="M210 950l63 -110h102l-58 110h-107zM324 -12l199 60l62 195v537h-104v-532l-38 -130l-119 -38l-120 38l-38 130v532h-104v-537l62 -195z" />
    <glyph glyph-name="Uacute" unicode="&#xda;" horiz-adv-x="647" 
d="M331 950l-58 -110h102l63 110h-107zM324 -12l199 60l62 195v537h-104v-532l-38 -130l-119 -38l-120 38l-38 130v532h-104v-537l62 -195z" />
    <glyph glyph-name="Ucircumflex" unicode="&#xdb;" horiz-adv-x="647" 
d="M258 840l66 57l66 -57h96l-113 110h-98l-113 -110h96zM324 -12l199 60l62 195v537h-104v-532l-38 -130l-119 -38l-120 38l-38 130v532h-104v-537l62 -195z" />
    <glyph glyph-name="Udieresis" unicode="&#xdc;" horiz-adv-x="647" 
d="M455 936h-99v-82h99v82zM292 936h-99v-82h99v82zM324 -12l199 60l62 195v537h-104v-532l-38 -130l-119 -38l-120 38l-38 130v532h-104v-537l62 -195z" />
    <glyph glyph-name="Yacute" unicode="&#xdd;" horiz-adv-x="594" 
d="M304 950l-58 -110h102l63 110h-107zM349 237l229 543h-113l-168 -414l-168 414h-113l229 -543v-237h104v237z" />
    <glyph glyph-name="Thorn" unicode="&#xde;" horiz-adv-x="586" 
d="M171 244v292h130l93 -26l48 -114v-12l-48 -114l-93 -26h-130zM171 780h-104v-780h104v152h127l169 43l81 185v20l-81 185l-169 43h-127v152z" />
    <glyph glyph-name="germandbls" unicode="&#xdf;" horiz-adv-x="592" 
d="M270 358l82 -55l87 -71l28 -71l-15 -64l-68 -29l-67 29l-16 67h-88v-6l33 -116l140 -54l141 55l40 118v6l-38 109l-110 94l-40 27l91 87l30 112v8l-53 148l-167 60l-169 -59l-52 -149v-604h100v597l29 89l92 36l92 -36l28 -93l-32 -95l-98 -76v-64z" />
    <glyph glyph-name="agrave" unicode="&#xe0;" horiz-adv-x="525" 
d="M113 780l99 -173h102l-91 173h-110zM228 72l-68 24l-21 54v8l24 60l71 30l132 22v-129l-46 -45zM386 0h87l-7 150v193l-43 145l-160 54l-163 -57l-40 -121v-9h95l21 75l84 32l83 -30l23 -89v-8l-147 -23l-125 -44l-54 -120v-10l39 -107l117 -43l109 23l71 57z" />
    <glyph glyph-name="aacute" unicode="&#xe1;" horiz-adv-x="525" 
d="M303 780l-91 -173h102l99 173h-110zM228 72l-68 24l-21 54v8l24 60l71 30l132 22v-129l-46 -45zM386 0h87l-7 150v193l-43 145l-160 54l-163 -57l-40 -121v-9h95l21 75l84 32l83 -30l23 -89v-8l-147 -23l-125 -44l-54 -120v-10l39 -107l117 -43l109 23l71 57z" />
    <glyph glyph-name="acircumflex" unicode="&#xe2;" horiz-adv-x="525" 
d="M178 607l85 102l85 -102h94l-132 173h-94l-132 -173h94zM228 72l-68 24l-21 54v8l24 60l71 30l132 22v-129l-46 -45zM386 0h87l-7 150v193l-43 145l-160 54l-163 -57l-40 -121v-9h95l21 75l84 32l83 -30l23 -89v-8l-147 -23l-125 -44l-54 -120v-10l39 -107l117 -43
l109 23l71 57z" />
    <glyph glyph-name="atilde" unicode="&#xe3;" horiz-adv-x="525" 
d="M362 755l-10 -32l-24 -9l-64 27l-82 27l-65 -29l-26 -94h73l10 32l24 9l64 -27l82 -27l65 29l26 94h-73zM228 72l-68 24l-21 54v8l24 60l71 30l132 22v-129l-46 -45zM386 0h87l-7 150v193l-43 145l-160 54l-163 -57l-40 -121v-9h95l21 75l84 32l83 -30l23 -89v-8
l-147 -23l-125 -44l-54 -120v-10l39 -107l117 -43l109 23l71 57z" />
    <glyph glyph-name="adieresis" unicode="&#xe4;" horiz-adv-x="525" 
d="M229 754h-116v-115h116v115zM413 754h-116v-115h116v115zM228 72l-68 24l-21 54v8l24 60l71 30l132 22v-129l-46 -45zM386 0h87l-7 150v193l-43 145l-160 54l-163 -57l-40 -121v-9h95l21 75l84 32l83 -30l23 -89v-8l-147 -23l-125 -44l-54 -120v-10l39 -107l117 -43
l109 23l71 57z" />
    <glyph glyph-name="aring" unicode="&#xe5;" horiz-adv-x="525" 
d="M209 694l16 38l38 16l38 -16l16 -38l-16 -39l-38 -16l-38 16zM165 694l29 -70l69 -29l69 29l29 70l-29 69l-69 29l-69 -29zM228 72l-68 24l-21 54v8l24 60l71 30l132 22v-129l-46 -45zM386 0h87l-7 150v193l-43 145l-160 54l-163 -57l-40 -121v-9h95l21 75l84 32l83 -30
l23 -89v-8l-147 -23l-125 -44l-54 -120v-10l39 -107l117 -43l109 23l71 57z" />
    <glyph glyph-name="ae" unicode="&#xe6;" horiz-adv-x="867" 
d="M597 462l96 -42l35 -117h-261l34 117zM371 147l-44 -48l-99 -29l-68 24l-21 54v8l25 60l70 30l132 22v-15l3 -51l9 -47zM829 227v50l-55 188l-175 77l-103 -22l-67 -61l-57 61l-109 22l-163 -57l-40 -121v-9h95l21 75l84 32l83 -30l23 -89v-8l-146 -23l-126 -44l-54 -120
v-10l40 -107l122 -43l123 27l87 64l76 -66l117 -25l168 56l56 122v4h-95l-31 -69l-98 -33l-102 41l-36 118h362z" />
    <glyph glyph-name="ccedilla" unicode="&#xe7;" horiz-adv-x="523" 
d="M180 -191l40 -16l57 -6l80 20l29 62l-31 61l-71 20l15 39l139 62l44 119v18h-96l-26 -78l-88 -34l-98 48l-31 127v28l31 127l98 48l87 -34l27 -88h96v21l-50 131l-162 58l-174 -76l-54 -187v-28l47 -178l152 -83l-25 -67l17 -25l10 1l22 2l42 -6l15 -21l-13 -22l-41 -7
l-39 5l-31 11z" />
    <glyph glyph-name="egrave" unicode="&#xe8;" horiz-adv-x="548" 
d="M126 780l99 -173h102l-91 173h-110zM274 462l96 -42l35 -117h-262l34 117zM506 227v50l-55 188l-175 77l-177 -77l-57 -188v-24l57 -188l182 -77l169 56l56 122v4h-96l-31 -69l-97 -33l-102 41l-37 118h363z" />
    <glyph glyph-name="eacute" unicode="&#xe9;" horiz-adv-x="548" 
d="M316 780l-91 -173h102l99 173h-110zM274 462l96 -42l35 -117h-262l34 117zM506 227v50l-55 188l-175 77l-177 -77l-57 -188v-24l57 -188l182 -77l169 56l56 122v4h-96l-31 -69l-97 -33l-102 41l-37 118h363z" />
    <glyph glyph-name="ecircumflex" unicode="&#xea;" horiz-adv-x="548" 
d="M191 607l85 102l85 -102h94l-132 173h-94l-132 -173h94zM274 462l96 -42l35 -117h-262l34 117zM506 227v50l-55 188l-175 77l-177 -77l-57 -188v-24l57 -188l182 -77l169 56l56 122v4h-96l-31 -69l-97 -33l-102 41l-37 118h363z" />
    <glyph glyph-name="edieresis" unicode="&#xeb;" horiz-adv-x="548" 
d="M242 754h-116v-115h116v115zM426 754h-116v-115h116v115zM274 462l96 -42l35 -117h-262l34 117zM506 227v50l-55 188l-175 77l-177 -77l-57 -188v-24l57 -188l182 -77l169 56l56 122v4h-96l-31 -69l-97 -33l-102 41l-37 118h363z" />
    <glyph glyph-name="igrave" unicode="&#xec;" horiz-adv-x="234" 
d="M-33 780l99 -173h102l-91 173h-110zM66 0h102v530h-102v-530z" />
    <glyph glyph-name="iacute" unicode="&#xed;" horiz-adv-x="234" 
d="M157 780l-91 -173h102l99 173h-110zM66 0h102v530h-102v-530z" />
    <glyph glyph-name="icircumflex" unicode="&#xee;" horiz-adv-x="234" 
d="M32 607l85 102l85 -102h94l-132 173h-94l-132 -173h94zM66 0h102v530h-102v-530z" />
    <glyph glyph-name="idieresis" unicode="&#xef;" horiz-adv-x="234" 
d="M267 754h-116v-115h116v115zM83 754h-116v-115h116v115zM66 0h102v530h-102v-530z" />
    <glyph glyph-name="eth" unicode="&#xf0;" horiz-adv-x="548" 
d="M274 76l-99 48l-32 127v28l32 127l99 48l99 -48l32 -127v-28l-32 -127zM42 721l76 -12l71 -22l-112 -64v-66l173 98l34 -25l31 -29l31 -41l25 -47l-50 22l-59 7l-166 -76l-54 -187v-28l56 -187l176 -76l176 76l56 187v28l-22 195l-90 185l-25 26l-25 23l65 37v67
l-119 -67l-118 47l-130 20v-91z" />
    <glyph glyph-name="ntilde" unicode="&#xf1;" horiz-adv-x="545" 
d="M375 755l-10 -32l-24 -9l-64 27l-82 27l-65 -29l-26 -94h73l10 32l24 9l64 -27l82 -27l65 29l26 94h-73zM489 0v367l-39 124l-123 51l-108 -24l-67 -61l-11 73h-86l7 -150v-380h100v383l44 46l84 25l74 -27l26 -76v-351h99z" />
    <glyph glyph-name="ograve" unicode="&#xf2;" horiz-adv-x="548" 
d="M124 780l99 -173h102l-91 173h-110zM274 76l-99 48l-32 127v28l32 127l99 48l99 -48l32 -127v-28l-32 -127zM274 -12l176 76l56 187v28l-56 187l-176 76l-176 -76l-56 -187v-28l56 -187z" />
    <glyph glyph-name="oacute" unicode="&#xf3;" horiz-adv-x="548" 
d="M314 780l-91 -173h102l99 173h-110zM274 76l-99 48l-32 127v28l32 127l99 48l99 -48l32 -127v-28l-32 -127zM274 -12l176 76l56 187v28l-56 187l-176 76l-176 -76l-56 -187v-28l56 -187z" />
    <glyph glyph-name="ocircumflex" unicode="&#xf4;" horiz-adv-x="548" 
d="M189 607l85 102l85 -102h94l-132 173h-94l-132 -173h94zM274 76l-99 48l-32 127v28l32 127l99 48l99 -48l32 -127v-28l-32 -127zM274 -12l176 76l56 187v28l-56 187l-176 76l-176 -76l-56 -187v-28l56 -187z" />
    <glyph glyph-name="otilde" unicode="&#xf5;" horiz-adv-x="548" 
d="M373 755l-10 -32l-24 -9l-64 27l-82 27l-65 -29l-26 -94h73l10 32l24 9l64 -27l82 -27l65 29l26 94h-73zM274 76l-99 48l-32 127v28l32 127l99 48l99 -48l32 -127v-28l-32 -127zM274 -12l176 76l56 187v28l-56 187l-176 76l-176 -76l-56 -187v-28l56 -187z" />
    <glyph glyph-name="odieresis" unicode="&#xf6;" horiz-adv-x="548" 
d="M424 754h-116v-115h116v115zM240 754h-116v-115h116v115zM274 76l-99 48l-32 127v28l32 127l99 48l99 -48l32 -127v-28l-32 -127zM274 -12l176 76l56 187v28l-56 187l-176 76l-176 -76l-56 -187v-28l56 -187z" />
    <glyph glyph-name="divide" unicode="&#xf7;" horiz-adv-x="600" 
d="M358 661h-116v-115h116v115zM358 234h-116v-115h116v115zM46 344h508v92h-508v-92z" />
    <glyph glyph-name="oslash" unicode="&#xf8;" horiz-adv-x="548" 
d="M143 251v28l32 127l99 48l49 -9l37 -24l-202 -267l-11 44zM405 279v-28l-32 -127l-99 -48l-49 9l-38 24l202 267l12 -45zM506 530h-63l-25 -33l-63 33l-81 12l-176 -76l-56 -187v-28l13 -101l39 -82l-52 -68h63l24 32l63 -33l82 -11l176 76l56 187v28l-13 100l-39 82z
" />
    <glyph glyph-name="ugrave" unicode="&#xf9;" horiz-adv-x="545" 
d="M120 780l99 -173h102l-91 173h-110zM56 530v-367l40 -124l122 -51l108 25l67 60l11 -73h87l-7 150v380h-100v-383l-45 -46l-84 -25l-73 27l-26 76v351h-100z" />
    <glyph glyph-name="uacute" unicode="&#xfa;" horiz-adv-x="545" 
d="M310 780l-91 -173h102l99 173h-110zM56 530v-367l40 -124l122 -51l108 25l67 60l11 -73h87l-7 150v380h-100v-383l-45 -46l-84 -25l-73 27l-26 76v351h-100z" />
    <glyph glyph-name="ucircumflex" unicode="&#xfb;" horiz-adv-x="545" 
d="M185 607l85 102l85 -102h94l-132 173h-94l-132 -173h94zM56 530v-367l40 -124l122 -51l108 25l67 60l11 -73h87l-7 150v380h-100v-383l-45 -46l-84 -25l-73 27l-26 76v351h-100z" />
    <glyph glyph-name="udieresis" unicode="&#xfc;" horiz-adv-x="545" 
d="M236 754h-116v-115h116v115zM420 754h-116v-115h116v115zM56 530v-367l40 -124l122 -51l108 25l67 60l11 -73h87l-7 150v380h-100v-383l-45 -46l-84 -25l-73 27l-26 76v351h-100z" />
    <glyph glyph-name="yacute" unicode="&#xfd;" horiz-adv-x="507" 
d="M299 780l-91 -173h102l99 173h-110zM259 130l-134 400h-108l188 -507l-83 -223h117l73 223l189 507h-108z" />
    <glyph glyph-name="thorn" unicode="&#xfe;" horiz-adv-x="550" 
d="M161 383l43 46l77 25l96 -47l30 -128v-28l-30 -128l-96 -47l-77 25l-43 46v236zM61 800v-1000h100v256l57 -49l89 -19l155 76l46 187v28l-46 187l-155 76l-89 -19l-57 -49v326h-100z" />
    <glyph glyph-name="ydieresis" unicode="&#xff;" horiz-adv-x="507" 
d="M225 754h-116v-115h116v115zM409 754h-116v-115h116v115zM259 130l-134 400h-108l188 -507l-83 -223h117l73 223l189 507h-108z" />
    <glyph glyph-name="Amacron" unicode="&#x100;" horiz-adv-x="621" 
d="M185 860h252v70h-252v-70zM311 669l102 -389h-204zM238 786l-215 -786h113l49 188h252l49 -188h112l-215 786h-145z" />
    <glyph glyph-name="amacron" unicode="&#x101;" horiz-adv-x="525" 
d="M135 648h256v91h-256v-91zM228 72l-68 24l-21 54v8l24 60l71 30l132 22v-129l-46 -45zM386 0h87l-7 150v193l-43 145l-160 54l-163 -57l-40 -121v-9h95l21 75l84 32l83 -30l23 -89v-8l-147 -23l-125 -44l-54 -120v-10l39 -107l117 -43l109 23l71 57z" />
    <glyph glyph-name="Abreve" unicode="&#x102;" horiz-adv-x="621" 
d="M311 827l125 36l34 87h-75l-20 -44l-64 -16l-64 16l-20 44h-75l35 -87zM311 669l102 -389h-204zM238 786l-215 -786h113l49 188h252l49 -188h112l-215 786h-145z" />
    <glyph glyph-name="abreve" unicode="&#x103;" horiz-adv-x="525" 
d="M228 72l-68 24l-21 54v8l24 60l71 30l132 22v-129l-46 -45zM263 595l132 52l38 133h-77l-23 -77l-70 -27l-70 27l-23 77h-77l38 -133zM386 0h87l-7 150v193l-43 145l-160 54l-163 -57l-40 -121v-9h95l21 75l84 32l83 -30l23 -89v-8l-147 -23l-125 -44l-54 -120v-10
l39 -107l117 -43l109 23l71 57z" />
    <glyph glyph-name="Aogonek" unicode="&#x104;" horiz-adv-x="621" 
d="M311 669l102 -389h-204zM523 -91l22 55l53 36l-215 786h-145l-215 -786h113l49 188h252l50 -193l-33 -47l-12 -59l33 -77l86 -25l52 6l41 16l-25 68l-23 -9l-32 -4l-38 13z" />
    <glyph glyph-name="aogonek" unicode="&#x105;" horiz-adv-x="525" 
d="M228 72l-68 24l-21 54v8l24 60l71 30l132 22v-129l-46 -45zM395 -91l22 55l53 36h3l-7 150v193l-43 145l-160 54l-163 -57l-40 -121v-9h95l21 75l84 32l83 -30l23 -89v-8l-147 -23l-125 -44l-54 -120v-10l39 -107l117 -43l109 23l71 57l7 -52l-49 -53l-20 -74l33 -77
l86 -25l52 6l41 16l-25 68l-23 -9l-32 -4l-38 13z" />
    <glyph glyph-name="Cacute" unicode="&#x106;" horiz-adv-x="630" 
d="M332 950l-58 -110h102l63 110h-107zM157 370v40l39 219l129 71h7l113 -51l33 -158h105v31l-64 204l-194 66l-208 -90l-67 -292v-40l67 -292l208 -90l194 65l64 196v10h-105l-34 -132l-112 -47h-7l-130 71z" />
    <glyph glyph-name="cacute" unicode="&#x107;" horiz-adv-x="523" 
d="M310 780l-91 -173h102l99 173h-110zM143 251v28l31 127l98 48l87 -34l27 -88h96v21l-50 131l-162 58l-174 -76l-54 -187v-28l54 -187l174 -76l162 56l50 126v18h-96l-26 -78l-88 -34l-98 48z" />
    <glyph glyph-name="Ccircumflex" unicode="&#x108;" horiz-adv-x="630" 
d="M259 840l66 57l66 -57h96l-113 110h-98l-113 -110h96zM157 370v40l39 219l129 71h7l113 -51l33 -158h105v31l-64 204l-194 66l-208 -90l-67 -292v-40l67 -292l208 -90l194 65l64 196v10h-105l-34 -132l-112 -47h-7l-130 71z" />
    <glyph glyph-name="ccircumflex" unicode="&#x109;" horiz-adv-x="523" 
d="M185 607l85 102l85 -102h94l-132 173h-94l-132 -173h94zM143 251v28l31 127l98 48l87 -34l27 -88h96v21l-50 131l-162 58l-174 -76l-54 -187v-28l54 -187l174 -76l162 56l50 126v18h-96l-26 -78l-88 -34l-98 48z" />
    <glyph glyph-name="Cdotaccent" unicode="&#x10a;" horiz-adv-x="630" 
d="M374 936h-98v-82h98v82zM157 370v40l39 219l129 71h7l113 -51l33 -158h105v31l-64 204l-194 66l-208 -90l-67 -292v-40l67 -292l208 -90l194 65l64 196v10h-105l-34 -132l-112 -47h-7l-130 71z" />
    <glyph glyph-name="cdotaccent" unicode="&#x10b;" horiz-adv-x="523" 
d="M328 754h-116v-115h116v115zM143 251v28l31 127l98 48l87 -34l27 -88h96v21l-50 131l-162 58l-174 -76l-54 -187v-28l54 -187l174 -76l162 56l50 126v18h-96l-26 -78l-88 -34l-98 48z" />
    <glyph glyph-name="Ccaron" unicode="&#x10c;" horiz-adv-x="630" 
d="M163 950l113 -110h98l113 110h-96l-66 -58l-66 58h-96zM157 370v40l39 219l129 71h7l113 -51l33 -158h105v31l-64 204l-194 66l-208 -90l-67 -292v-40l67 -292l208 -90l194 65l64 196v10h-105l-34 -132l-112 -47h-7l-130 71z" />
    <glyph glyph-name="ccaron" unicode="&#x10d;" horiz-adv-x="523" 
d="M91 780l132 -173h94l132 173h-94l-85 -102l-85 102h-94zM143 251v28l31 127l98 48l87 -34l27 -88h96v21l-50 131l-162 58l-174 -76l-54 -187v-28l54 -187l174 -76l162 56l50 126v18h-96l-26 -78l-88 -34l-98 48z" />
    <glyph glyph-name="Dcaron" unicode="&#x10e;" horiz-adv-x="647" 
d="M138 950l113 -110h98l113 110h-96l-66 -58l-66 58h-96zM171 92v596h108l160 -65l51 -213v-40l-51 -213l-160 -65h-108zM597 370v40l-79 286l-232 84h-219v-780h219l232 84z" />
    <glyph glyph-name="dcaron" unicode="&#x10f;" horiz-adv-x="554" 
d="M560 800v-193h52l21 193h-73zM392 147l-42 -46l-77 -25l-96 47l-30 128v28l30 128l96 47l77 -25l42 -46v-236zM247 542l-155 -76l-46 -187v-28l46 -187l155 -76l96 23l59 58l11 -69h87l-7 150v650h-101v-325l-58 48z" />
    <glyph glyph-name="Dcroat" unicode="&#x110;" horiz-adv-x="707" 
d="M231 688h108l160 -65l51 -213v-40l-51 -213l-160 -65h-108v260h196v92h-196v244zM16 352h111v-352h219l232 84l79 286v40l-79 286l-232 84h-219v-336h-111v-92z" />
    <glyph glyph-name="dcroat" unicode="&#x111;" horiz-adv-x="554" 
d="M392 383v-236l-42 -46l-77 -25l-96 47l-30 128v28l30 128l96 47l77 -25zM576 703h-83v97h-101v-97h-126v-76h126v-152l-58 48l-87 19l-155 -76l-46 -187v-28l46 -187l155 -76l96 23l59 58l11 -69h87l-7 150v477h83v76z" />
    <glyph glyph-name="Emacron" unicode="&#x112;" horiz-adv-x="557" 
d="M172 860h252v70h-252v-70zM67 780v-780h450v92h-346v260h296v92h-296v244h346v92h-450z" />
    <glyph glyph-name="emacron" unicode="&#x113;" horiz-adv-x="548" 
d="M148 648h256v91h-256v-91zM274 462l96 -42l35 -117h-262l34 117zM506 227v50l-55 188l-175 77l-177 -77l-57 -188v-24l57 -188l182 -77l169 56l56 122v4h-96l-31 -69l-97 -33l-102 41l-37 118h363z" />
    <glyph glyph-name="Ebreve" unicode="&#x114;" horiz-adv-x="557" 
d="M67 780v-780h450v92h-346v260h296v92h-296v244h346v92h-450zM298 827l125 36l34 87h-75l-20 -44l-64 -16l-64 16l-20 44h-75l35 -87z" />
    <glyph glyph-name="ebreve" unicode="&#x115;" horiz-adv-x="548" 
d="M274 462l96 -42l35 -117h-262l34 117zM276 595l132 52l38 133h-77l-23 -77l-70 -27l-70 27l-23 77h-77l38 -133zM506 227v50l-55 188l-175 77l-177 -77l-57 -188v-24l57 -188l182 -77l169 56l56 122v4h-96l-31 -69l-97 -33l-102 41l-37 118h363z" />
    <glyph glyph-name="Edotaccent" unicode="&#x116;" horiz-adv-x="557" 
d="M347 936h-98v-82h98v82zM67 780v-780h450v92h-346v260h296v92h-296v244h346v92h-450z" />
    <glyph glyph-name="edotaccent" unicode="&#x117;" horiz-adv-x="548" 
d="M334 754h-116v-115h116v115zM274 462l96 -42l35 -117h-262l34 117zM506 227v50l-55 188l-175 77l-177 -77l-57 -188v-24l57 -188l182 -77l169 56l56 122v4h-96l-31 -69l-97 -33l-102 41l-37 118h363z" />
    <glyph glyph-name="Eogonek" unicode="&#x118;" horiz-adv-x="557" 
d="M67 780v-780h344l-36 -49l-14 -62l33 -77l86 -25l52 6l41 16l-25 68l-23 -9l-32 -4l-38 13l-13 32l22 55l53 36v92h-346v260h296v92h-296v244h346v92h-450z" />
    <glyph glyph-name="eogonek" unicode="&#x119;" horiz-adv-x="548" 
d="M274 462l96 -42l35 -117h-262l34 117zM506 227v50l-55 188l-175 77l-177 -77l-57 -188v-24l50 -179l160 -84l-28 -45l-11 -56l33 -77l86 -25l52 6l41 16l-25 68l-23 -9l-32 -4l-38 13l-13 32l21 57l54 34l103 67l34 99v4h-96l-31 -69l-97 -33l-102 41l-37 118h363z" />
    <glyph glyph-name="Ecaron" unicode="&#x11a;" horiz-adv-x="557" 
d="M136 950l113 -110h98l113 110h-96l-66 -58l-66 58h-96zM67 780v-780h450v92h-346v260h296v92h-296v244h346v92h-450z" />
    <glyph glyph-name="ecaron" unicode="&#x11b;" horiz-adv-x="548" 
d="M97 780l132 -173h94l132 173h-94l-85 -102l-85 102h-94zM274 462l96 -42l35 -117h-262l34 117zM506 227v50l-55 188l-175 77l-177 -77l-57 -188v-24l57 -188l182 -77l169 56l56 122v4h-96l-31 -69l-97 -33l-102 41l-37 118h363z" />
    <glyph glyph-name="Gcircumflex" unicode="&#x11c;" horiz-adv-x="655" 
d="M267 840l66 57l66 -57h96l-113 110h-98l-113 -110h96zM343 -12l155 28l95 63v319h-227v-92h123v-177l-56 -34l-85 -15h-8l-142 71l-42 219v40l42 219l134 71h8l115 -51l33 -158h105v31l-65 204l-195 66l-212 -90l-71 -292v-40l73 -292z" />
    <glyph glyph-name="gcircumflex" unicode="&#x11d;" horiz-adv-x="550" 
d="M185 607l85 102l85 -102h94l-132 173h-94l-132 -173h94zM389 383v-200l-43 -47l-77 -24l-94 42l-32 117v24l32 115l94 44l77 -25zM389 3l-28 -99l-94 -32l-92 33l-27 95h-96v-16l48 -139l168 -57l169 58l52 154v380l7 150h-87l-10 -68l-59 57l-97 23l-154 -72l-47 -175
v-24l47 -176l154 -71l88 19l58 47v-87z" />
    <glyph glyph-name="Gbreve" unicode="&#x11e;" horiz-adv-x="655" 
d="M333 827l125 36l34 87h-75l-20 -44l-64 -16l-64 16l-20 44h-75l35 -87zM343 -12l155 28l95 63v319h-227v-92h123v-177l-56 -34l-85 -15h-8l-142 71l-42 219v40l42 219l134 71h8l115 -51l33 -158h105v31l-65 204l-195 66l-212 -90l-71 -292v-40l73 -292z" />
    <glyph glyph-name="gbreve" unicode="&#x11f;" horiz-adv-x="550" 
d="M270 595l132 52l38 133h-77l-23 -77l-70 -27l-70 27l-23 77h-77l38 -133zM269 112l-94 42l-32 117v24l32 115l94 44l77 -25l43 -46v-200l-43 -47zM389 3l-28 -99l-94 -32l-92 33l-27 95h-96v-16l48 -139l168 -57l169 58l52 154v380l7 150h-87l-10 -68l-59 57l-97 23
l-154 -72l-47 -175v-24l47 -176l154 -71l88 19l58 47v-87z" />
    <glyph glyph-name="Gdotaccent" unicode="&#x120;" horiz-adv-x="655" 
d="M382 936h-98v-82h98v82zM343 -12l155 28l95 63v319h-227v-92h123v-177l-56 -34l-85 -15h-8l-142 71l-42 219v40l42 219l134 71h8l115 -51l33 -158h105v31l-65 204l-195 66l-212 -90l-71 -292v-40l73 -292z" />
    <glyph glyph-name="gdotaccent" unicode="&#x121;" horiz-adv-x="550" 
d="M326 754h-116v-115h116v115zM389 383v-200l-43 -47l-77 -24l-94 42l-32 117v24l32 115l94 44l77 -25zM389 3l-28 -99l-94 -32l-92 33l-27 95h-96v-16l48 -139l168 -57l169 58l52 154v380l7 150h-87l-10 -68l-59 57l-97 23l-154 -72l-47 -175v-24l47 -176l154 -71l88 19
l58 47v-87z" />
    <glyph glyph-name="Gcommaaccent" unicode="&#x122;" horiz-adv-x="655" 
d="M394 -51h-102v-78h57l-26 -37l-49 -10v-43l90 28l30 86v54zM343 -12l155 28l95 63v319h-227v-92h123v-177l-56 -34l-85 -15h-8l-142 71l-42 219v40l42 219l134 71h8l115 -51l33 -158h105v31l-65 204l-195 66l-212 -90l-71 -292v-40l73 -292z" />
    <glyph glyph-name="gcommaaccent" unicode="&#x123;" horiz-adv-x="550" 
d="M217 607h102v81h-58l24 48l52 13v43l-90 -31l-30 -96v-58zM269 112l-94 42l-32 117v24l32 115l94 44l77 -25l43 -46v-200l-43 -47zM389 3l-28 -99l-94 -32l-92 33l-27 95h-96v-16l48 -139l168 -57l169 58l52 154v380l7 150h-87l-10 -68l-59 57l-97 23l-154 -72l-47 -175
v-24l47 -176l154 -71l88 19l58 47v-87z" />
    <glyph glyph-name="Hcircumflex" unicode="&#x124;" horiz-adv-x="647" 
d="M258 840l66 57l66 -57h96l-113 110h-98l-113 -110h96zM476 780v-336h-305v336h-104v-780h104v352h305v-352h104v780h-104z" />
    <glyph glyph-name="hcircumflex" unicode="&#x125;" horiz-adv-x="545" 
d="M46 840l66 57l66 -57h96l-113 110h-98l-113 -110h96zM162 800h-100v-800h100v383l44 46l84 25l74 -27l26 -76v-351h99v367l-39 124l-123 51l-100 -20l-65 -51v329z" />
    <glyph glyph-name="Hbar" unicode="&#x126;" horiz-adv-x="647" 
d="M171 444v127h305v-127h-305zM476 780v-125h-305v125h-104v-780h104v352h305v-352h104v780h-104z" />
    <glyph glyph-name="hbar" unicode="&#x127;" horiz-adv-x="545" 
d="M162 800h-100v-97h-84v-76h84v-627h100v383l44 46l84 25l74 -27l26 -76v-351h99v367l-39 124l-123 51l-100 -20l-65 -51v156h126v76h-126v97z" />
    <glyph glyph-name="Itilde" unicode="&#x128;" horiz-adv-x="248" 
d="M225 940l-10 -31l-25 -8l-62 26l-80 25l-62 -23l-25 -79h62l10 31l25 8l62 -25l80 -26l62 23l25 79h-62zM176 780h-104v-780h104v780z" />
    <glyph glyph-name="itilde" unicode="&#x129;" horiz-adv-x="234" 
d="M216 755l-10 -32l-24 -9l-64 27l-82 27l-65 -29l-26 -94h73l10 32l24 9l64 -27l82 -27l65 29l26 94h-73zM66 0h102v530h-102v-530z" />
    <glyph glyph-name="Imacron" unicode="&#x12a;" horiz-adv-x="248" 
d="M-2 860h252v70h-252v-70zM176 780h-104v-780h104v780z" />
    <glyph glyph-name="imacron" unicode="&#x12b;" horiz-adv-x="234" 
d="M-11 648h256v91h-256v-91zM66 0h102v530h-102v-530z" />
    <glyph glyph-name="Ibreve" unicode="&#x12c;" horiz-adv-x="248" 
d="M124 827l125 36l34 87h-75l-20 -44l-64 -16l-64 16l-20 44h-75l34 -87zM176 780h-104v-780h104v780z" />
    <glyph glyph-name="ibreve" unicode="&#x12d;" horiz-adv-x="234" 
d="M117 595l132 52l38 133h-77l-23 -77l-70 -27l-70 27l-23 77h-77l38 -133zM66 0h102v530h-102v-530z" />
    <glyph glyph-name="Iogonek" unicode="&#x12e;" horiz-adv-x="248" 
d="M101 -91l22 55l53 36v780h-104v-779l-38 -49l-14 -63l33 -77l86 -25l52 6l41 16l-25 68l-23 -9l-32 -4l-38 13z" />
    <glyph glyph-name="iogonek" unicode="&#x12f;" horiz-adv-x="234" 
d="M174 754h-114v-114h114v114zM91 -91l22 55l53 36h1v530h-100v-524l-41 -50l-16 -67l33 -77l86 -25l52 6l41 16l-25 68l-23 -9l-32 -4l-38 13z" />
    <glyph glyph-name="Idotaccent" unicode="&#x130;" horiz-adv-x="248" 
d="M173 936h-98v-82h98v82zM176 780h-104v-780h104v780z" />
    <glyph glyph-name="dotlessi" unicode="&#x131;" horiz-adv-x="234" 
d="M66 0h102v530h-102v-530z" />
    <glyph glyph-name="IJ" unicode="&#x132;" horiz-adv-x="537" 
d="M176 780h-104v-780h104v780zM371 181l-22 -80l-66 -21l-31 4l-24 6v-88l27 -9l55 -5l119 41l46 140v611h-104v-599z" />
    <glyph glyph-name="ij" unicode="&#x133;" horiz-adv-x="417" 
d="M357 754h-114v-114h114v114zM174 754h-114v-114h114v114zM67 0h100v530h-100v-530zM250 -29l-24 -76l-70 -19l-32 3l-22 5v-84l26 -8l52 -4l122 39l48 133v570h-100v-559z" />
    <glyph glyph-name="Jcircumflex" unicode="&#x134;" horiz-adv-x="510" 
d="M330 840l66 57l66 -57h96l-113 110h-98l-113 -110h96zM344 780v-526l-25 -131l-85 -43l-84 43l-25 136h-98v-19l46 -186l164 -66l163 67l48 184v541h-104z" />
    <glyph glyph-name="jcircumflex" unicode="&#x135;" horiz-adv-x="234" 
d="M32 607l85 102l85 -102h94l-132 173h-94l-132 -173h94zM66 -28l-24 -76l-69 -19l-32 3l-22 5v-85l25 -8l53 -4l123 39l48 134v569h-102v-558z" />
    <glyph glyph-name="Kcommaaccent" unicode="&#x136;" horiz-adv-x="585" 
d="M342 -51h-102v-78h57l-26 -37l-49 -10v-43l90 28l30 86v54zM171 780h-104v-780h104v234l92 131l176 -365h116l-227 457l227 323h-126l-258 -385v385z" />
    <glyph glyph-name="kcommaaccent" unicode="&#x137;" horiz-adv-x="522" 
d="M314 -51h-102v-78h57l-26 -37l-49 -10v-43l90 28l30 86v54zM60 0h100v153l89 100l133 -253h116l-180 330l180 200h-122l-216 -247v517h-100v-800z" />
    <glyph glyph-name="kgreenlandic" unicode="&#x138;" horiz-adv-x="522" 
d="M60 0h100v153l89 100l133 -253h116l-180 330l180 200h-122l-216 -247v247h-100v-530z" />
    <glyph glyph-name="Lacute" unicode="&#x139;" horiz-adv-x="501" 
d="M126 950l-58 -110h102l63 110h-107zM486 0v92h-315v688h-104v-780h419z" />
    <glyph glyph-name="lacute" unicode="&#x13a;" horiz-adv-x="234" 
d="M124 950l-58 -110h102l63 110h-107zM67 0h100v800h-100v-800z" />
    <glyph glyph-name="Lcommaaccent" unicode="&#x13b;" horiz-adv-x="501" 
d="M329 -51h-102v-78h57l-26 -37l-49 -10v-43l90 28l30 86v54zM486 0v92h-315v688h-104v-780h419z" />
    <glyph glyph-name="lcommaaccent" unicode="&#x13c;" horiz-adv-x="234" 
d="M168 -51h-102v-78h57l-26 -37l-49 -10v-43l90 28l30 86v54zM67 0h100v800h-100v-800z" />
    <glyph glyph-name="Lcaron" unicode="&#x13d;" horiz-adv-x="501" 
d="M306 800v-193h52l21 193h-73zM486 0v92h-315v688h-104v-780h419z" />
    <glyph glyph-name="lcaron" unicode="&#x13e;" horiz-adv-x="234" 
d="M234 800v-193h52l21 193h-73zM67 0h100v800h-100v-800z" />
    <glyph glyph-name="Ldot" unicode="&#x13f;" horiz-adv-x="501" 
d="M423 456h-115v-116h115v116zM486 0v92h-315v688h-104v-780h419z" />
    <glyph glyph-name="ldot" unicode="&#x140;" horiz-adv-x="371" 
d="M360 408h-116v-116h116v116zM67 0h100v800h-100v-800z" />
    <glyph glyph-name="Lslash" unicode="&#x141;" horiz-adv-x="561" 
d="M16 238l111 56v-294h419v92h-315v255l205 104v91l-205 -104v342h-104v-395l-111 -56v-91z" />
    <glyph glyph-name="lslash" unicode="&#x142;" horiz-adv-x="348" 
d="M29 238l92 65v-303h100v374l108 77v91l-108 -77v335h-100v-406l-92 -65v-91z" />
    <glyph glyph-name="Nacute" unicode="&#x143;" horiz-adv-x="667" 
d="M341 950l-58 -110h102l63 110h-107zM600 780h-99v-423l4 -173l-327 596h-111v-780h99v423l-4 173l327 -596h111v780z" />
    <glyph glyph-name="nacute" unicode="&#x144;" horiz-adv-x="545" 
d="M316 780l-91 -173h102l99 173h-110zM489 0v367l-39 124l-123 51l-108 -24l-67 -61l-11 73h-86l7 -150v-380h100v383l44 46l84 25l74 -27l26 -76v-351h99z" />
    <glyph glyph-name="Ncommaaccent" unicode="&#x145;" horiz-adv-x="667" 
d="M385 -51h-102v-78h57l-26 -37l-49 -10v-43l90 28l30 86v54zM600 780h-99v-423l4 -173l-327 596h-111v-780h99v423l-4 173l327 -596h111v780z" />
    <glyph glyph-name="ncommaaccent" unicode="&#x146;" horiz-adv-x="545" 
d="M327 -51h-102v-78h57l-26 -37l-49 -10v-43l90 28l30 86v54zM489 0v367l-39 124l-123 51l-108 -24l-67 -61l-11 73h-86l7 -150v-380h100v383l44 46l84 25l74 -27l26 -76v-351h99z" />
    <glyph glyph-name="Ncaron" unicode="&#x147;" horiz-adv-x="667" 
d="M172 950l113 -110h98l113 110h-96l-66 -58l-66 58h-96zM600 780h-99v-423l4 -173l-327 596h-111v-780h99v423l-4 173l327 -596h111v780z" />
    <glyph glyph-name="ncaron" unicode="&#x148;" horiz-adv-x="545" 
d="M97 780l132 -173h94l132 173h-94l-85 -102l-85 102h-94zM489 0v367l-39 124l-123 51l-108 -24l-67 -61l-11 73h-86l7 -150v-380h100v383l44 46l84 25l74 -27l26 -76v-351h99z" />
    <glyph glyph-name="Eng" unicode="&#x14a;" horiz-adv-x="667" 
d="M498 -28l-24 -76l-69 -19l-32 3l-22 5v-85l26 -8l52 -4l123 39l48 134v819h-99v-423l4 -173l-327 596h-111v-780h99v423l-4 173l336 -615v-9z" />
    <glyph glyph-name="eng" unicode="&#x14b;" horiz-adv-x="545" 
d="M389 -29l-24 -76l-70 -19l-31 3l-23 5v-84l26 -8l52 -4l123 39l47 133v407l-39 124l-123 51l-108 -24l-67 -61l-11 73h-86l7 -150v-380h100v383l44 46l84 25l74 -27l25 -76v-380z" />
    <glyph glyph-name="Omacron" unicode="&#x14c;" horiz-adv-x="657" 
d="M203 860h252v70h-252v-70zM325 80l-129 71l-39 219v40l39 219l129 71h7l129 -71l39 -219v-40l-39 -219l-129 -71h-7zM329 -12l209 90l69 292v40l-69 292l-209 90l-210 -90l-69 -292v-40l69 -292z" />
    <glyph glyph-name="omacron" unicode="&#x14d;" horiz-adv-x="548" 
d="M146 648h256v91h-256v-91zM274 76l-99 48l-32 127v28l32 127l99 48l99 -48l32 -127v-28l-32 -127zM274 -12l176 76l56 187v28l-56 187l-176 76l-176 -76l-56 -187v-28l56 -187z" />
    <glyph glyph-name="Obreve" unicode="&#x14e;" horiz-adv-x="657" 
d="M329 827l125 36l34 87h-75l-20 -44l-64 -16l-64 16l-20 44h-75l35 -87zM325 80l-129 71l-39 219v40l39 219l129 71h7l129 -71l39 -219v-40l-39 -219l-129 -71h-7zM329 -12l209 90l69 292v40l-69 292l-209 90l-210 -90l-69 -292v-40l69 -292z" />
    <glyph glyph-name="obreve" unicode="&#x14f;" horiz-adv-x="548" 
d="M274 595l132 52l38 133h-77l-23 -77l-70 -27l-70 27l-23 77h-77l38 -133zM274 76l-99 48l-32 127v28l32 127l99 48l99 -48l32 -127v-28l-32 -127zM274 -12l176 76l56 187v28l-56 187l-176 76l-176 -76l-56 -187v-28l56 -187z" />
    <glyph glyph-name="Ohungarumlaut" unicode="&#x150;" horiz-adv-x="657" 
d="M410 950l-58 -110h94l62 110h-98zM266 950l-54 -110h94l58 110h-98zM325 80l-129 71l-39 219v40l39 219l129 71h7l129 -71l39 -219v-40l-39 -219l-129 -71h-7zM329 -12l209 90l69 292v40l-69 292l-209 90l-210 -90l-69 -292v-40l69 -292z" />
    <glyph glyph-name="ohungarumlaut" unicode="&#x151;" horiz-adv-x="548" 
d="M390 780l-91 -173h85l99 173h-93zM241 780l-78 -173h85l87 173h-94zM274 76l-99 48l-32 127v28l32 127l99 48l99 -48l32 -127v-28l-32 -127zM274 -12l176 76l56 187v28l-56 187l-176 76l-176 -76l-56 -187v-28l56 -187z" />
    <glyph glyph-name="OE" unicode="&#x152;" horiz-adv-x="940" 
d="M450 688v-596h-81l-160 65l-52 213v40l52 213l160 65h81zM50 410v-40l79 -286l232 -84h539v92h-346v260h296v92h-296v244h346v92h-539l-232 -84z" />
    <glyph glyph-name="oe" unicode="&#x153;" horiz-adv-x="911" 
d="M637 462l96 -42l35 -117h-262l34 117zM143 251v28l32 127l99 48l99 -48l32 -127v-28l-32 -127l-99 -48l-99 48zM868 227v50l-55 188l-175 77l-111 -27l-71 -71l-70 71l-112 27l-176 -76l-56 -187v-28l56 -187l176 -76l112 27l70 71l73 -71l115 -27l168 56l56 122v4h-95
l-31 -69l-98 -33l-101 41l-37 118h362z" />
    <glyph glyph-name="Racute" unicode="&#x154;" horiz-adv-x="598" 
d="M289 950l-58 -110h102l63 110h-107zM171 395v293h130l93 -26l48 -114v-13l-48 -114l-93 -26h-130zM171 304h146l118 -304h113l-130 322l92 68l38 142v20l-81 185l-169 43h-231v-780h104v304z" />
    <glyph glyph-name="racute" unicode="&#x155;" horiz-adv-x="350" 
d="M227 780l-91 -173h102l99 173h-110zM297 542l-87 -23l-59 -57l-10 68h-86l7 -150v-380h100v377l45 45l87 23h18v96l-6 1h-9z" />
    <glyph glyph-name="Rcommaaccent" unicode="&#x156;" horiz-adv-x="598" 
d="M343 -51h-102v-78h57l-26 -37l-49 -10v-43l90 28l30 86v54zM171 395v293h130l93 -26l48 -114v-13l-48 -114l-93 -26h-130zM171 304h146l118 -304h113l-130 322l92 68l38 142v20l-81 185l-169 43h-231v-780h104v304z" />
    <glyph glyph-name="rcommaaccent" unicode="&#x157;" horiz-adv-x="350" 
d="M163 -51h-102v-78h57l-26 -37l-49 -10v-43l90 28l30 86v54zM297 542l-87 -23l-59 -57l-10 68h-86l7 -150v-380h100v377l45 45l87 23h18v96l-6 1h-9z" />
    <glyph glyph-name="Rcaron" unicode="&#x158;" horiz-adv-x="598" 
d="M120 950l113 -110h98l113 110h-96l-66 -58l-66 58h-96zM171 395v293h130l93 -26l48 -114v-13l-48 -114l-93 -26h-130zM171 304h146l118 -304h113l-130 322l92 68l38 142v20l-81 185l-169 43h-231v-780h104v304z" />
    <glyph glyph-name="rcaron" unicode="&#x159;" horiz-adv-x="350" 
d="M8 780l132 -173h94l132 173h-94l-85 -102l-85 102h-94zM297 542l-87 -23l-59 -57l-10 68h-86l7 -150v-380h100v377l45 45l87 23h18v96l-6 1h-9z" />
    <glyph glyph-name="Sacute" unicode="&#x15a;" horiz-adv-x="611" 
d="M313 950l-58 -110h102l63 110h-107zM289 354l135 -45l39 -92v-8l-41 -94l-112 -35h-8l-114 43l-43 136h-104v-10l68 -195l197 -66l194 60l70 166v11l-59 147l-187 69l-133 46l-35 88v8l40 85l104 32h7l116 -45l35 -144h104v24l-61 192l-195 65l-188 -59l-69 -158v-11
l56 -140z" />
    <glyph glyph-name="sacute" unicode="&#x15b;" horiz-adv-x="524" 
d="M302 780l-91 -173h102l99 173h-110zM262 68l-89 29l-24 67h-99v-4l49 -119l163 -53l159 45l54 119v6l-51 108l-150 39l-95 25l-23 55l28 57l78 20l84 -28l24 -76h99v4l-48 130l-159 50l-150 -41l-56 -118v-7l43 -99l151 -45l95 -22l28 -60l-28 -59z" />
    <glyph glyph-name="Scircumflex" unicode="&#x15c;" horiz-adv-x="611" 
d="M240 840l66 57l66 -57h96l-113 110h-98l-113 -110h96zM289 354l135 -45l39 -92v-8l-41 -94l-112 -35h-8l-114 43l-43 136h-104v-10l68 -195l197 -66l194 60l70 166v11l-59 147l-187 69l-133 46l-35 88v8l40 85l104 32h7l116 -45l35 -144h104v24l-61 192l-195 65l-188 -59
l-69 -158v-11l56 -140z" />
    <glyph glyph-name="scircumflex" unicode="&#x15d;" horiz-adv-x="524" 
d="M177 607l85 102l85 -102h94l-132 173h-94l-132 -173h94zM262 68l-89 29l-24 67h-99v-4l49 -119l163 -53l159 45l54 119v6l-51 108l-150 39l-95 25l-23 55l28 57l78 20l84 -28l24 -76h99v4l-48 130l-159 50l-150 -41l-56 -118v-7l43 -99l151 -45l95 -22l28 -60l-28 -59z
" />
    <glyph glyph-name="Scedilla" unicode="&#x15e;" horiz-adv-x="611" 
d="M212 -191l40 -16l57 -6l80 20l29 62l-31 61l-71 20l14 39l177 65l63 160v11l-59 147l-187 69l-133 46l-35 88v8l40 85l104 32h7l116 -45l35 -144h104v24l-61 192l-195 65l-188 -59l-69 -158v-11l56 -140l184 -70l135 -45l39 -92v-8l-41 -94l-112 -35h-8l-114 43l-43 136
h-104v-10l59 -186l173 -74l-25 -66l17 -25l10 1l22 2l42 -6l15 -21l-13 -22l-41 -7l-39 5l-31 11z" />
    <glyph glyph-name="scedilla" unicode="&#x15f;" horiz-adv-x="524" 
d="M168 -191l40 -16l57 -6l80 20l29 62l-31 61l-71 20l14 39l141 50l48 113v6l-51 108l-150 39l-95 25l-23 55l28 57l78 20l84 -28l24 -76h99v4l-48 130l-159 50l-150 -41l-56 -118v-7l43 -99l151 -45l95 -22l28 -60l-28 -59l-83 -23l-89 29l-24 67h-99v-4l42 -112l137 -58
l-25 -67l17 -25l10 1l22 2l42 -6l15 -21l-13 -22l-41 -7l-39 5l-31 11z" />
    <glyph glyph-name="Scaron" unicode="&#x160;" horiz-adv-x="611" 
d="M144 950l113 -110h98l113 110h-96l-66 -58l-66 58h-96zM289 354l135 -45l39 -92v-8l-41 -94l-112 -35h-8l-114 43l-43 136h-104v-10l68 -195l197 -66l194 60l70 166v11l-59 147l-187 69l-133 46l-35 88v8l40 85l104 32h7l116 -45l35 -144h104v24l-61 192l-195 65
l-188 -59l-69 -158v-11l56 -140z" />
    <glyph glyph-name="scaron" unicode="&#x161;" horiz-adv-x="524" 
d="M83 780l132 -173h94l132 173h-94l-85 -102l-85 102h-94zM262 68l-89 29l-24 67h-99v-4l49 -119l163 -53l159 45l54 119v6l-51 108l-150 39l-95 25l-23 55l28 57l78 20l84 -28l24 -76h99v4l-48 130l-159 50l-150 -41l-56 -118v-7l43 -99l151 -45l95 -22l28 -60l-28 -59z
" />
    <glyph glyph-name="Tcommaaccent" unicode="&#x162;" horiz-adv-x="530" 
d="M316 -51h-102v-78h57l-26 -37l-49 -10v-43l90 28l30 86v54zM317 688h192v92h-488v-92h192v-688h104v688z" />
    <glyph glyph-name="tcommaaccent" unicode="&#x163;" horiz-adv-x="411" 
d="M285 -51h-102v-78h57l-26 -37l-49 -10v-43l90 28l30 86v54zM210 530v150h-100v-150h-83v-89h83v-281l48 -133l122 -39l53 4l25 8v84l-23 -5l-32 -3l-69 19l-24 76v270h158v89h-158z" />
    <glyph glyph-name="Tcaron" unicode="&#x164;" horiz-adv-x="530" 
d="M103 950l113 -110h98l113 110h-96l-66 -58l-66 58h-96zM317 688h192v92h-488v-92h192v-688h104v688z" />
    <glyph glyph-name="tcaron" unicode="&#x165;" horiz-adv-x="411" 
d="M277 800v-193h52l21 193h-73zM210 530v150h-100v-150h-83v-89h83v-281l48 -133l122 -39l53 4l25 8v84l-23 -5l-32 -3l-69 19l-24 76v270h158v89h-158z" />
    <glyph glyph-name="Tbar" unicode="&#x166;" horiz-adv-x="530" 
d="M317 688h192v92h-488v-92h192v-244h-122v-92h122v-352h104v352h121v92h-121v244z" />
    <glyph glyph-name="tbar" unicode="&#x167;" horiz-adv-x="411" 
d="M210 530v150h-100v-150h-83v-89h83v-138h-75v-76h75v-67l48 -133l122 -39l53 4l25 8v84l-23 -5l-32 -3l-69 19l-24 76v56h118v76h-118v138h158v89h-158z" />
    <glyph glyph-name="Utilde" unicode="&#x168;" horiz-adv-x="647" 
d="M324 -12l199 60l62 195v537h-104v-532l-38 -130l-119 -38l-120 38l-38 130v532h-104v-537l62 -195zM425 940l-10 -31l-25 -8l-62 26l-80 25l-62 -23l-25 -79h62l10 31l25 8l62 -25l80 -26l62 23l25 79h-62z" />
    <glyph glyph-name="utilde" unicode="&#x169;" horiz-adv-x="545" 
d="M369 755l-10 -32l-24 -9l-64 27l-82 27l-65 -29l-26 -94h73l10 32l24 9l64 -27l82 -27l65 29l26 94h-73zM56 530v-367l40 -124l122 -51l108 25l67 60l11 -73h87l-7 150v380h-100v-383l-45 -46l-84 -25l-73 27l-26 76v351h-100z" />
    <glyph glyph-name="Umacron" unicode="&#x16a;" horiz-adv-x="647" 
d="M198 860h252v70h-252v-70zM324 -12l199 60l62 195v537h-104v-532l-38 -130l-119 -38l-120 38l-38 130v532h-104v-537l62 -195z" />
    <glyph glyph-name="umacron" unicode="&#x16b;" horiz-adv-x="545" 
d="M142 648h256v91h-256v-91zM56 530v-367l40 -124l122 -51l108 25l67 60l11 -73h87l-7 150v380h-100v-383l-45 -46l-84 -25l-73 27l-26 76v351h-100z" />
    <glyph glyph-name="Ubreve" unicode="&#x16c;" horiz-adv-x="647" 
d="M324 -12l199 60l62 195v537h-104v-532l-38 -130l-119 -38l-120 38l-38 130v532h-104v-537l62 -195zM324 827l125 36l34 87h-75l-20 -44l-64 -16l-64 16l-20 44h-75l35 -87z" />
    <glyph glyph-name="ubreve" unicode="&#x16d;" horiz-adv-x="545" 
d="M270 595l132 52l38 133h-77l-23 -77l-70 -27l-70 27l-23 77h-77l38 -133zM56 530v-367l40 -124l122 -51l108 25l67 60l11 -73h87l-7 150v380h-100v-383l-45 -46l-84 -25l-73 27l-26 76v351h-100z" />
    <glyph glyph-name="Uring" unicode="&#x16e;" horiz-adv-x="647" 
d="M270 864l16 38l38 16l38 -16l16 -38l-16 -39l-38 -16l-38 16zM226 864l29 -70l69 -29l69 29l29 70l-29 69l-69 29l-69 -29zM324 -12l199 60l62 195v537h-104v-532l-38 -130l-119 -38l-120 38l-38 130v532h-104v-537l62 -195z" />
    <glyph glyph-name="uring" unicode="&#x16f;" horiz-adv-x="545" 
d="M216 694l16 38l38 16l38 -16l16 -38l-16 -39l-38 -16l-38 16zM172 694l29 -70l69 -29l69 29l29 70l-29 69l-69 29l-69 -29zM56 530v-367l40 -124l122 -51l108 25l67 60l11 -73h87l-7 150v380h-100v-383l-45 -46l-84 -25l-73 27l-26 76v351h-100z" />
    <glyph glyph-name="Uhungarumlaut" unicode="&#x170;" horiz-adv-x="647" 
d="M261 950l-54 -110h94l58 110h-98zM405 950l-58 -110h94l62 110h-98zM324 -12l199 60l62 195v537h-104v-532l-38 -130l-119 -38l-120 38l-38 130v532h-104v-537l62 -195z" />
    <glyph glyph-name="uhungarumlaut" unicode="&#x171;" horiz-adv-x="545" 
d="M386 780l-91 -173h85l99 173h-93zM237 780l-78 -173h85l87 173h-94zM56 530v-367l40 -124l122 -51l108 25l67 60l11 -73h87l-7 150v380h-100v-383l-45 -46l-84 -25l-73 27l-26 76v351h-100z" />
    <glyph glyph-name="Uogonek" unicode="&#x172;" horiz-adv-x="647" 
d="M356 -91l22 57l54 34l116 79l37 164v537h-104v-532l-38 -130l-119 -38l-120 38l-38 130v532h-104v-537l60 -193l191 -62l-28 -44l-10 -55l33 -77l86 -25l52 6l41 16l-25 68l-23 -9l-32 -4l-38 13z" />
    <glyph glyph-name="uogonek" unicode="&#x173;" horiz-adv-x="545" 
d="M56 530v-367l40 -124l122 -51l108 25l67 60l9 -59l-48 -53l-19 -72l33 -77l86 -25l52 6l41 16l-25 68l-23 -9l-32 -4l-38 13l-13 32l22 55l53 36l-7 150v380h-100v-383l-45 -46l-84 -25l-73 27l-26 76v351h-100z" />
    <glyph glyph-name="Wcircumflex" unicode="&#x174;" horiz-adv-x="910" 
d="M389 840l66 57l66 -57h96l-113 110h-98l-113 -110h96zM600 -6h137l140 786h-109l-105 -650l-141 650h-134l-141 -650l-105 650h-109l140 -786h137l145 670z" />
    <glyph glyph-name="wcircumflex" unicode="&#x175;" horiz-adv-x="733" 
d="M282 607l85 102l85 -102h94l-132 173h-94l-132 -173h94zM367 422l105 -422h128l107 530h-99l-75 -423l-106 423h-121l-106 -423l-74 423h-99l106 -530h129z" />
    <glyph glyph-name="Ycircumflex" unicode="&#x176;" horiz-adv-x="594" 
d="M231 840l66 57l66 -57h96l-113 110h-98l-113 -110h96zM349 237l229 543h-113l-168 -414l-168 414h-113l229 -543v-237h104v237z" />
    <glyph glyph-name="ycircumflex" unicode="&#x177;" horiz-adv-x="507" 
d="M174 607l85 102l85 -102h94l-132 173h-94l-132 -173h94zM259 130l-134 400h-108l188 -507l-83 -223h117l73 223l189 507h-108z" />
    <glyph glyph-name="Ydieresis" unicode="&#x178;" horiz-adv-x="594" 
d="M265 936h-99v-82h99v82zM428 936h-99v-82h99v82zM349 237l229 543h-113l-168 -414l-168 414h-113l229 -543v-237h104v237z" />
    <glyph glyph-name="Zacute" unicode="&#x179;" horiz-adv-x="575" 
d="M40 72v-72h495v92h-236l-132 -3l358 619v72h-475v-92h216l132 3zM293 950l-58 -110h102l63 110h-107z" />
    <glyph glyph-name="zacute" unicode="&#x17a;" horiz-adv-x="475" 
d="M32 69v-69h411v89h-166l-116 -2l272 374v69h-391v-89h146l116 2zM276 780l-91 -173h102l99 173h-110z" />
    <glyph glyph-name="Zdotaccent" unicode="&#x17b;" horiz-adv-x="575" 
d="M40 72v-72h495v92h-236l-132 -3l358 619v72h-475v-92h216l132 3zM335 936h-98v-82h98v82z" />
    <glyph glyph-name="zdotaccent" unicode="&#x17c;" horiz-adv-x="475" 
d="M32 69v-69h411v89h-166l-116 -2l272 374v69h-391v-89h146l116 2zM294 754h-116v-115h116v115z" />
    <glyph glyph-name="Zcaron" unicode="&#x17d;" horiz-adv-x="575" 
d="M40 72v-72h495v92h-236l-132 -3l358 619v72h-475v-92h216l132 3zM124 950l113 -110h98l113 110h-96l-66 -58l-66 58h-96z" />
    <glyph glyph-name="zcaron" unicode="&#x17e;" horiz-adv-x="475" 
d="M32 69v-69h411v89h-166l-116 -2l272 374v69h-391v-89h146l116 2zM57 780l132 -173h94l132 173h-94l-85 -102l-85 102h-94z" />
    <glyph glyph-name="Scommaaccent" unicode="&#x218;" horiz-adv-x="611" 
d="M357 -51h-102v-78h57l-26 -37l-49 -10v-43l90 28l30 86v54zM289 354l135 -45l39 -92v-8l-41 -94l-112 -35h-8l-114 43l-43 136h-104v-10l68 -195l197 -66l194 60l70 166v11l-59 147l-187 69l-133 46l-35 88v8l40 85l104 32h7l116 -45l35 -144h104v24l-61 192l-195 65
l-188 -59l-69 -158v-11l56 -140z" />
    <glyph glyph-name="scommaaccent" unicode="&#x219;" horiz-adv-x="524" 
d="M313 -51h-102v-78h57l-26 -37l-49 -10v-43l90 28l30 86v54zM262 68l-89 29l-24 67h-99v-4l49 -119l163 -53l159 45l54 119v6l-51 108l-150 39l-95 25l-23 55l28 57l78 20l84 -28l24 -76h99v4l-48 130l-159 50l-150 -41l-56 -118v-7l43 -99l151 -45l95 -22l28 -60l-28 -59
z" />
    <glyph glyph-name="Ymacron" unicode="&#x232;" horiz-adv-x="594" 
d="M171 860h252v70h-252v-70zM349 237l229 543h-113l-168 -414l-168 414h-113l229 -543v-237h104v237z" />
    <glyph glyph-name="ymacron" unicode="&#x233;" horiz-adv-x="507" 
d="M131 648h256v91h-256v-91zM259 130l-134 400h-108l188 -507l-83 -223h117l73 223l189 507h-108z" />
    <glyph glyph-name="dotlessj" unicode="&#x237;" horiz-adv-x="234" 
d="M66 -28l-24 -76l-69 -19l-32 3l-22 5v-85l25 -8l53 -4l123 39l48 134v569h-102v-558z" />
    <glyph glyph-name="circumflex" unicode="&#x2c6;" horiz-adv-x="500" 
d="M165 607l85 102l85 -102h94l-132 173h-94l-132 -173h94z" />
    <glyph glyph-name="caron" unicode="&#x2c7;" horiz-adv-x="500" 
d="M71 780l132 -173h94l132 173h-94l-85 -102l-85 102h-94z" />
    <glyph glyph-name="breve" unicode="&#x2d8;" horiz-adv-x="499" 
d="M250 595l132 52l38 133h-77l-23 -77l-70 -27l-70 27l-23 77h-77l38 -133z" />
    <glyph glyph-name="dotaccent" unicode="&#x2d9;" horiz-adv-x="500" 
d="M308 754h-116v-115h116v115z" />
    <glyph glyph-name="ring" unicode="&#x2da;" horiz-adv-x="500" 
d="M196 694l16 38l38 16l38 -16l16 -38l-16 -39l-38 -16l-38 16zM152 694l29 -70l69 -29l69 29l29 70l-29 69l-69 29l-69 -29z" />
    <glyph glyph-name="ogonek" unicode="&#x2db;" horiz-adv-x="602" 
d="M211 -91l22 55l53 36l-20 50l-93 -58l-43 -103l33 -77l86 -25l52 6l41 16l-25 68l-23 -9l-32 -4l-38 13z" />
    <glyph glyph-name="tilde" unicode="&#x2dc;" horiz-adv-x="500" 
d="M349 755l-10 -32l-24 -9l-64 27l-82 27l-65 -29l-26 -94h73l10 32l24 9l64 -27l82 -27l65 29l26 94h-73z" />
    <glyph glyph-name="hungarumlaut" unicode="&#x2dd;" horiz-adv-x="500" 
d="M366 780l-91 -173h85l99 173h-93zM217 780l-78 -173h85l87 173h-94z" />
    <glyph glyph-name="Bdotaccent" unicode="&#x1e02;" horiz-adv-x="602" 
d="M331 936h-98v-82h98v82zM288 688l94 -25l40 -89v-14l-40 -89l-94 -25h-117v242h117zM305 354l96 -28l41 -97v-12l-41 -97l-96 -28h-134v262h134zM67 780v-780h233l172 45l76 168v20l-34 110l-86 59l72 57l28 98v20l-73 160l-169 43h-219z" />
    <glyph glyph-name="bdotaccent" unicode="&#x1e03;" horiz-adv-x="550" 
d="M160 936h-98v-82h98v82zM161 383l43 46l77 25l96 -47l30 -128v-28l-30 -128l-96 -47l-77 25l-43 46v236zM161 800h-100v-650l-7 -150h87l10 69l59 -58l97 -23l155 76l46 187v28l-46 187l-155 76l-89 -19l-57 -49v326z" />
    <glyph glyph-name="Ddotaccent" unicode="&#x1e0a;" horiz-adv-x="647" 
d="M349 936h-98v-82h98v82zM171 92v596h108l160 -65l51 -213v-40l-51 -213l-160 -65h-108zM597 370v40l-79 286l-232 84h-219v-780h219l232 84z" />
    <glyph glyph-name="ddotaccent" unicode="&#x1e0b;" horiz-adv-x="554" 
d="M492 936h-98v-82h98v82zM392 147l-42 -46l-77 -25l-96 47l-30 128v28l30 128l96 47l77 -25l42 -46v-236zM247 542l-155 -76l-46 -187v-28l46 -187l155 -76l96 23l59 58l11 -69h87l-7 150v650h-101v-325l-58 48z" />
    <glyph glyph-name="Fdotaccent" unicode="&#x1e1e;" horiz-adv-x="526" 
d="M347 936h-98v-82h98v82zM67 780v-780h104v352h285v92h-285v244h335v92h-439z" />
    <glyph glyph-name="fdotaccent" unicode="&#x1e1f;" horiz-adv-x="391" 
d="M291 936h-98v-82h98v82zM210 629l24 76l69 19l32 -3l23 -5v84l-25 8l-53 4l-122 -39l-48 -133v-110h-83v-89h83v-441h100v441h138v89h-138v99z" />
    <glyph glyph-name="Mdotaccent" unicode="&#x1e40;" horiz-adv-x="827" 
d="M462 936h-98v-82h98v82zM660 599l-4 -167v-432h104v780h-151l-196 -600l-195 600h-151v-780h104v432l-4 167l196 -599h101z" />
    <glyph glyph-name="mdotaccent" unicode="&#x1e41;" horiz-adv-x="825" 
d="M473 754h-116v-115h116v115zM768 0v377l-38 120l-113 45l-103 -25l-63 -61l-50 63l-87 23l-100 -24l-62 -57l-11 69h-86l7 -150v-380h100v385l40 46l75 23l64 -20l24 -72v-362h100v385l41 46l74 23l65 -20l24 -72v-362h99z" />
    <glyph glyph-name="Pdotaccent" unicode="&#x1e56;" horiz-adv-x="586" 
d="M338 936h-98v-82h98v82zM171 395v293h130l93 -26l48 -114v-13l-48 -114l-93 -26h-130zM171 304h127l169 43l81 185v20l-81 185l-169 43h-231v-780h104v304z" />
    <glyph glyph-name="pdotaccent" unicode="&#x1e57;" horiz-adv-x="550" 
d="M340 754h-116v-115h116v115zM161 383l43 46l77 25l96 -47l30 -128v-28l-30 -128l-96 -47l-77 25l-43 46v236zM307 -12l155 76l46 187v28l-46 187l-155 76l-97 -24l-59 -58l-10 70h-87l7 -150v-580h100v256l57 -49z" />
    <glyph glyph-name="Tdotaccent" unicode="&#x1e6a;" horiz-adv-x="530" 
d="M314 936h-98v-82h98v82zM317 688h192v92h-488v-92h192v-688h104v688z" />
    <glyph glyph-name="tdotaccent" unicode="&#x1e6b;" horiz-adv-x="411" 
d="M209 816h-98v-82h98v82zM210 530v150h-100v-150h-83v-89h83v-281l48 -133l122 -39l53 4l25 8v84l-23 -5l-32 -3l-69 19l-24 76v270h158v89h-158z" />
    <glyph glyph-name="Wgrave" unicode="&#x1e80;" horiz-adv-x="910" 
d="M341 950l63 -110h102l-58 110h-107zM600 -6h137l140 786h-109l-105 -650l-141 650h-134l-141 -650l-105 650h-109l140 -786h137l145 670z" />
    <glyph glyph-name="wgrave" unicode="&#x1e81;" horiz-adv-x="733" 
d="M217 780l99 -173h102l-91 173h-110zM367 422l105 -422h128l107 530h-99l-75 -423l-106 423h-121l-106 -423l-74 423h-99l106 -530h129z" />
    <glyph glyph-name="Wacute" unicode="&#x1e82;" horiz-adv-x="910" 
d="M462 950l-58 -110h102l63 110h-107zM600 -6h137l140 786h-109l-105 -650l-141 650h-134l-141 -650l-105 650h-109l140 -786h137l145 670z" />
    <glyph glyph-name="wacute" unicode="&#x1e83;" horiz-adv-x="733" 
d="M407 780l-91 -173h102l99 173h-110zM367 422l105 -422h128l107 530h-99l-75 -423l-106 423h-121l-106 -423l-74 423h-99l106 -530h129z" />
    <glyph glyph-name="Wdieresis" unicode="&#x1e84;" horiz-adv-x="910" 
d="M586 936h-99v-82h99v82zM423 936h-99v-82h99v82zM600 -6h137l140 786h-109l-105 -650l-141 650h-134l-141 -650l-105 650h-109l140 -786h137l145 670z" />
    <glyph glyph-name="wdieresis" unicode="&#x1e85;" horiz-adv-x="733" 
d="M517 754h-116v-115h116v115zM333 754h-116v-115h116v115zM367 422l105 -422h128l107 530h-99l-75 -423l-106 423h-121l-106 -423l-74 423h-99l106 -530h129z" />
    <glyph glyph-name="Eszett" unicode="&#x1e9e;" horiz-adv-x="774" 
d="M305 447v-72l168 -21l122 -44l41 -93v-8l-35 -96l-93 -33h-8l-95 40l-38 139h-104v-10l60 -199l180 -62l177 60l63 166v11l-61 149l-185 69l-70 9l138 229v72l-91 29l-108 10l-224 -60l-80 -195v-537h104v532l55 131l145 37l44 -2l42 -7z" />
    <glyph glyph-name="Ygrave" unicode="&#x1ef2;" horiz-adv-x="594" 
d="M183 950l63 -110h102l-58 110h-107zM349 237l229 543h-113l-168 -414l-168 414h-113l229 -543v-237h104v237z" />
    <glyph glyph-name="ygrave" unicode="&#x1ef3;" horiz-adv-x="507" 
d="M109 780l99 -173h102l-91 173h-110zM259 130l-134 400h-108l188 -507l-83 -223h117l73 223l189 507h-108z" />
    <glyph glyph-name="enspace" unicode="&#x2002;" horiz-adv-x="500" 
 />
    <glyph glyph-name="emspace" unicode="&#x2003;" horiz-adv-x="1000" 
 />
    <glyph glyph-name="threeperemspace" unicode="&#x2004;" horiz-adv-x="333" 
 />
    <glyph glyph-name="fourperemspace" unicode="&#x2005;" horiz-adv-x="250" 
 />
    <glyph glyph-name="sixperemspace" unicode="&#x2006;" horiz-adv-x="167" 
 />
    <glyph glyph-name="figurespace" unicode="&#x2007;" horiz-adv-x="600" 
 />
    <glyph glyph-name="punctuationspace" unicode="&#x2008;" horiz-adv-x="180" 
 />
    <glyph glyph-name="thinspace" unicode="&#x2009;" horiz-adv-x="150" 
 />
    <glyph glyph-name="hairspace" unicode="&#x200a;" horiz-adv-x="50" 
 />
    <glyph glyph-name="zerowidthspace" unicode="&#x200b;" horiz-adv-x="0" 
 />
    <glyph glyph-name="figuredash" unicode="&#x2012;" horiz-adv-x="600" 
d="M40 305h520v90h-520v-90z" />
    <glyph glyph-name="endash" unicode="&#x2013;" horiz-adv-x="500" 
d="M40 305h420v90h-420v-90z" />
    <glyph glyph-name="emdash" unicode="&#x2014;" horiz-adv-x="1000" 
d="M40 305h920v90h-920v-90z" />
    <glyph glyph-name="uni2015" unicode="&#x2015;" horiz-adv-x="1200" 
d="M40 305h1120v90h-1120v-90z" />
    <glyph glyph-name="doublebar" unicode="&#x2016;" horiz-adv-x="374" 
d="M213 -120h99v960h-99v-960zM61 -120h100v960h-100v-960z" />
    <glyph glyph-name="quoteleft" unicode="&#x2018;" horiz-adv-x="234" 
d="M60 558h114v114h-58l23 55l53 16v56l-99 -38l-33 -113v-90z" />
    <glyph glyph-name="quoteright" unicode="&#x2019;" horiz-adv-x="234" 
d="M174 780h-114v-114h58l-23 -55l-53 -16v-56l99 38l33 113v90z" />
    <glyph glyph-name="quotesinglbase" unicode="&#x201a;" horiz-adv-x="234" 
d="M174 114h-114v-114h58l-23 -55l-53 -16v-56l99 38l33 113v90z" />
    <glyph glyph-name="reversequoteleft" unicode="&#x201b;" horiz-adv-x="234" 
d="M60 690l33 -113l99 -38v56l-53 16l-23 55h58v114h-114v-90z" />
    <glyph glyph-name="quotedblleft" unicode="&#x201c;" horiz-adv-x="404" 
d="M230 558h114v114h-58l23 55l53 16v56l-99 -38l-33 -113v-90zM60 558h114v114h-58l23 55l53 16v56l-99 -38l-33 -113v-90z" />
    <glyph glyph-name="quotedblright" unicode="&#x201d;" horiz-adv-x="404" 
d="M344 780h-114v-114h58l-23 -55l-53 -16v-56l99 38l33 113v90zM174 780h-114v-114h58l-23 -55l-53 -16v-56l99 38l33 113v90z" />
    <glyph glyph-name="quotedblbase" unicode="&#x201e;" horiz-adv-x="404" 
d="M344 114h-114v-114h58l-23 -55l-53 -16v-56l99 38l33 113v90zM174 114h-114v-114h58l-23 -55l-53 -16v-56l99 38l33 113v90z" />
    <glyph glyph-name="reversequotedblleft" unicode="&#x201f;" horiz-adv-x="404" 
d="M230 690l33 -113l99 -38v56l-53 16l-23 55h58v114h-114v-90zM60 690l33 -113l99 -38v56l-53 16l-23 55h58v114h-114v-90z" />
    <glyph glyph-name="dagger" unicode="&#x2020;" horiz-adv-x="397" 
d="M22 585l136 5v56l-136 5v-66zM375 651l-136 -5v-56l136 -5v66zM166 800l5 -141h55l5 141h-65zM166 450l5 -127h55l5 127l-5 127h-55z" />
    <glyph glyph-name="daggerdbl" unicode="&#x2021;" horiz-adv-x="397" 
d="M375 651l-136 -5v-56l136 -5v66zM22 362l136 5v56l-136 5v-66zM22 585l136 5v56l-136 5v-66zM375 428l-136 -5v-56l136 -5v66zM166 506l5 -70h55l5 70l-5 71h-55zM166 800l5 -141h55l5 141h-65zM166 227l5 -127h55l5 127l-5 127h-55z" />
    <glyph glyph-name="bullet" unicode="&#x2022;" horiz-adv-x="414" 
d="M348 491h-282v-282h282v282z" />
    <glyph glyph-name="ellipsis" unicode="&#x2026;" horiz-adv-x="1000" 
d="M557 114h-114v-114h114v114zM880 114h-114v-114h114v114zM234 114h-114v-114h114v114z" />
    <glyph glyph-name="perthousand" unicode="&#x2030;" horiz-adv-x="1342" 
d="M637 163v16l27 70l66 25h6l66 -25l27 -70v-16l-27 -70l-66 -25h-6l-66 25zM1037 163v16l27 70l66 25h6l66 -25l27 -70v-16l-27 -70l-66 -25h-6l-66 25zM306 617v-16l-27 -70l-66 -25h-6l-66 25l-27 70v16l27 70l66 25h6l66 -25zM958 177v-11l50 -133l125 -45l125 45
l50 133v11l-50 132l-125 45l-125 -45zM558 177v-11l50 -133l125 -45l125 45l50 133v11l-50 132l-125 45l-125 -45zM355 0l301 725v57l-79 -20l-116 -12l-90 5l-82 21l-38 12l-41 4l-125 -45l-51 -133v-11l51 -132l125 -45l125 45l50 132v11l-2 30l-5 27l33 -4l35 -1l66 6
l33 6l-282 -678h92z" />
    <glyph glyph-name="tripleprime" unicode="&#x2034;" horiz-adv-x="519" 
d="M212 780l10 -288h75l10 288h-95zM355 780l10 -288h75l18 288h-103zM61 780l18 -288h76l9 288h-103z" />
    <glyph glyph-name="guilsinglleft" unicode="&#x2039;" horiz-adv-x="309" 
d="M259 538l-209 -151v-94l209 -151v94l-136 104l136 104v94z" />
    <glyph glyph-name="guilsinglright" unicode="&#x203a;" horiz-adv-x="309" 
d="M50 444l134 -104l-134 -104v-94l209 151v94l-209 151v-94z" />
    <glyph glyph-name="interrobang" unicode="&#x203d;" horiz-adv-x="470" 
d="M342 580l-23 -91l-47 -86l14 290l44 -42zM290 114h-114v-114h114v114zM267 203l93 190l85 193l-46 147l-160 59l-169 -75l-45 -195v-13h102l14 118l49 64l23 -488h54z" />
    <glyph glyph-name="fraction" unicode="&#x2044;" horiz-adv-x="200" 
d="M-136 0l576 780h-104l-576 -780h104z" />
    <glyph glyph-name="uni2070" unicode="&#x2070;" 
d="M194 669v-168l-11 -32l-32 -13h-2l-33 13l-11 32v168l11 32l33 12h2l32 -12zM278 500v169l-32 84l-96 33l-96 -33l-32 -84v-169l32 -84l96 -33l96 33z" />
    <glyph glyph-name="uni2074" unicode="&#x2074;" 
d="M163 646l-1 -26v-73h-38l-24 -2zM246 390v83h40v74h-40v233h-79l-154 -248v-59h149v-83h84z" />
    <glyph glyph-name="uni2075" unicode="&#x2075;" 
d="M18 515v-7l33 -92l99 -33l98 34l33 92v9l-33 92l-94 34l-29 -3l-27 -8l3 73h175v74h-245l-10 -214l72 -24l23 21l29 7h3l36 -12l14 -42v-5l-14 -42l-32 -13h-5l-32 13l-13 46h-84z" />
    <glyph glyph-name="uni2076" unicode="&#x2076;" 
d="M151 563h3l31 -11l13 -37v-10l-14 -36l-32 -13h-3l-33 16l-13 48v15l21 21zM261 786l-107 -15l-80 -58l-43 -87l-12 -92v-8l34 -103l97 -40l98 34l33 91v5l-30 90l-79 33l-32 -5l-26 -12l10 26l14 22l50 35l73 10v74z" />
    <glyph glyph-name="uni2077" unicode="&#x2077;" 
d="M17 640h73v66h53l47 1l-134 -317h90l137 338v52h-266v-140z" />
    <glyph glyph-name="uni2078" unicode="&#x2078;" 
d="M152 713l31 -11l12 -30v-4l-11 -31l-32 -11h-4l-32 11l-12 31v4l13 30l30 11h5zM146 552h7l33 -11l12 -32v-6l-14 -36l-32 -11h-5l-31 11l-14 36v6l12 32zM150 383l101 38l30 73v10l-14 53l-32 32l31 33l13 51v9l-28 69l-101 35l-100 -35l-29 -69v-9l13 -51l30 -33
l-33 -32l-13 -53v-10l30 -73z" />
    <glyph glyph-name="uni2079" unicode="&#x2079;" 
d="M148 606h-2l-31 12l-13 36v10l14 37l32 13h3l33 -17l13 -47v-17l-22 -20zM38 383l108 15l80 58l43 88l12 92v7l-34 104l-98 39l-98 -33l-33 -91v-5l30 -90l79 -33l32 4l27 12l-11 -25l-14 -22l-50 -35l-73 -11v-74z" />
    <glyph glyph-name="uni207A" unicode="&#x207a;" 
d="M113 714v-92h-92v-74h92v-92h74v92h92v74h-92v92h-74z" />
    <glyph glyph-name="uni207B" unicode="&#x207b;" 
d="M21 548h258v74h-258v-74z" />
    <glyph glyph-name="uni207C" unicode="&#x207c;" 
d="M21 494h258v73h-258v-73zM21 602h258v74h-258v-74z" />
    <glyph glyph-name="uni207D" unicode="&#x207d;" horiz-adv-x="185" 
d="M21 580l18 -113l42 -77h86l-42 80l-21 110v10l21 109l42 81h-86l-42 -77l-18 -113v-10z" />
    <glyph glyph-name="uni207E" unicode="&#x207e;" horiz-adv-x="185" 
d="M163 590l-18 113l-42 77h-86l42 -81l21 -109v-10l-21 -110l-42 -80h86l42 77l18 113v10z" />
    <glyph glyph-name="uni2080" unicode="&#x2080;" 
d="M194 279v-168l-11 -32l-32 -13h-2l-33 13l-11 32v168l11 32l33 12h2l32 -12zM278 110v169l-32 84l-96 33l-96 -33l-32 -84v-169l32 -84l96 -33l96 33z" />
    <glyph glyph-name="uni2081" unicode="&#x2081;" 
d="M286 0v73h-84v317h-63l-122 -82l42 -61l59 40v-214h-85v-73h253z" />
    <glyph glyph-name="uni2082" unicode="&#x2082;" 
d="M279 73h-140l96 105l33 44l11 56v10l-28 73l-101 35l-97 -31l-32 -95v-10h84l12 49l30 14h5l31 -12l12 -38v-5l-6 -27l-19 -24l-149 -164v-53h258v73z" />
    <glyph glyph-name="uni2083" unicode="&#x2083;" 
d="M102 125h-84v-7l33 -92l99 -33l101 38l30 74v9l-14 52l-33 33l32 32l13 52v9l-28 69l-101 35l-97 -31l-32 -95v-10h84l12 49l30 14h5l31 -11l12 -29v-6l-11 -31l-32 -10h-52v-74h53l33 -11l12 -32v-5l-14 -36l-32 -12h-5l-32 13z" />
    <glyph glyph-name="uni2084" unicode="&#x2084;" 
d="M163 256l-1 -26v-73h-38l-24 -2zM246 0v83h40v74h-40v233h-79l-154 -248v-59h149v-83h84z" />
    <glyph glyph-name="uni2085" unicode="&#x2085;" 
d="M18 125v-7l33 -92l99 -33l98 34l33 92v9l-33 92l-94 34l-29 -3l-27 -8l3 73h175v74h-245l-10 -214l72 -24l23 21l29 7h3l36 -12l14 -42v-5l-14 -42l-32 -13h-5l-32 13l-13 46h-84z" />
    <glyph glyph-name="uni2086" unicode="&#x2086;" 
d="M151 173h3l31 -11l13 -37v-10l-14 -36l-32 -13h-3l-33 16l-13 48v15l21 21zM261 396l-107 -15l-80 -58l-43 -87l-12 -92v-8l34 -103l97 -40l98 34l33 91v5l-30 90l-79 33l-32 -5l-26 -12l10 26l14 22l50 35l73 10v74z" />
    <glyph glyph-name="uni2087" unicode="&#x2087;" 
d="M17 250h73v66h53l47 1l-134 -317h90l137 338v52h-266v-140z" />
    <glyph glyph-name="uni2088" unicode="&#x2088;" 
d="M152 323l31 -11l12 -30v-4l-11 -31l-32 -11h-4l-32 11l-12 31v4l13 30l30 11h5zM146 162h7l33 -11l12 -32v-6l-14 -36l-32 -11h-5l-31 11l-14 36v6l12 32zM150 -7l101 38l30 73v10l-14 53l-32 32l31 33l13 51v9l-28 69l-101 35l-100 -35l-29 -69v-9l13 -51l30 -33
l-33 -32l-13 -53v-10l30 -73z" />
    <glyph glyph-name="uni2089" unicode="&#x2089;" 
d="M148 216h-2l-31 12l-13 36v10l14 37l32 13h3l33 -17l13 -47v-17l-22 -20zM38 -7l108 15l80 58l43 88l12 92v7l-34 104l-98 39l-98 -33l-33 -91v-5l30 -90l79 -33l32 4l27 12l-11 -25l-14 -22l-50 -35l-73 -11v-74z" />
    <glyph glyph-name="uni208A" unicode="&#x208a;" 
d="M113 324v-92h-92v-74h92v-92h74v92h92v74h-92v92h-74z" />
    <glyph glyph-name="uni208B" unicode="&#x208b;" 
d="M21 158h258v74h-258v-74z" />
    <glyph glyph-name="uni208C" unicode="&#x208c;" 
d="M21 104h258v73h-258v-73zM21 212h258v74h-258v-74z" />
    <glyph glyph-name="uni208D" unicode="&#x208d;" horiz-adv-x="185" 
d="M21 190l18 -113l42 -77h86l-42 80l-21 110v10l21 109l42 81h-86l-42 -77l-18 -113v-10z" />
    <glyph glyph-name="uni208E" unicode="&#x208e;" horiz-adv-x="185" 
d="M163 200l-18 113l-42 77h-86l42 -81l21 -109v-10l-21 -110l-42 -80h86l42 77l18 113v10z" />
    <glyph glyph-name="Euro" unicode="&#x20ac;" horiz-adv-x="600" 
d="M108 257l75 -205l162 -64l161 64l50 188v10h-91l-28 -127l-85 -43h-8l-85 44l-45 133h170l45 92h-221v42h205l44 92h-247l42 164l92 53h8l87 -47l26 -153h91v31l-49 196l-162 65l-169 -73l-71 -236h-72v-92h70v-42h-70v-92h75z" />
    <glyph glyph-name="ruble" unicode="&#x20bd;" horiz-adv-x="600" 
d="M207 395v293h104l94 -26l48 -114v-13l-48 -114l-94 -26h-104zM207 304h101l169 43l82 185v20l-82 185l-169 43h-205v-385h-82v-91h82v-54h-82v-92h82v-158h104v158h200v92h-200v54z" />
    <glyph glyph-name="numero" unicode="&#x2116;" horiz-adv-x="1094" 
d="M712 202h337v77h-337v-77zM793 574v23l21 86l66 32l67 -32l21 -86v-23l-21 -86l-67 -32l-66 32zM1057 574v23l-43 140l-134 55l-134 -55l-42 -140v-23l42 -140l134 -56l134 56zM600 780h-99v-423l4 -173l-327 596h-111v-780h99v423l-4 173l327 -596h111v780z" />
    <glyph glyph-name="published" unicode="&#x2117;" horiz-adv-x="920" 
d="M384 401v153h94l52 -14l25 -59v-7l-25 -59l-52 -14h-94zM384 330h111l104 28l49 114v11l-49 114l-104 28h-204v-470h93v175zM106 390l104 251l250 103l251 -103l103 -251l-103 -250l-251 -104l-250 104zM58 390l118 -284l284 -118l284 118l118 284l-118 284l-284 118
l-284 -118z" />
    <glyph glyph-name="servicemark" unicode="&#x2120;" horiz-adv-x="536" 
d="M439 719l-2 -65v-124h50v270h-75l-50 -187l-50 187h-75v-270h49v124l-2 65l51 -189h54zM102 645l41 -13l11 -27v-2l-10 -27l-31 -10h-3l-34 14l-10 42h-50v-3l24 -73l71 -25l70 23l24 61v5l-20 54l-65 24l-40 14l-11 25v2l11 24l29 9h3l32 -14l9 -44h50v8l-21 71l-71 24
l-68 -22l-24 -59v-4l19 -53z" />
    <glyph glyph-name="trademark" unicode="&#x2122;" horiz-adv-x="536" 
d="M439 719l-2 -65v-124h50v270h-75l-50 -187l-50 187h-75v-270h49v124l-2 65l51 -189h54zM137 756h68v44h-187v-44h69v-226h50v226z" />
    <glyph glyph-name="uni2153" unicode="&#x2153;" horiz-adv-x="800" 
d="M286 390v73h-84v317h-63l-122 -82l42 -61l59 40v-214h-85v-73h253zM602 125h-84v-7l33 -92l99 -33l101 38l30 74v9l-14 52l-33 33l32 32l13 52v9l-28 69l-101 35l-97 -31l-32 -95v-10h84l12 49l30 14h5l31 -11l12 -29v-6l-11 -31l-32 -10h-52v-74h53l33 -11l12 -32v-5
l-14 -36l-32 -12h-5l-32 13zM164 0l576 780h-104l-576 -780h104z" />
    <glyph glyph-name="uni2154" unicode="&#x2154;" horiz-adv-x="800" 
d="M279 463h-140l96 105l33 44l11 56v10l-28 73l-101 35l-97 -31l-32 -95v-10h84l12 49l30 14h5l31 -12l12 -38v-5l-6 -27l-19 -24l-149 -164v-53h258v73zM602 125h-84v-7l33 -92l99 -33l101 38l30 74v9l-14 52l-33 33l32 32l13 52v9l-28 69l-101 35l-97 -31l-32 -95v-10h84
l12 49l30 14h5l31 -11l12 -29v-6l-11 -31l-32 -10h-52v-74h53l33 -11l12 -32v-5l-14 -36l-32 -12h-5l-32 13zM164 0l576 780h-104l-576 -780h104z" />
    <glyph glyph-name="uni2155" unicode="&#x2155;" horiz-adv-x="800" 
d="M286 390v73h-84v317h-63l-122 -82l42 -61l59 40v-214h-85v-73h253zM518 125v-7l33 -92l99 -33l98 34l33 92v9l-33 92l-94 34l-29 -3l-27 -8l3 73h175v74h-245l-10 -214l72 -24l23 21l29 7h3l36 -12l14 -42v-5l-14 -42l-32 -13h-5l-32 13l-13 46h-84zM164 0l576 780h-104
l-576 -780h104z" />
    <glyph glyph-name="uni2156" unicode="&#x2156;" horiz-adv-x="800" 
d="M279 463h-140l96 105l33 44l11 56v10l-28 73l-101 35l-97 -31l-32 -95v-10h84l12 49l30 14h5l31 -12l12 -38v-5l-6 -27l-19 -24l-149 -164v-53h258v73zM518 125v-7l33 -92l99 -33l98 34l33 92v9l-33 92l-94 34l-29 -3l-27 -8l3 73h175v74h-245l-10 -214l72 -24l23 21
l29 7h3l36 -12l14 -42v-5l-14 -42l-32 -13h-5l-32 13l-13 46h-84zM164 0l576 780h-104l-576 -780h104z" />
    <glyph glyph-name="uni2157" unicode="&#x2157;" horiz-adv-x="800" 
d="M102 515h-84v-7l33 -92l99 -33l101 38l30 74v9l-14 52l-33 33l32 32l13 52v9l-28 69l-101 35l-97 -31l-32 -95v-10h84l12 49l30 14h5l31 -11l12 -29v-6l-11 -31l-32 -10h-52v-74h53l33 -11l12 -32v-5l-14 -36l-32 -12h-5l-32 13zM518 125v-7l33 -92l99 -33l98 34l33 92v9
l-33 92l-94 34l-29 -3l-27 -8l3 73h175v74h-245l-10 -214l72 -24l23 21l29 7h3l36 -12l14 -42v-5l-14 -42l-32 -13h-5l-32 13l-13 46h-84zM164 0l576 780h-104l-576 -780h104z" />
    <glyph glyph-name="uni2158" unicode="&#x2158;" horiz-adv-x="800" 
d="M163 646l-1 -26v-73h-38l-24 -2zM246 390v83h40v74h-40v233h-79l-154 -248v-59h149v-83h84zM518 125v-7l33 -92l99 -33l98 34l33 92v9l-33 92l-94 34l-29 -3l-27 -8l3 73h175v74h-245l-10 -214l72 -24l23 21l29 7h3l36 -12l14 -42v-5l-14 -42l-32 -13h-5l-32 13l-13 46
h-84zM164 0l576 780h-104l-576 -780h104z" />
    <glyph glyph-name="uni2159" unicode="&#x2159;" horiz-adv-x="800" 
d="M651 173h3l31 -11l13 -37v-10l-14 -36l-32 -13h-3l-33 16l-13 48v15l21 21zM286 390v73h-84v317h-63l-122 -82l42 -61l59 40v-214h-85v-73h253zM761 396l-107 -15l-80 -58l-43 -87l-12 -92v-8l34 -103l97 -40l98 34l33 91v5l-30 90l-79 33l-32 -5l-26 -12l10 26l14 22
l50 35l73 10v74zM164 0l576 780h-104l-576 -780h104z" />
    <glyph glyph-name="uni215A" unicode="&#x215a;" horiz-adv-x="800" 
d="M651 173h3l31 -11l13 -37v-10l-14 -36l-32 -13h-3l-33 16l-13 48v15l21 21zM18 515v-7l33 -92l99 -33l98 34l33 92v9l-33 92l-94 34l-29 -3l-27 -8l3 73h175v74h-245l-10 -214l72 -24l23 21l29 7h3l36 -12l14 -42v-5l-14 -42l-32 -13h-5l-32 13l-13 46h-84zM761 396
l-107 -15l-80 -58l-43 -87l-12 -92v-8l34 -103l97 -40l98 34l33 91v5l-30 90l-79 33l-32 -5l-26 -12l10 26l14 22l50 35l73 10v74zM164 0l576 780h-104l-576 -780h104z" />
    <glyph glyph-name="uni215B" unicode="&#x215b;" horiz-adv-x="800" 
d="M652 323l31 -11l12 -30v-4l-11 -31l-32 -11h-4l-32 11l-12 31v4l13 30l30 11h5zM646 162h7l33 -11l12 -32v-6l-14 -36l-32 -11h-5l-31 11l-14 36v6l12 32zM286 390v73h-84v317h-63l-122 -82l42 -61l59 40v-214h-85v-73h253zM164 0l576 780h-104l-576 -780h104zM650 -7
l101 38l30 73v10l-14 53l-32 32l31 33l13 51v9l-28 69l-101 35l-100 -35l-29 -69v-9l13 -51l30 -33l-33 -32l-13 -53v-10l30 -73z" />
    <glyph glyph-name="uni215C" unicode="&#x215c;" horiz-adv-x="800" 
d="M652 323l31 -11l12 -30v-4l-11 -31l-32 -11h-4l-32 11l-12 31v4l13 30l30 11h5zM646 162h7l33 -11l12 -32v-6l-14 -36l-32 -11h-5l-31 11l-14 36v6l12 32zM102 515h-84v-7l33 -92l99 -33l101 38l30 74v9l-14 52l-33 33l32 32l13 52v9l-28 69l-101 35l-97 -31l-32 -95v-10
h84l12 49l30 14h5l31 -11l12 -29v-6l-11 -31l-32 -10h-52v-74h53l33 -11l12 -32v-5l-14 -36l-32 -12h-5l-32 13zM164 0l576 780h-104l-576 -780h104zM650 -7l101 38l30 73v10l-14 53l-32 32l31 33l13 51v9l-28 69l-101 35l-100 -35l-29 -69v-9l13 -51l30 -33l-33 -32
l-13 -53v-10l30 -73z" />
    <glyph glyph-name="uni215D" unicode="&#x215d;" horiz-adv-x="800" 
d="M652 323l31 -11l12 -30v-4l-11 -31l-32 -11h-4l-32 11l-12 31v4l13 30l30 11h5zM646 162h7l33 -11l12 -32v-6l-14 -36l-32 -11h-5l-31 11l-14 36v6l12 32zM18 515v-7l33 -92l99 -33l98 34l33 92v9l-33 92l-94 34l-29 -3l-27 -8l3 73h175v74h-245l-10 -214l72 -24l23 21
l29 7h3l36 -12l14 -42v-5l-14 -42l-32 -13h-5l-32 13l-13 46h-84zM164 0l576 780h-104l-576 -780h104zM650 -7l101 38l30 73v10l-14 53l-32 32l31 33l13 51v9l-28 69l-101 35l-100 -35l-29 -69v-9l13 -51l30 -33l-33 -32l-13 -53v-10l30 -73z" />
    <glyph glyph-name="uni215E" unicode="&#x215e;" horiz-adv-x="800" 
d="M652 323l31 -11l12 -30v-4l-11 -31l-32 -11h-4l-32 11l-12 31v4l13 30l30 11h5zM646 162h7l33 -11l12 -32v-6l-14 -36l-32 -11h-5l-31 11l-14 36v6l12 32zM17 640h73v66h53l47 1l-134 -317h90l137 338v52h-266v-140zM164 0l576 780h-104l-576 -780h104zM650 -7l101 38
l30 73v10l-14 53l-32 32l31 33l13 51v9l-28 69l-101 35l-100 -35l-29 -69v-9l13 -51l30 -33l-33 -32l-13 -53v-10l30 -73z" />
    <glyph glyph-name="uni215F" unicode="&#x215f;" horiz-adv-x="500" 
d="M286 390v73h-84v317h-63l-122 -82l42 -61l59 40v-214h-85v-73h253zM164 0l576 780h-104l-576 -780h104z" />
    <glyph glyph-name="arrowleft" unicode="&#x2190;" horiz-adv-x="920" 
d="M448 780l-390 -390l390 -390h131l-344 344h615v92h-615l344 344h-131z" />
    <glyph glyph-name="arrowup" unicode="&#x2191;" horiz-adv-x="920" 
d="M70 271l344 344v-615h92v615l344 -344v131l-390 390l-390 -390v-131z" />
    <glyph glyph-name="arrowright" unicode="&#x2192;" horiz-adv-x="920" 
d="M341 780l344 -344h-615v-92h615l-344 -344h131l390 390l-390 390h-131z" />
    <glyph glyph-name="arrowdown" unicode="&#x2193;" horiz-adv-x="920" 
d="M70 378l390 -390l390 390v131l-344 -344v615h-92v-615l-344 344v-131z" />
    <glyph glyph-name="uni2196" unicode="&#x2196;" horiz-adv-x="920" 
d="M163 0v622l634 -634l65 65l-634 634h622v93h-780v-780h93z" />
    <glyph glyph-name="uni2197" unicode="&#x2197;" horiz-adv-x="920" 
d="M70 687h622l-634 -634l65 -65l634 634v-622h93v780h-780v-93z" />
    <glyph glyph-name="uni2198" unicode="&#x2198;" horiz-adv-x="920" 
d="M70 0h780v780h-93v-622l-634 634l-65 -65l634 -634h-622v-93z" />
    <glyph glyph-name="uni2199" unicode="&#x2199;" horiz-adv-x="920" 
d="M850 93h-622l634 634l-65 65l-634 -634v622h-93v-780h780v93z" />
    <glyph glyph-name="minus" unicode="&#x2212;" horiz-adv-x="600" 
d="M46 344h508v92h-508v-92z" />
    <glyph glyph-name="approxequal" unicode="&#x2248;" horiz-adv-x="600" 
d="M179 566l-89 -26l-56 -56l52 -53l38 35l57 19l111 -34l129 -35l89 27l56 55l-52 53l-38 -35l-57 -19l-111 35zM179 358l-89 -27l-56 -56l52 -52l38 34l57 19l111 -34l129 -35l89 27l56 56l-52 52l-38 -34l-57 -19l-111 35z" />
    <glyph glyph-name="notequal" unicode="&#x2260;" horiz-adv-x="600" 
d="M46 448h247l-66 -116h-181v-93h127l-66 -116h79l66 116h302v93h-248l66 116h182v93h-128l67 116h-79l-67 -116h-301v-93z" />
    <glyph glyph-name="equivalence" unicode="&#x2261;" horiz-adv-x="600" 
d="M46 344h508v92h-508v-92zM46 135h508v93h-508v-93zM46 552h508v93h-508v-93z" />
    <glyph glyph-name="lessequal" unicode="&#x2264;" horiz-adv-x="600" 
d="M554 170l-508 169v-67l508 -169v67zM554 576v101l-508 -169v-100l508 -169v102l-372 117z" />
    <glyph glyph-name="greaterequal" unicode="&#x2265;" horiz-adv-x="600" 
d="M46 103l508 169v67l-508 -169v-67zM46 341v-102l508 169v100l-508 169v-101l371 -118z" />
    <glyph glyph-name="squaremultiply" unicode="&#x22a0;" horiz-adv-x="920" 
d="M285 149l175 175l175 -175l66 66l-175 175l175 175l-66 66l-175 -175l-175 175l-66 -66l175 -175l-175 -175zM759 689v-598h-598v598h598zM850 0v780h-780v-780h780z" />
    <glyph glyph-name="house" unicode="&#x2302;" horiz-adv-x="850" 
d="M780 0v450l-355 340l-355 -340v-450h710z" />
    <glyph glyph-name="whitesquare" unicode="&#x25a1;" horiz-adv-x="920" 
d="M759 689v-598h-598v598h598zM850 0v780h-780v-780h780z" />
    <glyph glyph-name="blacksmallsquare" unicode="&#x25aa;" horiz-adv-x="680" 
d="M600 0v530h-530v-530h530z" />
    <glyph glyph-name="whitesmallsquare" unicode="&#x25ab;" horiz-adv-x="680" 
d="M509 439v-348h-348v348h348zM70 530v-530h530v530h-530z" />
    <glyph glyph-name="triagup" unicode="&#x25b2;" horiz-adv-x="930" 
d="M515 792h-100l-352 -792h102l300 684l300 -684h102z" />
    <glyph glyph-name="triagrt" unicode="&#x25ba;" horiz-adv-x="930" 
d="M872 440l-792 352v-102l684 -300l-684 -300v-102l792 352v100z" />
    <glyph glyph-name="triagdn" unicode="&#x25bc;" horiz-adv-x="930" 
d="M415 -12h100l352 792h-102l-300 -684l-300 684h-102z" />
    <glyph glyph-name="triaglf" unicode="&#x25c4;" horiz-adv-x="930" 
d="M58 440v-100l792 -352v102l-684 300l684 300v102z" />
    <glyph glyph-name="blackcircle" unicode="&#x25cf;" horiz-adv-x="920" 
d="M58 390l118 -284l284 -118l284 118l118 284l-118 284l-284 118l-284 -118z" />
    <glyph glyph-name="uni25E2" unicode="&#x25e2;" horiz-adv-x="930" 
d="M886 35l-310 808l-72 -72l272 -696l-696 272l-72 -72l808 -310z" />
    <glyph glyph-name="uni25E3" unicode="&#x25e3;" horiz-adv-x="930" 
d="M44 35l70 -70l808 310l-72 72l-696 -272l272 696l-72 72z" />
    <glyph glyph-name="uni25E4" unicode="&#x25e4;" horiz-adv-x="930" 
d="M44 746l310 -808l72 72l-272 696l696 -272l72 72l-808 310z" />
    <glyph glyph-name="uni25E5" unicode="&#x25e5;" horiz-adv-x="930" 
d="M886 746l-70 70l-808 -310l72 -72l696 272l-272 -696l72 -72z" />
    <glyph glyph-name="whitecircle" unicode="&#x25ef;" horiz-adv-x="920" 
d="M149 390l91 220l220 91l220 -91l91 -220l-91 -220l-220 -91l-220 91zM58 390l118 -284l284 -118l284 118l118 284l-118 284l-284 118l-284 -118z" />
    <glyph glyph-name="uni2605" unicode="&#x2605;" horiz-adv-x="880" 
d="M440 180l260 -190l-99 307l260 189h-322l-99 306l-99 -306h-322l260 -189l-99 -307z" />
    <glyph glyph-name="ballotboxwithx" unicode="&#x2612;" horiz-adv-x="680" 
d="M285 149l50 50l50 -50l66 66l-50 50l50 50l-66 66l-50 -50l-50 50l-66 -66l50 -50l-50 -50zM509 439v-348h-348v348h348zM70 530v-530h530v530h-530z" />
    <glyph glyph-name="uni263C" unicode="&#x263c;" horiz-adv-x="960" 
d="M521 191l21 -32l17 -64l20 -50l49 -21l15 2l13 6l-24 9l-24 50l4 31l4 31l-12 47l-14 19l172 -113l-113 172l46 -10l49 -31l24 -16l27 -5l38 11l24 35l-10 -6l-25 -6l-43 22l-35 46l-42 25l-24 4l202 42l-202 42l32 21l64 17l51 20l20 49l-2 15l-6 13l-9 -24l-50 -24
l-31 4l-31 4l-47 -12l-19 -14l113 172l-172 -113l10 46l31 49l16 24l5 27l-11 38l-35 24l6 -10l6 -25l-22 -43l-46 -35l-25 -42l-4 -24l-42 202l-42 -202l-21 32l-17 64l-20 51l-49 20l-15 -2l-13 -6l24 -9l24 -50l-4 -31l-4 -31l12 -47l14 -19l-172 113l113 -172l-46 10
l-49 31l-24 16l-27 5l-38 -11l-24 -35l10 6l25 6l43 -22l35 -46l42 -25l24 -4l-202 -42l202 -42l-32 -21l-64 -17l-50 -20l-21 -49l2 -15l6 -13l9 24l50 24l31 -4l31 -4l47 12l19 14l-113 -172l172 113l-10 -46l-31 -49l-16 -24l-5 -27l11 -38l35 -24l-6 10l-6 25l22 43
l46 35l25 42l4 24l42 -202z" />
    <glyph glyph-name="uni263E" unicode="&#x263e;" horiz-adv-x="960" 
d="M624 728l49 -4l47 -11l-112 57l-128 20l-283 -117l-117 -283l117 -283l283 -117l128 20l112 57l-47 -11l-49 -4l-229 99l-95 239l95 239z" />
    <glyph glyph-name="spade" unicode="&#x2660;" horiz-adv-x="900" 
d="M451 790h-2l-89 -108l-144 -122l-115 -95l-49 -131l51 -124l125 -50l124 49l76 112l3 -1l-26 -173l-56 -147h202l-56 147l-26 173l3 1l76 -112l124 -49l125 50l51 124l-49 131l-115 95l-144 122z" />
    <glyph glyph-name="club" unicode="&#x2663;" horiz-adv-x="900" 
d="M349 0h202l-56 147l-26 173l3 1l76 -112l124 -49l125 50l51 124l-48 129l-126 51l-46 -7l-38 -16l-2 2l27 54l11 63l-50 127l-126 53l-126 -53l-50 -127l11 -63l27 -54l-2 -2l-38 16l-46 7l-126 -51l-48 -129l51 -124l125 -50l124 49l76 112l3 -1l-26 -173z" />
    <glyph glyph-name="heart" unicode="&#x2665;" horiz-adv-x="900" 
d="M451 -10l89 120l144 173l108 141l56 160l-51 147l-140 59l-138 -47l-67 -110h-4l-67 110l-138 47l-140 -59l-51 -147l56 -160l108 -141l144 -173l89 -120h2z" />
    <glyph glyph-name="diamond" unicode="&#x2666;" horiz-adv-x="900" 
d="M817 390l-203 189l-163 211h-2l-163 -211l-203 -189l203 -189l163 -211h2l163 211z" />
    <glyph glyph-name="uni267B" unicode="&#x267b;" horiz-adv-x="959" 
d="M806 527l-149 -86l116 -201l72 37l40 89l-3 25l-7 19zM446 41v173h-232l-5 -81l58 -79l24 -10l20 -3h135zM200 598l150 -86l116 201l-68 45l-97 -10l-21 -15l-13 -16zM404 779l34 -9l57 -48l72 -125l-41 -24l173 -31l61 166l-43 -24l-28 49l-41 40l-51 7h-193v-1z
M186 122l-9 35l13 73l37 64l35 61l41 -24l-59 166l-174 -31l42 -24l-28 -49l-14 -56l18 -47l96 -168h2zM863 266l-25 -26l-70 -26h-145v49l-113 -135l113 -136v49h57l56 16l32 40l96 167z" />
    <glyph glyph-name="uni267C" unicode="&#x267c;" horiz-adv-x="960" 
d="M64 390l116 -280l280 -116l280 116l116 280l-116 280l-280 116l-280 -116zM755 294l-75 -130l-24 -30l-44 -13h-44v-38l-88 105l88 105v-38h112l54 20l20 20zM763 407l6 -14l2 -20l-31 -69l-56 -29l-90 156l116 67zM228 184l-75 130l-14 36l11 44l22 38l-33 19l135 24
l46 -129l-32 19l-56 -97l-10 -57l7 -27h-1zM322 121l-15 2l-19 8l-44 61l3 63h180v-134h-105zM394 694h150l39 -5l32 -32l22 -38l33 19l-47 -129l-134 24l32 19l-56 97l-44 37l-27 7v1zM292 645l10 12l16 12l75 8l53 -35l-90 -156l-116 67z" />
    <glyph glyph-name="uni267D" unicode="&#x267d;" horiz-adv-x="960" 
d="M98 390l106 256l256 106l256 -106l106 -256l-106 -256l-256 -106l-256 106zM60 390l117 -283l283 -117l283 117l117 283l-117 283l-283 117l-283 -117zM754 295l-20 -20l-54 -20h-112v38l-88 -105l88 -105v38h44l44 13l24 30l75 130zM710 498l-116 -67l90 -156l56 29
l31 69l-2 20l-6 14zM229 184l-7 27l10 57l56 97l32 -19l-46 129l-135 -24l33 -19l-22 -38l-11 -44l14 -36l75 -130h1zM427 121v134h-180l-3 -63l44 -61l19 -8l15 -2h105zM394 693l27 -7l44 -37l56 -97l-32 -19l134 -24l47 129l-33 -19l-22 38l-32 32l-39 5h-150v-1zM240 553
l116 -67l90 156l-53 35l-75 -8l-16 -12l-10 -12z" />
    <glyph glyph-name="mediumwhitecircle" unicode="&#x26aa;" horiz-adv-x="670" 
d="M149 265l54 132l132 54l132 -54l54 -132l-54 -132l-132 -54l-132 54zM58 265l81 -196l196 -81l196 81l81 196l-81 196l-196 81l-196 -81z" />
    <glyph glyph-name="mediumblackcircle" unicode="&#x26ab;" horiz-adv-x="670" 
d="M58 265l81 -196l196 -81l196 81l81 196l-81 196l-196 81l-196 -81z" />
    <glyph glyph-name="anglebracketleft" unicode="&#x3008;" horiz-adv-x="334" 
d="M305 840h-105l-162 -480l162 -480h105l-162 480z" />
    <glyph glyph-name="anglebracketright" unicode="&#x3009;" horiz-adv-x="334" 
d="M29 -120h105l162 480l-162 480h-105l162 -480z" />
    <glyph glyph-name="fi" unicode="&#xe38c;" horiz-adv-x="625" 
d="M565 754h-114v-114h114v114zM458 0h100v530h-100v-530zM210 629l24 76l69 19l32 -3l23 -5v84l-25 8l-53 4l-122 -39l-48 -133v-110h-83v-89h83v-441h100v441h138v89h-138v99z" />
    <glyph glyph-name="fl" unicode="&#xe38d;" horiz-adv-x="625" 
d="M458 0h100v800h-100v-800zM210 629l24 76l69 19l32 -3l23 -5v84l-25 8l-53 4l-122 -39l-48 -133v-110h-83v-89h83v-441h100v441h138v89h-138v99z" />
    <glyph glyph-name="invertedbreve" unicode="&#xe411;" horiz-adv-x="499" 
d="M250 792l-132 -52l-38 -133h77l23 77l70 27l70 -27l23 -77h77l-38 133z" />
    <glyph glyph-name="doublegrave" unicode="&#xe412;" horiz-adv-x="500" 
d="M41 780l99 -173h85l-91 173h-93zM189 780l87 -173h85l-78 173h-94z" />
    <glyph glyph-name="caronSlovak" unicode="&#xe413;" horiz-adv-x="500" 
d="M317 800v-193h52l21 193h-73z" />
    <glyph glyph-name="dotbelow" unicode="&#xe415;" horiz-adv-x="602" 
d="M301 -74h-102v-103h102v103z" />
    <glyph glyph-name="altcedilla" unicode="&#xe416;" horiz-adv-x="602" 
d="M298 -126l-13 -22l-41 -7l-39 5l-31 11l-18 -52l40 -16l57 -6l80 20l29 62l-30 63l-75 19l-38 -3l-29 -7v-46l23 5l31 3l41 -7z" />
    <glyph glyph-name="grave.cap" unicode="&#xe421;" horiz-adv-x="500" 
d="M136 950l63 -110h102l-58 110h-107z" />
    <glyph glyph-name="acute.cap" unicode="&#xe422;" horiz-adv-x="500" 
d="M257 950l-58 -110h102l63 110h-107z" />
    <glyph glyph-name="circumflex.cap" unicode="&#xe423;" horiz-adv-x="500" 
d="M184 840l66 57l66 -57h96l-113 110h-98l-113 -110h96z" />
    <glyph glyph-name="tilde.cap" unicode="&#xe424;" horiz-adv-x="500" 
d="M351 940l-10 -31l-25 -8l-62 26l-80 25l-62 -23l-25 -79h62l10 31l25 8l62 -25l80 -26l62 23l25 79h-62z" />
    <glyph glyph-name="macron.cap" unicode="&#xe425;" horiz-adv-x="500" 
d="M124 860h252v70h-252v-70z" />
    <glyph glyph-name="breve.cap" unicode="&#xe426;" horiz-adv-x="500" 
d="M250 827l125 36l34 87h-75l-20 -44l-64 -16l-64 16l-20 44h-75l35 -87z" />
    <glyph glyph-name="invertedbreve.cap" unicode="&#xe427;" horiz-adv-x="500" 
d="M250 963l-124 -36l-35 -87h75l20 44l64 16l64 -16l20 -44h75l-34 87z" />
    <glyph glyph-name="dotaccent.cap" unicode="&#xe428;" horiz-adv-x="500" 
d="M299 936h-98v-82h98v82z" />
    <glyph glyph-name="dieresis.cap" unicode="&#xe429;" horiz-adv-x="500" 
d="M381 936h-99v-82h99v82zM218 936h-99v-82h99v82z" />
    <glyph glyph-name="ring.cap" unicode="&#xe42a;" horiz-adv-x="500" 
d="M196 864l16 38l38 16l38 -16l16 -38l-16 -39l-38 -16l-38 16zM152 864l29 -70l69 -29l69 29l29 70l-29 69l-69 29l-69 -29z" />
    <glyph glyph-name="hungarumlaut.cap" unicode="&#xe42b;" horiz-adv-x="500" 
d="M331 950l-58 -110h94l62 110h-98zM187 950l-54 -110h94l58 110h-98z" />
    <glyph glyph-name="doublegrave.cap" unicode="&#xe42c;" horiz-adv-x="500" 
d="M71 950l62 -110h94l-58 110h-98zM215 950l58 -110h94l-54 110h-98z" />
    <glyph glyph-name="caron.cap" unicode="&#xe42d;" horiz-adv-x="500" 
d="M88 950l113 -110h98l113 110h-96l-66 -58l-66 58h-96z" />
    <glyph glyph-name="commaaccent.cap" unicode="&#xe42e;" horiz-adv-x="500" 
d="M201 840h98v60h-52l20 24l41 6v34l-81 -24l-26 -64v-36z" />
    <glyph glyph-name="exclamdown.cap" unicode="&#xe441;" horiz-adv-x="234" 
d="M174 780h-114v-114h114v114zM179 0l-27 577h-70l-27 -577h124z" />
    <glyph glyph-name="questiondown.cap" unicode="&#xe444;" horiz-adv-x="470" 
d="M180 666h114v114h-114v-114zM231 79l-81 34l-22 87l76 162l68 215h-69l-93 -190l-85 -193l46 -146l160 -60l169 75l45 195v13h-102l-23 -142z" />
    <glyph glyph-name="guilsinglleft.cap" unicode="&#xe451;" horiz-adv-x="309" 
d="M259 588l-209 -151v-94l209 -151v94l-136 104l136 104v94z" />
    <glyph glyph-name="guilsinglright.cap" unicode="&#xe452;" horiz-adv-x="309" 
d="M50 494l134 -104l-134 -104v-94l209 151v94l-209 151v-94z" />
    <glyph glyph-name="guillemotleft.cap" unicode="&#xe453;" horiz-adv-x="534" 
d="M484 588l-208 -151v-94l208 -151v94l-135 104l135 104v94zM259 588l-209 -151v-94l209 -151v94l-136 104l136 104v94z" />
    <glyph glyph-name="guillemotright.cap" unicode="&#xe454;" horiz-adv-x="534" 
d="M276 494l134 -104l-134 -104v-94l208 151v94l-208 151v-94zM50 494l134 -104l-134 -104v-94l209 151v94l-209 151v-94z" />
    <glyph glyph-name="slash.cap" unicode="&#xe461;" horiz-adv-x="343" 
d="M125 0l192 780h-100l-192 -780h100z" />
    <glyph glyph-name="backslash.cap" unicode="&#xe462;" horiz-adv-x="343" 
d="M25 780l192 -780h100l-192 780h-100z" />
    <glyph glyph-name="bar.cap" unicode="&#xe463;" horiz-adv-x="223" 
d="M61 0h100v780h-100v-780z" />
    <glyph glyph-name="doublebar.cap" unicode="&#xe464;" horiz-adv-x="374" 
d="M213 0h99v780h-99v-780zM61 0h100v780h-100v-780z" />
    <glyph glyph-name="brokenbar.cap" unicode="&#xe465;" horiz-adv-x="223" 
d="M61 0h100v359h-100v-359zM61 421h100v359h-100v-359z" />
    <glyph glyph-name="bullet.cap" unicode="&#xe466;" horiz-adv-x="414" 
d="M348 531h-282v-282h282v282z" />
    <glyph glyph-name="onethirdemdash" unicode="&#xe471;" horiz-adv-x="333" 
d="M293 305v90h-253v-90h253z" />
    <glyph glyph-name="threequarteremdash" unicode="&#xe472;" horiz-adv-x="750" 
d="M40 305h670v90h-670v-90z" />
    <glyph glyph-name="periodcentered.cap" unicode="&#xe481;" horiz-adv-x="234" 
d="M174 447h-114v-114h114v114z" />
    <glyph glyph-name="hyphen.cap" unicode="&#xe482;" horiz-adv-x="320" 
d="M40 345h257v90h-257v-90z" />
    <glyph glyph-name="onethirdemdash.cap" unicode="&#xe483;" horiz-adv-x="333" 
d="M293 345v90h-248v-90h248z" />
    <glyph glyph-name="endash.cap" unicode="&#xe484;" horiz-adv-x="500" 
d="M40 345h420v90h-420v-90z" />
    <glyph glyph-name="threequarteremdash.cap" unicode="&#xe485;" horiz-adv-x="750" 
d="M40 345h670v90h-670v-90z" />
    <glyph glyph-name="emdash.cap" unicode="&#xe486;" horiz-adv-x="1000" 
d="M40 345h920v90h-920v-90z" />
    <glyph glyph-name="figuredash.cap" unicode="&#xe487;" horiz-adv-x="600" 
d="M40 345h520v90h-520v-90z" />
    <glyph glyph-name="uni2015.cap" unicode="&#xe488;" horiz-adv-x="1200" 
d="M40 345h1120v90h-1120v-90z" />
    <glyph glyph-name="parenleft.cap" unicode="&#xe491;" horiz-adv-x="334" 
d="M54 380l36 -216l86 -164h106l-87 168l-39 212v20l39 212l87 168h-106l-86 -164l-36 -216v-20z" />
    <glyph glyph-name="parenright.cap" unicode="&#xe492;" horiz-adv-x="334" 
d="M280 400l-35 216l-86 164h-107l87 -168l39 -212v-20l-39 -212l-87 -168h107l86 164l35 216v20z" />
    <glyph glyph-name="bracketleft.cap" unicode="&#xe493;" horiz-adv-x="334" 
d="M64 780v-780h232v91h-131v598h131v91h-232z" />
    <glyph glyph-name="bracketright.cap" unicode="&#xe494;" horiz-adv-x="334" 
d="M271 0v780h-232v-91h130v-598h-130v-91h232z" />
    <glyph glyph-name="braceleft.cap" unicode="&#xe495;" horiz-adv-x="334" 
d="M296 780h-22l-118 -33l-50 -120v-106l-20 -68l-61 -17v-92l61 -17l20 -68v-106l50 -120l118 -33h22v91l-63 18l-25 68v106l-15 67l-41 40l41 40l15 67v95l23 77l65 20v91z" />
    <glyph glyph-name="braceright.cap" unicode="&#xe496;" horiz-adv-x="334" 
d="M39 689l65 -20l22 -77v-95l15 -67l41 -40l-41 -40l-15 -67v-106l-25 -68l-62 -18v-91h21l118 33l50 120v106l20 68l62 17v92l-62 17l-20 68v106l-50 120l-118 33h-21v-91z" />
    <glyph glyph-name="anglebracketleft.cap" unicode="&#xe497;" horiz-adv-x="334" 
d="M280 780h-105l-135 -390l135 -390h105l-135 390z" />
    <glyph glyph-name="anglebracketright.cap" unicode="&#xe498;" horiz-adv-x="334" 
d="M189 390l-135 -390h105l135 390l-135 390h-105z" />
    <glyph glyph-name="lowline" unicode="&#xe511;" horiz-adv-x="320" 
d="M46 0h228v90h-228v-90z" />
    <glyph glyph-name="underscoremonospace" unicode="&#xe512;" horiz-adv-x="600" 
d="M46 -153h508v90h-508v-90z" />
    <glyph glyph-name="at.cap" unicode="&#xe513;" horiz-adv-x="971" 
d="M585 491v-192l-42 -45l-73 -24l-92 43l-29 109v26l29 109l92 43l73 -24zM506 -40l-289 104l-112 306v40l111 304l285 106h6l247 -73l110 -255v-30l-49 -184l-139 -47v256l8 143h-79l-11 -69l-57 57l-92 24l-146 -69l-46 -165v-26l46 -165l146 -69l92 23l57 57l11 -68h66
l193 61l77 241v30l-130 304l-307 96l-341 -126l-132 -356v-40l134 -356l344 -126l184 24l190 98l-42 56l-157 -80l-172 -26h-6z" />
    <glyph glyph-name="zero.inf" unicode="&#xe571;" 
d="M194 79v-168l-11 -32l-32 -13h-2l-33 13l-11 32v168l11 32l33 12h2l32 -12zM278 -90v169l-32 84l-96 33l-96 -33l-32 -84v-169l32 -84l96 -33l96 33z" />
    <glyph glyph-name="one.inf" unicode="&#xe572;" 
d="M286 -200v73h-84v317h-63l-122 -82l42 -61l59 40v-214h-85v-73h253z" />
    <glyph glyph-name="two.inf" unicode="&#xe573;" 
d="M279 -127h-140l96 105l33 44l11 56v10l-28 73l-101 35l-97 -31l-32 -95v-10h84l12 49l30 14h5l31 -12l12 -38v-5l-6 -27l-19 -24l-149 -164v-53h258v73z" />
    <glyph glyph-name="three.inf" unicode="&#xe574;" 
d="M102 -75h-84v-7l33 -93l99 -32l101 38l30 74v9l-14 53l-33 32l32 32l13 52v9l-28 69l-101 35l-97 -31l-32 -95v-10h84l12 49l30 14h5l31 -11l12 -29v-6l-11 -31l-32 -10h-52v-74h53l33 -11l12 -32v-5l-14 -36l-32 -12h-5l-32 13z" />
    <glyph glyph-name="four.inf" unicode="&#xe575;" 
d="M163 56l-1 -26v-73h-38l-24 -2zM246 -200v83h40v74h-40v233h-79l-154 -248v-59h149v-83h84z" />
    <glyph glyph-name="five.inf" unicode="&#xe576;" 
d="M18 -75v-7l33 -93l99 -32l98 34l33 92v9l-33 92l-94 34l-29 -3l-27 -8l3 73h175v74h-245l-10 -214l72 -24l23 21l29 7h3l36 -12l14 -42v-5l-14 -43l-32 -12h-5l-32 13l-13 46h-84z" />
    <glyph glyph-name="six.inf" unicode="&#xe577;" 
d="M151 -27h3l31 -11l13 -37v-10l-14 -36l-32 -13h-3l-33 16l-13 48v16l21 20zM261 196l-107 -15l-80 -58l-43 -87l-12 -92v-8l34 -103l97 -40l98 34l33 91v5l-30 90l-79 33l-32 -5l-26 -12l10 26l14 22l50 35l73 10v74z" />
    <glyph glyph-name="seven.inf" unicode="&#xe578;" 
d="M17 50h73v66h53l47 1l-134 -317h90l137 338v52h-266v-140z" />
    <glyph glyph-name="eight.inf" unicode="&#xe579;" 
d="M152 123l31 -11l12 -30v-4l-11 -31l-32 -11h-4l-32 11l-12 31v4l13 30l30 11h5zM146 -38h7l33 -11l12 -32v-6l-14 -36l-32 -11h-5l-31 11l-14 36v6l12 32zM150 -207l101 37l30 74v10l-14 53l-32 33l31 32l13 51v9l-28 69l-101 35l-100 -35l-29 -69v-9l13 -51l30 -32
l-33 -33l-13 -53v-10l30 -74z" />
    <glyph glyph-name="nine.inf" unicode="&#xe57a;" 
d="M148 16h-2l-31 12l-13 36v10l14 37l32 13h3l33 -17l13 -47v-17l-22 -20zM38 -207l108 15l80 58l43 88l12 92v7l-34 104l-98 39l-98 -33l-33 -91v-5l30 -90l79 -33l32 5l27 12l-11 -26l-14 -22l-50 -35l-73 -11v-74z" />
    <glyph glyph-name="plus.inf" unicode="&#xe57b;" 
d="M113 124v-92h-92v-74h92v-92h74v92h92v74h-92v92h-74z" />
    <glyph glyph-name="minus.inf" unicode="&#xe57c;" 
d="M21 -42h258v74h-258v-74z" />
    <glyph glyph-name="equal.inf" unicode="&#xe57d;" 
d="M21 -96h258v73h-258v-73zM21 12h258v74h-258v-74z" />
    <glyph glyph-name="parenleft.inf" unicode="&#xe57e;" horiz-adv-x="185" 
d="M21 -10l18 -113l42 -77h86l-42 80l-21 110v10l21 109l42 81h-86l-42 -77l-18 -113v-10z" />
    <glyph glyph-name="parenright.inf" unicode="&#xe57f;" horiz-adv-x="185" 
d="M163 0l-18 113l-42 77h-86l42 -81l21 -109v-10l-21 -110l-42 -80h86l42 77l18 113v10z" />
    <glyph glyph-name="Anocross" unicode="&#xe731;" horiz-adv-x="621" 
d="M238 786l-215 -786h113l175 669l175 -669h112l-215 786h-145z" />
    <glyph glyph-name="blacksquare" unicode="&#xe740;" horiz-adv-x="920" 
d="M850 0v780h-780v-780h780z" />
    <glyph glyph-name="idotaccent" unicode="&#xe785;" horiz-adv-x="234" 
d="M174 754h-114v-114h114v114zM67 0h100v530h-100v-530z" />
    <glyph glyph-name="interrobangdown" unicode="&#xe935;" horiz-adv-x="470" 
d="M128 -17l22 87l48 76l-14 -260l-43 36zM180 416h114v114h-114v-114zM202 327l-92 -166l-85 -187l48 -131l158 -55l169 71l45 187v14h-102l-14 -112l-50 -60l-22 439h-55z" />
    <glyph glyph-name="interrobangdown.cap" unicode="&#xe99b;" horiz-adv-x="470" 
d="M128 200l23 90l46 86l-13 -290l-44 43zM180 666h114v114h-114v-114zM203 577l-93 -190l-85 -193l46 -146l160 -60l169 75l45 195v13h-102l-14 -118l-49 -64l-23 488h-54z" />
    <glyph glyph-name="registered.cap" unicode="&#xe99c;" horiz-adv-x="920" 
d="M376 401v153h94l52 -14l25 -59v-7l-25 -59l-52 -14h-94zM376 330h104l61 -175h99l-75 189l54 43l21 85v11l-50 114l-104 28h-203v-470h93v175zM106 390l104 251l250 103l251 -103l103 -251l-103 -250l-251 -104l-250 104zM58 390l118 -284l284 -118l284 118l118 284
l-118 284l-284 118l-284 -118z" />
    <glyph glyph-name="period.T" unicode="&#xf182;" 
d="M207 114h-114v-114h114v114z" />
    <glyph glyph-name="comma.T" unicode="&#xf183;" 
d="M207 114h-114v-114h58l-23 -55l-53 -16v-56l99 38l33 113v90z" />
    <glyph glyph-name="colon.T" unicode="&#xf184;" 
d="M207 447h-114v-114h114v114zM207 114h-114v-114h114v114z" />
    <glyph glyph-name="semicolon.T" unicode="&#xf185;" 
d="M207 447h-114v-114h114v114zM207 114h-114v-114h58l-23 -55l-53 -16v-56l99 38l33 113v90z" />
    <glyph glyph-name="onesixteenth" unicode="&#xf215;" horiz-adv-x="1100" 
d="M951 173h3l31 -11l13 -37v-10l-14 -36l-32 -13h-3l-33 16l-13 48v15l21 21zM786 0v73h-84v317h-63l-122 -82l42 -61l59 40v-214h-85v-73h253zM286 390v73h-84v317h-63l-122 -82l42 -61l59 40v-214h-85v-73h253zM1061 396l-107 -15l-80 -58l-43 -87l-12 -92v-8l34 -103
l97 -40l98 34l33 91v5l-30 90l-79 33l-32 -5l-26 -12l10 26l14 22l50 35l73 10v74zM164 0l576 780h-104l-576 -780h104z" />
    <glyph glyph-name="threesixteenths" unicode="&#xf216;" horiz-adv-x="1100" 
d="M951 173h3l31 -11l13 -37v-10l-14 -36l-32 -13h-3l-33 16l-13 48v15l21 21zM786 0v73h-84v317h-63l-122 -82l42 -61l59 40v-214h-85v-73h253zM102 515h-84v-7l33 -92l99 -33l101 38l30 74v9l-14 52l-33 33l32 32l13 52v9l-28 69l-101 35l-97 -31l-32 -95v-10h84l12 49
l30 14h5l31 -11l12 -29v-6l-11 -31l-32 -10h-52v-74h53l33 -11l12 -32v-5l-14 -36l-32 -12h-5l-32 13zM1061 396l-107 -15l-80 -58l-43 -87l-12 -92v-8l34 -103l97 -40l98 34l33 91v5l-30 90l-79 33l-32 -5l-26 -12l10 26l14 22l50 35l73 10v74zM164 0l576 780h-104
l-576 -780h104z" />
    <glyph glyph-name="fivesixteenths" unicode="&#xf217;" horiz-adv-x="1100" 
d="M951 173h3l31 -11l13 -37v-10l-14 -36l-32 -13h-3l-33 16l-13 48v15l21 21zM786 0v73h-84v317h-63l-122 -82l42 -61l59 40v-214h-85v-73h253zM18 515v-7l33 -92l99 -33l98 34l33 92v9l-33 92l-94 34l-29 -3l-27 -8l3 73h175v74h-245l-10 -214l72 -24l23 21l29 7h3l36 -12
l14 -42v-5l-14 -42l-32 -13h-5l-32 13l-13 46h-84zM1061 396l-107 -15l-80 -58l-43 -87l-12 -92v-8l34 -103l97 -40l98 34l33 91v5l-30 90l-79 33l-32 -5l-26 -12l10 26l14 22l50 35l73 10v74zM164 0l576 780h-104l-576 -780h104z" />
    <glyph glyph-name="sevensixteenths" unicode="&#xf218;" horiz-adv-x="1100" 
d="M951 173h3l31 -11l13 -37v-10l-14 -36l-32 -13h-3l-33 16l-13 48v15l21 21zM17 640h73v66h53l47 1l-134 -317h90l137 338v52h-266v-140zM786 0v73h-84v317h-63l-122 -82l42 -61l59 40v-214h-85v-73h253zM1061 396l-107 -15l-80 -58l-43 -87l-12 -92v-8l34 -103l97 -40
l98 34l33 91v5l-30 90l-79 33l-32 -5l-26 -12l10 26l14 22l50 35l73 10v74zM164 0l576 780h-104l-576 -780h104z" />
    <glyph glyph-name="ninesixteenths" unicode="&#xf219;" horiz-adv-x="1100" 
d="M951 173h3l31 -11l13 -37v-10l-14 -36l-32 -13h-3l-33 16l-13 48v15l21 21zM148 606h-2l-31 12l-13 36v10l14 37l32 13h3l33 -17l13 -47v-17l-22 -20zM786 0v73h-84v317h-63l-122 -82l42 -61l59 40v-214h-85v-73h253zM1061 396l-107 -15l-80 -58l-43 -87l-12 -92v-8
l34 -103l97 -40l98 34l33 91v5l-30 90l-79 33l-32 -5l-26 -12l10 26l14 22l50 35l73 10v74zM38 383l108 15l80 58l43 88l12 92v7l-34 104l-98 39l-98 -33l-33 -91v-5l30 -90l79 -33l32 4l27 12l-11 -25l-14 -22l-50 -35l-73 -11v-74zM164 0l576 780h-104l-576 -780h104z" />
    <glyph glyph-name="elevensixteenths" unicode="&#xf220;" horiz-adv-x="1400" 
d="M1251 173h3l31 -11l13 -37v-10l-14 -36l-32 -13h-3l-33 16l-13 48v15l21 21zM286 390v73h-84v317h-63l-122 -82l42 -61l59 40v-214h-85v-73h253zM586 390v73h-84v317h-63l-122 -82l42 -61l59 40v-214h-85v-73h253zM1086 0v73h-84v317h-63l-122 -82l42 -61l59 40v-214h-85
v-73h253zM1361 396l-107 -15l-80 -58l-43 -87l-12 -92v-8l34 -103l97 -40l98 34l33 91v5l-30 90l-79 33l-32 -5l-26 -12l10 26l14 22l50 35l73 10v74zM464 0l576 780h-104l-576 -780h104z" />
    <glyph glyph-name="thirteensixteenths" unicode="&#xf221;" horiz-adv-x="1400" 
d="M1251 173h3l31 -11l13 -37v-10l-14 -36l-32 -13h-3l-33 16l-13 48v15l21 21zM1086 0v73h-84v317h-63l-122 -82l42 -61l59 40v-214h-85v-73h253zM286 390v73h-84v317h-63l-122 -82l42 -61l59 40v-214h-85v-73h253zM402 515h-84v-7l33 -92l99 -33l101 38l30 74v9l-14 52
l-33 33l32 32l13 52v9l-28 69l-101 35l-97 -31l-32 -95v-10h84l12 49l30 14h5l31 -11l12 -29v-6l-11 -31l-32 -10h-52v-74h53l33 -11l12 -32v-5l-14 -36l-32 -12h-5l-32 13zM1361 396l-107 -15l-80 -58l-43 -87l-12 -92v-8l34 -103l97 -40l98 34l33 91v5l-30 90l-79 33
l-32 -5l-26 -12l10 26l14 22l50 35l73 10v74zM464 0l576 780h-104l-576 -780h104z" />
    <glyph glyph-name="fifteensixteenths" unicode="&#xf222;" horiz-adv-x="1400" 
d="M1251 173h3l31 -11l13 -37v-10l-14 -36l-32 -13h-3l-33 16l-13 48v15l21 21zM1086 0v73h-84v317h-63l-122 -82l42 -61l59 40v-214h-85v-73h253zM286 390v73h-84v317h-63l-122 -82l42 -61l59 40v-214h-85v-73h253zM318 515v-7l33 -92l99 -33l98 34l33 92v9l-33 92l-94 34
l-29 -3l-27 -8l3 73h175v74h-245l-10 -214l72 -24l23 21l29 7h3l36 -12l14 -42v-5l-14 -42l-32 -13h-5l-32 13l-13 46h-84zM1361 396l-107 -15l-80 -58l-43 -87l-12 -92v-8l34 -103l97 -40l98 34l33 91v5l-30 90l-79 33l-32 -5l-26 -12l10 26l14 22l50 35l73 10v74zM464 0
l576 780h-104l-576 -780h104z" />
    <glyph glyph-name="commaaccent" unicode="&#xf6c3;" horiz-adv-x="602" 
d="M301 -51h-102v-78h57l-26 -37l-49 -10v-43l90 28l30 86v54z" />
    </font>
</defs>
</svg>
