<?xml version="1.0" standalone="no"?>
<!DOCTYPE svg PUBLIC "-//W3C//DTD SVG 1.1//EN" "http://www.w3.org/Graphics/SVG/1.1/DTD/svg11.dtd" >
<svg>
<metadata>
Created by FontForge 20120731 at Sun Aug 14 13:25:04 2016
 By www-data
Copyright (c) 2014, Cooper Hewitt Smithsonian Design Museum (cooperhewitt.org)
</metadata>
<defs>
<font id="CooperHewittInterpol3-Bold" horiz-adv-x="300" >
  <font-face 
    font-family="Cooper Hewitt Interpol 3"
    font-weight="711"
    font-stretch="normal"
    units-per-em="1000"
    panose-1="0 0 0 0 0 0 0 0 0 0"
    ascent="750"
    descent="-250"
    x-height="530"
    cap-height="780"
    bbox="-255 -226 1388 968"
    underline-thickness="50"
    underline-position="-75"
    unicode-range="U+0020-F6C3"
  />
<missing-glyph horiz-adv-x="962" 
d="M526 390l275 275v-550zM436 390l-275 -275v550zM202 714h558l-279 -279zM481 345l279 -279h-558zM91 0h780v780h-780v-780z" />
    <glyph glyph-name=".notdef" horiz-adv-x="962" 
d="M526 390l275 275v-550zM436 390l-275 -275v550zM202 714h558l-279 -279zM481 345l279 -279h-558zM91 0h780v780h-780v-780z" />
    <glyph glyph-name="space" unicode=" " horiz-adv-x="200" 
 />
    <glyph glyph-name="exclam" unicode="!" horiz-adv-x="265" 
d="M216 167h-166v-167h166v167zM35 780l42 -552h112l42 552h-196z" />
    <glyph glyph-name="quotedbl" unicode="&#x22;" horiz-adv-x="446" 
d="M245 780l8 -323h122l24 323h-154zM47 780l25 -323h121l9 323h-155z" />
    <glyph glyph-name="numbersign" unicode="#" horiz-adv-x="600" 
d="M270 449h81l-21 -118h-81zM67 449h65l-21 -118h-88v-138h63l-35 -193h137l35 193h81l-35 -193h138l35 193h91v138h-66l21 118h89v138h-64l36 193h-137l-36 -193h-81l36 193h-138l-36 -193h-90v-138z" />
    <glyph glyph-name="dollar" unicode="$" horiz-adv-x="600" 
d="M300 601l43 -7l29 -22l17 -35l5 -46h157v14l-7 68l-21 56l-35 43l-50 32l32 136h-121l-27 -109h-22l-102 -13l-79 -38l-51 -62l-18 -87v-10l14 -74l41 -55l67 -37l95 -23l64 -13l40 -17l20 -22l5 -29v-5l-5 -28l-17 -20l-27 -13l-40 -5h-5l-45 8l-31 21l-18 32l-6 40
h-159v-6l8 -70l23 -56l39 -43l53 -31l-32 -135h121l26 110h21l110 13l81 40l48 63l17 87v10l-14 75l-42 56l-71 37l-102 24l-61 13l-37 16l-17 20l-5 26v5l6 29l18 20l26 12l33 5h8z" />
    <glyph glyph-name="percent" unicode="%" horiz-adv-x="981" 
d="M289 605v-13l-5 -29l-14 -22l-21 -14l-29 -5h-6l-29 5l-22 14l-14 22l-5 29v13l5 29l14 22l22 15l29 5h6l29 -5l21 -15l14 -22zM692 175v13l5 29l14 22l22 14l29 5h6l29 -5l21 -14l14 -22l5 -29v-13l-5 -29l-14 -22l-21 -15l-29 -5h-6l-29 5l-22 15l-14 22zM575 187v-12
l14 -81l40 -59l60 -36l76 -12l76 12l59 36l40 59l14 81v12l-14 81l-40 59l-59 37l-76 12l-76 -12l-60 -37l-40 -59zM296 779l-19 6l-19 4l-20 3l-21 1l-76 -12l-60 -36l-40 -59l-14 -81v-12l14 -81l40 -59l60 -37l76 -12l76 12l59 37l40 59l14 81v12v6v6l-1 6v5l11 -1l12 -1
l12 -1h12l23 1l19 2l17 2l12 3l-264 -633h138l295 708v75l-34 -10l-50 -10l-61 -9l-66 -3l-56 1l-47 5l-41 9z" />
    <glyph glyph-name="ampersand" unicode="&#x26;" horiz-adv-x="691" 
d="M224 608l4 22l10 18l17 11l23 4h6l23 -4l16 -11l11 -18l3 -22v-6l-6 -30l-17 -25l-26 -23l-32 -21l-13 24l-10 24l-7 25l-2 26v6zM276 123l-42 7l-30 20l-18 32l-6 43v6l3 26l8 23l12 21l16 18l149 -176l-20 -9l-21 -6l-23 -4l-23 -1h-5zM250 -13l59 3l54 10l49 16l45 21
l32 -37h190l-111 131l41 60l29 66l17 67l6 67v4h-166v-3l-2 -37l-6 -36l-9 -34l-12 -33l-124 147l57 35l49 42l35 55l13 72v11l-12 68l-38 58l-67 39l-98 14l-98 -14l-67 -39l-39 -58l-12 -68v-11l4 -52l13 -44l20 -40l27 -39l-42 -37l-35 -45l-24 -56l-9 -69v-10l15 -92
l45 -71l73 -45z" />
    <glyph glyph-name="quotesingle" unicode="'" horiz-adv-x="265" 
d="M47 780l25 -323h121l25 323h-171z" />
    <glyph glyph-name="parenleft" unicode="(" horiz-adv-x="365" 
d="M39 350l11 -154l31 -124l45 -102l56 -90h164l-58 98l-48 108l-31 122l-12 142v20l12 142l31 122l48 108l58 98h-164l-56 -90l-45 -102l-31 -124l-11 -154v-20z" />
    <glyph glyph-name="parenright" unicode=")" horiz-adv-x="365" 
d="M326 370l-11 154l-30 124l-45 102l-57 90h-164l58 -98l48 -108l31 -122l12 -142v-20l-12 -142l-31 -122l-48 -108l-58 -98h164l57 90l45 102l30 124l11 154v20z" />
    <glyph glyph-name="asterisk" unicode="*" horiz-adv-x="413" 
d="M358 467l-83 105l-64 -46l76 -111zM380 706l-125 -47l24 -75l129 37zM126 415l75 111l-64 46l-83 -105zM5 621l128 -37l25 75l-126 47zM162 800l5 -134h79l5 134h-89z" />
    <glyph glyph-name="plus" unicode="+" horiz-adv-x="600" 
d="M230 648v-188h-188v-140h188v-188h140v188h188v140h-188v188h-140z" />
    <glyph glyph-name="comma" unicode="," horiz-adv-x="266" 
d="M216 167h-166v-167h84l-11 -28l-19 -20l-26 -12l-33 -4v-79l74 11l54 34l32 56l11 77v132z" />
    <glyph glyph-name="hyphen" unicode="-" horiz-adv-x="353" 
d="M40 281h273v138h-273v-138z" />
    <glyph glyph-name="period" unicode="." horiz-adv-x="266" 
d="M216 167h-166v-167h166v167z" />
    <glyph glyph-name="slash" unicode="/" horiz-adv-x="414" 
d="M399 840h-154l-230 -960h154z" />
    <glyph glyph-name="zero" unicode="0" horiz-adv-x="600" 
d="M395 557v-334l-6 -39l-16 -30l-29 -20l-42 -7h-4l-42 7l-28 20l-17 30l-6 39v334l6 39l17 30l28 20l42 7h4l42 -7l29 -20l16 -30zM555 221v338l-16 94l-48 74l-79 48l-112 18l-112 -18l-79 -48l-48 -74l-16 -94v-338l16 -94l48 -74l79 -48l112 -18l112 18l79 48l48 74z
" />
    <glyph glyph-name="one" unicode="1" horiz-adv-x="600" 
d="M561 0v140h-171v641h-119l-243 -165l79 -116l123 83v-443h-171v-140h502z" />
    <glyph glyph-name="two" unicode="2" horiz-adv-x="600" 
d="M341 140l-71 -1l199 218l38 46l27 45l17 50l5 61v18l-13 77l-44 69l-79 51l-120 19l-113 -16l-80 -47l-47 -80l-16 -110v-20h160l6 63l19 41l29 22l37 7h10l37 -7l28 -19l19 -33l7 -47v-10l-3 -29l-10 -26l-16 -24l-23 -26l-300 -331v-101h512v140h-215z" />
    <glyph glyph-name="three" unicode="3" horiz-adv-x="600" 
d="M199 250h-160v-13l16 -107l49 -78l81 -48l115 -17l120 21l81 53l46 72l14 76v19l-7 59l-21 47l-30 37l-38 28l36 27l29 37l19 46l7 57v19l-13 72l-44 67l-79 50l-120 19l-113 -16l-80 -47l-47 -80l-16 -110v-20h160l6 63l19 41l28 22l38 7h10l37 -6l28 -18l19 -27l7 -36
v-9l-6 -39l-18 -28l-29 -17l-39 -5h-104v-140h107l39 -6l30 -17l18 -28l7 -40v-11l-8 -45l-21 -30l-31 -18l-36 -6h-10l-38 6l-30 21l-21 38z" />
    <glyph glyph-name="four" unicode="4" horiz-adv-x="600" 
d="M330 526l-2 -58v-158h-84l-51 -2zM488 0v170h85v140h-85v470h-151l-310 -498v-112h301v-170h160z" />
    <glyph glyph-name="five" unicode="5" horiz-adv-x="600" 
d="M39 250v-13l16 -107l49 -78l81 -48l115 -17l113 18l82 50l49 78l17 104v19l-17 104l-48 78l-80 50l-108 18l-32 -2l-30 -4l-29 -8l-27 -10l7 158h354v140h-488l-18 -428l137 -47l20 27l27 20l31 11l31 4h6l41 -6l33 -20l22 -36l8 -53v-11l-8 -53l-21 -35l-31 -20l-36 -6
h-10l-38 6l-30 21l-21 38l-7 58h-160z" />
    <glyph glyph-name="six" unicode="6" horiz-adv-x="600" 
d="M303 352h5l37 -6l30 -18l20 -32l7 -46v-19l-8 -45l-21 -32l-31 -20l-38 -7h-6l-39 9l-31 25l-21 42l-8 57v32l20 26l25 19l29 11zM523 793l-113 -7l-101 -23l-87 -46l-73 -71l-52 -86l-34 -89l-18 -92l-6 -93v-13l17 -117l51 -90l82 -58l112 -21l113 17l82 50l49 78
l17 104v10l-16 103l-44 78l-69 48l-89 17l-36 -3l-32 -7l-29 -12l-26 -15l10 28l12 27l14 24l16 22l46 44l57 29l67 17l80 5v142z" />
    <glyph glyph-name="seven" unicode="7" horiz-adv-x="600" 
d="M36 500h141v140h115l95 2l-269 -642h171l277 681v99h-530v-280z" />
    <glyph glyph-name="eight" unicode="8" horiz-adv-x="600" 
d="M305 653l37 -6l28 -17l19 -28l7 -35v-10l-6 -39l-18 -28l-29 -17l-39 -5h-8l-39 5l-29 17l-18 28l-6 39v10l7 35l19 28l28 17l37 6h10zM293 328h14l39 -6l30 -17l18 -28l7 -40v-11l-8 -45l-21 -31l-31 -17l-36 -6h-10l-36 6l-31 17l-21 31l-8 45v11l7 40l18 28l30 17z
M300 -13l120 21l81 52l46 72l14 76v19l-8 59l-20 48l-31 37l-37 28l36 27l29 37l19 47l7 57v19l-13 72l-44 66l-79 50l-120 19l-120 -19l-79 -50l-44 -66l-13 -72v-19l7 -57l19 -47l29 -37l36 -27l-38 -28l-30 -37l-21 -48l-7 -59v-19l14 -76l46 -72l81 -52z" />
    <glyph glyph-name="nine" unicode="9" horiz-adv-x="600" 
d="M297 428h-5l-37 6l-30 18l-20 32l-7 46v19l8 45l21 32l31 20l38 7h6l39 -9l31 -25l21 -42l8 -57v-32l-20 -26l-26 -19l-29 -11zM77 -13l113 7l101 23l88 46l72 71l52 86l34 89l18 92l6 93v13l-17 117l-51 91l-82 58l-112 20l-113 -17l-82 -50l-49 -78l-17 -104v-10
l16 -103l44 -78l69 -48l89 -17l35 3l32 7l29 11l26 15l-9 -28l-12 -26l-14 -24l-16 -22l-46 -44l-56 -29l-68 -17l-80 -5v-142z" />
    <glyph glyph-name="colon" unicode=":" horiz-adv-x="266" 
d="M216 474h-166v-167h166v167zM216 167h-166v-167h166v167z" />
    <glyph glyph-name="semicolon" unicode=";" horiz-adv-x="266" 
d="M216 474h-166v-167h166v167zM216 167h-166v-167h84l-11 -28l-19 -20l-26 -12l-33 -4v-79l74 11l54 34l32 56l11 77v132z" />
    <glyph glyph-name="less" unicode="&#x3c;" horiz-adv-x="600" 
d="M42 467v-154l516 -205v156l-338 126l338 126v156z" />
    <glyph glyph-name="equal" unicode="=" horiz-adv-x="600" 
d="M42 211h516v141h-516v-141zM42 428h516v141h-516v-141z" />
    <glyph glyph-name="greater" unicode="&#x3e;" horiz-adv-x="600" 
d="M558 467l-516 205v-156l338 -126l-338 -126v-156l516 205v154z" />
    <glyph glyph-name="question" unicode="?" horiz-adv-x="497" 
d="M328 167h-166v-167h166v167zM253 654l32 -5l20 -15l12 -23l3 -32l-22 -66l-49 -72l-45 -91l-15 -122h111l34 108l61 70l58 71l26 115l-11 74l-36 64l-69 46l-110 17l-109 -17l-72 -50l-39 -81l-12 -111v-18h159l4 63l12 43l22 24z" />
    <glyph glyph-name="at" unicode="@" horiz-adv-x="991" 
d="M563 374v-158l-12 -15l-18 -16l-24 -11l-30 -5l-38 8l-26 21l-15 35l-5 45v34l5 45l15 35l26 21l38 8l30 -5l24 -11l18 -16zM513 -110l-154 24l-120 70l-79 119l-28 167v40l28 166l78 119l119 71l151 24h6l125 -13l110 -46l78 -89l30 -144v-30l-8 -96l-27 -62l-49 -35
l-73 -13v231l9 137h-123l-11 -59l-24 29l-30 23l-38 15l-47 5l-81 -17l-58 -48l-35 -73l-11 -93v-34l11 -93l35 -73l58 -48l81 -17l47 5l38 15l30 23l24 29l11 -59h105l108 14l87 50l57 95l21 149v30l-37 181l-99 122l-144 70l-173 22l-193 -32l-154 -92l-101 -152l-36 -207
v-40l36 -207l102 -152l155 -92l196 -32l91 5l97 20l101 40l103 67l-59 80l-76 -47l-80 -35l-85 -20l-89 -7h-6z" />
    <glyph glyph-name="A" unicode="A" horiz-adv-x="641" 
d="M320 595l64 -287h-128zM209 782l-195 -782h174l37 168h191l38 -168h173l-195 782h-223z" />
    <glyph glyph-name="B" unicode="B" horiz-adv-x="631" 
d="M311 640l31 -3l29 -12l20 -25l8 -39v-13l-8 -39l-20 -24l-29 -13l-31 -3h-93v171h93zM325 328l34 -4l30 -14l22 -27l8 -44v-9l-8 -44l-22 -28l-30 -14l-34 -4h-107v188h107zM56 780v-780h264l94 8l85 33l61 68l23 115v20l-7 56l-20 45l-30 34l-39 24l31 23l24 31l15 39
l6 48v20l-22 111l-58 66l-80 31l-91 8h-256z" />
    <glyph glyph-name="C" unicode="C" horiz-adv-x="650" 
d="M203 370v40l6 104l20 76l39 47l64 16h9l53 -11l33 -33l17 -53l5 -72h162v36l-18 125l-52 85l-87 48l-122 15l-131 -22l-92 -68l-53 -119l-17 -174v-40l17 -174l53 -119l92 -68l131 -22l122 15l87 48l52 84l18 123v9h-162l-6 -57l-18 -44l-34 -28l-50 -10h-9l-64 16
l-39 47l-20 76z" />
    <glyph glyph-name="D" unicode="D" horiz-adv-x="663" 
d="M218 140v500h68l84 -14l53 -42l28 -72l8 -102v-40l-8 -102l-28 -71l-53 -43l-84 -14h-68zM624 370v40l-19 172l-58 114l-103 64l-149 20h-239v-780h239l149 20l103 64l58 114z" />
    <glyph glyph-name="E" unicode="E" horiz-adv-x="573" 
d="M56 780v-780h477v140h-315v188h265v140h-265v172h315v140h-477z" />
    <glyph glyph-name="F" unicode="F" horiz-adv-x="549" 
d="M56 780v-780h162v328h261v140h-261v172h311v140h-473z" />
    <glyph glyph-name="G" unicode="G" horiz-adv-x="673" 
d="M348 -13l92 7l74 21l59 29l48 34v344h-265v-140h103v-125l-20 -12l-25 -9l-28 -7l-33 -2h-9l-70 16l-43 47l-21 76l-6 104v40l6 104l21 76l41 47l66 16h9l56 -11l34 -33l18 -53l5 -72h162v36l-18 125l-54 85l-89 48l-123 15l-132 -22l-93 -68l-56 -119l-18 -174v-40
l18 -174l57 -119l96 -68z" />
    <glyph glyph-name="H" unicode="H" horiz-adv-x="663" 
d="M445 780v-312h-227v312h-162v-780h162v328h227v-328h162v780h-162z" />
    <glyph glyph-name="I" unicode="I" horiz-adv-x="283" 
d="M223 780h-162v-780h162v780z" />
    <glyph glyph-name="J" unicode="J" horiz-adv-x="537" 
d="M324 780v-522l-3 -56l-12 -41l-23 -25l-36 -9l-36 9l-22 26l-12 43l-4 61h-153v-26l12 -107l39 -80l71 -49l109 -17l106 17l72 49l41 79l13 106v542h-162z" />
    <glyph glyph-name="K" unicode="K" horiz-adv-x="625" 
d="M218 780h-162v-780h162v225l66 94l142 -319h180l-219 467l219 313h-196l-192 -306v306z" />
    <glyph glyph-name="L" unicode="L" horiz-adv-x="521" 
d="M506 0v140h-288v640h-162v-780h450z" />
    <glyph glyph-name="M" unicode="M" horiz-adv-x="869" 
d="M656 499l-4 -156v-343h162v780h-240l-139 -499l-140 499h-239v-780h162v343l-5 156l139 -499h165z" />
    <glyph glyph-name="N" unicode="N" horiz-adv-x="683" 
d="M627 780h-154v-327l5 -157l-251 484h-171v-780h153v327l-5 157l252 -484h171v780z" />
    <glyph glyph-name="O" unicode="O" horiz-adv-x="673" 
d="M332 127l-62 16l-40 47l-21 76l-6 104v40l6 104l21 76l40 47l62 16h9l62 -16l40 -47l20 -76l6 -104v-40l-6 -104l-20 -76l-40 -47l-62 -16h-9zM336 -13l132 22l93 68l55 119l18 174v40l-18 174l-55 119l-93 68l-132 22l-132 -22l-92 -68l-55 -119l-18 -174v-40l18 -174
l55 -119l92 -68z" />
    <glyph glyph-name="P" unicode="P" horiz-adv-x="609" 
d="M218 420v220h101l34 -4l33 -15l24 -32l9 -54v-10l-9 -54l-24 -31l-33 -16l-34 -4h-101zM218 280h94l96 8l87 34l64 73l24 125v20l-24 125l-64 73l-87 34l-96 8h-256v-780h162v280z" />
    <glyph glyph-name="Q" unicode="Q" horiz-adv-x="673" 
d="M389 262h-122l52 -135l-56 20l-36 49l-19 74l-5 100v40l6 104l21 76l40 47l62 16h9l62 -16l40 -47l20 -76l6 -104v-40l-2 -67l-7 -57l-13 -46l-20 -35zM336 -13h10l9 1h9l9 1l34 -89h126l-47 117l65 49l47 74l27 101l9 129v40l-18 174l-55 119l-93 68l-132 22l-132 -22
l-92 -68l-55 -119l-18 -174v-40l18 -174l55 -119l92 -68z" />
    <glyph glyph-name="R" unicode="R" horiz-adv-x="623" 
d="M218 420v220h101l34 -4l33 -15l24 -32l9 -54v-10l-9 -54l-24 -31l-33 -16l-34 -4h-101zM218 280h83l107 -280h175l-123 303l49 28l39 44l26 62l9 83v20l-24 125l-64 73l-87 34l-96 8h-256v-780h162v280z" />
    <glyph glyph-name="S" unicode="S" horiz-adv-x="631" 
d="M290 326l70 -14l43 -22l23 -29l6 -37v-5l-7 -36l-21 -29l-35 -20l-49 -7h-9l-50 8l-36 25l-22 43l-7 63h-162v-9l18 -121l54 -84l87 -49l122 -16l121 16l89 46l54 75l18 100v10l-16 93l-48 66l-80 42l-112 25l-69 14l-42 21l-21 29l-5 38v5l7 35l20 27l32 18l44 6h9
l52 -9l35 -27l20 -47l6 -66h162v21l-16 119l-50 84l-86 49l-124 16l-118 -16l-86 -47l-53 -73l-18 -96v-11l15 -91l46 -65l78 -43z" />
    <glyph glyph-name="T" unicode="T" horiz-adv-x="557" 
d="M359 640h181v140h-523v-140h180v-640h162v640z" />
    <glyph glyph-name="U" unicode="U" horiz-adv-x="663" 
d="M331 -13l133 17l87 49l47 82l14 112v533h-162v-528l-6 -55l-19 -39l-37 -23l-57 -8l-57 8l-36 23l-19 39l-6 55v528h-162v-533l14 -112l47 -82l86 -49z" />
    <glyph glyph-name="V" unicode="V" horiz-adv-x="641" 
d="M432 -2l195 782h-174l-133 -595l-133 595h-173l195 -782h223z" />
    <glyph glyph-name="W" unicode="W" horiz-adv-x="937" 
d="M581 -2h208l129 782h-169l-75 -561l-105 561h-201l-105 -561l-75 561h-169l129 -782h207l113 597z" />
    <glyph glyph-name="X" unicode="X" horiz-adv-x="649" 
d="M19 0h179l126 291l126 -291h180l-190 409l190 371h-188l-118 -259l-117 259h-188l190 -371z" />
    <glyph glyph-name="Y" unicode="Y" horiz-adv-x="625" 
d="M394 239l223 541h-177l-127 -341l-128 341h-177l224 -541v-239h162v239z" />
    <glyph glyph-name="Z" unicode="Z" horiz-adv-x="599" 
d="M40 111v-111h519v140h-178l-143 -3l311 532v111h-499v-140h158l143 3z" />
    <glyph glyph-name="bracketleft" unicode="[" horiz-adv-x="365" 
d="M58 840v-960h274v138h-117v684h117v138h-274z" />
    <glyph glyph-name="backslash" unicode="\" horiz-adv-x="412" 
d="M245 -120h154l-230 960h-154z" />
    <glyph glyph-name="bracketright" unicode="]" horiz-adv-x="365" 
d="M307 -120v960h-274v-138h117v-684h-117v-138h274z" />
    <glyph glyph-name="asciicircum" unicode="^" horiz-adv-x="600" 
d="M377 780h-154l-205 -516h156l126 338l126 -338h156z" />
    <glyph glyph-name="underscore" unicode="_" horiz-adv-x="320" 
d="M42 -185h236v138h-236v-138z" />
    <glyph glyph-name="grave" unicode="`" horiz-adv-x="500" 
d="M65 780l107 -184h156l-91 184h-172z" />
    <glyph glyph-name="a" unicode="a" horiz-adv-x="549" 
d="M250 115l-29 5l-20 12l-11 17l-3 20v6l3 22l11 19l20 13l31 9l90 14v-97l-15 -14l-20 -13l-26 -9zM368 0h142l-10 150v191l-11 86l-37 63l-69 39l-108 14l-109 -15l-69 -40l-36 -57l-11 -67v-9h149l3 25l11 22l22 15l35 6l34 -5l22 -14l12 -25l4 -34l-122 -19l-77 -18
l-60 -30l-39 -49l-14 -73v-10l9 -61l27 -50l50 -35l76 -13l52 5l45 14l38 22l31 27z" />
    <glyph glyph-name="b" unicode="b" horiz-adv-x="574" 
d="M211 357l13 16l19 16l26 13l32 5l39 -8l26 -25l15 -39l5 -52v-36l-5 -52l-15 -39l-26 -25l-39 -8l-32 5l-26 13l-19 16l-13 16v184zM211 800h-158v-650l-9 -150h141l11 64l26 -31l33 -24l41 -16l51 -6l92 19l61 54l34 82l10 105v36l-10 105l-34 82l-61 54l-92 19l-44 -4
l-36 -12l-31 -18l-25 -24v315z" />
    <glyph glyph-name="c" unicode="c" horiz-adv-x="527" 
d="M188 247v36l5 52l15 39l26 25l39 8l33 -5l24 -16l14 -26l5 -36h149v23l-14 80l-43 62l-71 40l-100 14l-108 -19l-75 -54l-43 -82l-14 -105v-36l14 -105l43 -82l75 -54l108 -19l100 14l71 39l43 59l14 75v22h-149l-5 -29l-14 -23l-24 -15l-33 -6l-39 8l-26 25l-15 39z" />
    <glyph glyph-name="d" unicode="d" horiz-adv-x="582" 
d="M371 357v-184l-13 -16l-19 -16l-26 -13l-32 -5l-40 8l-26 25l-15 39l-5 52v36l5 52l15 39l26 25l40 8l32 -5l26 -13l19 -16zM235 543l-92 -19l-61 -54l-34 -82l-10 -105v-36l10 -105l34 -82l61 -54l92 -19l50 6l41 16l33 24l26 30l11 -63h142l-9 150v650h-158v-315
l-25 24l-31 18l-37 12z" />
    <glyph glyph-name="e" unicode="e" horiz-adv-x="556" 
d="M278 423l37 -6l27 -19l17 -31l8 -45h-178l8 45l17 31l27 19zM526 208v71l-15 106l-44 83l-77 55l-109 20l-110 -20l-78 -55l-47 -83l-16 -106v-28l15 -106l48 -83l80 -55l114 -20l102 14l75 38l46 56l16 71v4h-149l-6 -23l-18 -20l-28 -15l-37 -5l-40 5l-30 18l-20 31
l-10 47h338z" />
    <glyph glyph-name="f" unicode="f" horiz-adv-x="411" 
d="M258 599l5 40l16 23l25 12l32 3l14 -1l14 -1l12 -3l8 -2v130l-10 4l-18 4l-25 4l-32 1l-81 -10l-63 -34l-41 -61l-14 -92v-86h-81v-138h81v-392h158v392h116v138h-116v69z" />
    <glyph glyph-name="g" unicode="g" horiz-adv-x="574" 
d="M273 155l-37 7l-27 21l-16 34l-5 50v28l5 46l16 35l27 23l37 8l33 -5l26 -13l19 -16l12 -16v-152l-12 -16l-19 -16l-26 -13zM363 11l-5 -45l-17 -30l-28 -16l-40 -5l-41 6l-26 18l-13 27l-4 34h-149v-21l12 -75l40 -61l72 -41l112 -15l109 14l76 43l45 70l15 96v370
l9 150h-141l-11 -61l-26 30l-33 23l-41 15l-51 6l-90 -19l-61 -52l-35 -78l-11 -99v-28l11 -102l35 -79l61 -49l90 -18l43 4l37 11l31 17l25 22v-62z" />
    <glyph glyph-name="h" unicode="h" horiz-adv-x="580" 
d="M212 800h-158v-800h158v357l13 16l19 16l27 13l34 5l34 -6l21 -17l12 -23l3 -28v-333h157v359l-9 69l-28 59l-51 41l-76 15l-50 -5l-42 -13l-35 -20l-29 -26v321z" />
    <glyph glyph-name="i" unicode="i" horiz-adv-x="266" 
d="M216 772h-166v-167h166v167zM54 0h158v530h-158v-530z" />
    <glyph glyph-name="j" unicode="j" horiz-adv-x="268" 
d="M216 772h-166v-167h166v167zM54 1l-6 -40l-15 -23l-25 -12l-32 -3l-14 1l-15 1l-12 3l-8 2v-130l10 -4l18 -4l26 -4l32 -1l81 10l63 34l41 61l14 92v546h-158v-529z" />
    <glyph glyph-name="k" unicode="k" horiz-adv-x="562" 
d="M50 0h158v144l52 60l100 -204h184l-175 329l175 201h-189l-147 -180v450h-158v-800z" />
    <glyph glyph-name="l" unicode="l" horiz-adv-x="266" 
d="M54 0h158v800h-158v-800z" />
    <glyph glyph-name="m" unicode="m" horiz-adv-x="863" 
d="M815 0v365l-9 70l-28 57l-49 37l-71 14l-54 -6l-45 -17l-36 -26l-28 -33l-21 34l-30 26l-40 16l-48 6l-52 -6l-44 -16l-35 -24l-28 -31l-11 64h-141l9 -150v-380h158v361l12 15l17 15l22 11l30 5l28 -5l20 -13l11 -21l4 -28v-340h157v361l12 15l17 15l23 11l30 5l28 -5
l20 -13l11 -21l4 -28v-340h157z" />
    <glyph glyph-name="n" unicode="n" horiz-adv-x="580" 
d="M532 0v359l-9 69l-28 59l-51 41l-76 15l-57 -6l-46 -17l-38 -26l-29 -32l-12 68h-141l9 -150v-380h158v357l13 16l19 16l27 13l34 5l34 -6l21 -17l12 -23l3 -28v-333h157z" />
    <glyph glyph-name="o" unicode="o" horiz-adv-x="556" 
d="M278 123l-40 8l-28 25l-17 39l-5 52v36l5 52l17 39l28 25l40 8l41 -8l28 -25l16 -39l5 -52v-36l-5 -52l-16 -39l-28 -25zM278 -13l111 19l77 54l45 82l15 105v36l-15 105l-45 82l-77 54l-111 19l-110 -19l-78 -54l-45 -82l-15 -105v-36l15 -105l45 -82l78 -54z" />
    <glyph glyph-name="p" unicode="p" horiz-adv-x="574" 
d="M301 407l39 -8l26 -25l15 -39l5 -52v-36l-5 -52l-15 -39l-26 -25l-39 -8l-32 5l-26 13l-19 16l-13 16v184l13 16l19 16l26 13zM347 -13l92 19l61 54l34 82l10 105v36l-10 105l-34 82l-61 54l-92 19l-51 -6l-41 -16l-33 -25l-26 -31l-11 65h-141l9 -150v-580h158v245
l25 -24l31 -18l36 -12z" />
    <glyph glyph-name="q" unicode="q" horiz-adv-x="581" 
d="M366 173l-13 -16l-19 -16l-26 -13l-32 -5l-40 8l-26 25l-15 39l-5 52v36l5 52l15 39l26 25l40 8l32 -5l26 -13l19 -16l13 -16v-184zM366 -200h158v580l9 150h-142l-11 -64l-26 31l-33 24l-41 16l-50 6l-92 -19l-61 -54l-34 -82l-10 -105v-36l10 -105l34 -82l61 -54
l92 -19l43 4l37 12l31 18l25 24v-245z" />
    <glyph glyph-name="r" unicode="r" horiz-adv-x="385" 
d="M338 543l-44 -6l-38 -15l-33 -24l-26 -30l-11 62h-141l9 -150v-380h158v344l15 16l23 15l33 11l43 4h27v152l-3 1h-4h-4h-4z" />
    <glyph glyph-name="s" unicode="s" horiz-adv-x="528" 
d="M264 107l-34 5l-22 12l-12 20l-4 24h-157v-5l14 -71l42 -56l72 -36l101 -13l100 12l72 36l44 56l14 74v9l-16 69l-45 44l-69 25l-91 12l-38 6l-23 9l-12 15l-3 21l4 20l13 15l21 10l29 3l31 -5l21 -13l12 -21l4 -28h155v5l-13 77l-40 57l-69 36l-101 12l-88 -10l-71 -31
l-47 -53l-17 -79v-9l13 -64l38 -43l67 -28l97 -14l39 -6l24 -10l12 -15l4 -22l-4 -21l-12 -16l-22 -11z" />
    <glyph glyph-name="t" unicode="t" horiz-adv-x="431" 
d="M258 530v150h-158v-150h-81v-138h81v-208l14 -92l41 -61l63 -34l81 -10l32 1l25 4l18 4l10 4v130l-8 -2l-12 -3l-14 -1l-14 -1l-32 3l-25 12l-16 23l-5 40v191h136v138h-136z" />
    <glyph glyph-name="u" unicode="u" horiz-adv-x="580" 
d="M48 530v-359l9 -69l28 -59l50 -41l77 -15l56 6l47 16l37 26l30 32l12 -67h141l-9 150v380h-158v-357l-13 -16l-20 -16l-26 -13l-34 -5l-34 6l-21 17l-12 23l-3 28v333h-157z" />
    <glyph glyph-name="v" unicode="v" horiz-adv-x="549" 
d="M164 0h221l155 530h-164l-101 -403l-102 403h-163z" />
    <glyph glyph-name="w" unicode="w" horiz-adv-x="766" 
d="M383 365l74 -365h198l92 530h-155l-40 -359l-75 359h-189l-74 -359l-40 359h-155l91 -530h199z" />
    <glyph glyph-name="x" unicode="x" horiz-adv-x="558" 
d="M17 530l135 -256l-135 -274h178l84 190l85 -190h178l-136 274l136 256h-183l-80 -179l-80 179h-182z" />
    <glyph glyph-name="y" unicode="y" horiz-adv-x="551" 
d="M277 192l-100 338h-172l186 -502l-85 -228h188l68 228l187 502h-172z" />
    <glyph glyph-name="z" unicode="z" horiz-adv-x="499" 
d="M24 108v-108h451v138h-134l-110 -3l234 287v108h-431v-138h114l110 3z" />
    <glyph glyph-name="braceleft" unicode="{" horiz-adv-x="365" 
d="M332 840h-27l-84 -9l-65 -30l-42 -55l-15 -84v-151l-5 -38l-13 -25l-24 -14l-33 -5v-138l32 -4l22 -13l15 -23l6 -34v-159l15 -84l42 -55l65 -30l84 -9h27v138l-33 5l-24 15l-14 26l-5 39v141l-4 39l-11 32l-19 26l-26 19l26 19l19 26l11 32l4 39v150l6 35l14 23l24 14
l32 4v138z" />
    <glyph glyph-name="bar" unicode="|" horiz-adv-x="261" 
d="M54 -120h154v960h-154v-960z" />
    <glyph glyph-name="braceright" unicode="}" horiz-adv-x="365" 
d="M33 -120h27l85 9l65 30l41 55l15 84v151l5 38l13 25l24 14l33 5v138l-32 4l-23 13l-14 23l-6 33v160l-15 84l-41 55l-65 30l-85 9h-27v-138l33 -5l24 -15l14 -26l5 -39v-141l4 -39l11 -32l19 -26l25 -19l-25 -19l-19 -26l-11 -32l-4 -39v-141l-5 -39l-14 -26l-24 -15
l-33 -5v-138z" />
    <glyph glyph-name="asciitilde" unicode="~" horiz-adv-x="600" 
d="M184 482l-50 -8l-43 -20l-35 -31l-28 -36l74 -74l15 16l20 15l24 12l29 5l51 -10l50 -22l56 -23l69 -10l50 8l43 20l35 31l28 36l-74 74l-15 -16l-20 -15l-24 -12l-29 -5l-51 10l-50 23l-56 22z" />
    <glyph glyph-name="nbspace" unicode="&#xa0;" horiz-adv-x="200" 
 />
    <glyph glyph-name="exclamdown" unicode="&#xa1;" horiz-adv-x="265" 
d="M50 363h166v167h-166v-167zM231 -200l-42 502h-112l-42 -502h196z" />
    <glyph glyph-name="cent" unicode="&#xa2;" horiz-adv-x="600" 
d="M561 466v30l-8 75l-24 61l-40 47l-56 32l31 129h-122l-26 -109h-9l-120 -20l-83 -61l-49 -101l-16 -140v-38l7 -99l23 -81l38 -63l54 -45l-34 -143h122l26 111l8 -1h8h8h8l111 15l79 43l48 71l16 99v16h-156l-5 -43l-15 -33l-29 -21l-42 -8h-7l-50 13l-33 37l-19 58
l-5 76v36l5 76l19 58l33 37l50 13h7l43 -8l28 -25l15 -40l5 -54h156z" />
    <glyph glyph-name="sterling" unicode="&#xa3;" horiz-adv-x="600" 
d="M322 654l35 -10l24 -31l13 -48l4 -65h159v17l-12 121l-41 86l-72 52l-110 17l-110 -18l-71 -48l-38 -68l-11 -76l1 -41l5 -38l6 -36l8 -34h-68v-137h113l12 -37l11 -39l10 -40l7 -42h-153v-139h512v139h-221l-4 42l-6 41l-7 38l-8 37h140v137h-176l-9 36l-7 34l-4 34
l-2 32l4 35l12 26l22 17z" />
    <glyph glyph-name="yen" unicode="&#xa5;" horiz-adv-x="600" 
d="M41 342h149l26 -62h-175v-138h178v-142h162v142h178v138h-176l26 62h150v138h-92l126 300h-178l-115 -334l-115 334h-178l125 -300h-91v-138z" />
    <glyph glyph-name="brokenbar" unicode="&#xa6;" horiz-adv-x="261" 
d="M54 -120h154v456h-154v-456zM54 384h154v456h-154v-456z" />
    <glyph glyph-name="section" unicode="&#xa7;" horiz-adv-x="549" 
d="M273 455l40 -5l27 -13l15 -20l5 -27l-4 -25l-14 -20l-24 -14l-34 -6h-9l-40 5l-26 13l-15 20l-5 27l4 25l14 20l23 14l34 6h9zM518 393v9l-16 74l-44 48l-70 28l-90 13l-38 7l-24 13l-13 18l-3 22l4 20l14 16l21 10l29 3l31 -5l22 -13l12 -22l4 -28h154v5l-13 77l-40 57
l-69 36l-101 12l-87 -10l-71 -31l-47 -53l-17 -79v-9l2 -29l6 -26l11 -24l15 -20l-30 -22l-21 -28l-14 -35l-4 -40v-9l16 -74l44 -48l70 -28l90 -13l38 -7l23 -13l13 -18l3 -22l-4 -20l-13 -16l-22 -10l-29 -3l-31 5l-21 13l-12 22l-4 28h-154v-5l13 -77l40 -57l69 -36
l100 -12l88 10l71 31l47 54l17 78v9l-2 29l-7 26l-11 23l-15 20l30 22l22 29l14 34z" />
    <glyph glyph-name="dieresis" unicode="&#xa8;" horiz-adv-x="500" 
d="M440 772h-165v-166h165v166zM225 772h-165v-166h165v166z" />
    <glyph glyph-name="copyright" unicode="&#xa9;" horiz-adv-x="920" 
d="M463 264l-37 8l-24 23l-13 34l-4 44v34l4 44l13 35l24 22l37 8l31 -5l22 -14l13 -23l4 -30h133v21l-13 70l-38 55l-64 36l-91 13l-98 -18l-67 -48l-39 -74l-12 -92v-34l12 -92l39 -73l67 -49l98 -18l91 13l64 35l38 52l13 66v20h-133l-4 -25l-13 -20l-22 -13zM113 390
l27 135l75 111l110 74l135 27l135 -27l111 -74l74 -111l27 -135l-27 -135l-74 -110l-111 -75l-135 -27l-135 27l-110 75l-75 110zM57 390l32 -157l86 -128l128 -86l157 -32l157 32l128 86l86 128l32 157l-32 157l-86 128l-128 86l-157 32l-157 -32l-128 -86l-86 -128z" />
    <glyph glyph-name="ordfeminine" unicode="&#xaa;" horiz-adv-x="429" 
d="M203 487l-18 3l-12 7l-6 11l-2 12v4l2 13l7 11l12 8l17 5l55 9v-61l-10 -8l-13 -7l-15 -5zM401 181v119h-362v-119h362zM279 387h124l-7 112v142l-9 65l-29 48l-54 29l-85 10l-84 -11l-55 -29l-28 -43l-9 -51v-7h130l2 14l7 12l13 9l20 3l19 -3l13 -7l8 -14l3 -18
l-84 -13l-60 -14l-46 -23l-30 -37l-10 -55v-7l6 -46l21 -39l38 -27l59 -10l37 4l32 10l27 16l23 20z" />
    <glyph glyph-name="guillemotleft" unicode="&#xab;" horiz-adv-x="565" 
d="M515 563l-216 -147v-152l216 -147v139l-109 84l109 84v139zM266 563l-216 -147v-152l216 -147v139l-109 84l109 84v139z" />
    <glyph glyph-name="logicalnot" unicode="&#xac;" horiz-adv-x="600" 
d="M42 435h375v-241h141v382h-516v-141z" />
    <glyph glyph-name="uni00AD" unicode="&#xad;" horiz-adv-x="353" 
d="M40 281h273v138h-273v-138z" />
    <glyph glyph-name="registered" unicode="&#xae;" horiz-adv-x="330" 
d="M186 693v-3l-1 -8l-4 -5l-6 -3l-7 -1h-24v37h24l7 -1l6 -3l4 -5zM241 689v5l-5 28l-14 17l-20 9l-22 3h-91v-172h55v53h19l21 -53h57l-28 59l11 7l9 11l6 14zM41 665l10 48l26 40l40 26l48 10l48 -10l40 -26l26 -40l10 -48l-10 -48l-26 -40l-40 -26l-48 -10l-48 10
l-40 26l-26 40zM17 665l12 -58l31 -47l47 -31l58 -12l58 12l47 31l31 47l12 58l-12 58l-31 47l-47 31l-58 12l-58 -12l-47 -31l-31 -47z" />
    <glyph glyph-name="macron" unicode="&#xaf;" horiz-adv-x="500" 
d="M100 619h300v138h-300v-138z" />
    <glyph glyph-name="degree" unicode="&#xb0;" horiz-adv-x="400" 
d="M362 632l-12 67l-34 51l-52 32l-64 11l-64 -11l-51 -32l-35 -51l-12 -67v-5l12 -67l35 -51l51 -32l64 -11l64 11l52 32l34 51l12 67v5zM266 627l-5 -26l-13 -21l-21 -12l-25 -5h-4l-25 5l-20 12l-14 21l-5 26v6l5 26l14 21l20 12l25 5h4l25 -5l21 -12l13 -21l5 -26v-6z
" />
    <glyph glyph-name="plusminus" unicode="&#xb1;" horiz-adv-x="600" 
d="M42 136h516v141h-516v-141zM230 673v-108h-188v-141h188v-108h140v108h188v141h-188v108h-140z" />
    <glyph glyph-name="twosuperior" unicode="&#xb2;" 
d="M284 493h-105l62 69l19 23l13 21l8 24l3 29v18l-6 36l-21 38l-41 30l-67 12l-68 -12l-41 -32l-21 -41l-6 -43v-15h120l1 17l2 12l5 7l6 3h3l6 -3l5 -6l2 -9l1 -9v-11l-1 -9l-2 -8l-5 -8l-5 -7l-138 -153v-76h271v103z" />
    <glyph glyph-name="threesuperior" unicode="&#xb3;" 
d="M131 515h-120v-8l10 -54l28 -41l43 -26l58 -9l57 8l44 24l27 36l10 47v10l-4 30l-12 25l-16 18l-20 14l18 13l16 18l10 24l4 30v10l-6 33l-21 35l-41 29l-67 12l-68 -12l-41 -32l-21 -44l-6 -46v-9h120l1 17l2 12l5 7l6 3h3l6 -3l5 -7l2 -8l1 -7v-2l-1 -11l-2 -7l-5 -5
l-7 -2h-49v-96h50l8 -2l6 -5l4 -8l1 -10v-5l-2 -13l-4 -9l-5 -6l-6 -2h-3l-6 2l-6 5l-4 11z" />
    <glyph glyph-name="acute" unicode="&#xb4;" horiz-adv-x="500" 
d="M263 780l-91 -184h156l107 184h-172z" />
    <glyph glyph-name="paragraph" unicode="&#xb6;" horiz-adv-x="549" 
d="M333 0h162v780h-199l-96 -8l-87 -34l-64 -73l-24 -125v-20l24 -125l64 -73l87 -34l96 -8h37v-280z" />
    <glyph glyph-name="periodcentered" unicode="&#xb7;" horiz-adv-x="266" 
d="M216 434h-166v-167h166v167z" />
    <glyph glyph-name="cedilla" unicode="&#xb8;" horiz-adv-x="602" 
d="M144 -190l18 -9l24 -8l30 -6l35 -2l52 6l38 17l22 27l8 38l-8 37l-21 26l-32 17l-39 7l15 40h-72l-29 -72l15 -28l3 1l9 1l12 2l14 1l21 -1l15 -5l9 -7l3 -10l-2 -10l-8 -7l-15 -4l-22 -2l-20 1l-20 4l-18 5l-14 7z" />
    <glyph glyph-name="onesuperior" unicode="&#xb9;" 
d="M290 390v103h-71v288h-90l-124 -84l59 -85l35 23v-142h-72v-103h263z" />
    <glyph glyph-name="ordmasculine" unicode="&#xba;" horiz-adv-x="443" 
d="M168 570v30l3 33l10 23l16 15l24 5l24 -5l17 -15l10 -23l3 -33v-30l-3 -32l-10 -23l-17 -15l-24 -5l-24 5l-16 15l-10 23zM40 181h363v119h-363v-119zM412 570v30l-11 79l-35 62l-60 39l-85 14l-85 -14l-59 -39l-35 -62l-11 -79v-30l11 -79l35 -61l59 -39l85 -14l85 14
l60 39l35 61z" />
    <glyph glyph-name="guillemotright" unicode="&#xbb;" horiz-adv-x="565" 
d="M50 424l109 -84l-109 -84v-139l216 147v152l-216 147v-139zM299 424l109 -84l-109 -84v-139l216 147v152l-216 147v-139z" />
    <glyph glyph-name="onequarter" unicode="&#xbc;" horiz-adv-x="800" 
d="M637 229v-57h-31zM290 390v103h-71v288h-90l-124 -84l59 -85l35 23v-142h-72v-103h263zM757 0v68h32v104h-32v218h-121l-126 -230v-92h127v-68h120zM179 0l576 780h-134l-576 -780h134z" />
    <glyph glyph-name="onehalf" unicode="&#xbd;" horiz-adv-x="800" 
d="M290 390v103h-71v288h-90l-124 -84l59 -85l35 23v-142h-72v-103h263zM784 103h-105l62 69l19 23l13 21l8 24l3 29v18l-6 36l-21 38l-41 30l-67 12l-68 -12l-41 -32l-21 -41l-6 -43v-15h120l1 17l2 12l5 7l6 3h3l6 -3l5 -6l2 -9l1 -9v-11l-1 -9l-2 -8l-5 -8l-5 -7
l-138 -153v-76h271v103zM179 0l576 780h-134l-576 -780h134z" />
    <glyph glyph-name="threequarters" unicode="&#xbe;" horiz-adv-x="800" 
d="M637 229v-57h-31zM757 0v68h32v104h-32v218h-121l-126 -230v-92h127v-68h120zM131 515h-120v-8l10 -54l28 -41l43 -26l58 -9l57 8l44 24l27 36l10 47v10l-4 30l-12 25l-16 18l-20 14l18 13l16 18l10 24l4 30v10l-6 33l-21 35l-41 29l-67 12l-68 -12l-41 -32l-21 -44
l-6 -46v-9h120l1 17l2 12l5 7l6 3h3l6 -3l5 -7l2 -8l1 -7v-2l-1 -11l-2 -7l-5 -5l-7 -2h-49v-96h50l8 -2l6 -5l4 -8l1 -10v-5l-2 -13l-4 -9l-5 -6l-6 -2h-3l-6 2l-6 5l-4 11zM179 0l576 780h-134l-576 -780h134z" />
    <glyph glyph-name="questiondown" unicode="&#xbf;" horiz-adv-x="497" 
d="M169 363h166v167h-166v-167zM244 -74l-31 4l-20 12l-12 19l-4 26l22 62l48 69l46 82l15 102h-111l-33 -88l-61 -61l-59 -68l-26 -111l11 -68l37 -60l69 -43l109 -16l109 17l71 49l39 80l12 110v17h-158l-4 -61l-12 -42l-22 -23z" />
    <glyph glyph-name="Agrave" unicode="&#xc0;" horiz-adv-x="641" 
d="M178 950l64 -110h156l-55 110h-165zM320 595l64 -287h-128zM209 782l-195 -782h174l37 168h191l38 -168h173l-195 782h-223z" />
    <glyph glyph-name="Aacute" unicode="&#xc1;" horiz-adv-x="641" 
d="M297 950l-55 -110h156l64 110h-165zM320 595l64 -287h-128zM209 782l-195 -782h174l37 168h191l38 -168h173l-195 782h-223z" />
    <glyph glyph-name="Acircumflex" unicode="&#xc2;" horiz-adv-x="641" 
d="M320 595l64 -287h-128zM258 840l62 44l62 -44h142l-124 110h-160l-124 -110h142zM209 782l-195 -782h174l37 168h191l38 -168h173l-195 782h-223z" />
    <glyph glyph-name="Atilde" unicode="&#xc3;" horiz-adv-x="641" 
d="M320 595l64 -287h-128zM420 947l-3 -16l-7 -10l-10 -5l-13 -2l-30 8l-35 16l-39 17l-45 7l-39 -6l-33 -20l-22 -37l-9 -56h85l3 16l7 10l10 6l13 1l30 -7l35 -17l39 -16l45 -8l39 6l33 21l23 36l8 56h-85zM209 782l-195 -782h174l37 168h191l38 -168h173l-195 782h-223z
" />
    <glyph glyph-name="Adieresis" unicode="&#xc4;" horiz-adv-x="641" 
d="M474 945h-133v-100h133v100zM299 945h-133v-100h133v100zM320 595l64 -287h-128zM209 782l-195 -782h174l37 168h191l38 -168h173l-195 782h-223z" />
    <glyph glyph-name="Aring" unicode="&#xc5;" horiz-adv-x="641" 
d="M269 858l4 20l11 16l16 10l20 4l20 -4l16 -10l11 -16l4 -20l-4 -20l-11 -16l-16 -11l-20 -4l-20 4l-16 11l-11 16zM320 595l64 -287h-128zM215 858l2 -22l7 -20l10 -18l13 -16h-38l-195 -782h174l37 168h191l38 -168h173l-195 782h-39l13 16l10 18l7 20l2 22l-8 41
l-23 33l-33 23l-41 8l-41 -8l-33 -23l-23 -33z" />
    <glyph glyph-name="AE" unicode="&#xc6;" horiz-adv-x="885" 
d="M371 594l31 -284h-122zM280 780l-272 -780h174l54 170h182l19 -170h408v140h-255l-26 188h231v140h-251l-23 172h324v140h-565z" />
    <glyph glyph-name="Ccedilla" unicode="&#xc7;" horiz-adv-x="650" 
d="M235 -190l18 -9l24 -8l30 -6l35 -2l52 6l38 17l22 27l8 38l-8 37l-21 26l-32 17l-39 7l11 29l104 22l74 50l45 81l15 115v9h-162l-6 -57l-18 -44l-34 -28l-50 -10h-9l-64 16l-39 47l-20 76l-6 104v40l6 104l20 76l39 47l64 16h9l53 -11l33 -33l17 -53l5 -72h162v36
l-18 125l-52 85l-87 48l-122 15l-131 -22l-92 -68l-53 -119l-17 -174v-40l15 -166l48 -116l81 -71l117 -29l-24 -60l15 -28l3 1l9 1l12 2l14 1l21 -1l15 -5l9 -7l3 -10l-2 -10l-8 -7l-15 -4l-22 -2l-20 1l-20 4l-18 5l-14 7z" />
    <glyph glyph-name="Egrave" unicode="&#xc8;" horiz-adv-x="573" 
d="M154 950l64 -110h156l-55 110h-165zM56 780v-780h477v140h-315v188h265v140h-265v172h315v140h-477z" />
    <glyph glyph-name="Eacute" unicode="&#xc9;" horiz-adv-x="573" 
d="M273 950l-55 -110h156l64 110h-165zM56 780v-780h477v140h-315v188h265v140h-265v172h315v140h-477z" />
    <glyph glyph-name="Ecircumflex" unicode="&#xca;" horiz-adv-x="573" 
d="M234 840l62 44l62 -44h142l-124 110h-160l-124 -110h142zM56 780v-780h477v140h-315v188h265v140h-265v172h315v140h-477z" />
    <glyph glyph-name="Edieresis" unicode="&#xcb;" horiz-adv-x="573" 
d="M450 945h-133v-100h133v100zM275 945h-133v-100h133v100zM56 780v-780h477v140h-315v188h265v140h-265v172h315v140h-477z" />
    <glyph glyph-name="Igrave" unicode="&#xcc;" horiz-adv-x="283" 
d="M0 950l64 -110h156l-55 110h-165zM223 780h-162v-780h162v780z" />
    <glyph glyph-name="Iacute" unicode="&#xcd;" horiz-adv-x="283" 
d="M119 950l-55 -110h156l64 110h-165zM223 780h-162v-780h162v780z" />
    <glyph glyph-name="Icircumflex" unicode="&#xce;" horiz-adv-x="283" 
d="M80 840l62 44l62 -44h142l-124 110h-160l-124 -110h142zM223 780h-162v-780h162v780z" />
    <glyph glyph-name="Idieresis" unicode="&#xcf;" horiz-adv-x="283" 
d="M121 945h-133v-100h133v100zM296 945h-133v-100h133v100zM223 780h-162v-780h162v780z" />
    <glyph glyph-name="Eth" unicode="&#xd0;" horiz-adv-x="723" 
d="M278 640h68l84 -14l53 -42l28 -72l8 -102v-40l-8 -102l-28 -71l-53 -43l-84 -14h-68v199h165v121h-165v180zM12 339h104v-339h239l149 20l103 64l58 114l19 172v40l-19 172l-58 114l-103 64l-149 20h-239v-320h-104v-121z" />
    <glyph glyph-name="Ntilde" unicode="&#xd1;" horiz-adv-x="683" 
d="M441 947l-3 -16l-7 -10l-10 -5l-13 -2l-30 8l-35 16l-39 17l-45 7l-39 -6l-33 -20l-22 -37l-9 -56h85l3 16l7 10l10 6l13 1l30 -7l35 -17l39 -16l45 -8l39 6l33 21l23 36l8 56h-85zM627 780h-154v-327l5 -157l-251 484h-171v-780h153v327l-5 157l252 -484h171v780z" />
    <glyph glyph-name="Ograve" unicode="&#xd2;" horiz-adv-x="673" 
d="M194 950l64 -110h156l-55 110h-165zM332 127l-62 16l-40 47l-21 76l-6 104v40l6 104l21 76l40 47l62 16h9l62 -16l40 -47l20 -76l6 -104v-40l-6 -104l-20 -76l-40 -47l-62 -16h-9zM336 -13l132 22l93 68l55 119l18 174v40l-18 174l-55 119l-93 68l-132 22l-132 -22
l-92 -68l-55 -119l-18 -174v-40l18 -174l55 -119l92 -68z" />
    <glyph glyph-name="Oacute" unicode="&#xd3;" horiz-adv-x="673" 
d="M313 950l-55 -110h156l64 110h-165zM332 127l-62 16l-40 47l-21 76l-6 104v40l6 104l21 76l40 47l62 16h9l62 -16l40 -47l20 -76l6 -104v-40l-6 -104l-20 -76l-40 -47l-62 -16h-9zM336 -13l132 22l93 68l55 119l18 174v40l-18 174l-55 119l-93 68l-132 22l-132 -22
l-92 -68l-55 -119l-18 -174v-40l18 -174l55 -119l92 -68z" />
    <glyph glyph-name="Ocircumflex" unicode="&#xd4;" horiz-adv-x="673" 
d="M274 840l62 44l62 -44h142l-124 110h-160l-124 -110h142zM332 127l-62 16l-40 47l-21 76l-6 104v40l6 104l21 76l40 47l62 16h9l62 -16l40 -47l20 -76l6 -104v-40l-6 -104l-20 -76l-40 -47l-62 -16h-9zM336 -13l132 22l93 68l55 119l18 174v40l-18 174l-55 119l-93 68
l-132 22l-132 -22l-92 -68l-55 -119l-18 -174v-40l18 -174l55 -119l92 -68z" />
    <glyph glyph-name="Otilde" unicode="&#xd5;" horiz-adv-x="673" 
d="M436 947l-3 -16l-7 -10l-10 -5l-13 -2l-30 8l-35 16l-39 17l-45 7l-39 -6l-33 -20l-22 -37l-9 -56h85l3 16l7 10l10 6l13 1l30 -7l35 -17l39 -16l45 -8l39 6l33 21l23 36l8 56h-85zM332 127l-62 16l-40 47l-21 76l-6 104v40l6 104l21 76l40 47l62 16h9l62 -16l40 -47
l20 -76l6 -104v-40l-6 -104l-20 -76l-40 -47l-62 -16h-9zM336 -13l132 22l93 68l55 119l18 174v40l-18 174l-55 119l-93 68l-132 22l-132 -22l-92 -68l-55 -119l-18 -174v-40l18 -174l55 -119l92 -68z" />
    <glyph glyph-name="Odieresis" unicode="&#xd6;" horiz-adv-x="673" 
d="M490 945h-133v-100h133v100zM315 945h-133v-100h133v100zM332 127l-62 16l-40 47l-21 76l-6 104v40l6 104l21 76l40 47l62 16h9l62 -16l40 -47l20 -76l6 -104v-40l-6 -104l-20 -76l-40 -47l-62 -16h-9zM336 -13l132 22l93 68l55 119l18 174v40l-18 174l-55 119l-93 68
l-132 22l-132 -22l-92 -68l-55 -119l-18 -174v-40l18 -174l55 -119l92 -68z" />
    <glyph glyph-name="multiply" unicode="&#xd7;" horiz-adv-x="600" 
d="M129 119l171 171l171 -171l100 100l-171 171l171 171l-100 100l-171 -171l-171 171l-100 -100l171 -171l-171 -171z" />
    <glyph glyph-name="Oslash" unicode="&#xd8;" horiz-adv-x="670" 
d="M203 370v40l6 104l21 76l40 47l62 16h9l27 -3l24 -7l20 -13l17 -17l-220 -345l-3 23l-1 25l-2 26v28zM469 410v-40l-6 -104l-20 -76l-40 -47l-62 -16h-9l-28 3l-24 7l-20 13l-17 18l220 345l3 -23l2 -25l1 -27v-28zM39 410v-40l4 -86l11 -74l19 -63l26 -52l-61 -95h98
l21 34l37 -21l42 -15l47 -8l53 -3l132 22l93 68l55 119l18 174v40l-4 86l-11 75l-19 63l-27 52l60 94h-98l-21 -33l-37 20l-42 15l-47 8l-52 3l-132 -22l-92 -68l-55 -119z" />
    <glyph glyph-name="Ugrave" unicode="&#xd9;" horiz-adv-x="663" 
d="M189 950l64 -110h156l-55 110h-165zM331 -13l133 17l87 49l47 82l14 112v533h-162v-528l-6 -55l-19 -39l-37 -23l-57 -8l-57 8l-36 23l-19 39l-6 55v528h-162v-533l14 -112l47 -82l86 -49z" />
    <glyph glyph-name="Uacute" unicode="&#xda;" horiz-adv-x="663" 
d="M308 950l-55 -110h156l64 110h-165zM331 -13l133 17l87 49l47 82l14 112v533h-162v-528l-6 -55l-19 -39l-37 -23l-57 -8l-57 8l-36 23l-19 39l-6 55v528h-162v-533l14 -112l47 -82l86 -49z" />
    <glyph glyph-name="Ucircumflex" unicode="&#xdb;" horiz-adv-x="663" 
d="M269 840l62 44l62 -44h142l-124 110h-160l-124 -110h142zM331 -13l133 17l87 49l47 82l14 112v533h-162v-528l-6 -55l-19 -39l-37 -23l-57 -8l-57 8l-36 23l-19 39l-6 55v528h-162v-533l14 -112l47 -82l86 -49z" />
    <glyph glyph-name="Udieresis" unicode="&#xdc;" horiz-adv-x="663" 
d="M485 945h-133v-100h133v100zM310 945h-133v-100h133v100zM331 -13l133 17l87 49l47 82l14 112v533h-162v-528l-6 -55l-19 -39l-37 -23l-57 -8l-57 8l-36 23l-19 39l-6 55v528h-162v-533l14 -112l47 -82l86 -49z" />
    <glyph glyph-name="Yacute" unicode="&#xdd;" horiz-adv-x="625" 
d="M290 950l-55 -110h156l64 110h-165zM394 239l223 541h-177l-127 -341l-128 341h-177l224 -541v-239h162v239z" />
    <glyph glyph-name="Thorn" unicode="&#xde;" horiz-adv-x="609" 
d="M218 280v220h101l34 -4l33 -15l24 -32l9 -54v-10l-9 -54l-24 -31l-33 -16l-34 -4h-101zM218 780h-162v-780h162v140h94l96 8l87 34l64 73l24 125v20l-24 125l-64 73l-87 34l-96 8h-94v140z" />
    <glyph glyph-name="germandbls" unicode="&#xdf;" horiz-adv-x="632" 
d="M285 334l93 -64l36 -29l23 -28l13 -26l4 -25l-2 -21l-5 -17l-12 -12l-18 -5l-17 4l-12 12l-8 19l-2 26h-134v-8l7 -69l27 -55l53 -36l89 -13l88 15l59 39l34 57l11 66v9l-9 58l-27 54l-45 50l-60 47l-24 16l42 36l32 42l20 49l7 59v10l-15 83l-45 70l-78 48l-111 18
l-116 -17l-78 -47l-43 -69l-13 -86v-594h158v585l5 34l16 29l29 21l42 8l41 -7l29 -21l16 -31l5 -41l-8 -43l-21 -39l-33 -33l-43 -28v-100z" />
    <glyph glyph-name="agrave" unicode="&#xe0;" horiz-adv-x="549" 
d="M250 115l-29 5l-20 12l-11 17l-3 20v6l3 22l11 19l20 13l31 9l90 14v-97l-15 -14l-20 -13l-26 -9zM89 780l107 -184h156l-91 184h-172zM368 0h142l-10 150v191l-11 86l-37 63l-69 39l-108 14l-109 -15l-69 -40l-36 -57l-11 -67v-9h149l3 25l11 22l22 15l35 6l34 -5
l22 -14l12 -25l4 -34l-122 -19l-77 -18l-60 -30l-39 -49l-14 -73v-10l9 -61l27 -50l50 -35l76 -13l52 5l45 14l38 22l31 27z" />
    <glyph glyph-name="aacute" unicode="&#xe1;" horiz-adv-x="549" 
d="M250 115l-29 5l-20 12l-11 17l-3 20v6l3 22l11 19l20 13l31 9l90 14v-97l-15 -14l-20 -13l-26 -9zM287 780l-91 -184h156l107 184h-172zM368 0h142l-10 150v191l-11 86l-37 63l-69 39l-108 14l-109 -15l-69 -40l-36 -57l-11 -67v-9h149l3 25l11 22l22 15l35 6l34 -5
l22 -14l12 -25l4 -34l-122 -19l-77 -18l-60 -30l-39 -49l-14 -73v-10l9 -61l27 -50l50 -35l76 -13l52 5l45 14l38 22l31 27z" />
    <glyph glyph-name="acircumflex" unicode="&#xe2;" horiz-adv-x="549" 
d="M250 115l-29 5l-20 12l-11 17l-3 20v6l3 22l11 19l20 13l31 9l90 14v-97l-15 -14l-20 -13l-26 -9zM202 596l72 82l72 -82h138l-134 184h-152l-134 -184h138zM368 0h142l-10 150v191l-11 86l-37 63l-69 39l-108 14l-109 -15l-69 -40l-36 -57l-11 -67v-9h149l3 25l11 22
l22 15l35 6l34 -5l22 -14l12 -25l4 -34l-122 -19l-77 -18l-60 -30l-39 -49l-14 -73v-10l9 -61l27 -50l50 -35l76 -13l52 5l45 14l38 22l31 27z" />
    <glyph glyph-name="atilde" unicode="&#xe3;" horiz-adv-x="549" 
d="M250 115l-29 5l-20 12l-11 17l-3 20v6l3 22l11 19l20 13l31 9l90 14v-97l-15 -14l-20 -13l-26 -9zM370 772l-2 -17l-7 -12l-10 -6l-12 -2l-32 8l-36 18l-41 18l-46 8l-43 -9l-36 -28l-23 -50l-9 -72h105l2 17l7 12l10 6l12 2l32 -8l37 -18l40 -18l46 -8l44 9l35 29l23 49
l9 72h-105zM368 0h142l-10 150v191l-11 86l-37 63l-69 39l-108 14l-109 -15l-69 -40l-36 -57l-11 -67v-9h149l3 25l11 22l22 15l35 6l34 -5l22 -14l12 -25l4 -34l-122 -19l-77 -18l-60 -30l-39 -49l-14 -73v-10l9 -61l27 -50l50 -35l76 -13l52 5l45 14l38 22l31 27z" />
    <glyph glyph-name="adieresis" unicode="&#xe4;" horiz-adv-x="549" 
d="M250 115l-29 5l-20 12l-11 17l-3 20v6l3 22l11 19l20 13l31 9l90 14v-97l-15 -14l-20 -13l-26 -9zM464 772h-165v-166h165v166zM249 772h-165v-166h165v166zM368 0h142l-10 150v191l-11 86l-37 63l-69 39l-108 14l-109 -15l-69 -40l-36 -57l-11 -67v-9h149l3 25l11 22
l22 15l35 6l34 -5l22 -14l12 -25l4 -34l-122 -19l-77 -18l-60 -30l-39 -49l-14 -73v-10l9 -61l27 -50l50 -35l76 -13l52 5l45 14l38 22l31 27z" />
    <glyph glyph-name="aring" unicode="&#xe5;" horiz-adv-x="549" 
d="M224 688l4 20l11 16l16 10l20 4l20 -4l16 -10l11 -16l4 -20l-4 -20l-11 -16l-16 -11l-20 -4l-20 4l-16 11l-11 16zM250 115l-29 5l-20 12l-11 17l-3 20v6l3 22l11 19l20 13l31 9l90 14v-97l-15 -14l-20 -13l-26 -9zM170 688l8 -41l23 -34l33 -23l41 -8l41 8l33 23l23 34
l8 41l-8 41l-23 33l-33 23l-41 8l-41 -8l-33 -23l-23 -33zM368 0h142l-10 150v191l-11 86l-37 63l-69 39l-108 14l-109 -15l-69 -40l-36 -57l-11 -67v-9h149l3 25l11 22l22 15l35 6l34 -5l22 -14l12 -25l4 -34l-122 -19l-77 -18l-60 -30l-39 -49l-14 -73v-10l9 -61l27 -50
l50 -35l76 -13l52 5l45 14l38 22l31 27z" />
    <glyph glyph-name="ae" unicode="&#xe6;" horiz-adv-x="859" 
d="M590 423l37 -6l27 -19l17 -31l8 -45h-178l8 45l17 31l27 19zM351 163l-13 -16l-21 -17l-30 -13l-37 -6l-29 5l-20 12l-11 17l-3 19v7l3 22l12 19l20 13l31 9l89 14l1 -22l2 -21l3 -21l4 -20zM838 208v71l-15 106l-44 83l-76 55l-109 20l-49 -4l-42 -12l-36 -18l-29 -25
l-26 25l-35 18l-45 12l-57 4l-109 -15l-69 -40l-36 -57l-11 -67v-9h149l3 25l11 22l22 15l35 6l34 -5l22 -14l12 -25l4 -34l-121 -19l-77 -18l-60 -30l-40 -49l-14 -73v-10l9 -61l30 -50l54 -35l81 -13l58 5l53 16l48 23l42 30l36 -31l44 -24l52 -14l62 -5l102 14l75 38
l46 56l16 71v4h-149l-6 -23l-18 -20l-28 -15l-37 -5l-40 5l-30 18l-20 31l-10 47h338z" />
    <glyph glyph-name="ccedilla" unicode="&#xe7;" horiz-adv-x="527" 
d="M165 -190l18 -9l24 -8l30 -6l35 -2l52 6l38 17l22 27l8 38l-8 37l-21 26l-32 17l-39 7l10 29l86 19l61 39l37 57l12 70v22h-149l-5 -29l-14 -23l-24 -15l-33 -6l-39 8l-26 25l-15 39l-5 52v36l5 52l15 39l26 25l39 8l33 -5l24 -16l14 -26l5 -36h149v23l-14 80l-43 62
l-71 40l-100 14l-108 -19l-75 -54l-43 -82l-14 -105v-36l12 -98l36 -78l62 -54l90 -27l-24 -62l15 -28l3 1l9 1l12 2l14 1l21 -1l15 -5l9 -7l3 -10l-2 -10l-8 -7l-15 -4l-22 -2l-20 1l-20 4l-18 5l-14 7z" />
    <glyph glyph-name="egrave" unicode="&#xe8;" horiz-adv-x="556" 
d="M278 423l37 -6l27 -19l17 -31l8 -45h-178l8 45l17 31l27 19zM96 780l107 -184h156l-91 184h-172zM526 208v71l-15 106l-44 83l-77 55l-109 20l-110 -20l-78 -55l-47 -83l-16 -106v-28l15 -106l48 -83l80 -55l114 -20l102 14l75 38l46 56l16 71v4h-149l-6 -23l-18 -20
l-28 -15l-37 -5l-40 5l-30 18l-20 31l-10 47h338z" />
    <glyph glyph-name="eacute" unicode="&#xe9;" horiz-adv-x="556" 
d="M278 423l37 -6l27 -19l17 -31l8 -45h-178l8 45l17 31l27 19zM294 780l-91 -184h156l107 184h-172zM526 208v71l-15 106l-44 83l-77 55l-109 20l-110 -20l-78 -55l-47 -83l-16 -106v-28l15 -106l48 -83l80 -55l114 -20l102 14l75 38l46 56l16 71v4h-149l-6 -23l-18 -20
l-28 -15l-37 -5l-40 5l-30 18l-20 31l-10 47h338z" />
    <glyph glyph-name="ecircumflex" unicode="&#xea;" horiz-adv-x="556" 
d="M278 423l37 -6l27 -19l17 -31l8 -45h-178l8 45l17 31l27 19zM209 596l72 82l72 -82h138l-134 184h-152l-134 -184h138zM526 208v71l-15 106l-44 83l-77 55l-109 20l-110 -20l-78 -55l-47 -83l-16 -106v-28l15 -106l48 -83l80 -55l114 -20l102 14l75 38l46 56l16 71v4
h-149l-6 -23l-18 -20l-28 -15l-37 -5l-40 5l-30 18l-20 31l-10 47h338z" />
    <glyph glyph-name="edieresis" unicode="&#xeb;" horiz-adv-x="556" 
d="M278 423l37 -6l27 -19l17 -31l8 -45h-178l8 45l17 31l27 19zM256 772h-165v-166h165v166zM471 772h-165v-166h165v166zM526 208v71l-15 106l-44 83l-77 55l-109 20l-110 -20l-78 -55l-47 -83l-16 -106v-28l15 -106l48 -83l80 -55l114 -20l102 14l75 38l46 56l16 71v4
h-149l-6 -23l-18 -20l-28 -15l-37 -5l-40 5l-30 18l-20 31l-10 47h338z" />
    <glyph glyph-name="igrave" unicode="&#xec;" horiz-adv-x="266" 
d="M-52 780l107 -184h156l-91 184h-172zM54 0h157v530h-157v-530z" />
    <glyph glyph-name="iacute" unicode="&#xed;" horiz-adv-x="265" 
d="M146 780l-91 -184h156l107 184h-172zM54 0h157v530h-157v-530z" />
    <glyph glyph-name="icircumflex" unicode="&#xee;" horiz-adv-x="265" 
d="M61 596l72 82l72 -82h138l-134 184h-152l-134 -184h138zM54 0h157v530h-157v-530z" />
    <glyph glyph-name="idieresis" unicode="&#xef;" horiz-adv-x="265" 
d="M323 772h-165v-166h165v166zM108 772h-165v-166h165v166zM54 0h157v530h-157v-530z" />
    <glyph glyph-name="eth" unicode="&#xf0;" horiz-adv-x="556" 
d="M278 122l-41 9l-28 24l-17 40l-5 52v36l5 52l17 40l28 24l41 9l41 -9l28 -24l17 -40l5 -52v-36l-5 -52l-17 -40l-28 -24zM31 673l29 -3l29 -5l27 -5l27 -7l-84 -46v-89l176 98l17 -11l17 -12l15 -13l13 -14l7 -8l6 -8l6 -8l6 -9l-16 5l-17 3l-17 1l-18 1l-96 -19l-70 -54
l-43 -82l-14 -105v-36l15 -105l45 -82l77 -54l110 -19l111 19l77 54l45 82l15 105v36l-5 94l-16 97l-33 94l-52 87l-9 11l-10 11l-10 10l-10 10l49 27v89l-120 -67l-63 28l-68 19l-73 13l-75 7v-140z" />
    <glyph glyph-name="ntilde" unicode="&#xf1;" horiz-adv-x="580" 
d="M389 772l-2 -17l-7 -12l-10 -6l-12 -2l-32 8l-36 18l-41 18l-46 8l-43 -9l-36 -28l-23 -50l-9 -72h105l2 17l7 12l10 6l12 2l32 -8l37 -18l40 -18l46 -8l44 9l35 29l23 49l9 72h-105zM532 0v359l-9 69l-28 59l-51 41l-76 15l-57 -6l-46 -17l-38 -26l-29 -32l-12 68h-141
l9 -150v-380h158v357l13 16l19 16l27 13l34 5l34 -6l21 -17l12 -23l3 -28v-333h157z" />
    <glyph glyph-name="ograve" unicode="&#xf2;" horiz-adv-x="556" 
d="M93 780l107 -184h156l-91 184h-172zM278 123l-40 8l-28 25l-17 39l-5 52v36l5 52l17 39l28 25l40 8l41 -8l28 -25l16 -39l5 -52v-36l-5 -52l-16 -39l-28 -25zM278 -13l111 19l77 54l45 82l15 105v36l-15 105l-45 82l-77 54l-111 19l-110 -19l-78 -54l-45 -82l-15 -105
v-36l15 -105l45 -82l78 -54z" />
    <glyph glyph-name="oacute" unicode="&#xf3;" horiz-adv-x="556" 
d="M291 780l-91 -184h156l107 184h-172zM278 123l-40 8l-28 25l-17 39l-5 52v36l5 52l17 39l28 25l40 8l41 -8l28 -25l16 -39l5 -52v-36l-5 -52l-16 -39l-28 -25zM278 -13l111 19l77 54l45 82l15 105v36l-15 105l-45 82l-77 54l-111 19l-110 -19l-78 -54l-45 -82l-15 -105
v-36l15 -105l45 -82l78 -54z" />
    <glyph glyph-name="ocircumflex" unicode="&#xf4;" horiz-adv-x="556" 
d="M278 123l-40 8l-28 25l-17 39l-5 52v36l5 52l17 39l28 25l40 8l41 -8l28 -25l16 -39l5 -52v-36l-5 -52l-16 -39l-28 -25zM206 596l72 82l72 -82h138l-134 184h-152l-134 -184h138zM278 -13l111 19l77 54l45 82l15 105v36l-15 105l-45 82l-77 54l-111 19l-110 -19l-78 -54
l-45 -82l-15 -105v-36l15 -105l45 -82l78 -54z" />
    <glyph glyph-name="otilde" unicode="&#xf5;" horiz-adv-x="556" 
d="M278 123l-40 8l-28 25l-17 39l-5 52v36l5 52l17 39l28 25l40 8l41 -8l28 -25l16 -39l5 -52v-36l-5 -52l-16 -39l-28 -25zM374 772l-2 -17l-7 -12l-10 -6l-12 -2l-32 8l-36 18l-41 18l-46 8l-43 -9l-36 -28l-23 -50l-9 -72h105l2 17l7 12l10 6l12 2l32 -8l37 -18l40 -18
l46 -8l44 9l35 29l23 49l9 72h-105zM278 -13l111 19l77 54l45 82l15 105v36l-15 105l-45 82l-77 54l-111 19l-110 -19l-78 -54l-45 -82l-15 -105v-36l15 -105l45 -82l78 -54z" />
    <glyph glyph-name="odieresis" unicode="&#xf6;" horiz-adv-x="556" 
d="M468 772h-165v-166h165v166zM253 772h-165v-166h165v166zM278 123l-40 8l-28 25l-17 39l-5 52v36l5 52l17 39l28 25l40 8l41 -8l28 -25l16 -39l5 -52v-36l-5 -52l-16 -39l-28 -25zM278 -13l111 19l77 54l45 82l15 105v36l-15 105l-45 82l-77 54l-111 19l-110 -19l-78 -54
l-45 -82l-15 -105v-36l15 -105l45 -82l78 -54z" />
    <glyph glyph-name="divide" unicode="&#xf7;" horiz-adv-x="600" 
d="M383 681h-166v-166h166v166zM383 265h-166v-166h166v166zM42 320h516v140h-516v-140z" />
    <glyph glyph-name="oslash" unicode="&#xf8;" horiz-adv-x="556" 
d="M188 247v36l5 52l17 39l28 25l40 8l16 -1l15 -3l13 -6l11 -8l-142 -183l-1 10l-1 10l-1 10v11zM368 283v-36l-5 -52l-16 -39l-28 -25l-41 -8l-17 1l-15 4l-13 6l-11 8l143 182l1 -9l1 -10l1 -11v-11zM526 530h-82l-19 -25l-31 16l-34 12l-39 7l-43 3l-110 -19l-78 -54
l-45 -82l-15 -105v-36l3 -52l10 -48l17 -42l23 -37l-53 -68h81l19 25l31 -16l34 -12l39 -8l44 -2l111 19l77 54l45 82l15 105v36l-3 52l-10 47l-17 43l-23 37z" />
    <glyph glyph-name="ugrave" unicode="&#xf9;" horiz-adv-x="580" 
d="M101 780l107 -184h156l-91 184h-172zM48 530v-359l9 -69l28 -59l50 -41l77 -15l56 6l47 16l37 26l30 32l12 -67h141l-9 150v380h-158v-357l-13 -16l-20 -16l-26 -13l-34 -5l-34 6l-21 17l-12 23l-3 28v333h-157z" />
    <glyph glyph-name="uacute" unicode="&#xfa;" horiz-adv-x="580" 
d="M299 780l-91 -184h156l107 184h-172zM48 530v-359l9 -69l28 -59l50 -41l77 -15l56 6l47 16l37 26l30 32l12 -67h141l-9 150v380h-158v-357l-13 -16l-20 -16l-26 -13l-34 -5l-34 6l-21 17l-12 23l-3 28v333h-157z" />
    <glyph glyph-name="ucircumflex" unicode="&#xfb;" horiz-adv-x="580" 
d="M214 596l72 82l72 -82h138l-134 184h-152l-134 -184h138zM48 530v-359l9 -69l28 -59l50 -41l77 -15l56 6l47 16l37 26l30 32l12 -67h141l-9 150v380h-158v-357l-13 -16l-20 -16l-26 -13l-34 -5l-34 6l-21 17l-12 23l-3 28v333h-157z" />
    <glyph glyph-name="udieresis" unicode="&#xfc;" horiz-adv-x="580" 
d="M261 772h-165v-166h165v166zM476 772h-165v-166h165v166zM48 530v-359l9 -69l28 -59l50 -41l77 -15l56 6l47 16l37 26l30 32l12 -67h141l-9 150v380h-158v-357l-13 -16l-20 -16l-26 -13l-34 -5l-34 6l-21 17l-12 23l-3 28v333h-157z" />
    <glyph glyph-name="yacute" unicode="&#xfd;" horiz-adv-x="551" 
d="M290 780l-91 -184h156l107 184h-172zM277 192l-100 338h-172l186 -502l-85 -228h188l68 228l187 502h-172z" />
    <glyph glyph-name="thorn" unicode="&#xfe;" horiz-adv-x="574" 
d="M211 173v184l13 16l19 16l26 13l32 5l39 -8l26 -25l15 -39l5 -52v-36l-5 -52l-15 -39l-26 -25l-39 -8l-32 5l-26 13l-19 16zM52 800v-1000h158v246l25 -24l31 -19l37 -12l44 -4l92 19l61 54l34 82l10 105v36l-10 105l-34 82l-61 54l-92 19l-44 -4l-37 -12l-31 -19
l-25 -24v316h-158z" />
    <glyph glyph-name="ydieresis" unicode="&#xff;" horiz-adv-x="551" 
d="M252 772h-165v-166h165v166zM467 772h-165v-166h165v166zM277 192l-100 338h-172l186 -502l-85 -228h188l68 228l187 502h-172z" />
    <glyph glyph-name="Amacron" unicode="&#x100;" horiz-adv-x="641" 
d="M320 595l64 -287h-128zM171 847h298v96h-298v-96zM209 782l-195 -782h174l37 168h191l38 -168h173l-195 782h-223z" />
    <glyph glyph-name="amacron" unicode="&#x101;" horiz-adv-x="549" 
d="M250 115l-29 5l-20 12l-11 17l-3 20v6l3 22l11 19l20 13l31 9l90 14v-97l-15 -14l-20 -13l-26 -9zM124 619h300v138h-300v-138zM368 0h142l-10 150v191l-11 86l-37 63l-69 39l-108 14l-109 -15l-69 -40l-36 -57l-11 -67v-9h149l3 25l11 22l22 15l35 6l34 -5l22 -14
l12 -25l4 -34l-122 -19l-77 -18l-60 -30l-39 -49l-14 -73v-10l9 -61l27 -50l50 -35l76 -13l52 5l45 14l38 22l31 27z" />
    <glyph glyph-name="Abreve" unicode="&#x102;" horiz-adv-x="641" 
d="M320 595l64 -287h-128zM320 825l91 10l56 27l28 40l8 48h-109l-4 -17l-13 -13l-23 -7l-34 -3l-34 3l-23 7l-13 13l-4 17h-109l8 -48l28 -40l56 -27zM209 782l-195 -782h174l37 168h191l38 -168h173l-195 782h-223z" />
    <glyph glyph-name="abreve" unicode="&#x103;" horiz-adv-x="549" 
d="M250 115l-29 5l-20 12l-11 17l-3 20v6l3 22l11 19l20 13l31 9l90 14v-97l-15 -14l-20 -13l-26 -9zM274 582l89 15l58 41l31 63l9 79h-113l-6 -37l-15 -24l-23 -13l-30 -4l-30 4l-23 13l-15 24l-6 37h-113l9 -79l31 -63l58 -41zM368 0h142l-10 150v191l-11 86l-37 63
l-69 39l-108 14l-109 -15l-69 -40l-36 -57l-11 -67v-9h149l3 25l11 22l22 15l35 6l34 -5l22 -14l12 -25l4 -34l-122 -19l-77 -18l-60 -30l-39 -49l-14 -73v-10l9 -61l27 -50l50 -35l76 -13l52 5l45 14l38 22l31 27z" />
    <glyph glyph-name="Aogonek" unicode="&#x104;" horiz-adv-x="641" 
d="M320 595l64 -287h-128zM565 -69l4 21l12 18l20 16l26 14l-195 782h-223l-195 -782h174l37 168h191l38 -168h38l-18 -22l-14 -26l-9 -28l-3 -31l10 -48l27 -33l43 -20l55 -7l30 2l29 6l25 8l19 9l-36 96l-7 -4l-10 -3l-12 -3l-13 -1l-18 3l-13 7l-9 12z" />
    <glyph glyph-name="aogonek" unicode="&#x105;" horiz-adv-x="549" 
d="M329 -107l10 -48l27 -33l43 -20l55 -7l30 2l29 6l25 8l19 9l-36 96l-7 -4l-10 -3l-12 -3l-13 -1l-18 3l-13 7l-9 12l-3 14l4 21l12 18l20 16l26 14h2l-10 150v191l-11 86l-37 63l-69 39l-108 14l-109 -15l-69 -40l-36 -57l-11 -67v-9h149l3 25l11 22l22 15l35 6l34 -5
l22 -14l12 -25l4 -34l-122 -19l-77 -18l-60 -30l-39 -49l-14 -73v-10l9 -61l27 -50l50 -35l76 -13l52 5l45 14l38 22l31 27l11 -59l-17 -22l-12 -25l-8 -27zM250 115l-29 5l-20 12l-11 17l-3 20v6l3 22l11 19l20 13l31 9l90 14v-97l-15 -14l-20 -13l-26 -9z" />
    <glyph glyph-name="Cacute" unicode="&#x106;" horiz-adv-x="650" 
d="M309 950l-55 -110h156l64 110h-165zM203 370v40l6 104l20 76l39 47l64 16h9l53 -11l33 -33l17 -53l5 -72h162v36l-18 125l-52 85l-87 48l-122 15l-131 -22l-92 -68l-53 -119l-17 -174v-40l17 -174l53 -119l92 -68l131 -22l122 15l87 48l52 84l18 123v9h-162l-6 -57
l-18 -44l-34 -28l-50 -10h-9l-64 16l-39 47l-20 76z" />
    <glyph glyph-name="cacute" unicode="&#x107;" horiz-adv-x="527" 
d="M283 780l-91 -184h156l107 184h-172zM188 247v36l5 52l15 39l26 25l39 8l33 -5l24 -16l14 -26l5 -36h149v23l-14 80l-43 62l-71 40l-100 14l-108 -19l-75 -54l-43 -82l-14 -105v-36l14 -105l43 -82l75 -54l108 -19l100 14l71 39l43 59l14 75v22h-149l-5 -29l-14 -23
l-24 -15l-33 -6l-39 8l-26 25l-15 39z" />
    <glyph glyph-name="Ccircumflex" unicode="&#x108;" horiz-adv-x="650" 
d="M270 840l62 44l62 -44h142l-124 110h-160l-124 -110h142zM203 370v40l6 104l20 76l39 47l64 16h9l53 -11l33 -33l17 -53l5 -72h162v36l-18 125l-52 85l-87 48l-122 15l-131 -22l-92 -68l-53 -119l-17 -174v-40l17 -174l53 -119l92 -68l131 -22l122 15l87 48l52 84l18 123
v9h-162l-6 -57l-18 -44l-34 -28l-50 -10h-9l-64 16l-39 47l-20 76z" />
    <glyph glyph-name="ccircumflex" unicode="&#x109;" horiz-adv-x="527" 
d="M198 596l72 82l72 -82h138l-134 184h-152l-134 -184h138zM188 247v36l5 52l15 39l26 25l39 8l33 -5l24 -16l14 -26l5 -36h149v23l-14 80l-43 62l-71 40l-100 14l-108 -19l-75 -54l-43 -82l-14 -105v-36l14 -105l43 -82l75 -54l108 -19l100 14l71 39l43 59l14 75v22h-149
l-5 -29l-14 -23l-24 -15l-33 -6l-39 8l-26 25l-15 39z" />
    <glyph glyph-name="Cdotaccent" unicode="&#x10a;" horiz-adv-x="650" 
d="M399 945h-134v-100h134v100zM203 370v40l6 104l20 76l39 47l64 16h9l53 -11l33 -33l17 -53l5 -72h162v36l-18 125l-52 85l-87 48l-122 15l-131 -22l-92 -68l-53 -119l-17 -174v-40l17 -174l53 -119l92 -68l131 -22l122 15l87 48l52 84l18 123v9h-162l-6 -57l-18 -44
l-34 -28l-50 -10h-9l-64 16l-39 47l-20 76z" />
    <glyph glyph-name="cdotaccent" unicode="&#x10b;" horiz-adv-x="527" 
d="M353 772h-166v-166h166v166zM188 247v36l5 52l15 39l26 25l39 8l33 -5l24 -16l14 -26l5 -36h149v23l-14 80l-43 62l-71 40l-100 14l-108 -19l-75 -54l-43 -82l-14 -105v-36l14 -105l43 -82l75 -54l108 -19l100 14l71 39l43 59l14 75v22h-149l-5 -29l-14 -23l-24 -15
l-33 -6l-39 8l-26 25l-15 39z" />
    <glyph glyph-name="Ccaron" unicode="&#x10c;" horiz-adv-x="650" 
d="M128 950l124 -110h160l124 110h-142l-62 -45l-62 45h-142zM203 370v40l6 104l20 76l39 47l64 16h9l53 -11l33 -33l17 -53l5 -72h162v36l-18 125l-52 85l-87 48l-122 15l-131 -22l-92 -68l-53 -119l-17 -174v-40l17 -174l53 -119l92 -68l131 -22l122 15l87 48l52 84
l18 123v9h-162l-6 -57l-18 -44l-34 -28l-50 -10h-9l-64 16l-39 47l-20 76z" />
    <glyph glyph-name="ccaron" unicode="&#x10d;" horiz-adv-x="527" 
d="M60 780l134 -184h152l134 184h-138l-72 -83l-72 83h-138zM188 247v36l5 52l15 39l26 25l39 8l33 -5l24 -16l14 -26l5 -36h149v23l-14 80l-43 62l-71 40l-100 14l-108 -19l-75 -54l-43 -82l-14 -105v-36l14 -105l43 -82l75 -54l108 -19l100 14l71 39l43 59l14 75v22h-149
l-5 -29l-14 -23l-24 -15l-33 -6l-39 8l-26 25l-15 39z" />
    <glyph glyph-name="Dcaron" unicode="&#x10e;" horiz-adv-x="663" 
d="M109 950l124 -110h160l124 110h-142l-62 -45l-62 45h-142zM218 140v500h68l84 -14l53 -42l28 -72l8 -102v-40l-8 -102l-28 -71l-53 -43l-84 -14h-68zM624 370v40l-19 172l-58 114l-103 64l-149 20h-239v-780h239l149 20l103 64l58 114z" />
    <glyph glyph-name="dcaron" unicode="&#x10f;" horiz-adv-x="582" 
d="M584 800v-204h70l26 204h-96zM371 357v-184l-13 -16l-19 -16l-26 -13l-32 -5l-40 8l-26 25l-15 39l-5 52v36l5 52l15 39l26 25l40 8l32 -5l26 -13l19 -16zM235 543l-92 -19l-61 -54l-34 -82l-10 -105v-36l10 -105l34 -82l61 -54l92 -19l50 6l41 16l33 24l26 30l11 -63
h142l-9 150v650h-158v-315l-25 24l-31 18l-37 12z" />
    <glyph glyph-name="Dcroat" unicode="&#x110;" horiz-adv-x="723" 
d="M278 640h68l84 -14l53 -42l28 -72l8 -102v-40l-8 -102l-28 -71l-53 -43l-84 -14h-68v199h165v121h-165v180zM12 339h104v-339h239l149 20l103 64l58 114l19 172v40l-19 172l-58 114l-103 64l-149 20h-239v-320h-104v-121z" />
    <glyph glyph-name="dcroat" unicode="&#x111;" horiz-adv-x="582" 
d="M371 357v-184l-13 -16l-19 -17l-26 -13l-33 -5l-39 8l-26 25l-15 39l-5 53v36l5 53l15 39l26 25l39 8l33 -5l26 -13l19 -17zM596 721h-68v79h-157v-79h-113v-112h113v-124l-25 23l-31 19l-37 12l-43 4l-92 -19l-61 -54l-34 -82l-10 -105v-36l10 -105l34 -82l61 -54
l92 -19l50 6l42 16l33 24l25 31l12 -64h140l-9 150v459h68v112z" />
    <glyph glyph-name="Emacron" unicode="&#x112;" horiz-adv-x="573" 
d="M147 847h298v96h-298v-96zM56 780v-780h477v140h-315v188h265v140h-265v172h315v140h-477z" />
    <glyph glyph-name="emacron" unicode="&#x113;" horiz-adv-x="556" 
d="M278 423l37 -6l27 -19l17 -31l8 -45h-178l8 45l17 31l27 19zM131 619h300v138h-300v-138zM526 208v71l-15 106l-44 83l-77 55l-109 20l-110 -20l-78 -55l-47 -83l-16 -106v-28l15 -106l48 -83l80 -55l114 -20l102 14l75 38l46 56l16 71v4h-149l-6 -23l-18 -20l-28 -15
l-37 -5l-40 5l-30 18l-20 31l-10 47h338z" />
    <glyph glyph-name="Ebreve" unicode="&#x114;" horiz-adv-x="573" 
d="M56 780v-780h477v140h-315v188h265v140h-265v172h315v140h-477zM296 825l91 10l56 27l28 40l8 48h-109l-4 -17l-13 -13l-23 -7l-34 -3l-34 3l-23 7l-13 13l-4 17h-109l8 -48l28 -40l56 -27z" />
    <glyph glyph-name="ebreve" unicode="&#x115;" horiz-adv-x="556" 
d="M278 423l37 -6l27 -19l17 -31l8 -45h-178l8 45l17 31l27 19zM281 582l89 15l58 41l31 63l9 79h-113l-6 -37l-15 -24l-23 -13l-30 -4l-30 4l-23 13l-15 24l-6 37h-113l9 -79l31 -63l58 -41zM526 208v71l-15 106l-44 83l-77 55l-109 20l-110 -20l-78 -55l-47 -83l-16 -106
v-28l15 -106l48 -83l80 -55l114 -20l102 14l75 38l46 56l16 71v4h-149l-6 -23l-18 -20l-28 -15l-37 -5l-40 5l-30 18l-20 31l-10 47h338z" />
    <glyph glyph-name="Edotaccent" unicode="&#x116;" horiz-adv-x="573" 
d="M363 945h-134v-100h134v100zM56 780v-780h477v140h-315v188h265v140h-265v172h315v140h-477z" />
    <glyph glyph-name="edotaccent" unicode="&#x117;" horiz-adv-x="556" 
d="M278 423l37 -6l27 -19l17 -31l8 -45h-178l8 45l17 31l27 19zM364 772h-166v-166h166v166zM526 208v71l-15 106l-44 83l-77 55l-109 20l-110 -20l-78 -55l-47 -83l-16 -106v-28l15 -106l48 -83l80 -55l114 -20l102 14l75 38l46 56l16 71v4h-149l-6 -23l-18 -20l-28 -15
l-37 -5l-40 5l-30 18l-20 31l-10 47h338z" />
    <glyph glyph-name="Eogonek" unicode="&#x118;" horiz-adv-x="573" 
d="M56 780v-780h341l-18 -22l-14 -26l-9 -28l-3 -31l10 -48l27 -33l43 -20l55 -7l30 2l29 6l25 8l19 9l-36 96l-7 -4l-10 -3l-12 -3l-13 -1l-18 3l-13 7l-9 12l-3 14l4 21l12 18l20 16l26 14h1v140h-315v188h265v140h-265v172h315v140h-477z" />
    <glyph glyph-name="eogonek" unicode="&#x119;" horiz-adv-x="556" 
d="M278 423l37 -6l27 -19l17 -31l8 -45h-178l8 45l17 31l27 19zM526 208v71l-15 106l-44 83l-77 55l-109 20l-110 -20l-78 -55l-47 -83l-16 -106v-28l13 -98l39 -79l66 -56l95 -28l-15 -21l-11 -23l-7 -26l-2 -27l10 -48l27 -33l43 -20l55 -7l30 2l29 6l25 8l19 9l-36 96
l-7 -4l-10 -3l-12 -3l-13 -1l-18 3l-13 7l-9 12l-3 14l4 22l12 19l19 16l27 12l58 26l44 38l28 47l9 55v4h-149l-6 -23l-18 -20l-28 -15l-37 -5l-40 5l-30 18l-20 31l-10 47h338z" />
    <glyph glyph-name="Ecaron" unicode="&#x11a;" horiz-adv-x="573" 
d="M92 950l124 -110h160l124 110h-142l-62 -45l-62 45h-142zM56 780v-780h477v140h-315v188h265v140h-265v172h315v140h-477z" />
    <glyph glyph-name="ecaron" unicode="&#x11b;" horiz-adv-x="556" 
d="M278 423l37 -6l27 -19l17 -31l8 -45h-178l8 45l17 31l27 19zM71 780l134 -184h152l134 184h-138l-72 -83l-72 83h-138zM526 208v71l-15 106l-44 83l-77 55l-109 20l-110 -20l-78 -55l-47 -83l-16 -106v-28l15 -106l48 -83l80 -55l114 -20l102 14l75 38l46 56l16 71v4
h-149l-6 -23l-18 -20l-28 -15l-37 -5l-40 5l-30 18l-20 31l-10 47h338z" />
    <glyph glyph-name="Gcircumflex" unicode="&#x11c;" horiz-adv-x="673" 
d="M276 840l62 44l62 -44h142l-124 110h-160l-124 -110h142zM348 -13l92 7l74 21l59 29l48 34v344h-265v-140h103v-125l-20 -12l-25 -9l-28 -7l-33 -2h-9l-70 16l-43 47l-21 76l-6 104v40l6 104l21 76l41 47l66 16h9l56 -11l34 -33l18 -53l5 -72h162v36l-18 125l-54 85
l-89 48l-123 15l-132 -22l-93 -68l-56 -119l-18 -174v-40l18 -174l57 -119l96 -68z" />
    <glyph glyph-name="gcircumflex" unicode="&#x11d;" horiz-adv-x="574" 
d="M363 205l-12 -16l-19 -16l-26 -13l-33 -5l-37 7l-27 21l-16 34l-5 50v28l5 46l16 35l27 23l37 8l33 -5l26 -13l19 -16l12 -16v-152zM208 596l72 82l72 -82h138l-134 184h-152l-134 -184h138zM363 11l-5 -45l-17 -30l-28 -16l-40 -5l-41 6l-26 18l-13 27l-4 34h-149v-21
l12 -75l40 -61l72 -41l112 -15l109 14l76 43l45 70l15 96v370l9 150h-141l-11 -61l-26 30l-33 23l-41 15l-51 6l-90 -19l-61 -52l-35 -78l-11 -99v-28l11 -102l35 -79l61 -49l90 -18l43 4l37 11l31 17l25 22v-62z" />
    <glyph glyph-name="Gbreve" unicode="&#x11e;" horiz-adv-x="673" 
d="M338 825l91 10l56 27l28 40l8 48h-109l-4 -17l-13 -13l-23 -7l-34 -3l-34 3l-23 7l-13 13l-4 17h-109l8 -48l28 -40l56 -27zM348 -13l92 7l74 21l59 29l48 34v344h-265v-140h103v-125l-20 -12l-25 -9l-28 -7l-33 -2h-9l-70 16l-43 47l-21 76l-6 104v40l6 104l21 76l41 47
l66 16h9l56 -11l34 -33l18 -53l5 -72h162v36l-18 125l-54 85l-89 48l-123 15l-132 -22l-93 -68l-56 -119l-18 -174v-40l18 -174l57 -119l96 -68z" />
    <glyph glyph-name="gbreve" unicode="&#x11f;" horiz-adv-x="574" 
d="M363 357v-152l-12 -16l-19 -16l-26 -13l-33 -5l-37 7l-27 21l-16 34l-5 50v28l5 46l16 35l27 23l37 8l33 -5l26 -13l19 -16zM280 582l89 15l58 41l31 63l9 79h-113l-6 -37l-15 -24l-23 -13l-30 -4l-30 4l-23 13l-15 24l-6 37h-113l9 -79l31 -63l58 -41zM363 11l-5 -45
l-17 -30l-28 -16l-40 -5l-41 6l-26 18l-13 27l-4 34h-149v-21l12 -75l40 -61l72 -41l112 -15l109 14l76 43l45 70l15 96v370l9 150h-141l-11 -61l-26 30l-33 23l-41 15l-51 6l-90 -19l-61 -52l-35 -78l-11 -99v-28l11 -102l35 -79l61 -49l90 -18l43 4l37 11l31 17l25 22v-62
z" />
    <glyph glyph-name="Gdotaccent" unicode="&#x120;" horiz-adv-x="673" 
d="M405 945h-134v-100h134v100zM348 -13l92 7l74 21l59 29l48 34v344h-265v-140h103v-125l-20 -12l-25 -9l-28 -7l-33 -2h-9l-70 16l-43 47l-21 76l-6 104v40l6 104l21 76l41 47l66 16h9l56 -11l34 -33l18 -53l5 -72h162v36l-18 125l-54 85l-89 48l-123 15l-132 -22l-93 -68
l-56 -119l-18 -174v-40l18 -174l57 -119l96 -68z" />
    <glyph glyph-name="gdotaccent" unicode="&#x121;" horiz-adv-x="574" 
d="M359 772h-166v-166h166v166zM363 357v-152l-12 -16l-19 -16l-26 -13l-33 -5l-37 7l-27 21l-16 34l-5 50v28l5 46l16 35l27 23l37 8l33 -5l26 -13l19 -16zM363 11l-5 -45l-17 -30l-28 -16l-40 -5l-41 6l-26 18l-13 27l-4 34h-149v-21l12 -75l40 -61l72 -41l112 -15l109 14
l76 43l45 70l15 96v370l9 150h-141l-11 -61l-26 30l-33 23l-41 15l-51 6l-90 -19l-61 -52l-35 -78l-11 -99v-28l11 -102l35 -79l61 -49l90 -18l43 4l37 11l31 17l25 22v-62z" />
    <glyph glyph-name="Gcommaaccent" unicode="&#x122;" horiz-adv-x="673" 
d="M419 -44h-142v-92h79l-13 -17l-18 -11l-24 -6l-29 -2v-54l65 7l46 22l27 39l9 57v57zM348 -13l92 7l74 21l59 29l48 34v344h-265v-140h103v-125l-20 -12l-25 -9l-28 -7l-33 -2h-9l-70 16l-43 47l-21 76l-6 104v40l6 104l21 76l41 47l66 16h9l56 -11l34 -33l18 -53l5 -72
h162v36l-18 125l-54 85l-89 48l-123 15l-132 -22l-93 -68l-56 -119l-18 -174v-40l18 -174l57 -119l96 -68z" />
    <glyph glyph-name="gcommaaccent" unicode="&#x123;" horiz-adv-x="574" 
d="M206 596h141v100h-81l12 20l19 14l25 7l31 2v54l-66 -8l-45 -23l-27 -41l-9 -60v-65zM273 154l-38 7l-27 21l-16 35l-5 50v28l5 46l16 36l27 23l38 8l33 -5l26 -13l19 -17l13 -16v-152l-13 -16l-19 -17l-26 -13zM364 11l-6 -46l-17 -30l-28 -16l-40 -5l-41 6l-26 18
l-13 27l-4 35h-148v-21l12 -75l40 -61l72 -41l111 -15l108 14l77 43l45 70l15 96v370l9 150h-141l-11 -60l-25 30l-34 23l-41 15l-51 5l-90 -19l-60 -52l-35 -78l-11 -99v-28l11 -102l35 -78l60 -50l90 -18l44 4l37 11l31 17l25 22v-62z" />
    <glyph glyph-name="Hcircumflex" unicode="&#x124;" horiz-adv-x="663" 
d="M269 840l62 44l62 -44h142l-124 110h-160l-124 -110h142zM445 780v-312h-227v312h-162v-780h162v328h227v-328h162v780h-162z" />
    <glyph glyph-name="hcircumflex" unicode="&#x125;" horiz-adv-x="579" 
d="M70 840l62 44l62 -44h142l-124 110h-160l-124 -110h142zM212 800h-158v-800h158v357l13 16l19 16l27 13l34 5l34 -6l21 -17l12 -23l3 -28v-333h157v359l-9 69l-28 59l-51 41l-76 15l-50 -5l-42 -13l-35 -20l-29 -26v321z" />
    <glyph glyph-name="Hbar" unicode="&#x126;" horiz-adv-x="663" 
d="M218 468v96h227v-96h-227zM445 780v-95h-227v95h-162v-780h162v328h227v-328h162v780h-162z" />
    <glyph glyph-name="hbar" unicode="&#x127;" horiz-adv-x="579" 
d="M211 800h-157v-79h-68v-112h68v-609h157v357l13 16l20 17l26 13l34 5l34 -6l22 -17l12 -24l3 -28v-333h156v359l-9 69l-28 59l-51 41l-76 15l-50 -5l-42 -13l-35 -20l-29 -26v130h113v112h-113v79z" />
    <glyph glyph-name="Itilde" unicode="&#x128;" horiz-adv-x="283" 
d="M242 947l-3 -16l-7 -10l-10 -5l-13 -2l-30 8l-35 16l-39 17l-45 7l-39 -6l-33 -20l-23 -37l-8 -56h85l3 16l7 10l10 6l13 1l30 -7l35 -17l39 -16l45 -8l39 6l33 21l23 36l8 56h-85zM223 780h-162v-780h162v780z" />
    <glyph glyph-name="itilde" unicode="&#x129;" horiz-adv-x="266" 
d="M229 772l-2 -17l-7 -12l-10 -6l-12 -2l-32 8l-36 18l-41 18l-46 8l-44 -9l-35 -28l-23 -50l-9 -72h105l2 17l7 12l10 6l12 2l32 -8l37 -18l40 -18l46 -8l44 9l35 29l23 49l9 72h-105zM54 0h157v530h-157v-530z" />
    <glyph glyph-name="Imacron" unicode="&#x12a;" horiz-adv-x="283" 
d="M-7 847h298v96h-298v-96zM223 780h-162v-780h162v780z" />
    <glyph glyph-name="imacron" unicode="&#x12b;" horiz-adv-x="266" 
d="M-17 619h300v138h-300v-138zM54 0h157v530h-157v-530z" />
    <glyph glyph-name="Ibreve" unicode="&#x12c;" horiz-adv-x="283" 
d="M142 825l91 10l56 27l28 40l8 48h-109l-4 -17l-13 -13l-23 -7l-34 -3l-34 3l-23 7l-13 13l-4 17h-109l8 -48l28 -40l56 -27zM223 780h-162v-780h162v780z" />
    <glyph glyph-name="ibreve" unicode="&#x12d;" horiz-adv-x="265" 
d="M133 582l89 15l58 41l31 63l9 79h-113l-6 -37l-15 -24l-23 -13l-30 -4l-30 4l-23 13l-15 24l-6 37h-113l9 -79l31 -63l58 -41zM54 0h157v530h-157v-530z" />
    <glyph glyph-name="Iogonek" unicode="&#x12e;" horiz-adv-x="283" 
d="M160 -69l4 21l12 18l20 16l26 14h1v780h-162v-815l-8 -16l-5 -18l-4 -18l-1 -20l10 -48l27 -33l43 -20l55 -7l30 2l29 6l25 8l19 9l-36 96l-7 -4l-10 -3l-12 -3l-13 -1l-18 3l-13 7l-9 12z" />
    <glyph glyph-name="iogonek" unicode="&#x12f;" horiz-adv-x="266" 
d="M216 772h-166v-167h166v167zM32 -107l10 -48l27 -33l43 -20l55 -7l30 2l29 6l25 8l19 9l-36 96l-7 -4l-10 -3l-12 -3l-13 -1l-18 3l-13 7l-9 12l-3 14l4 21l12 18l20 16l26 14h1v530h-158v-558l-9 -18l-7 -19l-5 -20z" />
    <glyph glyph-name="Idotaccent" unicode="&#x130;" horiz-adv-x="283" 
d="M209 945h-134v-100h134v100zM223 780h-162v-780h162v780z" />
    <glyph glyph-name="dotlessi" unicode="&#x131;" horiz-adv-x="265" 
d="M54 0h157v530h-157v-530z" />
    <glyph glyph-name="IJ" unicode="&#x132;" horiz-adv-x="607" 
d="M223 780h-162v-780h162v780zM395 209l-5 -41l-15 -25l-25 -13l-32 -3l-15 1l-15 2l-13 3l-9 3v-133l12 -5l20 -6l28 -3l35 -2l79 11l62 35l40 63l15 95v589h-162v-571z" />
    <glyph glyph-name="ij" unicode="&#x133;" horiz-adv-x="481" 
d="M432 772h-166v-167h166v167zM216 772h-166v-167h166v167zM54 0h158v530h-158v-530zM270 1l-6 -40l-15 -23l-25 -12l-32 -3l-14 1l-15 1l-12 3l-8 2v-130l10 -4l18 -4l26 -4l32 -1l81 10l63 34l41 61l14 92v546h-158v-529z" />
    <glyph glyph-name="Jcircumflex" unicode="&#x134;" horiz-adv-x="537" 
d="M343 840l62 44l62 -44h142l-124 110h-160l-124 -110h142zM324 780v-522l-3 -56l-12 -41l-23 -25l-36 -9l-36 9l-22 26l-12 43l-4 61h-153v-26l12 -107l39 -80l71 -49l109 -17l106 17l72 49l41 79l13 106v542h-162z" />
    <glyph glyph-name="jcircumflex" unicode="&#x135;" horiz-adv-x="266" 
d="M61 596l72 82l72 -82h138l-134 184h-152l-134 -184h138zM54 1l-6 -40l-15 -24l-25 -12l-32 -3l-14 1l-15 2l-12 2l-8 2v-129l10 -4l18 -4l25 -4l33 -1l81 10l62 34l41 61l14 92v546h-157v-529z" />
    <glyph glyph-name="Kcommaaccent" unicode="&#x136;" horiz-adv-x="625" 
d="M385 -44h-142v-92h79l-13 -17l-18 -11l-24 -6l-29 -2v-54l65 7l46 22l27 39l9 57v57zM218 780h-162v-780h162v225l66 94l142 -319h180l-219 467l219 313h-196l-192 -306v306z" />
    <glyph glyph-name="kcommaaccent" unicode="&#x137;" horiz-adv-x="562" 
d="M350 -44h-142v-92h79l-13 -17l-18 -11l-24 -6l-29 -2v-54l65 7l46 22l27 39l9 57v57zM50 0h158v144l52 60l100 -204h184l-175 329l175 201h-189l-147 -180v450h-158v-800z" />
    <glyph glyph-name="kgreenlandic" unicode="&#x138;" horiz-adv-x="562" 
d="M50 0h158v144l52 60l100 -204h184l-175 329l175 201h-189l-147 -180v180h-158v-530z" />
    <glyph glyph-name="Lacute" unicode="&#x139;" horiz-adv-x="521" 
d="M114 950l-55 -110h156l64 110h-165zM506 0v140h-288v640h-162v-780h450z" />
    <glyph glyph-name="lacute" unicode="&#x13a;" horiz-adv-x="266" 
d="M110 950l-55 -110h156l64 110h-165zM54 0h158v800h-158v-800z" />
    <glyph glyph-name="Lcommaaccent" unicode="&#x13b;" horiz-adv-x="521" 
d="M352 -44h-142v-92h79l-13 -17l-18 -11l-24 -6l-29 -2v-54l65 7l46 22l27 39l9 57v57zM506 0v140h-288v640h-162v-780h450z" />
    <glyph glyph-name="lcommaaccent" unicode="&#x13c;" horiz-adv-x="266" 
d="M204 -44h-142v-92h79l-13 -17l-18 -11l-24 -6l-29 -2v-54l65 7l46 22l27 39l9 57v57zM54 0h158v800h-158v-800z" />
    <glyph glyph-name="Lcaron" unicode="&#x13d;" horiz-adv-x="521" 
d="M331 800v-204h70l26 204h-96zM506 0v140h-288v640h-162v-780h450z" />
    <glyph glyph-name="lcaron" unicode="&#x13e;" horiz-adv-x="266" 
d="M268 800v-204h70l26 204h-96zM54 0h158v800h-158v-800z" />
    <glyph glyph-name="Ldot" unicode="&#x13f;" horiz-adv-x="521" 
d="M478 481h-165v-166h165v166zM506 0v140h-288v640h-162v-780h450z" />
    <glyph glyph-name="ldot" unicode="&#x140;" horiz-adv-x="439" 
d="M436 434h-166v-167h166v167zM54 0h158v800h-158v-800z" />
    <glyph glyph-name="Lslash" unicode="&#x141;" horiz-adv-x="581" 
d="M12 188l104 51v-239h450v140h-288v179l181 90v134l-181 -89v326h-162v-406l-104 -51v-135z" />
    <glyph glyph-name="lslash" unicode="&#x142;" horiz-adv-x="384" 
d="M23 190l89 56v-246h158v347l101 64v132l-101 -64v321h-158v-421l-89 -56v-133z" />
    <glyph glyph-name="Nacute" unicode="&#x143;" horiz-adv-x="683" 
d="M318 950l-55 -110h156l64 110h-165zM627 780h-154v-327l5 -157l-251 484h-171v-780h153v327l-5 157l252 -484h171v780z" />
    <glyph glyph-name="nacute" unicode="&#x144;" horiz-adv-x="580" 
d="M306 780l-91 -184h156l107 184h-172zM532 0v359l-9 69l-28 59l-51 41l-76 15l-57 -6l-46 -17l-38 -26l-29 -32l-12 68h-141l9 -150v-380h158v357l13 16l19 16l27 13l34 5l34 -6l21 -17l12 -23l3 -28v-333h157z" />
    <glyph glyph-name="Ncommaaccent" unicode="&#x145;" horiz-adv-x="683" 
d="M412 -44h-142v-92h79l-13 -17l-18 -11l-24 -6l-29 -2v-54l65 7l46 22l27 39l9 57v57zM627 780h-154v-327l5 -157l-251 484h-171v-780h153v327l-5 157l252 -484h171v780z" />
    <glyph glyph-name="ncommaaccent" unicode="&#x146;" horiz-adv-x="580" 
d="M364 -44h-142v-92h79l-13 -17l-18 -11l-24 -6l-29 -2v-54l65 7l46 22l27 39l9 57v57zM532 0v359l-9 69l-28 59l-51 41l-76 15l-57 -6l-46 -17l-38 -26l-29 -32l-12 68h-141l9 -150v-380h158v357l13 16l19 16l27 13l34 5l34 -6l21 -17l12 -23l3 -28v-333h157z" />
    <glyph glyph-name="Ncaron" unicode="&#x147;" horiz-adv-x="683" 
d="M137 950l124 -110h160l124 110h-142l-62 -45l-62 45h-142zM627 780h-154v-327l5 -157l-251 484h-171v-780h153v327l-5 157l252 -484h171v780z" />
    <glyph glyph-name="ncaron" unicode="&#x148;" horiz-adv-x="580" 
d="M83 780l134 -184h152l134 184h-138l-72 -83l-72 83h-138zM532 0v359l-9 69l-28 59l-51 41l-76 15l-57 -6l-46 -17l-38 -26l-29 -32l-12 68h-141l9 -150v-380h158v357l13 16l19 16l27 13l34 5l34 -6l21 -17l12 -23l3 -28v-333h157z" />
    <glyph glyph-name="Eng" unicode="&#x14a;" horiz-adv-x="683" 
d="M627 780h-154v-327l5 -157l-251 484h-171v-780h153v327l-5 157l264 -508l-10 -27l-16 -17l-22 -8l-28 -2l-14 1l-15 2l-12 2l-8 2v-129l10 -4l18 -4l25 -4l32 -1l81 10l63 34l41 61l14 92v796z" />
    <glyph glyph-name="eng" unicode="&#x14b;" horiz-adv-x="580" 
d="M374 1l-6 -40l-15 -23l-25 -12l-32 -3l-14 1l-15 1l-12 3l-8 2v-130l10 -4l18 -4l26 -4l32 -1l81 10l63 34l41 61l14 92v375l-9 69l-28 59l-51 41l-76 15l-57 -6l-46 -17l-38 -26l-29 -32l-12 68h-141l9 -150v-380h158v357l13 16l19 16l27 13l34 5l34 -6l21 -17l11 -23
l3 -28v-332z" />
    <glyph glyph-name="Omacron" unicode="&#x14c;" horiz-adv-x="673" 
d="M187 847h298v96h-298v-96zM332 127l-62 16l-40 47l-21 76l-6 104v40l6 104l21 76l40 47l62 16h9l62 -16l40 -47l20 -76l6 -104v-40l-6 -104l-20 -76l-40 -47l-62 -16h-9zM336 -13l132 22l93 68l55 119l18 174v40l-18 174l-55 119l-93 68l-132 22l-132 -22l-92 -68
l-55 -119l-18 -174v-40l18 -174l55 -119l92 -68z" />
    <glyph glyph-name="omacron" unicode="&#x14d;" horiz-adv-x="556" 
d="M128 619h300v138h-300v-138zM278 123l-40 8l-28 25l-17 39l-5 52v36l5 52l17 39l28 25l40 8l41 -8l28 -25l16 -39l5 -52v-36l-5 -52l-16 -39l-28 -25zM278 -13l111 19l77 54l45 82l15 105v36l-15 105l-45 82l-77 54l-111 19l-110 -19l-78 -54l-45 -82l-15 -105v-36
l15 -105l45 -82l78 -54z" />
    <glyph glyph-name="Obreve" unicode="&#x14e;" horiz-adv-x="673" 
d="M336 825l91 10l56 27l28 40l8 48h-109l-4 -17l-13 -13l-23 -7l-34 -3l-34 3l-23 7l-13 13l-4 17h-109l8 -48l28 -40l56 -27zM332 127l-62 16l-40 47l-21 76l-6 104v40l6 104l21 76l40 47l62 16h9l62 -16l40 -47l20 -76l6 -104v-40l-6 -104l-20 -76l-40 -47l-62 -16h-9z
M336 -13l132 22l93 68l55 119l18 174v40l-18 174l-55 119l-93 68l-132 22l-132 -22l-92 -68l-55 -119l-18 -174v-40l18 -174l55 -119l92 -68z" />
    <glyph glyph-name="obreve" unicode="&#x14f;" horiz-adv-x="556" 
d="M278 123l-40 8l-28 25l-17 39l-5 52v36l5 52l17 39l28 25l40 8l41 -8l28 -25l16 -39l5 -52v-36l-5 -52l-16 -39l-28 -25zM278 582l89 15l58 41l31 63l9 79h-113l-6 -37l-15 -24l-23 -13l-30 -4l-30 4l-23 13l-15 24l-6 37h-113l9 -79l31 -63l58 -41zM278 -13l111 19
l77 54l45 82l15 105v36l-15 105l-45 82l-77 54l-111 19l-110 -19l-78 -54l-45 -82l-15 -105v-36l15 -105l45 -82l78 -54z" />
    <glyph glyph-name="Ohungarumlaut" unicode="&#x150;" horiz-adv-x="673" 
d="M404 950l-54 -110h139l64 110h-149zM229 950l-46 -110h139l56 110h-149zM332 127l-62 16l-40 47l-21 76l-6 104v40l6 104l21 76l40 47l62 16h9l62 -16l40 -47l20 -76l6 -104v-40l-6 -104l-20 -76l-40 -47l-62 -16h-9zM336 -13l132 22l93 68l55 119l18 174v40l-18 174
l-55 119l-93 68l-132 22l-132 -22l-92 -68l-55 -119l-18 -174v-40l18 -174l55 -119l92 -68z" />
    <glyph glyph-name="ohungarumlaut" unicode="&#x151;" horiz-adv-x="556" 
d="M387 780l-91 -184h123l107 184h-139zM203 780l-67 -184h123l84 184h-140zM278 123l-40 8l-28 25l-17 39l-5 52v36l5 52l17 39l28 25l40 8l41 -8l28 -25l16 -39l5 -52v-36l-5 -52l-16 -39l-28 -25zM278 -13l111 19l77 54l45 82l15 105v36l-15 105l-45 82l-77 54l-111 19
l-110 -19l-78 -54l-45 -82l-15 -105v-36l15 -105l45 -82l78 -54z" />
    <glyph glyph-name="OE" unicode="&#x152;" horiz-adv-x="940" 
d="M423 640v-500h-47l-84 14l-53 43l-28 71l-8 102v40l8 102l28 72l53 42l84 14h47zM39 410v-40l19 -172l58 -114l102 -64l149 -20h533v140h-315v188h265v140h-265v172h315v140h-533l-149 -20l-102 -64l-58 -114z" />
    <glyph glyph-name="oe" unicode="&#x153;" horiz-adv-x="894" 
d="M616 423l37 -6l27 -19l17 -31l8 -45h-178l8 45l17 31l27 19zM188 247v36l5 52l17 39l28 25l40 8l41 -8l28 -25l16 -39l5 -52v-36l-5 -52l-16 -39l-28 -25l-41 -8l-40 8l-28 25l-17 39zM864 208v71l-15 106l-44 83l-77 55l-109 20l-54 -5l-46 -15l-38 -23l-32 -29l-31 29
l-38 23l-47 15l-55 5l-110 -19l-78 -54l-45 -82l-15 -105v-36l15 -105l45 -82l78 -54l110 -19l55 5l47 14l38 23l31 29l32 -29l40 -23l48 -14l56 -5l102 14l75 38l46 56l16 71v4h-149l-6 -23l-18 -20l-28 -15l-37 -5l-40 5l-30 18l-20 31l-10 47h338z" />
    <glyph glyph-name="Racute" unicode="&#x154;" horiz-adv-x="623" 
d="M275 950l-55 -110h156l64 110h-165zM218 420v220h101l34 -4l33 -15l24 -32l9 -54v-10l-9 -54l-24 -31l-33 -16l-34 -4h-101zM218 280h83l107 -280h175l-123 303l49 28l39 44l26 62l9 83v20l-24 125l-64 73l-87 34l-96 8h-256v-780h162v280z" />
    <glyph glyph-name="racute" unicode="&#x155;" horiz-adv-x="385" 
d="M216 780l-91 -184h156l107 184h-172zM338 543l-44 -6l-38 -15l-33 -24l-26 -30l-11 62h-141l9 -150v-380h158v344l15 16l23 15l33 11l43 4h27v152l-3 1h-4h-4h-4z" />
    <glyph glyph-name="Rcommaaccent" unicode="&#x156;" horiz-adv-x="623" 
d="M379 -44h-142v-92h79l-13 -17l-18 -11l-24 -6l-29 -2v-54l65 7l46 22l27 39l9 57v57zM218 420v220h101l34 -4l33 -15l24 -32l9 -54v-10l-9 -54l-24 -31l-33 -16l-34 -4h-101zM218 280h83l107 -280h175l-123 303l49 28l39 44l26 62l9 83v20l-24 125l-64 73l-87 34l-96 8
h-256v-780h162v280z" />
    <glyph glyph-name="rcommaaccent" unicode="&#x157;" horiz-adv-x="385" 
d="M204 -44h-142v-92h79l-13 -17l-18 -11l-24 -6l-29 -2v-54l65 7l46 22l27 39l9 57v57zM338 543l-44 -6l-38 -15l-33 -24l-26 -30l-11 62h-141l9 -150v-380h158v344l15 16l23 15l33 11l43 4h27v152l-3 1h-4h-4h-4z" />
    <glyph glyph-name="Rcaron" unicode="&#x158;" horiz-adv-x="623" 
d="M94 950l124 -110h160l124 110h-142l-62 -45l-62 45h-142zM218 420v220h101l34 -4l33 -15l24 -32l9 -54v-10l-9 -54l-24 -31l-33 -16l-34 -4h-101zM218 280h83l107 -280h175l-123 303l49 28l39 44l26 62l9 83v20l-24 125l-64 73l-87 34l-96 8h-256v-780h162v280z" />
    <glyph glyph-name="rcaron" unicode="&#x159;" horiz-adv-x="385" 
d="M-7 780l134 -184h152l134 184h-138l-72 -83l-72 83h-138zM338 543l-44 -6l-38 -15l-33 -24l-26 -30l-11 62h-141l9 -150v-380h158v344l15 16l23 15l33 11l43 4h27v152l-3 1h-4h-4h-4z" />
    <glyph glyph-name="Sacute" unicode="&#x15a;" horiz-adv-x="631" 
d="M292 950l-55 -110h156l64 110h-165zM290 326l70 -14l43 -22l23 -29l6 -37v-5l-7 -36l-21 -29l-35 -20l-49 -7h-9l-50 8l-36 25l-22 43l-7 63h-162v-9l18 -121l54 -84l87 -49l122 -16l121 16l89 46l54 75l18 100v10l-16 93l-48 66l-80 42l-112 25l-69 14l-42 21l-21 29
l-5 38v5l7 35l20 27l32 18l44 6h9l52 -9l35 -27l20 -47l6 -66h162v21l-16 119l-50 84l-86 49l-124 16l-118 -16l-86 -47l-53 -73l-18 -96v-11l15 -91l46 -65l78 -43z" />
    <glyph glyph-name="sacute" unicode="&#x15b;" horiz-adv-x="528" 
d="M277 780l-91 -184h156l107 184h-172zM264 107l-34 5l-22 12l-12 20l-4 24h-157v-5l14 -71l42 -56l72 -36l101 -13l100 12l72 36l44 56l14 74v9l-16 69l-45 44l-69 25l-91 12l-38 6l-23 9l-12 15l-3 21l4 20l13 15l21 10l29 3l31 -5l21 -13l12 -21l4 -28h155v5l-13 77
l-40 57l-69 36l-101 12l-88 -10l-71 -31l-47 -53l-17 -79v-9l13 -64l38 -43l67 -28l97 -14l39 -6l24 -10l12 -15l4 -22l-4 -21l-12 -16l-22 -11z" />
    <glyph glyph-name="Scircumflex" unicode="&#x15c;" horiz-adv-x="631" 
d="M253 840l62 44l62 -44h142l-124 110h-160l-124 -110h142zM290 326l70 -14l43 -22l23 -29l6 -37v-5l-7 -36l-21 -29l-35 -20l-49 -7h-9l-50 8l-36 25l-22 43l-7 63h-162v-9l18 -121l54 -84l87 -49l122 -16l121 16l89 46l54 75l18 100v10l-16 93l-48 66l-80 42l-112 25
l-69 14l-42 21l-21 29l-5 38v5l7 35l20 27l32 18l44 6h9l52 -9l35 -27l20 -47l6 -66h162v21l-16 119l-50 84l-86 49l-124 16l-118 -16l-86 -47l-53 -73l-18 -96v-11l15 -91l46 -65l78 -43z" />
    <glyph glyph-name="scircumflex" unicode="&#x15d;" horiz-adv-x="528" 
d="M192 596l72 82l72 -82h138l-134 184h-152l-134 -184h138zM264 107l-34 5l-22 12l-12 20l-4 24h-157v-5l14 -71l42 -56l72 -36l101 -13l100 12l72 36l44 56l14 74v9l-16 69l-45 44l-69 25l-91 12l-38 6l-23 9l-12 15l-3 21l4 20l13 15l21 10l29 3l31 -5l21 -13l12 -21
l4 -28h155v5l-13 77l-40 57l-69 36l-101 12l-88 -10l-71 -31l-47 -53l-17 -79v-9l13 -64l38 -43l67 -28l97 -14l39 -6l24 -10l12 -15l4 -22l-4 -21l-12 -16l-22 -11z" />
    <glyph glyph-name="Scedilla" unicode="&#x15e;" horiz-adv-x="631" 
d="M209 -190l18 -9l24 -8l30 -6l35 -2l52 6l38 17l22 27l8 38l-8 37l-21 26l-32 17l-39 7l10 28l108 21l79 48l48 72l16 95v10l-16 93l-48 66l-80 42l-112 25l-69 14l-42 21l-21 29l-5 38v5l7 35l20 27l32 18l44 6h9l52 -9l35 -27l20 -47l6 -66h162v21l-16 119l-50 84
l-86 49l-124 16l-118 -16l-86 -47l-53 -73l-18 -96v-11l15 -91l46 -65l78 -43l111 -25l70 -14l43 -22l23 -29l6 -37v-5l-7 -36l-21 -29l-35 -20l-49 -7h-9l-50 8l-36 25l-22 43l-7 63h-162v-9l15 -114l46 -81l75 -51l104 -22l-24 -61l15 -28l3 1l9 1l12 2l14 1l21 -1l15 -5
l9 -7l3 -10l-2 -10l-8 -7l-15 -4l-22 -2l-20 1l-20 4l-18 5l-14 7z" />
    <glyph glyph-name="scedilla" unicode="&#x15f;" horiz-adv-x="528" 
d="M158 -190l18 -9l24 -8l30 -6l35 -2l52 6l38 17l22 27l8 38l-8 37l-21 26l-32 17l-39 7l10 28l87 17l62 37l37 54l13 69v9l-16 69l-45 44l-69 25l-91 12l-38 6l-23 9l-12 15l-3 21l4 20l13 15l21 10l29 3l31 -5l21 -13l12 -21l4 -28h155v5l-13 77l-40 57l-69 36l-101 12
l-88 -10l-71 -31l-47 -53l-17 -79v-9l13 -64l38 -43l67 -28l97 -14l39 -6l24 -10l12 -15l4 -22l-4 -21l-12 -16l-22 -11l-33 -4l-34 5l-22 12l-12 20l-4 24h-157v-5l12 -65l34 -53l59 -37l83 -19l-24 -61l15 -28l3 1l9 1l12 2l14 1l21 -1l15 -5l9 -7l3 -10l-2 -10l-8 -7
l-15 -4l-22 -2l-20 1l-20 4l-18 5l-14 7z" />
    <glyph glyph-name="Scaron" unicode="&#x160;" horiz-adv-x="631" 
d="M111 950l124 -110h160l124 110h-142l-62 -45l-62 45h-142zM290 326l70 -14l43 -22l23 -29l6 -37v-5l-7 -36l-21 -29l-35 -20l-49 -7h-9l-50 8l-36 25l-22 43l-7 63h-162v-9l18 -121l54 -84l87 -49l122 -16l121 16l89 46l54 75l18 100v10l-16 93l-48 66l-80 42l-112 25
l-69 14l-42 21l-21 29l-5 38v5l7 35l20 27l32 18l44 6h9l52 -9l35 -27l20 -47l6 -66h162v21l-16 119l-50 84l-86 49l-124 16l-118 -16l-86 -47l-53 -73l-18 -96v-11l15 -91l46 -65l78 -43z" />
    <glyph glyph-name="scaron" unicode="&#x161;" horiz-adv-x="528" 
d="M54 780l134 -184h152l134 184h-138l-72 -83l-72 83h-138zM264 107l-34 5l-22 12l-12 20l-4 24h-157v-5l14 -71l42 -56l72 -36l101 -13l100 12l72 36l44 56l14 74v9l-16 69l-45 44l-69 25l-91 12l-38 6l-23 9l-12 15l-3 21l4 20l13 15l21 10l29 3l31 -5l21 -13l12 -21
l4 -28h155v5l-13 77l-40 57l-69 36l-101 12l-88 -10l-71 -31l-47 -53l-17 -79v-9l13 -64l38 -43l67 -28l97 -14l39 -6l24 -10l12 -15l4 -22l-4 -21l-12 -16l-22 -11z" />
    <glyph glyph-name="Tcommaaccent" unicode="&#x162;" horiz-adv-x="557" 
d="M349 -44h-142v-92h79l-13 -17l-18 -11l-24 -6l-29 -2v-54l65 7l46 22l27 39l9 57v57zM359 640h181v140h-523v-140h180v-640h162v640z" />
    <glyph glyph-name="tcommaaccent" unicode="&#x163;" horiz-adv-x="431" 
d="M309 -44h-142v-92h79l-13 -17l-18 -11l-24 -6l-29 -2v-54l65 7l46 22l27 39l9 57v57zM258 530v150h-158v-150h-81v-138h81v-208l14 -92l41 -61l63 -34l81 -10l32 1l25 4l18 4l10 4v130l-8 -2l-12 -3l-14 -1l-14 -1l-32 3l-25 12l-16 23l-5 40v191h136v138h-136z" />
    <glyph glyph-name="Tcaron" unicode="&#x164;" horiz-adv-x="557" 
d="M74 950l124 -110h160l124 110h-142l-62 -45l-62 45h-142zM359 640h181v140h-523v-140h180v-640h162v640z" />
    <glyph glyph-name="tcaron" unicode="&#x165;" horiz-adv-x="431" 
d="M314 800v-204h70l26 204h-96zM258 530v150h-158v-150h-81v-138h81v-208l14 -92l41 -61l63 -34l81 -10l32 1l25 4l18 4l10 4v130l-8 -2l-12 -3l-14 -1l-14 -1l-32 3l-25 12l-16 23l-5 40v191h136v138h-136z" />
    <glyph glyph-name="Tbar" unicode="&#x166;" horiz-adv-x="557" 
d="M359 640h181v140h-523v-140h180v-177h-113v-130h113v-333h162v333h114v130h-114v177z" />
    <glyph glyph-name="tbar" unicode="&#x167;" horiz-adv-x="431" 
d="M258 530v150h-158v-150h-81v-138h81v-70h-65v-114h65v-24l14 -92l41 -61l63 -34l81 -10l32 1l25 4l18 4l10 4v130l-8 -2l-12 -3l-14 -1l-14 -1l-32 3l-25 12l-16 23l-5 40v7h96v114h-96v70h136v138h-136z" />
    <glyph glyph-name="Utilde" unicode="&#x168;" horiz-adv-x="663" 
d="M331 -13l133 17l87 49l47 82l14 112v533h-162v-528l-6 -55l-19 -39l-37 -23l-57 -8l-57 8l-36 23l-19 39l-6 55v528h-162v-533l14 -112l47 -82l86 -49zM431 947l-3 -16l-7 -10l-10 -5l-13 -2l-30 8l-35 16l-39 17l-45 7l-39 -6l-33 -20l-22 -37l-9 -56h85l3 16l7 10l10 6
l13 1l30 -7l35 -17l39 -16l45 -8l39 6l33 21l23 36l8 56h-85z" />
    <glyph glyph-name="utilde" unicode="&#x169;" horiz-adv-x="580" 
d="M382 772l-2 -17l-7 -12l-10 -6l-12 -2l-32 8l-36 18l-41 18l-46 8l-43 -9l-36 -28l-23 -50l-9 -72h105l2 17l7 12l10 6l12 2l32 -8l37 -18l40 -18l46 -8l44 9l35 29l23 49l9 72h-105zM48 530v-359l9 -69l28 -59l50 -41l77 -15l56 6l47 16l37 26l30 32l12 -67h141l-9 150
v380h-158v-357l-13 -16l-20 -16l-26 -13l-34 -5l-34 6l-21 17l-12 23l-3 28v333h-157z" />
    <glyph glyph-name="Umacron" unicode="&#x16a;" horiz-adv-x="663" 
d="M182 847h298v96h-298v-96zM331 -13l133 17l87 49l47 82l14 112v533h-162v-528l-6 -55l-19 -39l-37 -23l-57 -8l-57 8l-36 23l-19 39l-6 55v528h-162v-533l14 -112l47 -82l86 -49z" />
    <glyph glyph-name="umacron" unicode="&#x16b;" horiz-adv-x="580" 
d="M136 619h300v138h-300v-138zM48 530v-359l9 -69l28 -59l50 -41l77 -15l56 6l47 16l37 26l30 32l12 -67h141l-9 150v380h-158v-357l-13 -16l-20 -16l-26 -13l-34 -5l-34 6l-21 17l-12 23l-3 28v333h-157z" />
    <glyph glyph-name="Ubreve" unicode="&#x16c;" horiz-adv-x="663" 
d="M331 -13l133 17l87 49l47 82l14 112v533h-162v-528l-6 -55l-19 -39l-37 -23l-57 -8l-57 8l-36 23l-19 39l-6 55v528h-162v-533l14 -112l47 -82l86 -49zM331 825l91 10l56 27l28 40l8 48h-109l-4 -17l-13 -13l-23 -7l-34 -3l-34 3l-23 7l-13 13l-4 17h-109l8 -48l28 -40
l56 -27z" />
    <glyph glyph-name="ubreve" unicode="&#x16d;" horiz-adv-x="580" 
d="M286 582l89 15l58 41l31 63l9 79h-113l-6 -37l-15 -24l-23 -13l-30 -4l-30 4l-23 13l-15 24l-6 37h-113l9 -79l31 -63l58 -41zM48 530v-359l9 -69l28 -59l50 -41l77 -15l56 6l47 16l37 26l30 32l12 -67h141l-9 150v380h-158v-357l-13 -16l-20 -16l-26 -13l-34 -5l-34 6
l-21 17l-12 23l-3 28v333h-157z" />
    <glyph glyph-name="Uring" unicode="&#x16e;" horiz-adv-x="663" 
d="M280 858l4 20l11 16l16 10l20 4l20 -4l16 -10l11 -16l4 -20l-4 -20l-11 -16l-16 -11l-20 -4l-20 4l-16 11l-11 16zM226 858l8 -41l23 -34l33 -23l41 -8l41 8l33 23l23 34l8 41l-8 41l-23 33l-33 23l-41 8l-41 -8l-33 -23l-23 -33zM331 -13l133 17l87 49l47 82l14 112v533
h-162v-528l-6 -55l-19 -39l-37 -23l-57 -8l-57 8l-36 23l-19 39l-6 55v528h-162v-533l14 -112l47 -82l86 -49z" />
    <glyph glyph-name="uring" unicode="&#x16f;" horiz-adv-x="580" 
d="M235 688l4 20l11 16l16 10l20 4l20 -4l16 -10l11 -16l4 -20l-4 -20l-11 -16l-16 -11l-20 -4l-20 4l-16 11l-11 16zM181 688l8 -41l23 -34l33 -23l41 -8l41 8l33 23l23 34l8 41l-8 41l-23 33l-33 23l-41 8l-41 -8l-33 -23l-23 -33zM48 530v-359l9 -69l28 -59l50 -41
l77 -15l56 6l47 16l37 26l30 32l12 -67h141l-9 150v380h-158v-357l-13 -16l-20 -16l-26 -13l-34 -5l-34 6l-21 17l-12 23l-3 28v333h-157z" />
    <glyph glyph-name="Uhungarumlaut" unicode="&#x170;" horiz-adv-x="663" 
d="M224 950l-46 -110h139l56 110h-149zM399 950l-54 -110h139l64 110h-149zM331 -13l133 17l87 49l47 82l14 112v533h-162v-528l-6 -55l-19 -39l-37 -23l-57 -8l-57 8l-36 23l-19 39l-6 55v528h-162v-533l14 -112l47 -82l86 -49z" />
    <glyph glyph-name="uhungarumlaut" unicode="&#x171;" horiz-adv-x="580" 
d="M395 780l-91 -184h123l107 184h-139zM211 780l-67 -184h123l84 184h-140zM48 530v-359l9 -69l28 -59l50 -41l77 -15l56 6l47 16l37 26l30 32l12 -67h141l-9 150v380h-158v-357l-13 -16l-20 -16l-26 -13l-34 -5l-34 6l-21 17l-12 23l-3 28v333h-157z" />
    <glyph glyph-name="Uogonek" unicode="&#x172;" horiz-adv-x="663" 
d="M390 -69l4 22l12 20l19 16l27 11l74 32l49 53l28 72l9 90v533h-162v-528l-6 -55l-19 -39l-37 -23l-57 -8l-57 8l-36 23l-19 39l-6 55v528h-162v-533l13 -108l43 -80l78 -50l121 -21l-14 -21l-10 -22l-7 -25l-2 -27l10 -48l27 -33l43 -20l55 -7l30 2l29 6l25 8l19 9
l-36 96l-7 -4l-10 -3l-12 -3l-13 -1l-18 3l-13 7l-9 12z" />
    <glyph glyph-name="uogonek" unicode="&#x173;" horiz-adv-x="580" 
d="M48 530v-359l9 -69l28 -59l50 -41l77 -15l56 6l47 16l37 26l30 32l13 -72l-16 -22l-12 -24l-8 -27l-3 -29l10 -48l27 -33l43 -20l55 -7l30 2l29 6l25 8l19 9l-36 96l-7 -4l-10 -3l-12 -3l-13 -1l-18 3l-13 7l-9 12l-3 14l4 21l12 18l20 16l26 14l-9 150v380h-158v-357
l-13 -16l-20 -16l-26 -13l-34 -5l-34 6l-21 17l-12 23l-3 28v333h-157z" />
    <glyph glyph-name="Wcircumflex" unicode="&#x174;" horiz-adv-x="937" 
d="M406 840l62 44l62 -44h142l-124 110h-160l-124 -110h142zM581 -2h208l129 782h-169l-75 -561l-105 561h-201l-105 -561l-75 561h-169l129 -782h207l113 597z" />
    <glyph glyph-name="wcircumflex" unicode="&#x175;" horiz-adv-x="766" 
d="M311 596l72 82l72 -82h138l-134 184h-152l-134 -184h138zM383 365l74 -365h198l92 530h-155l-40 -359l-75 359h-189l-74 -359l-40 359h-155l91 -530h199z" />
    <glyph glyph-name="Ycircumflex" unicode="&#x176;" horiz-adv-x="625" 
d="M251 840l62 44l62 -44h142l-124 110h-160l-124 -110h142zM394 239l223 541h-177l-127 -341l-128 341h-177l224 -541v-239h162v239z" />
    <glyph glyph-name="ycircumflex" unicode="&#x177;" horiz-adv-x="551" 
d="M205 596l72 82l72 -82h138l-134 184h-152l-134 -184h138zM277 192l-100 338h-172l186 -502l-85 -228h188l68 228l187 502h-172z" />
    <glyph glyph-name="Ydieresis" unicode="&#x178;" horiz-adv-x="625" 
d="M292 945h-133v-100h133v100zM467 945h-133v-100h133v100zM394 239l223 541h-177l-127 -341l-128 341h-177l224 -541v-239h162v239z" />
    <glyph glyph-name="Zacute" unicode="&#x179;" horiz-adv-x="599" 
d="M40 111v-111h519v140h-178l-143 -3l311 532v111h-499v-140h158l143 3zM276 950l-55 -110h156l64 110h-165z" />
    <glyph glyph-name="zacute" unicode="&#x17a;" horiz-adv-x="499" 
d="M24 108v-108h451v138h-134l-110 -3l234 287v108h-431v-138h114l110 3zM262 780l-91 -184h156l107 184h-172z" />
    <glyph glyph-name="Zdotaccent" unicode="&#x17b;" horiz-adv-x="599" 
d="M40 111v-111h519v140h-178l-143 -3l311 532v111h-499v-140h158l143 3zM366 945h-134v-100h134v100z" />
    <glyph glyph-name="zdotaccent" unicode="&#x17c;" horiz-adv-x="499" 
d="M332 772h-166v-166h166v166zM24 108v-108h451v138h-134l-110 -3l234 287v108h-431v-138h114l110 3z" />
    <glyph glyph-name="Zcaron" unicode="&#x17d;" horiz-adv-x="599" 
d="M40 111v-111h519v140h-178l-143 -3l311 532v111h-499v-140h158l143 3zM95 950l124 -110h160l124 110h-142l-62 -45l-62 45h-142z" />
    <glyph glyph-name="zcaron" unicode="&#x17e;" horiz-adv-x="499" 
d="M24 108v-108h451v138h-134l-110 -3l234 287v108h-431v-138h114l110 3zM39 780l134 -184h152l134 184h-138l-72 -83l-72 83h-138z" />
    <glyph glyph-name="Scommaaccent" unicode="&#x218;" horiz-adv-x="631" 
d="M386 -44h-142v-92h79l-13 -17l-18 -11l-24 -6l-29 -2v-54l65 7l46 22l27 39l9 57v57zM290 326l70 -14l43 -22l23 -29l6 -37v-5l-7 -36l-21 -29l-35 -20l-49 -7h-9l-50 8l-36 25l-22 43l-7 63h-162v-9l18 -121l54 -84l87 -49l122 -16l121 16l89 46l54 75l18 100v10l-16 93
l-48 66l-80 42l-112 25l-69 14l-42 21l-21 29l-5 38v5l7 35l20 27l32 18l44 6h9l52 -9l35 -27l20 -47l6 -66h162v21l-16 119l-50 84l-86 49l-124 16l-118 -16l-86 -47l-53 -73l-18 -96v-11l15 -91l46 -65l78 -43z" />
    <glyph glyph-name="scommaaccent" unicode="&#x219;" horiz-adv-x="528" 
d="M335 -44h-142v-92h79l-13 -17l-18 -11l-24 -6l-29 -2v-54l65 7l46 22l27 39l9 57v57zM264 107l-34 5l-22 12l-12 20l-4 24h-157v-5l14 -71l42 -56l72 -36l101 -13l100 12l72 36l44 56l14 74v9l-16 69l-45 44l-69 25l-91 12l-38 6l-23 9l-12 15l-3 21l4 20l13 15l21 10
l29 3l31 -5l21 -13l12 -21l4 -28h155v5l-13 77l-40 57l-69 36l-101 12l-88 -10l-71 -31l-47 -53l-17 -79v-9l13 -64l38 -43l67 -28l97 -14l39 -6l24 -10l12 -15l4 -22l-4 -21l-12 -16l-22 -11z" />
    <glyph glyph-name="Ymacron" unicode="&#x232;" horiz-adv-x="625" 
d="M164 847h298v96h-298v-96zM394 239l223 541h-177l-127 -341l-128 341h-177l224 -541v-239h162v239z" />
    <glyph glyph-name="ymacron" unicode="&#x233;" horiz-adv-x="551" 
d="M127 619h300v138h-300v-138zM277 192l-100 338h-172l186 -502l-85 -228h188l68 228l187 502h-172z" />
    <glyph glyph-name="dotlessj" unicode="&#x237;" horiz-adv-x="268" 
d="M54 1l-6 -40l-15 -24l-25 -12l-32 -3l-14 1l-15 2l-12 2l-8 2v-129l10 -4l18 -4l25 -4l33 -1l81 10l62 34l41 61l14 92v546h-157v-529z" />
    <glyph glyph-name="circumflex" unicode="&#x2c6;" horiz-adv-x="500" 
d="M178 596l72 82l72 -82h138l-134 184h-152l-134 -184h138z" />
    <glyph glyph-name="caron" unicode="&#x2c7;" horiz-adv-x="500" 
d="M40 780l134 -184h152l134 184h-138l-72 -83l-72 83h-138z" />
    <glyph glyph-name="breve" unicode="&#x2d8;" horiz-adv-x="499" 
d="M250 582l89 15l58 41l31 63l9 79h-113l-6 -37l-15 -24l-23 -13l-30 -4l-30 4l-23 13l-15 24l-6 37h-113l9 -79l31 -63l58 -41z" />
    <glyph glyph-name="dotaccent" unicode="&#x2d9;" horiz-adv-x="500" 
d="M333 772h-166v-166h166v166z" />
    <glyph glyph-name="ring" unicode="&#x2da;" horiz-adv-x="500" 
d="M199 688l4 20l11 16l16 10l20 4l20 -4l16 -10l11 -16l4 -20l-4 -20l-11 -16l-16 -11l-20 -4l-20 4l-16 11l-11 16zM145 688l8 -41l23 -34l33 -23l41 -8l41 8l33 23l23 34l8 41l-8 41l-23 33l-33 23l-41 8l-41 -8l-33 -23l-23 -33z" />
    <glyph glyph-name="ogonek" unicode="&#x2db;" horiz-adv-x="602" 
d="M230 -69l4 21l12 18l20 16l26 14l-27 66l-55 -24l-49 -37l-35 -50l-13 -62l10 -48l27 -33l43 -20l55 -7l30 2l29 6l25 8l19 9l-36 96l-7 -4l-10 -3l-12 -3l-13 -1l-18 3l-13 7l-9 12z" />
    <glyph glyph-name="tilde" unicode="&#x2dc;" horiz-adv-x="500" 
d="M346 772l-2 -17l-7 -12l-10 -6l-12 -2l-32 8l-36 18l-41 18l-46 8l-43 -9l-36 -28l-23 -50l-9 -72h105l2 17l7 12l10 6l12 2l32 -8l37 -18l40 -18l46 -8l44 9l35 29l23 49l9 72h-105z" />
    <glyph glyph-name="hungarumlaut" unicode="&#x2dd;" horiz-adv-x="500" 
d="M359 780l-91 -184h123l107 184h-139zM175 780l-67 -184h123l84 184h-140z" />
    <glyph glyph-name="Bdotaccent" unicode="&#x1e02;" horiz-adv-x="631" 
d="M365 945h-134v-100h134v100zM311 640l31 -3l29 -12l20 -25l8 -39v-13l-8 -39l-20 -24l-29 -13l-31 -3h-93v171h93zM325 328l34 -4l30 -14l22 -27l8 -44v-9l-8 -44l-22 -28l-30 -14l-34 -4h-107v188h107zM56 780v-780h264l94 8l85 33l61 68l23 115v20l-7 56l-20 45l-30 34
l-39 24l31 23l24 31l15 39l6 48v20l-22 111l-58 66l-80 31l-91 8h-256z" />
    <glyph glyph-name="bdotaccent" unicode="&#x1e03;" horiz-adv-x="574" 
d="M198 945h-134v-100h134v100zM211 173v184l13 16l19 16l26 13l32 5l39 -8l26 -25l15 -39l5 -52v-36l-5 -52l-15 -39l-26 -25l-39 -8l-32 5l-26 13l-19 16zM211 800h-158v-650l-9 -150h141l11 64l26 -31l33 -24l41 -16l51 -6l92 19l61 54l34 82l10 105v36l-10 105l-34 82
l-61 54l-92 19l-44 -4l-36 -12l-31 -18l-25 -24v315z" />
    <glyph glyph-name="Ddotaccent" unicode="&#x1e0a;" horiz-adv-x="663" 
d="M380 945h-134v-100h134v100zM218 140v500h68l84 -14l53 -42l28 -72l8 -102v-40l-8 -102l-28 -71l-53 -43l-84 -14h-68zM624 370v40l-19 172l-58 114l-103 64l-149 20h-239v-780h239l149 20l103 64l58 114z" />
    <glyph glyph-name="ddotaccent" unicode="&#x1e0b;" horiz-adv-x="582" 
d="M517 945h-134v-100h134v100zM371 357v-184l-13 -16l-19 -16l-26 -13l-32 -5l-40 8l-26 25l-15 39l-5 52v36l5 52l15 39l26 25l40 8l32 -5l26 -13l19 -16zM235 543l-92 -19l-61 -54l-34 -82l-10 -105v-36l10 -105l34 -82l61 -54l92 -19l50 6l41 16l33 24l26 30l11 -63h142
l-9 150v650h-158v-315l-25 24l-31 18l-37 12z" />
    <glyph glyph-name="Fdotaccent" unicode="&#x1e1e;" horiz-adv-x="549" 
d="M363 945h-134v-100h134v100zM56 780v-780h162v328h261v140h-261v172h311v140h-473z" />
    <glyph glyph-name="fdotaccent" unicode="&#x1e1f;" horiz-adv-x="411" 
d="M311 945h-134v-100h134v100zM258 599l5 40l16 23l25 12l32 3l14 -1l14 -1l12 -3l8 -2v130l-10 4l-18 4l-25 4l-32 1l-81 -10l-63 -34l-41 -61l-14 -92v-86h-81v-138h81v-392h158v392h116v138h-116v69z" />
    <glyph glyph-name="Mdotaccent" unicode="&#x1e40;" horiz-adv-x="869" 
d="M502 945h-134v-100h134v100zM656 499l-4 -156v-343h162v780h-240l-139 -499l-140 499h-239v-780h162v343l-5 156l139 -499h165z" />
    <glyph glyph-name="mdotaccent" unicode="&#x1e41;" horiz-adv-x="863" 
d="M518 772h-166v-166h166v166zM815 0v365l-9 70l-28 57l-49 37l-71 14l-54 -6l-45 -17l-36 -26l-28 -33l-21 34l-30 26l-40 16l-48 6l-52 -6l-44 -16l-35 -24l-28 -31l-11 64h-141l9 -150v-380h158v361l12 15l17 15l22 11l30 5l28 -5l20 -13l11 -21l4 -28v-340h157v361
l12 15l17 15l23 11l30 5l28 -5l20 -13l11 -21l4 -28v-340h157z" />
    <glyph glyph-name="Pdotaccent" unicode="&#x1e56;" horiz-adv-x="609" 
d="M360 945h-134v-100h134v100zM218 420v220h101l34 -4l33 -15l24 -32l9 -54v-10l-9 -54l-24 -31l-33 -16l-34 -4h-101zM218 280h94l96 8l87 34l64 73l24 125v20l-24 125l-64 73l-87 34l-96 8h-256v-780h162v280z" />
    <glyph glyph-name="pdotaccent" unicode="&#x1e57;" horiz-adv-x="574" 
d="M381 772h-166v-166h166v166zM211 357l13 16l19 16l26 13l32 5l39 -8l26 -25l15 -39l5 -52v-36l-5 -52l-15 -39l-26 -25l-39 -8l-32 5l-26 13l-19 16l-13 16v184zM347 -13l92 19l61 54l34 82l10 105v36l-10 105l-34 82l-61 54l-92 19l-51 -6l-41 -16l-33 -25l-26 -31
l-11 65h-141l9 -150v-580h158v245l25 -24l31 -18l36 -12z" />
    <glyph glyph-name="Tdotaccent" unicode="&#x1e6a;" horiz-adv-x="557" 
d="M345 945h-134v-100h134v100zM359 640h181v140h-523v-140h180v-640h162v640z" />
    <glyph glyph-name="tdotaccent" unicode="&#x1e6b;" horiz-adv-x="431" 
d="M246 825h-134v-100h134v100zM258 530v150h-158v-150h-81v-138h81v-208l14 -92l41 -61l63 -34l81 -10l32 1l25 4l18 4l10 4v130l-8 -2l-12 -3l-14 -1l-14 -1l-32 3l-25 12l-16 23l-5 40v191h136v138h-136z" />
    <glyph glyph-name="Wgrave" unicode="&#x1e80;" horiz-adv-x="937" 
d="M326 950l64 -110h156l-55 110h-165zM581 -2h208l129 782h-169l-75 -561l-105 561h-201l-105 -561l-75 561h-169l129 -782h207l113 597z" />
    <glyph glyph-name="wgrave" unicode="&#x1e81;" horiz-adv-x="766" 
d="M198 780l107 -184h156l-91 184h-172zM383 365l74 -365h198l92 530h-155l-40 -359l-75 359h-189l-74 -359l-40 359h-155l91 -530h199z" />
    <glyph glyph-name="Wacute" unicode="&#x1e82;" horiz-adv-x="937" 
d="M445 950l-55 -110h156l64 110h-165zM581 -2h208l129 782h-169l-75 -561l-105 561h-201l-105 -561l-75 561h-169l129 -782h207l113 597z" />
    <glyph glyph-name="wacute" unicode="&#x1e83;" horiz-adv-x="766" 
d="M396 780l-91 -184h156l107 184h-172zM383 365l74 -365h198l92 530h-155l-40 -359l-75 359h-189l-74 -359l-40 359h-155l91 -530h199z" />
    <glyph glyph-name="Wdieresis" unicode="&#x1e84;" horiz-adv-x="937" 
d="M622 945h-133v-100h133v100zM447 945h-133v-100h133v100zM581 -2h208l129 782h-169l-75 -561l-105 561h-201l-105 -561l-75 561h-169l129 -782h207l113 597z" />
    <glyph glyph-name="wdieresis" unicode="&#x1e85;" horiz-adv-x="766" 
d="M573 772h-165v-166h165v166zM358 772h-165v-166h165v166zM383 365l74 -365h198l92 530h-155l-40 -359l-75 359h-189l-74 -359l-40 359h-155l91 -530h199z" />
    <glyph glyph-name="Eszett" unicode="&#x1e9e;" horiz-adv-x="805" 
d="M304 458v-111l193 -23l55 -12l37 -20l21 -30l7 -38v-5l-6 -40l-17 -28l-26 -18l-33 -6h-9l-35 7l-28 23l-20 43l-7 66h-162v-9l16 -127l47 -84l80 -45l111 -14l109 16l79 46l49 75l16 100v10l-16 93l-49 66l-80 43l-111 24l-31 4l113 181v111l-48 16l-53 12l-58 7l-62 2
l-150 -17l-104 -49l-61 -82l-20 -112v-533h162v528l11 55l33 39l54 23l75 8h10l10 -1h10l10 -1z" />
    <glyph glyph-name="Ygrave" unicode="&#x1ef2;" horiz-adv-x="625" 
d="M171 950l64 -110h156l-55 110h-165zM394 239l223 541h-177l-127 -341l-128 341h-177l224 -541v-239h162v239z" />
    <glyph glyph-name="ygrave" unicode="&#x1ef3;" horiz-adv-x="551" 
d="M92 780l107 -184h156l-91 184h-172zM277 192l-100 338h-172l186 -502l-85 -228h188l68 228l187 502h-172z" />
    <glyph glyph-name="enspace" unicode="&#x2002;" horiz-adv-x="500" 
 />
    <glyph glyph-name="emspace" unicode="&#x2003;" horiz-adv-x="1000" 
 />
    <glyph glyph-name="threeperemspace" unicode="&#x2004;" horiz-adv-x="333" 
 />
    <glyph glyph-name="fourperemspace" unicode="&#x2005;" horiz-adv-x="250" 
 />
    <glyph glyph-name="sixperemspace" unicode="&#x2006;" horiz-adv-x="167" 
 />
    <glyph glyph-name="figurespace" unicode="&#x2007;" horiz-adv-x="600" 
 />
    <glyph glyph-name="punctuationspace" unicode="&#x2008;" horiz-adv-x="180" 
 />
    <glyph glyph-name="thinspace" unicode="&#x2009;" horiz-adv-x="150" 
 />
    <glyph glyph-name="hairspace" unicode="&#x200a;" horiz-adv-x="50" 
 />
    <glyph glyph-name="zerowidthspace" unicode="&#x200b;" horiz-adv-x="0" 
 />
    <glyph glyph-name="figuredash" unicode="&#x2012;" horiz-adv-x="600" 
d="M40 281h520v138h-520v-138z" />
    <glyph glyph-name="endash" unicode="&#x2013;" horiz-adv-x="500" 
d="M40 281h420v138h-420v-138z" />
    <glyph glyph-name="emdash" unicode="&#x2014;" horiz-adv-x="1000" 
d="M40 281h920v138h-920v-138z" />
    <glyph glyph-name="uni2015" unicode="&#x2015;" horiz-adv-x="1200" 
d="M40 281h1120v138h-1120v-138z" />
    <glyph glyph-name="doublebar" unicode="&#x2016;" horiz-adv-x="459" 
d="M251 -120h154v960h-154v-960zM54 -120h154v960h-154v-960z" />
    <glyph glyph-name="quoteleft" unicode="&#x2018;" horiz-adv-x="266" 
d="M50 496h166v167h-85l11 28l19 20l27 12l33 4v79l-74 -11l-54 -34l-32 -56l-11 -77v-132z" />
    <glyph glyph-name="quoteright" unicode="&#x2019;" horiz-adv-x="266" 
d="M216 780h-166v-167h84l-11 -28l-19 -20l-26 -12l-33 -4v-79l74 11l54 34l32 56l11 77v132z" />
    <glyph glyph-name="quotesinglbase" unicode="&#x201a;" horiz-adv-x="266" 
d="M216 167h-166v-167h84l-11 -28l-19 -20l-26 -12l-33 -4v-79l74 11l54 34l32 56l11 77v132z" />
    <glyph glyph-name="reversequoteleft" unicode="&#x201b;" horiz-adv-x="266" 
d="M50 780v-132l11 -77l32 -56l54 -34l74 -11v79l-33 4l-27 12l-19 20l-11 28h85v167h-166z" />
    <glyph glyph-name="quotedblleft" unicode="&#x201c;" horiz-adv-x="486" 
d="M270 496h166v167h-85l11 28l19 20l27 12l33 4v79l-74 -11l-54 -34l-32 -56l-11 -77v-132zM50 496h166v167h-85l11 28l19 20l27 12l33 4v79l-74 -11l-54 -34l-32 -56l-11 -77v-132z" />
    <glyph glyph-name="quotedblright" unicode="&#x201d;" horiz-adv-x="486" 
d="M436 780h-166v-167h84l-11 -28l-19 -20l-26 -12l-33 -4v-79l74 11l54 34l32 56l11 77v132zM216 780h-166v-167h84l-11 -28l-19 -20l-26 -12l-33 -4v-79l74 11l54 34l32 56l11 77v132z" />
    <glyph glyph-name="quotedblbase" unicode="&#x201e;" horiz-adv-x="486" 
d="M436 167h-166v-167h84l-11 -28l-19 -20l-26 -12l-33 -4v-79l74 11l54 34l32 56l11 77v132zM216 167h-166v-167h84l-11 -28l-19 -20l-26 -12l-33 -4v-79l74 11l54 34l32 56l11 77v132z" />
    <glyph glyph-name="reversequotedblleft" unicode="&#x201f;" horiz-adv-x="486" 
d="M270 780v-132l11 -77l32 -56l54 -34l74 -11v79l-33 4l-27 12l-19 20l-11 28h85v167h-166zM50 780v-132l11 -77l32 -56l54 -34l74 -11v79l-33 4l-27 12l-19 20l-11 28h85v167h-166z" />
    <glyph glyph-name="dagger" unicode="&#x2020;" horiz-adv-x="413" 
d="M388 660l-131 -5v-78l131 -5v88zM24 572l132 5v78l-132 5v-88zM162 800l5 -134h79l5 134h-89zM162 437l5 -130h79l5 130l-5 129h-79z" />
    <glyph glyph-name="daggerdbl" unicode="&#x2021;" horiz-adv-x="413" 
d="M388 660l-131 -5v-78l131 -5v88zM24 572l132 5v78l-132 5v-88zM388 426l-131 -5v-79l131 -5v89zM24 337l132 5v79l-132 5v-89zM162 499l5 -67h79l5 67l-5 67h-79zM162 800l5 -134h79l5 134h-89zM162 202l5 -129h79l5 129l-5 129h-79z" />
    <glyph glyph-name="bullet" unicode="&#x2022;" horiz-adv-x="445" 
d="M383 511h-321v-322h321v322z" />
    <glyph glyph-name="ellipsis" unicode="&#x2026;" horiz-adv-x="1000" 
d="M903 167h-166v-167h166v167zM583 167h-166v-167h166v167zM263 167h-166v-167h166v167z" />
    <glyph glyph-name="perthousand" unicode="&#x2030;" horiz-adv-x="1401" 
d="M296 779l-19 6l-19 4l-20 3l-21 1l-76 -12l-60 -36l-40 -59l-14 -81v-12l14 -81l40 -59l60 -37l76 -12l76 12l59 37l40 59l14 81v12v6v6l-1 6v5l11 -1l12 -1l12 -1h12l23 1l19 2l17 2l12 3l-264 -633h138l295 708v75l-34 -10l-50 -10l-61 -9l-66 -3l-56 1l-47 5l-41 9z
M289 605v-13l-5 -29l-14 -22l-21 -14l-29 -5h-6l-29 5l-22 14l-14 22l-5 29v13l5 29l14 22l22 15l29 5h6l29 -5l21 -15l14 -22zM1112 175v13l5 29l14 22l22 14l29 5h6l29 -5l21 -14l14 -22l5 -29v-13l-5 -29l-14 -22l-21 -15l-29 -5h-6l-29 5l-22 15l-14 22zM692 175v13
l5 29l14 22l22 14l29 5h6l29 -5l21 -14l14 -22l5 -29v-13l-5 -29l-14 -22l-21 -15l-29 -5h-6l-29 5l-22 15l-14 22zM995 187v-12l14 -81l40 -59l60 -36l76 -12l76 12l59 36l40 59l14 81v12l-14 81l-40 59l-59 37l-76 12l-76 -12l-60 -37l-40 -59zM575 187v-12l14 -81l40 -59
l60 -36l76 -12l76 12l59 36l40 59l14 81v12l-14 81l-40 59l-59 37l-76 12l-76 -12l-60 -37l-40 -59z" />
    <glyph glyph-name="tripleprime" unicode="&#x2034;" horiz-adv-x="628" 
d="M245 780l8 -323h122l8 323h-138zM47 780l25 -323h121l9 323h-155zM426 780l8 -323h122l25 323h-155z" />
    <glyph glyph-name="guilsinglleft" unicode="&#x2039;" horiz-adv-x="316" 
d="M266 563l-216 -147v-152l216 -147v139l-109 84l109 84v139z" />
    <glyph glyph-name="guilsinglright" unicode="&#x203a;" horiz-adv-x="316" 
d="M50 424l109 -84l-109 -84v-139l216 147v152l-216 147v-139z" />
    <glyph glyph-name="interrobang" unicode="&#x203d;" horiz-adv-x="497" 
d="M328 575l-3 -26l-9 -25l-13 -26l-15 -27l3 175l17 -12l11 -16l7 -20zM338 167h-166v-167h166v167zM300 228l34 108l61 70l58 71l26 115l-11 74l-36 64l-69 46l-110 17l-109 -17l-72 -50l-39 -81l-12 -111v-18h143l2 48l7 36l13 27l19 17l9 -416h86z" />
    <glyph glyph-name="fraction" unicode="&#x2044;" horiz-adv-x="200" 
d="M-121 0l576 780h-134l-576 -780h134z" />
    <glyph glyph-name="uni2070" unicode="&#x2070;" 
d="M133 496v178l1 6l3 5l5 3l6 1h4l6 -1l5 -3l3 -5l1 -6v-178l-1 -6l-3 -4l-5 -4l-6 -1h-4l-6 1l-5 4l-3 4zM287 494v182l-9 47l-28 37l-43 24l-57 9l-57 -9l-43 -24l-28 -37l-9 -47v-182l9 -47l28 -37l43 -24l57 -9l57 9l43 24l28 37z" />
    <glyph glyph-name="uni2074" unicode="&#x2074;" 
d="M137 619v-57h-31zM257 390v68h32v104h-32v218h-121l-126 -230v-92h127v-68h120z" />
    <glyph glyph-name="uni2075" unicode="&#x2075;" 
d="M11 515v-8l10 -54l28 -41l43 -26l58 -9l57 8l44 25l27 41l10 56v12l-7 50l-23 40l-37 26l-53 9l-12 -1l-12 -1l-11 -2l-11 -3l2 39h157v104h-256l-9 -210l104 -35l6 5l6 3l6 2l6 1h1l10 -2l8 -5l4 -9l2 -14v-5l-2 -13l-4 -9l-5 -6l-7 -2h-4l-5 2l-6 5l-3 11l-2 16h-120z
" />
    <glyph glyph-name="uni2076" unicode="&#x2076;" 
d="M148 533h4l6 -1l5 -4l4 -7l2 -10v-5l-2 -11l-4 -7l-5 -5l-6 -2h-4l-6 2l-5 6l-4 12l-2 19v2l4 5l4 3l4 2zM278 793l-66 -4l-57 -12l-48 -22l-39 -36l-27 -42l-18 -43l-9 -46l-3 -46v-9l8 -59l25 -50l43 -34l62 -13l63 10l43 28l25 42l8 51v5l-7 52l-21 39l-32 24l-42 8
l-12 -1l-12 -2l-11 -5l-10 -5l4 9l4 8l5 8l5 6l20 15l26 11l33 7l40 2v104z" />
    <glyph glyph-name="uni2077" unicode="&#x2077;" 
d="M8 640h104v36h48l-124 -286h128l128 316v74h-284v-140z" />
    <glyph glyph-name="uni2078" unicode="&#x2078;" 
d="M151 641h-2l-6 1l-4 5l-2 7l-1 10v4l1 10l2 8l4 4l6 1h2l6 -1l4 -4l2 -8l1 -10v-4l-1 -10l-2 -7l-4 -5zM148 537h4l8 -2l5 -5l3 -9l1 -11v-4l-1 -11l-3 -8l-6 -6l-7 -2h-4l-7 2l-6 6l-3 8l-1 11v4l1 11l3 9l5 5zM150 377l57 8l44 24l27 36l10 47v11l-4 29l-11 25l-15 18
l-19 14l17 14l15 18l9 24l4 29v10l-6 33l-20 35l-41 29l-67 12l-66 -12l-41 -29l-21 -35l-6 -33v-10l4 -29l10 -24l14 -18l17 -14l-19 -14l-15 -18l-11 -25l-4 -29v-11l10 -47l27 -36l44 -24z" />
    <glyph glyph-name="uni2079" unicode="&#x2079;" 
d="M148 637l-6 1l-5 4l-4 7l-2 10v5l2 11l4 8l5 4l6 2h4l6 -2l5 -6l4 -12l2 -19v-2l-4 -5l-4 -3l-4 -2l-5 -1h-4zM22 377l66 4l57 12l48 22l39 36l27 42l18 44l9 45l3 46v9l-8 59l-25 50l-43 34l-62 13l-63 -10l-43 -28l-25 -42l-8 -51v-5l7 -52l21 -39l32 -24l42 -8l12 1
l12 3l11 4l10 5l-4 -9l-4 -8l-5 -8l-5 -6l-20 -15l-26 -11l-33 -7l-40 -2v-104z" />
    <glyph glyph-name="uni207A" unicode="&#x207a;" 
d="M98 717v-80h-80v-104h80v-80h104v80h80v104h-80v80h-104z" />
    <glyph glyph-name="uni207B" unicode="&#x207b;" 
d="M18 533h264v104h-264v-104z" />
    <glyph glyph-name="uni207C" unicode="&#x207c;" 
d="M18 472h264v104h-264v-104zM18 594h264v104h-264v-104z" />
    <glyph glyph-name="uni207D" unicode="&#x207d;" horiz-adv-x="205" 
d="M15 580l5 -66l13 -53l19 -41l22 -30h123l-20 33l-21 43l-16 53l-6 61v10l6 61l16 53l21 43l20 33h-123l-22 -30l-19 -41l-13 -53l-5 -66v-10z" />
    <glyph glyph-name="uni207E" unicode="&#x207e;" horiz-adv-x="205" 
d="M189 590l-5 66l-13 53l-19 41l-22 30h-122l20 -33l20 -43l16 -53l6 -61v-10l-6 -61l-16 -53l-20 -43l-20 -33h122l22 30l19 41l13 53l5 66v10z" />
    <glyph glyph-name="uni2080" unicode="&#x2080;" 
d="M133 106v178l1 6l3 5l5 3l6 1h4l6 -1l5 -3l3 -5l1 -6v-178l-1 -6l-3 -4l-5 -4l-6 -1h-4l-6 1l-5 4l-3 4zM287 104v182l-9 47l-28 37l-43 24l-57 9l-57 -9l-43 -24l-28 -37l-9 -47v-182l9 -47l28 -37l43 -24l57 -9l57 9l43 24l28 37z" />
    <glyph glyph-name="uni2081" unicode="&#x2081;" 
d="M290 0v103h-71v288h-90l-124 -84l59 -85l35 23v-142h-72v-103h263z" />
    <glyph glyph-name="uni2082" unicode="&#x2082;" 
d="M284 103h-105l62 69l19 23l13 21l8 24l3 29v18l-6 36l-21 38l-41 30l-67 12l-68 -12l-41 -32l-21 -41l-6 -43v-15h120l1 17l2 12l5 7l6 3h3l6 -3l5 -6l2 -9l1 -9v-11l-1 -9l-2 -8l-5 -8l-5 -7l-138 -153v-76h271v103z" />
    <glyph glyph-name="uni2083" unicode="&#x2083;" 
d="M131 125h-120v-8l10 -54l28 -41l43 -26l58 -9l57 8l44 24l27 36l10 47v10l-4 30l-12 25l-16 18l-20 14l18 13l16 18l10 24l4 30v10l-6 33l-21 35l-41 29l-67 12l-68 -12l-41 -32l-21 -44l-6 -46v-9h120l1 17l2 12l5 7l6 3h3l6 -3l5 -7l2 -8l1 -7v-2l-1 -11l-2 -7l-5 -5
l-7 -2h-49v-96h50l8 -2l6 -5l4 -8l1 -10v-5l-2 -13l-4 -9l-5 -6l-6 -2h-3l-6 2l-6 5l-4 11z" />
    <glyph glyph-name="uni2084" unicode="&#x2084;" 
d="M137 229v-57h-31zM257 0v68h32v104h-32v218h-121l-126 -230v-92h127v-68h120z" />
    <glyph glyph-name="uni2085" unicode="&#x2085;" 
d="M11 125v-8l10 -54l28 -41l43 -26l58 -9l57 8l44 25l27 41l10 56v12l-7 50l-23 40l-37 26l-53 9l-12 -1l-12 -1l-11 -2l-11 -3l2 39h157v104h-256l-9 -210l104 -35l6 5l6 3l6 2l6 1h1l10 -2l8 -5l4 -9l2 -14v-5l-2 -13l-4 -9l-5 -6l-7 -2h-4l-5 2l-6 5l-3 11l-2 16h-120z
" />
    <glyph glyph-name="uni2086" unicode="&#x2086;" 
d="M148 143h4l6 -1l5 -4l4 -7l2 -10v-5l-2 -11l-4 -7l-5 -5l-6 -2h-4l-6 2l-5 6l-4 12l-2 19v2l4 5l4 3l4 2zM278 403l-66 -4l-57 -12l-48 -22l-39 -36l-27 -42l-18 -43l-9 -46l-3 -46v-9l8 -59l25 -50l43 -34l62 -13l63 10l43 28l25 42l8 51v5l-7 52l-21 39l-32 24l-42 8
l-12 -1l-12 -2l-11 -5l-10 -5l4 9l4 8l5 8l5 6l20 15l26 11l33 7l40 2v104z" />
    <glyph glyph-name="uni2087" unicode="&#x2087;" 
d="M8 250h104v36h48l-124 -286h128l128 316v74h-284v-140z" />
    <glyph glyph-name="uni2088" unicode="&#x2088;" 
d="M151 251h-2l-6 1l-4 5l-2 7l-1 10v4l1 10l2 8l4 4l6 1h2l6 -1l4 -4l2 -8l1 -10v-4l-1 -10l-2 -7l-4 -5zM148 147h4l8 -2l5 -5l3 -9l1 -11v-4l-1 -11l-3 -8l-6 -6l-7 -2h-4l-7 2l-6 6l-3 8l-1 11v4l1 11l3 9l5 5zM150 -13l57 8l44 24l27 36l10 47v11l-4 29l-11 25l-15 18
l-19 14l17 14l15 18l9 24l4 29v10l-6 33l-20 35l-41 29l-67 12l-66 -12l-41 -29l-21 -35l-6 -33v-10l4 -29l10 -24l14 -18l17 -14l-19 -14l-15 -18l-11 -25l-4 -29v-11l10 -47l27 -36l44 -24z" />
    <glyph glyph-name="uni2089" unicode="&#x2089;" 
d="M148 247l-6 1l-5 4l-4 7l-2 10v5l2 11l4 8l5 4l6 2h4l6 -2l5 -6l4 -12l2 -19v-2l-4 -5l-4 -3l-4 -2l-5 -1h-4zM22 -13l66 4l57 12l48 22l39 36l27 42l18 44l9 45l3 46v9l-8 59l-25 50l-43 34l-62 13l-63 -10l-43 -28l-25 -42l-8 -51v-5l7 -52l21 -39l32 -24l42 -8l12 1
l12 3l11 4l10 5l-4 -9l-4 -8l-5 -8l-5 -6l-20 -15l-26 -11l-33 -7l-40 -2v-104z" />
    <glyph glyph-name="uni208A" unicode="&#x208a;" 
d="M98 327v-80h-80v-104h80v-80h104v80h80v104h-80v80h-104z" />
    <glyph glyph-name="uni208B" unicode="&#x208b;" 
d="M18 143h264v104h-264v-104z" />
    <glyph glyph-name="uni208C" unicode="&#x208c;" 
d="M18 82h264v104h-264v-104zM18 204h264v104h-264v-104z" />
    <glyph glyph-name="uni208D" unicode="&#x208d;" horiz-adv-x="205" 
d="M15 190l5 -66l13 -53l19 -41l22 -30h123l-20 33l-21 43l-16 53l-6 61v10l6 61l16 53l21 43l20 33h-123l-22 -30l-19 -41l-13 -53l-5 -66v-10z" />
    <glyph glyph-name="uni208E" unicode="&#x208e;" horiz-adv-x="205" 
d="M189 200l-5 66l-13 53l-19 41l-22 30h-122l20 -33l20 -43l16 -53l6 -61v-10l-6 -61l-16 -53l-20 -43l-20 -33h122l22 30l19 41l13 53l5 66v10z" />
    <glyph glyph-name="Euro" unicode="&#x20ac;" horiz-adv-x="600" 
d="M97 309l22 -146l49 -100l75 -57l102 -19l98 15l68 46l38 79l13 114v9h-138l-4 -54l-14 -38l-22 -23l-30 -7h-9l-34 12l-25 35l-15 56l-8 78h133l69 141h-203l7 86l15 64l25 39l36 13h9l32 -9l22 -27l12 -48l4 -68h138v37l-13 116l-38 79l-68 46l-98 15l-104 -20l-77 -61
l-48 -107l-20 -155h-65v-141h66z" />
    <glyph glyph-name="ruble" unicode="&#x20bd;" horiz-adv-x="600" 
d="M249 420v220h53l34 -4l33 -15l24 -32l9 -54v-10l-9 -54l-24 -31l-33 -16l-34 -4h-53zM249 280h46l96 8l87 34l64 73l24 125v20l-24 125l-64 73l-87 34l-96 8h-208v-360h-70v-140h70v-38h-70v-141h70v-101h162v101h187v141h-187v38z" />
    <glyph glyph-name="numero" unicode="&#x2116;" horiz-adv-x="1126" 
d="M851 570v30l3 33l10 23l16 15l24 5l24 -5l17 -15l10 -23l3 -33v-30l-3 -32l-10 -23l-17 -15l-24 -5l-24 5l-16 15l-10 23zM723 181h363v119h-363v-119zM1095 570v30l-11 79l-35 62l-60 39l-85 14l-85 -14l-59 -39l-35 -62l-11 -79v-30l11 -79l35 -61l59 -39l85 -14l85 14
l60 39l35 61zM627 780h-154v-327l5 -157l-251 484h-171v-780h153v327l-5 157l252 -484h171v780z" />
    <glyph glyph-name="published" unicode="&#x2117;" horiz-adv-x="920" 
d="M414 411v110h71l19 -2l18 -8l12 -16l5 -26v-6l-5 -26l-12 -16l-18 -8l-19 -2h-71zM414 307h103l58 6l53 24l38 46l15 77v12l-15 77l-38 46l-53 24l-58 6h-243v-470h140v152zM113 390l27 135l75 111l110 74l135 27l135 -27l111 -74l74 -111l27 -135l-27 -135l-74 -110
l-111 -75l-135 -27l-135 27l-110 75l-75 110zM57 390l32 -157l86 -128l128 -86l157 -32l157 32l128 86l86 128l32 157l-32 157l-86 128l-128 86l-157 32l-157 -32l-128 -86l-86 -128z" />
    <glyph glyph-name="servicemark" unicode="&#x2120;" horiz-adv-x="559" 
d="M454 691l-2 -60v-101h64v270h-96l-41 -159l-42 159h-95v-270h64v101l-2 60l41 -161h68zM103 638l22 -4l15 -7l7 -9l2 -12v-2l-2 -10l-5 -9l-10 -7l-15 -2h-3l-17 3l-12 9l-7 14l-2 21h-63v-2l6 -45l19 -31l32 -19l44 -6l44 6l31 17l20 27l6 36v5l-6 34l-16 24l-29 15
l-39 9l-21 4l-14 7l-8 9l-2 12v2l2 10l6 8l9 5l13 2h4l17 -3l11 -9l6 -16l2 -22h63v7l-6 44l-18 31l-30 19l-45 6l-43 -6l-31 -17l-19 -27l-6 -35v-4l5 -34l17 -24l27 -15z" />
    <glyph glyph-name="trademark" unicode="&#x2122;" horiz-adv-x="559" 
d="M454 691l-2 -60v-101h64v270h-96l-41 -159l-42 159h-95v-270h64v101l-2 60l41 -161h68zM147 744h67v56h-197v-56h66v-214h64v214z" />
    <glyph glyph-name="uni2153" unicode="&#x2153;" horiz-adv-x="800" 
d="M290 390v103h-71v288h-90l-124 -84l59 -85l35 23v-142h-72v-103h263zM631 125h-120v-8l10 -54l28 -41l43 -26l58 -9l57 8l44 24l27 36l10 47v10l-4 30l-12 25l-16 18l-20 14l18 13l16 18l10 24l4 30v10l-6 33l-21 35l-41 29l-67 12l-68 -12l-41 -32l-21 -44l-6 -46v-9
h120l1 17l2 12l5 7l6 3h3l6 -3l5 -7l2 -8l1 -7v-2l-1 -11l-2 -7l-5 -5l-7 -2h-49v-96h50l8 -2l6 -5l4 -8l1 -10v-5l-2 -13l-4 -9l-5 -6l-6 -2h-3l-6 2l-6 5l-4 11zM179 0l576 780h-134l-576 -780h134z" />
    <glyph glyph-name="uni2154" unicode="&#x2154;" horiz-adv-x="800" 
d="M284 493h-105l62 69l19 23l13 21l8 24l3 29v18l-6 36l-21 38l-41 30l-67 12l-68 -12l-41 -32l-21 -41l-6 -43v-15h120l1 17l2 12l5 7l6 3h3l6 -3l5 -6l2 -9l1 -9v-11l-1 -9l-2 -8l-5 -8l-5 -7l-138 -153v-76h271v103zM631 125h-120v-8l10 -54l28 -41l43 -26l58 -9l57 8
l44 24l27 36l10 47v10l-4 30l-12 25l-16 18l-20 14l18 13l16 18l10 24l4 30v10l-6 33l-21 35l-41 29l-67 12l-68 -12l-41 -32l-21 -44l-6 -46v-9h120l1 17l2 12l5 7l6 3h3l6 -3l5 -7l2 -8l1 -7v-2l-1 -11l-2 -7l-5 -5l-7 -2h-49v-96h50l8 -2l6 -5l4 -8l1 -10v-5l-2 -13
l-4 -9l-5 -6l-6 -2h-3l-6 2l-6 5l-4 11zM179 0l576 780h-134l-576 -780h134z" />
    <glyph glyph-name="uni2155" unicode="&#x2155;" horiz-adv-x="800" 
d="M290 390v103h-71v288h-90l-124 -84l59 -85l35 23v-142h-72v-103h263zM511 125v-8l10 -54l28 -41l43 -26l58 -9l57 8l44 25l27 41l10 56v12l-7 50l-23 40l-37 26l-53 9l-12 -1l-12 -1l-11 -2l-11 -3l2 39h157v104h-256l-9 -210l104 -35l6 5l6 3l6 2l6 1h1l10 -2l8 -5l4 -9
l2 -14v-5l-2 -13l-4 -9l-5 -6l-7 -2h-4l-5 2l-6 5l-3 11l-2 16h-120zM179 0l576 780h-134l-576 -780h134z" />
    <glyph glyph-name="uni2156" unicode="&#x2156;" horiz-adv-x="800" 
d="M284 493h-105l62 69l19 23l13 21l8 24l3 29v18l-6 36l-21 38l-41 30l-67 12l-68 -12l-41 -32l-21 -41l-6 -43v-15h120l1 17l2 12l5 7l6 3h3l6 -3l5 -6l2 -9l1 -9v-11l-1 -9l-2 -8l-5 -8l-5 -7l-138 -153v-76h271v103zM511 125v-8l10 -54l28 -41l43 -26l58 -9l57 8l44 25
l27 41l10 56v12l-7 50l-23 40l-37 26l-53 9l-12 -1l-12 -1l-11 -2l-11 -3l2 39h157v104h-256l-9 -210l104 -35l6 5l6 3l6 2l6 1h1l10 -2l8 -5l4 -9l2 -14v-5l-2 -13l-4 -9l-5 -6l-7 -2h-4l-5 2l-6 5l-3 11l-2 16h-120zM179 0l576 780h-134l-576 -780h134z" />
    <glyph glyph-name="uni2157" unicode="&#x2157;" horiz-adv-x="800" 
d="M131 515h-120v-8l10 -54l28 -41l43 -26l58 -9l57 8l44 24l27 36l10 47v10l-4 30l-12 25l-16 18l-20 14l18 13l16 18l10 24l4 30v10l-6 33l-21 35l-41 29l-67 12l-68 -12l-41 -32l-21 -44l-6 -46v-9h120l1 17l2 12l5 7l6 3h3l6 -3l5 -7l2 -8l1 -7v-2l-1 -11l-2 -7l-5 -5
l-7 -2h-49v-96h50l8 -2l6 -5l4 -8l1 -10v-5l-2 -13l-4 -9l-5 -6l-6 -2h-3l-6 2l-6 5l-4 11zM511 125v-8l10 -54l28 -41l43 -26l58 -9l57 8l44 25l27 41l10 56v12l-7 50l-23 40l-37 26l-53 9l-12 -1l-12 -1l-11 -2l-11 -3l2 39h157v104h-256l-9 -210l104 -35l6 5l6 3l6 2l6 1
h1l10 -2l8 -5l4 -9l2 -14v-5l-2 -13l-4 -9l-5 -6l-7 -2h-4l-5 2l-6 5l-3 11l-2 16h-120zM179 0l576 780h-134l-576 -780h134z" />
    <glyph glyph-name="uni2158" unicode="&#x2158;" horiz-adv-x="800" 
d="M137 619v-57h-31zM257 390v68h32v104h-32v218h-121l-126 -230v-92h127v-68h120zM511 125v-8l10 -54l28 -41l43 -26l58 -9l57 8l44 25l27 41l10 56v12l-7 50l-23 40l-37 26l-53 9l-12 -1l-12 -1l-11 -2l-11 -3l2 39h157v104h-256l-9 -210l104 -35l6 5l6 3l6 2l6 1h1l10 -2
l8 -5l4 -9l2 -14v-5l-2 -13l-4 -9l-5 -6l-7 -2h-4l-5 2l-6 5l-3 11l-2 16h-120zM179 0l576 780h-134l-576 -780h134z" />
    <glyph glyph-name="uni2159" unicode="&#x2159;" horiz-adv-x="800" 
d="M648 143h4l6 -1l5 -4l4 -7l2 -10v-5l-2 -11l-4 -7l-5 -5l-6 -2h-4l-6 2l-5 6l-4 12l-2 19v2l4 5l4 3l4 2zM290 390v103h-71v288h-90l-124 -84l59 -85l35 23v-142h-72v-103h263zM778 403l-66 -4l-57 -12l-48 -22l-39 -36l-27 -42l-18 -43l-9 -46l-3 -46v-9l8 -59l25 -50
l43 -34l62 -13l63 10l43 28l25 42l8 51v5l-7 52l-21 39l-32 24l-42 8l-12 -1l-12 -2l-11 -5l-10 -5l4 9l4 8l5 8l5 6l20 15l26 11l33 7l40 2v104zM179 0l576 780h-134l-576 -780h134z" />
    <glyph glyph-name="uni215A" unicode="&#x215a;" horiz-adv-x="800" 
d="M648 143h4l6 -1l5 -4l4 -7l2 -10v-5l-2 -11l-4 -7l-5 -5l-6 -2h-4l-6 2l-5 6l-4 12l-2 19v2l4 5l4 3l4 2zM778 403l-66 -4l-57 -12l-48 -22l-39 -36l-27 -42l-18 -43l-9 -46l-3 -46v-9l8 -59l25 -50l43 -34l62 -13l63 10l43 28l25 42l8 51v5l-7 52l-21 39l-32 24l-42 8
l-12 -1l-12 -2l-11 -5l-10 -5l4 9l4 8l5 8l5 6l20 15l26 11l33 7l40 2v104zM11 515v-8l10 -54l28 -41l43 -26l58 -9l57 8l44 25l27 41l10 56v12l-7 50l-23 40l-37 26l-53 9l-12 -1l-12 -1l-11 -2l-11 -3l2 39h157v104h-256l-9 -210l104 -35l6 5l6 3l6 2l6 1h1l10 -2l8 -5
l4 -9l2 -14v-5l-2 -13l-4 -9l-5 -6l-7 -2h-4l-5 2l-6 5l-3 11l-2 16h-120zM179 0l576 780h-134l-576 -780h134z" />
    <glyph glyph-name="uni215B" unicode="&#x215b;" horiz-adv-x="800" 
d="M651 251h-2l-6 1l-4 5l-2 7l-1 10v4l1 10l2 8l4 4l6 1h2l6 -1l4 -4l2 -8l1 -10v-4l-1 -10l-2 -7l-4 -5zM648 147h4l8 -2l5 -5l3 -9l1 -11v-4l-1 -11l-3 -8l-6 -6l-7 -2h-4l-7 2l-6 6l-3 8l-1 11v4l1 11l3 9l5 5zM290 390v103h-71v288h-90l-124 -84l59 -85l35 23v-142h-72
v-103h263zM650 -13l57 8l44 24l27 36l10 47v11l-4 29l-11 25l-15 18l-19 14l17 14l15 18l9 24l4 29v10l-6 33l-20 35l-41 29l-67 12l-66 -12l-41 -29l-21 -35l-6 -33v-10l4 -29l10 -24l14 -18l17 -14l-19 -14l-15 -18l-11 -25l-4 -29v-11l10 -47l27 -36l44 -24zM179 0
l576 780h-134l-576 -780h134z" />
    <glyph glyph-name="uni215C" unicode="&#x215c;" horiz-adv-x="800" 
d="M651 251h-2l-6 1l-4 5l-2 7l-1 10v4l1 10l2 8l4 4l6 1h2l6 -1l4 -4l2 -8l1 -10v-4l-1 -10l-2 -7l-4 -5zM648 147h4l8 -2l5 -5l3 -9l1 -11v-4l-1 -11l-3 -8l-6 -6l-7 -2h-4l-7 2l-6 6l-3 8l-1 11v4l1 11l3 9l5 5zM131 515h-120v-8l10 -54l28 -41l43 -26l58 -9l57 8l44 24
l27 36l10 47v10l-4 30l-12 25l-16 18l-20 14l18 13l16 18l10 24l4 30v10l-6 33l-21 35l-41 29l-67 12l-68 -12l-41 -32l-21 -44l-6 -46v-9h120l1 17l2 12l5 7l6 3h3l6 -3l5 -7l2 -8l1 -7v-2l-1 -11l-2 -7l-5 -5l-7 -2h-49v-96h50l8 -2l6 -5l4 -8l1 -10v-5l-2 -13l-4 -9
l-5 -6l-6 -2h-3l-6 2l-6 5l-4 11zM650 -13l57 8l44 24l27 36l10 47v11l-4 29l-11 25l-15 18l-19 14l17 14l15 18l9 24l4 29v10l-6 33l-20 35l-41 29l-67 12l-66 -12l-41 -29l-21 -35l-6 -33v-10l4 -29l10 -24l14 -18l17 -14l-19 -14l-15 -18l-11 -25l-4 -29v-11l10 -47
l27 -36l44 -24zM179 0l576 780h-134l-576 -780h134z" />
    <glyph glyph-name="uni215D" unicode="&#x215d;" horiz-adv-x="800" 
d="M651 251h-2l-6 1l-4 5l-2 7l-1 10v4l1 10l2 8l4 4l6 1h2l6 -1l4 -4l2 -8l1 -10v-4l-1 -10l-2 -7l-4 -5zM648 147h4l8 -2l5 -5l3 -9l1 -11v-4l-1 -11l-3 -8l-6 -6l-7 -2h-4l-7 2l-6 6l-3 8l-1 11v4l1 11l3 9l5 5zM11 515v-8l10 -54l28 -41l43 -26l58 -9l57 8l44 25l27 41
l10 56v12l-7 50l-23 40l-37 26l-53 9l-12 -1l-12 -1l-11 -2l-11 -3l2 39h157v104h-256l-9 -210l104 -35l6 5l6 3l6 2l6 1h1l10 -2l8 -5l4 -9l2 -14v-5l-2 -13l-4 -9l-5 -6l-7 -2h-4l-5 2l-6 5l-3 11l-2 16h-120zM650 -13l57 8l44 24l27 36l10 47v11l-4 29l-11 25l-15 18
l-19 14l17 14l15 18l9 24l4 29v10l-6 33l-20 35l-41 29l-67 12l-66 -12l-41 -29l-21 -35l-6 -33v-10l4 -29l10 -24l14 -18l17 -14l-19 -14l-15 -18l-11 -25l-4 -29v-11l10 -47l27 -36l44 -24zM179 0l576 780h-134l-576 -780h134z" />
    <glyph glyph-name="uni215E" unicode="&#x215e;" horiz-adv-x="800" 
d="M651 251h-2l-6 1l-4 5l-2 7l-1 10v4l1 10l2 8l4 4l6 1h2l6 -1l4 -4l2 -8l1 -10v-4l-1 -10l-2 -7l-4 -5zM648 147h4l8 -2l5 -5l3 -9l1 -11v-4l-1 -11l-3 -8l-6 -6l-7 -2h-4l-7 2l-6 6l-3 8l-1 11v4l1 11l3 9l5 5zM8 640h104v36h48l-124 -286h128l128 316v74h-284v-140z
M650 -13l57 8l44 24l27 36l10 47v11l-4 29l-11 25l-15 18l-19 14l17 14l15 18l9 24l4 29v10l-6 33l-20 35l-41 29l-67 12l-66 -12l-41 -29l-21 -35l-6 -33v-10l4 -29l10 -24l14 -18l17 -14l-19 -14l-15 -18l-11 -25l-4 -29v-11l10 -47l27 -36l44 -24zM179 0l576 780h-134
l-576 -780h134z" />
    <glyph glyph-name="uni215F" unicode="&#x215f;" horiz-adv-x="500" 
d="M290 390v103h-71v288h-90l-124 -84l59 -85l35 23v-142h-72v-103h263zM179 0l576 780h-134l-576 -780h134z" />
    <glyph glyph-name="arrowleft" unicode="&#x2190;" horiz-adv-x="920" 
d="M447 780l-390 -390l390 -390h198l-320 320h525v140h-525l320 320h-198z" />
    <glyph glyph-name="arrowup" unicode="&#x2191;" horiz-adv-x="920" 
d="M70 205l320 320v-525h140v525l320 -320v198l-390 390l-390 -390v-198z" />
    <glyph glyph-name="arrowright" unicode="&#x2192;" horiz-adv-x="920" 
d="M275 780l320 -320h-525v-140h525l-320 -320h198l390 390l-390 390h-198z" />
    <glyph glyph-name="arrowdown" unicode="&#x2193;" horiz-adv-x="920" 
d="M70 377l390 -390l390 390v198l-320 -320v525h-140v-525l-320 320v-198z" />
    <glyph glyph-name="uni2196" unicode="&#x2196;" horiz-adv-x="920" 
d="M211 0v540l553 -554l100 100l-554 553h540v141h-780v-780h141z" />
    <glyph glyph-name="uni2197" unicode="&#x2197;" horiz-adv-x="920" 
d="M70 639h540l-554 -553l100 -100l553 554v-540h141v780h-780v-141z" />
    <glyph glyph-name="uni2198" unicode="&#x2198;" horiz-adv-x="920" 
d="M70 0h780v780h-141v-540l-553 554l-100 -100l554 -553h-540v-141z" />
    <glyph glyph-name="uni2199" unicode="&#x2199;" horiz-adv-x="920" 
d="M850 141h-540l554 553l-100 100l-553 -554v540h-141v-780h780v141z" />
    <glyph glyph-name="minus" unicode="&#x2212;" horiz-adv-x="600" 
d="M42 320h516v140h-516v-140z" />
    <glyph glyph-name="approxequal" unicode="&#x2248;" horiz-adv-x="600" 
d="M184 590l-50 -8l-43 -20l-35 -31l-28 -36l74 -74l15 16l20 15l24 12l29 5l51 -10l50 -22l56 -23l69 -10l50 8l43 20l35 31l28 36l-74 74l-15 -16l-20 -15l-24 -12l-29 -5l-51 10l-50 23l-56 22zM184 374l-50 -8l-43 -20l-35 -31l-28 -36l74 -74l15 16l20 15l24 12l29 5
l51 -10l50 -22l56 -23l69 -10l50 8l43 20l35 31l28 36l-74 74l-15 -16l-20 -16l-24 -12l-29 -5l-51 10l-50 23l-56 23z" />
    <glyph glyph-name="notequal" unicode="&#x2260;" horiz-adv-x="600" 
d="M42 428h224l-43 -76h-181v-141h100l-59 -104h110l59 104h306v141h-225l43 76h182v141h-101l60 104h-110l-60 -104h-305v-141z" />
    <glyph glyph-name="equivalence" unicode="&#x2261;" horiz-adv-x="600" 
d="M42 320h516v140h-516v-140zM42 103h516v141h-516v-141zM42 536h516v141h-516v-141z" />
    <glyph glyph-name="lessequal" unicode="&#x2264;" horiz-adv-x="600" 
d="M558 174l-516 160v-90l516 -161v91zM558 541v156l-516 -161v-153l516 -161v156l-288 81z" />
    <glyph glyph-name="greaterequal" unicode="&#x2265;" horiz-adv-x="600" 
d="M42 83l516 161v90l-516 -160v-91zM42 378v-156l516 161v153l-516 161v-156l288 -82z" />
    <glyph glyph-name="squaremultiply" unicode="&#x22a0;" horiz-adv-x="920" 
d="M338 168l122 122l122 -122h100v100l-122 122l122 122v100h-100l-122 -122l-122 122h-100v-100l122 -122l-122 -122v-100h100zM711 641v-502h-502v502h502zM70 780v-780h780v780h-780z" />
    <glyph glyph-name="house" unicode="&#x2302;" horiz-adv-x="850" 
d="M780 0v450l-355 340l-355 -340v-450h710z" />
    <glyph glyph-name="whitesquare" unicode="&#x25a1;" horiz-adv-x="920" 
d="M711 641v-502h-502v502h502zM850 0v780h-780v-780h780z" />
    <glyph glyph-name="blacksmallsquare" unicode="&#x25aa;" horiz-adv-x="680" 
d="M600 0v530h-530v-530h530z" />
    <glyph glyph-name="whitesmallsquare" unicode="&#x25ab;" horiz-adv-x="680" 
d="M461 391v-252h-252v252h252zM70 530v-530h530v530h-530z" />
    <glyph glyph-name="triagup" unicode="&#x25b2;" horiz-adv-x="930" 
d="M542 793h-154l-326 -793h156l247 617l247 -617h156z" />
    <glyph glyph-name="triagrt" unicode="&#x25ba;" horiz-adv-x="930" 
d="M873 467l-793 326v-156l617 -247l-617 -247v-156l793 326v154z" />
    <glyph glyph-name="triagdn" unicode="&#x25bc;" horiz-adv-x="930" 
d="M388 -13h154l326 793h-156l-247 -618l-247 618h-156z" />
    <glyph glyph-name="triaglf" unicode="&#x25c4;" horiz-adv-x="930" 
d="M57 467v-154l793 -326v156l-618 247l618 247v156z" />
    <glyph glyph-name="blackcircle" unicode="&#x25cf;" horiz-adv-x="920" 
d="M57 390l32 -157l86 -128l128 -86l157 -32l157 32l128 86l86 128l32 157l-32 157l-86 128l-128 86l-157 32l-157 -32l-128 -86l-86 -128z" />
    <glyph glyph-name="uni25E2" unicode="&#x25e2;" horiz-adv-x="930" 
d="M906 54l-329 791l-111 -110l261 -611l-611 262l-109 -111l791 -330l54 54z" />
    <glyph glyph-name="uni25E3" unicode="&#x25e3;" horiz-adv-x="930" 
d="M78 -1l54 -54l791 330l-109 111l-612 -262l262 611l-111 110l-329 -791z" />
    <glyph glyph-name="uni25E4" unicode="&#x25e4;" horiz-adv-x="930" 
d="M24 728l329 -791l111 109l-262 611l612 -261l109 111l-791 329z" />
    <glyph glyph-name="uni25E5" unicode="&#x25e5;" horiz-adv-x="930" 
d="M906 728l-108 108l-791 -329l109 -111l611 261l-261 -611l111 -109z" />
    <glyph glyph-name="whitecircle" unicode="&#x25ef;" horiz-adv-x="920" 
d="M196 390l21 103l56 84l84 56l103 21l103 -21l84 -56l56 -84l21 -103l-21 -103l-56 -84l-84 -56l-103 -21l-103 21l-84 56l-56 84zM57 390l32 -157l86 -128l128 -86l157 -32l157 32l128 86l86 128l32 157l-32 157l-86 128l-128 86l-157 32l-157 -32l-128 -86l-86 -128z
" />
    <glyph glyph-name="uni2605" unicode="&#x2605;" horiz-adv-x="880" 
d="M440 180l260 -190l-99 307l260 189h-322l-99 306l-99 -306h-322l260 -189l-99 -307z" />
    <glyph glyph-name="ballotboxwithx" unicode="&#x2612;" horiz-adv-x="680" 
d="M432 168v194h-194v-194h194zM461 391v-252h-252v252h252zM70 530v-530h530v530h-530z" />
    <glyph glyph-name="uni263C" unicode="&#x263c;" horiz-adv-x="960" 
d="M521 191l8 -10l13 -22l12 -30l5 -34l5 -28l15 -22l22 -16l27 -5l8 1l7 1l6 3l7 3l-7 2l-17 7l-16 18l-8 32l1 14l3 17l3 16l1 15l-4 27l-8 20l-9 13l-5 6l172 -113l-113 172l21 -2l25 -8l25 -12l24 -19l11 -9l13 -7l13 -4l14 -1l20 3l18 8l14 15l10 20l-3 -2l-7 -4
l-11 -4l-14 -2l-25 6l-18 16l-16 22l-19 24l-21 17l-21 8l-16 4h-8l202 42l-202 42l10 8l22 13l30 12l34 5l28 5l23 15l15 22l5 27l-1 8l-1 7l-3 6l-3 7l-2 -7l-7 -17l-18 -16l-32 -8l-14 1l-17 3l-16 3l-15 1l-27 -4l-20 -8l-13 -9l-6 -5l113 172l-172 -113l2 21l8 25
l12 25l19 24l9 11l7 13l4 13l1 14l-3 20l-8 18l-15 14l-20 10l2 -3l4 -7l4 -11l2 -14l-6 -25l-16 -18l-22 -16l-24 -19l-17 -21l-8 -21l-4 -16v-8l-42 202l-42 -202l-8 10l-13 22l-12 30l-5 34l-5 28l-15 23l-22 15l-27 5l-8 -1l-7 -1l-6 -3l-7 -3l8 -2l16 -7l17 -18l7 -32
l-1 -14l-3 -17l-3 -16l-1 -15l4 -27l8 -20l9 -13l5 -6l-172 113l113 -172l-21 2l-25 8l-25 12l-24 19l-11 9l-13 7l-13 4l-14 1l-20 -3l-18 -8l-14 -15l-10 -20l3 2l7 4l11 4l14 2l25 -6l18 -16l16 -22l19 -24l21 -17l21 -8l16 -4h8l-202 -42l202 -42l-10 -8l-22 -13
l-30 -12l-34 -5l-28 -5l-22 -15l-16 -22l-5 -27l1 -8l1 -7l3 -6l3 -7l2 8l7 16l18 17l32 7l14 -1l17 -3l16 -3l15 -1l27 4l20 8l13 9l6 5l-113 -172l172 113l-2 -21l-8 -25l-12 -25l-19 -24l-9 -11l-7 -13l-4 -13l-1 -14l3 -20l8 -18l15 -14l20 -10l-2 3l-4 7l-4 11l-2 14
l6 25l16 18l22 16l24 19l17 21l8 21l4 16v8l42 -202z" />
    <glyph glyph-name="uni263E" unicode="&#x263e;" horiz-adv-x="960" 
d="M624 728l25 -1l24 -3l24 -5l23 -6l-54 32l-58 25l-63 15l-65 5l-156 -31l-127 -86l-86 -127l-31 -156l31 -156l86 -127l127 -86l156 -31l65 5l63 15l58 24l54 33l-23 -7l-24 -4l-24 -3l-25 -1l-126 27l-103 72l-70 107l-25 132l25 132l70 107l103 72z" />
    <glyph glyph-name="spade" unicode="&#x2660;" horiz-adv-x="900" 
d="M451 790h-2l-35 -47l-54 -61l-68 -64l-76 -58l-62 -45l-53 -50l-36 -60l-13 -71l14 -69l37 -55l56 -37l69 -13l68 13l56 36l44 52l32 60l3 -1l-10 -93l-16 -80l-24 -74l-32 -73h202l-32 73l-24 74l-16 80l-10 93l3 1l32 -60l44 -52l56 -36l68 -13l69 13l56 37l37 55
l14 69l-13 71l-36 60l-53 50l-62 45l-76 58l-68 64l-54 61z" />
    <glyph glyph-name="club" unicode="&#x2663;" horiz-adv-x="900" 
d="M349 0h202l-32 73l-24 74l-16 80l-10 93l3 1l32 -60l44 -52l56 -36l68 -13l69 13l56 37l37 55l14 69l-13 72l-35 57l-55 38l-71 13l-24 -2l-22 -5l-20 -7l-18 -9l-2 2l15 26l12 28l8 31l3 32l-13 70l-37 57l-56 39l-70 14l-70 -14l-56 -39l-37 -57l-13 -70l3 -32l8 -31
l12 -28l15 -26l-2 -2l-18 9l-20 7l-22 5l-24 2l-71 -13l-55 -38l-35 -57l-13 -72l14 -69l37 -55l56 -37l69 -13l68 13l56 36l44 52l32 60l3 -1l-10 -93l-16 -80l-24 -74z" />
    <glyph glyph-name="heart" unicode="&#x2665;" horiz-adv-x="900" 
d="M451 -10l35 50l54 70l68 84l76 89l55 65l53 76l40 80l16 80l-13 82l-38 65l-60 43l-80 16l-80 -13l-58 -34l-40 -50l-27 -60h-4l-27 60l-40 50l-58 34l-80 13l-80 -16l-60 -43l-38 -65l-13 -82l16 -80l40 -80l53 -76l55 -65l76 -89l68 -84l54 -70l35 -50h2z" />
    <glyph glyph-name="diamond" unicode="&#x2666;" horiz-adv-x="900" 
d="M817 390l-105 90l-98 99l-88 105l-75 106h-2l-75 -106l-88 -105l-98 -99l-105 -90l105 -89l98 -100l88 -105l75 -106h2l75 106l88 105l98 100z" />
    <glyph glyph-name="uni267B" unicode="&#x267b;" horiz-adv-x="959" 
d="M806 527l-149 -86l116 -201l35 10l37 27l29 40l11 49l-1 13l-2 12l-3 11l-4 8zM446 41v173h-232l-10 -36l5 -45l21 -44l37 -35l12 -6l12 -4l11 -2l9 -1h135zM200 598l150 -86l116 201l-26 26l-42 19l-49 5l-48 -15l-11 -7l-10 -8l-8 -9l-5 -7zM404 779l10 -2l24 -7
l30 -17l27 -31l72 -125l-41 -24l173 -31l61 166l-43 -24l-28 49l-20 26l-21 14l-24 6l-27 1h-193v-1zM186 122l-4 10l-5 25v35l13 38l12 22l25 42l24 42l11 19l41 -24l-59 166l-174 -31l42 -24l-28 -49l-13 -31l-1 -25l6 -24l12 -23l96 -168h2zM863 266l-7 -8l-18 -18
l-30 -18l-40 -8h-145v49l-113 -135l113 -136v49h57l33 4l23 12l17 18l15 22l96 167z" />
    <glyph glyph-name="uni267C" unicode="&#x267c;" horiz-adv-x="960" 
d="M64 390l31 -154l85 -126l126 -85l154 -31l154 31l126 85l85 126l31 154l-31 154l-85 126l-126 85l-154 31l-154 -31l-126 -85l-85 -126zM755 294l-75 -130l-11 -17l-13 -13l-18 -10l-26 -3h-44v-38l-88 105l88 105v-38h112l31 6l23 14l15 14l5 6zM763 407l3 -6l3 -8
l1 -10l1 -10l-9 -38l-22 -31l-28 -21l-28 -8l-90 156l116 67zM228 184l-75 130l-9 18l-5 18l1 20l10 24l22 38l-33 19l135 24l46 -129l-32 19l-56 -97l-10 -30v-27l4 -19l3 -8h-1zM322 121l-7 1l-8 1l-10 3l-9 5l-29 27l-15 34l-4 35l7 28h180v-134h-105zM394 694h150l21 -1
l18 -4l17 -11l15 -21l22 -38l33 19l-47 -129l-134 24l32 19l-56 97l-21 23l-23 14l-19 6l-8 1v1zM292 645l4 6l6 6l7 6l9 6l37 11l38 -3l33 -15l20 -20l-90 -156l-116 67z" />
    <glyph glyph-name="uni267D" unicode="&#x267d;" horiz-adv-x="960" 
d="M98 390l28 141l78 115l115 78l141 28l141 -28l115 -78l78 -115l28 -141l-28 -141l-78 -115l-115 -78l-141 -28l-141 28l-115 78l-78 115zM60 390l31 -156l86 -127l127 -86l156 -31l156 31l127 86l86 127l31 156l-31 156l-86 127l-127 86l-156 31l-156 -31l-127 -86
l-86 -127zM754 295l-5 -6l-15 -14l-23 -14l-31 -6h-112v38l-88 -105l88 -105v38h44l26 3l18 10l13 13l11 17l75 130zM710 498l-116 -67l90 -156l28 8l28 21l22 31l9 38l-1 10l-1 10l-3 8l-3 6zM229 184l-3 8l-4 19v27l10 30l56 97l32 -19l-46 129l-135 -24l33 -19l-22 -38
l-10 -24l-1 -20l5 -18l9 -18l75 -130h1zM427 121v134h-180l-7 -28l4 -35l15 -34l29 -27l9 -5l10 -3l8 -1l7 -1h105zM394 693l8 -1l19 -6l23 -14l21 -23l56 -97l-32 -19l134 -24l47 129l-33 -19l-22 38l-15 21l-17 11l-18 4l-21 1h-150v-1zM240 553l116 -67l90 156l-20 20
l-33 15l-38 3l-37 -11l-9 -6l-7 -6l-6 -6l-4 -6z" />
    <glyph glyph-name="mediumwhitecircle" unicode="&#x26aa;" horiz-adv-x="670" 
d="M196 265l11 54l30 44l44 30l54 11l54 -11l44 -30l30 -44l11 -54l-11 -54l-30 -44l-44 -30l-54 -11l-54 11l-44 30l-30 44zM57 265l22 -108l59 -89l89 -59l108 -22l108 22l89 59l59 89l22 108l-22 108l-59 89l-89 59l-108 22l-108 -22l-89 -59l-59 -89z" />
    <glyph glyph-name="mediumblackcircle" unicode="&#x26ab;" horiz-adv-x="670" 
d="M57 265l22 -108l59 -89l89 -59l108 -22l108 22l89 59l59 89l22 108l-22 108l-59 89l-89 59l-108 22l-108 -22l-89 -59l-59 -89z" />
    <glyph glyph-name="anglebracketleft" unicode="&#x3008;" horiz-adv-x="365" 
d="M347 840h-163l-162 -480l162 -480h163l-162 480z" />
    <glyph glyph-name="anglebracketright" unicode="&#x3009;" horiz-adv-x="365" 
d="M18 -120h163l162 480l-162 480h-163l162 -480z" />
    <glyph glyph-name="fi" unicode="&#xe38c;" horiz-adv-x="677" 
d="M627 772h-166v-167h166v167zM465 0h158v530h-158v-530zM258 599l5 40l16 23l25 12l32 3l14 -1l14 -1l12 -3l8 -2v130l-10 4l-18 4l-25 4l-32 1l-81 -10l-63 -34l-41 -61l-14 -92v-86h-81v-138h81v-392h158v392h116v138h-116v69z" />
    <glyph glyph-name="fl" unicode="&#xe38d;" horiz-adv-x="677" 
d="M465 0h158v800h-158v-800zM258 599l5 40l16 23l25 12l32 3l14 -1l14 -1l12 -3l8 -2v130l-10 4l-18 4l-25 4l-32 1l-81 -10l-63 -34l-41 -61l-14 -92v-86h-81v-138h81v-392h158v392h116v138h-116v69z" />
    <glyph glyph-name="invertedbreve" unicode="&#xe411;" horiz-adv-x="499" 
d="M250 793l-89 -15l-58 -41l-31 -63l-9 -78h113l6 37l15 24l23 13l30 4l30 -4l23 -13l15 -24l6 -37h113l-9 78l-31 63l-58 41z" />
    <glyph glyph-name="doublegrave" unicode="&#xe412;" horiz-adv-x="500" 
d="M2 780l107 -184h123l-91 184h-139zM185 780l84 -184h123l-67 184h-140z" />
    <glyph glyph-name="caronSlovak" unicode="&#xe413;" horiz-adv-x="500" 
d="M306 800v-204h70l26 204h-96z" />
    <glyph glyph-name="dotbelow" unicode="&#xe415;" horiz-adv-x="602" 
d="M321 -51h-142v-142h142v142z" />
    <glyph glyph-name="altcedilla" unicode="&#xe416;" horiz-adv-x="602" 
d="M286 -118l-2 -10l-8 -7l-15 -4l-22 -2l-20 1l-20 4l-18 5l-14 7l-23 -66l18 -9l24 -8l30 -6l35 -2l52 6l38 17l22 27l8 38l-9 39l-24 27l-36 16l-44 5l-22 -1l-18 -2l-16 -3l-12 -4v-52l7 2l12 3l15 1l15 1l21 -1l15 -5l8 -7z" />
    <glyph glyph-name="grave.cap" unicode="&#xe421;" horiz-adv-x="500" 
d="M108 950l64 -110h156l-55 110h-165z" />
    <glyph glyph-name="acute.cap" unicode="&#xe422;" horiz-adv-x="500" 
d="M227 950l-55 -110h156l64 110h-165z" />
    <glyph glyph-name="circumflex.cap" unicode="&#xe423;" horiz-adv-x="500" 
d="M188 840l62 44l62 -44h142l-124 110h-160l-124 -110h142z" />
    <glyph glyph-name="tilde.cap" unicode="&#xe424;" horiz-adv-x="500" 
d="M350 947l-3 -16l-7 -10l-10 -5l-13 -2l-30 8l-35 16l-39 17l-45 7l-39 -6l-33 -20l-22 -37l-9 -56h85l3 16l7 10l10 6l13 1l30 -7l35 -17l39 -16l45 -8l39 6l33 21l23 36l8 56h-85z" />
    <glyph glyph-name="macron.cap" unicode="&#xe425;" horiz-adv-x="500" 
d="M101 847h298v96h-298v-96z" />
    <glyph glyph-name="breve.cap" unicode="&#xe426;" horiz-adv-x="500" 
d="M250 825l91 10l56 27l28 40l8 48h-109l-4 -17l-13 -13l-23 -7l-34 -3l-34 3l-23 7l-13 13l-4 17h-109l8 -48l28 -40l56 -27z" />
    <glyph glyph-name="invertedbreve.cap" unicode="&#xe427;" horiz-adv-x="500" 
d="M250 965l-91 -10l-56 -27l-28 -40l-8 -48h109l4 17l13 13l23 7l34 3l34 -3l23 -7l13 -13l4 -17h109l-8 48l-28 40l-56 27z" />
    <glyph glyph-name="dotaccent.cap" unicode="&#xe428;" horiz-adv-x="500" 
d="M317 945h-134v-100h134v100z" />
    <glyph glyph-name="dieresis.cap" unicode="&#xe429;" horiz-adv-x="500" 
d="M404 945h-133v-100h133v100zM229 945h-133v-100h133v100z" />
    <glyph glyph-name="ring.cap" unicode="&#xe42a;" horiz-adv-x="500" 
d="M199 858l4 20l11 16l16 10l20 4l20 -4l16 -10l11 -16l4 -20l-4 -20l-11 -16l-16 -11l-20 -4l-20 4l-16 11l-11 16zM145 858l8 -41l23 -34l33 -23l41 -8l41 8l33 23l23 34l8 41l-8 41l-23 33l-33 23l-41 8l-41 -8l-33 -23l-23 -33z" />
    <glyph glyph-name="hungarumlaut.cap" unicode="&#xe42b;" horiz-adv-x="500" 
d="M318 950l-54 -110h139l64 110h-149zM143 950l-46 -110h139l56 110h-149z" />
    <glyph glyph-name="doublegrave.cap" unicode="&#xe42c;" horiz-adv-x="500" 
d="M33 950l64 -110h139l-54 110h-149zM208 950l56 -110h139l-46 110h-149z" />
    <glyph glyph-name="caron.cap" unicode="&#xe42d;" horiz-adv-x="500" 
d="M46 950l124 -110h160l124 110h-142l-62 -45l-62 45h-142z" />
    <glyph glyph-name="commaaccent.cap" unicode="&#xe42e;" horiz-adv-x="500" 
d="M183 840h134v60h-73l12 15l16 9l21 5l26 1v38l-60 -7l-42 -19l-26 -32l-8 -45v-25z" />
    <glyph glyph-name="exclamdown.cap" unicode="&#xe441;" horiz-adv-x="265" 
d="M50 613h166v167h-166v-167zM231 0l-42 552h-112l-42 -552h196z" />
    <glyph glyph-name="questiondown.cap" unicode="&#xe444;" horiz-adv-x="497" 
d="M169 613h166v167h-166v-167zM244 126l-32 5l-20 15l-12 23l-3 32l22 66l49 72l45 91l15 122h-111l-34 -108l-61 -69l-58 -72l-26 -115l11 -74l36 -64l69 -46l110 -17l109 17l72 50l39 81l12 111v18h-159l-4 -63l-12 -43l-22 -24z" />
    <glyph glyph-name="guilsinglleft.cap" unicode="&#xe451;" horiz-adv-x="316" 
d="M266 613l-216 -147v-152l216 -147v139l-109 84l109 84v139z" />
    <glyph glyph-name="guilsinglright.cap" unicode="&#xe452;" horiz-adv-x="316" 
d="M50 474l109 -84l-109 -84v-139l216 147v152l-216 147v-139z" />
    <glyph glyph-name="guillemotleft.cap" unicode="&#xe453;" horiz-adv-x="565" 
d="M515 613l-216 -147v-152l216 -147v139l-109 84l109 84v139zM266 613l-216 -147v-152l216 -147v139l-109 84l109 84v139z" />
    <glyph glyph-name="guillemotright.cap" unicode="&#xe454;" horiz-adv-x="565" 
d="M50 474l109 -84l-109 -84v-139l216 147v152l-216 147v-139zM299 474l109 -84l-109 -84v-139l216 147v152l-216 147v-139z" />
    <glyph glyph-name="slash.cap" unicode="&#xe461;" horiz-adv-x="381" 
d="M172 0l192 780h-154l-192 -780h154z" />
    <glyph glyph-name="backslash.cap" unicode="&#xe462;" horiz-adv-x="381" 
d="M18 780l192 -780h154l-192 780h-154z" />
    <glyph glyph-name="bar.cap" unicode="&#xe463;" horiz-adv-x="261" 
d="M54 0h154v780h-154v-780z" />
    <glyph glyph-name="doublebar.cap" unicode="&#xe464;" horiz-adv-x="459" 
d="M251 0h154v780h-154v-780zM54 0h154v780h-154v-780z" />
    <glyph glyph-name="brokenbar.cap" unicode="&#xe465;" horiz-adv-x="261" 
d="M54 0h154v366h-154v-366zM54 414h154v366h-154v-366z" />
    <glyph glyph-name="bullet.cap" unicode="&#xe466;" horiz-adv-x="445" 
d="M383 551h-321v-322h321v322z" />
    <glyph glyph-name="onethirdemdash" unicode="&#xe471;" horiz-adv-x="333" 
d="M293 281v138h-253v-138h253z" />
    <glyph glyph-name="threequarteremdash" unicode="&#xe472;" horiz-adv-x="750" 
d="M40 281h670v138h-670v-138z" />
    <glyph glyph-name="periodcentered.cap" unicode="&#xe481;" horiz-adv-x="266" 
d="M216 474h-166v-167h166v167z" />
    <glyph glyph-name="hyphen.cap" unicode="&#xe482;" horiz-adv-x="320" 
d="M40 321h273v138h-273v-138z" />
    <glyph glyph-name="onethirdemdash.cap" unicode="&#xe483;" horiz-adv-x="333" 
d="M293 321v138h-251v-138h251z" />
    <glyph glyph-name="endash.cap" unicode="&#xe484;" horiz-adv-x="500" 
d="M40 321h420v138h-420v-138z" />
    <glyph glyph-name="threequarteremdash.cap" unicode="&#xe485;" horiz-adv-x="750" 
d="M40 321h670v138h-670v-138z" />
    <glyph glyph-name="emdash.cap" unicode="&#xe486;" horiz-adv-x="1000" 
d="M40 321h920v138h-920v-138z" />
    <glyph glyph-name="figuredash.cap" unicode="&#xe487;" horiz-adv-x="600" 
d="M40 321h520v138h-520v-138z" />
    <glyph glyph-name="uni2015.cap" unicode="&#xe488;" horiz-adv-x="1200" 
d="M40 321h1120v138h-1120v-138z" />
    <glyph glyph-name="parenleft.cap" unicode="&#xe491;" horiz-adv-x="365" 
d="M45 380l9 -122l26 -103l38 -86l46 -69h164l-44 72l-40 90l-30 103l-11 115v20l11 115l30 104l40 89l44 72h-164l-46 -69l-38 -86l-26 -103l-9 -122v-20z" />
    <glyph glyph-name="parenright.cap" unicode="&#xe492;" horiz-adv-x="365" 
d="M320 400l-9 122l-26 103l-38 86l-46 69h-164l44 -72l40 -89l30 -104l11 -115v-20l-11 -115l-30 -103l-40 -90l-44 -72h164l46 69l38 86l26 103l9 122v20z" />
    <glyph glyph-name="bracketleft.cap" unicode="&#xe493;" horiz-adv-x="365" 
d="M58 780v-780h274v138h-117v504h117v138h-274z" />
    <glyph glyph-name="bracketright.cap" unicode="&#xe494;" horiz-adv-x="365" 
d="M307 0v780h-274v-138h117v-504h-117v-138h274z" />
    <glyph glyph-name="braceleft.cap" unicode="&#xe495;" horiz-adv-x="365" 
d="M332 780h-27l-84 -9l-65 -30l-42 -55l-15 -84v-61l-5 -38l-13 -25l-24 -14l-33 -5v-138l33 -5l24 -14l13 -25l5 -38v-61l15 -84l42 -55l65 -30l84 -9h27v138l-33 5l-24 15l-14 26l-5 39v51l-4 39l-11 32l-19 26l-26 19l26 19l19 26l11 32l4 39v60l6 35l14 23l24 14l32 4
v138z" />
    <glyph glyph-name="braceright.cap" unicode="&#xe496;" horiz-adv-x="365" 
d="M33 642l33 -5l24 -15l14 -26l5 -39v-51l4 -39l11 -32l19 -26l25 -19l-25 -19l-19 -26l-11 -32l-4 -39v-51l-5 -39l-14 -26l-24 -15l-33 -5v-138h27l85 9l65 30l41 55l15 84v61l5 38l13 25l24 14l33 5v138l-33 5l-24 14l-13 25l-5 38v61l-15 84l-41 55l-65 30l-85 9h-27
v-138z" />
    <glyph glyph-name="anglebracketleft.cap" unicode="&#xe497;" horiz-adv-x="365" 
d="M326 780h-163l-136 -390l136 -390h163l-136 390z" />
    <glyph glyph-name="anglebracketright.cap" unicode="&#xe498;" horiz-adv-x="365" 
d="M176 390l-137 -390h163l137 390l-137 390h-163z" />
    <glyph glyph-name="lowline" unicode="&#xe511;" horiz-adv-x="320" 
d="M42 0h236v137h-236v-137z" />
    <glyph glyph-name="underscoremonospace" unicode="&#xe512;" horiz-adv-x="600" 
d="M42 -185h516v138h-516v-138z" />
    <glyph glyph-name="at.cap" unicode="&#xe513;" horiz-adv-x="991" 
d="M563 474v-158l-12 -15l-18 -16l-24 -11l-30 -5l-38 8l-26 21l-15 35l-5 45v34l5 45l15 35l26 21l38 8l30 -5l24 -11l18 -16zM513 -10l-154 24l-120 70l-79 119l-28 167v40l28 166l78 119l119 71l151 24h6l125 -13l110 -46l78 -89l30 -144v-30l-8 -96l-27 -62l-49 -35
l-73 -13v231l9 137h-123l-11 -59l-24 29l-30 23l-38 15l-47 5l-81 -17l-58 -48l-35 -73l-11 -93v-34l11 -93l35 -73l58 -48l81 -17l47 5l38 15l30 23l24 29l11 -59h105l108 14l87 50l57 95l21 149v30l-37 181l-99 122l-144 70l-173 22l-193 -32l-154 -92l-101 -152l-36 -207
v-40l36 -207l102 -151l155 -93l196 -32l91 5l97 20l101 40l103 67l-59 80l-76 -47l-80 -34l-85 -21l-89 -7h-6z" />
    <glyph glyph-name="zero.inf" unicode="&#xe571;" 
d="M133 -94v178l1 6l3 5l5 3l6 1h4l6 -1l5 -3l3 -5l1 -6v-178l-1 -6l-3 -5l-5 -3l-6 -1h-4l-6 1l-5 3l-3 5zM287 -96v182l-9 47l-28 37l-43 24l-57 9l-57 -9l-43 -24l-28 -37l-9 -47v-182l9 -47l28 -37l43 -24l57 -9l57 9l43 24l28 37z" />
    <glyph glyph-name="one.inf" unicode="&#xe572;" 
d="M290 -200v103h-71v288h-90l-124 -84l59 -85l35 23v-142h-72v-103h263z" />
    <glyph glyph-name="two.inf" unicode="&#xe573;" 
d="M284 -97h-105l62 69l19 23l13 21l8 24l3 29v18l-6 36l-21 38l-41 30l-67 12l-68 -12l-41 -32l-21 -41l-6 -43v-15h120l1 17l2 12l5 7l6 3h3l6 -3l5 -6l2 -9l1 -9v-11l-1 -9l-2 -8l-5 -8l-5 -7l-138 -153v-76h271v103z" />
    <glyph glyph-name="three.inf" unicode="&#xe574;" 
d="M131 -75h-120v-8l10 -54l28 -41l43 -26l58 -9l57 8l44 24l27 36l10 47v10l-4 31l-12 24l-16 19l-20 13l18 13l16 18l10 24l4 30v10l-6 33l-21 35l-41 29l-67 12l-68 -12l-41 -32l-21 -44l-6 -46v-9h120l1 17l2 12l5 7l6 3h3l6 -3l5 -7l2 -8l1 -7v-2l-1 -11l-2 -7l-5 -5
l-7 -2h-49v-96h50l8 -2l6 -5l4 -8l1 -10v-5l-2 -13l-4 -10l-5 -5l-6 -2h-3l-6 2l-6 5l-4 11z" />
    <glyph glyph-name="four.inf" unicode="&#xe575;" 
d="M137 29v-57h-31zM257 -200v68h32v104h-32v218h-121l-126 -230v-92h127v-68h120z" />
    <glyph glyph-name="five.inf" unicode="&#xe576;" 
d="M11 -75v-8l10 -54l28 -41l43 -26l58 -9l57 8l44 25l27 41l10 56v12l-7 50l-23 40l-37 26l-53 9l-12 -1l-12 -1l-11 -2l-11 -3l2 39h157v104h-256l-9 -210l104 -35l6 5l6 3l6 2l6 1h1l10 -2l8 -5l4 -9l2 -14v-5l-2 -13l-4 -10l-5 -5l-7 -2h-4l-5 2l-6 5l-3 11l-2 16h-120z
" />
    <glyph glyph-name="six.inf" unicode="&#xe577;" 
d="M148 -57h4l6 -1l5 -4l4 -7l2 -10v-5l-2 -11l-4 -8l-5 -4l-6 -2h-4l-6 2l-5 6l-4 12l-2 19v2l4 5l4 3l4 2zM278 203l-66 -4l-57 -12l-48 -22l-39 -36l-27 -42l-18 -43l-9 -46l-3 -46v-9l8 -59l25 -50l43 -34l62 -13l63 10l43 28l25 42l8 51v5l-7 52l-21 39l-32 24l-42 8
l-12 -1l-12 -2l-11 -5l-10 -5l4 9l4 8l5 8l5 6l20 15l26 11l33 7l40 2v104z" />
    <glyph glyph-name="seven.inf" unicode="&#xe578;" 
d="M8 50h104v36h48l-124 -286h128l128 316v74h-284v-140z" />
    <glyph glyph-name="eight.inf" unicode="&#xe579;" 
d="M151 51h-2l-6 1l-4 5l-2 7l-1 10v4l1 10l2 8l4 4l6 1h2l6 -1l4 -4l2 -8l1 -10v-4l-1 -10l-2 -7l-4 -5zM148 -53h4l8 -2l5 -6l3 -8l1 -11v-4l-1 -11l-3 -9l-6 -5l-7 -2h-4l-7 2l-6 5l-3 9l-1 11v4l1 11l3 8l5 6zM150 -213l57 8l44 24l27 36l10 47v11l-4 30l-11 24l-15 19
l-19 14l17 13l15 18l9 24l4 29v10l-6 33l-20 35l-41 29l-67 12l-66 -12l-41 -29l-21 -35l-6 -33v-10l4 -29l10 -24l14 -18l17 -13l-19 -14l-15 -19l-11 -24l-4 -30v-11l10 -47l27 -36l44 -24z" />
    <glyph glyph-name="nine.inf" unicode="&#xe57a;" 
d="M148 47l-6 1l-5 4l-4 7l-2 10v5l2 11l4 8l5 4l6 2h4l6 -2l5 -6l4 -12l2 -19v-2l-4 -5l-4 -3l-4 -2l-5 -1h-4zM22 -213l66 4l57 12l48 22l39 36l27 42l18 43l9 46l3 46v9l-8 59l-25 50l-43 34l-62 13l-63 -10l-43 -28l-25 -42l-8 -51v-5l7 -52l21 -39l32 -24l42 -8l12 1
l12 2l11 5l10 5l-4 -9l-4 -8l-5 -8l-5 -6l-20 -15l-26 -11l-33 -7l-40 -2v-104z" />
    <glyph glyph-name="plus.inf" unicode="&#xe57b;" 
d="M98 127v-80h-80v-104h80v-80h104v80h80v104h-80v80h-104z" />
    <glyph glyph-name="minus.inf" unicode="&#xe57c;" 
d="M18 -57h264v104h-264v-104z" />
    <glyph glyph-name="equal.inf" unicode="&#xe57d;" 
d="M18 -118h264v104h-264v-104zM18 4h264v104h-264v-104z" />
    <glyph glyph-name="parenleft.inf" unicode="&#xe57e;" horiz-adv-x="205" 
d="M15 -10l5 -66l13 -53l19 -41l22 -30h123l-20 33l-21 43l-16 53l-6 61v10l6 61l16 53l21 43l20 33h-123l-22 -30l-19 -41l-13 -53l-5 -66v-10z" />
    <glyph glyph-name="parenright.inf" unicode="&#xe57f;" horiz-adv-x="205" 
d="M189 0l-5 66l-13 53l-19 41l-22 30h-122l20 -33l20 -43l16 -53l6 -61v-10l-6 -61l-16 -53l-20 -43l-20 -33h122l22 30l19 41l13 53l5 66v10z" />
    <glyph glyph-name="Anocross" unicode="&#xe731;" horiz-adv-x="641" 
d="M209 782l-195 -782h174l132 595l134 -595h173l-195 782h-223z" />
    <glyph glyph-name="blacksquare" unicode="&#xe740;" horiz-adv-x="920" 
d="M850 0v780h-780v-780h780z" />
    <glyph glyph-name="idotaccent" unicode="&#xe785;" horiz-adv-x="266" 
d="M216 772h-166v-167h166v167zM54 0h158v530h-158v-530z" />
    <glyph glyph-name="interrobangdown" unicode="&#xe935;" horiz-adv-x="497" 
d="M177 -5l3 28l9 25l13 23l15 22l-3 -160l-17 10l-12 15l-6 17zM164 363h166v167h-166v-167zM18 -21l11 -69l37 -62l69 -44l109 -17l109 17l71 49l39 80l12 110v17h-138l-2 -45l-7 -34l-12 -26l-17 -17l-8 364h-94l-33 -87l-61 -59l-59 -66z" />
    <glyph glyph-name="interrobangdown.cap" unicode="&#xe99b;" horiz-adv-x="497" 
d="M172 205l3 25l9 25l12 26l16 27l-4 -174l-17 12l-11 16l-6 20zM162 613h166v167h-166v-167zM21 188l11 -74l36 -64l69 -46l110 -17l109 17l72 50l39 81l12 111v18h-143l-2 -48l-8 -37l-13 -27l-19 -17l-8 417h-86l-34 -108l-61 -69l-58 -72z" />
    <glyph glyph-name="registered.cap" unicode="&#xe99c;" horiz-adv-x="920" 
d="M398 411v110h71l19 -2l18 -8l12 -16l5 -26v-6l-5 -26l-12 -16l-18 -8l-19 -2h-71zM398 307h70l48 -152h148l-69 172l28 19l22 28l14 37l5 49v12l-15 77l-38 46l-52 24l-59 6h-243v-470h141v152zM113 390l27 135l75 111l110 74l135 27l135 -27l111 -74l74 -111l27 -135
l-27 -135l-74 -110l-111 -75l-135 -27l-135 27l-110 75l-75 110zM57 390l32 -157l86 -128l128 -86l157 -32l157 32l128 86l86 128l32 157l-32 157l-86 128l-128 86l-157 32l-157 -32l-128 -86l-86 -128z" />
    <glyph glyph-name="period.T" unicode="&#xf182;" 
d="M233 167h-166v-167h166v167z" />
    <glyph glyph-name="comma.T" unicode="&#xf183;" 
d="M233 167h-166v-167h84l-11 -28l-19 -20l-26 -12l-33 -4v-79l74 11l54 34l32 56l11 77v132z" />
    <glyph glyph-name="colon.T" unicode="&#xf184;" 
d="M233 474h-166v-167h166v167zM233 167h-166v-167h166v167z" />
    <glyph glyph-name="semicolon.T" unicode="&#xf185;" 
d="M233 474h-166v-167h166v167zM233 167h-166v-167h84l-11 -28l-19 -20l-26 -12l-33 -4v-79l74 11l54 34l32 56l11 77v132z" />
    <glyph glyph-name="onesixteenth" unicode="&#xf215;" horiz-adv-x="1100" 
d="M948 143h4l6 -1l5 -4l4 -7l2 -10v-5l-2 -11l-4 -7l-5 -5l-6 -2h-4l-6 2l-5 6l-4 12l-2 19v2l4 5l4 3l4 2zM290 390v103h-71v288h-90l-124 -84l59 -85l35 23v-142h-72v-103h263zM790 0v103h-71v288h-90l-124 -84l59 -85l35 23v-142h-72v-103h263zM1078 403l-66 -4l-57 -12
l-48 -22l-39 -36l-27 -42l-18 -43l-9 -46l-3 -46v-9l8 -59l25 -50l43 -34l62 -13l63 10l43 28l25 42l8 51v5l-7 52l-21 39l-32 24l-42 8l-12 -1l-12 -2l-11 -5l-10 -5l4 9l4 8l5 8l5 6l20 15l26 11l33 7l40 2v104zM179 0l576 780h-134l-576 -780h134z" />
    <glyph glyph-name="threesixteenths" unicode="&#xf216;" horiz-adv-x="1100" 
d="M948 143h4l6 -1l5 -4l4 -7l2 -10v-5l-2 -11l-4 -7l-5 -5l-6 -2h-4l-6 2l-5 6l-4 12l-2 19v2l4 5l4 3l4 2zM790 0v103h-71v288h-90l-124 -84l59 -85l35 23v-142h-72v-103h263zM131 515h-120v-8l10 -54l28 -41l43 -26l58 -9l57 8l44 24l27 36l10 47v10l-4 30l-12 25l-16 18
l-20 14l18 13l16 18l10 24l4 30v10l-6 33l-21 35l-41 29l-67 12l-68 -12l-41 -32l-21 -44l-6 -46v-9h120l1 17l2 12l5 7l6 3h3l6 -3l5 -7l2 -8l1 -7v-2l-1 -11l-2 -7l-5 -5l-7 -2h-49v-96h50l8 -2l6 -5l4 -8l1 -10v-5l-2 -13l-4 -9l-5 -6l-6 -2h-3l-6 2l-6 5l-4 11z
M1078 403l-66 -4l-57 -12l-48 -22l-39 -36l-27 -42l-18 -43l-9 -46l-3 -46v-9l8 -59l25 -50l43 -34l62 -13l63 10l43 28l25 42l8 51v5l-7 52l-21 39l-32 24l-42 8l-12 -1l-12 -2l-11 -5l-10 -5l4 9l4 8l5 8l5 6l20 15l26 11l33 7l40 2v104zM179 0l576 780h-134l-576 -780
h134z" />
    <glyph glyph-name="fivesixteenths" unicode="&#xf217;" horiz-adv-x="1100" 
d="M948 143h4l6 -1l5 -4l4 -7l2 -10v-5l-2 -11l-4 -7l-5 -5l-6 -2h-4l-6 2l-5 6l-4 12l-2 19v2l4 5l4 3l4 2zM790 0v103h-71v288h-90l-124 -84l59 -85l35 23v-142h-72v-103h263zM1078 403l-66 -4l-57 -12l-48 -22l-39 -36l-27 -42l-18 -43l-9 -46l-3 -46v-9l8 -59l25 -50
l43 -34l62 -13l63 10l43 28l25 42l8 51v5l-7 52l-21 39l-32 24l-42 8l-12 -1l-12 -2l-11 -5l-10 -5l4 9l4 8l5 8l5 6l20 15l26 11l33 7l40 2v104zM11 515v-8l10 -54l28 -41l43 -26l58 -9l57 8l44 25l27 41l10 56v12l-7 50l-23 40l-37 26l-53 9l-12 -1l-12 -1l-11 -2l-11 -3
l2 39h157v104h-256l-9 -210l104 -35l6 5l6 3l6 2l6 1h1l10 -2l8 -5l4 -9l2 -14v-5l-2 -13l-4 -9l-5 -6l-7 -2h-4l-5 2l-6 5l-3 11l-2 16h-120zM179 0l576 780h-134l-576 -780h134z" />
    <glyph glyph-name="sevensixteenths" unicode="&#xf218;" horiz-adv-x="1100" 
d="M948 143h4l6 -1l5 -4l4 -7l2 -10v-5l-2 -11l-4 -7l-5 -5l-6 -2h-4l-6 2l-5 6l-4 12l-2 19v2l4 5l4 3l4 2zM8 640h104v36h48l-124 -286h128l128 316v74h-284v-140zM790 0v103h-71v288h-90l-124 -84l59 -85l35 23v-142h-72v-103h263zM1078 403l-66 -4l-57 -12l-48 -22
l-39 -36l-27 -42l-18 -43l-9 -46l-3 -46v-9l8 -59l25 -50l43 -34l62 -13l63 10l43 28l25 42l8 51v5l-7 52l-21 39l-32 24l-42 8l-12 -1l-12 -2l-11 -5l-10 -5l4 9l4 8l5 8l5 6l20 15l26 11l33 7l40 2v104zM179 0l576 780h-134l-576 -780h134z" />
    <glyph glyph-name="ninesixteenths" unicode="&#xf219;" horiz-adv-x="1100" 
d="M948 143h4l6 -1l5 -4l4 -7l2 -10v-5l-2 -11l-4 -7l-5 -5l-6 -2h-4l-6 2l-5 6l-4 12l-2 19v2l4 5l4 3l4 2zM790 0v103h-71v288h-90l-124 -84l59 -85l35 23v-142h-72v-103h263zM22 377l66 4l57 12l48 22l39 36l27 42l18 44l9 45l3 46v9l-8 59l-25 50l-43 34l-62 13l-63 -10
l-43 -28l-25 -42l-8 -51v-5l7 -52l21 -39l32 -24l42 -8l12 1l12 3l10 4l10 5l-3 -10l-4 -8l-5 -7l-5 -6l-20 -15l-26 -11l-33 -7l-40 -2v-104zM1078 403l-66 -4l-57 -12l-48 -22l-39 -36l-27 -42l-18 -43l-9 -46l-3 -46v-9l8 -59l25 -50l43 -34l62 -13l63 10l43 28l25 42
l8 51v5l-7 52l-21 39l-32 24l-42 8l-12 -1l-12 -2l-11 -5l-10 -5l4 9l4 8l5 8l5 6l20 15l26 11l33 7l40 2v104zM179 0l576 780h-134l-576 -780h134z" />
    <glyph glyph-name="elevensixteenths" unicode="&#xf220;" horiz-adv-x="1400" 
d="M1248 143h4l6 -1l5 -4l4 -7l2 -10v-5l-2 -11l-4 -7l-5 -5l-6 -2h-4l-6 2l-5 6l-4 12l-2 19v2l4 5l4 3l4 2zM1090 0v103h-71v288h-90l-124 -84l59 -85l35 23v-142h-72v-103h263zM590 390v103h-71v288h-90l-124 -84l59 -85l35 23v-142h-72v-103h263zM290 390v103h-71v288
h-90l-124 -84l59 -85l35 23v-142h-72v-103h263zM1378 403l-66 -4l-57 -12l-48 -22l-39 -36l-27 -42l-18 -43l-9 -46l-3 -46v-9l8 -59l25 -50l43 -34l62 -13l63 10l43 28l25 42l8 51v5l-7 52l-21 39l-32 24l-42 8l-12 -1l-12 -2l-11 -5l-10 -5l4 9l4 8l5 8l5 6l20 15l26 11
l33 7l40 2v104zM479 0l576 780h-134l-576 -780h134z" />
    <glyph glyph-name="thirteensixteenths" unicode="&#xf221;" horiz-adv-x="1400" 
d="M1248 143h4l6 -1l5 -4l4 -7l2 -10v-5l-2 -11l-4 -7l-5 -5l-6 -2h-4l-6 2l-5 6l-4 12l-2 19v2l4 5l4 3l4 2zM1090 0v103h-71v288h-90l-124 -84l59 -85l35 23v-142h-72v-103h263zM290 390v103h-71v288h-90l-124 -84l59 -85l35 23v-142h-72v-103h263zM431 515h-120v-8
l10 -54l28 -41l43 -26l58 -9l57 8l44 24l27 36l10 47v10l-4 30l-12 25l-16 18l-20 14l18 13l16 18l10 24l4 30v10l-6 33l-21 35l-41 29l-67 12l-68 -12l-41 -32l-21 -44l-6 -46v-9h120l1 17l2 12l5 7l6 3h3l6 -3l5 -7l2 -8l1 -7v-2l-1 -11l-2 -7l-5 -5l-7 -2h-49v-96h50
l8 -2l6 -5l4 -8l1 -10v-5l-2 -13l-4 -9l-5 -6l-6 -2h-3l-6 2l-6 5l-4 11zM1378 403l-66 -4l-57 -12l-48 -22l-39 -36l-27 -42l-18 -43l-9 -46l-3 -46v-9l8 -59l25 -50l43 -34l62 -13l63 10l43 28l25 42l8 51v5l-7 52l-21 39l-32 24l-42 8l-12 -1l-12 -2l-11 -5l-10 -5l4 9
l4 8l5 8l5 6l20 15l26 11l33 7l40 2v104zM479 0l576 780h-134l-576 -780h134z" />
    <glyph glyph-name="fifteensixteenths" unicode="&#xf222;" horiz-adv-x="1400" 
d="M1248 143h4l6 -1l5 -4l4 -7l2 -10v-5l-2 -11l-4 -7l-5 -5l-6 -2h-4l-6 2l-5 6l-4 12l-2 19v2l4 5l4 3l4 2zM1090 0v103h-71v288h-90l-124 -84l59 -85l35 23v-142h-72v-103h263zM290 390v103h-71v288h-90l-124 -84l59 -85l35 23v-142h-72v-103h263zM1378 403l-66 -4
l-57 -12l-48 -22l-39 -36l-27 -42l-18 -43l-9 -46l-3 -46v-9l8 -59l25 -50l43 -34l62 -13l63 10l43 28l25 42l8 51v5l-7 52l-21 39l-32 24l-42 8l-12 -1l-12 -2l-11 -5l-10 -5l4 9l4 8l5 8l5 6l20 15l26 11l33 7l40 2v104zM311 515v-8l10 -54l28 -41l43 -26l58 -9l57 8
l44 25l27 41l10 56v12l-7 50l-23 40l-37 26l-53 9l-12 -1l-12 -1l-11 -2l-11 -3l2 39h157v104h-256l-9 -210l104 -35l6 5l6 3l6 2l6 1h1l10 -2l8 -5l4 -9l2 -14v-5l-2 -13l-4 -9l-5 -6l-7 -2h-4l-5 2l-6 5l-3 11l-2 16h-120zM479 0l576 780h-134l-576 -780h134z" />
    <glyph glyph-name="commaaccent" unicode="&#xf6c3;" horiz-adv-x="602" 
d="M321 -44h-142v-92h79l-13 -17l-18 -11l-24 -6l-29 -2v-54l65 7l46 22l27 39l9 57v57z" />
    </font>
</defs>
</svg>
