<?xml version="1.0" standalone="no"?>
<!DOCTYPE svg PUBLIC "-//W3C//DTD SVG 1.1//EN" "http://www.w3.org/Graphics/SVG/1.1/DTD/svg11.dtd" >
<svg>
<metadata>
Created by FontForge 20120731 at Sun Aug 14 13:25:34 2016
 By www-data
Copyright (c) 2014, Cooper Hewitt Smithsonian Design Museum (cooperhewitt.org)
</metadata>
<defs>
<font id="CooperHewittInterpol3-BookItalic" horiz-adv-x="300" >
  <font-face 
    font-family="Cooper Hewitt Interpol 3"
    font-weight="706"
    font-style="italic"
    font-stretch="normal"
    units-per-em="1000"
    panose-1="0 0 0 0 0 0 0 0 0 0"
    ascent="750"
    descent="-250"
    x-height="530"
    cap-height="780"
    bbox="-271 -214 1362 962"
    underline-thickness="50"
    underline-position="-75"
    unicode-range="U+0020-F6C3"
  />
<missing-glyph horiz-adv-x="968" 
d="M529 390l275 275v-550zM439 390l-275 -275v550zM205 714h558l-279 -279zM484 345l279 -279h-558zM94 0h780v780h-780v-780z" />
    <glyph glyph-name=".notdef" horiz-adv-x="968" 
d="M529 390l275 275v-550zM439 390l-275 -275v550zM205 714h558l-279 -279zM484 345l279 -279h-558zM94 0h780v780h-780v-780z" />
    <glyph glyph-name="space" unicode=" " horiz-adv-x="200" 
 />
    <glyph glyph-name="exclam" unicode="!" horiz-adv-x="217" 
d="M116 90h-90l-12 -90h90zM119 780l-58 -591h47l96 591h-85z" />
    <glyph glyph-name="quotedbl" unicode="&#x22;" horiz-adv-x="338" 
d="M243 780l-21 -269h50l50 269h-79zM122 780l-21 -269h50l50 269h-79z" />
    <glyph glyph-name="numbersign" unicode="#" horiz-adv-x="600" 
d="M264 479h138l-63 -178h-138zM232 0h68l83 235h107l9 66h-92l63 178h110l8 66h-95l84 235h-68l-84 -235h-138l84 235h-68l-84 -235h-106l-9 -66h92l-63 -178h-110l-8 -66h94l-83 -235h68l83 235h138z" />
    <glyph glyph-name="dollar" unicode="$" horiz-adv-x="598" 
d="M166 553l18 47l38 36l52 21l62 8h4h8l8 -1h7l6 -1l-86 -232l-59 16l-38 24l-19 33l-2 41zM271 115h-11l-11 1l-10 1l-10 2l90 243l58 -16l42 -23l24 -34l4 -47l-1 -8l-18 -51l-36 -37l-51 -23l-64 -8h-6zM496 840h-62l-43 -116l-11 1l-11 1l-11 1h-12l-94 -11l-77 -32
l-54 -55l-26 -76l-1 -8l2 -61l26 -50l54 -38l85 -24l-87 -236l-33 23l-18 30l-7 37l3 48h-69l-2 -13v-59l17 -53l35 -44l51 -32l-49 -133h61l43 117l14 -2l15 -1l18 -1h21l93 12l74 35l52 56l25 77l1 8l-4 68l-32 53l-58 37l-84 23l85 228l28 -23l18 -33l7 -43l-3 -55h70
l2 13l2 67l-16 58l-34 46l-52 31z" />
    <glyph glyph-name="percent" unicode="%" horiz-adv-x="919" 
d="M249 791l-70 -12l-54 -35l-38 -54l-18 -69l-1 -9l5 -74l31 -54l52 -34l70 -12l70 12l54 35l38 54l18 69l1 9l2 25l-2 22l-4 19l-7 16l20 -4l22 -3l25 -3l27 -1l40 2l35 5l24 5l12 3l-385 -703h68l400 732l7 49l-32 -10l-48 -10l-57 -9l-57 -3l-44 1l-44 5l-43 8l-41 14
l-15 6l-17 4l-20 3zM129 619l12 48l23 35l35 22l46 8h8l45 -8l31 -23l16 -36l2 -46l-1 -9l-12 -48l-23 -35l-35 -22l-46 -8h-8l-45 8l-31 23l-16 36l-2 46zM519 163l5 -74l31 -54l52 -34l70 -12l70 12l54 35l38 54l18 69l1 9l-5 74l-30 54l-53 34l-70 12l-70 -12l-54 -35
l-38 -54l-18 -69zM580 170l12 48l23 35l35 22l46 8h8l45 -8l31 -23l16 -36l2 -46l-1 -9l-12 -48l-23 -35l-35 -22l-46 -8h-8l-45 8l-31 23l-16 36l-2 46z" />
    <glyph glyph-name="ampersand" unicode="&#x26;" horiz-adv-x="661" 
d="M174 631l10 37l22 31l36 20l50 8h8l47 -7l33 -21l18 -31l3 -38l-2 -15l-18 -46l-37 -39l-50 -34l-56 -34l-29 39l-23 38l-13 38l-1 39zM227 54l-67 10l-45 30l-22 46l-1 61l2 15l15 52l28 42l37 33l43 29l191 -243l-41 -35l-43 -23l-45 -13l-44 -4h-8zM231 -11l60 5
l56 15l53 26l49 40l61 -75h91l-102 129l36 53l29 62l22 70l15 81h-74l-1 -9l-11 -63l-16 -52l-20 -45l-23 -40l-178 224l67 41l60 44l44 53l23 65l2 15l-5 64l-32 52l-58 34l-83 13l-81 -12l-58 -33l-38 -50l-18 -63l-2 -15l1 -48l14 -48l27 -48l36 -50l-56 -37l-46 -44
l-35 -55l-19 -70l-2 -15l6 -90l40 -68l71 -42z" />
    <glyph glyph-name="quotesingle" unicode="'" horiz-adv-x="217" 
d="M122 780l-21 -269h50l50 269h-79z" />
    <glyph glyph-name="parenleft" unicode="(" horiz-adv-x="317" 
d="M47 348l-4 -141l20 -123l37 -108l45 -96h75l-48 101l-37 111l-20 121l4 135l3 24l31 149l50 124l65 105l78 90h-75l-74 -85l-65 -102l-50 -125l-32 -156z" />
    <glyph glyph-name="parenright" unicode=")" horiz-adv-x="315" 
d="M266 372l4 141l-20 123l-37 108l-45 96h-75l48 -101l37 -110l20 -122l-4 -135l-3 -24l-31 -149l-49 -124l-66 -105l-78 -90h75l74 85l65 102l50 125l32 156z" />
    <glyph glyph-name="asterisk" unicode="*" horiz-adv-x="389" 
d="M338 482l-75 114l-37 -24l66 -121zM404 698l-144 -50l8 -40l146 40zM117 451l97 121l-31 24l-104 -114zM46 648l136 -40l18 40l-131 50zM224 800l-14 -146h42l25 146h-53z" />
    <glyph glyph-name="plus" unicode="+" horiz-adv-x="600" 
d="M301 642l-29 -219h-219l-9 -66h219l-29 -219h67l29 219h219l9 66h-219l29 219h-67z" />
    <glyph glyph-name="comma" unicode="," horiz-adv-x="217" 
d="M116 90h-90l-12 -90h45l-11 -36l-17 -23l-22 -13l-27 -4l-6 -43l50 8l38 26l27 42l15 58z" />
    <glyph glyph-name="hyphen" unicode="-" horiz-adv-x="329" 
d="M280 318l9 64h-248l-9 -64h248z" />
    <glyph glyph-name="period" unicode="." horiz-adv-x="217" 
d="M116 90h-90l-12 -90h90z" />
    <glyph glyph-name="slash" unicode="/" horiz-adv-x="330" 
d="M377 840h-71l-356 -960h71z" />
    <glyph glyph-name="zero" unicode="0" horiz-adv-x="596" 
d="M260 53l-76 11l-48 33l-23 55l1 79l41 312l18 79l34 58l54 35l77 12h6l76 -11l48 -33l23 -55l-1 -79l-41 -312l-18 -79l-34 -58l-54 -35l-77 -12h-6zM343 791l-107 -15l-76 -45l-49 -73l-25 -100l-44 -336l3 -98l36 -73l72 -46l108 -16l107 15l76 45l49 73l25 100l44 336
l-3 98l-36 73l-72 46z" />
    <glyph glyph-name="one" unicode="1" horiz-adv-x="600" 
d="M500 0l9 66h-204l94 718h-45l-267 -166l29 -55l199 124l-81 -621h-204l-8 -66h478z" />
    <glyph glyph-name="two" unicode="2" horiz-adv-x="598" 
d="M201 66l-76 -1l330 304l49 49l33 44l21 47l12 60l1 8l-7 85l-43 68l-74 45l-105 16l-109 -17l-78 -49l-51 -79l-26 -104l-3 -22h71l22 93l38 65l55 37l75 12h7l69 -11l51 -31l30 -50l5 -65l-1 -8l-10 -43l-20 -38l-30 -37l-41 -41l-383 -354l-6 -49h488l9 66h-303z" />
    <glyph glyph-name="three" unicode="3" horiz-adv-x="598" 
d="M105 250h-71l-2 -14l3 -100l39 -78l77 -51l115 -18l97 16l80 44l56 67l27 86l1 8l-1 68l-20 54l-37 41l-51 24l55 23l46 37l33 50l18 64l1 8l-7 85l-42 67l-75 44l-105 16l-109 -17l-78 -49l-50 -79l-27 -104l-3 -22h71l22 93l37 65l56 37l75 12h7l68 -10l52 -30l30 -47
l5 -63l-1 -8l-20 -63l-39 -44l-55 -24l-67 -8h-109l-9 -64h114l65 -10l47 -28l27 -48l3 -66l-1 -8l-22 -67l-42 -48l-56 -29l-65 -9h-6l-76 12l-54 36l-28 61z" />
    <glyph glyph-name="four" unicode="4" horiz-adv-x="600" 
d="M405 661l-14 -102l-38 -286h-162l-86 -1zM389 0l27 207h128l10 66h-130l67 507h-69l-405 -525l-6 -48h334l-27 -207h71z" />
    <glyph glyph-name="five" unicode="5" horiz-adv-x="600" 
d="M34 250l-2 -14l3 -100l39 -78l77 -51l115 -18l98 16l80 47l57 76l30 106l1 8l-6 107l-44 79l-74 49l-97 17l-56 -5l-50 -13l-41 -21l-31 -27l50 286h401l8 66h-463l-76 -433l58 -19l35 46l44 32l50 18l55 6h9l68 -12l52 -35l32 -58l4 -83l-1 -8l-23 -81l-43 -57l-58 -32
l-67 -11h-6l-76 12l-54 36l-28 61l1 88h-71z" />
    <glyph glyph-name="six" unicode="6" horiz-adv-x="600" 
d="M312 425l69 -12l50 -36l29 -58l3 -78l-1 -8l-21 -76l-39 -56l-57 -34l-72 -12h-6l-68 12l-53 38l-31 65l-3 96l3 22l3 17l2 10l1 4l35 43l43 34l51 21l57 8h5zM572 791l-95 -11l-94 -24l-92 -45l-89 -71l-65 -81l-46 -89l-30 -92l-18 -89l-2 -14l3 -120l43 -90l77 -56
l105 -20l99 15l80 47l57 76l30 108l1 8l-5 108l-41 77l-73 46l-97 16l-52 -6l-50 -18l-45 -26l-34 -32l17 48l25 49l33 48l40 44l76 58l77 37l78 22l78 11z" />
    <glyph glyph-name="seven" unicode="7" horiz-adv-x="600" 
d="M74 500h65l29 214h232l112 2l-388 -716h78l396 736l5 44h-492z" />
    <glyph glyph-name="eight" unicode="8" horiz-adv-x="598" 
d="M343 727l68 -10l51 -30l31 -47l5 -63l-1 -8l-20 -63l-39 -44l-55 -24l-67 -8h-20l-61 9l-48 28l-28 44l-5 62l1 8l19 63l38 46l54 28l70 9h7zM311 366l64 -10l48 -28l28 -48l3 -66l-1 -8l-20 -67l-39 -48l-55 -29l-71 -9h-6l-67 9l-53 29l-33 48l-6 68l1 8l20 66l40 47
l56 28l69 10h22zM262 -11l100 16l80 44l57 67l27 86l1 8l-1 67l-20 55l-37 40l-51 25l55 23l46 37l33 50l18 64l1 8l-7 85l-43 67l-75 44l-106 16l-105 -15l-77 -42l-51 -65l-24 -84l-1 -8l3 -64l22 -53l36 -39l45 -22l-54 -23l-47 -37l-36 -53l-20 -74l-1 -8l8 -88l45 -67
l77 -44z" />
    <glyph glyph-name="nine" unicode="9" horiz-adv-x="596" 
d="M292 355l-69 12l-50 37l-29 57l-3 78l1 8l21 76l39 56l57 34l72 12h6l68 -12l53 -38l31 -65l3 -96l-3 -22l-3 -16l-2 -11l-1 -4l-35 -43l-43 -34l-51 -21l-57 -8h-5zM32 -11l95 11l94 24l92 45l89 71l65 81l46 89l30 92l18 89l2 14l-3 120l-43 90l-77 56l-105 20l-99 -15
l-80 -46l-57 -77l-30 -108l-1 -8l5 -108l42 -77l72 -46l97 -16l52 6l50 18l45 26l34 32l-17 -48l-25 -49l-33 -48l-40 -44l-76 -58l-77 -37l-78 -22l-78 -11z" />
    <glyph glyph-name="colon" unicode=":" horiz-adv-x="217" 
d="M161 435h-90l-12 -90h90zM116 90h-90l-12 -90h90z" />
    <glyph glyph-name="semicolon" unicode=";" horiz-adv-x="217" 
d="M161 435h-90l-12 -90h90zM116 90h-90l-12 -90h45l-11 -36l-17 -23l-22 -13l-27 -4l-6 -43l50 8l38 26l27 42l15 58z" />
    <glyph glyph-name="less" unicode="&#x3c;" horiz-adv-x="600" 
d="M53 425l-9 -70l474 -235l9 68l-405 199l457 198l10 75z" />
    <glyph glyph-name="equal" unicode="=" horiz-adv-x="600" 
d="M29 255h505l9 66h-505zM59 459h505l9 66h-505z" />
    <glyph glyph-name="greater" unicode="&#x3e;" horiz-adv-x="600" 
d="M548 355l9 70l-474 235l-9 -68l405 -199l-457 -198l-10 -75z" />
    <glyph glyph-name="question" unicode="?" horiz-adv-x="455" 
d="M234 90h-90l-12 -90h90zM273 726l51 -7l34 -22l19 -35l6 -49l-29 -113l-67 -87l-69 -93l-39 -131h47l51 125l78 85l71 87l31 132l-10 72l-32 55l-57 34l-83 12l-98 -19l-66 -54l-42 -86l-24 -114l-2 -14h71l17 92l30 70l45 44z" />
    <glyph glyph-name="at" unicode="@" horiz-adv-x="956" 
d="M601 401l-28 -212l-24 -27l-34 -26l-43 -19l-51 -8l-58 13l-37 38l-17 56l2 71l3 22l17 69l33 54l47 36l62 13l48 -8l37 -19l26 -26zM435 -156l-163 28l-120 81l-69 134l-7 183l5 40l52 180l100 134l139 83l168 29h10l134 -18l110 -59l67 -106l11 -159l-5 -40l-31 -124
l-51 -72l-70 -34l-86 -10l35 266l25 150h-54l-18 -73l-20 32l-31 27l-40 18l-51 7l-94 -19l-68 -52l-45 -75l-23 -88l-3 -22l-1 -88l25 -76l56 -52l90 -20l51 7l44 18l36 26l29 32l1 -72h46l109 12l90 45l67 89l39 148l5 40l-13 178l-78 123l-129 73l-164 23l-192 -33
l-157 -94l-113 -151l-59 -203l-5 -40l9 -203l79 -151l140 -94l193 -33l92 6l98 21l95 36l85 55l-31 43l-71 -44l-82 -33l-90 -21l-91 -8h-10z" />
    <glyph glyph-name="A" unicode="A" horiz-adv-x="611" 
d="M351 709l66 -444h-249zM309 788l-329 -788h79l82 200h286l30 -200h76l-122 788h-102z" />
    <glyph glyph-name="B" unicode="B" horiz-adv-x="583" 
d="M326 715l60 -7l45 -23l27 -41l4 -62l-2 -16l-19 -62l-38 -41l-52 -23l-63 -7h-134l37 282h135zM300 368l58 -9l46 -27l27 -46l4 -66l-2 -16l-20 -65l-39 -43l-55 -24l-67 -7h-147l40 303h155zM127 780l-102 -780h219l98 11l79 35l57 62l29 94l2 16l-2 69l-23 55l-39 39
l-50 20l50 20l42 35l31 48l16 60l2 16l-6 92l-41 62l-69 35l-89 11h-204z" />
    <glyph glyph-name="C" unicode="C" horiz-adv-x="613" 
d="M135 410l30 143l48 98l67 57l87 18h7l74 -13l46 -42l20 -71l-4 -104h74l4 29v116l-36 83l-72 50l-107 17l-119 -22l-91 -67l-64 -119l-38 -173l-5 -40l-5 -173l37 -119l76 -67l115 -22l109 16l80 48l53 79l29 108l2 14h-74l-21 -86l-37 -62l-57 -39l-77 -13h-7l-82 18
l-52 57l-22 98l7 143z" />
    <glyph glyph-name="D" unicode="D" horiz-adv-x="632" 
d="M105 65l86 650h126l96 -16l67 -53l34 -95l-2 -141l-5 -40l-33 -138l-59 -95l-81 -54l-103 -18h-126zM586 410v172l-47 114l-89 64l-126 20h-197l-102 -780h204l131 21l104 65l75 115l42 169z" />
    <glyph glyph-name="E" unicode="E" horiz-adv-x="549" 
d="M127 780l-102 -780h435l8 65h-363l39 301h313l9 64h-313l37 285h364l8 65h-435z" />
    <glyph glyph-name="F" unicode="F" horiz-adv-x="513" 
d="M127 780l-102 -780h72l47 366h296l9 64h-296l37 285h348l8 65h-419z" />
    <glyph glyph-name="G" unicode="G" horiz-adv-x="643" 
d="M293 -11l84 8l68 21l53 28l41 33l40 305h-206l-8 -64h134l-27 -206l-29 -22l-38 -19l-48 -14l-55 -5h-7l-85 18l-57 57l-27 98l4 143l5 40l31 143l49 98l69 57l88 18h7l74 -13l48 -42l22 -71l-3 -104h74l4 29l-1 116l-38 83l-73 50l-108 17l-120 -22l-93 -67l-65 -119
l-39 -173l-5 -40l-2 -173l41 -119l81 -67z" />
    <glyph glyph-name="H" unicode="H" horiz-adv-x="639" 
d="M546 780l-46 -350h-347l46 350h-72l-102 -780h72l48 366h347l-48 -366h72l102 780h-72z" />
    <glyph glyph-name="I" unicode="I" horiz-adv-x="230" 
d="M204 780h-72l-102 -780h72z" />
    <glyph glyph-name="J" unicode="J" horiz-adv-x="495" 
d="M407 780l-69 -528l-19 -91l-30 -61l-44 -35l-60 -11l-58 11l-37 35l-15 62l6 92h-68l-2 -14l-4 -104l25 -79l59 -50l96 -18l90 16l65 49l42 78l24 108l71 540h-72z" />
    <glyph glyph-name="K" unicode="K" horiz-adv-x="562" 
d="M199 780h-72l-102 -780h72l31 240l124 147l147 -387h80l-174 451l276 329h-89l-349 -423z" />
    <glyph glyph-name="L" unicode="L" horiz-adv-x="491" 
d="M427 0l8 65h-330l94 715h-72l-102 -780h402z" />
    <glyph glyph-name="M" unicode="M" horiz-adv-x="803" 
d="M698 655l-27 -174l-62 -481h72l102 780h-103l-314 -656l-140 656h-99l-102 -780h72l62 481l20 174l141 -655h65z" />
    <glyph glyph-name="N" unicode="N" horiz-adv-x="659" 
d="M638 780h-70l-62 -475l-21 -183l-282 658h-76l-102 -780h70l62 475l21 183l282 -658h76z" />
    <glyph glyph-name="O" unicode="O" horiz-adv-x="645" 
d="M278 54l-82 18l-52 57l-21 98l7 143l5 40l30 143l47 98l67 57l88 18h7l82 -18l52 -57l21 -98l-7 -143l-5 -40l-30 -143l-47 -98l-67 -57l-88 -18h-7zM372 791l-119 -22l-90 -67l-64 -119l-38 -173l-5 -40l-4 -173l37 -119l76 -67l115 -22l119 22l91 67l63 119l38 173
l5 40l4 173l-36 119l-77 67z" />
    <glyph glyph-name="P" unicode="P" horiz-adv-x="569" 
d="M147 382l43 333h145l53 -6l51 -25l35 -49l5 -82l-2 -15l-26 -81l-46 -47l-55 -22l-54 -6h-149zM138 317h147l84 9l80 33l64 66l37 109l3 20l-6 111l-48 70l-74 35l-84 10h-214l-102 -780h72z" />
    <glyph glyph-name="Q" unicode="Q" horiz-adv-x="645" 
d="M278 54l-82 18l-52 57l-21 98l7 143l5 40l30 143l47 98l67 57l88 18h7l82 -18l52 -57l21 -98l-7 -143l-5 -40l-21 -112l-30 -86l-42 -62l-52 -38l-39 154h-62l41 -171l-7 -1h-6h-7h-7h-7zM372 791l-119 -22l-90 -67l-64 -119l-38 -173l-5 -40l-4 -173l37 -119l76 -67
l115 -22h12l12 1l12 1l12 1l22 -92h66l-28 106l75 45l58 74l43 105l27 140l5 40l4 173l-36 119l-77 67z" />
    <glyph glyph-name="R" unicode="R" horiz-adv-x="580" 
d="M147 382l43 333h145l53 -6l51 -25l35 -49l5 -82l-2 -15l-26 -81l-46 -47l-55 -22l-54 -6h-149zM138 317h147h8h9h8l8 1l83 -318h79l-92 331l55 24l47 40l37 59l23 80l3 20l-6 111l-48 70l-74 35l-84 10h-214l-102 -780h72z" />
    <glyph glyph-name="S" unicode="S" horiz-adv-x="596" 
d="M286 371l85 -23l56 -34l29 -48l4 -61l-2 -15l-21 -61l-41 -42l-59 -25l-73 -8h-10l-72 11l-53 35l-29 62l2 92h-72l-2 -14l3 -107l41 -78l76 -49l108 -17l105 12l83 37l57 62l30 88l3 20l-2 80l-35 64l-68 47l-105 31l-87 24l-54 34l-26 44l-2 56l2 15l19 54l38 39l53 22
l66 8h10l75 -12l51 -37l25 -66l-2 -95h72l2 14v111l-35 82l-75 51l-114 17l-97 -11l-77 -33l-55 -58l-29 -84l-3 -20l2 -72l31 -62l66 -48z" />
    <glyph glyph-name="T" unicode="T" horiz-adv-x="515" 
d="M338 715h199l8 65h-469l-8 -65h198l-94 -715h72z" />
    <glyph glyph-name="U" unicode="U" horiz-adv-x="639" 
d="M272 -11l110 14l83 43l56 78l31 118l71 538h-72l-70 -533l-23 -91l-43 -60l-61 -32l-80 -10l-77 10l-50 32l-24 59l1 92l70 533h-72l-71 -538l1 -118l38 -79l74 -43z" />
    <glyph glyph-name="V" unicode="V" horiz-adv-x="611" 
d="M306 -8l329 788h-79l-292 -709l-106 709h-76l121 -788h103z" />
    <glyph glyph-name="W" unicode="W" horiz-adv-x="895" 
d="M560 -8h99l248 788h-78l-213 -699l-69 699h-97l-252 -699l-30 699h-74l43 -788h98l256 714z" />
    <glyph glyph-name="X" unicode="X" horiz-adv-x="613" 
d="M-18 0h86l235 328l149 -328h82l-180 389l281 391h-86l-234 -328l-150 328h-82l180 -388z" />
    <glyph glyph-name="Y" unicode="Y" horiz-adv-x="577" 
d="M307 236l303 544h-81l-248 -456l-132 456h-75l161 -544l-31 -236h72z" />
    <glyph glyph-name="Z" unicode="Z" horiz-adv-x="563" 
d="M-4 50l-6 -50h483l8 65h-271l-126 -3l475 668l6 50h-463l-8 -65h251l126 3z" />
    <glyph glyph-name="bracketleft" unicode="[" horiz-adv-x="317" 
d="M128 840l-126 -960h208l8 65h-137l109 830h138l8 65h-208z" />
    <glyph glyph-name="backslash" unicode="\" horiz-adv-x="329" 
d="M181 -120h68l-104 960h-68z" />
    <glyph glyph-name="bracketright" unicode="]" horiz-adv-x="317" 
d="M185 -120l126 960h-208l-8 -65h137l-109 -830h-138l-8 -65h208z" />
    <glyph glyph-name="asciicircum" unicode="^" horiz-adv-x="600" 
d="M388 780h-70l-302 -504h75l254 425l143 -425h69z" />
    <glyph glyph-name="underscore" unicode="_" horiz-adv-x="320" 
d="M-19 -135h224l9 64h-224z" />
    <glyph glyph-name="grave" unicode="`" horiz-adv-x="500" 
d="M173 780l72 -166h72l-68 166h-76z" />
    <glyph glyph-name="a" unicode="a" horiz-adv-x="509" 
d="M174 50l-44 8l-29 20l-15 29l-1 34l2 14l12 37l25 28l37 19l48 12l156 25l-18 -140l-22 -26l-36 -28l-49 -23zM347 0h58l13 150l26 194l1 81l-26 62l-57 40l-94 14l-93 -16l-60 -40l-35 -56l-16 -61l-2 -13h67l11 48l23 41l41 28l62 10l59 -8l36 -25l16 -40l-2 -56
l-3 -22l-164 -26l-71 -15l-58 -26l-42 -44l-22 -69l-2 -16l4 -59l27 -46l47 -30l67 -11l62 7l52 19l42 27l33 32v-74z" />
    <glyph glyph-name="b" unicode="b" horiz-adv-x="533" 
d="M105 138l35 263l25 29l32 25l38 17l47 6l64 -14l42 -41l20 -64l-2 -86l-3 -22l-20 -83l-35 -63l-50 -39l-67 -14l-47 8l-36 21l-26 28zM192 800h-70l-85 -650l-25 -150h58l19 77l20 -30l32 -29l44 -21l55 -8l94 20l69 54l46 84l25 106l3 22l1 105l-28 85l-59 56l-92 20
l-47 -5l-41 -14l-35 -21l-27 -27z" />
    <glyph glyph-name="c" unicode="c" horiz-adv-x="519" 
d="M108 279l20 83l36 63l50 39l66 14l62 -11l40 -30l19 -45v-56h67l2 13l-2 66l-28 62l-61 46l-99 18l-98 -20l-72 -55l-47 -83l-26 -106l-3 -22l1 -104l33 -85l66 -56l100 -21l93 16l63 41l38 58l18 67l2 13h-68l-14 -51l-26 -42l-43 -28l-63 -11l-66 14l-44 41l-21 65
l2 85z" />
    <glyph glyph-name="d" unicode="d" horiz-adv-x="540" 
d="M280 478l47 -8l36 -21l26 -28l17 -30l-34 -263l-26 -29l-32 -24l-38 -17l-47 -6l-64 14l-41 41l-21 64l2 86l3 22l20 83l35 63l50 39zM212 -11l48 6l44 15l38 25l29 32v-67h60l13 144l86 656h-70l-44 -335l-18 24l-30 25l-42 19l-55 8l-94 -20l-69 -54l-46 -84l-25 -106
l-3 -22l-1 -105l28 -85l59 -56z" />
    <glyph glyph-name="e" unicode="e" horiz-adv-x="540" 
d="M289 478l65 -12l42 -36l20 -58l-2 -78h-304l21 74l38 59l53 37zM477 236l5 39l1 107l-30 84l-63 55l-101 20l-100 -20l-74 -55l-51 -84l-27 -105l-3 -22l-1 -104l32 -84l68 -57l110 -21l92 15l68 40l43 54l20 59l2 13h-67l-13 -42l-28 -38l-47 -28l-68 -10l-72 13l-47 36
l-22 58l-1 77h374z" />
    <glyph glyph-name="f" unicode="f" horiz-adv-x="380" 
d="M221 650l13 48l23 30l33 16l42 4l18 -1l17 -2l15 -3l10 -3l8 60l-9 4l-16 4l-21 3l-26 1l-65 -8l-53 -26l-37 -45l-20 -68l-18 -134h-84l-8 -63h84l-61 -467h70l61 467h148l8 63h-148z" />
    <glyph glyph-name="g" unicode="g" horiz-adv-x="537" 
d="M375 167l-26 -29l-32 -25l-38 -17l-47 -6l-65 13l-42 37l-20 59l1 78l3 22l19 76l35 57l50 34l66 12l47 -8l36 -21l26 -28l17 -29zM353 -3l-15 -63l-28 -45l-46 -28l-69 -9l-62 9l-40 27l-20 47l2 65h-65l-2 -13v-77l29 -63l61 -42l97 -16l96 15l67 42l43 64l21 82
l51 388l25 150h-58l-19 -77l-20 30l-32 29l-45 21l-55 8l-94 -18l-68 -50l-45 -78l-24 -98l-3 -22l-1 -96l28 -79l59 -53l93 -20l48 5l41 14l35 22l27 26z" />
    <glyph glyph-name="h" unicode="h" horiz-adv-x="525" 
d="M191 800h-70l-105 -800h70l52 395l23 27l33 27l43 21l53 8l49 -7l35 -21l19 -37l1 -52l-48 -361h70l49 371l-2 69l-25 54l-50 35l-74 12l-53 -6l-46 -16l-39 -24l-29 -30z" />
    <glyph glyph-name="i" unicode="i" horiz-adv-x="216" 
d="M202 745h-90l-12 -90h90zM24 0h70l69 530h-70z" />
    <glyph glyph-name="j" unicode="j" horiz-adv-x="216" 
d="M202 745h-90l-12 -90h90zM18 -49l-13 -48l-23 -30l-32 -16l-42 -5l-18 1l-17 2l-15 4l-10 3l-8 -61l9 -4l16 -4l21 -3l26 -1l65 8l52 26l37 46l20 68l77 593h-70z" />
    <glyph glyph-name="k" unicode="k" horiz-adv-x="501" 
d="M16 0h70l20 158l126 122l117 -280h76l-140 330l209 200h-89l-286 -276l72 546h-70z" />
    <glyph glyph-name="l" unicode="l" horiz-adv-x="216" 
d="M24 0h70l105 800h-70z" />
    <glyph glyph-name="m" unicode="m" horiz-adv-x="803" 
d="M696 0l50 384l-3 68l-26 49l-46 30l-64 10l-52 -7l-46 -19l-39 -28l-32 -34l-16 36l-27 28l-40 18l-53 6l-51 -7l-45 -17l-37 -27l-29 -31v71h-60l-13 -144l-51 -386h70l52 398l23 27l32 26l39 19l46 8l43 -5l31 -18l17 -32l1 -49l-49 -374h70l52 398l23 27l32 26l39 19
l46 8l43 -5l31 -18l17 -32l1 -49l-49 -374h70z" />
    <glyph glyph-name="n" unicode="n" horiz-adv-x="525" 
d="M416 0l49 371l-2 69l-25 54l-50 35l-74 12l-54 -6l-48 -17l-40 -27l-32 -35v74h-60l-13 -144l-51 -386h70l52 395l23 27l33 27l43 21l53 8l49 -7l35 -21l19 -37l1 -52l-48 -361h70z" />
    <glyph glyph-name="o" unicode="o" horiz-adv-x="540" 
d="M232 -11l99 20l73 55l49 83l26 106l3 22v104l-32 85l-66 56l-101 21l-99 -20l-72 -55l-49 -83l-26 -106l-3 -22v-104l32 -85l65 -56zM232 52l-67 14l-42 41l-20 65l2 85l3 22l21 83l36 63l51 39l67 14l67 -14l43 -41l20 -65l-2 -85l-3 -22l-21 -83l-36 -63l-52 -39z" />
    <glyph glyph-name="p" unicode="p" horiz-adv-x="533" 
d="M231 52l-47 8l-36 21l-26 28l-17 30l34 263l26 29l32 24l38 17l47 6l64 -14l42 -41l20 -64l-2 -86l-3 -22l-20 -83l-35 -63l-50 -39zM299 541l-48 -6l-44 -15l-38 -25l-29 -32v67h-60l-13 -144l-77 -586h70l35 265l18 -24l30 -24l42 -20l55 -8l94 20l69 54l46 84l25 106
l3 22l1 105l-28 85l-59 56z" />
    <glyph glyph-name="q" unicode="q" horiz-adv-x="539" 
d="M370 129l-25 -29l-32 -25l-38 -17l-47 -6l-64 14l-42 41l-20 64l2 86l3 22l20 83l35 63l50 39l67 14l47 -8l36 -21l26 -28l17 -29zM327 -200h70l76 580l25 150h-58l-19 -77l-20 30l-32 29l-44 21l-55 8l-94 -20l-69 -54l-46 -84l-25 -106l-3 -22l-1 -105l28 -85l59 -56
l92 -20l47 5l41 14l35 22l27 26z" />
    <glyph glyph-name="r" unicode="r" horiz-adv-x="333" 
d="M297 541l-50 -6l-43 -17l-36 -26l-28 -31v69h-60l-13 -144l-51 -386h70l51 387l23 28l32 28l43 20l54 8h14l8 69h-1l-3 1h-5h-5z" />
    <glyph glyph-name="s" unicode="s" horiz-adv-x="519" 
d="M222 52l-65 8l-39 22l-18 35l-1 45h-69l-2 -13l3 -61l30 -51l62 -35l99 -13l85 11l64 30l42 46l19 59l1 8l-4 62l-30 46l-55 31l-78 17l-62 11l-40 15l-22 23l-7 30l9 46l27 31l43 17l56 6l62 -8l38 -23l18 -37v-51h68l2 13l-2 68l-30 53l-61 35l-95 13l-81 -10l-62 -27
l-41 -44l-20 -59l-1 -8l3 -55l28 -44l54 -31l84 -20l58 -11l40 -16l24 -24l7 -34l-9 -47l-26 -33l-44 -20z" />
    <glyph glyph-name="t" unicode="t" horiz-adv-x="400" 
d="M205 530l20 150h-70l-20 -150h-84l-8 -63h84l-42 -319l2 -73l26 -49l48 -28l64 -9l25 1l20 3l14 4l10 3l8 61l-10 -3l-15 -3l-20 -2l-22 -1l-36 4l-27 16l-16 31v52l41 312h168l8 63h-168z" />
    <glyph glyph-name="u" unicode="u" horiz-adv-x="528" 
d="M82 530l-49 -371l2 -69l26 -53l49 -35l74 -13l54 6l48 17l40 27l32 35v-74h60l13 144l51 386h-70l-52 -395l-23 -27l-33 -27l-43 -21l-53 -8l-49 7l-35 22l-19 36l-1 52l48 361h-70z" />
    <glyph glyph-name="v" unicode="v" horiz-adv-x="512" 
d="M161 0h92l255 530h-77l-218 -464l-95 464h-73z" />
    <glyph glyph-name="w" unicode="w" horiz-adv-x="717" 
d="M368 452l62 -452h93l183 530h-71l-152 -457l-63 457h-85l-182 -457l-33 457h-69l45 -530h92z" />
    <glyph glyph-name="x" unicode="x" horiz-adv-x="485" 
d="M43 530l143 -263l-212 -267h85l163 210l110 -210h81l-144 264l213 266h-85l-163 -210l-110 210h-81z" />
    <glyph glyph-name="y" unicode="y" horiz-adv-x="484" 
d="M210 96l-95 434h-72l123 -510l-112 -220h81l104 220l257 510h-78z" />
    <glyph glyph-name="z" unicode="z" horiz-adv-x="463" 
d="M-8 48l-6 -48h391l8 63h-183l-118 -1l346 420l6 48h-371l-8 -63h163l118 1z" />
    <glyph glyph-name="braceleft" unicode="{" horiz-adv-x="317" 
d="M336 840h-18l-55 -6l-50 -22l-39 -42l-21 -68l-29 -221l-11 -45l-20 -26l-29 -14l-38 -3l-8 -66l37 -3l26 -14l12 -26l-1 -45l-28 -215l4 -68l27 -45l43 -24l54 -7h18l8 65l-43 4l-27 16l-12 32l2 53l27 207l1 38l-8 29l-17 21l-25 15l29 15l22 21l16 29l9 37l27 207
l12 52l22 33l32 16l43 5z" />
    <glyph glyph-name="bar" unicode="|" horiz-adv-x="201" 
d="M1 -120h70l126 960h-70z" />
    <glyph glyph-name="braceright" unicode="}" horiz-adv-x="317" 
d="M-23 -120h18l55 6l50 22l39 42l21 68l29 221l11 45l20 26l29 14l38 3l8 66l-37 3l-25 14l-13 26l1 45l28 215l-4 68l-27 45l-43 24l-54 7h-18l-8 -65l43 -4l27 -16l12 -32l-2 -53l-27 -207l-1 -38l8 -28l17 -22l25 -15l-29 -15l-22 -21l-16 -29l-9 -37l-27 -207l-12 -52
l-22 -33l-32 -16l-43 -5z" />
    <glyph glyph-name="asciitilde" unicode="~" horiz-adv-x="600" 
d="M180 451l-48 -7l-40 -17l-32 -25l-24 -27l38 -40l19 21l23 18l29 12l35 5l60 -11l54 -24l58 -25l70 -11l48 7l41 17l31 25l24 27l-38 40l-19 -21l-23 -17l-29 -13l-35 -5l-60 11l-54 25l-58 24z" />
    <glyph glyph-name="nbspace" unicode="&#xa0;" horiz-adv-x="200" 
 />
    <glyph glyph-name="exclamdown" unicode="&#xa1;" horiz-adv-x="217" 
d="M72 440h90l12 90h-90zM75 -200l52 541h-46l-91 -541h85z" />
    <glyph glyph-name="cent" unicode="&#xa2;" horiz-adv-x="598" 
d="M140 410l25 111l45 79l62 46l79 15h3h4h5l3 -1h2l-188 -508l-28 36l-16 47l-6 61l5 74zM496 840h-62l-43 -115l-6 1h-9l-11 1h-13l-109 -20l-84 -60l-60 -99l-33 -138l-5 -40l-4 -102l14 -81l33 -62l50 -43l-52 -142h61l45 122l15 -3l16 -2l19 -1l22 -1l97 15l73 42
l49 67l25 89l2 14h-71l-17 -68l-33 -51l-52 -32l-71 -11h-3h-13l-12 1l-12 2l-11 2l194 523l33 -25l19 -36l8 -49l-4 -61h70l2 13l3 74l-16 65l-35 52l-56 33z" />
    <glyph glyph-name="sterling" unicode="&#xa3;" horiz-adv-x="596" 
d="M366 726l74 -17l43 -47l16 -72l-5 -90h70l4 29l1 106l-30 83l-66 54l-107 19l-107 -21l-70 -57l-40 -87l-12 -109v-33l1 -27l2 -22l1 -19h-80l-9 -65h100l11 -69l10 -69l7 -72v-75h-165l-8 -66h488l9 66h-260l2 72l-4 73l-7 71l-9 69h183l9 65h-200l-3 25l-2 24l-1 23
l-1 21l8 89l27 69l48 44z" />
    <glyph glyph-name="yen" unicode="&#xa5;" horiz-adv-x="600" 
d="M49 414h143l47 -134h-208l-8 -66h220l-28 -214h72l28 214h220l8 66h-209l83 134h144l9 66h-115l181 300h-83l-261 -442l-146 442h-76l102 -300h-114z" />
    <glyph glyph-name="brokenbar" unicode="&#xa6;" horiz-adv-x="201" 
d="M1 -120h70l58 444h-70zM69 396h70l58 444h-70z" />
    <glyph glyph-name="section" unicode="&#xa7;" horiz-adv-x="510" 
d="M345 259l54 20l38 27l23 35l12 42l1 8l-4 63l-29 46l-55 31l-78 18l-62 11l-40 15l-22 23l-7 30l9 46l26 31l43 17l57 6l62 -8l38 -23l18 -37v-51h68l2 13l-2 68l-30 53l-61 35l-95 13l-83 -9l-62 -28l-40 -44l-19 -59l-1 -8l1 -45l13 -35l23 -26l29 -16l-54 -20l-38 -27
l-23 -35l-12 -42l-1 -8l4 -63l30 -46l54 -31l78 -18l62 -11l40 -15l22 -23l7 -30l-9 -46l-26 -31l-43 -17l-57 -6l-62 8l-38 23l-18 37v51h-68l-2 -13l2 -68l30 -53l61 -35l95 -13l83 9l62 28l40 44l19 59l1 8l-1 45l-13 35l-23 26zM243 289l-51 5l-41 14l-28 26l-10 38
l10 48l29 37l47 25l64 9h11l51 -5l41 -14l28 -26l10 -38l-10 -48l-29 -37l-47 -25l-64 -9h-11z" />
    <glyph glyph-name="dieresis" unicode="&#xa8;" horiz-adv-x="500" 
d="M427 745h-90l-12 -90h90zM260 745h-90l-12 -90h90z" />
    <glyph glyph-name="copyright" unicode="&#xa9;" horiz-adv-x="920" 
d="M461 206l-65 15l-44 39l-24 55l-8 63v24l8 63l24 55l44 39l65 15l60 -10l38 -26l21 -37l6 -42h65v17l-10 52l-32 52l-59 40l-90 16l-96 -21l-65 -55l-36 -75l-11 -83v-24l11 -83l36 -75l65 -55l96 -21l90 15l59 39l32 50l10 50v13h-65l-6 -35l-20 -34l-38 -26zM102 390
l28 139l77 114l114 77l139 28l139 -28l114 -77l77 -114l28 -139l-28 -139l-77 -114l-114 -77l-139 -28l-139 28l-114 77l-77 114zM59 390l32 -156l86 -127l127 -86l156 -32l156 32l127 86l86 127l32 156l-32 156l-86 127l-127 86l-156 32l-156 -32l-127 -86l-86 -127z" />
    <glyph glyph-name="ordfeminine" unicode="&#xaa;" horiz-adv-x="388" 
d="M330 212l8 57h-305l-8 -57h305zM180 433l-32 4l-21 11l-11 18v25l2 13l9 28l18 20l25 14l34 9l108 17l-13 -104l-19 -17l-27 -18l-34 -14zM300 388h53l10 111l19 141l1 61l-20 48l-44 31l-75 11l-69 -11l-45 -29l-27 -41l-12 -45l-2 -13h61l8 33l16 28l27 19l43 7l41 -6
l25 -18l11 -29l-1 -38l-2 -13l-116 -17l-55 -12l-44 -20l-31 -32l-16 -48l-2 -13l1 -45l18 -36l36 -24l54 -9l43 5l39 14l32 19l23 24v-53z" />
    <glyph glyph-name="guillemotleft" unicode="&#xab;" horiz-adv-x="517" 
d="M486 524l-224 -152l-8 -62l184 -153l9 67l-134 114l164 113zM273 524l-224 -152l-8 -62l184 -153l9 67l-134 114l164 113z" />
    <glyph glyph-name="logicalnot" unicode="&#xac;" horiz-adv-x="600" 
d="M63 491h436l-37 -278h68l45 344h-503z" />
    <glyph glyph-name="uni00AD" unicode="&#xad;" horiz-adv-x="329" 
d="M280 318l9 64h-248l-9 -64h248z" />
    <glyph glyph-name="registered" unicode="&#xae;" horiz-adv-x="330" 
d="M194 698v-3l-2 -11l-5 -7l-9 -5l-12 -1h-30v50h30l12 -1l9 -4l5 -8zM229 693v7l-4 22l-12 16l-18 10l-22 3h-72v-172h35v63h30l27 -63h36l-30 67l12 7l10 10l6 13zM43 665l10 47l26 39l39 26l47 10l47 -10l39 -26l26 -39l10 -47l-10 -47l-26 -39l-39 -26l-47 -10l-47 10
l-39 26l-26 39zM19 665l12 -57l31 -46l46 -31l57 -12l57 12l46 31l31 46l12 57l-12 57l-31 46l-46 31l-57 12l-57 -12l-46 -31l-31 -46z" />
    <glyph glyph-name="macron" unicode="&#xaf;" horiz-adv-x="500" 
d="M171 664h234l8 66h-233z" />
    <glyph glyph-name="degree" unicode="&#xb0;" horiz-adv-x="398" 
d="M244 791l-61 -9l-50 -29l-34 -46l-18 -64l-1 -9l5 -64l28 -47l47 -29l64 -10l61 9l50 29l34 46l18 64l1 9l-5 64l-28 47l-47 29zM220 538l-40 7l-28 20l-16 30l-2 39l1 9l11 43l23 29l32 17l39 5h8l40 -7l28 -20l16 -30l2 -39l-1 -9l-11 -43l-23 -29l-32 -17l-39 -5h-8z
" />
    <glyph glyph-name="plusminus" unicode="&#xb1;" horiz-adv-x="600" 
d="M19 161h505l9 66h-505zM303 649l-19 -140h-219l-9 -66h219l-19 -140h67l19 140h219l9 66h-219l19 140h-67z" />
    <glyph glyph-name="twosuperior" unicode="&#xb2;" 
d="M284 439h-173l144 133l21 21l18 22l12 24l7 29l1 8l-3 42l-19 35l-37 24l-58 9l-55 -8l-39 -23l-26 -36l-13 -47l-3 -22h56l9 40l17 27l23 14l28 5h6l25 -4l20 -11l11 -20l1 -29l-1 -8l-4 -17l-8 -16l-12 -16l-18 -17l-182 -168l-5 -40h250z" />
    <glyph glyph-name="threesuperior" unicode="&#xb3;" 
d="M97 515h-57l-1 -8l1 -52l19 -39l38 -25l60 -8l53 8l40 23l28 34l13 43l1 8v31l-8 27l-16 20l-23 12l25 9l21 18l15 25l8 31l1 8l-3 41l-21 34l-38 23l-56 8l-55 -8l-39 -23l-26 -36l-13 -47l-3 -22h56l9 40l17 27l23 14l28 5h6l25 -3l20 -11l11 -19l2 -27l-1 -8l-7 -24
l-15 -17l-22 -10l-28 -3h-54l-6 -50h55l26 -4l19 -12l10 -20l1 -28l-1 -8l-9 -28l-17 -18l-23 -10l-25 -3h-7l-28 4l-20 14l-10 25z" />
    <glyph glyph-name="acute" unicode="&#xb4;" horiz-adv-x="500" 
d="M357 780l-112 -166h72l116 166h-76z" />
    <glyph glyph-name="paragraph" unicode="&#xb6;" horiz-adv-x="513" 
d="M133 559l25 79l44 47l52 24l52 6l-43 -333l-53 8l-46 26l-30 50l-3 78zM57 543l6 -108l46 -70l69 -37l76 -11l-41 -317h72l93 715h41l-94 -715h72l102 780h-174l-86 -9l-79 -33l-63 -66l-37 -109z" />
    <glyph glyph-name="periodcentered" unicode="&#xb7;" horiz-adv-x="217" 
d="M156 395h-90l-12 -90h90z" />
    <glyph glyph-name="cedilla" unicode="&#xb8;" horiz-adv-x="602" 
d="M85 -184l17 -10l22 -9l25 -6l28 -2l43 5l34 15l23 26l8 38l-8 33l-19 21l-28 11l-31 4h-4l31 58h-46l-41 -80l13 -19h3l7 1l9 2h12l21 -2l18 -5l12 -11l4 -16l-4 -17l-12 -13l-19 -7l-27 -2l-22 2l-19 5l-17 6l-13 8z" />
    <glyph glyph-name="onesuperior" unicode="&#xb9;" 
d="M279 390l7 49h-95l45 342h-40l-132 -83l22 -42l85 53l-36 -270h-94l-7 -49h245z" />
    <glyph glyph-name="ordmasculine" unicode="&#xba;" horiz-adv-x="416" 
d="M66 578l-2 -81l23 -63l51 -41l80 -14l70 14l55 39l39 63l22 84l2 13l2 81l-23 63l-51 41l-80 14l-70 -14l-55 -39l-39 -63l-22 -84zM26 212h323l8 57h-323zM132 591l15 63l25 45l34 27l46 9l49 -10l30 -28l14 -45l-3 -60l-2 -13l-15 -63l-25 -45l-34 -27l-46 -9l-49 10
l-30 28l-14 45l3 60z" />
    <glyph glyph-name="guillemotright" unicode="&#xbb;" horiz-adv-x="517" 
d="M234 157l224 152l8 62l-184 153l-9 -67l134 -114l-164 -113zM21 157l224 152l8 62l-184 153l-9 -67l134 -114l-164 -113z" />
    <glyph glyph-name="onequarter" unicode="&#xbc;" horiz-adv-x="800" 
d="M666 297l-6 -42l-15 -111h-61l-36 -1zM682 0l12 95h54l7 49h-54l32 246h-56l-195 -255l-5 -40h162l-13 -95h56zM99 0l678 780h-70l-678 -780h70zM279 390l7 49h-95l45 342h-40l-132 -83l22 -42l85 53l-36 -270h-94l-7 -49h245z" />
    <glyph glyph-name="onehalf" unicode="&#xbd;" horiz-adv-x="800" 
d="M733 49h-173l144 133l21 21l18 22l12 24l7 29l1 8l-3 42l-19 35l-37 24l-58 9l-55 -8l-39 -23l-26 -36l-13 -47l-3 -22h56l9 40l17 27l23 14l28 5h6l25 -4l20 -11l11 -20l1 -29l-1 -8l-4 -17l-8 -16l-12 -16l-18 -17l-182 -168l-5 -40h250zM99 0l678 780h-70l-678 -780
h70zM279 390l7 49h-95l45 342h-40l-132 -83l22 -42l85 53l-36 -270h-94l-7 -49h245z" />
    <glyph glyph-name="threequarters" unicode="&#xbe;" horiz-adv-x="800" 
d="M666 297l-6 -42l-15 -111h-61l-36 -1zM682 0l12 95h54l7 49h-54l32 246h-56l-195 -255l-5 -40h162l-13 -95h56zM99 0l678 780h-70l-678 -780h70zM97 515h-57l-1 -8l1 -52l19 -39l38 -25l60 -8l53 8l40 23l28 34l13 43l1 8v31l-8 27l-16 20l-23 12l25 9l21 18l15 25l8 31
l1 8l-3 41l-21 34l-38 23l-56 8l-55 -8l-39 -23l-26 -36l-13 -47l-3 -22h56l9 40l17 27l23 14l28 5h6l25 -3l20 -11l11 -19l2 -27l-1 -8l-7 -24l-15 -17l-22 -10l-28 -3h-54l-6 -50h55l26 -4l19 -12l10 -20l1 -28l-1 -8l-9 -28l-17 -18l-23 -10l-25 -3h-7l-28 4l-20 14
l-10 25z" />
    <glyph glyph-name="questiondown" unicode="&#xbf;" horiz-adv-x="455" 
d="M193 440h90l12 90h-90zM155 -146l-49 7l-34 19l-20 32l-6 43l29 101l66 76l68 85l38 124h-46l-50 -116l-77 -74l-70 -76l-31 -125l10 -66l32 -51l56 -32l83 -12l95 16l67 49l43 81l26 111l2 14h-72l-18 -90l-31 -64l-47 -39z" />
    <glyph glyph-name="Agrave" unicode="&#xc0;" horiz-adv-x="611" 
d="M351 709l66 -444h-249zM309 788l-329 -788h79l82 200h286l30 -200h76l-122 788h-102zM283 950l47 -110h72l-45 110h-74z" />
    <glyph glyph-name="Aacute" unicode="&#xc1;" horiz-adv-x="611" 
d="M351 709l66 -444h-249zM309 788l-329 -788h79l82 200h286l30 -200h76l-122 788h-102zM405 950l-75 -110h72l77 110h-74z" />
    <glyph glyph-name="Acircumflex" unicode="&#xc2;" horiz-adv-x="611" 
d="M351 709l66 -444h-249zM309 788l-329 -788h79l82 200h286l30 -200h76l-122 788h-102zM504 840l-91 110h-64l-121 -110h74l78 69l57 -69h67z" />
    <glyph glyph-name="Atilde" unicode="&#xc3;" horiz-adv-x="611" 
d="M351 709l66 -444h-249zM309 788l-329 -788h79l82 200h286l30 -200h76l-122 788h-102zM482 936l-5 -21l-10 -15l-14 -8l-16 -3l-28 9l-28 20l-32 20l-40 9l-33 -5l-28 -17l-21 -29l-11 -42h48l5 21l10 15l14 8l16 3l28 -9l29 -20l31 -20l40 -9l33 5l28 17l21 29l11 42h-48
z" />
    <glyph glyph-name="Adieresis" unicode="&#xc4;" horiz-adv-x="611" 
d="M351 709l66 -444h-249zM309 788l-329 -788h79l82 200h286l30 -200h76l-122 788h-102zM495 930h-79l-9 -70h79zM339 930h-79l-9 -70h79z" />
    <glyph glyph-name="Aring" unicode="&#xc5;" horiz-adv-x="611" 
d="M361 811l-21 4l-15 10l-9 16l-3 19l5 28l15 20l21 11l24 4l21 -4l15 -10l9 -16l3 -19l-5 -28l-15 -20l-20 -11zM351 709l66 -444h-249zM465 874l-6 35l-17 27l-27 18l-37 7l-40 -8l-33 -21l-23 -32l-8 -40l2 -22l7 -20l11 -17l15 -14l-329 -787h79l82 200h286l30 -200h76
l-122 785l22 15l17 21l11 25z" />
    <glyph glyph-name="AE" unicode="&#xc6;" horiz-adv-x="837" 
d="M393 703l3 -431h-214zM362 780l-391 -780h77l102 208h247l2 -208h349l8 65h-284l-3 301h276l8 64h-285l-3 285h377l8 65h-488z" />
    <glyph glyph-name="Ccedilla" unicode="&#xc7;" horiz-adv-x="613" 
d="M135 410l30 143l48 98l67 57l87 18h7l74 -13l46 -42l20 -71l-4 -104h74l4 29v116l-36 83l-72 50l-107 17l-119 -22l-91 -67l-64 -119l-38 -173l-5 -40l-6 -167l33 -117l68 -69l105 -27l-35 -70l13 -19h3l7 1l9 2h12l21 -2l18 -5l12 -11l4 -16l-4 -17l-12 -13l-19 -7
l-27 -2l-22 2l-19 5l-17 6l-13 8l-20 -36l17 -10l22 -9l25 -6l28 -2l43 5l34 15l23 26l8 38l-8 33l-19 21l-28 11l-31 4h-4l25 48l99 21l73 49l49 76l27 104l2 14h-74l-21 -86l-37 -62l-57 -39l-77 -13h-7l-82 18l-52 57l-22 98l7 143z" />
    <glyph glyph-name="Egrave" unicode="&#xc8;" horiz-adv-x="549" 
d="M127 780l-102 -780h435l8 65h-363l39 301h313l9 64h-313l37 285h364l8 65h-435zM277 950l47 -110h72l-45 110h-74z" />
    <glyph glyph-name="Eacute" unicode="&#xc9;" horiz-adv-x="549" 
d="M127 780l-102 -780h435l8 65h-363l39 301h313l9 64h-313l37 285h364l8 65h-435zM399 950l-75 -110h72l77 110h-74z" />
    <glyph glyph-name="Ecircumflex" unicode="&#xca;" horiz-adv-x="549" 
d="M127 780l-102 -780h435l8 65h-363l39 301h313l9 64h-313l37 285h364l8 65h-435zM498 840l-91 110h-64l-121 -110h74l78 69l57 -69h67z" />
    <glyph glyph-name="Edieresis" unicode="&#xcb;" horiz-adv-x="549" 
d="M127 780l-102 -780h435l8 65h-363l39 301h313l9 64h-313l37 285h364l8 65h-435zM489 930h-79l-9 -70h79zM333 930h-79l-9 -70h79z" />
    <glyph glyph-name="Igrave" unicode="&#xcc;" horiz-adv-x="229" 
d="M204 780h-72l-102 -780h72zM93 950l47 -110h72l-45 110h-74z" />
    <glyph glyph-name="Iacute" unicode="&#xcd;" horiz-adv-x="229" 
d="M204 780h-72l-102 -780h72zM215 950l-75 -110h72l77 110h-74z" />
    <glyph glyph-name="Icircumflex" unicode="&#xce;" horiz-adv-x="229" 
d="M204 780h-72l-102 -780h72zM314 840l-91 110h-64l-121 -110h74l78 69l57 -69h67z" />
    <glyph glyph-name="Idieresis" unicode="&#xcf;" horiz-adv-x="229" 
d="M204 780h-72l-102 -780h72zM305 930h-79l-9 -70h79zM149 930h-79l-9 -70h79z" />
    <glyph glyph-name="Eth" unicode="&#xd0;" horiz-adv-x="692" 
d="M165 65l40 301h213l9 64h-214l38 285h126l96 -16l67 -53l34 -95l-2 -141l-5 -40l-33 -138l-59 -95l-81 -54l-103 -18h-126zM646 410v172l-47 114l-89 64l-126 20h-197l-46 -350h-115l-9 -64h116l-48 -366h204l131 21l104 65l75 115l42 169z" />
    <glyph glyph-name="Ntilde" unicode="&#xd1;" horiz-adv-x="659" 
d="M638 780h-70l-62 -475l-21 -183l-282 658h-76l-102 -780h70l62 475l21 183l282 -658h76zM506 936l-5 -21l-10 -15l-14 -8l-16 -3l-28 9l-28 20l-32 20l-40 9l-33 -5l-28 -17l-21 -29l-11 -42h48l5 21l10 15l14 8l16 3l28 -9l29 -20l31 -20l40 -9l33 5l28 17l21 29l11 42
h-48z" />
    <glyph glyph-name="Ograve" unicode="&#xd2;" horiz-adv-x="645" 
d="M278 54l-82 18l-52 57l-21 98l7 143l5 40l30 143l47 98l67 57l88 18h7l82 -18l52 -57l21 -98l-7 -143l-5 -40l-30 -143l-47 -98l-67 -57l-88 -18h-7zM372 791l-119 -22l-90 -67l-64 -119l-38 -173l-5 -40l-4 -173l37 -119l76 -67l115 -22l119 22l91 67l63 119l38 173
l5 40l4 173l-36 119l-77 67zM302 950l47 -110h72l-45 110h-74z" />
    <glyph glyph-name="Oacute" unicode="&#xd3;" horiz-adv-x="645" 
d="M278 54l-82 18l-52 57l-21 98l7 143l5 40l30 143l47 98l67 57l88 18h7l82 -18l52 -57l21 -98l-7 -143l-5 -40l-30 -143l-47 -98l-67 -57l-88 -18h-7zM372 791l-119 -22l-90 -67l-64 -119l-38 -173l-5 -40l-4 -173l37 -119l76 -67l115 -22l119 22l91 67l63 119l38 173
l5 40l4 173l-36 119l-77 67zM424 950l-75 -110h72l77 110h-74z" />
    <glyph glyph-name="Ocircumflex" unicode="&#xd4;" horiz-adv-x="645" 
d="M278 54l-82 18l-52 57l-21 98l7 143l5 40l30 143l47 98l67 57l88 18h7l82 -18l52 -57l21 -98l-7 -143l-5 -40l-30 -143l-47 -98l-67 -57l-88 -18h-7zM372 791l-119 -22l-90 -67l-64 -119l-38 -173l-5 -40l-4 -173l37 -119l76 -67l115 -22l119 22l91 67l63 119l38 173
l5 40l4 173l-36 119l-77 67zM523 840l-91 110h-64l-121 -110h74l78 69l57 -69h67z" />
    <glyph glyph-name="Otilde" unicode="&#xd5;" horiz-adv-x="645" 
d="M278 54l-82 18l-52 57l-21 98l7 143l5 40l30 143l47 98l67 57l88 18h7l82 -18l52 -57l21 -98l-7 -143l-5 -40l-30 -143l-47 -98l-67 -57l-88 -18h-7zM372 791l-119 -22l-90 -67l-64 -119l-38 -173l-5 -40l-4 -173l37 -119l76 -67l115 -22l119 22l91 67l63 119l38 173
l5 40l4 173l-36 119l-77 67zM501 936l-5 -21l-10 -15l-14 -8l-16 -3l-28 9l-28 20l-32 20l-40 9l-33 -5l-28 -17l-21 -29l-11 -42h48l5 21l10 15l14 8l16 3l28 -9l29 -20l31 -20l40 -9l33 5l28 17l21 29l11 42h-48z" />
    <glyph glyph-name="Odieresis" unicode="&#xd6;" horiz-adv-x="645" 
d="M278 54l-82 18l-52 57l-21 98l7 143l5 40l30 143l47 98l67 57l88 18h7l82 -18l52 -57l21 -98l-7 -143l-5 -40l-30 -143l-47 -98l-67 -57l-88 -18h-7zM372 791l-119 -22l-90 -67l-64 -119l-38 -173l-5 -40l-4 -173l37 -119l76 -67l115 -22l119 22l91 67l63 119l38 173
l5 40l4 173l-36 119l-77 67zM514 930h-79l-9 -70h79zM358 930h-79l-9 -70h79z" />
    <glyph glyph-name="multiply" unicode="&#xd7;" horiz-adv-x="600" 
d="M49 126l246 216l188 -216l54 47l-188 217l245 217l-42 47l-244 -216l-189 216l-53 -47l188 -217l-246 -217z" />
    <glyph glyph-name="Oslash" unicode="&#xd8;" horiz-adv-x="638" 
d="M521 611l7 -41l2 -46l-2 -54l-6 -60l-5 -40l-30 -143l-47 -98l-67 -57l-88 -18h-7l-40 3l-33 10l-28 17l-22 25zM131 169l-7 41l-2 46l2 54l6 60l5 40l30 143l47 98l67 57l88 18h7l40 -3l34 -10l27 -17l22 -25zM56 370l-8 -85l2 -74l10 -62l18 -52l-71 -97h68l36 49
l32 -27l39 -18l46 -11l52 -4l119 22l91 67l63 119l38 173l5 40l8 85l-2 74l-10 62l-18 52l71 97h-68l-36 -49l-32 27l-39 18l-46 11l-52 4l-119 -22l-90 -67l-64 -119l-38 -173z" />
    <glyph glyph-name="Ugrave" unicode="&#xd9;" horiz-adv-x="639" 
d="M272 -11l110 14l83 43l56 78l31 118l71 538h-72l-70 -533l-23 -91l-43 -60l-61 -32l-80 -10l-77 10l-50 32l-24 59l1 92l70 533h-72l-71 -538l1 -118l38 -79l74 -43zM297 950l47 -110h72l-45 110h-74z" />
    <glyph glyph-name="Uacute" unicode="&#xda;" horiz-adv-x="639" 
d="M272 -11l110 14l83 43l56 78l31 118l71 538h-72l-70 -533l-23 -91l-43 -60l-61 -32l-80 -10l-77 10l-50 32l-24 59l1 92l70 533h-72l-71 -538l1 -118l38 -79l74 -43zM419 950l-75 -110h72l77 110h-74z" />
    <glyph glyph-name="Ucircumflex" unicode="&#xdb;" horiz-adv-x="639" 
d="M272 -11l110 14l83 43l56 78l31 118l71 538h-72l-70 -533l-23 -91l-43 -60l-61 -32l-80 -10l-77 10l-50 32l-24 59l1 92l70 533h-72l-71 -538l1 -118l38 -79l74 -43zM518 840l-91 110h-64l-121 -110h74l78 69l57 -69h67z" />
    <glyph glyph-name="Udieresis" unicode="&#xdc;" horiz-adv-x="639" 
d="M272 -11l110 14l83 43l56 78l31 118l71 538h-72l-70 -533l-23 -91l-43 -60l-61 -32l-80 -10l-77 10l-50 32l-24 59l1 92l70 533h-72l-71 -538l1 -118l38 -79l74 -43zM509 930h-79l-9 -70h79zM353 930h-79l-9 -70h79z" />
    <glyph glyph-name="Yacute" unicode="&#xdd;" horiz-adv-x="577" 
d="M307 236l303 544h-81l-248 -456l-132 456h-75l161 -544l-31 -236h72zM389 950l-75 -110h72l77 110h-74z" />
    <glyph glyph-name="Thorn" unicode="&#xde;" horiz-adv-x="569" 
d="M199 780h-72l-102 -780h72l21 159h147l84 9l80 33l64 66l37 109l3 20l-6 111l-48 70l-74 35l-84 10h-143zM127 224l43 333h145l53 -6l51 -25l35 -49l5 -82l-2 -15l-26 -81l-46 -47l-55 -22l-54 -6h-149z" />
    <glyph glyph-name="germandbls" unicode="&#xdf;" horiz-adv-x="569" 
d="M321 52l-54 8l-27 23l-9 35l3 44h-66l-2 -13l-1 -61l22 -51l50 -35l83 -13l88 15l57 39l34 54l15 59l1 8l-2 56l-22 49l-41 46l-61 49l-41 30l65 46l47 48l30 53l15 60l1 8l-2 81l-30 64l-60 42l-94 15l-90 -14l-67 -40l-44 -64l-23 -84l-80 -609h70l79 604l16 60l30 45
l46 27l63 10l53 -8l37 -23l20 -35l7 -47l-10 -67l-30 -56l-53 -49l-77 -46l-6 -45l70 -51l53 -41l36 -34l20 -32l6 -36l-7 -46l-21 -40l-39 -27z" />
    <glyph glyph-name="agrave" unicode="&#xe0;" horiz-adv-x="509" 
d="M174 50l-44 8l-29 20l-15 29l-1 34l2 14l12 37l25 28l37 19l48 12l156 25l-18 -140l-22 -26l-36 -28l-49 -23zM347 0h58l13 150l26 194l1 81l-26 62l-57 40l-94 14l-93 -16l-60 -40l-35 -56l-16 -61l-2 -13h67l11 48l23 41l41 28l62 10l59 -8l36 -25l16 -40l-2 -56
l-3 -22l-164 -26l-71 -15l-58 -26l-42 -44l-22 -69l-2 -16l4 -59l27 -46l47 -30l67 -11l62 7l52 19l42 27l33 32v-74zM179 780l72 -166h72l-68 166h-76z" />
    <glyph glyph-name="aacute" unicode="&#xe1;" horiz-adv-x="509" 
d="M174 50l-44 8l-29 20l-15 29l-1 34l2 14l12 37l25 28l37 19l48 12l156 25l-18 -140l-22 -26l-36 -28l-49 -23zM347 0h58l13 150l26 194l1 81l-26 62l-57 40l-94 14l-93 -16l-60 -40l-35 -56l-16 -61l-2 -13h67l11 48l23 41l41 28l62 10l59 -8l36 -25l16 -40l-2 -56
l-3 -22l-164 -26l-71 -15l-58 -26l-42 -44l-22 -69l-2 -16l4 -59l27 -46l47 -30l67 -11l62 7l52 19l42 27l33 32v-74zM363 780l-112 -166h72l116 166h-76z" />
    <glyph glyph-name="acircumflex" unicode="&#xe2;" horiz-adv-x="512" 
d="M174 50l-44 8l-29 20l-15 29l-1 34l2 14l12 37l25 28l37 19l48 12l156 25l-18 -140l-22 -26l-36 -28l-49 -23zM347 0h58l13 150l26 194l1 81l-26 62l-57 40l-94 14l-93 -16l-60 -40l-35 -56l-16 -61l-2 -13h67l11 48l23 41l41 28l62 10l59 -8l36 -25l16 -40l-2 -56
l-3 -22l-164 -26l-71 -15l-58 -26l-42 -44l-22 -69l-2 -16l4 -59l27 -46l47 -30l67 -11l62 7l52 19l42 27l33 32v-74zM198 614l107 113l78 -113h66l-109 166h-62l-153 -166h73z" />
    <glyph glyph-name="atilde" unicode="&#xe3;" horiz-adv-x="512" 
d="M174 50l-44 8l-29 20l-15 29l-1 34l2 14l12 37l25 28l37 19l48 12l156 25l-18 -140l-22 -26l-36 -28l-49 -23zM347 0h58l13 150l26 194l1 81l-26 62l-57 40l-94 14l-93 -16l-60 -40l-35 -56l-16 -61l-2 -13h67l11 48l23 41l41 28l62 10l59 -8l36 -25l16 -40l-2 -56
l-3 -22l-164 -26l-71 -15l-58 -26l-42 -44l-22 -69l-2 -16l4 -59l27 -46l47 -30l67 -11l62 7l52 19l42 27l33 32v-74zM408 746l-6 -22l-9 -14l-13 -8l-14 -3l-31 9l-30 20l-34 20l-40 9l-34 -6l-28 -19l-20 -32l-12 -46h53l5 22l10 14l12 8l14 3l31 -9l30 -20l34 -20l40 -9
l34 6l28 19l21 32l12 46h-53z" />
    <glyph glyph-name="adieresis" unicode="&#xe4;" horiz-adv-x="509" 
d="M174 50l-44 8l-29 20l-15 29l-1 34l2 14l12 37l25 28l37 19l48 12l156 25l-18 -140l-22 -26l-36 -28l-49 -23zM347 0h58l13 150l26 194l1 81l-26 62l-57 40l-94 14l-93 -16l-60 -40l-35 -56l-16 -61l-2 -13h67l11 48l23 41l41 28l62 10l59 -8l36 -25l16 -40l-2 -56
l-3 -22l-164 -26l-71 -15l-58 -26l-42 -44l-22 -69l-2 -16l4 -59l27 -46l47 -30l67 -11l62 7l52 19l42 27l33 32v-74zM433 745h-90l-12 -90h90zM266 745h-90l-12 -90h90z" />
    <glyph glyph-name="aring" unicode="&#xe5;" horiz-adv-x="509" 
d="M174 50l-44 8l-29 20l-15 29l-1 34l2 14l12 37l25 28l37 19l48 12l156 25l-18 -140l-22 -26l-36 -28l-49 -23zM347 0h58l13 150l26 194l1 81l-26 62l-57 40l-94 14l-93 -16l-60 -40l-35 -56l-16 -61l-2 -13h67l11 48l23 41l41 28l62 10l59 -8l36 -25l16 -40l-2 -56
l-3 -22l-164 -26l-71 -15l-58 -26l-42 -44l-22 -69l-2 -16l4 -59l27 -46l47 -30l67 -11l62 7l52 19l42 27l33 32v-74zM290 603l40 8l33 21l23 32l8 40l-6 35l-17 27l-27 18l-37 7l-40 -8l-33 -21l-23 -32l-8 -40l6 -35l17 -27l27 -18zM290 641l-21 4l-15 10l-9 16l-3 19
l5 28l15 20l21 11l24 4l21 -4l15 -10l9 -16l3 -19l-5 -28l-15 -20l-20 -11z" />
    <glyph glyph-name="ae" unicode="&#xe6;" horiz-adv-x="867" 
d="M618 478l65 -12l42 -36l20 -58l-2 -78h-304l21 74l38 59l53 37zM174 50l-44 8l-29 20l-15 29l-1 34l2 14l12 37l25 28l37 19l48 12l157 25l-3 -21l-3 -27l-1 -25v-25l3 -24l-30 -35l-41 -33l-53 -26zM806 236l5 39l1 107l-30 84l-63 55l-101 20l-60 -7l-50 -19l-42 -31
l-34 -40l-17 40l-32 31l-48 19l-67 7l-93 -16l-60 -40l-35 -56l-16 -61l-2 -13h67l11 48l23 41l41 28l62 10l59 -8l36 -25l16 -40l-2 -56l-3 -22l-164 -26l-71 -15l-58 -26l-42 -44l-22 -69l-2 -16l4 -59l27 -46l47 -30l67 -11l61 7l59 21l55 32l47 42l28 -42l40 -32l55 -21
l69 -7l92 15l68 40l43 54l20 59l2 13h-67l-13 -42l-28 -38l-47 -28l-68 -10l-72 13l-47 36l-22 58l-1 77h374z" />
    <glyph glyph-name="ccedilla" unicode="&#xe7;" horiz-adv-x="519" 
d="M108 279l20 83l36 63l50 39l66 14l62 -11l40 -30l19 -45v-56h67l2 13l-2 66l-28 62l-61 46l-99 18l-98 -20l-72 -55l-47 -83l-26 -106l-3 -22v-98l27 -82l57 -57l87 -27l-36 -71l13 -19h3l7 1l9 2h12l21 -2l18 -5l12 -11l4 -16l-4 -17l-12 -13l-19 -7l-27 -2l-22 2l-19 5
l-17 6l-13 8l-20 -36l17 -10l22 -9l25 -6l28 -2l43 5l34 15l23 26l8 38l-8 33l-19 21l-28 11l-31 4h-4l25 48l85 18l58 41l35 57l18 65l2 13h-68l-14 -51l-26 -42l-43 -28l-63 -11l-66 14l-44 41l-21 65l2 85z" />
    <glyph glyph-name="egrave" unicode="&#xe8;" horiz-adv-x="540" 
d="M289 478l65 -12l42 -36l20 -58l-2 -78h-304l21 74l38 59l53 37zM477 236l5 39l1 107l-30 84l-63 55l-101 20l-100 -20l-74 -55l-51 -84l-27 -105l-3 -22l-1 -104l32 -84l68 -57l110 -21l92 15l68 40l43 54l20 59l2 13h-67l-13 -42l-28 -38l-47 -28l-68 -10l-72 13l-47 36
l-22 58l-1 77h374zM196 780l72 -166h72l-68 166h-76z" />
    <glyph glyph-name="eacute" unicode="&#xe9;" horiz-adv-x="540" 
d="M289 478l65 -12l42 -36l20 -58l-2 -78h-304l21 74l38 59l53 37zM477 236l5 39l1 107l-30 84l-63 55l-101 20l-100 -20l-74 -55l-51 -84l-27 -105l-3 -22l-1 -104l32 -84l68 -57l110 -21l92 15l68 40l43 54l20 59l2 13h-67l-13 -42l-28 -38l-47 -28l-68 -10l-72 13l-47 36
l-22 58l-1 77h374zM380 780l-112 -166h72l116 166h-76z" />
    <glyph glyph-name="ecircumflex" unicode="&#xea;" horiz-adv-x="540" 
d="M289 478l65 -12l42 -36l20 -58l-2 -78h-304l21 74l38 59l53 37zM477 236l5 39l1 107l-30 84l-63 55l-101 20l-100 -20l-74 -55l-51 -84l-27 -105l-3 -22l-1 -104l32 -84l68 -57l110 -21l92 15l68 40l43 54l20 59l2 13h-67l-13 -42l-28 -38l-47 -28l-68 -10l-72 13l-47 36
l-22 58l-1 77h374zM215 614l107 113l78 -113h66l-109 166h-62l-153 -166h73z" />
    <glyph glyph-name="edieresis" unicode="&#xeb;" horiz-adv-x="540" 
d="M289 478l65 -12l42 -36l20 -58l-2 -78h-304l21 74l38 59l53 37zM477 236l5 39l1 107l-30 84l-63 55l-101 20l-100 -20l-74 -55l-51 -84l-27 -105l-3 -22l-1 -104l32 -84l68 -57l110 -21l92 15l68 40l43 54l20 59l2 13h-67l-13 -42l-28 -38l-47 -28l-68 -10l-72 13l-47 36
l-22 58l-1 77h374zM450 745h-90l-12 -90h90zM283 745h-90l-12 -90h90z" />
    <glyph glyph-name="igrave" unicode="&#xec;" horiz-adv-x="216" 
d="M24 0h70l69 530h-70zM31 780l72 -166h72l-68 166h-76z" />
    <glyph glyph-name="iacute" unicode="&#xed;" horiz-adv-x="216" 
d="M24 0h70l69 530h-70zM215 780l-112 -166h72l116 166h-76z" />
    <glyph glyph-name="icircumflex" unicode="&#xee;" horiz-adv-x="216" 
d="M24 0h70l69 530h-70zM50 614l107 113l78 -113h66l-109 166h-62l-153 -166h73z" />
    <glyph glyph-name="idieresis" unicode="&#xef;" horiz-adv-x="216" 
d="M24 0h70l69 530h-70zM285 745h-90l-12 -90h90zM118 745h-90l-12 -90h90z" />
    <glyph glyph-name="eth" unicode="&#xf0;" horiz-adv-x="543" 
d="M232 52l-67 14l-42 41l-20 65l2 85l3 22l21 83l36 63l51 39l67 14l67 -15l43 -42l20 -65l-2 -83l-3 -22l-21 -83l-36 -63l-52 -39zM99 747l41 -6l40 -10l38 -12l36 -16l-132 -71l-8 -55l184 99l15 -12l15 -12l15 -14l15 -18l18 -28l16 -29l12 -32l9 -35l-25 19l-30 14
l-35 9l-40 3l-99 -20l-72 -55l-49 -83l-26 -106l-3 -22v-104l32 -85l65 -56l101 -21l99 20l73 55l49 83l26 106l3 22l7 95l-4 103l-22 101l-44 88l-12 14l-12 14l-13 12l-13 12l80 42l7 55l-126 -68l-50 27l-54 20l-58 13l-61 8z" />
    <glyph glyph-name="ntilde" unicode="&#xf1;" horiz-adv-x="528" 
d="M416 0l49 371l-2 69l-25 54l-50 35l-74 12l-54 -6l-48 -17l-40 -27l-32 -35v74h-60l-13 -144l-51 -386h70l52 395l23 27l33 27l43 21l53 8l49 -7l35 -21l19 -37l1 -52l-48 -361h70zM419 746l-6 -22l-9 -14l-13 -8l-14 -3l-31 9l-30 20l-34 20l-40 9l-34 -6l-28 -19
l-20 -32l-12 -46h53l5 22l10 14l12 8l14 3l31 -9l30 -20l34 -20l40 -9l34 6l28 19l21 32l12 46h-53z" />
    <glyph glyph-name="ograve" unicode="&#xf2;" horiz-adv-x="540" 
d="M232 -11l99 20l73 55l49 83l26 106l3 22v104l-32 85l-66 56l-101 21l-99 -20l-72 -55l-49 -83l-26 -106l-3 -22v-104l32 -85l65 -56zM232 52l-67 14l-42 41l-20 65l2 85l3 22l21 83l36 63l51 39l67 14l67 -14l43 -41l20 -65l-2 -85l-3 -22l-21 -83l-36 -63l-52 -39z
M195 780l72 -166h72l-68 166h-76z" />
    <glyph glyph-name="oacute" unicode="&#xf3;" horiz-adv-x="540" 
d="M232 -11l99 20l73 55l49 83l26 106l3 22v104l-32 85l-66 56l-101 21l-99 -20l-72 -55l-49 -83l-26 -106l-3 -22v-104l32 -85l65 -56zM232 52l-67 14l-42 41l-20 65l2 85l3 22l21 83l36 63l51 39l67 14l67 -14l43 -41l20 -65l-2 -85l-3 -22l-21 -83l-36 -63l-52 -39z
M379 780l-112 -166h72l116 166h-76z" />
    <glyph glyph-name="ocircumflex" unicode="&#xf4;" horiz-adv-x="540" 
d="M232 -11l99 20l73 55l49 83l26 106l3 22v104l-32 85l-66 56l-101 21l-99 -20l-72 -55l-49 -83l-26 -106l-3 -22v-104l32 -85l65 -56zM232 52l-67 14l-42 41l-20 65l2 85l3 22l21 83l36 63l51 39l67 14l67 -14l43 -41l20 -65l-2 -85l-3 -22l-21 -83l-36 -63l-52 -39z
M214 614l107 113l78 -113h66l-109 166h-62l-153 -166h73z" />
    <glyph glyph-name="otilde" unicode="&#xf5;" horiz-adv-x="540" 
d="M232 -11l99 20l73 55l49 83l26 106l3 22v104l-32 85l-66 56l-101 21l-99 -20l-72 -55l-49 -83l-26 -106l-3 -22v-104l32 -85l65 -56zM232 52l-67 14l-42 41l-20 65l2 85l3 22l21 83l36 63l51 39l67 14l67 -14l43 -41l20 -65l-2 -85l-3 -22l-21 -83l-36 -63l-52 -39z
M424 746l-6 -22l-9 -14l-13 -8l-14 -3l-31 9l-30 20l-34 20l-40 9l-34 -6l-28 -19l-20 -32l-12 -46h53l5 22l10 14l12 8l14 3l31 -9l30 -20l34 -20l40 -9l34 6l28 19l21 32l12 46h-53z" />
    <glyph glyph-name="odieresis" unicode="&#xf6;" horiz-adv-x="540" 
d="M232 -11l99 20l73 55l49 83l26 106l3 22v104l-32 85l-66 56l-101 21l-99 -20l-72 -55l-49 -83l-26 -106l-3 -22v-104l32 -85l65 -56zM232 52l-67 14l-42 41l-20 65l2 85l3 22l21 83l36 63l51 39l67 14l67 -14l43 -41l20 -65l-2 -85l-3 -22l-21 -83l-36 -63l-52 -39z
M449 745h-90l-12 -90h90zM282 745h-90l-12 -90h90z" />
    <glyph glyph-name="divide" unicode="&#xf7;" horiz-adv-x="600" 
d="M381 652h-90l-12 -90h90zM323 218h-90l-12 -90h90zM44 357h505l9 66h-505z" />
    <glyph glyph-name="oslash" unicode="&#xf8;" horiz-adv-x="544" 
d="M112 132l-7 26l-3 30v33l3 36l3 22l21 83l36 63l51 39l67 14l29 -2l25 -7l22 -11l18 -15zM34 255l-3 -52l3 -48l10 -43l18 -39l-62 -73h65l30 35l27 -19l32 -15l37 -9l42 -3l99 20l72 55l49 83l26 106l3 22l4 52l-4 48l-10 43l-18 39l62 73h-65l-30 -35l-27 19l-32 15
l-37 9l-42 3l-99 -20l-72 -55l-49 -83l-26 -106zM404 398l7 -26l3 -30v-33l-3 -36l-3 -22l-21 -83l-36 -63l-51 -39l-67 -14l-29 2l-25 7l-22 11l-18 15z" />
    <glyph glyph-name="ugrave" unicode="&#xf9;" horiz-adv-x="528" 
d="M82 530l-49 -371l2 -69l26 -53l49 -35l74 -13l54 6l48 17l40 27l32 35v-74h60l13 144l51 386h-70l-52 -395l-23 -27l-33 -27l-43 -21l-53 -8l-49 7l-35 22l-19 36l-1 52l48 361h-70zM184 780l72 -166h72l-68 166h-76z" />
    <glyph glyph-name="uacute" unicode="&#xfa;" horiz-adv-x="528" 
d="M82 530l-49 -371l2 -69l26 -53l49 -35l74 -13l54 6l48 17l40 27l32 35v-74h60l13 144l51 386h-70l-52 -395l-23 -27l-33 -27l-43 -21l-53 -8l-49 7l-35 22l-19 36l-1 52l48 361h-70zM368 780l-112 -166h72l116 166h-76z" />
    <glyph glyph-name="ucircumflex" unicode="&#xfb;" horiz-adv-x="528" 
d="M82 530l-49 -371l2 -69l26 -53l49 -35l74 -13l54 6l48 17l40 27l32 35v-74h60l13 144l51 386h-70l-52 -395l-23 -27l-33 -27l-43 -21l-53 -8l-49 7l-35 22l-19 36l-1 52l48 361h-70zM203 614l107 113l78 -113h66l-109 166h-62l-153 -166h73z" />
    <glyph glyph-name="udieresis" unicode="&#xfc;" horiz-adv-x="528" 
d="M82 530l-49 -371l2 -69l26 -53l49 -35l74 -13l54 6l48 17l40 27l32 35v-74h60l13 144l51 386h-70l-52 -395l-23 -27l-33 -27l-43 -21l-53 -8l-49 7l-35 22l-19 36l-1 52l48 361h-70zM438 745h-90l-12 -90h90zM271 745h-90l-12 -90h90z" />
    <glyph glyph-name="yacute" unicode="&#xfd;" horiz-adv-x="484" 
d="M210 96l-95 434h-72l123 -510l-112 -220h81l104 220l257 510h-78zM356 780l-112 -166h72l116 166h-76z" />
    <glyph glyph-name="thorn" unicode="&#xfe;" horiz-adv-x="533" 
d="M231 52l-47 8l-36 21l-26 28l-17 30l34 263l26 29l32 24l38 17l47 6l64 -14l42 -41l20 -64l-2 -86l-3 -22l-20 -83l-35 -63l-50 -39zM122 800l-132 -1000h70l35 265l18 -24l30 -24l42 -20l55 -8l94 20l69 54l46 84l25 106l3 22l1 105l-28 85l-59 56l-92 20l-47 -5
l-41 -14l-35 -21l-27 -27l43 326h-70z" />
    <glyph glyph-name="ydieresis" unicode="&#xff;" horiz-adv-x="484" 
d="M210 96l-95 434h-72l123 -510l-112 -220h81l104 220l257 510h-78zM426 745h-90l-12 -90h90zM259 745h-90l-12 -90h90z" />
    <glyph glyph-name="Amacron" unicode="&#x100;" horiz-adv-x="611" 
d="M351 709l66 -444h-249zM309 788l-329 -788h79l82 200h286l30 -200h76l-122 788h-102zM257 868h226l7 54h-226z" />
    <glyph glyph-name="amacron" unicode="&#x101;" horiz-adv-x="509" 
d="M174 50l-44 8l-29 20l-15 29l-1 34l2 14l12 37l25 28l37 19l48 12l156 25l-18 -140l-22 -26l-36 -28l-49 -23zM347 0h58l13 150l26 194l1 81l-26 62l-57 40l-94 14l-93 -16l-60 -40l-35 -56l-16 -61l-2 -13h67l11 48l23 41l41 28l62 10l59 -8l36 -25l16 -40l-2 -56
l-3 -22l-164 -26l-71 -15l-58 -26l-42 -44l-22 -69l-2 -16l4 -59l27 -46l47 -30l67 -11l62 7l52 19l42 27l33 32v-74zM177 664h234l8 66h-233z" />
    <glyph glyph-name="Abreve" unicode="&#x102;" horiz-adv-x="611" 
d="M351 709l66 -444h-249zM309 788l-329 -788h79l82 200h286l30 -200h76l-122 788h-102zM366 829l66 9l49 26l30 38l15 48h-57l-9 -30l-20 -24l-30 -15l-41 -6l-40 6l-26 15l-13 24l-1 30h-53l2 -48l22 -38l42 -26z" />
    <glyph glyph-name="abreve" unicode="&#x103;" horiz-adv-x="512" 
d="M174 50l-44 8l-29 20l-15 29l-1 34l2 14l12 37l25 28l37 19l48 12l156 25l-18 -140l-22 -26l-36 -28l-49 -23zM347 0h58l13 150l26 194l1 81l-26 62l-57 40l-94 14l-93 -16l-60 -40l-35 -56l-16 -61l-2 -13h67l11 48l23 41l41 28l62 10l59 -8l36 -25l16 -40l-2 -56
l-3 -22l-164 -26l-71 -15l-58 -26l-42 -44l-22 -69l-2 -16l4 -59l27 -46l47 -30l67 -11l62 7l52 19l42 27l33 32v-74zM290 603l74 13l54 37l34 55l18 72h-58l-12 -50l-25 -38l-36 -25l-49 -9l-46 9l-29 25l-13 38v50h-54v-72l23 -55l46 -37z" />
    <glyph glyph-name="Aogonek" unicode="&#x104;" horiz-adv-x="611" 
d="M351 709l66 -444h-249zM309 788l-329 -788h79l82 200h286l29 -196l-31 -25l-25 -30l-18 -36l-6 -42l7 -36l20 -26l32 -15l42 -5l22 1l23 4l21 6l19 9l-12 46l-13 -5l-14 -5l-15 -2l-16 -1l-24 3l-19 8l-12 14l-4 20l9 39l25 32l32 24l34 18l-122 788h-102z" />
    <glyph glyph-name="aogonek" unicode="&#x105;" horiz-adv-x="509" 
d="M174 50l-44 8l-29 20l-15 29l-1 34l2 14l12 37l25 28l37 19l48 12l156 25l-18 -140l-22 -26l-36 -28l-49 -23zM405 0l13 150l26 194l1 81l-26 62l-57 40l-94 14l-93 -16l-60 -40l-35 -56l-16 -61l-2 -13h67l11 48l23 41l41 28l62 10l59 -8l36 -25l16 -40l-2 -56l-3 -22
l-164 -26l-71 -15l-58 -26l-42 -44l-22 -69l-2 -16l4 -59l27 -46l47 -30l67 -11l62 7l52 19l42 27l33 32v-58l-38 -25l-31 -33l-22 -39l-8 -48l7 -36l20 -26l32 -15l42 -5l22 1l23 4l21 6l19 9l-12 46l-13 -5l-14 -5l-15 -2l-16 -1l-24 3l-19 8l-12 14l-4 20l9 39l25 32
l32 24z" />
    <glyph glyph-name="Cacute" unicode="&#x106;" horiz-adv-x="613" 
d="M135 410l30 143l48 98l67 57l87 18h7l74 -13l46 -42l20 -71l-4 -104h74l4 29v116l-36 83l-72 50l-107 17l-119 -22l-91 -67l-64 -119l-38 -173l-5 -40l-5 -173l37 -119l76 -67l115 -22l109 16l80 48l53 79l29 108l2 14h-74l-21 -86l-37 -62l-57 -39l-77 -13h-7l-82 18
l-52 57l-22 98l7 143zM422 950l-75 -110h72l77 110h-74z" />
    <glyph glyph-name="cacute" unicode="&#x107;" horiz-adv-x="519" 
d="M108 279l20 83l36 63l50 39l66 14l62 -11l40 -30l19 -45v-56h67l2 13l-2 66l-28 62l-61 46l-99 18l-98 -20l-72 -55l-47 -83l-26 -106l-3 -22l1 -104l33 -85l66 -56l100 -21l93 16l63 41l38 58l18 67l2 13h-68l-14 -51l-26 -42l-43 -28l-63 -11l-66 14l-44 41l-21 65
l2 85zM377 780l-112 -166h72l116 166h-76z" />
    <glyph glyph-name="Ccircumflex" unicode="&#x108;" horiz-adv-x="613" 
d="M135 410l30 143l48 98l67 57l87 18h7l74 -13l46 -42l20 -71l-4 -104h74l4 29v116l-36 83l-72 50l-107 17l-119 -22l-91 -67l-64 -119l-38 -173l-5 -40l-5 -173l37 -119l76 -67l115 -22l109 16l80 48l53 79l29 108l2 14h-74l-21 -86l-37 -62l-57 -39l-77 -13h-7l-82 18
l-52 57l-22 98l7 143zM521 840l-91 110h-64l-121 -110h74l78 69l57 -69h67z" />
    <glyph glyph-name="ccircumflex" unicode="&#x109;" horiz-adv-x="519" 
d="M108 279l20 83l36 63l50 39l66 14l62 -11l40 -30l19 -45v-56h67l2 13l-2 66l-28 62l-61 46l-99 18l-98 -20l-72 -55l-47 -83l-26 -106l-3 -22l1 -104l33 -85l66 -56l100 -21l93 16l63 41l38 58l18 67l2 13h-68l-14 -51l-26 -42l-43 -28l-63 -11l-66 14l-44 41l-21 65
l2 85zM212 614l107 113l78 -113h66l-109 166h-62l-153 -166h73z" />
    <glyph glyph-name="Cdotaccent" unicode="&#x10a;" horiz-adv-x="613" 
d="M135 410l30 143l48 98l67 57l87 18h7l74 -13l46 -42l20 -71l-4 -104h74l4 29v116l-36 83l-72 50l-107 17l-119 -22l-91 -67l-64 -119l-38 -173l-5 -40l-5 -173l37 -119l76 -67l115 -22l109 16l80 48l53 79l29 108l2 14h-74l-21 -86l-37 -62l-57 -39l-77 -13h-7l-82 18
l-52 57l-22 98l7 143zM434 930h-79l-9 -70h79z" />
    <glyph glyph-name="cdotaccent" unicode="&#x10b;" horiz-adv-x="519" 
d="M108 279l20 83l36 63l50 39l66 14l62 -11l40 -30l19 -45v-56h67l2 13l-2 66l-28 62l-61 46l-99 18l-98 -20l-72 -55l-47 -83l-26 -106l-3 -22l1 -104l33 -85l66 -56l100 -21l93 16l63 41l38 58l18 67l2 13h-68l-14 -51l-26 -42l-43 -28l-63 -11l-66 14l-44 41l-21 65
l2 85zM363 745h-90l-12 -90h90z" />
    <glyph glyph-name="Ccaron" unicode="&#x10c;" horiz-adv-x="613" 
d="M135 410l30 143l48 98l67 57l87 18h7l74 -13l46 -42l20 -71l-4 -104h74l4 29v116l-36 83l-72 50l-107 17l-119 -22l-91 -67l-64 -119l-38 -173l-5 -40l-5 -173l37 -119l76 -67l115 -22l109 16l80 48l53 79l29 108l2 14h-74l-21 -86l-37 -62l-57 -39l-77 -13h-7l-82 18
l-52 57l-22 98l7 143zM260 950l91 -110h64l121 110h-74l-78 -69l-57 69h-67z" />
    <glyph glyph-name="ccaron" unicode="&#x10d;" horiz-adv-x="522" 
d="M108 279l20 83l36 63l50 39l66 14l62 -11l40 -30l19 -45v-56h67l2 13l-2 66l-28 62l-61 46l-99 18l-98 -20l-72 -55l-47 -83l-26 -106l-3 -22l1 -104l33 -85l66 -56l100 -21l93 16l63 41l38 58l18 67l2 13h-68l-14 -51l-26 -42l-43 -28l-63 -11l-66 14l-44 41l-21 65
l2 85zM161 780l109 -166h62l153 166h-73l-107 -113l-78 113h-66z" />
    <glyph glyph-name="Dcaron" unicode="&#x10e;" horiz-adv-x="632" 
d="M230 950l91 -110h64l121 110h-74l-78 -69l-57 69h-67zM105 65l86 650h126l96 -16l67 -53l34 -95l-2 -141l-5 -40l-33 -138l-59 -95l-81 -54l-103 -18h-126zM586 410v172l-47 114l-89 64l-126 20h-197l-102 -780h204l131 21l104 65l75 115l42 169z" />
    <glyph glyph-name="dcaron" unicode="&#x10f;" horiz-adv-x="540" 
d="M604 800l-25 -186h40l42 186h-57zM280 478l47 -8l36 -21l26 -28l17 -30l-34 -263l-26 -29l-32 -24l-38 -17l-47 -6l-64 14l-41 41l-21 64l2 86l3 22l20 83l35 63l50 39zM212 -11l48 6l44 15l38 25l29 32v-67h60l13 144l86 656h-70l-44 -335l-18 24l-30 25l-42 19l-55 8
l-94 -20l-69 -54l-46 -84l-25 -106l-3 -22l-1 -105l28 -85l59 -56z" />
    <glyph glyph-name="Dcroat" unicode="&#x110;" horiz-adv-x="692" 
d="M165 65l40 301h213l9 64h-214l38 285h126l96 -16l67 -53l34 -95l-2 -141l-5 -40l-33 -138l-59 -95l-81 -54l-103 -18h-126zM646 410v172l-47 114l-89 64l-126 20h-197l-46 -350h-115l-9 -64h116l-48 -366h204l131 21l104 65l75 115l42 169z" />
    <glyph glyph-name="dcroat" unicode="&#x111;" horiz-adv-x="540" 
d="M280 478l47 -8l36 -21l26 -28l17 -30l-34 -263l-26 -29l-32 -24l-38 -17l-47 -6l-64 14l-41 41l-21 64l2 86l3 22l20 83l35 63l50 39zM599 633l9 64h-92l14 103h-70l-14 -103h-134l-9 -64h135l-22 -168l-18 24l-30 25l-42 19l-55 8l-94 -20l-69 -54l-46 -84l-25 -106
l-3 -22l-1 -105l28 -85l59 -56l92 -20l48 6l44 15l38 25l29 32v-67h60l13 144l64 489h91z" />
    <glyph glyph-name="Emacron" unicode="&#x112;" horiz-adv-x="549" 
d="M127 780l-102 -780h435l8 65h-363l39 301h313l9 64h-313l37 285h364l8 65h-435zM251 868h226l7 54h-226z" />
    <glyph glyph-name="emacron" unicode="&#x113;" horiz-adv-x="540" 
d="M289 478l65 -12l42 -36l20 -58l-2 -78h-304l21 74l38 59l53 37zM477 236l5 39l1 107l-30 84l-63 55l-101 20l-100 -20l-74 -55l-51 -84l-27 -105l-3 -22l-1 -104l32 -84l68 -57l110 -21l92 15l68 40l43 54l20 59l2 13h-67l-13 -42l-28 -38l-47 -28l-68 -10l-72 13l-47 36
l-22 58l-1 77h374zM194 664h234l8 66h-233z" />
    <glyph glyph-name="Ebreve" unicode="&#x114;" horiz-adv-x="549" 
d="M127 780l-102 -780h435l8 65h-363l39 301h313l9 64h-313l37 285h364l8 65h-435zM360 829l66 9l49 26l30 38l15 48h-57l-9 -30l-20 -24l-30 -15l-41 -6l-40 6l-26 15l-13 24l-1 30h-53l2 -48l22 -38l42 -26z" />
    <glyph glyph-name="ebreve" unicode="&#x115;" horiz-adv-x="544" 
d="M289 478l65 -12l42 -36l20 -58l-2 -78h-304l21 74l38 59l53 37zM477 236l5 39l1 107l-30 84l-63 55l-101 20l-100 -20l-74 -55l-51 -84l-27 -105l-3 -22l-1 -104l32 -84l68 -57l110 -21l92 15l68 40l43 54l20 59l2 13h-67l-13 -42l-28 -38l-47 -28l-68 -10l-72 13l-47 36
l-22 58l-1 77h374zM307 603l74 13l54 37l34 55l18 72h-58l-12 -50l-25 -38l-36 -25l-49 -9l-46 9l-29 25l-13 38v50h-54v-72l23 -55l46 -37z" />
    <glyph glyph-name="Edotaccent" unicode="&#x116;" horiz-adv-x="549" 
d="M127 780l-102 -780h435l8 65h-363l39 301h313l9 64h-313l37 285h364l8 65h-435zM411 930h-79l-9 -70h79z" />
    <glyph glyph-name="edotaccent" unicode="&#x117;" horiz-adv-x="540" 
d="M289 478l65 -12l42 -36l20 -58l-2 -78h-304l21 74l38 59l53 37zM477 236l5 39l1 107l-30 84l-63 55l-101 20l-100 -20l-74 -55l-51 -84l-27 -105l-3 -22l-1 -104l32 -84l68 -57l110 -21l92 15l68 40l43 54l20 59l2 13h-67l-13 -42l-28 -38l-47 -28l-68 -10l-72 13l-47 36
l-22 58l-1 77h374zM366 745h-90l-12 -90h90z" />
    <glyph glyph-name="Eogonek" unicode="&#x118;" horiz-adv-x="549" 
d="M127 780l-102 -780h352l-29 -24l-24 -30l-15 -34l-6 -41l7 -36l20 -26l32 -15l42 -5l22 1l23 4l21 6l19 9l-12 46l-13 -5l-14 -5l-15 -2l-16 -1l-24 3l-19 8l-12 14l-4 20l9 39l25 32l32 24l34 18l8 65h-363l39 301h313l9 64h-313l37 285h364l8 65h-435z" />
    <glyph glyph-name="eogonek" unicode="&#x119;" horiz-adv-x="540" 
d="M289 478l65 -12l42 -36l20 -58l-2 -78h-304l21 74l38 59l53 37zM477 236l5 39l1 107l-30 84l-63 55l-101 20l-100 -20l-74 -55l-51 -84l-27 -105l-3 -22l-2 -100l29 -83l63 -57l101 -25l-24 -24l-19 -27l-13 -32l-4 -36l7 -36l20 -26l32 -15l42 -5l22 1l23 4l21 6l19 9
l-12 46l-13 -5l-14 -5l-15 -2l-16 -1l-24 3l-19 8l-12 14l-4 20l9 39l25 32l32 24l34 18l58 27l43 38l29 45l14 47l2 13h-67l-13 -42l-28 -38l-47 -28l-68 -10l-72 13l-47 36l-22 58l-1 77h374z" />
    <glyph glyph-name="Ecaron" unicode="&#x11a;" horiz-adv-x="549" 
d="M127 780l-102 -780h435l8 65h-363l39 301h313l9 64h-313l37 285h364l8 65h-435zM237 950l91 -110h64l121 110h-74l-78 -69l-57 69h-67z" />
    <glyph glyph-name="ecaron" unicode="&#x11b;" horiz-adv-x="544" 
d="M289 478l65 -12l42 -36l20 -58l-2 -78h-304l21 74l38 59l53 37zM477 236l5 39l1 107l-30 84l-63 55l-101 20l-100 -20l-74 -55l-51 -84l-27 -105l-3 -22l-1 -104l32 -84l68 -57l110 -21l92 15l68 40l43 54l20 59l2 13h-67l-13 -42l-28 -38l-47 -28l-68 -10l-72 13l-47 36
l-22 58l-1 77h374zM164 780l109 -166h62l153 166h-73l-107 -113l-78 113h-66z" />
    <glyph glyph-name="Gcircumflex" unicode="&#x11c;" horiz-adv-x="643" 
d="M293 -11l84 8l68 21l53 28l41 33l40 305h-206l-8 -64h134l-27 -206l-29 -22l-38 -19l-48 -14l-55 -5h-7l-85 18l-57 57l-27 98l4 143l5 40l31 143l49 98l69 57l88 18h7l74 -13l48 -42l22 -71l-3 -104h74l4 29l-1 116l-38 83l-73 50l-108 17l-120 -22l-93 -67l-65 -119
l-39 -173l-5 -40l-2 -173l41 -119l81 -67zM529 840l-91 110h-64l-121 -110h74l78 69l57 -69h67z" />
    <glyph glyph-name="gcircumflex" unicode="&#x11d;" horiz-adv-x="537" 
d="M375 167l-26 -29l-32 -25l-38 -17l-47 -6l-65 13l-42 37l-20 59l1 78l3 22l19 76l35 57l50 34l66 12l47 -8l36 -21l26 -28l17 -29zM353 -3l-15 -63l-28 -45l-46 -28l-69 -9l-62 9l-40 27l-20 47l2 65h-65l-2 -13v-77l29 -63l61 -42l97 -16l96 15l67 42l43 64l21 82
l51 388l25 150h-58l-19 -77l-20 30l-32 29l-45 21l-55 8l-94 -18l-68 -50l-45 -78l-24 -98l-3 -22l-1 -96l28 -79l59 -53l93 -20l48 5l41 14l35 22l27 26zM197 614l107 113l78 -113h66l-109 166h-62l-153 -166h73z" />
    <glyph glyph-name="Gbreve" unicode="&#x11e;" horiz-adv-x="643" 
d="M293 -11l84 8l68 21l53 28l41 33l40 305h-206l-8 -64h134l-27 -206l-29 -22l-38 -19l-48 -14l-55 -5h-7l-85 18l-57 57l-27 98l4 143l5 40l31 143l49 98l69 57l88 18h7l74 -13l48 -42l22 -71l-3 -104h74l4 29l-1 116l-38 83l-73 50l-108 17l-120 -22l-93 -67l-65 -119
l-39 -173l-5 -40l-2 -173l41 -119l81 -67zM391 829l66 9l49 26l30 38l15 48h-57l-9 -30l-20 -24l-30 -15l-41 -6l-40 6l-26 15l-13 24l-1 30h-53l2 -48l22 -38l42 -26z" />
    <glyph glyph-name="gbreve" unicode="&#x11f;" horiz-adv-x="537" 
d="M375 167l-26 -29l-32 -25l-38 -17l-47 -6l-65 13l-42 37l-20 59l1 78l3 22l19 76l35 57l50 34l66 12l47 -8l36 -21l26 -28l17 -29zM353 -3l-15 -63l-28 -45l-46 -28l-69 -9l-62 9l-40 27l-20 47l2 65h-65l-2 -13v-77l29 -63l61 -42l97 -16l96 15l67 42l43 64l21 82
l51 388l25 150h-58l-19 -77l-20 30l-32 29l-45 21l-55 8l-94 -18l-68 -50l-45 -78l-24 -98l-3 -22l-1 -96l28 -79l59 -53l93 -20l48 5l41 14l35 22l27 26zM289 603l74 13l54 37l34 55l18 72h-58l-12 -50l-25 -38l-36 -25l-49 -9l-46 9l-29 25l-13 38v50h-54v-72l23 -55
l46 -37z" />
    <glyph glyph-name="Gdotaccent" unicode="&#x120;" horiz-adv-x="643" 
d="M293 -11l84 8l68 21l53 28l41 33l40 305h-206l-8 -64h134l-27 -206l-29 -22l-38 -19l-48 -14l-55 -5h-7l-85 18l-57 57l-27 98l4 143l5 40l31 143l49 98l69 57l88 18h7l74 -13l48 -42l22 -71l-3 -104h74l4 29l-1 116l-38 83l-73 50l-108 17l-120 -22l-93 -67l-65 -119
l-39 -173l-5 -40l-2 -173l41 -119l81 -67zM442 930h-79l-9 -70h79z" />
    <glyph glyph-name="gdotaccent" unicode="&#x121;" horiz-adv-x="537" 
d="M375 167l-26 -29l-32 -25l-38 -17l-47 -6l-65 13l-42 37l-20 59l1 78l3 22l19 76l35 57l50 34l66 12l47 -8l36 -21l26 -28l17 -29zM353 -3l-15 -63l-28 -45l-46 -28l-69 -9l-62 9l-40 27l-20 47l2 65h-65l-2 -13v-77l29 -63l61 -42l97 -16l96 15l67 42l43 64l21 82
l51 388l25 150h-58l-19 -77l-20 30l-32 29l-45 21l-55 8l-94 -18l-68 -50l-45 -78l-24 -98l-3 -22l-1 -96l28 -79l59 -53l93 -20l48 5l41 14l35 22l27 26zM348 745h-90l-12 -90h90z" />
    <glyph glyph-name="Gcommaaccent" unicode="&#x122;" horiz-adv-x="643" 
d="M293 -11l84 8l68 21l53 28l41 33l40 305h-206l-8 -64h134l-27 -206l-29 -22l-38 -19l-48 -14l-55 -5h-7l-85 18l-57 57l-27 98l4 143l5 40l31 143l49 98l69 57l88 18h7l74 -13l48 -42l22 -71l-3 -104h74l4 29l-1 116l-38 83l-73 50l-108 17l-120 -22l-93 -67l-65 -119
l-39 -173l-5 -40l-2 -173l41 -119l81 -67zM324 -56h-81l-9 -68h42l-11 -24l-17 -17l-21 -10l-24 -3l-5 -36l46 7l35 21l25 33l13 46z" />
    <glyph glyph-name="gcommaaccent" unicode="&#x123;" horiz-adv-x="537" 
d="M245 614h81l10 70h-45l11 34l17 22l22 12l28 3l5 36l-47 -8l-36 -23l-25 -39l-14 -55zM375 167l-26 -29l-32 -25l-38 -17l-47 -6l-65 13l-42 37l-20 59l1 78l3 22l19 76l35 57l50 34l66 12l47 -8l36 -21l26 -28l17 -29zM353 -3l-15 -63l-28 -45l-46 -28l-69 -9l-62 9
l-40 27l-20 47l2 65h-65l-2 -13v-77l29 -63l61 -42l97 -16l96 15l67 42l43 64l21 82l51 388l25 150h-58l-19 -77l-20 30l-32 29l-45 21l-55 8l-94 -18l-68 -50l-45 -78l-24 -98l-3 -22l-1 -96l28 -79l59 -53l93 -20l48 5l41 14l35 22l27 26z" />
    <glyph glyph-name="Hcircumflex" unicode="&#x124;" horiz-adv-x="639" 
d="M518 840l-91 110h-64l-121 -110h74l78 69l57 -69h67zM546 780l-46 -350h-347l46 350h-72l-102 -780h72l48 366h347l-48 -366h72l102 780h-72z" />
    <glyph glyph-name="hcircumflex" unicode="&#x125;" horiz-adv-x="525" 
d="M300 840l-91 110h-64l-121 -110h74l78 69l57 -69h67zM191 800h-70l-105 -800h70l52 395l23 27l33 27l43 21l53 8l49 -7l35 -21l19 -37l1 -52l-48 -361h70l49 371l-2 69l-25 54l-50 35l-74 12l-53 -6l-46 -16l-39 -24l-29 -30z" />
    <glyph glyph-name="Hbar" unicode="&#x126;" horiz-adv-x="639" 
d="M153 430l19 145h347l-19 -145h-347zM546 780l-19 -141h-347l19 141h-72l-102 -780h72l48 366h347l-48 -366h72l102 780h-72z" />
    <glyph glyph-name="hbar" unicode="&#x127;" horiz-adv-x="525" 
d="M303 633l9 64h-135l14 103h-70l-14 -103h-91l-9 -64h92l-83 -633h70l52 395l23 27l33 27l43 21l53 8l49 -7l35 -21l19 -37l1 -52l-48 -361h70l49 371l-2 69l-25 54l-50 35l-74 12l-53 -6l-46 -16l-39 -24l-29 -30l22 168h134z" />
    <glyph glyph-name="Itilde" unicode="&#x128;" horiz-adv-x="229" 
d="M204 780h-72l-102 -780h72zM292 936l-5 -21l-10 -15l-14 -8l-16 -3l-28 9l-28 20l-32 20l-40 9l-33 -5l-28 -17l-21 -29l-11 -42h48l5 21l10 15l14 8l16 3l28 -9l29 -20l31 -20l40 -9l33 5l28 17l21 29l11 42h-48z" />
    <glyph glyph-name="itilde" unicode="&#x129;" horiz-adv-x="216" 
d="M24 0h70l69 530h-70zM260 746l-6 -22l-9 -14l-13 -8l-14 -3l-31 9l-30 20l-34 20l-40 9l-34 -6l-28 -19l-20 -32l-12 -46h53l5 22l10 14l12 8l14 3l31 -9l30 -20l34 -20l40 -9l34 6l28 19l21 32l12 46h-53z" />
    <glyph glyph-name="Imacron" unicode="&#x12a;" horiz-adv-x="229" 
d="M204 780h-72l-102 -780h72zM67 868h226l7 54h-226z" />
    <glyph glyph-name="imacron" unicode="&#x12b;" horiz-adv-x="216" 
d="M24 0h70l69 530h-70zM29 664h234l8 66h-233z" />
    <glyph glyph-name="Ibreve" unicode="&#x12c;" horiz-adv-x="229" 
d="M204 780h-72l-102 -780h72zM176 829l66 9l49 26l30 38l15 48h-57l-9 -30l-20 -24l-30 -15l-41 -6l-40 6l-26 15l-13 24l-1 30h-53l2 -48l22 -38l42 -26z" />
    <glyph glyph-name="ibreve" unicode="&#x12d;" horiz-adv-x="216" 
d="M24 0h70l69 530h-70zM142 603l74 13l54 37l34 55l18 72h-58l-12 -50l-25 -38l-36 -25l-49 -9l-46 9l-29 25l-13 38v50h-54v-72l23 -55l46 -37z" />
    <glyph glyph-name="Iogonek" unicode="&#x12e;" horiz-adv-x="229" 
d="M204 780h-72l-101 -772l-33 -25l-28 -31l-18 -37l-7 -44l7 -36l20 -26l32 -15l42 -5l22 1l23 4l21 6l19 9l-12 46l-13 -5l-14 -5l-15 -2l-16 -1l-24 3l-19 8l-12 14l-4 20l9 39l25 32l32 24l34 18z" />
    <glyph glyph-name="iogonek" unicode="&#x12f;" horiz-adv-x="216" 
d="M202 745h-90l-12 -90h90zM94 0l69 530h-70l-68 -521l-34 -25l-28 -31l-19 -38l-7 -44l7 -36l20 -26l32 -15l42 -5l22 1l23 4l21 6l19 9l-12 46l-13 -5l-14 -5l-15 -2l-16 -1l-24 3l-19 8l-12 14l-4 20l9 39l25 32l32 24z" />
    <glyph glyph-name="Idotaccent" unicode="&#x130;" horiz-adv-x="229" 
d="M204 780h-72l-102 -780h72zM227 930h-79l-9 -70h79z" />
    <glyph glyph-name="dotlessi" unicode="&#x131;" horiz-adv-x="216" 
d="M24 0h70l69 530h-70z" />
    <glyph glyph-name="IJ" unicode="&#x132;" horiz-adv-x="499" 
d="M328 153l-12 -48l-21 -30l-30 -16l-41 -5l-17 1l-17 3l-14 3l-10 3l-9 -63l9 -4l15 -4l21 -3l25 -1l65 9l51 26l36 47l19 68l84 641h-72zM204 780h-72l-102 -780h72z" />
    <glyph glyph-name="ij" unicode="&#x133;" horiz-adv-x="383" 
d="M369 745h-90l-12 -90h90zM185 -49l-13 -48l-23 -30l-32 -16l-42 -5l-18 1l-17 2l-15 4l-10 3l-8 -61l9 -4l16 -4l21 -3l26 -1l65 8l52 26l37 46l20 68l77 593h-70zM202 745h-90l-12 -90h90zM24 0h70l69 530h-70z" />
    <glyph glyph-name="Jcircumflex" unicode="&#x134;" horiz-adv-x="495" 
d="M407 780l-69 -528l-19 -91l-30 -61l-44 -35l-60 -11l-58 11l-37 35l-15 62l6 92h-68l-2 -14l-4 -104l25 -79l59 -50l96 -18l90 16l65 49l42 78l24 108l71 540h-72zM589 840l-91 110h-64l-121 -110h74l78 69l57 -69h67z" />
    <glyph glyph-name="jcircumflex" unicode="&#x135;" horiz-adv-x="216" 
d="M18 -49l-13 -48l-23 -30l-32 -16l-42 -5l-18 1l-17 2l-15 4l-10 3l-8 -61l9 -4l16 -4l21 -3l26 -1l65 8l52 26l37 46l20 68l77 593h-70zM50 614l107 113l78 -113h66l-109 166h-62l-153 -166h73z" />
    <glyph glyph-name="Kcommaaccent" unicode="&#x136;" horiz-adv-x="562" 
d="M262 -56h-81l-9 -68h42l-11 -24l-17 -17l-21 -10l-24 -3l-5 -36l46 7l35 21l25 33l13 46zM199 780h-72l-102 -780h72l31 240l124 147l147 -387h80l-174 451l276 329h-89l-349 -423z" />
    <glyph glyph-name="kcommaaccent" unicode="&#x137;" horiz-adv-x="501" 
d="M239 -56h-81l-9 -68h42l-11 -24l-17 -17l-21 -10l-24 -3l-5 -36l46 7l35 21l25 33l13 46zM16 0h70l20 158l126 122l117 -280h76l-140 330l209 200h-89l-286 -276l72 546h-70z" />
    <glyph glyph-name="kgreenlandic" unicode="&#x138;" horiz-adv-x="501" 
d="M85 530l-69 -530h70l20 158l126 122l117 -280h76l-140 330l209 200h-89l-286 -276l36 276h-70z" />
    <glyph glyph-name="Lacute" unicode="&#x139;" horiz-adv-x="491" 
d="M427 0l8 65h-330l94 715h-72l-102 -780h402zM210 950l-75 -110h72l77 110h-74z" />
    <glyph glyph-name="lacute" unicode="&#x13a;" horiz-adv-x="217" 
d="M208 950l-75 -110h72l77 110h-74zM24 0h70l105 800h-70z" />
    <glyph glyph-name="Lcommaaccent" unicode="&#x13b;" horiz-adv-x="491" 
d="M260 -56h-81l-9 -68h42l-11 -24l-17 -17l-21 -10l-24 -3l-5 -36l46 7l35 21l25 33l13 46zM427 0l8 65h-330l94 715h-72l-102 -780h402z" />
    <glyph glyph-name="lcommaaccent" unicode="&#x13c;" horiz-adv-x="217" 
d="M93 -56h-81l-9 -68h42l-11 -24l-17 -17l-21 -10l-24 -3l-5 -36l46 7l35 21l25 33l13 46zM24 0h70l105 800h-70z" />
    <glyph glyph-name="Lcaron" unicode="&#x13d;" horiz-adv-x="491" 
d="M427 0l8 65h-330l94 715h-72l-102 -780h402zM349 800l-25 -186h40l42 186h-57z" />
    <glyph glyph-name="lcaron" unicode="&#x13e;" horiz-adv-x="217" 
d="M273 800l-25 -186h40l42 186h-57zM24 0h70l105 800h-70z" />
    <glyph glyph-name="Ldot" unicode="&#x13f;" horiz-adv-x="491" 
d="M398 439h-81l-11 -82h82zM427 0l8 65h-330l94 715h-72l-102 -780h402z" />
    <glyph glyph-name="ldot" unicode="&#x140;" horiz-adv-x="335" 
d="M324 395h-90l-12 -90h90zM24 0h70l105 800h-70z" />
    <glyph glyph-name="Lslash" unicode="&#x141;" horiz-adv-x="551" 
d="M3 265l124 60l-42 -325h402l8 65h-330l39 297l232 113l9 67l-232 -113l46 351h-72l-51 -388l-124 -60z" />
    <glyph glyph-name="lslash" unicode="&#x142;" horiz-adv-x="329" 
d="M17 262l103 71l-44 -333h70l50 384l124 87l9 70l-123 -85l45 344h-70l-52 -397l-103 -71z" />
    <glyph glyph-name="Nacute" unicode="&#x143;" horiz-adv-x="659" 
d="M638 780h-70l-62 -475l-21 -183l-282 658h-76l-102 -780h70l62 475l21 183l282 -658h76zM429 950l-75 -110h72l77 110h-74z" />
    <glyph glyph-name="nacute" unicode="&#x144;" horiz-adv-x="525" 
d="M416 0l49 371l-2 69l-25 54l-50 35l-74 12l-54 -6l-48 -17l-40 -27l-32 -35v74h-60l-13 -144l-51 -386h70l52 395l23 27l33 27l43 21l53 8l49 -7l35 -21l19 -37l1 -52l-48 -361h70zM374 780l-112 -166h72l116 166h-76z" />
    <glyph glyph-name="Ncommaaccent" unicode="&#x145;" horiz-adv-x="659" 
d="M313 -56h-81l-9 -68h42l-11 -24l-17 -17l-21 -10l-24 -3l-5 -36l46 7l35 21l25 33l13 46zM638 780h-70l-62 -475l-21 -183l-282 658h-76l-102 -780h70l62 475l21 183l282 -658h76z" />
    <glyph glyph-name="ncommaaccent" unicode="&#x146;" horiz-adv-x="525" 
d="M416 0l49 371l-2 69l-25 54l-50 35l-74 12l-54 -6l-48 -17l-40 -27l-32 -35v74h-60l-13 -144l-51 -386h70l52 395l23 27l33 27l43 21l53 8l49 -7l35 -21l19 -37l1 -52l-48 -361h70zM251 -56h-81l-9 -68h42l-11 -24l-17 -17l-21 -10l-24 -3l-5 -36l46 7l35 21l25 33l13 46
z" />
    <glyph glyph-name="Ncaron" unicode="&#x147;" horiz-adv-x="659" 
d="M638 780h-70l-62 -475l-21 -183l-282 658h-76l-102 -780h70l62 475l21 183l282 -658h76zM267 950l91 -110h64l121 110h-74l-78 -69l-57 69h-67z" />
    <glyph glyph-name="ncaron" unicode="&#x148;" horiz-adv-x="528" 
d="M416 0l49 371l-2 69l-25 54l-50 35l-74 12l-54 -6l-48 -17l-40 -27l-32 -35v74h-60l-13 -144l-51 -386h70l52 395l23 27l33 27l43 21l53 8l49 -7l35 -21l19 -37l1 -52l-48 -361h70zM158 780l109 -166h62l153 166h-73l-107 -113l-78 113h-66z" />
    <glyph glyph-name="Eng" unicode="&#x14a;" horiz-adv-x="659" 
d="M460 -49l-12 -48l-23 -30l-33 -16l-42 -5l-18 1l-17 2l-15 4l-10 3l-8 -61l9 -4l16 -4l21 -3l26 -1l65 8l52 26l37 46l20 68l110 843h-70l-62 -475l-21 -183l-282 658h-76l-102 -780h70l62 475l21 183l286 -669z" />
    <glyph glyph-name="eng" unicode="&#x14b;" horiz-adv-x="525" 
d="M465 371l-2 69l-25 54l-50 35l-74 12l-54 -6l-48 -17l-40 -27l-32 -35v74h-60l-13 -144l-51 -386h70l52 395l23 27l33 27l43 21l53 8l49 -7l35 -21l19 -37l1 -52l-54 -410l-13 -48l-23 -30l-32 -16l-42 -5l-18 1l-17 2l-15 4l-10 3l-8 -61l9 -4l16 -4l21 -3l26 -1l65 8
l52 26l37 46l20 68z" />
    <glyph glyph-name="Omacron" unicode="&#x14c;" horiz-adv-x="645" 
d="M278 54l-82 18l-52 57l-21 98l7 143l5 40l30 143l47 98l67 57l88 18h7l82 -18l52 -57l21 -98l-7 -143l-5 -40l-30 -143l-47 -98l-67 -57l-88 -18h-7zM372 791l-119 -22l-90 -67l-64 -119l-38 -173l-5 -40l-4 -173l37 -119l76 -67l115 -22l119 22l91 67l63 119l38 173
l5 40l4 173l-36 119l-77 67zM276 868h226l7 54h-226z" />
    <glyph glyph-name="omacron" unicode="&#x14d;" horiz-adv-x="540" 
d="M232 -11l99 20l73 55l49 83l26 106l3 22v104l-32 85l-66 56l-101 21l-99 -20l-72 -55l-49 -83l-26 -106l-3 -22v-104l32 -85l65 -56zM232 52l-67 14l-42 41l-20 65l2 85l3 22l21 83l36 63l51 39l67 14l67 -14l43 -41l20 -65l-2 -85l-3 -22l-21 -83l-36 -63l-52 -39z
M193 664h234l8 66h-233z" />
    <glyph glyph-name="Obreve" unicode="&#x14e;" horiz-adv-x="645" 
d="M278 54l-82 18l-52 57l-21 98l7 143l5 40l30 143l47 98l67 57l88 18h7l82 -18l52 -57l21 -98l-7 -143l-5 -40l-30 -143l-47 -98l-67 -57l-88 -18h-7zM372 791l-119 -22l-90 -67l-64 -119l-38 -173l-5 -40l-4 -173l37 -119l76 -67l115 -22l119 22l91 67l63 119l38 173
l5 40l4 173l-36 119l-77 67zM385 829l66 9l49 26l30 38l15 48h-57l-9 -30l-20 -24l-30 -15l-41 -6l-40 6l-26 15l-13 24l-1 30h-53l2 -48l22 -38l42 -26z" />
    <glyph glyph-name="obreve" unicode="&#x14f;" horiz-adv-x="544" 
d="M232 -11l99 20l73 55l49 83l26 106l3 22v104l-32 85l-66 56l-101 21l-99 -20l-72 -55l-49 -83l-26 -106l-3 -22v-104l32 -85l65 -56zM232 52l-67 14l-42 41l-20 65l2 85l3 22l21 83l36 63l51 39l67 14l67 -14l43 -41l20 -65l-2 -85l-3 -22l-21 -83l-36 -63l-52 -39z
M306 603l74 13l54 37l34 55l18 72h-58l-12 -50l-25 -38l-36 -25l-49 -9l-46 9l-29 25l-13 38v50h-54v-72l23 -55l46 -37z" />
    <glyph glyph-name="Ohungarumlaut" unicode="&#x150;" horiz-adv-x="645" 
d="M278 54l-82 18l-52 57l-21 98l7 143l5 40l30 143l47 98l67 57l88 18h7l82 -18l52 -57l21 -98l-7 -143l-5 -40l-30 -143l-47 -98l-67 -57l-88 -18h-7zM372 791l-119 -22l-90 -67l-64 -119l-38 -173l-5 -40l-4 -173l37 -119l76 -67l115 -22l119 22l91 67l63 119l38 173
l5 40l4 173l-36 119l-77 67zM489 950l-75 -110h67l78 110h-70zM362 950l-73 -110h67l76 110h-70z" />
    <glyph glyph-name="ohungarumlaut" unicode="&#x151;" horiz-adv-x="544" 
d="M232 -11l99 20l73 55l49 83l26 106l3 22v104l-32 85l-66 56l-101 21l-99 -20l-72 -55l-49 -83l-26 -106l-3 -22v-104l32 -85l65 -56zM232 52l-67 14l-42 41l-20 65l2 85l3 22l21 83l36 63l51 39l67 14l67 -14l43 -41l20 -65l-2 -85l-3 -22l-21 -83l-36 -63l-52 -39z
M316 780l-106 -166h63l110 166h-67zM445 780l-112 -166h63l117 166h-68z" />
    <glyph glyph-name="OE" unicode="&#x152;" horiz-adv-x="940" 
d="M56 370v-172l47 -114l89 -64l126 -20h533l8 65h-363l39 301h313l8 64h-312l37 285h364l8 65h-540l-131 -21l-104 -65l-75 -115l-42 -169zM510 715l-86 -650h-99l-96 16l-67 53l-34 95l2 141l5 40l33 138l59 95l81 54l103 18h99z" />
    <glyph glyph-name="oe" unicode="&#x153;" horiz-adv-x="884" 
d="M664 478l65 -12l42 -36l20 -58l-2 -78h-304l21 74l38 59l53 37zM232 52l-67 14l-42 41l-20 65l2 85l3 22l21 83l36 63l51 39l67 14l67 -14l43 -41l20 -65l-2 -85l-3 -22l-21 -83l-36 -63l-52 -39zM852 236l5 39l1 107l-30 84l-63 55l-101 20l-67 -8l-55 -25l-44 -38
l-34 -50l-24 50l-37 38l-52 24l-68 9l-99 -20l-72 -55l-49 -83l-26 -106l-3 -22v-104l32 -85l65 -56l101 -21l65 8l54 24l42 36l33 49l24 -48l39 -37l55 -24l74 -8l92 15l68 40l43 54l20 59l2 13h-67l-13 -42l-28 -38l-47 -28l-68 -10l-72 13l-47 36l-22 58l-1 77h374z" />
    <glyph glyph-name="Racute" unicode="&#x154;" horiz-adv-x="580" 
d="M374 950l-75 -110h72l77 110h-74zM147 382l43 333h145l53 -6l51 -25l35 -49l5 -82l-2 -15l-26 -81l-46 -47l-55 -22l-54 -6h-149zM138 317h147h8h9h8l8 1l83 -318h79l-92 331l55 24l47 40l37 59l23 80l3 20l-6 111l-48 70l-74 35l-84 10h-214l-102 -780h72z" />
    <glyph glyph-name="racute" unicode="&#x155;" horiz-adv-x="333" 
d="M297 541l-50 -6l-43 -17l-36 -26l-28 -31v69h-60l-13 -144l-51 -386h70l51 387l23 28l32 28l43 20l54 8h14l8 69h-1l-3 1h-5h-5zM285 780l-112 -166h72l116 166h-76z" />
    <glyph glyph-name="Rcommaaccent" unicode="&#x156;" horiz-adv-x="580" 
d="M268 -56h-81l-9 -68h42l-11 -24l-17 -17l-21 -10l-24 -3l-5 -36l46 7l35 21l25 33l13 46zM147 382l43 333h145l53 -6l51 -25l35 -49l5 -82l-2 -15l-26 -81l-46 -47l-55 -22l-54 -6h-149zM138 317h147h8h9h8l8 1l83 -318h79l-92 331l55 24l47 40l37 59l23 80l3 20l-6 111
l-48 70l-74 35l-84 10h-214l-102 -780h72z" />
    <glyph glyph-name="rcommaaccent" unicode="&#x157;" horiz-adv-x="333" 
d="M297 541l-50 -6l-43 -17l-36 -26l-28 -31v69h-60l-13 -144l-51 -386h70l51 387l23 28l32 28l43 20l54 8h14l8 69h-1l-3 1h-5h-5zM86 -56h-81l-9 -68h42l-11 -24l-17 -17l-21 -10l-24 -3l-5 -36l46 7l35 21l25 33l13 46z" />
    <glyph glyph-name="Rcaron" unicode="&#x158;" horiz-adv-x="580" 
d="M212 950l91 -110h64l121 110h-74l-78 -69l-57 69h-67zM147 382l43 333h145l53 -6l51 -25l35 -49l5 -82l-2 -15l-26 -81l-46 -47l-55 -22l-54 -6h-149zM138 317h147h8h9h8l8 1l83 -318h79l-92 331l55 24l47 40l37 59l23 80l3 20l-6 111l-48 70l-74 35l-84 10h-214
l-102 -780h72z" />
    <glyph glyph-name="rcaron" unicode="&#x159;" horiz-adv-x="333" 
d="M297 541l-50 -6l-43 -17l-36 -26l-28 -31v69h-60l-13 -144l-51 -386h70l51 387l23 28l32 28l43 20l54 8h14l8 69h-1l-3 1h-5h-5zM69 780l109 -166h62l153 166h-73l-107 -113l-78 113h-66z" />
    <glyph glyph-name="Sacute" unicode="&#x15a;" horiz-adv-x="596" 
d="M286 371l85 -23l56 -34l29 -48l4 -61l-2 -15l-21 -61l-41 -42l-59 -25l-73 -8h-10l-72 11l-53 35l-29 62l2 92h-72l-2 -14l3 -107l41 -78l76 -49l108 -17l105 12l83 37l57 62l30 88l3 20l-2 80l-35 64l-68 47l-105 31l-87 24l-54 34l-26 44l-2 56l2 15l19 54l38 39l53 22
l66 8h10l75 -12l51 -37l25 -66l-2 -95h72l2 14v111l-35 82l-75 51l-114 17l-97 -11l-77 -33l-55 -58l-29 -84l-3 -20l2 -72l31 -62l66 -48zM400 950l-75 -110h72l77 110h-74z" />
    <glyph glyph-name="sacute" unicode="&#x15b;" horiz-adv-x="519" 
d="M222 52l-65 8l-39 22l-18 35l-1 45h-69l-2 -13l3 -61l30 -51l62 -35l99 -13l85 11l64 30l42 46l19 59l1 8l-4 62l-30 46l-55 31l-78 17l-62 11l-40 15l-22 23l-7 30l9 46l27 31l43 17l56 6l62 -8l38 -23l18 -37v-51h68l2 13l-2 68l-30 53l-61 35l-95 13l-81 -10l-62 -27
l-41 -44l-20 -59l-1 -8l3 -55l28 -44l54 -31l84 -20l58 -11l40 -16l24 -24l7 -34l-9 -47l-26 -33l-44 -20zM368 780l-112 -166h72l116 166h-76z" />
    <glyph glyph-name="Scircumflex" unicode="&#x15c;" horiz-adv-x="596" 
d="M286 371l85 -23l56 -34l29 -48l4 -61l-2 -15l-21 -61l-41 -42l-59 -25l-73 -8h-10l-72 11l-53 35l-29 62l2 92h-72l-2 -14l3 -107l41 -78l76 -49l108 -17l105 12l83 37l57 62l30 88l3 20l-2 80l-35 64l-68 47l-105 31l-87 24l-54 34l-26 44l-2 56l2 15l19 54l38 39l53 22
l66 8h10l75 -12l51 -37l25 -66l-2 -95h72l2 14v111l-35 82l-75 51l-114 17l-97 -11l-77 -33l-55 -58l-29 -84l-3 -20l2 -72l31 -62l66 -48zM499 840l-91 110h-64l-121 -110h74l78 69l57 -69h67z" />
    <glyph glyph-name="scircumflex" unicode="&#x15d;" horiz-adv-x="519" 
d="M222 52l-65 8l-39 22l-18 35l-1 45h-69l-2 -13l3 -61l30 -51l62 -35l99 -13l85 11l64 30l42 46l19 59l1 8l-4 62l-30 46l-55 31l-78 17l-62 11l-40 15l-22 23l-7 30l9 46l27 31l43 17l56 6l62 -8l38 -23l18 -37v-51h68l2 13l-2 68l-30 53l-61 35l-95 13l-81 -10l-62 -27
l-41 -44l-20 -59l-1 -8l3 -55l28 -44l54 -31l84 -20l58 -11l40 -16l24 -24l7 -34l-9 -47l-26 -33l-44 -20zM203 614l107 113l78 -113h66l-109 166h-62l-153 -166h73z" />
    <glyph glyph-name="Scedilla" unicode="&#x15e;" horiz-adv-x="596" 
d="M286 371l85 -23l56 -34l29 -48l4 -61l-2 -15l-21 -61l-41 -42l-59 -25l-73 -8h-10l-72 11l-53 35l-29 62l2 92h-72l-2 -14l1 -101l36 -77l66 -50l96 -22l-36 -70l13 -19h3l7 1l9 2h12l21 -2l18 -5l12 -11l4 -16l-4 -17l-12 -13l-19 -7l-27 -2l-22 2l-19 5l-17 6l-13 8
l-20 -36l17 -10l22 -9l25 -6l28 -2l43 5l34 15l23 26l8 38l-8 33l-19 21l-28 11l-31 4h-4l25 47l99 15l77 37l54 61l29 86l3 20l-2 80l-35 64l-68 47l-105 31l-87 24l-54 34l-26 44l-2 56l2 15l19 54l38 39l53 22l66 8h10l75 -12l51 -37l25 -66l-2 -95h72l2 14v111l-35 82
l-75 51l-114 17l-97 -11l-77 -33l-55 -58l-29 -84l-3 -20l2 -72l31 -62l66 -48z" />
    <glyph glyph-name="scedilla" unicode="&#x15f;" horiz-adv-x="519" 
d="M222 52l-65 8l-39 22l-18 35l-1 45h-69l-2 -13l2 -57l25 -49l53 -36l84 -17l-36 -70l13 -19h3l7 1l9 2h12l21 -2l18 -5l12 -11l4 -16l-4 -17l-12 -13l-19 -7l-27 -2l-22 2l-19 5l-17 6l-13 8l-20 -36l17 -10l22 -9l25 -6l28 -2l43 5l34 15l23 26l8 38l-8 33l-19 21
l-28 11l-31 4h-4l25 48l79 13l59 30l39 45l18 57l1 8l-4 62l-30 46l-55 31l-78 17l-62 11l-40 15l-22 23l-7 30l9 46l27 31l43 17l56 6l62 -8l38 -23l18 -37v-51h68l2 13l-2 68l-30 53l-61 35l-95 13l-81 -10l-62 -27l-41 -44l-20 -59l-1 -8l3 -55l28 -44l54 -31l84 -20
l58 -11l40 -16l24 -24l7 -34l-9 -47l-26 -33l-44 -20z" />
    <glyph glyph-name="Scaron" unicode="&#x160;" horiz-adv-x="596" 
d="M286 371l85 -23l56 -34l29 -48l4 -61l-2 -15l-21 -61l-41 -42l-59 -25l-73 -8h-10l-72 11l-53 35l-29 62l2 92h-72l-2 -14l3 -107l41 -78l76 -49l108 -17l105 12l83 37l57 62l30 88l3 20l-2 80l-35 64l-68 47l-105 31l-87 24l-54 34l-26 44l-2 56l2 15l19 54l38 39l53 22
l66 8h10l75 -12l51 -37l25 -66l-2 -95h72l2 14v111l-35 82l-75 51l-114 17l-97 -11l-77 -33l-55 -58l-29 -84l-3 -20l2 -72l31 -62l66 -48zM238 950l91 -110h64l121 110h-74l-78 -69l-57 69h-67z" />
    <glyph glyph-name="scaron" unicode="&#x161;" horiz-adv-x="522" 
d="M222 52l-65 8l-39 22l-18 35l-1 45h-69l-2 -13l3 -61l30 -51l62 -35l99 -13l85 11l64 30l42 46l19 59l1 8l-4 62l-30 46l-55 31l-78 17l-62 11l-40 15l-22 23l-7 30l9 46l27 31l43 17l56 6l62 -8l38 -23l18 -37v-51h68l2 13l-2 68l-30 53l-61 35l-95 13l-81 -10l-62 -27
l-41 -44l-20 -59l-1 -8l3 -55l28 -44l54 -31l84 -20l58 -11l40 -16l24 -24l7 -34l-9 -47l-26 -33l-44 -20zM152 780l109 -166h62l153 166h-73l-107 -113l-78 113h-66z" />
    <glyph glyph-name="Tcommaaccent" unicode="&#x162;" horiz-adv-x="515" 
d="M338 715h199l8 65h-469l-8 -65h198l-94 -715h72zM241 -56h-81l-9 -68h42l-11 -24l-17 -17l-21 -10l-24 -3l-5 -36l46 7l35 21l25 33l13 46z" />
    <glyph glyph-name="tcommaaccent" unicode="&#x163;" horiz-adv-x="400" 
d="M205 530l20 150h-70l-20 -150h-84l-8 -63h84l-42 -319l2 -73l26 -49l48 -28l64 -9l25 1l20 3l14 4l10 3l8 61l-10 -3l-15 -3l-20 -2l-22 -1l-36 4l-27 16l-16 31v52l41 312h168l8 63h-168zM216 -56h-81l-9 -68h42l-11 -24l-17 -17l-21 -10l-24 -3l-5 -36l46 7l35 21
l25 33l13 46z" />
    <glyph glyph-name="Tcaron" unicode="&#x164;" horiz-adv-x="515" 
d="M338 715h199l8 65h-469l-8 -65h198l-94 -715h72zM195 950l91 -110h64l121 110h-74l-78 -69l-57 69h-67z" />
    <glyph glyph-name="tcaron" unicode="&#x165;" horiz-adv-x="400" 
d="M205 530l20 150h-70l-20 -150h-84l-8 -63h84l-42 -319l2 -73l26 -49l48 -28l64 -9l25 1l20 3l14 4l10 3l8 61l-10 -3l-15 -3l-20 -2l-22 -1l-36 4l-27 16l-16 31v52l41 312h168l8 63h-168zM315 800l-25 -186h40l42 186h-57z" />
    <glyph glyph-name="Tbar" unicode="&#x166;" horiz-adv-x="515" 
d="M417 366l9 64h-126l38 285h199l8 65h-469l-8 -65h198l-38 -285h-125l-9 -64h126l-48 -366h72l48 366h125z" />
    <glyph glyph-name="tbar" unicode="&#x167;" horiz-adv-x="400" 
d="M296 233l9 64h-131l23 170h168l8 63h-168l20 150h-70l-20 -150h-84l-8 -63h84l-23 -170h-80l-9 -64h81l-11 -85l2 -73l26 -49l48 -28l64 -9l25 1l20 3l14 4l10 3l8 61l-10 -3l-15 -3l-20 -2l-22 -1l-36 4l-27 16l-16 31v52l10 78h130z" />
    <glyph glyph-name="Utilde" unicode="&#x168;" horiz-adv-x="639" 
d="M272 -11l110 14l83 43l56 78l31 118l71 538h-72l-70 -533l-23 -91l-43 -60l-61 -32l-80 -10l-77 10l-50 32l-24 59l1 92l70 533h-72l-71 -538l1 -118l38 -79l74 -43zM496 936l-5 -21l-10 -15l-14 -8l-16 -3l-28 9l-28 20l-32 20l-40 9l-33 -5l-28 -17l-21 -29l-11 -42h48
l5 21l10 15l14 8l16 3l28 -9l29 -20l31 -20l40 -9l33 5l28 17l21 29l11 42h-48z" />
    <glyph glyph-name="utilde" unicode="&#x169;" horiz-adv-x="528" 
d="M82 530l-49 -371l2 -69l26 -53l49 -35l74 -13l54 6l48 17l40 27l32 35v-74h60l13 144l51 386h-70l-52 -395l-23 -27l-33 -27l-43 -21l-53 -8l-49 7l-35 22l-19 36l-1 52l48 361h-70zM413 746l-6 -22l-9 -14l-13 -8l-14 -3l-31 9l-30 20l-34 20l-40 9l-34 -6l-28 -19
l-20 -32l-12 -46h53l5 22l10 14l12 8l14 3l31 -9l30 -20l34 -20l40 -9l34 6l28 19l21 32l12 46h-53z" />
    <glyph glyph-name="Umacron" unicode="&#x16a;" horiz-adv-x="639" 
d="M272 -11l110 14l83 43l56 78l31 118l71 538h-72l-70 -533l-23 -91l-43 -60l-61 -32l-80 -10l-77 10l-50 32l-24 59l1 92l70 533h-72l-71 -538l1 -118l38 -79l74 -43zM271 868h226l7 54h-226z" />
    <glyph glyph-name="umacron" unicode="&#x16b;" horiz-adv-x="528" 
d="M82 530l-49 -371l2 -69l26 -53l49 -35l74 -13l54 6l48 17l40 27l32 35v-74h60l13 144l51 386h-70l-52 -395l-23 -27l-33 -27l-43 -21l-53 -8l-49 7l-35 22l-19 36l-1 52l48 361h-70zM182 664h234l8 66h-233z" />
    <glyph glyph-name="Ubreve" unicode="&#x16c;" horiz-adv-x="639" 
d="M272 -11l110 14l83 43l56 78l31 118l71 538h-72l-70 -533l-23 -91l-43 -60l-61 -32l-80 -10l-77 10l-50 32l-24 59l1 92l70 533h-72l-71 -538l1 -118l38 -79l74 -43zM380 829l66 9l49 26l30 38l15 48h-57l-9 -30l-20 -24l-30 -15l-41 -6l-40 6l-26 15l-13 24l-1 30h-53
l2 -48l22 -38l42 -26z" />
    <glyph glyph-name="ubreve" unicode="&#x16d;" horiz-adv-x="528" 
d="M82 530l-49 -371l2 -69l26 -53l49 -35l74 -13l54 6l48 17l40 27l32 35v-74h60l13 144l51 386h-70l-52 -395l-23 -27l-33 -27l-43 -21l-53 -8l-49 7l-35 22l-19 36l-1 52l48 361h-70zM295 603l74 13l54 37l34 55l18 72h-58l-12 -50l-25 -38l-36 -25l-49 -9l-46 9l-29 25
l-13 38v50h-54v-72l23 -55l46 -37z" />
    <glyph glyph-name="Uring" unicode="&#x16e;" horiz-adv-x="639" 
d="M272 -11l110 14l83 43l56 78l31 118l71 538h-72l-70 -533l-23 -91l-43 -60l-61 -32l-80 -10l-77 10l-50 32l-24 59l1 92l70 533h-72l-71 -538l1 -118l38 -79l74 -43zM375 773l40 8l33 21l23 32l8 40l-6 35l-17 27l-27 18l-37 7l-40 -8l-33 -21l-23 -32l-8 -40l6 -35
l17 -27l27 -18zM375 811l-21 4l-15 10l-9 16l-3 19l5 28l15 20l21 11l24 4l21 -4l15 -10l9 -16l3 -19l-5 -28l-15 -20l-20 -11z" />
    <glyph glyph-name="uring" unicode="&#x16f;" horiz-adv-x="528" 
d="M82 530l-49 -371l2 -69l26 -53l49 -35l74 -13l54 6l48 17l40 27l32 35v-74h60l13 144l51 386h-70l-52 -395l-23 -27l-33 -27l-43 -21l-53 -8l-49 7l-35 22l-19 36l-1 52l48 361h-70zM295 603l40 8l33 21l23 32l8 40l-6 35l-17 27l-27 18l-37 7l-40 -8l-33 -21l-23 -32
l-8 -40l6 -35l17 -27l27 -18zM295 641l-21 4l-15 10l-9 16l-3 19l5 28l15 20l21 11l24 4l21 -4l15 -10l9 -16l3 -19l-5 -28l-15 -20l-20 -11z" />
    <glyph glyph-name="Uhungarumlaut" unicode="&#x170;" horiz-adv-x="639" 
d="M272 -11l110 14l83 43l56 78l31 118l71 538h-72l-70 -533l-23 -91l-43 -60l-61 -32l-80 -10l-77 10l-50 32l-24 59l1 92l70 533h-72l-71 -538l1 -118l38 -79l74 -43zM484 950l-75 -110h67l78 110h-70zM357 950l-73 -110h67l76 110h-70z" />
    <glyph glyph-name="uhungarumlaut" unicode="&#x171;" horiz-adv-x="528" 
d="M82 530l-49 -371l2 -69l26 -53l49 -35l74 -13l54 6l48 17l40 27l32 35v-74h60l13 144l51 386h-70l-52 -395l-23 -27l-33 -27l-43 -21l-53 -8l-49 7l-35 22l-19 36l-1 52l48 361h-70zM305 780l-106 -166h63l110 166h-67zM434 780l-112 -166h63l117 166h-68z" />
    <glyph glyph-name="Uogonek" unicode="&#x172;" horiz-adv-x="639" 
d="M272 -11h3l-24 -23l-18 -27l-13 -32l-4 -36l7 -36l20 -26l32 -15l42 -5l22 1l23 4l21 6l19 9l-12 46l-13 -5l-14 -5l-15 -2l-16 -1l-24 3l-19 8l-12 14l-4 20l9 40l24 34l32 25l35 14l68 28l53 49l36 70l22 95l71 538h-72l-70 -533l-23 -91l-43 -60l-61 -32l-80 -10
l-77 10l-50 32l-24 59l1 92l70 533h-72l-71 -538l1 -118l38 -79l74 -43z" />
    <glyph glyph-name="uogonek" unicode="&#x173;" horiz-adv-x="528" 
d="M82 530l-49 -371l2 -69l26 -53l49 -35l74 -13l54 6l48 17l40 27l32 35v-60l-37 -25l-31 -32l-21 -39l-8 -47l7 -36l20 -26l32 -15l42 -5l22 1l23 4l21 6l19 9l-12 46l-13 -5l-14 -5l-15 -2l-16 -1l-24 3l-19 8l-12 14l-4 20l9 39l25 32l32 24l34 18l13 144l51 386h-70
l-52 -395l-23 -27l-33 -27l-43 -21l-53 -8l-49 7l-35 22l-19 36l-1 52l48 361h-70z" />
    <glyph glyph-name="Wcircumflex" unicode="&#x174;" horiz-adv-x="895" 
d="M560 -8h99l248 788h-78l-213 -699l-69 699h-97l-252 -699l-30 699h-74l43 -788h98l256 714zM646 840l-91 110h-64l-121 -110h74l78 69l57 -69h67z" />
    <glyph glyph-name="wcircumflex" unicode="&#x175;" horiz-adv-x="717" 
d="M368 452l62 -452h93l183 530h-71l-152 -457l-63 457h-85l-182 -457l-33 457h-69l45 -530h92zM300 614l107 113l78 -113h66l-109 166h-62l-153 -166h73z" />
    <glyph glyph-name="Ycircumflex" unicode="&#x176;" horiz-adv-x="577" 
d="M307 236l303 544h-81l-248 -456l-132 456h-75l161 -544l-31 -236h72zM488 840l-91 110h-64l-121 -110h74l78 69l57 -69h67z" />
    <glyph glyph-name="ycircumflex" unicode="&#x177;" horiz-adv-x="484" 
d="M210 96l-95 434h-72l123 -510l-112 -220h81l104 220l257 510h-78zM191 614l107 113l78 -113h66l-109 166h-62l-153 -166h73z" />
    <glyph glyph-name="Ydieresis" unicode="&#x178;" horiz-adv-x="577" 
d="M307 236l303 544h-81l-248 -456l-132 456h-75l161 -544l-31 -236h72zM479 930h-79l-9 -70h79zM323 930h-79l-9 -70h79z" />
    <glyph glyph-name="Zacute" unicode="&#x179;" horiz-adv-x="563" 
d="M-4 50l-6 -50h483l8 65h-271l-126 -3l475 668l6 50h-463l-8 -65h251l126 3zM378 950l-75 -110h72l77 110h-74z" />
    <glyph glyph-name="zacute" unicode="&#x17a;" horiz-adv-x="463" 
d="M-8 48l-6 -48h391l8 63h-183l-118 -1l346 420l6 48h-371l-8 -63h163l118 1zM336 780l-112 -166h72l116 166h-76z" />
    <glyph glyph-name="Zdotaccent" unicode="&#x17b;" horiz-adv-x="563" 
d="M-4 50l-6 -50h483l8 65h-271l-126 -3l475 668l6 50h-463l-8 -65h251l126 3zM390 930h-79l-9 -70h79z" />
    <glyph glyph-name="zdotaccent" unicode="&#x17c;" horiz-adv-x="463" 
d="M-8 48l-6 -48h391l8 63h-183l-118 -1l346 420l6 48h-371l-8 -63h163l118 1zM322 745h-90l-12 -90h90z" />
    <glyph glyph-name="Zcaron" unicode="&#x17d;" horiz-adv-x="563" 
d="M-4 50l-6 -50h483l8 65h-271l-126 -3l475 668l6 50h-463l-8 -65h251l126 3zM216 950l91 -110h64l121 110h-74l-78 -69l-57 69h-67z" />
    <glyph glyph-name="zcaron" unicode="&#x17e;" horiz-adv-x="463" 
d="M-8 48l-6 -48h391l8 63h-183l-118 -1l346 420l6 48h-371l-8 -63h163l118 1zM120 780l109 -166h62l153 166h-73l-107 -113l-78 113h-66z" />
    <glyph glyph-name="Scommaaccent" unicode="&#x218;" horiz-adv-x="596" 
d="M286 371l85 -23l56 -34l29 -48l4 -61l-2 -15l-21 -61l-41 -42l-59 -25l-73 -8h-10l-72 11l-53 35l-29 62l2 92h-72l-2 -14l3 -107l41 -78l76 -49l108 -17l105 12l83 37l57 62l30 88l3 20l-2 80l-35 64l-68 47l-105 31l-87 24l-54 34l-26 44l-2 56l2 15l19 54l38 39l53 22
l66 8h10l75 -12l51 -37l25 -66l-2 -95h72l2 14v111l-35 82l-75 51l-114 17l-97 -11l-77 -33l-55 -58l-29 -84l-3 -20l2 -72l31 -62l66 -48zM284 -56h-81l-9 -68h42l-11 -24l-17 -17l-21 -10l-24 -3l-5 -36l46 7l35 21l25 33l13 46z" />
    <glyph glyph-name="scommaaccent" unicode="&#x219;" horiz-adv-x="519" 
d="M222 52l-65 8l-39 22l-18 35l-1 45h-69l-2 -13l3 -61l30 -51l62 -35l99 -13l85 11l64 30l42 46l19 59l1 8l-4 62l-30 46l-55 31l-78 17l-62 11l-40 15l-22 23l-7 30l9 46l27 31l43 17l56 6l62 -8l38 -23l18 -37v-51h68l2 13l-2 68l-30 53l-61 35l-95 13l-81 -10l-62 -27
l-41 -44l-20 -59l-1 -8l3 -55l28 -44l54 -31l84 -20l58 -11l40 -16l24 -24l7 -34l-9 -47l-26 -33l-44 -20zM245 -56h-81l-9 -68h42l-11 -24l-17 -17l-21 -10l-24 -3l-5 -36l46 7l35 21l25 33l13 46z" />
    <glyph glyph-name="Ymacron" unicode="&#x232;" horiz-adv-x="577" 
d="M307 236l303 544h-81l-248 -456l-132 456h-75l161 -544l-31 -236h72zM241 868h226l7 54h-226z" />
    <glyph glyph-name="ymacron" unicode="&#x233;" horiz-adv-x="484" 
d="M210 96l-95 434h-72l123 -510l-112 -220h81l104 220l257 510h-78zM170 664h234l8 66h-233z" />
    <glyph glyph-name="dotlessj" unicode="&#x237;" horiz-adv-x="216" 
d="M18 -49l-13 -48l-23 -30l-32 -16l-42 -5l-18 1l-17 2l-15 4l-10 3l-8 -61l9 -4l16 -4l21 -3l26 -1l65 8l52 26l37 46l20 68l77 593h-70z" />
    <glyph glyph-name="circumflex" unicode="&#x2c6;" horiz-adv-x="500" 
d="M192 614l107 113l78 -113h66l-109 166h-62l-153 -166h73z" />
    <glyph glyph-name="caron" unicode="&#x2c7;" horiz-adv-x="500" 
d="M141 780l109 -166h62l153 166h-73l-107 -113l-78 113h-66z" />
    <glyph glyph-name="breve" unicode="&#x2d8;" horiz-adv-x="500" 
d="M284 603l74 13l54 37l34 55l18 72h-58l-12 -50l-25 -38l-36 -25l-49 -9l-46 9l-29 25l-13 38v50h-54v-72l23 -55l46 -37z" />
    <glyph glyph-name="dotaccent" unicode="&#x2d9;" horiz-adv-x="500" 
d="M343 745h-90l-12 -90h90z" />
    <glyph glyph-name="ring" unicode="&#x2da;" horiz-adv-x="500" 
d="M284 603l40 8l33 21l23 32l8 40l-6 35l-17 27l-27 18l-37 7l-40 -8l-33 -21l-23 -32l-8 -40l6 -35l17 -27l27 -18zM284 641l-21 4l-15 10l-9 16l-3 19l5 28l15 20l21 11l24 4l21 -4l15 -10l9 -16l3 -19l-5 -28l-15 -20l-20 -11z" />
    <glyph glyph-name="ogonek" unicode="&#x2db;" horiz-adv-x="602" 
d="M234 0l-12 37l-52 -25l-46 -35l-34 -47l-13 -59l7 -36l20 -26l32 -15l42 -5l22 1l23 4l21 6l19 9l-12 46l-13 -5l-14 -5l-15 -2l-16 -1l-24 3l-19 8l-12 14l-4 20l9 39l25 32l32 24z" />
    <glyph glyph-name="tilde" unicode="&#x2dc;" horiz-adv-x="500" 
d="M402 746l-6 -22l-9 -14l-13 -8l-14 -3l-31 9l-30 20l-34 20l-40 9l-34 -6l-28 -19l-20 -32l-12 -46h53l5 22l10 14l12 8l14 3l31 -9l30 -20l34 -20l40 -9l34 6l28 19l21 32l12 46h-53z" />
    <glyph glyph-name="hungarumlaut" unicode="&#x2dd;" horiz-adv-x="500" 
d="M294 780l-106 -166h63l110 166h-67zM423 780l-112 -166h63l117 166h-68z" />
    <glyph glyph-name="Bdotaccent" unicode="&#x1e02;" horiz-adv-x="583" 
d="M326 715l60 -7l45 -23l27 -41l4 -62l-2 -16l-19 -62l-38 -41l-52 -23l-63 -7h-134l37 282h135zM300 368l58 -9l46 -27l27 -46l4 -66l-2 -16l-20 -65l-39 -43l-55 -24l-67 -7h-147l40 303h155zM127 780l-102 -780h219l98 11l79 35l57 62l29 94l2 16l-2 69l-23 55l-39 39
l-50 20l50 20l42 35l31 48l16 60l2 16l-6 92l-41 62l-69 35l-89 11h-204zM386 930h-79l-9 -70h79z" />
    <glyph glyph-name="bdotaccent" unicode="&#x1e03;" horiz-adv-x="533" 
d="M213 930h-79l-9 -70h79zM105 138l35 263l25 29l32 25l38 17l47 6l64 -14l42 -41l20 -64l-2 -86l-3 -22l-20 -83l-35 -63l-50 -39l-67 -14l-47 8l-36 21l-26 28zM192 800h-70l-85 -650l-25 -150h58l19 77l20 -30l32 -29l44 -21l55 -8l94 20l69 54l46 84l25 106l3 22l1 105
l-28 85l-59 56l-92 20l-47 -5l-41 -14l-35 -21l-27 -27z" />
    <glyph glyph-name="Ddotaccent" unicode="&#x1e0a;" horiz-adv-x="632" 
d="M105 65l86 650h126l96 -16l67 -53l34 -95l-2 -141l-5 -40l-33 -138l-59 -95l-81 -54l-103 -18h-126zM586 410v172l-47 114l-89 64l-126 20h-197l-102 -780h204l131 21l104 65l75 115l42 169zM404 930h-79l-9 -70h79z" />
    <glyph glyph-name="ddotaccent" unicode="&#x1e0b;" horiz-adv-x="540" 
d="M551 930h-79l-9 -70h79zM280 478l47 -8l36 -21l26 -28l17 -30l-34 -263l-26 -29l-32 -24l-38 -17l-47 -6l-64 14l-41 41l-21 64l2 86l3 22l20 83l35 63l50 39zM212 -11l48 6l44 15l38 25l29 32v-67h60l13 144l86 656h-70l-44 -335l-18 24l-30 25l-42 19l-55 8l-94 -20
l-69 -54l-46 -84l-25 -106l-3 -22l-1 -105l28 -85l59 -56z" />
    <glyph glyph-name="Fdotaccent" unicode="&#x1e1e;" horiz-adv-x="513" 
d="M412 930h-79l-9 -70h79zM127 780l-102 -780h72l47 366h296l9 64h-296l37 285h348l8 65h-419z" />
    <glyph glyph-name="fdotaccent" unicode="&#x1e1f;" horiz-adv-x="380" 
d="M351 930h-79l-9 -70h79zM221 650l13 48l23 30l33 16l42 4l18 -1l17 -2l15 -3l10 -3l8 60l-9 4l-16 4l-21 3l-26 1l-65 -8l-53 -26l-37 -45l-20 -68l-18 -134h-84l-8 -63h84l-61 -467h70l61 467h148l8 63h-148z" />
    <glyph glyph-name="Mdotaccent" unicode="&#x1e40;" horiz-adv-x="803" 
d="M698 655l-27 -174l-62 -481h72l102 780h-103l-314 -656l-140 656h-99l-102 -780h72l62 481l20 174l141 -655h65zM515 930h-79l-9 -70h79z" />
    <glyph glyph-name="mdotaccent" unicode="&#x1e41;" horiz-adv-x="803" 
d="M499 745h-90l-12 -90h90zM696 0l50 384l-3 68l-26 49l-46 30l-64 10l-52 -7l-46 -19l-39 -28l-32 -34l-16 36l-27 28l-40 18l-53 6l-51 -7l-45 -17l-37 -27l-29 -31v71h-60l-13 -144l-51 -386h70l52 398l23 27l32 26l39 19l46 8l43 -5l31 -18l17 -32l1 -49l-49 -374h70
l52 398l23 27l32 26l39 19l46 8l43 -5l31 -18l17 -32l1 -49l-49 -374h70z" />
    <glyph glyph-name="Pdotaccent" unicode="&#x1e56;" horiz-adv-x="569" 
d="M147 382l43 333h145l53 -6l51 -25l35 -49l5 -82l-2 -15l-26 -81l-46 -47l-55 -22l-54 -6h-149zM138 317h147l84 9l80 33l64 66l37 109l3 20l-6 111l-48 70l-74 35l-84 10h-214l-102 -780h72zM399 930h-79l-9 -70h79z" />
    <glyph glyph-name="pdotaccent" unicode="&#x1e57;" horiz-adv-x="533" 
d="M368 745h-90l-12 -90h90zM231 52l-47 8l-36 21l-26 28l-17 30l34 263l26 29l32 24l38 17l47 6l64 -14l42 -41l20 -64l-2 -86l-3 -22l-20 -83l-35 -63l-50 -39zM299 541l-48 -6l-44 -15l-38 -25l-29 -32v67h-60l-13 -144l-77 -586h70l35 265l18 -24l30 -24l42 -20l55 -8
l94 20l69 54l46 84l25 106l3 22l1 105l-28 85l-59 56z" />
    <glyph glyph-name="Tdotaccent" unicode="&#x1e6a;" horiz-adv-x="515" 
d="M338 715h199l8 65h-469l-8 -65h198l-94 -715h72zM369 930h-79l-9 -70h79z" />
    <glyph glyph-name="tdotaccent" unicode="&#x1e6b;" horiz-adv-x="400" 
d="M247 810h-79l-9 -70h79zM205 530l20 150h-70l-20 -150h-84l-8 -63h84l-42 -319l2 -73l26 -49l48 -28l64 -9l25 1l20 3l14 4l10 3l8 61l-10 -3l-15 -3l-20 -2l-22 -1l-36 4l-27 16l-16 31v52l41 312h168l8 63h-168z" />
    <glyph glyph-name="Wgrave" unicode="&#x1e80;" horiz-adv-x="895" 
d="M560 -8h99l248 788h-78l-213 -699l-69 699h-97l-252 -699l-30 699h-74l43 -788h98l256 714zM425 950l47 -110h72l-45 110h-74z" />
    <glyph glyph-name="wgrave" unicode="&#x1e81;" horiz-adv-x="717" 
d="M368 452l62 -452h93l183 530h-71l-152 -457l-63 457h-85l-182 -457l-33 457h-69l45 -530h92zM281 780l72 -166h72l-68 166h-76z" />
    <glyph glyph-name="Wacute" unicode="&#x1e82;" horiz-adv-x="895" 
d="M560 -8h99l248 788h-78l-213 -699l-69 699h-97l-252 -699l-30 699h-74l43 -788h98l256 714zM547 950l-75 -110h72l77 110h-74z" />
    <glyph glyph-name="wacute" unicode="&#x1e83;" horiz-adv-x="717" 
d="M368 452l62 -452h93l183 530h-71l-152 -457l-63 457h-85l-182 -457l-33 457h-69l45 -530h92zM465 780l-112 -166h72l116 166h-76z" />
    <glyph glyph-name="Wdieresis" unicode="&#x1e84;" horiz-adv-x="895" 
d="M560 -8h99l248 788h-78l-213 -699l-69 699h-97l-252 -699l-30 699h-74l43 -788h98l256 714zM637 930h-79l-9 -70h79zM481 930h-79l-9 -70h79z" />
    <glyph glyph-name="wdieresis" unicode="&#x1e85;" horiz-adv-x="717" 
d="M368 452l62 -452h93l183 530h-71l-152 -457l-63 457h-85l-182 -457l-33 457h-69l45 -530h92zM535 745h-90l-12 -90h90zM368 745h-90l-12 -90h90z" />
    <glyph glyph-name="Eszett" unicode="&#x1e9e;" horiz-adv-x="754" 
d="M314 438l-6 -48l151 -19l79 -18l55 -33l29 -49l3 -66l-2 -15l-20 -61l-39 -42l-51 -25l-58 -8h-10l-63 11l-48 35l-25 62l3 92h-72l-2 -14l1 -107l37 -78l70 -49l101 -17l90 12l75 37l55 62l29 88l3 20l-4 84l-39 68l-70 48l-100 26l-88 11l186 261l6 45l-38 18l-45 13
l-51 7l-55 2l-119 -14l-93 -43l-64 -78l-34 -118l-71 -538h72l70 533l27 91l50 60l71 32l89 10l31 -1l28 -2l26 -5l24 -7z" />
    <glyph glyph-name="Ygrave" unicode="&#x1ef2;" horiz-adv-x="577" 
d="M307 236l303 544h-81l-248 -456l-132 456h-75l161 -544l-31 -236h72zM267 950l47 -110h72l-45 110h-74z" />
    <glyph glyph-name="ygrave" unicode="&#x1ef3;" horiz-adv-x="484" 
d="M210 96l-95 434h-72l123 -510l-112 -220h81l104 220l257 510h-78zM172 780l72 -166h72l-68 166h-76z" />
    <glyph glyph-name="enspace" unicode="&#x2002;" horiz-adv-x="500" 
 />
    <glyph glyph-name="emspace" unicode="&#x2003;" horiz-adv-x="1000" 
 />
    <glyph glyph-name="threeperemspace" unicode="&#x2004;" horiz-adv-x="333" 
 />
    <glyph glyph-name="fourperemspace" unicode="&#x2005;" horiz-adv-x="250" 
 />
    <glyph glyph-name="sixperemspace" unicode="&#x2006;" horiz-adv-x="167" 
 />
    <glyph glyph-name="figurespace" unicode="&#x2007;" horiz-adv-x="600" 
 />
    <glyph glyph-name="punctuationspace" unicode="&#x2008;" horiz-adv-x="180" 
 />
    <glyph glyph-name="thinspace" unicode="&#x2009;" horiz-adv-x="150" 
 />
    <glyph glyph-name="hairspace" unicode="&#x200a;" horiz-adv-x="50" 
 />
    <glyph glyph-name="zerowidthspace" unicode="&#x200b;" horiz-adv-x="0" 
 />
    <glyph glyph-name="figuredash" unicode="&#x2012;" horiz-adv-x="600" 
d="M32 318h520l9 64h-520z" />
    <glyph glyph-name="endash" unicode="&#x2013;" horiz-adv-x="500" 
d="M32 318h420l9 64h-420z" />
    <glyph glyph-name="emdash" unicode="&#x2014;" horiz-adv-x="1000" 
d="M32 318h920l9 64h-920z" />
    <glyph glyph-name="uni2015" unicode="&#x2015;" horiz-adv-x="1200" 
d="M32 318h1120l9 64h-1120z" />
    <glyph glyph-name="doublebar" unicode="&#x2016;" horiz-adv-x="327" 
d="M126 -120h70l126 960h-70zM1 -120h70l126 960h-70z" />
    <glyph glyph-name="quoteleft" unicode="&#x2018;" horiz-adv-x="217" 
d="M91 586h90l12 90h-45l11 36l17 23l22 13l27 4l6 43l-50 -8l-38 -26l-27 -42l-15 -58z" />
    <glyph glyph-name="quoteright" unicode="&#x2019;" horiz-adv-x="217" 
d="M206 780h-90l-12 -90h45l-11 -36l-17 -23l-22 -13l-27 -4l-6 -43l50 8l38 26l27 42l15 58z" />
    <glyph glyph-name="quotesinglbase" unicode="&#x201a;" horiz-adv-x="217" 
d="M116 90h-90l-12 -90h45l-11 -36l-17 -23l-22 -13l-27 -4l-6 -43l50 8l38 26l27 42l15 58z" />
    <glyph glyph-name="reversequoteleft" unicode="&#x201b;" horiz-adv-x="217" 
d="M116 780l-10 -74v-59l17 -42l32 -26l46 -8l6 43l-28 4l-21 12l-12 24v36h48l12 90h-90z" />
    <glyph glyph-name="quotedblleft" unicode="&#x201c;" horiz-adv-x="363" 
d="M91 586h90l12 90h-45l11 36l17 23l22 13l27 4l6 43l-50 -8l-38 -26l-27 -42l-15 -58zM236 586h90l12 90h-45l11 36l17 23l22 13l27 4l6 43l-50 -8l-38 -26l-27 -42l-15 -58z" />
    <glyph glyph-name="quotedblright" unicode="&#x201d;" horiz-adv-x="363" 
d="M351 780h-90l-12 -90h45l-11 -36l-17 -23l-22 -13l-27 -4l-6 -43l50 8l38 26l27 42l15 58zM206 780h-90l-12 -90h45l-11 -36l-17 -23l-22 -13l-27 -4l-6 -43l50 8l38 26l27 42l15 58z" />
    <glyph glyph-name="quotedblbase" unicode="&#x201e;" horiz-adv-x="363" 
d="M261 90h-90l-12 -90h45l-11 -36l-17 -23l-22 -13l-27 -4l-6 -43l50 8l38 26l27 42l15 58zM116 90h-90l-12 -90h45l-11 -36l-17 -23l-22 -13l-27 -4l-6 -43l50 8l38 26l27 42l15 58z" />
    <glyph glyph-name="reversequotedblleft" unicode="&#x201f;" horiz-adv-x="363" 
d="M262 780l-10 -74v-59l17 -42l32 -26l46 -8l6 43l-28 4l-21 12l-12 24v36h48l12 90h-90zM116 780l-10 -74v-59l17 -42l32 -26l46 -8l6 43l-28 4l-21 12l-12 24v36h48l12 90h-90z" />
    <glyph glyph-name="dagger" unicode="&#x2020;" horiz-adv-x="389" 
d="M49 593l139 5l6 42l-137 5zM403 645l-139 -5l-5 -42l137 -5zM224 800l-14 -146h42l25 146h-53zM179 458l-12 -127h43l22 127l11 126h-43z" />
    <glyph glyph-name="daggerdbl" unicode="&#x2021;" horiz-adv-x="389" 
d="M238 511l5 73h-43l-15 -73l-4 -73h42zM21 376l139 5l5 43l-137 5zM374 429l-138 -5l-5 -43l137 -5zM49 593l139 5l6 42l-137 5zM403 645l-139 -5l-5 -42l137 -5zM224 800l-14 -146h42l25 146h-53zM150 241l-11 -126h43l21 126l12 126h-43z" />
    <glyph glyph-name="bullet" unicode="&#x2022;" horiz-adv-x="397" 
d="M343 481h-262l-34 -262h262z" />
    <glyph glyph-name="ellipsis" unicode="&#x2026;" horiz-adv-x="1000" 
d="M828 90h-90l-12 -90h90zM508 90h-90l-12 -90h90zM188 90h-90l-12 -90h90z" />
    <glyph glyph-name="perthousand" unicode="&#x2030;" horiz-adv-x="1308" 
d="M909 163l5 -74l31 -54l52 -34l70 -12l70 12l54 35l38 54l18 69l1 9l-5 74l-30 54l-53 34l-70 12l-70 -12l-54 -35l-38 -54l-18 -69zM970 170l12 48l23 35l35 22l46 8h8l45 -8l31 -23l16 -36l2 -46l-1 -9l-12 -48l-23 -35l-35 -22l-46 -8h-8l-45 8l-31 23l-16 36l-2 46z
M249 791l-70 -12l-54 -35l-38 -54l-18 -69l-1 -9l5 -74l31 -54l52 -34l70 -12l70 12l54 35l38 54l18 69l1 9l2 25l-2 22l-4 19l-7 16l20 -4l22 -3l25 -3l27 -1l40 2l35 5l24 5l12 3l-385 -703h68l400 732l7 49l-32 -10l-48 -10l-57 -9l-57 -3l-44 1l-44 5l-43 8l-41 14
l-15 6l-17 4l-20 3zM129 619l12 48l23 35l35 22l46 8h8l45 -8l31 -23l16 -36l2 -46l-1 -9l-12 -48l-23 -35l-35 -22l-46 -8h-8l-45 8l-31 23l-16 36l-2 46zM519 163l5 -74l31 -54l52 -34l70 -12l70 12l54 35l38 54l18 69l1 9l-5 74l-30 54l-53 34l-70 12l-70 -12l-54 -35
l-38 -54l-18 -69zM580 170l12 48l23 35l35 22l46 8h8l45 -8l31 -23l16 -36l2 -46l-1 -9l-12 -48l-23 -35l-35 -22l-46 -8h-8l-45 8l-31 23l-16 36l-2 46z" />
    <glyph glyph-name="tripleprime" unicode="&#x2034;" horiz-adv-x="460" 
d="M364 780l-21 -269h50l50 269h-79zM243 780l-21 -269h50l50 269h-79zM122 780l-21 -269h50l50 269h-79z" />
    <glyph glyph-name="guilsinglleft" unicode="&#x2039;" horiz-adv-x="304" 
d="M273 524l-224 -152l-8 -62l184 -153l9 67l-134 114l164 113z" />
    <glyph glyph-name="guilsinglright" unicode="&#x203a;" horiz-adv-x="304" 
d="M21 157l224 152l8 62l-184 153l-9 -67l134 -114l-164 -113z" />
    <glyph glyph-name="interrobang" unicode="&#x203d;" horiz-adv-x="455" 
d="M234 90h-90l-12 -90h90zM383 613l-13 -77l-32 -62l-43 -56l-45 -57l58 362l34 -13l23 -23l14 -33zM226 189l51 125l78 85l71 87l31 132l-10 72l-32 55l-57 34l-83 12l-98 -19l-66 -54l-42 -86l-24 -114l-2 -14h71l14 80l22 64l33 47l48 26l-52 -532h47z" />
    <glyph glyph-name="fraction" unicode="&#x2044;" horiz-adv-x="200" 
d="M-201 0l678 780h-70l-678 -780h70z" />
    <glyph glyph-name="uni2070" unicode="&#x2070;" horiz-adv-x="299" 
d="M129 668l6 28l13 18l19 11l26 3h3l26 -4l16 -11l9 -19v-25l-22 -168l-7 -27l-13 -18l-18 -11l-26 -3h-3l-26 4l-17 11l-8 19v25zM313 669l-2 47l-20 37l-39 24l-56 9l-55 -8l-40 -23l-25 -37l-13 -49l-22 -168l2 -47l20 -37l38 -25l57 -9l55 8l40 23l25 37l13 50z" />
    <glyph glyph-name="uni2074" unicode="&#x2074;" 
d="M217 687l-6 -42l-15 -111h-61l-36 -1zM233 390l12 95h54l7 49h-54l32 246h-56l-195 -255l-5 -40h162l-13 -95h56z" />
    <glyph glyph-name="uni2075" unicode="&#x2075;" 
d="M40 515l-1 -8l1 -52l19 -39l38 -25l60 -8l53 9l41 25l29 39l14 51l1 8l-2 56l-21 39l-37 23l-51 7l-22 -2l-21 -7l-18 -8l-13 -10l21 117h188l6 50h-237l-39 -217l47 -15l15 18l18 14l22 7l25 3h6l26 -5l19 -13l11 -24l1 -33l-1 -8l-10 -33l-18 -23l-24 -14l-26 -4h-6
l-28 4l-20 14l-10 25l1 39h-57z" />
    <glyph glyph-name="uni2076" unicode="&#x2076;" 
d="M183 586l26 -5l19 -13l10 -22l1 -31l-1 -8l-10 -33l-18 -23l-24 -14l-26 -4h-6l-25 5l-18 13l-11 22l-3 29v12l2 11l1 9l1 7l15 18l18 14l21 10l22 3h6zM313 786l-52 -4l-50 -12l-47 -24l-42 -36l-29 -38l-23 -40l-15 -45l-10 -51l-1 -8l1 -61l20 -46l38 -28l54 -10l53 9
l41 25l29 39l14 51l1 8l-2 53l-20 38l-32 22l-42 8l-25 -2l-21 -7l-19 -9l-15 -12l8 19l9 18l12 18l15 17l32 26l35 18l37 11l40 3z" />
    <glyph glyph-name="uni2077" unicode="&#x2077;" 
d="M57 640h53l13 91h84l56 1l-188 -342h62l191 350l5 40h-257z" />
    <glyph glyph-name="uni2078" unicode="&#x2078;" 
d="M154 432l-25 4l-19 12l-11 20l-2 28l1 8l7 25l15 19l22 12l28 4h10l26 -4l19 -12l10 -20l1 -28l-1 -8l-9 -28l-17 -19l-23 -10l-25 -3h-7zM199 736l26 -4l19 -11l12 -19l2 -26l-1 -8l-7 -23l-15 -17l-22 -10l-28 -4h-9l-26 4l-19 12l-10 19l-2 24l1 8l9 26l16 17l23 9
l25 3h6zM157 382l54 8l41 24l26 34l13 43l1 8v31l-8 27l-16 20l-23 12l25 9l21 18l15 25l8 31l1 8l-3 41l-21 34l-39 23l-56 8l-53 -8l-40 -22l-26 -33l-13 -42l-1 -8l1 -30l9 -24l17 -19l22 -11l-25 -10l-22 -20l-16 -27l-8 -31l-1 -8l2 -41l19 -35l37 -26z" />
    <glyph glyph-name="uni2079" unicode="&#x2079;" horiz-adv-x="299" 
d="M171 583l-26 5l-19 13l-10 23l-1 30l1 8l10 34l18 23l24 13l26 4h6l25 -5l18 -13l11 -22l3 -29v-12l-2 -10l-1 -10l-1 -7l-15 -18l-18 -14l-21 -10l-22 -3h-6zM39 383l52 4l51 12l48 24l42 36l29 38l23 40l15 45l10 51l1 8l-1 61l-20 46l-38 28l-54 10l-53 -9l-41 -25
l-29 -39l-14 -51l-1 -8l2 -53l20 -38l32 -22l42 -8l25 2l21 7l19 9l15 12l-8 -19l-9 -18l-12 -18l-15 -17l-32 -26l-36 -18l-38 -11l-40 -3z" />
    <glyph glyph-name="uni207A" unicode="&#x207a;" 
d="M169 712l-13 -102h-102l-8 -51h102l-13 -101h51l13 101h102l8 51h-103l13 102h-50z" />
    <glyph glyph-name="uni207B" unicode="&#x207b;" 
d="M46 559h255l8 51h-255z" />
    <glyph glyph-name="uni207C" unicode="&#x207c;" 
d="M37 503h255l8 51h-255zM55 615h255l8 51h-255z" />
    <glyph glyph-name="uni207D" unicode="&#x207d;" horiz-adv-x="169" 
d="M53 584l-1 -57l7 -53l14 -47l17 -37h56l-17 37l-14 45l-8 52l2 60l1 8l13 58l21 51l26 44l28 35h-60l-28 -34l-25 -42l-19 -50l-12 -62z" />
    <glyph glyph-name="uni207E" unicode="&#x207e;" horiz-adv-x="168" 
d="M170 586l1 57l-7 54l-14 46l-17 37h-56l17 -37l14 -45l8 -52l-2 -60l-1 -8l-13 -58l-21 -51l-26 -44l-28 -35h60l28 34l25 42l19 50l12 62z" />
    <glyph glyph-name="uni2080" unicode="&#x2080;" horiz-adv-x="298" 
d="M78 278l6 28l13 18l19 11l26 3h3l26 -4l16 -11l9 -19v-25l-22 -168l-7 -27l-13 -18l-18 -11l-26 -3h-3l-26 4l-17 11l-8 19v25zM262 279l-2 47l-20 37l-39 24l-56 9l-55 -8l-40 -23l-25 -37l-13 -49l-22 -168l2 -47l20 -37l38 -25l57 -9l55 8l40 23l25 37l13 50z" />
    <glyph glyph-name="uni2081" unicode="&#x2081;" 
d="M228 0l7 49h-95l45 342h-40l-132 -83l22 -42l85 53l-36 -270h-94l-7 -49h245z" />
    <glyph glyph-name="uni2082" unicode="&#x2082;" horiz-adv-x="299" 
d="M233 49h-173l144 133l21 21l18 22l12 24l7 29l1 8l-3 42l-19 35l-37 24l-58 9l-55 -8l-39 -23l-26 -36l-13 -47l-3 -22h56l9 40l17 27l23 14l28 5h6l25 -4l20 -11l11 -20l1 -29l-1 -8l-4 -17l-8 -16l-12 -16l-18 -17l-182 -168l-5 -40h250z" />
    <glyph glyph-name="uni2083" unicode="&#x2083;" horiz-adv-x="299" 
d="M46 125h-57l-1 -8l1 -52l19 -39l38 -25l60 -8l53 8l40 23l28 34l13 43l1 8v31l-8 27l-16 20l-23 12l25 9l21 18l15 25l8 31l1 8l-3 41l-21 34l-38 23l-56 8l-55 -8l-39 -23l-26 -36l-13 -47l-3 -22h56l9 40l17 27l23 14l28 5h6l25 -3l20 -11l11 -19l2 -27l-1 -8l-7 -24
l-15 -17l-22 -10l-28 -3h-54l-6 -50h55l26 -4l19 -12l10 -20l1 -28l-1 -8l-9 -28l-17 -18l-23 -10l-25 -3h-7l-28 4l-20 14l-10 25z" />
    <glyph glyph-name="uni2084" unicode="&#x2084;" 
d="M166 297l-6 -42l-15 -111h-61l-36 -1zM182 0l12 95h54l7 49h-54l32 246h-56l-195 -255l-5 -40h162l-13 -95h56z" />
    <glyph glyph-name="uni2085" unicode="&#x2085;" 
d="M-11 125l-1 -8l1 -52l19 -39l38 -25l60 -8l53 9l41 25l29 39l14 51l1 8l-2 56l-21 39l-37 23l-51 7l-22 -2l-21 -7l-18 -8l-13 -10l21 117h188l6 50h-237l-39 -217l47 -15l15 18l18 14l22 7l25 3h6l26 -5l19 -13l11 -24l1 -33l-1 -8l-10 -33l-18 -23l-24 -14l-26 -4h-6
l-28 4l-20 14l-10 25l1 39h-57z" />
    <glyph glyph-name="uni2086" unicode="&#x2086;" 
d="M132 196l26 -5l19 -13l10 -22l1 -31l-1 -8l-10 -33l-18 -23l-24 -14l-26 -4h-6l-25 5l-18 13l-11 22l-3 29v12l2 11l1 9l1 7l15 18l18 14l21 10l22 3h6zM262 396l-52 -4l-50 -12l-47 -24l-42 -36l-29 -38l-23 -40l-15 -45l-10 -51l-1 -8l1 -61l20 -46l38 -28l54 -10l53 9
l41 25l29 39l14 51l1 8l-2 53l-20 38l-32 22l-42 8l-25 -2l-21 -7l-19 -9l-15 -12l8 19l9 18l12 18l15 17l32 26l35 18l37 11l40 3z" />
    <glyph glyph-name="uni2087" unicode="&#x2087;" 
d="M6 250h53l13 91h84l56 1l-188 -342h62l191 350l5 40h-257z" />
    <glyph glyph-name="uni2088" unicode="&#x2088;" horiz-adv-x="299" 
d="M103 42l-25 4l-19 12l-11 20l-2 28l1 8l7 25l15 19l22 12l28 4h10l26 -4l19 -12l10 -20l1 -28l-1 -8l-9 -28l-17 -19l-23 -10l-25 -3h-7zM148 346l26 -4l19 -11l12 -19l2 -26l-1 -8l-7 -23l-15 -17l-22 -10l-28 -4h-9l-26 4l-19 12l-10 19l-2 24l1 8l9 26l16 17l23 9
l25 3h6zM106 -8l54 8l41 24l26 34l13 43l1 8v31l-8 27l-16 20l-23 12l25 9l21 18l15 25l8 31l1 8l-3 41l-21 34l-39 23l-56 8l-53 -8l-40 -22l-26 -33l-13 -42l-1 -8l1 -30l9 -24l17 -19l22 -11l-25 -10l-22 -20l-16 -27l-8 -31l-1 -8l2 -41l19 -35l37 -26z" />
    <glyph glyph-name="uni2089" unicode="&#x2089;" horiz-adv-x="298" 
d="M120 193l-26 5l-19 13l-10 23l-1 30l1 8l10 34l18 23l24 13l26 4h6l25 -5l18 -13l11 -22l3 -29v-12l-2 -10l-1 -10l-1 -7l-15 -18l-18 -14l-21 -10l-22 -3h-6zM-12 -7l52 4l51 12l48 24l42 36l29 38l23 40l15 45l10 51l1 8l-1 61l-20 46l-38 28l-54 10l-53 -9l-41 -25
l-29 -39l-14 -51l-1 -8l2 -53l20 -38l32 -22l42 -8l25 2l21 7l19 9l15 12l-8 -19l-9 -18l-12 -18l-15 -17l-32 -26l-36 -18l-38 -11l-40 -3z" />
    <glyph glyph-name="uni208A" unicode="&#x208a;" 
d="M118 322l-13 -102h-102l-8 -51h102l-13 -101h51l13 101h102l8 51h-103l13 102h-50z" />
    <glyph glyph-name="uni208B" unicode="&#x208b;" 
d="M-5 169h255l8 51h-255z" />
    <glyph glyph-name="uni208C" unicode="&#x208c;" 
d="M-14 113h255l8 51h-255zM4 225h255l8 51h-255z" />
    <glyph glyph-name="uni208D" unicode="&#x208d;" horiz-adv-x="169" 
d="M2 194l-1 -57l7 -53l14 -47l17 -37h56l-17 37l-14 45l-8 52l2 60l1 8l13 58l21 51l26 44l28 35h-60l-28 -34l-25 -42l-19 -50l-12 -62z" />
    <glyph glyph-name="uni208E" unicode="&#x208e;" horiz-adv-x="167" 
d="M119 196l1 57l-7 54l-14 46l-17 37h-56l17 -37l14 -45l8 -52l-2 -60l-1 -8l-13 -58l-21 -51l-26 -44l-28 -35h60l28 34l25 42l19 50l12 62z" />
    <glyph glyph-name="Euro" unicode="&#x20ac;" horiz-adv-x="597" 
d="M98 295l6 -135l36 -95l65 -57l96 -19l93 16l68 46l46 77l26 108l2 14h-70l-20 -85l-33 -61l-46 -38l-61 -12h-7l-60 14l-42 43l-22 75l-3 109h194l41 65h-229l3 22l2 19l2 14l1 5h237l40 65h-266l31 109l43 75l54 43l64 14h7l61 -13l37 -40l14 -70l-7 -103h68l4 29l3 114
l-27 82l-61 49l-95 17l-97 -20l-78 -58l-58 -95l-38 -133h-74l-8 -65h72l-1 -5l-2 -14l-2 -19l-3 -22h-72l-9 -65h75z" />
    <glyph glyph-name="ruble" unicode="&#x20bd;" horiz-adv-x="596" 
d="M184 382l43 333h133l53 -6l51 -25l35 -49l5 -82l-2 -15l-26 -81l-46 -47l-55 -22l-54 -6h-137zM175 317h135l84 9l80 33l64 66l37 109l3 20l-6 111l-48 70l-74 35l-84 10h-202l-52 -398h-88l-9 -65h88l-11 -87h-88l-9 -65h88l-21 -165h72l21 165h209l8 65h-208z" />
    <glyph glyph-name="numero" unicode="&#x2116;" horiz-adv-x="1075" 
d="M725 578l-2 -81l23 -63l51 -41l80 -14l70 14l55 39l39 63l22 84l2 13l2 81l-23 63l-51 41l-80 14l-70 -14l-55 -39l-39 -63l-22 -84zM685 212h323l8 57h-323zM791 591l15 63l25 45l34 27l46 9l49 -10l30 -28l14 -45l-3 -60l-2 -13l-15 -63l-25 -45l-34 -27l-46 -9l-49 10
l-30 28l-14 45l3 60zM638 780h-70l-62 -475l-21 -183l-282 658h-76l-102 -780h70l62 475l21 183l282 -658h76z" />
    <glyph glyph-name="published" unicode="&#x2117;" horiz-adv-x="920" 
d="M368 396v175h107l31 -3l29 -12l21 -26l8 -43v-7l-8 -43l-21 -25l-29 -13l-31 -3h-107zM368 342h115l53 6l47 21l35 41l13 68v12l-13 67l-35 41l-47 21l-53 6h-182v-470h67v187zM102 390l28 139l77 114l114 77l139 28l139 -28l114 -77l77 -114l28 -139l-28 -139l-77 -114
l-114 -77l-139 -28l-139 28l-114 77l-77 114zM59 390l32 -156l86 -127l127 -86l156 -32l156 32l127 86l86 127l32 156l-32 156l-86 127l-127 86l-156 32l-156 -32l-127 -86l-86 -127z" />
    <glyph glyph-name="servicemark" unicode="&#x2120;" horiz-adv-x="523" 
d="M431 734l-2 -67v-137h42v270h-64l-55 -203l-55 203h-63v-270h42v137l-2 67l55 -204h47zM101 649l26 -6l18 -9l9 -13l3 -17v-2l-3 -18l-8 -13l-14 -8l-21 -3h-2l-23 4l-15 12l-8 19l-3 26h-42v-4l6 -41l17 -29l28 -19l40 -6l40 6l28 17l17 26l6 34v4l-5 30l-14 22l-26 16
l-38 9l-27 5l-16 9l-9 12l-2 16v3l3 15l9 12l14 7l19 2h2l22 -3l14 -11l7 -19l2 -28h42v8l-5 40l-15 28l-27 17l-41 6l-37 -5l-28 -16l-17 -24l-6 -32v-4l4 -29l14 -22l24 -15z" />
    <glyph glyph-name="trademark" unicode="&#x2122;" horiz-adv-x="523" 
d="M431 734l-2 -67v-137h42v270h-64l-55 -203l-55 203h-63v-270h42v137l-2 67l55 -204h47zM131 762h70v38h-182v-38h70v-232h42v232z" />
    <glyph glyph-name="uni2153" unicode="&#x2153;" horiz-adv-x="800" 
d="M546 125h-57l-1 -8l1 -52l19 -39l38 -25l60 -8l53 8l40 23l28 34l13 43l1 8v31l-8 27l-16 20l-23 12l25 9l21 18l15 25l8 31l1 8l-3 41l-21 34l-38 23l-56 8l-55 -8l-39 -23l-26 -36l-13 -47l-3 -22h56l9 40l17 27l23 14l28 5h6l25 -3l20 -11l11 -19l2 -27l-1 -8l-7 -24
l-15 -17l-22 -10l-28 -3h-54l-6 -50h55l26 -4l19 -12l10 -20l1 -28l-1 -8l-9 -28l-17 -18l-23 -10l-25 -3h-7l-28 4l-20 14l-10 25zM99 0l678 780h-70l-678 -780h70zM279 390l7 49h-95l45 342h-40l-132 -83l22 -42l85 53l-36 -270h-94l-7 -49h245z" />
    <glyph glyph-name="uni2154" unicode="&#x2154;" horiz-adv-x="800" 
d="M546 125h-57l-1 -8l1 -52l19 -39l38 -25l60 -8l53 8l40 23l28 34l13 43l1 8v31l-8 27l-16 20l-23 12l25 9l21 18l15 25l8 31l1 8l-3 41l-21 34l-38 23l-56 8l-55 -8l-39 -23l-26 -36l-13 -47l-3 -22h56l9 40l17 27l23 14l28 5h6l25 -3l20 -11l11 -19l2 -27l-1 -8l-7 -24
l-15 -17l-22 -10l-28 -3h-54l-6 -50h55l26 -4l19 -12l10 -20l1 -28l-1 -8l-9 -28l-17 -18l-23 -10l-25 -3h-7l-28 4l-20 14l-10 25zM99 0l678 780h-70l-678 -780h70zM284 439h-173l144 133l21 21l18 22l12 24l7 29l1 8l-3 42l-19 35l-37 24l-58 9l-55 -8l-39 -23l-26 -36
l-13 -47l-3 -22h56l9 40l17 27l23 14l28 5h6l25 -4l20 -11l11 -20l1 -29l-1 -8l-4 -17l-8 -16l-12 -16l-18 -17l-182 -168l-5 -40h250z" />
    <glyph glyph-name="uni2155" unicode="&#x2155;" horiz-adv-x="800" 
d="M489 125l-1 -8l1 -52l19 -39l38 -25l60 -8l53 9l41 25l29 39l14 51l1 8l-2 56l-21 39l-37 23l-51 7l-22 -2l-21 -7l-18 -8l-13 -10l21 117h188l6 50h-237l-39 -217l47 -15l15 18l18 14l22 7l25 3h6l26 -5l19 -13l11 -24l1 -33l-1 -8l-10 -33l-18 -23l-24 -14l-26 -4h-6
l-28 4l-20 14l-10 25l1 39h-57zM99 0l678 780h-70l-678 -780h70zM279 390l7 49h-95l45 342h-40l-132 -83l22 -42l85 53l-36 -270h-94l-7 -49h245z" />
    <glyph glyph-name="uni2156" unicode="&#x2156;" horiz-adv-x="800" 
d="M489 125l-1 -8l1 -52l19 -39l38 -25l60 -8l53 9l41 25l29 39l14 51l1 8l-2 56l-21 39l-37 23l-51 7l-22 -2l-21 -7l-18 -8l-13 -10l21 117h188l6 50h-237l-39 -217l47 -15l15 18l18 14l22 7l25 3h6l26 -5l19 -13l11 -24l1 -33l-1 -8l-10 -33l-18 -23l-24 -14l-26 -4h-6
l-28 4l-20 14l-10 25l1 39h-57zM99 0l678 780h-70l-678 -780h70zM284 439h-173l144 133l21 21l18 22l12 24l7 29l1 8l-3 42l-19 35l-37 24l-58 9l-55 -8l-39 -23l-26 -36l-13 -47l-3 -22h56l9 40l17 27l23 14l28 5h6l25 -4l20 -11l11 -20l1 -29l-1 -8l-4 -17l-8 -16l-12 -16
l-18 -17l-182 -168l-5 -40h250z" />
    <glyph glyph-name="uni2157" unicode="&#x2157;" horiz-adv-x="800" 
d="M489 125l-1 -8l1 -52l19 -39l38 -25l60 -8l53 9l41 25l29 39l14 51l1 8l-2 56l-21 39l-37 23l-51 7l-22 -2l-21 -7l-18 -8l-13 -10l21 117h188l6 50h-237l-39 -217l47 -15l15 18l18 14l22 7l25 3h6l26 -5l19 -13l11 -24l1 -33l-1 -8l-10 -33l-18 -23l-24 -14l-26 -4h-6
l-28 4l-20 14l-10 25l1 39h-57zM99 0l678 780h-70l-678 -780h70zM97 515h-57l-1 -8l1 -52l19 -39l38 -25l60 -8l53 8l40 23l28 34l13 43l1 8v31l-8 27l-16 20l-23 12l25 9l21 18l15 25l8 31l1 8l-3 41l-21 34l-38 23l-56 8l-55 -8l-39 -23l-26 -36l-13 -47l-3 -22h56l9 40
l17 27l23 14l28 5h6l25 -3l20 -11l11 -19l2 -27l-1 -8l-7 -24l-15 -17l-22 -10l-28 -3h-54l-6 -50h55l26 -4l19 -12l10 -20l1 -28l-1 -8l-9 -28l-17 -18l-23 -10l-25 -3h-7l-28 4l-20 14l-10 25z" />
    <glyph glyph-name="uni2158" unicode="&#x2158;" horiz-adv-x="800" 
d="M489 125l-1 -8l1 -52l19 -39l38 -25l60 -8l53 9l41 25l29 39l14 51l1 8l-2 56l-21 39l-37 23l-51 7l-22 -2l-21 -7l-18 -8l-13 -10l21 117h188l6 50h-237l-39 -217l47 -15l15 18l18 14l22 7l25 3h6l26 -5l19 -13l11 -24l1 -33l-1 -8l-10 -33l-18 -23l-24 -14l-26 -4h-6
l-28 4l-20 14l-10 25l1 39h-57zM99 0l678 780h-70l-678 -780h70zM217 687l-6 -42l-15 -111h-61l-36 -1zM233 390l12 95h54l7 49h-54l32 246h-56l-195 -255l-5 -40h162l-13 -95h56z" />
    <glyph glyph-name="uni2159" unicode="&#x2159;" horiz-adv-x="800" 
d="M632 196l26 -5l19 -13l10 -22l1 -31l-1 -8l-10 -33l-18 -23l-24 -14l-26 -4h-6l-25 5l-18 13l-11 22l-3 29v12l2 11l1 9l1 7l15 18l18 14l21 10l22 3h6zM762 396l-52 -4l-50 -12l-47 -24l-42 -36l-29 -38l-23 -40l-15 -45l-10 -51l-1 -8l1 -61l20 -46l38 -28l54 -10l53 9
l41 25l29 39l14 51l1 8l-2 53l-20 38l-32 22l-42 8l-25 -2l-21 -7l-19 -9l-15 -12l8 19l9 18l12 18l15 17l32 26l35 18l37 11l40 3zM99 0l678 780h-70l-678 -780h70zM279 390l7 49h-95l45 342h-40l-132 -83l22 -42l85 53l-36 -270h-94l-7 -49h245z" />
    <glyph glyph-name="uni215A" unicode="&#x215a;" horiz-adv-x="800" 
d="M632 196l26 -5l19 -13l10 -22l1 -31l-1 -8l-10 -33l-18 -23l-24 -14l-26 -4h-6l-25 5l-18 13l-11 22l-3 29v12l2 11l1 9l1 7l15 18l18 14l21 10l22 3h6zM762 396l-52 -4l-50 -12l-47 -24l-42 -36l-29 -38l-23 -40l-15 -45l-10 -51l-1 -8l1 -61l20 -46l38 -28l54 -10l53 9
l41 25l29 39l14 51l1 8l-2 53l-20 38l-32 22l-42 8l-25 -2l-21 -7l-19 -9l-15 -12l8 19l9 18l12 18l15 17l32 26l35 18l37 11l40 3zM99 0l678 780h-70l-678 -780h70zM40 515l-1 -8l1 -52l19 -39l38 -25l60 -8l53 9l41 25l29 39l14 51l1 8l-2 56l-21 39l-37 23l-51 7l-22 -2
l-21 -7l-18 -8l-13 -10l21 117h188l6 50h-237l-39 -217l47 -15l15 18l18 14l22 7l25 3h6l26 -5l19 -13l11 -24l1 -33l-1 -8l-10 -33l-18 -23l-24 -14l-26 -4h-6l-28 4l-20 14l-10 25l1 39h-57z" />
    <glyph glyph-name="uni215B" unicode="&#x215b;" horiz-adv-x="800" 
d="M603 42l-25 4l-19 12l-11 20l-2 28l1 8l7 25l15 19l22 12l28 4h10l26 -4l19 -12l10 -20l1 -28l-1 -8l-9 -28l-17 -19l-23 -10l-25 -3h-7zM648 346l26 -4l19 -11l12 -19l2 -26l-1 -8l-7 -23l-15 -17l-22 -10l-28 -4h-9l-26 4l-19 12l-10 19l-2 24l1 8l9 26l16 17l23 9
l25 3h6zM606 -8l54 8l41 24l26 34l13 43l1 8v31l-8 27l-16 20l-23 12l25 9l21 18l15 25l8 31l1 8l-3 41l-21 34l-39 23l-56 8l-53 -8l-40 -22l-26 -33l-13 -42l-1 -8l1 -30l9 -24l17 -19l22 -11l-25 -10l-22 -20l-16 -27l-8 -31l-1 -8l2 -41l19 -35l37 -26zM99 0l678 780
h-70l-678 -780h70zM279 390l7 49h-95l45 342h-40l-132 -83l22 -42l85 53l-36 -270h-94l-7 -49h245z" />
    <glyph glyph-name="uni215C" unicode="&#x215c;" horiz-adv-x="800" 
d="M603 42l-25 4l-19 12l-11 20l-2 28l1 8l7 25l15 19l22 12l28 4h10l26 -4l19 -12l10 -20l1 -28l-1 -8l-9 -28l-17 -19l-23 -10l-25 -3h-7zM648 346l26 -4l19 -11l12 -19l2 -26l-1 -8l-7 -23l-15 -17l-22 -10l-28 -4h-9l-26 4l-19 12l-10 19l-2 24l1 8l9 26l16 17l23 9
l25 3h6zM606 -8l54 8l41 24l26 34l13 43l1 8v31l-8 27l-16 20l-23 12l25 9l21 18l15 25l8 31l1 8l-3 41l-21 34l-39 23l-56 8l-53 -8l-40 -22l-26 -33l-13 -42l-1 -8l1 -30l9 -24l17 -19l22 -11l-25 -10l-22 -20l-16 -27l-8 -31l-1 -8l2 -41l19 -35l37 -26zM99 0l678 780
h-70l-678 -780h70zM97 515h-57l-1 -8l1 -52l19 -39l38 -25l60 -8l53 8l40 23l28 34l13 43l1 8v31l-8 27l-16 20l-23 12l25 9l21 18l15 25l8 31l1 8l-3 41l-21 34l-38 23l-56 8l-55 -8l-39 -23l-26 -36l-13 -47l-3 -22h56l9 40l17 27l23 14l28 5h6l25 -3l20 -11l11 -19l2 -27
l-1 -8l-7 -24l-15 -17l-22 -10l-28 -3h-54l-6 -50h55l26 -4l19 -12l10 -20l1 -28l-1 -8l-9 -28l-17 -18l-23 -10l-25 -3h-7l-28 4l-20 14l-10 25z" />
    <glyph glyph-name="uni215D" unicode="&#x215d;" horiz-adv-x="800" 
d="M603 42l-25 4l-19 12l-11 20l-2 28l1 8l7 25l15 19l22 12l28 4h10l26 -4l19 -12l10 -20l1 -28l-1 -8l-9 -28l-17 -19l-23 -10l-25 -3h-7zM648 346l26 -4l19 -11l12 -19l2 -26l-1 -8l-7 -23l-15 -17l-22 -10l-28 -4h-9l-26 4l-19 12l-10 19l-2 24l1 8l9 26l16 17l23 9
l25 3h6zM606 -8l54 8l41 24l26 34l13 43l1 8v31l-8 27l-16 20l-23 12l25 9l21 18l15 25l8 31l1 8l-3 41l-21 34l-39 23l-56 8l-53 -8l-40 -22l-26 -33l-13 -42l-1 -8l1 -30l9 -24l17 -19l22 -11l-25 -10l-22 -20l-16 -27l-8 -31l-1 -8l2 -41l19 -35l37 -26zM99 0l678 780
h-70l-678 -780h70zM40 515l-1 -8l1 -52l19 -39l38 -25l60 -8l53 9l41 25l29 39l14 51l1 8l-2 56l-21 39l-37 23l-51 7l-22 -2l-21 -7l-18 -8l-13 -10l21 117h188l6 50h-237l-39 -217l47 -15l15 18l18 14l22 7l25 3h6l26 -5l19 -13l11 -24l1 -33l-1 -8l-10 -33l-18 -23
l-24 -14l-26 -4h-6l-28 4l-20 14l-10 25l1 39h-57z" />
    <glyph glyph-name="uni215E" unicode="&#x215e;" horiz-adv-x="800" 
d="M603 42l-25 4l-19 12l-11 20l-2 28l1 8l7 25l15 19l22 12l28 4h10l26 -4l19 -12l10 -20l1 -28l-1 -8l-9 -28l-17 -19l-23 -10l-25 -3h-7zM648 346l26 -4l19 -11l12 -19l2 -26l-1 -8l-7 -23l-15 -17l-22 -10l-28 -4h-9l-26 4l-19 12l-10 19l-2 24l1 8l9 26l16 17l23 9
l25 3h6zM606 -8l54 8l41 24l26 34l13 43l1 8v31l-8 27l-16 20l-23 12l25 9l21 18l15 25l8 31l1 8l-3 41l-21 34l-39 23l-56 8l-53 -8l-40 -22l-26 -33l-13 -42l-1 -8l1 -30l9 -24l17 -19l22 -11l-25 -10l-22 -20l-16 -27l-8 -31l-1 -8l2 -41l19 -35l37 -26zM99 0l678 780
h-70l-678 -780h70zM57 640h53l13 91h84l56 1l-188 -342h62l191 350l5 40h-257z" />
    <glyph glyph-name="uni215F" unicode="&#x215f;" horiz-adv-x="500" 
d="M99 0l678 780h-70l-678 -780h70zM279 390l7 49h-95l45 342h-40l-132 -83l22 -42l85 53l-36 -270h-94l-7 -49h245z" />
    <glyph glyph-name="arrowleft" unicode="&#x2190;" horiz-adv-x="920" 
d="M449 780l-390 -390l390 -390h93l-357 357h665v66h-665l357 357h-93z" />
    <glyph glyph-name="arrowup" unicode="&#x2191;" horiz-adv-x="920" 
d="M70 308l357 357v-665h66v665l357 -357v93l-390 390l-390 -390v-93z" />
    <glyph glyph-name="arrowright" unicode="&#x2192;" horiz-adv-x="920" 
d="M378 780l357 -357h-665v-66h665l-357 -357h93l390 390l-390 390h-93z" />
    <glyph glyph-name="arrowdown" unicode="&#x2193;" horiz-adv-x="920" 
d="M70 379l390 -390l390 390v93l-357 -357v665h-66v-665l-357 357v-93z" />
    <glyph glyph-name="uni2196" unicode="&#x2196;" horiz-adv-x="920" 
d="M136 0v667l678 -678l47 47l-678 678h667v66h-780v-780h66z" />
    <glyph glyph-name="uni2197" unicode="&#x2197;" horiz-adv-x="920" 
d="M850 0v780h-780v-66h667l-678 -678l47 -47l678 678v-667h66z" />
    <glyph glyph-name="uni2198" unicode="&#x2198;" horiz-adv-x="920" 
d="M70 0h780v780h-66v-667l-678 678l-47 -47l678 -678h-667v-66z" />
    <glyph glyph-name="uni2199" unicode="&#x2199;" horiz-adv-x="920" 
d="M850 66h-667l678 678l-47 47l-678 -678v667h-66v-780h780v66z" />
    <glyph glyph-name="minus" unicode="&#x2212;" horiz-adv-x="600" 
d="M44 357h505l9 66h-505z" />
    <glyph glyph-name="approxequal" unicode="&#x2248;" horiz-adv-x="600" 
d="M193 553l-48 -7l-40 -17l-32 -25l-24 -27l38 -40l19 21l23 18l29 12l35 5l60 -11l54 -24l58 -25l70 -11l48 7l41 17l31 25l24 27l-38 40l-19 -21l-23 -17l-29 -13l-35 -5l-60 11l-54 25l-58 24zM166 349l-48 -7l-40 -17l-32 -25l-24 -27l38 -40l19 21l23 18l29 12l35 5
l60 -11l54 -24l58 -25l70 -11l48 7l41 17l31 25l24 27l-38 40l-19 -21l-23 -17l-29 -13l-35 -5l-60 11l-54 25l-58 24z" />
    <glyph glyph-name="notequal" unicode="&#x2260;" horiz-adv-x="600" 
d="M59 459h256l-101 -138h-176l-9 -66h137l-90 -124h72l91 124h295l9 66h-256l101 138h176l9 66h-137l90 124h-72l-91 -124h-295z" />
    <glyph glyph-name="equivalence" unicode="&#x2261;" horiz-adv-x="600" 
d="M14 153h505l9 66h-505zM74 561h505l9 66h-505zM44 357h505l9 66h-505z" />
    <glyph glyph-name="lessequal" unicode="&#x2264;" horiz-adv-x="600" 
d="M525 174l-482 174l-8 -61l482 -174zM580 591l10 76l-528 -174l-9 -70l481 -174l10 68l-387 138z" />
    <glyph glyph-name="greaterequal" unicode="&#x2265;" horiz-adv-x="600" 
d="M39 322l-10 -73l528 174l9 70l-481 174l-10 -71l387 -138zM12 113l528 174l9 66l-528 -174z" />
    <glyph glyph-name="squaremultiply" unicode="&#x22a0;" horiz-adv-x="920" 
d="M256 138l204 204l204 -204l48 48l-204 204l204 204l-48 48l-204 -204l-204 204l-48 -48l204 -204l-204 -204zM786 716v-652h-652v652h652zM850 0v780h-780v-780h780z" />
    <glyph glyph-name="house" unicode="&#x2302;" horiz-adv-x="850" 
d="M780 0v450l-355 340l-355 -340v-450h710z" />
    <glyph glyph-name="whitesquare" unicode="&#x25a1;" horiz-adv-x="920" 
d="M786 716v-652h-652v652h652zM850 0v780h-780v-780h780z" />
    <glyph glyph-name="blacksmallsquare" unicode="&#x25aa;" horiz-adv-x="680" 
d="M600 0v530h-530v-530h530z" />
    <glyph glyph-name="whitesmallsquare" unicode="&#x25ab;" horiz-adv-x="680" 
d="M536 466v-402h-402v402h402zM70 530v-530h530v530h-530z" />
    <glyph glyph-name="triagup" unicode="&#x25b2;" horiz-adv-x="930" 
d="M500 791h-70l-366 -791h72l329 716l329 -716h72z" />
    <glyph glyph-name="triagrt" unicode="&#x25ba;" horiz-adv-x="930" 
d="M871 425l-791 366v-72l716 -329l-716 -329v-72l791 366v70z" />
    <glyph glyph-name="triagdn" unicode="&#x25bc;" horiz-adv-x="930" 
d="M430 -11h70l366 791h-72l-329 -716l-329 716h-72z" />
    <glyph glyph-name="triaglf" unicode="&#x25c4;" horiz-adv-x="930" 
d="M59 425v-70l791 -366v72l-716 329l716 329v72z" />
    <glyph glyph-name="blackcircle" unicode="&#x25cf;" horiz-adv-x="920" 
d="M59 390l32 -156l86 -127l127 -86l156 -32l156 32l127 86l86 127l32 156l-32 156l-86 127l-127 86l-156 32l-156 -32l-127 -86l-86 -127z" />
    <glyph glyph-name="uni25E2" unicode="&#x25e2;" horiz-adv-x="930" 
d="M875 24l-300 818l-51 -51l274 -739l-739 274l-51 -51l818 -300z" />
    <glyph glyph-name="uni25E3" unicode="&#x25e3;" horiz-adv-x="930" 
d="M55 24l49 -49l818 300l-51 51l-739 -274l274 739l-51 51z" />
    <glyph glyph-name="uni25E4" unicode="&#x25e4;" horiz-adv-x="930" 
d="M55 756l300 -818l51 51l-274 738l739 -273l51 51l-818 300l-25 -24z" />
    <glyph glyph-name="uni25E5" unicode="&#x25e5;" horiz-adv-x="930" 
d="M851 781l-25 24l-818 -300l51 -51l738 273l-273 -738l51 -51l300 818z" />
    <glyph glyph-name="whitecircle" unicode="&#x25ef;" horiz-adv-x="920" 
d="M124 390l26 131l72 107l107 72l131 26l131 -26l107 -72l72 -107l26 -131l-26 -131l-72 -107l-107 -72l-131 -26l-131 26l-107 72l-72 107zM59 390l32 -156l86 -127l127 -86l156 -32l156 32l127 86l86 127l32 156l-32 156l-86 127l-127 86l-156 32l-156 -32l-127 -86
l-86 -127z" />
    <glyph glyph-name="uni2605" unicode="&#x2605;" horiz-adv-x="880" 
d="M440 180l260 -190l-99 307l260 189h-322l-99 306l-99 -306h-322l260 -189l-99 -307z" />
    <glyph glyph-name="ballotboxwithx" unicode="&#x2612;" horiz-adv-x="680" 
d="M256 138l79 79l79 -79l48 48l-79 79l79 79l-48 48l-79 -79l-79 79l-48 -48l79 -79l-79 -79zM536 466v-402h-402v402h402zM600 0v530h-530v-530h530z" />
    <glyph glyph-name="uni263C" unicode="&#x263c;" horiz-adv-x="960" 
d="M521 191l8 -10l13 -22l12 -30l5 -34l5 -28l15 -22l22 -16l27 -5l8 1l7 1l6 3l7 3l-7 2l-17 7l-16 18l-8 32l1 14l3 17l3 16l1 15l-4 27l-8 20l-9 13l-5 6l172 -113l-113 172l21 -2l25 -8l25 -12l24 -19l11 -9l13 -7l13 -4l14 -1l20 3l18 8l14 15l10 20l-3 -2l-7 -4
l-11 -4l-14 -2l-25 6l-18 16l-16 22l-19 24l-21 17l-21 8l-16 4h-8l202 42l-202 42l10 8l22 13l30 12l34 5l28 5l23 15l15 22l5 27l-1 8l-1 7l-3 6l-3 7l-2 -7l-7 -17l-18 -16l-32 -8l-14 1l-17 3l-16 3l-15 1l-27 -4l-20 -8l-13 -9l-6 -5l113 172l-172 -113l2 21l8 25
l12 25l19 24l9 11l7 13l4 13l1 14l-3 20l-8 18l-15 14l-20 10l2 -3l4 -7l4 -11l2 -14l-6 -25l-16 -18l-22 -16l-24 -19l-17 -21l-8 -21l-4 -16v-8l-42 202l-42 -202l-8 10l-13 22l-12 30l-5 34l-5 28l-15 23l-22 15l-27 5l-8 -1l-7 -1l-6 -3l-7 -3l8 -2l16 -7l17 -18l7 -32
l-1 -14l-3 -17l-3 -16l-1 -15l4 -27l8 -20l9 -13l5 -6l-172 113l113 -172l-21 2l-25 8l-25 12l-24 19l-11 9l-13 7l-13 4l-14 1l-20 -3l-18 -8l-14 -15l-10 -20l3 2l7 4l11 4l14 2l25 -6l18 -16l16 -22l19 -24l21 -17l21 -8l16 -4h8l-202 -42l202 -42l-10 -8l-22 -13
l-30 -12l-34 -5l-28 -5l-22 -15l-16 -22l-5 -27l1 -8l1 -7l3 -6l3 -7l2 8l7 16l18 17l32 7l14 -1l17 -3l16 -3l15 -1l27 4l20 8l13 9l6 5l-113 -172l172 113l-2 -21l-8 -25l-12 -25l-19 -24l-9 -11l-7 -13l-4 -13l-1 -14l3 -20l8 -18l15 -14l20 -10l-2 3l-4 7l-4 11l-2 14
l6 25l16 18l22 16l24 19l17 21l8 21l4 16v8l42 -202z" />
    <glyph glyph-name="uni263E" unicode="&#x263e;" horiz-adv-x="960" 
d="M624 728l25 -1l24 -3l24 -5l23 -6l-54 32l-58 25l-63 15l-65 5l-156 -31l-127 -86l-86 -127l-31 -156l31 -156l86 -127l127 -86l156 -31l65 5l63 15l58 24l54 33l-23 -7l-24 -4l-24 -3l-25 -1l-126 27l-103 72l-70 107l-25 132l25 132l70 107l103 72z" />
    <glyph glyph-name="spade" unicode="&#x2660;" horiz-adv-x="900" 
d="M451 790h-2l-35 -47l-54 -61l-68 -64l-76 -58l-62 -45l-53 -50l-36 -60l-13 -71l14 -69l37 -55l56 -37l69 -13l68 13l56 36l44 52l32 60l3 -1l-10 -93l-16 -80l-24 -74l-32 -73h202l-32 73l-24 74l-16 80l-10 93l3 1l32 -60l44 -52l56 -36l68 -13l69 13l56 37l37 55
l14 69l-13 71l-36 60l-53 50l-62 45l-76 58l-68 64l-54 61z" />
    <glyph glyph-name="club" unicode="&#x2663;" horiz-adv-x="900" 
d="M349 0h202l-32 73l-24 74l-16 80l-10 93l3 1l32 -60l44 -52l56 -36l68 -13l69 13l56 37l37 55l14 69l-13 72l-35 57l-55 38l-71 13l-24 -2l-22 -5l-20 -7l-18 -9l-2 2l15 26l12 28l8 31l3 32l-13 70l-37 57l-56 39l-70 14l-70 -14l-56 -39l-37 -57l-13 -70l3 -32l8 -31
l12 -28l15 -26l-2 -2l-18 9l-20 7l-22 5l-24 2l-71 -13l-55 -38l-35 -57l-13 -72l14 -69l37 -55l56 -37l69 -13l68 13l56 36l44 52l32 60l3 -1l-10 -93l-16 -80l-24 -74z" />
    <glyph glyph-name="heart" unicode="&#x2665;" horiz-adv-x="900" 
d="M451 -10l35 50l54 70l68 84l76 89l55 65l53 76l40 80l16 80l-13 82l-38 65l-60 43l-80 16l-80 -13l-58 -34l-40 -50l-27 -60h-4l-27 60l-40 50l-58 34l-80 13l-80 -16l-60 -43l-38 -65l-13 -82l16 -80l40 -80l53 -76l55 -65l76 -89l68 -84l54 -70l35 -50h2z" />
    <glyph glyph-name="diamond" unicode="&#x2666;" horiz-adv-x="900" 
d="M817 390l-105 90l-98 99l-88 105l-75 106h-2l-75 -106l-88 -105l-98 -99l-105 -90l105 -89l98 -100l88 -105l75 -106h2l75 106l88 105l98 100z" />
    <glyph glyph-name="uni267B" unicode="&#x267b;" horiz-adv-x="959" 
d="M806 527l-149 -86l116 -201l35 10l37 27l29 40l11 49l-1 13l-2 12l-3 11l-4 8zM446 41v173h-232l-10 -36l5 -45l21 -44l37 -35l12 -6l12 -4l11 -2l9 -1h135zM200 598l150 -86l116 201l-26 26l-42 19l-49 5l-48 -15l-11 -7l-10 -8l-8 -9l-5 -7zM404 779l10 -2l24 -7
l30 -17l27 -31l72 -125l-41 -24l173 -31l61 166l-43 -24l-28 49l-20 26l-21 14l-24 6l-27 1h-193v-1zM186 122l-4 10l-5 25v35l13 38l12 22l25 42l24 42l11 19l41 -24l-59 166l-174 -31l42 -24l-28 -49l-13 -31l-1 -25l6 -24l12 -23l96 -168h2zM863 266l-7 -8l-18 -18
l-30 -18l-40 -8h-145v49l-113 -135l113 -136v49h57l33 4l23 12l17 18l15 22l96 167z" />
    <glyph glyph-name="uni267C" unicode="&#x267c;" horiz-adv-x="960" 
d="M64 390l31 -154l85 -126l126 -85l154 -31l154 31l126 85l85 126l31 154l-31 154l-85 126l-126 85l-154 31l-154 -31l-126 -85l-85 -126zM755 294l-75 -130l-11 -17l-13 -13l-18 -10l-26 -3h-44v-38l-88 105l88 105v-38h112l31 6l23 14l15 14l5 6zM763 407l3 -6l3 -8
l1 -10l1 -10l-9 -38l-22 -31l-28 -21l-28 -8l-90 156l116 67zM228 184l-75 130l-9 18l-5 18l1 20l10 24l22 38l-33 19l135 24l46 -129l-32 19l-56 -97l-10 -30v-27l4 -19l3 -8h-1zM322 121l-7 1l-8 1l-10 3l-9 5l-29 27l-15 34l-4 35l7 28h180v-134h-105zM394 694h150l21 -1
l18 -4l17 -11l15 -21l22 -38l33 19l-47 -129l-134 24l32 19l-56 97l-21 23l-23 14l-19 6l-8 1v1zM292 645l4 6l6 6l7 6l9 6l37 11l38 -3l33 -15l20 -20l-90 -156l-116 67z" />
    <glyph glyph-name="uni267D" unicode="&#x267d;" horiz-adv-x="960" 
d="M98 390l28 141l78 115l115 78l141 28l141 -28l115 -78l78 -115l28 -141l-28 -141l-78 -115l-115 -78l-141 -28l-141 28l-115 78l-78 115zM60 390l31 -156l86 -127l127 -86l156 -31l156 31l127 86l86 127l31 156l-31 156l-86 127l-127 86l-156 31l-156 -31l-127 -86
l-86 -127zM754 295l-5 -6l-15 -14l-23 -14l-31 -6h-112v38l-88 -105l88 -105v38h44l26 3l18 10l13 13l11 17l75 130zM710 498l-116 -67l90 -156l28 8l28 21l22 31l9 38l-1 10l-1 10l-3 8l-3 6zM229 184l-3 8l-4 19v27l10 30l56 97l32 -19l-46 129l-135 -24l33 -19l-22 -38
l-10 -24l-1 -20l5 -18l9 -18l75 -130h1zM427 121v134h-180l-7 -28l4 -35l15 -34l29 -27l9 -5l10 -3l8 -1l7 -1h105zM394 693l8 -1l19 -6l23 -14l21 -23l56 -97l-32 -19l134 -24l47 129l-33 -19l-22 38l-15 21l-17 11l-18 4l-21 1h-150v-1zM240 553l116 -67l90 156l-20 20
l-33 15l-38 3l-37 -11l-9 -6l-7 -6l-6 -6l-4 -6z" />
    <glyph glyph-name="mediumwhitecircle" unicode="&#x26aa;" horiz-adv-x="670" 
d="M124 265l17 82l45 67l67 45l82 17l82 -17l67 -45l45 -67l17 -82l-17 -82l-45 -67l-67 -45l-82 -17l-82 17l-67 45l-45 67zM59 265l22 -107l59 -88l88 -59l107 -22l107 22l88 59l59 88l22 107l-22 107l-59 88l-88 59l-107 22l-107 -22l-88 -59l-59 -88z" />
    <glyph glyph-name="mediumblackcircle" unicode="&#x26ab;" horiz-adv-x="670" 
d="M59 265l22 -107l59 -88l88 -59l107 -22l107 22l88 59l59 88l22 107l-22 107l-59 88l-88 59l-107 22l-107 -22l-88 -59l-59 -88z" />
    <glyph glyph-name="anglebracketleft" unicode="&#x3008;" horiz-adv-x="317" 
d="M344 840h-75l-225 -480l99 -480h73l-98 478z" />
    <glyph glyph-name="anglebracketright" unicode="&#x3009;" horiz-adv-x="317" 
d="M-31 -120h75l225 480l-99 480h-73l98 -478z" />
    <glyph glyph-name="fi" unicode="&#xe38c;" horiz-adv-x="596" 
d="M582 745h-90l-12 -90h90zM404 0h70l69 530h-70zM221 650l13 48l23 30l33 16l42 4l18 -1l17 -2l15 -3l10 -3l8 60l-9 4l-16 4l-21 3l-26 1l-65 -8l-53 -26l-37 -45l-20 -68l-18 -134h-84l-8 -63h84l-61 -467h70l61 467h148l8 63h-148z" />
    <glyph glyph-name="fl" unicode="&#xe38d;" horiz-adv-x="596" 
d="M404 0h70l105 800h-70zM221 650l13 48l23 30l33 16l42 4l18 -1l17 -2l15 -3l10 -3l8 60l-9 4l-16 4l-21 3l-26 1l-65 -8l-53 -26l-37 -45l-20 -68l-18 -134h-84l-8 -63h84l-61 -467h70l61 467h148l8 63h-148z" />
    <glyph glyph-name="invertedbreve" unicode="&#xe411;" horiz-adv-x="497" 
d="M300 791l-74 -13l-54 -36l-34 -56l-18 -72h58l12 50l25 38l36 25l49 9l46 -9l29 -25l13 -38v-50h54v72l-23 56l-46 36z" />
    <glyph glyph-name="doublegrave" unicode="&#xe412;" horiz-adv-x="500" 
d="M245 780l66 -166h63l-62 166h-67zM115 780l73 -166h63l-68 166h-68z" />
    <glyph glyph-name="caronSlovak" unicode="&#xe413;" horiz-adv-x="500" 
d="M380 800l-25 -186h40l42 186h-57z" />
    <glyph glyph-name="dotbelow" unicode="&#xe415;" horiz-adv-x="602" 
d="M229 -87h-81l-11 -82h82z" />
    <glyph glyph-name="altcedilla" unicode="&#xe416;" horiz-adv-x="602" 
d="M238 -130l-4 -17l-12 -13l-19 -7l-27 -2l-22 2l-19 5l-17 6l-13 8l-20 -36l17 -10l22 -9l25 -6l28 -2l43 5l34 15l23 26l8 38l-8 33l-20 21l-29 12l-33 3l-19 -1l-19 -3l-17 -4l-13 -4v-36l11 4l14 3l15 2l16 1l21 -2l18 -5l12 -11z" />
    <glyph glyph-name="grave.cap" unicode="&#xe421;" horiz-adv-x="500" 
d="M228 950l47 -110h72l-45 110h-74z" />
    <glyph glyph-name="acute.cap" unicode="&#xe422;" horiz-adv-x="500" 
d="M350 950l-75 -110h72l77 110h-74z" />
    <glyph glyph-name="circumflex.cap" unicode="&#xe423;" horiz-adv-x="500" 
d="M449 840l-91 110h-64l-121 -110h74l78 69l57 -69h67z" />
    <glyph glyph-name="tilde.cap" unicode="&#xe424;" horiz-adv-x="500" 
d="M427 936l-5 -21l-10 -15l-14 -8l-16 -3l-28 9l-28 20l-32 20l-40 9l-33 -5l-28 -17l-21 -29l-11 -42h48l5 21l10 15l14 8l16 3l28 -9l29 -20l31 -20l40 -9l33 5l28 17l21 29l11 42h-48z" />
    <glyph glyph-name="macron.cap" unicode="&#xe425;" horiz-adv-x="500" 
d="M202 868h226l7 54h-226z" />
    <glyph glyph-name="breve.cap" unicode="&#xe426;" horiz-adv-x="500" 
d="M311 829l66 9l49 26l30 38l15 48h-57l-9 -30l-20 -24l-30 -15l-41 -6l-40 6l-26 15l-13 24l-1 30h-53l2 -48l22 -38l42 -26z" />
    <glyph glyph-name="invertedbreve.cap" unicode="&#xe427;" horiz-adv-x="498" 
d="M326 961l-66 -9l-48 -26l-31 -38l-15 -48h57l9 30l20 24l30 15l41 6l40 -6l26 -15l13 -24l1 -30h53l-2 48l-22 38l-42 26z" />
    <glyph glyph-name="dotaccent.cap" unicode="&#xe428;" horiz-adv-x="500" 
d="M362 930h-79l-9 -70h79z" />
    <glyph glyph-name="dieresis.cap" unicode="&#xe429;" horiz-adv-x="500" 
d="M440 930h-79l-9 -70h79zM284 930h-79l-9 -70h79z" />
    <glyph glyph-name="ring.cap" unicode="&#xe42a;" horiz-adv-x="500" 
d="M306 773l40 8l33 21l23 32l8 40l-6 35l-17 27l-27 18l-37 7l-40 -8l-33 -21l-23 -32l-8 -40l6 -35l17 -27l27 -18zM306 811l-21 4l-15 10l-9 16l-3 19l5 28l15 20l21 11l24 4l21 -4l15 -10l9 -16l3 -19l-5 -28l-15 -20l-20 -11z" />
    <glyph glyph-name="hungarumlaut.cap" unicode="&#xe42b;" horiz-adv-x="500" 
d="M415 950l-75 -110h67l78 110h-70zM288 950l-73 -110h67l76 110h-70z" />
    <glyph glyph-name="doublegrave.cap" unicode="&#xe42c;" horiz-adv-x="500" 
d="M167 950l48 -110h67l-45 110h-70zM294 950l46 -110h67l-43 110h-70z" />
    <glyph glyph-name="caron.cap" unicode="&#xe42d;" horiz-adv-x="500" 
d="M188 950l91 -110h64l121 110h-74l-78 -69l-57 69h-67z" />
    <glyph glyph-name="commaaccent.cap" unicode="&#xe42e;" horiz-adv-x="500" 
d="M272 840h79l8 61h-41l7 14l12 9l16 5l21 1l5 32l-42 -6l-30 -16l-20 -25l-10 -33z" />
    <glyph glyph-name="exclamdown.cap" unicode="&#xe441;" horiz-adv-x="217" 
d="M105 690h90l12 90h-90zM102 0l58 591h-46l-97 -591h85z" />
    <glyph glyph-name="questiondown.cap" unicode="&#xe444;" horiz-adv-x="455" 
d="M224 690h90l12 90h-90zM185 54l-51 7l-34 22l-19 35l-6 49l29 113l67 87l69 93l39 131h-47l-51 -125l-78 -85l-71 -87l-31 -132l10 -72l32 -55l57 -34l83 -12l98 19l66 54l42 86l24 114l2 14h-71l-17 -92l-29 -70l-46 -44z" />
    <glyph glyph-name="guilsinglleft.cap" unicode="&#xe451;" horiz-adv-x="304" 
d="M280 574l-224 -152l-8 -62l184 -153l9 67l-134 114l164 113z" />
    <glyph glyph-name="guilsinglright.cap" unicode="&#xe452;" horiz-adv-x="304" 
d="M28 207l224 152l8 62l-184 153l-9 -67l134 -114l-164 -113z" />
    <glyph glyph-name="guillemotleft.cap" unicode="&#xe453;" horiz-adv-x="517" 
d="M492 574l-224 -152l-8 -62l184 -153l9 67l-134 114l164 113zM280 574l-224 -152l-8 -62l184 -153l9 67l-134 114l164 113z" />
    <glyph glyph-name="guillemotright.cap" unicode="&#xe454;" horiz-adv-x="517" 
d="M28 207l224 152l8 62l-184 153l-9 -67l134 -114l-164 -113zM240 207l224 152l8 62l-184 153l-9 -67l134 -114l-164 -113z" />
    <glyph glyph-name="slash.cap" unicode="&#xe461;" horiz-adv-x="321" 
d="M52 0l294 780h-72l-294 -780h72z" />
    <glyph glyph-name="backslash.cap" unicode="&#xe462;" horiz-adv-x="321" 
d="M84 780l90 -780h68l-90 780h-68z" />
    <glyph glyph-name="bar.cap" unicode="&#xe463;" horiz-adv-x="201" 
d="M17 0h70l102 780h-70z" />
    <glyph glyph-name="doublebar.cap" unicode="&#xe464;" horiz-adv-x="327" 
d="M142 0h70l102 780h-70zM17 0h70l102 780h-70z" />
    <glyph glyph-name="brokenbar.cap" unicode="&#xe465;" horiz-adv-x="201" 
d="M17 0h70l46 354h-70zM72 426h70l47 354h-70z" />
    <glyph glyph-name="bullet.cap" unicode="&#xe466;" horiz-adv-x="397" 
d="M348 521h-261l-35 -262h262z" />
    <glyph glyph-name="onethirdemdash" unicode="&#xe471;" horiz-adv-x="333" 
d="M285 318l9 64h-253l-9 -64h253z" />
    <glyph glyph-name="threequarteremdash" unicode="&#xe472;" horiz-adv-x="750" 
d="M32 318h670l9 64h-670z" />
    <glyph glyph-name="periodcentered.cap" unicode="&#xe481;" horiz-adv-x="217" 
d="M161 435h-90l-12 -90h90z" />
    <glyph glyph-name="hyphen.cap" unicode="&#xe482;" horiz-adv-x="329" 
d="M285 358l9 64h-248l-9 -64h248z" />
    <glyph glyph-name="onethirdemdash.cap" unicode="&#xe483;" horiz-adv-x="333" 
d="M290 358l9 64h-253l-9 -64h253z" />
    <glyph glyph-name="endash.cap" unicode="&#xe484;" horiz-adv-x="500" 
d="M37 358h420l9 64h-420z" />
    <glyph glyph-name="threequarteremdash.cap" unicode="&#xe485;" horiz-adv-x="750" 
d="M37 358h670l9 64h-670z" />
    <glyph glyph-name="emdash.cap" unicode="&#xe486;" horiz-adv-x="1000" 
d="M37 358h920l9 64h-920z" />
    <glyph glyph-name="figuredash.cap" unicode="&#xe487;" horiz-adv-x="600" 
d="M37 358h520l9 64h-520z" />
    <glyph glyph-name="uni2015.cap" unicode="&#xe488;" horiz-adv-x="1200" 
d="M37 358h1120l9 64h-1120z" />
    <glyph glyph-name="parenleft.cap" unicode="&#xe491;" horiz-adv-x="317" 
d="M60 378l-4 -107l13 -98l28 -91l38 -82h74l-39 84l-28 92l-14 98l4 104l3 24l23 104l40 98l52 92l61 84h-75l-60 -82l-51 -90l-39 -99l-23 -107z" />
    <glyph glyph-name="parenright.cap" unicode="&#xe492;" horiz-adv-x="316" 
d="M260 402l4 107l-13 99l-28 90l-38 82h-74l39 -84l28 -92l14 -98l-4 -104l-3 -24l-23 -104l-40 -98l-52 -92l-61 -84h75l60 82l51 91l39 98l23 107z" />
    <glyph glyph-name="bracketleft.cap" unicode="&#xe493;" horiz-adv-x="317" 
d="M120 780l-102 -780h208l8 65h-137l85 650h138l8 65h-208z" />
    <glyph glyph-name="bracketright.cap" unicode="&#xe494;" horiz-adv-x="317" 
d="M201 0l102 780h-208l-8 -65h137l-85 -650h-138l-8 -65h208z" />
    <glyph glyph-name="braceleft.cap" unicode="&#xe495;" horiz-adv-x="317" 
d="M329 780h-18l-55 -6l-50 -22l-39 -42l-21 -68l-17 -131l-11 -45l-20 -26l-29 -14l-38 -3l-8 -66l37 -3l26 -14l12 -26l-1 -45l-16 -125l4 -68l27 -45l43 -24l54 -7h18l8 65l-43 4l-27 16l-12 32l2 53l15 117l1 38l-8 29l-17 21l-25 15l29 15l22 21l16 29l9 37l15 117
l12 52l22 33l32 16l43 5z" />
    <glyph glyph-name="braceright.cap" unicode="&#xe496;" horiz-adv-x="317" 
d="M-7 0h18l55 6l50 22l39 42l21 68l17 131l11 45l20 26l29 14l38 3l8 66l-37 3l-25 14l-13 26l1 45l16 125l-4 68l-27 45l-43 24l-54 7h-18l-8 -65l43 -4l27 -16l12 -32l-2 -53l-15 -117l-1 -38l8 -28l17 -22l25 -15l-29 -15l-22 -21l-16 -29l-9 -37l-15 -117l-12 -52
l-22 -32l-32 -17l-43 -5z" />
    <glyph glyph-name="anglebracketleft.cap" unicode="&#xe497;" horiz-adv-x="317" 
d="M204 0l-80 388l184 392h-75l-183 -390l81 -390h73z" />
    <glyph glyph-name="anglebracketright.cap" unicode="&#xe498;" horiz-adv-x="317" 
d="M118 780l80 -388l-184 -392h75l183 390l-81 390h-73z" />
    <glyph glyph-name="lowline" unicode="&#xe511;" horiz-adv-x="320" 
d="M-1 0h224l9 64h-224z" />
    <glyph glyph-name="underscoremonospace" unicode="&#xe512;" horiz-adv-x="600" 
d="M-19 -135h504l9 64h-504z" />
    <glyph glyph-name="at.cap" unicode="&#xe513;" horiz-adv-x="956" 
d="M614 501l-28 -212l-24 -27l-34 -26l-43 -19l-51 -8l-58 13l-37 38l-17 56l2 71l3 22l17 69l33 54l47 36l62 13l48 -8l37 -19l26 -26zM448 -56l-163 28l-120 81l-69 134l-7 183l5 40l52 180l100 134l139 83l168 29h10l134 -18l110 -59l67 -106l11 -159l-5 -40l-31 -124
l-51 -72l-70 -34l-86 -10l35 266l25 150h-54l-18 -73l-20 32l-31 27l-40 18l-51 7l-94 -19l-68 -52l-45 -75l-23 -88l-3 -22l-1 -88l25 -76l56 -52l90 -20l51 7l44 18l36 26l29 32l1 -72h46l109 12l90 45l67 89l39 148l5 40l-13 178l-78 123l-129 73l-164 23l-192 -33
l-157 -94l-113 -151l-59 -203l-5 -40l9 -203l79 -151l140 -94l193 -33l92 6l98 21l95 36l85 55l-31 43l-71 -44l-82 -33l-90 -21l-91 -8h-10z" />
    <glyph glyph-name="zero.inf" unicode="&#xe571;" horiz-adv-x="298" 
d="M51 78l6 28l13 18l19 11l26 3h3l26 -4l16 -11l9 -19v-25l-22 -168l-7 -27l-13 -18l-18 -11l-26 -3h-3l-26 4l-17 11l-8 19v25zM235 79l-2 47l-20 37l-39 24l-56 9l-55 -8l-40 -23l-25 -37l-13 -49l-22 -168l2 -47l20 -38l38 -24l57 -9l55 8l40 23l25 37l13 50z" />
    <glyph glyph-name="one.inf" unicode="&#xe572;" 
d="M201 -200l7 49h-95l45 342h-40l-132 -83l22 -42l85 53l-36 -270h-94l-7 -49h245z" />
    <glyph glyph-name="two.inf" unicode="&#xe573;" horiz-adv-x="299" 
d="M206 -151h-173l144 133l21 21l18 22l12 24l7 29l1 8l-3 42l-19 35l-37 24l-58 9l-55 -8l-39 -23l-26 -36l-13 -47l-3 -22h56l9 40l17 27l23 14l28 5h6l25 -4l20 -11l11 -20l1 -29l-1 -8l-4 -17l-8 -16l-12 -16l-18 -17l-182 -168l-5 -40h250z" />
    <glyph glyph-name="three.inf" unicode="&#xe574;" horiz-adv-x="299" 
d="M19 -75h-57l-1 -8l1 -52l19 -39l38 -25l60 -8l53 8l40 23l28 34l13 43l1 8v31l-8 27l-16 20l-23 12l25 9l21 18l15 25l8 31l1 8l-3 41l-21 34l-38 23l-56 8l-55 -8l-39 -23l-26 -36l-13 -47l-3 -22h56l9 40l17 27l23 14l28 5h6l25 -3l20 -11l11 -19l2 -27l-1 -8l-7 -24
l-15 -17l-22 -10l-28 -3h-54l-6 -50h55l26 -4l19 -12l10 -20l1 -28l-1 -8l-9 -28l-17 -18l-23 -10l-25 -3h-7l-28 4l-20 14l-10 25z" />
    <glyph glyph-name="four.inf" unicode="&#xe575;" 
d="M139 97l-6 -42l-15 -111h-61l-36 -1zM155 -200l12 95h54l7 49h-54l32 246h-56l-195 -255l-5 -40h162l-13 -95h56z" />
    <glyph glyph-name="five.inf" unicode="&#xe576;" 
d="M-38 -75l-1 -8l1 -52l19 -39l38 -25l60 -8l53 9l41 25l29 39l14 51l1 8l-2 56l-21 39l-37 23l-51 7l-22 -2l-21 -7l-18 -8l-13 -10l21 117h188l6 50h-237l-39 -217l47 -15l15 18l18 13l22 8l25 3h6l26 -5l19 -13l11 -24l1 -33l-1 -8l-10 -34l-18 -23l-24 -13l-26 -4h-6
l-28 4l-20 14l-10 25l1 39h-57z" />
    <glyph glyph-name="six.inf" unicode="&#xe577;" 
d="M105 -4l26 -5l19 -13l10 -23l1 -30l-1 -8l-10 -34l-18 -23l-24 -13l-26 -4h-6l-25 5l-18 13l-11 22l-3 29v12l2 10l1 10l1 7l15 18l18 14l21 10l22 3h6zM235 196l-52 -4l-50 -12l-47 -24l-42 -36l-29 -38l-23 -40l-15 -45l-10 -51l-1 -8l1 -61l20 -46l38 -28l54 -10l53 9
l41 25l29 39l14 51l1 8l-2 53l-20 38l-32 22l-42 8l-25 -2l-21 -7l-19 -9l-15 -12l8 19l9 18l12 18l15 17l32 26l35 18l37 11l40 3z" />
    <glyph glyph-name="seven.inf" unicode="&#xe578;" 
d="M-21 50h53l13 91h84l56 1l-188 -342h62l191 350l5 40h-257z" />
    <glyph glyph-name="eight.inf" unicode="&#xe579;" horiz-adv-x="299" 
d="M76 -158l-25 4l-19 12l-11 20l-2 28l1 8l7 25l15 19l22 12l28 4h10l26 -4l19 -12l10 -20l1 -28l-1 -8l-9 -28l-17 -19l-23 -10l-25 -3h-7zM121 146l26 -4l19 -11l12 -19l2 -26l-1 -8l-7 -23l-15 -17l-22 -10l-28 -4h-9l-26 4l-19 12l-10 19l-2 24l1 8l9 26l16 17l23 9
l25 3h6zM79 -208l54 8l41 24l26 34l13 43l1 8v31l-8 27l-16 20l-23 12l25 9l21 18l15 25l8 31l1 8l-3 41l-21 34l-39 23l-56 8l-53 -8l-40 -22l-26 -33l-13 -42l-1 -8l1 -30l9 -24l17 -19l22 -11l-25 -10l-22 -20l-16 -27l-8 -31l-1 -8l2 -41l19 -36l37 -25z" />
    <glyph glyph-name="nine.inf" unicode="&#xe57a;" horiz-adv-x="298" 
d="M93 -7l-26 5l-19 13l-10 23l-1 30l1 8l10 34l18 23l24 13l26 4h6l25 -5l18 -13l11 -22l3 -29v-12l-2 -10l-1 -10l-1 -7l-15 -18l-18 -14l-21 -10l-22 -3h-6zM-39 -207l52 4l51 12l48 24l42 36l29 38l23 40l15 45l10 51l1 8l-1 61l-20 46l-38 28l-54 10l-53 -9l-41 -25
l-29 -39l-14 -51l-1 -8l2 -53l20 -38l32 -22l42 -8l25 2l21 7l19 9l15 12l-8 -19l-9 -18l-12 -18l-15 -17l-32 -26l-36 -18l-38 -11l-40 -3z" />
    <glyph glyph-name="plus.inf" unicode="&#xe57b;" 
d="M91 122l-13 -102h-102l-8 -51h102l-13 -101h51l13 101h102l8 51h-103l13 102h-50z" />
    <glyph glyph-name="minus.inf" unicode="&#xe57c;" 
d="M-32 -31h255l8 51h-255z" />
    <glyph glyph-name="equal.inf" unicode="&#xe57d;" 
d="M-41 -87h255l8 51h-255zM-23 25h255l8 51h-255z" />
    <glyph glyph-name="parenleft.inf" unicode="&#xe57e;" horiz-adv-x="169" 
d="M-25 -6l-1 -57l7 -54l14 -46l17 -37h56l-17 37l-14 45l-8 52l2 60l1 8l13 58l21 51l26 44l28 35h-60l-28 -34l-25 -42l-19 -50l-12 -62z" />
    <glyph glyph-name="parenright.inf" unicode="&#xe57f;" horiz-adv-x="167" 
d="M92 -4l1 57l-7 54l-14 46l-17 37h-56l17 -37l14 -45l8 -52l-2 -60l-1 -8l-13 -58l-21 -51l-26 -44l-28 -35h60l28 34l25 42l19 50l12 62z" />
    <glyph glyph-name="Anocross" unicode="&#xe731;" horiz-adv-x="611" 
d="M309 788l-329 -788h79l292 709l106 -709h76l-121 788h-103z" />
    <glyph glyph-name="blacksquare" unicode="&#xe740;" horiz-adv-x="920" 
d="M850 0v780h-780v-780h780z" />
    <glyph glyph-name="idotaccent" unicode="&#xe785;" horiz-adv-x="216" 
d="M202 745h-90l-12 -90h90zM24 0h70l69 530h-70z" />
    <glyph glyph-name="interrobangdown" unicode="&#xe935;" horiz-adv-x="455" 
d="M193 440h90l12 90h-90zM46 -45l13 69l32 54l42 48l45 51l-54 -320l-35 11l-24 21l-14 29zM201 341l-50 -116l-77 -74l-70 -76l-31 -125l10 -66l32 -51l56 -32l83 -12l95 16l67 49l43 81l26 111l2 14h-72l-14 -76l-23 -58l-32 -41l-44 -24l46 480h-47z" />
    <glyph glyph-name="interrobangdown.cap" unicode="&#xe99b;" horiz-adv-x="455" 
d="M224 690h90l12 90h-90zM75 167l13 77l32 63l43 55l45 57l-59 -362l-34 13l-23 23l-13 32zM232 591l-51 -125l-78 -85l-71 -87l-31 -132l10 -72l32 -55l57 -34l83 -12l98 19l66 54l42 86l24 114l2 14h-71l-14 -80l-23 -64l-33 -47l-47 -26l52 532h-47z" />
    <glyph glyph-name="registered.cap" unicode="&#xe99c;" horiz-adv-x="920" 
d="M363 396v175h107l31 -3l29 -12l22 -26l8 -43v-7l-8 -43l-22 -25l-29 -13l-31 -3h-107zM363 342h124l69 -187h70l-78 198l30 16l25 25l17 36l6 48v12l-13 67l-35 41l-47 21l-52 6h-182v-470h66v187zM102 390l28 139l77 114l114 77l139 28l139 -28l114 -77l77 -114l28 -139
l-28 -139l-77 -114l-114 -77l-139 -28l-139 28l-114 77l-77 114zM59 390l32 -156l86 -127l127 -86l156 -32l156 32l127 86l86 127l32 156l-32 156l-86 127l-127 86l-156 32l-156 -32l-127 -86l-86 -127z" />
    <glyph glyph-name="period.T" unicode="&#xf182;" 
d="M158 90h-90l-12 -90h90z" />
    <glyph glyph-name="comma.T" unicode="&#xf183;" 
d="M158 90h-90l-12 -90h45l-11 -36l-17 -23l-22 -13l-27 -4l-6 -43l50 8l38 26l27 42l15 58z" />
    <glyph glyph-name="colon.T" unicode="&#xf184;" 
d="M203 435h-90l-12 -90h90zM158 90h-90l-12 -90h90z" />
    <glyph glyph-name="semicolon.T" unicode="&#xf185;" 
d="M203 435h-90l-12 -90h90zM158 90h-90l-12 -90h45l-11 -36l-17 -23l-22 -13l-27 -4l-6 -43l50 8l38 26l27 42l15 58z" />
    <glyph glyph-name="onesixteenth" unicode="&#xf215;" horiz-adv-x="1100" 
d="M932 196l26 -5l19 -13l10 -22l1 -31l-1 -8l-10 -33l-18 -23l-24 -14l-26 -4h-6l-25 5l-18 13l-11 22l-3 29v12l2 11l1 9l1 7l15 18l18 14l21 10l22 3h6zM1062 396l-52 -4l-50 -12l-47 -24l-42 -36l-29 -38l-23 -40l-15 -45l-10 -51l-1 -8l1 -61l20 -46l38 -28l54 -10
l53 9l41 25l29 39l14 51l1 8l-2 53l-20 38l-32 22l-42 8l-25 -2l-21 -7l-19 -9l-15 -12l8 19l9 18l12 18l15 17l32 26l35 18l37 11l40 3zM728 0l7 49h-95l45 342h-40l-132 -83l22 -42l85 53l-36 -270h-94l-7 -49h245zM99 0l678 780h-70l-678 -780h70zM279 390l7 49h-95
l45 342h-40l-132 -83l22 -42l85 53l-36 -270h-94l-7 -49h245z" />
    <glyph glyph-name="threesixteenths" unicode="&#xf216;" horiz-adv-x="1100" 
d="M932 196l26 -5l19 -13l10 -22l1 -31l-1 -8l-10 -33l-18 -23l-24 -14l-26 -4h-6l-25 5l-18 13l-11 22l-3 29v12l2 11l1 9l1 7l15 18l18 14l21 10l22 3h6zM1062 396l-52 -4l-50 -12l-47 -24l-42 -36l-29 -38l-23 -40l-15 -45l-10 -51l-1 -8l1 -61l20 -46l38 -28l54 -10
l53 9l41 25l29 39l14 51l1 8l-2 53l-20 38l-32 22l-42 8l-25 -2l-21 -7l-19 -9l-15 -12l8 19l9 18l12 18l15 17l32 26l35 18l37 11l40 3zM728 0l7 49h-95l45 342h-40l-132 -83l22 -42l85 53l-36 -270h-94l-7 -49h245zM99 0l678 780h-70l-678 -780h70zM97 515h-57l-1 -8
l1 -52l19 -39l38 -25l60 -8l53 8l40 23l28 34l13 43l1 8v31l-8 27l-16 20l-23 12l25 9l21 18l15 25l8 31l1 8l-3 41l-21 34l-38 23l-56 8l-55 -8l-39 -23l-26 -36l-13 -47l-3 -22h56l9 40l17 27l23 14l28 5h6l25 -3l20 -11l11 -19l2 -27l-1 -8l-7 -24l-15 -17l-22 -10
l-28 -3h-54l-6 -50h55l26 -4l19 -12l10 -20l1 -28l-1 -8l-9 -28l-17 -18l-23 -10l-25 -3h-7l-28 4l-20 14l-10 25z" />
    <glyph glyph-name="fivesixteenths" unicode="&#xf217;" horiz-adv-x="1100" 
d="M932 196l26 -5l19 -13l10 -22l1 -31l-1 -8l-10 -33l-18 -23l-24 -14l-26 -4h-6l-25 5l-18 13l-11 22l-3 29v12l2 11l1 9l1 7l15 18l18 14l21 10l22 3h6zM1062 396l-52 -4l-50 -12l-47 -24l-42 -36l-29 -38l-23 -40l-15 -45l-10 -51l-1 -8l1 -61l20 -46l38 -28l54 -10
l53 9l41 25l29 39l14 51l1 8l-2 53l-20 38l-32 22l-42 8l-25 -2l-21 -7l-19 -9l-15 -12l8 19l9 18l12 18l15 17l32 26l35 18l37 11l40 3zM728 0l7 49h-95l45 342h-40l-132 -83l22 -42l85 53l-36 -270h-94l-7 -49h245zM99 0l678 780h-70l-678 -780h70zM40 515l-1 -8l1 -52
l19 -39l38 -25l60 -8l53 9l41 25l29 39l14 51l1 8l-2 56l-21 39l-37 23l-51 7l-22 -2l-21 -7l-18 -8l-13 -10l21 117h188l6 50h-237l-39 -217l47 -15l15 18l18 14l22 7l25 3h6l26 -5l19 -13l11 -24l1 -33l-1 -8l-10 -33l-18 -23l-24 -14l-26 -4h-6l-28 4l-20 14l-10 25l1 39
h-57z" />
    <glyph glyph-name="sevensixteenths" unicode="&#xf218;" horiz-adv-x="1100" 
d="M932 196l26 -5l19 -13l10 -22l1 -31l-1 -8l-10 -33l-18 -23l-24 -14l-26 -4h-6l-25 5l-18 13l-11 22l-3 29v12l2 11l1 9l1 7l15 18l18 14l21 10l22 3h6zM1062 396l-52 -4l-50 -12l-47 -24l-42 -36l-29 -38l-23 -40l-15 -45l-10 -51l-1 -8l1 -61l20 -46l38 -28l54 -10
l53 9l41 25l29 39l14 51l1 8l-2 53l-20 38l-32 22l-42 8l-25 -2l-21 -7l-19 -9l-15 -12l8 19l9 18l12 18l15 17l32 26l35 18l37 11l40 3zM728 0l7 49h-95l45 342h-40l-132 -83l22 -42l85 53l-36 -270h-94l-7 -49h245zM99 0l678 780h-70l-678 -780h70zM57 640h53l13 91h84
l56 1l-188 -342h62l191 350l5 40h-257z" />
    <glyph glyph-name="ninesixteenths" unicode="&#xf219;" horiz-adv-x="1100" 
d="M932 196l26 -5l19 -13l10 -22l1 -31l-1 -8l-10 -33l-18 -23l-24 -14l-26 -4h-6l-25 5l-18 13l-11 22l-3 29v12l2 11l1 9l1 7l15 18l18 14l21 10l22 3h6zM1062 396l-52 -4l-50 -12l-47 -24l-42 -36l-29 -38l-23 -40l-15 -45l-10 -51l-1 -8l1 -61l20 -46l38 -28l54 -10
l53 9l41 25l29 39l14 51l1 8l-2 53l-20 38l-32 22l-42 8l-25 -2l-21 -7l-19 -9l-15 -12l8 19l9 18l12 18l15 17l32 26l35 18l37 11l40 3zM728 0l7 49h-95l45 342h-40l-132 -83l22 -42l85 53l-36 -270h-94l-7 -49h245zM99 0l678 780h-70l-678 -780h70zM171 583l-26 5l-19 13
l-10 23l-1 30l1 8l10 34l18 23l24 13l26 4h6l25 -5l18 -13l11 -22l3 -29v-12l-2 -10l-1 -10l-1 -7l-15 -18l-18 -14l-21 -10l-22 -3h-6zM39 383l52 4l51 12l48 24l42 36l29 38l23 40l15 45l10 51l1 8l-1 61l-20 46l-38 28l-54 10l-53 -9l-41 -25l-29 -39l-14 -51l-1 -8
l2 -53l20 -38l32 -22l42 -8l25 2l21 7l19 9l15 12l-8 -19l-9 -18l-12 -18l-15 -17l-32 -26l-36 -18l-38 -11l-40 -3z" />
    <glyph glyph-name="elevensixteenths" unicode="&#xf220;" horiz-adv-x="1400" 
d="M1232 196l26 -5l19 -13l10 -22l1 -31l-1 -8l-10 -33l-18 -23l-24 -14l-26 -4h-6l-25 5l-18 13l-11 22l-3 29v12l2 11l1 9l1 7l15 18l18 14l21 10l22 3h6zM1362 396l-52 -4l-50 -12l-47 -24l-42 -36l-29 -38l-23 -40l-15 -45l-10 -51l-1 -8l1 -61l20 -46l38 -28l54 -10
l53 9l41 25l29 39l14 51l1 8l-2 53l-20 38l-32 22l-42 8l-25 -2l-21 -7l-19 -9l-15 -12l8 19l9 18l12 18l15 17l32 26l35 18l37 11l40 3zM1028 0l7 49h-95l45 342h-40l-132 -83l22 -42l85 53l-36 -270h-94l-7 -49h245zM399 0l678 780h-70l-678 -780h70zM579 390l7 49h-95
l45 342h-40l-132 -83l22 -42l85 53l-36 -270h-94l-7 -49h245zM279 390l7 49h-95l45 342h-40l-132 -83l22 -42l85 53l-36 -270h-94l-7 -49h245z" />
    <glyph glyph-name="thirteensixteenths" unicode="&#xf221;" horiz-adv-x="1400" 
d="M1232 196l26 -5l19 -13l10 -22l1 -31l-1 -8l-10 -33l-18 -23l-24 -14l-26 -4h-6l-25 5l-18 13l-11 22l-3 29v12l2 11l1 9l1 7l15 18l18 14l21 10l22 3h6zM1362 396l-52 -4l-50 -12l-47 -24l-42 -36l-29 -38l-23 -40l-15 -45l-10 -51l-1 -8l1 -61l20 -46l38 -28l54 -10
l53 9l41 25l29 39l14 51l1 8l-2 53l-20 38l-32 22l-42 8l-25 -2l-21 -7l-19 -9l-15 -12l8 19l9 18l12 18l15 17l32 26l35 18l37 11l40 3zM1028 0l7 49h-95l45 342h-40l-132 -83l22 -42l85 53l-36 -270h-94l-7 -49h245zM399 0l678 780h-70l-678 -780h70zM397 515h-57l-1 -8
l1 -52l19 -39l38 -25l60 -8l53 8l40 23l28 34l13 43l1 8v31l-8 27l-16 20l-23 12l25 9l21 18l15 25l8 31l1 8l-3 41l-21 34l-38 23l-56 8l-55 -8l-39 -23l-26 -36l-13 -47l-3 -22h56l9 40l17 27l23 14l28 5h6l25 -3l20 -11l11 -19l2 -27l-1 -8l-7 -24l-15 -17l-22 -10
l-28 -3h-54l-6 -50h55l26 -4l19 -12l10 -20l1 -28l-1 -8l-9 -28l-17 -18l-23 -10l-25 -3h-7l-28 4l-20 14l-10 25zM279 390l7 49h-95l45 342h-40l-132 -83l22 -42l85 53l-36 -270h-94l-7 -49h245z" />
    <glyph glyph-name="fifteensixteenths" unicode="&#xf222;" horiz-adv-x="1400" 
d="M1232 196l26 -5l19 -13l10 -22l1 -31l-1 -8l-10 -33l-18 -23l-24 -14l-26 -4h-6l-25 5l-18 13l-11 22l-3 29v12l2 11l1 9l1 7l15 18l18 14l21 10l22 3h6zM1362 396l-52 -4l-50 -12l-47 -24l-42 -36l-29 -38l-23 -40l-15 -45l-10 -51l-1 -8l1 -61l20 -46l38 -28l54 -10
l53 9l41 25l29 39l14 51l1 8l-2 53l-20 38l-32 22l-42 8l-25 -2l-21 -7l-19 -9l-15 -12l8 19l9 18l12 18l15 17l32 26l35 18l37 11l40 3zM1028 0l7 49h-95l45 342h-40l-132 -83l22 -42l85 53l-36 -270h-94l-7 -49h245zM399 0l678 780h-70l-678 -780h70zM340 515l-1 -8l1 -52
l19 -39l38 -25l60 -8l53 9l41 25l29 39l14 51l1 8l-2 56l-21 39l-37 23l-51 7l-22 -2l-21 -7l-18 -8l-13 -10l21 117h188l6 50h-237l-39 -217l47 -15l15 18l18 14l22 7l25 3h6l26 -5l19 -13l11 -24l1 -33l-1 -8l-10 -33l-18 -23l-24 -14l-26 -4h-6l-28 4l-20 14l-10 25l1 39
h-57zM279 390l7 49h-95l45 342h-40l-132 -83l22 -42l85 53l-36 -270h-94l-7 -49h245z" />
    <glyph glyph-name="commaaccent" unicode="&#xf6c3;" horiz-adv-x="602" 
d="M234 -56h-81l-9 -68h42l-11 -24l-17 -17l-21 -10l-24 -3l-5 -36l46 7l35 21l25 33l13 46z" />
    </font>
</defs>
</svg>
