<?xml version="1.0" standalone="no"?>
<!DOCTYPE svg PUBLIC "-//W3C//DTD SVG 1.1//EN" "http://www.w3.org/Graphics/SVG/1.1/DTD/svg11.dtd" >
<svg>
<metadata>
Created by FontForge 20120731 at Sun Aug 14 13:23:22 2016
 By www-data
Copyright (c) 2014, Cooper Hewitt Smithsonian Design Museum (cooperhewitt.org)
</metadata>
<defs>
<font id="CooperHewittInterpol3-Heavy" horiz-adv-x="300" >
  <font-face 
    font-family="Cooper Hewitt Interpol 3"
    font-weight="713"
    font-stretch="normal"
    units-per-em="1000"
    panose-1="0 0 0 0 0 0 0 0 0 0"
    ascent="750"
    descent="-250"
    x-height="530"
    cap-height="780"
    bbox="-263 -230 1396 970"
    underline-thickness="50"
    underline-position="-75"
    unicode-range="U+0020-F6C3"
  />
<missing-glyph horiz-adv-x="960" 
d="M525 390l275 275v-550zM435 390l-275 -275v550zM201 714h558l-279 -279zM480 345l279 -279h-558zM90 0h780v780h-780v-780z" />
    <glyph glyph-name=".notdef" horiz-adv-x="960" 
d="M525 390l275 275v-550zM435 390l-275 -275v550zM201 714h558l-279 -279zM480 345l279 -279h-558zM90 0h780v780h-780v-780z" />
    <glyph glyph-name="space" unicode=" " horiz-adv-x="200" 
 />
    <glyph glyph-name="exclam" unicode="!" horiz-adv-x="280" 
d="M235 190h-190v-190h190v190zM25 780l50 -540h130l50 540h-230z" />
    <glyph glyph-name="quotedbl" unicode="&#x22;" horiz-adv-x="480" 
d="M260 780l8 -340h144l28 340h-180zM40 780l28 -340h144l8 340h-180z" />
    <glyph glyph-name="numbersign" unicode="#" horiz-adv-x="600" 
d="M278 440h60l-17 -100h-60zM60 440h58l-17 -100h-81v-160h54l-30 -180h160l30 180h60l-30 -180h160l30 180h86v160h-59l17 100h82v160h-55l31 180h-160l-31 -180h-60l31 180h-160l-31 -180h-85v-160z" />
    <glyph glyph-name="dollar" unicode="$" horiz-adv-x="600" 
d="M301 200l-34 5l-24 16l-14 26l-5 36h-187v-5l8 -73l23 -58l38 -44l51 -31l-31 -132h140l26 109h8l115 14l83 42l49 67l17 90v11l-14 79l-41 53l-68 34l-93 20l-59 10l-36 11l-19 18l-5 27l3 21l12 18l20 12l30 5h5l36 -7l22 -20l12 -29l4 -35h185v13l-7 69l-20 56l-34 45
l-48 32l32 135h-140l-26 -108h-15l-106 -13l-81 -40l-52 -66l-18 -91v-11l14 -79l40 -52l65 -34l90 -21l61 -12l38 -14l20 -19l5 -29l-4 -18l-13 -16l-22 -12l-31 -5h-5z" />
    <glyph glyph-name="percent" unicode="%" horiz-adv-x="1000" 
d="M281 600v-12l-4 -23l-11 -18l-18 -13l-25 -4h-6l-25 4l-18 13l-11 18l-4 23v12l4 23l11 18l18 13l25 4h6l25 -4l18 -13l11 -18zM719 180v12l4 23l11 18l18 13l25 4h6l25 -4l18 -13l11 -18l4 -23v-12l-4 -23l-11 -18l-18 -13l-25 -4h-6l-25 4l-18 13l-11 18zM584 192v-12
l14 -83l41 -61l62 -37l79 -13l79 13l62 37l41 61l14 83v12l-14 83l-41 61l-62 37l-79 13l-79 -13l-62 -37l-41 -61zM417 0l292 700v84l-35 -10l-52 -10l-63 -9l-69 -3l-59 1l-47 5l-40 8l-41 14l-19 6l-21 4l-21 3l-22 1l-79 -13l-62 -37l-41 -61l-14 -83v-12l14 -83l41 -61
l62 -37l79 -13l79 13l62 37l41 61l14 83v20l9 -1h10l10 -1h10h16l14 1l14 2l13 2l-255 -611h160z" />
    <glyph glyph-name="ampersand" unicode="&#x26;" horiz-adv-x="700" 
d="M250 602l3 17l7 13l11 8l15 3h6l15 -3l11 -8l7 -13l3 -17v-5l-4 -24l-12 -20l-18 -18l-23 -17l-9 19l-6 20l-5 20l-1 20v5zM278 144l-33 6l-24 17l-15 27l-5 37v5l1 18l5 17l6 15l9 14l120 -147l-14 -4l-14 -3l-15 -1l-16 -1h-5zM246 -14l56 3l51 8l47 13l44 18l23 -28
h221l-108 132l45 64l31 67l19 66l6 61v5h-195v-2l-1 -29l-5 -29l-7 -30l-11 -29l-96 118l55 33l47 42l33 55l13 74v11l-12 70l-39 59l-70 41l-104 15l-104 -15l-70 -41l-39 -59l-12 -70v-11l4 -51l10 -42l17 -38l23 -37l-41 -35l-34 -45l-23 -56l-8 -70v-11l15 -92l46 -72
l73 -46z" />
    <glyph glyph-name="quotesingle" unicode="'" horiz-adv-x="280" 
d="M40 780l28 -340h144l28 340h-200z" />
    <glyph glyph-name="parenleft" unicode="(" horiz-adv-x="380" 
d="M35 350l11 -154l29 -124l44 -102l56 -90h191l-57 98l-46 109l-32 123l-11 140v20l11 140l32 123l46 109l57 98h-191l-56 -90l-44 -102l-29 -124l-11 -154v-20z" />
    <glyph glyph-name="parenright" unicode=")" horiz-adv-x="380" 
d="M345 370l-11 154l-29 124l-44 102l-56 90h-191l57 -98l46 -109l32 -123l11 -140v-20l-11 -140l-32 -123l-46 -109l-57 -98h191l56 90l44 102l29 124l11 154v20z" />
    <glyph glyph-name="asterisk" unicode="*" horiz-adv-x="420" 
d="M369 463l-81 102l-73 -53l73 -108zM386 708l-122 -45l28 -86l125 36zM132 404l73 108l-73 53l-81 -102zM3 613l125 -36l28 86l-122 45zM160 800l5 -130h90l5 130h-100z" />
    <glyph glyph-name="plus" unicode="+" horiz-adv-x="600" 
d="M218 650v-178h-178v-164h178v-178h164v178h178v164h-178v178h-164z" />
    <glyph glyph-name="comma" unicode="," horiz-adv-x="280" 
d="M235 190h-190v-190h94l-13 -26l-20 -19l-27 -11l-34 -4v-90l82 12l60 36l36 60l12 82v150z" />
    <glyph glyph-name="hyphen" unicode="-" horiz-adv-x="360" 
d="M40 270h280v160h-280v-160z" />
    <glyph glyph-name="period" unicode="." horiz-adv-x="280" 
d="M235 190h-190v-190h190v190z" />
    <glyph glyph-name="slash" unicode="/" horiz-adv-x="440" 
d="M425 840h-180l-230 -960h180z" />
    <glyph glyph-name="zero" unicode="0" horiz-adv-x="600" 
d="M374 560v-340l-5 -29l-13 -23l-23 -15l-31 -5h-4l-31 5l-23 15l-13 23l-5 29v340l5 29l13 23l23 15l31 5h4l31 -5l23 -15l13 -23zM560 220v340l-17 94l-49 74l-82 48l-112 18l-112 -18l-82 -48l-49 -74l-17 -94v-340l17 -94l49 -74l82 -48l112 -18l112 18l82 48l49 74z
" />
    <glyph glyph-name="one" unicode="1" horiz-adv-x="600" 
d="M565 0v162h-162v618h-140l-243 -165l91 -134l106 71v-390h-162v-162h510z" />
    <glyph glyph-name="two" unicode="2" horiz-adv-x="600" 
d="M370 162l-70 -1l173 192l37 44l27 44l17 51l6 63v20l-13 75l-42 71l-80 52l-125 21l-115 -16l-81 -47l-48 -80l-16 -112v-19h186l5 53l15 35l22 18l27 6h10l27 -5l22 -17l15 -29l5 -41v-10l-3 -26l-8 -22l-14 -21l-19 -21l-290 -323v-117h520v162h-190z" />
    <glyph glyph-name="three" unicode="3" horiz-adv-x="600" 
d="M221 250h-186v-14l17 -107l50 -78l82 -49l116 -16l125 22l82 56l45 73l13 74v20l-7 57l-19 47l-28 36l-35 28l33 28l27 37l17 45l7 56v20l-13 69l-42 68l-80 51l-125 21l-115 -16l-81 -47l-48 -80l-16 -112v-19h186l5 53l15 35l22 18l27 6h10l27 -5l22 -14l15 -22l5 -28
v-10l-4 -32l-14 -23l-22 -14l-32 -5h-102v-162h105l32 -5l23 -14l14 -23l5 -32v-10l-6 -39l-16 -26l-24 -15l-28 -5h-10l-28 5l-24 16l-16 31z" />
    <glyph glyph-name="four" unicode="4" horiz-adv-x="600" 
d="M319 486l-2 -44v-121h-61l-41 -2zM503 0v159h72v162h-72v459h-175l-303 -490v-131h292v-159h186z" />
    <glyph glyph-name="five" unicode="5" horiz-adv-x="600" 
d="M35 250v-14l17 -107l50 -78l82 -49l116 -16l117 18l83 51l49 80l16 103v20l-16 103l-48 80l-80 51l-111 18l-27 -1l-26 -4l-25 -6l-23 -7l5 126h341v162h-496l-18 -425l160 -55l17 21l22 15l25 9l25 3h5l34 -5l26 -16l18 -30l6 -44v-10l-6 -44l-16 -30l-24 -16l-28 -5
h-10l-28 5l-24 16l-16 31l-6 50h-186z" />
    <glyph glyph-name="six" unicode="6" horiz-adv-x="600" 
d="M302 331h5l28 -4l23 -14l15 -25l6 -37v-20l-6 -36l-17 -26l-25 -16l-28 -5h-6l-30 7l-24 21l-16 35l-6 49v26l17 21l21 14l22 7zM525 794l-118 -6l-102 -23l-88 -44l-72 -71l-52 -86l-34 -89l-18 -92l-6 -93v-14l17 -117l50 -92l82 -60l116 -21l117 18l83 50l49 79
l16 103v10l-15 102l-43 78l-68 49l-88 17l-31 -2l-28 -6l-25 -8l-23 -12l8 24l11 21l12 20l13 18l41 37l51 26l65 15l80 5v164z" />
    <glyph glyph-name="seven" unicode="7" horiz-adv-x="600" 
d="M30 500h162v118h81l90 2l-262 -620h199l270 665v115h-540v-280z" />
    <glyph glyph-name="eight" unicode="8" horiz-adv-x="600" 
d="M305 632l27 -5l22 -14l15 -22l5 -28v-10l-4 -32l-14 -23l-22 -14l-32 -5h-4l-31 5l-23 14l-13 23l-5 32v10l5 28l15 22l22 14l27 5h10zM295 317h10l32 -5l23 -14l14 -23l5 -32v-10l-6 -39l-16 -26l-24 -15l-28 -5h-10l-28 5l-24 15l-16 26l-6 39v10l5 32l14 23l23 14z
M300 -14l125 22l82 56l45 73l13 74v20l-7 57l-19 47l-28 36l-35 28l33 28l27 37l17 45l7 56v20l-13 69l-42 68l-80 51l-125 21l-125 -21l-80 -51l-42 -68l-13 -69v-20l7 -56l17 -45l27 -37l33 -28l-35 -28l-28 -36l-19 -47l-7 -57v-20l13 -74l45 -73l82 -56z" />
    <glyph glyph-name="nine" unicode="9" horiz-adv-x="600" 
d="M298 449h-5l-28 4l-23 14l-15 25l-6 37v20l6 36l17 26l25 16l28 5h6l30 -7l24 -21l16 -35l6 -49v-27l-17 -20l-21 -14l-22 -7zM75 -14l118 6l102 23l88 44l72 71l52 86l34 89l18 92l6 93v14l-17 117l-49 92l-83 60l-116 21l-117 -18l-83 -50l-49 -79l-16 -103v-10
l15 -102l43 -78l68 -49l88 -17l30 2l28 5l26 9l23 11l-9 -23l-10 -22l-12 -19l-13 -18l-41 -37l-51 -26l-65 -15l-80 -5v-164z" />
    <glyph glyph-name="colon" unicode=":" horiz-adv-x="280" 
d="M235 485h-190v-190h190v190zM235 190h-190v-190h190v190z" />
    <glyph glyph-name="semicolon" unicode=";" horiz-adv-x="280" 
d="M235 485h-190v-190h190v190zM235 190h-190v-190h94l-13 -26l-20 -19l-27 -11l-34 -4v-90l82 12l60 36l36 60l12 82v150z" />
    <glyph glyph-name="less" unicode="&#x3c;" horiz-adv-x="600" 
d="M40 480v-180l520 -196v182l-299 104l299 104v182z" />
    <glyph glyph-name="equal" unicode="=" horiz-adv-x="600" 
d="M40 198h520v164h-520v-164zM40 418h520v164h-520v-164z" />
    <glyph glyph-name="greater" unicode="&#x3e;" horiz-adv-x="600" 
d="M560 480l-520 196v-182l299 -104l-299 -104v-182l520 196v180z" />
    <glyph glyph-name="question" unicode="?" horiz-adv-x="510" 
d="M345 190h-190v-190h190v190zM260 632l23 -4l15 -10l8 -16l3 -22l-22 -58l-46 -70l-44 -91l-12 -121h130l35 105l61 66l58 69l26 115l-10 70l-37 64l-72 47l-116 18l-112 -16l-74 -47l-41 -80l-13 -112v-19h186l3 53l9 35l17 18z" />
    <glyph glyph-name="at" unicode="@" horiz-adv-x="1000" 
d="M483 187l-29 6l-20 17l-12 28l-4 39v36l4 39l12 28l20 17l29 6l25 -4l20 -9l14 -12l10 -12v-142l-10 -12l-14 -12l-20 -9zM517 -96l-151 22l-117 68l-77 114l-27 162v40l28 162l76 114l116 68l147 22h6l121 -11l107 -41l77 -84l30 -139v-30l-6 -87l-23 -59l-43 -33
l-69 -14v218l10 134h-145l-11 -56l-23 28l-30 22l-36 15l-45 5l-79 -17l-57 -47l-34 -73l-12 -94v-36l12 -94l34 -73l57 -47l79 -17l45 5l36 14l30 22l23 28l11 -55h123l108 15l88 51l58 95l21 150v30l-37 182l-101 121l-147 69l-175 21l-195 -31l-155 -93l-103 -151
l-37 -209v-40l37 -209l103 -151l157 -93l198 -31l92 5l98 20l104 42l107 70l-68 92l-76 -48l-80 -35l-85 -21l-89 -7h-6z" />
    <glyph glyph-name="A" unicode="A" horiz-adv-x="650" 
d="M325 560l48 -238h-96zM195 780l-186 -780h204l31 158h162l32 -158h203l-186 780h-260z" />
    <glyph glyph-name="B" unicode="B" horiz-adv-x="645" 
d="M322 616l22 -2l22 -9l16 -19l6 -32v-12l-6 -32l-16 -19l-22 -9l-22 -2h-82v136h82zM335 316l24 -3l24 -10l18 -22l7 -37v-8l-7 -37l-18 -22l-24 -10l-24 -3h-95v152h95zM50 780v-780h280l95 7l87 32l63 69l25 122v20l-6 53l-18 43l-27 33l-34 24l27 23l20 30l13 37l5 45
v20l-23 117l-60 68l-82 30l-90 7h-275z" />
    <glyph glyph-name="C" unicode="C" horiz-adv-x="660" 
d="M226 370v40l4 91l15 70l33 44l57 15h10l46 -11l27 -30l13 -48l4 -61h190v39l-18 128l-55 85l-91 47l-126 15l-136 -22l-94 -69l-54 -119l-18 -174v-40l18 -174l54 -119l94 -69l136 -22l126 15l91 47l55 85l18 128v9h-190l-5 -48l-15 -38l-28 -25l-42 -9h-10l-57 15
l-33 44l-15 70z" />
    <glyph glyph-name="D" unicode="D" horiz-adv-x="670" 
d="M240 164v452h50l79 -13l47 -39l22 -65l6 -89v-40l-6 -89l-22 -65l-47 -39l-79 -13h-50zM637 370v40l-18 172l-59 114l-104 64l-156 20h-250v-780h250l156 20l104 64l59 114z" />
    <glyph glyph-name="E" unicode="E" horiz-adv-x="580" 
d="M50 780v-780h490v164h-300v152h250v164h-250v136h300v164h-490z" />
    <glyph glyph-name="F" unicode="F" horiz-adv-x="560" 
d="M50 780v-780h190v316h250v164h-250v136h300v164h-490z" />
    <glyph glyph-name="G" unicode="G" horiz-adv-x="680" 
d="M350 -14l95 7l76 20l62 30l51 35v356h-284v-164h94v-100l-19 -9l-21 -6l-24 -4l-25 -1h-10l-63 15l-36 44l-16 70l-4 91v40l4 91l16 70l34 44l60 15h10l49 -11l29 -30l13 -48l4 -61h190v39l-19 128l-57 85l-92 47l-127 15l-137 -22l-95 -69l-57 -119l-18 -174v-40
l19 -174l57 -119l99 -69z" />
    <glyph glyph-name="H" unicode="H" horiz-adv-x="670" 
d="M430 780v-300h-190v300h-190v-780h190v316h190v-316h190v780h-190z" />
    <glyph glyph-name="I" unicode="I" 
d="M245 780h-190v-780h190v780z" />
    <glyph glyph-name="J" unicode="J" horiz-adv-x="550" 
d="M315 780v-520l-2 -46l-9 -34l-17 -22l-29 -8l-29 8l-17 23l-9 37l-2 52h-180v-30l13 -108l41 -80l74 -49l114 -17l110 17l75 49l43 79l14 107v542h-190z" />
    <glyph glyph-name="K" unicode="K" horiz-adv-x="645" 
d="M240 780h-190v-780h190v220l53 77l127 -297h210l-214 473l214 307h-230l-160 -268v268z" />
    <glyph glyph-name="L" unicode="L" horiz-adv-x="530" 
d="M515 0v164h-275v616h-190v-780h465z" />
    <glyph glyph-name="M" unicode="M" horiz-adv-x="890" 
d="M655 450l-5 -150v-300h190v780h-283l-112 -450l-112 450h-283v-780h190v300l-5 150l112 -450h196z" />
    <glyph glyph-name="N" unicode="N" horiz-adv-x="690" 
d="M640 780h-180v-280l5 -150l-215 430h-200v-780h180v280l-5 150l215 -430h200v780z" />
    <glyph glyph-name="O" unicode="O" horiz-adv-x="680" 
d="M335 150l-55 15l-33 44l-17 70l-4 91v40l4 91l17 70l33 44l55 15h10l55 -15l33 -44l17 -70l4 -91v-40l-4 -91l-17 -70l-33 -44l-55 -15h-10zM340 -14l137 22l95 69l57 119l18 174v40l-18 174l-57 119l-95 69l-137 22l-137 -22l-95 -69l-57 -119l-18 -174v-40l18 -174
l57 -119l95 -69z" />
    <glyph glyph-name="P" unicode="P" horiz-adv-x="620" 
d="M240 432v184h87l28 -3l26 -13l20 -27l7 -45v-8l-7 -45l-20 -27l-26 -13l-28 -3h-87zM240 268h79l100 8l90 34l66 74l25 130v20l-25 130l-66 74l-90 34l-100 8h-269v-780h190v268z" />
    <glyph glyph-name="Q" unicode="Q" horiz-adv-x="680" 
d="M400 273h-140l46 -120l-40 24l-24 46l-13 65l-3 82v40l4 91l17 70l33 44l55 15h10l55 -15l33 -44l17 -70l4 -91v-40l-1 -52l-4 -46l-8 -40l-12 -32zM340 -14h8h8l7 1h8l34 -87h145l-48 119l64 50l45 75l27 100l9 126v40l-18 174l-57 119l-95 69l-137 22l-137 -22l-95 -69
l-57 -119l-18 -174v-40l18 -174l57 -119l95 -69z" />
    <glyph glyph-name="R" unicode="R" horiz-adv-x="635" 
d="M240 432v184h87l28 -3l26 -13l20 -27l7 -45v-8l-7 -45l-20 -27l-26 -13l-28 -3h-87zM240 268h53l102 -268h205l-120 294l48 30l38 44l25 62l9 84v20l-25 130l-66 74l-90 34l-100 8h-269v-780h190v268z" />
    <glyph glyph-name="S" unicode="S" horiz-adv-x="640" 
d="M291 313l64 -13l38 -18l19 -25l5 -30v-4l-5 -27l-17 -24l-28 -16l-42 -6h-10l-42 7l-30 21l-17 37l-6 55h-190v-9l19 -126l55 -85l91 -49l125 -15l126 16l91 48l55 76l18 102v11l-17 97l-50 67l-81 42l-113 24l-63 13l-37 17l-17 24l-4 32v4l5 28l15 23l26 15l36 5h10
l44 -8l30 -24l16 -41l5 -57h190v21l-17 122l-52 85l-88 50l-128 16l-124 -17l-89 -49l-54 -75l-18 -99v-11l16 -97l48 -67l80 -42z" />
    <glyph glyph-name="T" unicode="T" horiz-adv-x="570" 
d="M380 616h175v164h-540v-164h175v-616h190v616z" />
    <glyph glyph-name="U" unicode="U" horiz-adv-x="670" 
d="M335 -14l141 18l89 52l46 82l14 110v532h-190v-527l-4 -42l-15 -33l-30 -21l-51 -7l-51 7l-30 21l-15 33l-4 42v527h-190v-532l14 -110l46 -82l89 -52z" />
    <glyph glyph-name="V" unicode="V" horiz-adv-x="650" 
d="M455 0l186 780h-204l-112 -560l-113 560h-203l186 -780h260z" />
    <glyph glyph-name="W" unicode="W" horiz-adv-x="950" 
d="M572 0h242l124 780h-198l-60 -518l-88 518h-234l-88 -518l-60 518h-198l124 -780h241l98 562z" />
    <glyph glyph-name="X" unicode="X" horiz-adv-x="660" 
d="M15 0h210l105 265l105 -265h210l-181 413l181 367h-220l-95 -238l-95 238h-220l180 -367z" />
    <glyph glyph-name="Y" unicode="Y" horiz-adv-x="640" 
d="M415 240l221 540h-208l-108 -306l-108 306h-208l221 -540v-240h190v240z" />
    <glyph glyph-name="Z" unicode="Z" horiz-adv-x="610" 
d="M40 130v-130h530v164h-150l-148 -4l288 490v130h-510v-164h130l148 4z" />
    <glyph glyph-name="bracketleft" unicode="[" horiz-adv-x="380" 
d="M55 840v-960h295v160h-111v640h111v160h-295z" />
    <glyph glyph-name="backslash" unicode="\" horiz-adv-x="438" 
d="M245 -120h180l-230 960h-180z" />
    <glyph glyph-name="bracketright" unicode="]" horiz-adv-x="380" 
d="M325 -120v960h-295v-160h111v-640h-111v-160h295z" />
    <glyph glyph-name="asciicircum" unicode="^" horiz-adv-x="600" 
d="M390 780h-180l-196 -520h182l104 299l104 -299h182z" />
    <glyph glyph-name="underscore" unicode="_" horiz-adv-x="320" 
d="M40 -200h240v160h-240v-160z" />
    <glyph glyph-name="grave" unicode="`" horiz-adv-x="500" 
d="M48 780l111 -190h182l-91 190h-202z" />
    <glyph glyph-name="a" unicode="a" horiz-adv-x="560" 
d="M260 134l-24 4l-16 10l-9 13l-3 16v6l2 17l8 14l16 12l26 7l72 11v-81l-13 -10l-17 -10l-20 -6zM360 0h166l-10 150v190l-11 87l-39 64l-73 40l-113 13l-113 -15l-72 -39l-39 -57l-11 -69v-9h173l3 19l9 16l17 12l28 4l26 -3l17 -11l10 -17l4 -25l-112 -18l-80 -18
l-62 -32l-39 -49l-14 -73v-10l8 -61l28 -53l50 -36l79 -14l49 5l43 12l37 21l31 26z" />
    <glyph glyph-name="b" unicode="b" horiz-adv-x="585" 
d="M233 345l11 13l16 13l23 11l27 4l32 -7l20 -19l12 -32l3 -43v-40l-3 -43l-12 -32l-20 -19l-32 -7l-27 4l-23 11l-16 13l-11 13v160zM233 800h-184v-650l-10 -150h166l11 61l26 -30l33 -24l41 -15l49 -6l92 19l60 52l33 82l10 106v40l-10 106l-33 82l-60 52l-92 19l-42 -4
l-35 -11l-30 -17l-25 -22v310z" />
    <glyph glyph-name="c" unicode="c" horiz-adv-x="528" 
d="M208 245v40l3 43l12 32l20 19l31 7l24 -4l19 -12l11 -20l4 -30h173v24l-15 84l-45 63l-73 39l-102 14l-110 -19l-77 -52l-44 -82l-14 -106v-40l14 -106l44 -82l77 -52l110 -19l102 13l73 39l45 59l15 79v24h-173l-4 -24l-11 -17l-19 -11l-24 -4l-31 7l-20 19l-12 32z" />
    <glyph glyph-name="d" unicode="d" horiz-adv-x="595" 
d="M361 185l-11 -13l-16 -13l-22 -11l-28 -4l-32 7l-20 19l-12 32l-3 43v40l3 43l12 32l20 19l32 7l28 -4l22 -11l16 -13l11 -13v-160zM229 544l-92 -19l-60 -52l-33 -82l-10 -106v-40l10 -106l33 -82l60 -52l92 -19l49 6l41 15l32 24l26 30l12 -61h166l-10 150v650h-184
v-310l-25 22l-30 17l-36 11z" />
    <glyph glyph-name="e" unicode="e" horiz-adv-x="560" 
d="M280 406l29 -4l21 -13l14 -23l7 -36h-142l7 36l14 23l21 13zM535 200v80l-15 107l-46 83l-79 55l-111 19l-113 -19l-81 -55l-49 -83l-16 -107v-30l16 -107l49 -83l82 -55l118 -19l103 13l77 37l48 57l17 73v4h-173l-5 -18l-15 -14l-23 -10l-28 -4l-31 3l-25 13l-17 23
l-9 37h326z" />
    <glyph glyph-name="f" unicode="f" horiz-adv-x="420" 
d="M279 585l5 36l15 22l22 10l29 3l13 -1l14 -1l12 -2l7 -2v150l-11 4l-18 5l-26 4l-34 1l-87 -11l-67 -35l-43 -65l-15 -98v-75h-80v-160h80v-370h184v370h107v160h-107v55z" />
    <glyph glyph-name="g" unicode="g" horiz-adv-x="585" 
d="M352 215l-11 -13l-16 -13l-22 -11l-28 -4l-29 5l-21 16l-13 28l-4 42v30l4 37l13 29l21 19l29 6l28 -4l22 -11l16 -13l11 -13v-130zM352 15l-5 -40l-15 -25l-23 -12l-33 -4l-34 5l-21 15l-10 21l-3 25h-173v-24l12 -74l42 -61l75 -40l116 -15l112 14l80 42l48 72l16 101
v365l10 150h-166l-11 -58l-26 29l-33 23l-41 15l-49 5l-90 -19l-60 -51l-34 -79l-11 -100v-30l11 -104l34 -79l60 -49l90 -17l41 3l36 10l30 16l25 21v-51z" />
    <glyph glyph-name="h" unicode="h" horiz-adv-x="595" 
d="M234 800h-184v-800h184v345l11 13l16 13l23 11l27 4l30 -6l17 -15l7 -20l2 -20v-325h184v355l-8 70l-28 60l-50 43l-79 16l-48 -4l-41 -13l-34 -19l-29 -25v317z" />
    <glyph glyph-name="i" unicode="i" horiz-adv-x="280" 
d="M235 780h-190v-190h190v190zM48 0h184v530h-184v-530z" />
    <glyph glyph-name="j" unicode="j" horiz-adv-x="280" 
d="M235 780h-190v-190h190v190zM48 15l-5 -36l-15 -22l-22 -10l-29 -3l-13 1l-14 1l-12 2l-7 2v-150l11 -4l18 -5l26 -4l34 -1l87 11l67 35l43 65l15 98v535h-184v-515z" />
    <glyph glyph-name="k" unicode="k" horiz-adv-x="580" 
d="M45 0h184v141l35 41l86 -182h215l-174 329l174 201h-220l-116 -148v418h-184v-800z" />
    <glyph glyph-name="l" unicode="l" horiz-adv-x="280" 
d="M48 0h184v800h-184v-800z" />
    <glyph glyph-name="m" unicode="m" horiz-adv-x="880" 
d="M836 0v360l-9 71l-28 59l-49 39l-74 15l-53 -6l-45 -16l-36 -26l-28 -33l-22 33l-30 26l-39 16l-48 6l-51 -5l-43 -16l-36 -23l-28 -31l-11 61h-166l10 -150v-380h184v350l10 12l14 12l18 8l24 4l25 -5l16 -12l8 -18l2 -21v-330h184v350l10 12l14 12l18 8l24 4l25 -5
l16 -12l8 -18l2 -21v-330h184z" />
    <glyph glyph-name="n" unicode="n" horiz-adv-x="595" 
d="M551 0v355l-8 70l-28 60l-50 43l-79 16l-55 -6l-45 -16l-38 -26l-30 -32l-12 66h-166l10 -150v-380h184v345l11 13l16 13l23 11l27 4l30 -6l17 -15l7 -20l2 -20v-325h184z" />
    <glyph glyph-name="o" unicode="o" horiz-adv-x="560" 
d="M280 144l-32 7l-23 19l-13 32l-4 43v40l4 43l13 32l23 19l32 7l32 -7l23 -19l13 -32l4 -43v-40l-4 -43l-13 -32l-23 -19zM280 -14l114 19l79 52l47 82l15 106v40l-15 106l-47 82l-79 52l-114 19l-114 -19l-79 -52l-47 -82l-15 -106v-40l15 -106l47 -82l79 -52z" />
    <glyph glyph-name="p" unicode="p" horiz-adv-x="585" 
d="M233 345l11 13l16 13l23 11l27 4l32 -7l20 -19l12 -32l3 -43v-40l-3 -43l-12 -32l-20 -19l-32 -7l-27 4l-23 11l-16 13l-11 13v160zM365 -14l92 19l60 52l33 82l10 106v40l-10 106l-33 82l-60 52l-92 19l-49 -6l-41 -15l-33 -24l-26 -31l-11 62h-166l10 -150v-580h184
v240l25 -22l30 -17l35 -11z" />
    <glyph glyph-name="q" unicode="q" horiz-adv-x="593" 
d="M278 144l-32 7l-20 19l-12 32l-3 43v40l3 43l12 32l20 19l32 7l28 -4l22 -11l16 -13l11 -13v-160l-11 -13l-16 -13l-22 -11zM355 -200h184v580l10 150h-166l-12 -62l-26 31l-32 24l-41 15l-49 6l-92 -19l-60 -52l-33 -82l-10 -106v-40l10 -106l33 -82l60 -52l92 -19l41 4
l36 11l30 17l25 22v-240z" />
    <glyph glyph-name="r" unicode="r" horiz-adv-x="400" 
d="M356 544l-43 -5l-37 -15l-32 -23l-27 -30l-11 59h-166l10 -150v-380h184v320l13 12l23 11l31 9l40 3h30v188l-4 1h-3h-4h-4z" />
    <glyph glyph-name="s" unicode="s" horiz-adv-x="530" 
d="M265 124l-24 3l-17 9l-10 15l-3 19h-183v-5l15 -74l45 -57l74 -36l103 -12l104 13l74 36l44 58l15 78v10l-17 71l-48 44l-72 24l-92 12l-28 4l-18 7l-9 11l-3 16l3 14l10 12l15 7l22 3l22 -3l15 -10l10 -17l3 -21h180v5l-14 78l-41 58l-72 36l-103 12l-89 -10l-73 -31
l-50 -56l-18 -83v-10l13 -67l42 -44l69 -26l99 -14l30 -5l19 -8l9 -12l2 -15l-3 -15l-8 -12l-17 -9z" />
    <glyph glyph-name="t" unicode="t" horiz-adv-x="440" 
d="M279 530v150h-184v-150h-80v-160h80v-175l15 -98l43 -65l67 -35l87 -11l34 1l26 4l18 5l11 4v150l-7 -2l-12 -2l-14 -1l-13 -1l-29 3l-22 10l-15 22l-5 36v155h127v160h-127z" />
    <glyph glyph-name="u" unicode="u" horiz-adv-x="595" 
d="M44 530v-355l8 -70l28 -60l50 -43l79 -16l55 6l45 16l38 25l29 32l13 -65h166l-10 150v380h-184v-345l-11 -13l-16 -13l-22 -11l-28 -4l-30 6l-17 15l-7 20l-2 20v325h-184z" />
    <glyph glyph-name="v" unicode="v" horiz-adv-x="560" 
d="M150 0h260l145 530h-190l-85 -385l-85 385h-190z" />
    <glyph glyph-name="w" unicode="w" horiz-adv-x="780" 
d="M390 340l60 -340h230l85 530h-180l-25 -330l-60 330h-220l-60 -330l-25 330h-180l85 -530h230z" />
    <glyph glyph-name="x" unicode="x" horiz-adv-x="580" 
d="M15 530l128 -255l-128 -275h206l69 172l69 -172h206l-129 275l129 255h-212l-63 -168l-63 168h-212z" />
    <glyph glyph-name="y" unicode="y" horiz-adv-x="570" 
d="M285 220l-85 310h-200l185 -500l-86 -230h220l66 230l185 500h-200z" />
    <glyph glyph-name="z" unicode="z" horiz-adv-x="510" 
d="M20 126v-126h470v160h-120l-108 -4l218 248v126h-450v-160h100l108 4z" />
    <glyph glyph-name="braceleft" unicode="{" horiz-adv-x="380" 
d="M350 840h-30l-94 -10l-71 -32l-45 -59l-15 -89v-130l-4 -36l-13 -25l-22 -14l-32 -5v-160l32 -5l22 -14l13 -25l4 -36v-130l15 -89l45 -59l71 -32l94 -10h30v160l-32 5l-22 14l-13 25l-4 36v120l-4 40l-12 33l-19 26l-27 21l27 20l19 27l12 33l4 40v120l4 36l13 25l22 14
l32 5v160z" />
    <glyph glyph-name="bar" unicode="|" horiz-adv-x="280" 
d="M50 -120h180v960h-180v-960z" />
    <glyph glyph-name="braceright" unicode="}" horiz-adv-x="380" 
d="M30 -120h30l94 10l71 32l45 59l15 89v138l5 32l14 22l21 14l31 4v160l-32 5l-22 14l-13 25l-4 36v130l-15 89l-45 59l-71 32l-94 10h-30v-160l32 -5l22 -14l13 -25l4 -36v-120l4 -40l12 -33l19 -27l26 -20l-26 -21l-19 -26l-12 -33l-4 -40v-120l-4 -36l-13 -25l-22 -14
l-32 -5v-160z" />
    <glyph glyph-name="asciitilde" unicode="~" horiz-adv-x="600" 
d="M186 492l-50 -8l-44 -21l-37 -33l-30 -39l85 -85l14 15l19 15l24 11l28 5l48 -10l48 -22l55 -22l68 -10l50 8l44 22l37 32l30 39l-85 85l-14 -15l-19 -15l-24 -11l-28 -5l-48 10l-48 22l-55 22z" />
    <glyph glyph-name="nbspace" unicode="&#xa0;" horiz-adv-x="200" 
 />
    <glyph glyph-name="exclamdown" unicode="&#xa1;" horiz-adv-x="280" 
d="M45 340h190v190h-190v-190zM255 -200l-50 490h-130l-50 -490h230z" />
    <glyph glyph-name="cent" unicode="&#xa2;" horiz-adv-x="600" 
d="M568 463v31l-8 79l-24 61l-39 45l-55 31l31 130h-140l-26 -108h-2l-123 -20l-85 -61l-49 -101l-16 -140v-40l7 -98l22 -81l38 -63l53 -44l-34 -144h140l26 109h21l114 14l82 43l50 72l17 103v17h-183l-5 -36l-14 -28l-23 -18l-31 -7h-8l-41 12l-26 34l-14 51l-4 65v38
l4 65l14 51l26 34l41 12h8l32 -7l24 -20l14 -33l4 -48h182z" />
    <glyph glyph-name="sterling" unicode="&#xa3;" horiz-adv-x="600" 
d="M320 632l25 -9l17 -25l9 -42l3 -56h186v19l-13 124l-41 85l-74 50l-112 16l-116 -19l-72 -49l-37 -68l-10 -73l1 -40l5 -37l6 -35l8 -33h-65v-160h119l9 -28l8 -29l7 -30l6 -31h-149v-162h520v162h-209l-3 31l-4 30l-5 29l-5 28h127v160h-168l-9 34l-7 33l-4 32l-2 31
l3 26l8 19l15 13z" />
    <glyph glyph-name="yen" unicode="&#xa5;" horiz-adv-x="600" 
d="M40 320h149l16 -40h-165v-160h165v-120h190v120h165v160h-165l16 40h149v160h-85l121 300h-208l-88 -300l-88 300h-208l120 -300h-84v-160z" />
    <glyph glyph-name="brokenbar" unicode="&#xa6;" horiz-adv-x="280" 
d="M50 -120h180v460h-180v-460zM50 380h180v460h-180v-460z" />
    <glyph glyph-name="section" unicode="&#xa7;" horiz-adv-x="560" 
d="M280 444l32 -4l21 -12l11 -17l4 -21l-4 -21l-11 -17l-21 -12l-32 -4h-8l-28 5l-18 12l-11 17l-3 20l3 20l11 17l18 12l28 5h8zM532 394v10l-17 78l-48 49l-72 28l-92 13l-28 6l-18 10l-9 15l-3 17l3 14l10 12l15 7l22 3l22 -3l15 -10l10 -17l3 -21h180v5l-14 78l-41 58
l-72 36l-103 12l-89 -10l-73 -31l-50 -56l-18 -83v-10l2 -27l5 -24l9 -22l12 -20l-28 -22l-21 -28l-12 -35l-4 -40v-10l17 -78l48 -49l72 -28l92 -13l28 -6l18 -10l9 -15l3 -17l-3 -14l-10 -12l-15 -7l-22 -3l-22 3l-15 11l-10 16l-3 21h-180v-5l14 -78l41 -58l72 -36
l103 -12l89 10l73 31l50 56l18 83v10l-2 27l-5 24l-9 22l-13 19l28 22l21 29l13 34z" />
    <glyph glyph-name="dieresis" unicode="&#xa8;" horiz-adv-x="500" 
d="M460 780h-190v-190h190v190zM230 780h-190v-190h190v190z" />
    <glyph glyph-name="copyright" unicode="&#xa9;" horiz-adv-x="920" 
d="M464 282l-28 6l-18 17l-10 28l-3 39v36l3 39l10 28l18 17l28 6l22 -3l16 -11l10 -18l4 -27h155v22l-14 76l-40 56l-66 35l-91 12l-99 -17l-68 -47l-39 -73l-13 -95v-36l13 -95l39 -73l68 -47l99 -17l91 12l66 34l40 54l14 70v22h-155l-4 -21l-10 -16l-16 -10zM116 390
l27 134l74 109l109 74l134 27l134 -27l109 -74l74 -109l27 -134l-27 -134l-74 -109l-109 -74l-134 -27l-134 27l-109 74l-74 109zM56 390l32 -157l86 -129l129 -86l157 -32l157 32l129 86l86 129l32 157l-32 157l-86 129l-129 86l-157 32l-157 -32l-129 -86l-86 -129z" />
    <glyph glyph-name="ordfeminine" unicode="&#xaa;" horiz-adv-x="440" 
d="M212 503l-14 2l-8 6l-5 7l-1 9v3l1 9l5 8l8 6l13 4l39 6v-47l-8 -5l-10 -4l-10 -3zM37 172h378v137h-378v-137zM273 387h145l-8 112v141l-9 67l-31 48l-57 29l-89 10l-87 -11l-57 -28l-31 -43l-9 -53v-7h150l1 8l5 8l10 6l14 2l12 -1l9 -5l5 -7l3 -11l-74 -12l-64 -14
l-47 -24l-29 -38l-10 -55v-7l6 -47l20 -40l39 -28l61 -11l35 3l31 9l27 14l22 19z" />
    <glyph glyph-name="guillemotleft" unicode="&#xab;" horiz-adv-x="580" 
d="M530 575l-220 -145v-180l220 -145v160l-97 75l97 75v160zM270 575l-220 -145v-180l220 -145v160l-97 75l97 75v160z" />
    <glyph glyph-name="logicalnot" unicode="&#xac;" horiz-adv-x="600" 
d="M40 418h356v-230h164v394h-520v-164z" />
    <glyph glyph-name="uni00AD" unicode="&#xad;" horiz-adv-x="360" 
d="M40 270h280v160h-280v-160z" />
    <glyph glyph-name="registered" unicode="&#xae;" horiz-adv-x="330" 
d="M184 691v-2l-1 -8l-4 -5l-5 -2l-6 -1h-22v34h22l6 -1l5 -2l4 -5zM245 688v4l-6 29l-14 19l-20 9l-23 2h-97v-172h61v50h16l19 -50h64l-28 57l11 7l9 11l6 15zM40 665l10 49l27 39l39 27l49 10l49 -10l39 -27l27 -39l10 -49l-10 -49l-27 -39l-39 -27l-49 -10l-49 10
l-39 27l-27 39zM16 665l12 -58l32 -47l47 -32l58 -12l58 12l47 32l32 47l12 58l-12 58l-32 47l-47 32l-58 12l-58 -12l-47 -32l-32 -47z" />
    <glyph glyph-name="macron" unicode="&#xaf;" horiz-adv-x="500" 
d="M90 605h320v160h-320v-160z" />
    <glyph glyph-name="degree" unicode="&#xb0;" horiz-adv-x="400" 
d="M365 630l-13 68l-34 52l-53 33l-65 11l-65 -11l-53 -33l-34 -52l-13 -68v-5l13 -68l34 -52l53 -33l65 -11l65 11l53 33l34 52l13 68v5zM256 625l-4 -22l-12 -17l-17 -11l-21 -4h-4l-21 4l-17 11l-12 17l-4 22v5l4 22l12 17l17 11l21 4h4l21 -4l17 -11l12 -17l4 -22v-5z
" />
    <glyph glyph-name="plusminus" unicode="&#xb1;" horiz-adv-x="600" 
d="M40 128h520v164h-520v-164zM218 680v-98h-178v-164h178v-98h164v98h178v164h-178v98h-164z" />
    <glyph glyph-name="twosuperior" unicode="&#xb2;" 
d="M285 503h-92l50 57l19 24l13 23l8 25l2 30v12l-5 35l-20 37l-41 30l-69 12l-59 -8l-42 -23l-26 -41l-8 -58v-8h125v24l2 5l5 2l5 -2l2 -5v-28l-1 -7l-2 -6l-3 -5l-4 -5l-129 -150v-83h270v113z" />
    <glyph glyph-name="threesuperior" unicode="&#xb3;" 
d="M144 515h-132v-9l9 -54l26 -39l43 -24l60 -8l71 13l41 31l20 37l5 32v11l-3 29l-10 24l-14 19l-17 13l18 13l13 19l8 23l3 28v11l-5 30l-20 34l-41 28l-69 12l-59 -8l-42 -23l-26 -41l-8 -58v-8h125v24l2 5l5 2l5 -2l2 -5v-26l-1 -5l-2 -3l-4 -1l-5 -1h-42v-106h45l5 -1
l5 -2l2 -4l1 -7v-22l-2 -5l-5 -2l-5 2l-2 5v19z" />
    <glyph glyph-name="acute" unicode="&#xb4;" horiz-adv-x="500" 
d="M250 780l-91 -190h182l111 190h-202z" />
    <glyph glyph-name="paragraph" unicode="&#xb6;" horiz-adv-x="560" 
d="M320 0h190v780h-209l-100 -8l-90 -34l-66 -74l-25 -130v-20l25 -130l66 -74l90 -34l100 -8h19v-268z" />
    <glyph glyph-name="periodcentered" unicode="&#xb7;" horiz-adv-x="280" 
d="M235 445h-190v-190h190v190z" />
    <glyph glyph-name="cedilla" unicode="&#xb8;" horiz-adv-x="602" 
d="M141 -190l18 -9l25 -9l31 -6l37 -2l55 6l39 18l23 28l8 39l-8 37l-21 26l-31 17l-40 8l15 37h-80l-28 -70l14 -29l4 1l9 1l13 2l14 1l21 -1l14 -5l7 -7l2 -9l-2 -9l-7 -7l-14 -4l-21 -2l-20 1l-19 4l-17 5l-14 7z" />
    <glyph glyph-name="onesuperior" unicode="&#xb9;" 
d="M287 390v113h-66v275h-103l-120 -82l64 -93l27 18v-118h-67v-113h265z" />
    <glyph glyph-name="ordmasculine" unicode="&#xba;" horiz-adv-x="450" 
d="M225 513l-17 3l-12 11l-7 17l-2 25v33l2 25l7 17l12 11l17 3l17 -3l12 -11l7 -17l2 -25v-33l-2 -25l-7 -17l-12 -11zM38 172h374v137h-374v-137zM225 376l87 14l62 39l36 60l12 80v33l-12 80l-36 60l-62 39l-87 14l-88 -14l-61 -39l-36 -60l-12 -80v-33l12 -80l36 -60
l61 -39z" />
    <glyph glyph-name="guillemotright" unicode="&#xbb;" horiz-adv-x="580" 
d="M50 415l97 -75l-97 -75v-160l220 145v180l-220 145v-160zM310 415l97 -75l-97 -75v-160l220 145v180l-220 145v-160z" />
    <glyph glyph-name="onequarter" unicode="&#xbc;" horiz-adv-x="800" 
d="M620 175l24 40l-2 -40h-22zM774 0v63h16v114h-16v213h-125l-139 -234v-93h132v-63h132zM187 0l576 780h-150l-576 -780h150zM287 390v113h-66v275h-103l-120 -82l64 -93l27 18v-118h-67v-113h265z" />
    <glyph glyph-name="onehalf" unicode="&#xbd;" horiz-adv-x="800" 
d="M785 113h-92l50 57l19 24l13 23l8 25l2 30v12l-5 35l-20 37l-41 30l-69 12l-59 -8l-42 -23l-26 -41l-8 -58v-8h125v24l2 5l5 2l5 -2l2 -5v-28l-1 -7l-2 -6l-3 -5l-4 -5l-129 -150v-83h270v113zM187 0l576 780h-150l-576 -780h150zM287 390v113h-66v275h-103l-120 -82
l64 -93l27 18v-118h-67v-113h265z" />
    <glyph glyph-name="threequarters" unicode="&#xbe;" horiz-adv-x="800" 
d="M620 175l24 40l-2 -40h-22zM774 0v63h16v114h-16v213h-125l-139 -234v-93h132v-63h132zM187 0l576 780h-150l-576 -780h150zM144 515h-132v-9l9 -54l26 -39l43 -24l60 -8l71 13l41 31l20 37l5 32v11l-3 29l-10 24l-14 19l-17 13l18 13l13 19l8 23l3 28v11l-5 30l-20 34
l-41 28l-69 12l-59 -8l-42 -23l-26 -41l-8 -58v-8h125v24l2 5l5 2l5 -2l2 -5v-26l-1 -5l-2 -3l-4 -1l-5 -1h-42v-106h45l5 -1l5 -2l2 -4l1 -7v-22l-2 -5l-5 -2l-5 2l-2 5v19z" />
    <glyph glyph-name="questiondown" unicode="&#xbf;" horiz-adv-x="510" 
d="M165 340h190v190h-190v-190zM250 -52l-23 3l-15 8l-8 13l-3 18l21 53l47 66l43 82l13 99h-130l-34 -83l-62 -57l-58 -65l-26 -110l10 -66l37 -61l72 -45l116 -17l112 16l74 47l41 80l13 112v19h-186l-3 -53l-9 -35l-17 -18z" />
    <glyph glyph-name="Agrave" unicode="&#xc0;" horiz-adv-x="650" 
d="M325 560l48 -238h-96zM170 950l64 -110h182l-53 110h-193zM195 780l-186 -780h204l31 158h162l32 -158h203l-186 780h-260z" />
    <glyph glyph-name="Aacute" unicode="&#xc1;" horiz-adv-x="650" 
d="M325 560l48 -238h-96zM287 950l-53 -110h182l64 110h-193zM195 780l-186 -780h204l31 158h162l32 -158h203l-186 780h-260z" />
    <glyph glyph-name="Acircumflex" unicode="&#xc2;" horiz-adv-x="650" 
d="M325 560l48 -238h-96zM265 840l60 39l60 -39h165l-130 110h-190l-130 -110h165zM195 780l-186 -780h204l31 158h162l32 -158h203l-186 780h-260z" />
    <glyph glyph-name="Atilde" unicode="&#xc3;" horiz-adv-x="650" 
d="M325 560l48 -238h-96zM425 950l-3 -14l-7 -10l-10 -5l-13 -1l-30 7l-35 16l-41 16l-46 7l-41 -6l-35 -21l-25 -39l-9 -60h95l3 14l7 10l10 5l13 1l30 -7l36 -16l40 -16l46 -7l41 6l35 21l25 39l9 60h-95zM195 780l-186 -780h204l31 158h162l32 -158h203l-186 780h-260z
" />
    <glyph glyph-name="Adieresis" unicode="&#xc4;" horiz-adv-x="650" 
d="M325 560l48 -238h-96zM490 950h-150v-110h150v110zM310 950h-150v-110h150v110zM195 780l-186 -780h204l31 158h162l32 -158h203l-186 780h-260z" />
    <glyph glyph-name="Aring" unicode="&#xc5;" horiz-adv-x="650" 
d="M276 855l4 19l10 16l16 10l19 4l19 -4l16 -10l10 -16l4 -19l-4 -19l-10 -16l-16 -10l-19 -4l-19 4l-16 10l-10 16zM325 560l48 -238h-96zM216 855l2 -21l6 -20l9 -18l13 -16h-51l-186 -780h204l31 158h162l32 -158h203l-186 780h-51l12 16l10 18l6 20l2 21l-9 42l-23 35
l-35 23l-42 9l-42 -9l-35 -23l-23 -35z" />
    <glyph glyph-name="AE" unicode="&#xc6;" horiz-adv-x="900" 
d="M378 560l23 -238h-95zM271 780l-267 -780h204l48 158h161l16 -158h427v164h-246l-21 152h217v164h-239l-18 136h307v164h-589z" />
    <glyph glyph-name="Ccedilla" unicode="&#xc7;" horiz-adv-x="660" 
d="M236 -190l18 -9l25 -9l31 -6l37 -2l55 6l39 18l23 28l8 39l-8 37l-21 26l-31 17l-40 8l10 25l105 22l77 50l46 82l15 119v9h-190l-5 -48l-15 -38l-28 -25l-42 -9h-10l-57 15l-33 44l-15 70l-4 91v40l4 91l15 70l33 44l57 15h10l46 -11l27 -30l13 -48l4 -61h190v39
l-18 128l-55 85l-91 47l-126 15l-136 -22l-94 -69l-54 -119l-18 -174v-40l16 -166l48 -117l84 -71l121 -29l-23 -57l14 -29l4 1l9 1l13 2l14 1l21 -1l14 -5l7 -7l2 -9l-2 -9l-7 -7l-14 -4l-21 -2l-20 1l-19 4l-17 5l-14 7z" />
    <glyph glyph-name="Egrave" unicode="&#xc8;" horiz-adv-x="580" 
d="M140 950l64 -110h182l-53 110h-193zM50 780v-780h490v164h-300v152h250v164h-250v136h300v164h-490z" />
    <glyph glyph-name="Eacute" unicode="&#xc9;" horiz-adv-x="580" 
d="M257 950l-53 -110h182l64 110h-193zM50 780v-780h490v164h-300v152h250v164h-250v136h300v164h-490z" />
    <glyph glyph-name="Ecircumflex" unicode="&#xca;" horiz-adv-x="580" 
d="M235 840l60 39l60 -39h165l-130 110h-190l-130 -110h165zM50 780v-780h490v164h-300v152h250v164h-250v136h300v164h-490z" />
    <glyph glyph-name="Edieresis" unicode="&#xcb;" horiz-adv-x="580" 
d="M280 950h-150v-110h150v110zM460 950h-150v-110h150v110zM50 780v-780h490v164h-300v152h250v164h-250v136h300v164h-490z" />
    <glyph glyph-name="Igrave" unicode="&#xcc;" 
d="M-5 950l64 -110h182l-53 110h-193zM245 780h-190v-780h190v780z" />
    <glyph glyph-name="Iacute" unicode="&#xcd;" 
d="M112 950l-53 -110h182l64 110h-193zM245 780h-190v-780h190v780z" />
    <glyph glyph-name="Icircumflex" unicode="&#xce;" 
d="M90 840l60 39l60 -39h165l-130 110h-190l-130 -110h165zM245 780h-190v-780h190v780z" />
    <glyph glyph-name="Idieresis" unicode="&#xcf;" 
d="M135 950h-150v-110h150v110zM315 950h-150v-110h150v110zM245 780h-190v-780h190v780z" />
    <glyph glyph-name="Eth" unicode="&#xd0;" horiz-adv-x="730" 
d="M300 616h50l79 -13l47 -39l22 -65l6 -89v-40l-6 -89l-22 -65l-47 -39l-79 -13h-50v166h150v140h-150v146zM10 330h100v-330h250l156 20l104 64l59 114l18 172v40l-18 172l-59 114l-104 64l-156 20h-250v-310h-100v-140z" />
    <glyph glyph-name="Ntilde" unicode="&#xd1;" horiz-adv-x="690" 
d="M445 950l-3 -14l-7 -10l-10 -5l-13 -1l-30 7l-35 16l-41 16l-46 7l-41 -6l-35 -21l-25 -39l-9 -60h95l3 14l7 10l10 5l13 1l30 -7l36 -16l40 -16l46 -7l41 6l35 21l25 39l9 60h-95zM640 780h-180v-280l5 -150l-215 430h-200v-780h180v280l-5 150l215 -430h200v780z" />
    <glyph glyph-name="Ograve" unicode="&#xd2;" horiz-adv-x="680" 
d="M185 950l64 -110h182l-53 110h-193zM335 150l-55 15l-33 44l-17 70l-4 91v40l4 91l17 70l33 44l55 15h10l55 -15l33 -44l17 -70l4 -91v-40l-4 -91l-17 -70l-33 -44l-55 -15h-10zM340 -14l137 22l95 69l57 119l18 174v40l-18 174l-57 119l-95 69l-137 22l-137 -22l-95 -69
l-57 -119l-18 -174v-40l18 -174l57 -119l95 -69z" />
    <glyph glyph-name="Oacute" unicode="&#xd3;" horiz-adv-x="680" 
d="M302 950l-53 -110h182l64 110h-193zM335 150l-55 15l-33 44l-17 70l-4 91v40l4 91l17 70l33 44l55 15h10l55 -15l33 -44l17 -70l4 -91v-40l-4 -91l-17 -70l-33 -44l-55 -15h-10zM340 -14l137 22l95 69l57 119l18 174v40l-18 174l-57 119l-95 69l-137 22l-137 -22l-95 -69
l-57 -119l-18 -174v-40l18 -174l57 -119l95 -69z" />
    <glyph glyph-name="Ocircumflex" unicode="&#xd4;" horiz-adv-x="680" 
d="M280 840l60 39l60 -39h165l-130 110h-190l-130 -110h165zM335 150l-55 15l-33 44l-17 70l-4 91v40l4 91l17 70l33 44l55 15h10l55 -15l33 -44l17 -70l4 -91v-40l-4 -91l-17 -70l-33 -44l-55 -15h-10zM340 -14l137 22l95 69l57 119l18 174v40l-18 174l-57 119l-95 69
l-137 22l-137 -22l-95 -69l-57 -119l-18 -174v-40l18 -174l57 -119l95 -69z" />
    <glyph glyph-name="Otilde" unicode="&#xd5;" horiz-adv-x="680" 
d="M440 950l-3 -14l-7 -10l-10 -5l-13 -1l-30 7l-35 16l-41 16l-46 7l-41 -6l-35 -21l-25 -39l-9 -60h95l3 14l7 10l10 5l13 1l30 -7l36 -16l40 -16l46 -7l41 6l35 21l25 39l9 60h-95zM335 150l-55 15l-33 44l-17 70l-4 91v40l4 91l17 70l33 44l55 15h10l55 -15l33 -44
l17 -70l4 -91v-40l-4 -91l-17 -70l-33 -44l-55 -15h-10zM340 -14l137 22l95 69l57 119l18 174v40l-18 174l-57 119l-95 69l-137 22l-137 -22l-95 -69l-57 -119l-18 -174v-40l18 -174l57 -119l95 -69z" />
    <glyph glyph-name="Odieresis" unicode="&#xd6;" horiz-adv-x="680" 
d="M505 950h-150v-110h150v110zM325 950h-150v-110h150v110zM335 150l-55 15l-33 44l-17 70l-4 91v40l4 91l17 70l33 44l55 15h10l55 -15l33 -44l17 -70l4 -91v-40l-4 -91l-17 -70l-33 -44l-55 -15h-10zM340 -14l137 22l95 69l57 119l18 174v40l-18 174l-57 119l-95 69
l-137 22l-137 -22l-95 -69l-57 -119l-18 -174v-40l18 -174l57 -119l95 -69z" />
    <glyph glyph-name="multiply" unicode="&#xd7;" horiz-adv-x="600" 
d="M143 117l157 157l157 -157l116 116l-157 157l157 157l-116 116l-157 -157l-157 157l-116 -116l157 -157l-157 -157z" />
    <glyph glyph-name="Oslash" unicode="&#xd8;" horiz-adv-x="680" 
d="M226 370v40l4 91l17 70l33 44l55 15h10l23 -2l20 -7l16 -10l14 -15l-190 -294l-1 16l-1 17v17v18zM454 410v-40l-4 -91l-17 -70l-33 -44l-55 -15h-10l-24 2l-19 7l-17 10l-14 14l191 295l1 -16v-17l1 -17v-18zM33 410v-40l4 -86l11 -74l19 -63l27 -52l-61 -95h110l18 29
l38 -19l42 -13l47 -8l52 -3l137 22l95 69l57 119l18 174v40l-4 86l-11 74l-20 63l-27 52l62 95h-110l-19 -29l-37 19l-42 13l-47 8l-52 3l-137 -22l-95 -69l-57 -119z" />
    <glyph glyph-name="Ugrave" unicode="&#xd9;" horiz-adv-x="670" 
d="M180 950l64 -110h182l-53 110h-193zM335 -14l141 18l89 52l46 82l14 110v532h-190v-527l-4 -42l-15 -33l-30 -21l-51 -7l-51 7l-30 21l-15 33l-4 42v527h-190v-532l14 -110l46 -82l89 -52z" />
    <glyph glyph-name="Uacute" unicode="&#xda;" horiz-adv-x="670" 
d="M297 950l-53 -110h182l64 110h-193zM335 -14l141 18l89 52l46 82l14 110v532h-190v-527l-4 -42l-15 -33l-30 -21l-51 -7l-51 7l-30 21l-15 33l-4 42v527h-190v-532l14 -110l46 -82l89 -52z" />
    <glyph glyph-name="Ucircumflex" unicode="&#xdb;" horiz-adv-x="670" 
d="M275 840l60 39l60 -39h165l-130 110h-190l-130 -110h165zM335 -14l141 18l89 52l46 82l14 110v532h-190v-527l-4 -42l-15 -33l-30 -21l-51 -7l-51 7l-30 21l-15 33l-4 42v527h-190v-532l14 -110l46 -82l89 -52z" />
    <glyph glyph-name="Udieresis" unicode="&#xdc;" horiz-adv-x="670" 
d="M320 950h-150v-110h150v110zM500 950h-150v-110h150v110zM335 -14l141 18l89 52l46 82l14 110v532h-190v-527l-4 -42l-15 -33l-30 -21l-51 -7l-51 7l-30 21l-15 33l-4 42v527h-190v-532l14 -110l46 -82l89 -52z" />
    <glyph glyph-name="Yacute" unicode="&#xdd;" horiz-adv-x="640" 
d="M282 950l-53 -110h182l64 110h-193zM415 240l221 540h-208l-108 -306l-108 306h-208l221 -540v-240h190v240z" />
    <glyph glyph-name="Thorn" unicode="&#xde;" horiz-adv-x="620" 
d="M240 298v184h87l28 -3l26 -13l20 -27l7 -45v-8l-7 -45l-20 -27l-26 -13l-28 -3h-87zM240 780h-190v-780h190v134h79l100 8l90 34l66 74l25 130v20l-25 130l-66 74l-90 34l-100 8h-79v134z" />
    <glyph glyph-name="germandbls" unicode="&#xdf;" horiz-adv-x="650" 
d="M291 324l98 -68l29 -25l18 -25l9 -24l3 -19l-1 -15l-3 -12l-7 -9l-12 -3l-11 3l-8 9l-4 15l-1 19h-143v-9l7 -68l28 -55l56 -38l91 -14l93 15l59 39l31 57l9 69v10l-9 59l-27 54l-43 51l-59 47l-16 11l38 34l29 41l18 48l6 58v11l-15 84l-48 71l-82 50l-117 19l-123 -18
l-81 -48l-45 -72l-14 -87v-589h184v580l4 27l14 24l25 18l36 7l36 -6l24 -18l14 -27l4 -35l-7 -40l-20 -36l-30 -31l-37 -24v-115z" />
    <glyph glyph-name="agrave" unicode="&#xe0;" horiz-adv-x="560" 
d="M260 134l-24 4l-16 10l-9 13l-3 16v6l2 17l8 14l16 12l26 7l72 11v-81l-13 -10l-17 -10l-20 -6zM78 780l111 -190h182l-91 190h-202zM360 0h166l-10 150v190l-11 87l-39 64l-73 40l-113 13l-113 -15l-72 -39l-39 -57l-11 -69v-9h173l3 19l9 16l17 12l28 4l26 -3l17 -11
l10 -17l4 -25l-112 -18l-80 -18l-62 -32l-39 -49l-14 -73v-10l8 -61l28 -53l50 -36l79 -14l49 5l43 12l37 21l31 26z" />
    <glyph glyph-name="aacute" unicode="&#xe1;" horiz-adv-x="560" 
d="M260 134l-24 4l-16 10l-9 13l-3 16v6l2 17l8 14l16 12l26 7l72 11v-81l-13 -10l-17 -10l-20 -6zM280 780l-91 -190h182l111 190h-202zM360 0h166l-10 150v190l-11 87l-39 64l-73 40l-113 13l-113 -15l-72 -39l-39 -57l-11 -69v-9h173l3 19l9 16l17 12l28 4l26 -3l17 -11
l10 -17l4 -25l-112 -18l-80 -18l-62 -32l-39 -49l-14 -73v-10l8 -61l28 -53l50 -36l79 -14l49 5l43 12l37 21l31 26z" />
    <glyph glyph-name="acircumflex" unicode="&#xe2;" horiz-adv-x="560" 
d="M260 134l-24 4l-16 10l-9 13l-3 16v6l2 17l8 14l16 12l26 7l72 11v-81l-13 -10l-17 -10l-20 -6zM215 590l65 73l65 -73h160l-135 190h-180l-135 -190h160zM360 0h166l-10 150v190l-11 87l-39 64l-73 40l-113 13l-113 -15l-72 -39l-39 -57l-11 -69v-9h173l3 19l9 16l17 12
l28 4l26 -3l17 -11l10 -17l4 -25l-112 -18l-80 -18l-62 -32l-39 -49l-14 -73v-10l8 -61l28 -53l50 -36l79 -14l49 5l43 12l37 21l31 26z" />
    <glyph glyph-name="atilde" unicode="&#xe3;" horiz-adv-x="560" 
d="M260 134l-24 4l-16 10l-9 13l-3 16v6l2 17l8 14l16 12l26 7l72 11v-81l-13 -10l-17 -10l-20 -6zM375 780l-2 -16l-6 -11l-10 -6l-12 -2l-33 8l-38 18l-42 17l-47 8l-47 -10l-38 -31l-26 -55l-9 -80h120l2 16l6 11l10 6l12 2l33 -8l38 -17l42 -18l47 -8l47 10l38 31l26 55
l9 80h-120zM360 0h166l-10 150v190l-11 87l-39 64l-73 40l-113 13l-113 -15l-72 -39l-39 -57l-11 -69v-9h173l3 19l9 16l17 12l28 4l26 -3l17 -11l10 -17l4 -25l-112 -18l-80 -18l-62 -32l-39 -49l-14 -73v-10l8 -61l28 -53l50 -36l79 -14l49 5l43 12l37 21l31 26z" />
    <glyph glyph-name="adieresis" unicode="&#xe4;" horiz-adv-x="560" 
d="M260 134l-24 4l-16 10l-9 13l-3 16v6l2 17l8 14l16 12l26 7l72 11v-81l-13 -10l-17 -10l-20 -6zM490 780h-190v-190h190v190zM260 780h-190v-190h190v190zM360 0h166l-10 150v190l-11 87l-39 64l-73 40l-113 13l-113 -15l-72 -39l-39 -57l-11 -69v-9h173l3 19l9 16l17 12
l28 4l26 -3l17 -11l10 -17l4 -25l-112 -18l-80 -18l-62 -32l-39 -49l-14 -73v-10l8 -61l28 -53l50 -36l79 -14l49 5l43 12l37 21l31 26z" />
    <glyph glyph-name="aring" unicode="&#xe5;" horiz-adv-x="560" 
d="M231 685l4 19l10 16l16 10l19 4l19 -4l16 -10l10 -16l4 -19l-4 -19l-10 -16l-16 -10l-19 -4l-19 4l-16 10l-10 16zM260 134l-24 4l-16 10l-9 13l-3 16v6l2 17l8 14l16 12l26 7l72 11v-81l-13 -10l-17 -10l-20 -6zM171 685l9 -42l23 -35l35 -23l42 -9l42 9l35 23l23 35
l9 42l-9 42l-23 35l-35 23l-42 9l-42 -9l-35 -23l-23 -35zM360 0h166l-10 150v190l-11 87l-39 64l-73 40l-113 13l-113 -15l-72 -39l-39 -57l-11 -69v-9h173l3 19l9 16l17 12l28 4l26 -3l17 -11l10 -17l4 -25l-112 -18l-80 -18l-62 -32l-39 -49l-14 -73v-10l8 -61l28 -53
l50 -36l79 -14l49 5l43 12l37 21l31 26z" />
    <glyph glyph-name="ae" unicode="&#xe6;" horiz-adv-x="856" 
d="M587 406l29 -4l21 -13l14 -23l7 -36h-142l7 36l14 23l21 13zM341 168l-12 -12l-18 -13l-24 -10l-27 -4l-24 4l-16 10l-9 13l-3 16v6l2 17l8 14l17 12l26 7l71 11l1 -19l1 -18l3 -17zM842 200v80l-15 107l-46 83l-79 55l-111 19l-46 -3l-41 -10l-34 -17l-29 -21l-27 21
l-35 17l-44 10l-55 3l-113 -15l-72 -39l-39 -57l-11 -69v-9h173l3 19l9 16l17 12l28 4l26 -3l17 -11l10 -18l4 -25l-110 -17l-81 -18l-62 -32l-40 -49l-14 -73v-10l9 -61l30 -53l56 -36l85 -14l55 5l51 14l48 22l42 28l37 -29l45 -22l52 -13l62 -5l103 13l77 37l48 57l17 73
v4h-173l-5 -18l-15 -14l-23 -10l-28 -4l-31 3l-25 13l-17 23l-9 37h326z" />
    <glyph glyph-name="ccedilla" unicode="&#xe7;" horiz-adv-x="528" 
d="M161 -190l18 -9l25 -9l31 -6l37 -2l55 6l39 18l23 28l8 39l-8 37l-21 26l-31 17l-40 8l10 25l86 19l62 39l37 57l13 73v24h-173l-4 -24l-11 -17l-19 -11l-24 -4l-31 7l-20 19l-12 32l-3 43v40l3 43l12 32l20 19l31 7l24 -4l19 -12l11 -20l4 -30h173v24l-15 84l-45 63
l-73 39l-102 14l-110 -19l-77 -52l-44 -82l-14 -106v-40l12 -98l36 -78l63 -54l91 -27l-23 -58l14 -29l4 1l9 1l13 2l14 1l21 -1l14 -5l7 -7l2 -9l-2 -9l-7 -7l-14 -4l-21 -2l-20 1l-19 4l-17 5l-14 7z" />
    <glyph glyph-name="egrave" unicode="&#xe8;" horiz-adv-x="560" 
d="M280 406l29 -4l21 -13l14 -23l7 -36h-142l7 36l14 23l21 13zM82 780l111 -190h182l-91 190h-202zM535 200v80l-15 107l-46 83l-79 55l-111 19l-113 -19l-81 -55l-49 -83l-16 -107v-30l16 -107l49 -83l82 -55l118 -19l103 13l77 37l48 57l17 73v4h-173l-5 -18l-15 -14
l-23 -10l-28 -4l-31 3l-25 13l-17 23l-9 37h326z" />
    <glyph glyph-name="eacute" unicode="&#xe9;" horiz-adv-x="560" 
d="M280 406l29 -4l21 -13l14 -23l7 -36h-142l7 36l14 23l21 13zM284 780l-91 -190h182l111 190h-202zM535 200v80l-15 107l-46 83l-79 55l-111 19l-113 -19l-81 -55l-49 -83l-16 -107v-30l16 -107l49 -83l82 -55l118 -19l103 13l77 37l48 57l17 73v4h-173l-5 -18l-15 -14
l-23 -10l-28 -4l-31 3l-25 13l-17 23l-9 37h326z" />
    <glyph glyph-name="ecircumflex" unicode="&#xea;" horiz-adv-x="560" 
d="M280 406l29 -4l21 -13l14 -23l7 -36h-142l7 36l14 23l21 13zM219 590l65 73l65 -73h160l-135 190h-180l-135 -190h160zM535 200v80l-15 107l-46 83l-79 55l-111 19l-113 -19l-81 -55l-49 -83l-16 -107v-30l16 -107l49 -83l82 -55l118 -19l103 13l77 37l48 57l17 73v4
h-173l-5 -18l-15 -14l-23 -10l-28 -4l-31 3l-25 13l-17 23l-9 37h326z" />
    <glyph glyph-name="edieresis" unicode="&#xeb;" horiz-adv-x="560" 
d="M280 406l29 -4l21 -13l14 -23l7 -36h-142l7 36l14 23l21 13zM494 780h-190v-190h190v190zM264 780h-190v-190h190v190zM535 200v80l-15 107l-46 83l-79 55l-111 19l-113 -19l-81 -55l-49 -83l-16 -107v-30l16 -107l49 -83l82 -55l118 -19l103 13l77 37l48 57l17 73v4
h-173l-5 -18l-15 -14l-23 -10l-28 -4l-31 3l-25 13l-17 23l-9 37h326z" />
    <glyph glyph-name="igrave" unicode="&#xec;" horiz-adv-x="280" 
d="M-62 780l111 -190h182l-91 190h-202zM48 0h184v530h-184v-530z" />
    <glyph glyph-name="iacute" unicode="&#xed;" horiz-adv-x="280" 
d="M140 780l-91 -190h182l111 190h-202zM48 0h184v530h-184v-530z" />
    <glyph glyph-name="icircumflex" unicode="&#xee;" horiz-adv-x="280" 
d="M75 590l65 73l65 -73h160l-135 190h-180l-135 -190h160zM48 0h184v530h-184v-530z" />
    <glyph glyph-name="idieresis" unicode="&#xef;" horiz-adv-x="280" 
d="M120 780h-190v-190h190v190zM350 780h-190v-190h190v190zM48 0h184v530h-184v-530z" />
    <glyph glyph-name="eth" unicode="&#xf0;" horiz-adv-x="560" 
d="M280 144l-32 7l-23 19l-13 32l-4 43v40l4 43l13 32l23 19l32 7l32 -7l23 -19l13 -32l4 -43v-40l-4 -43l-13 -32l-23 -19zM25 650l24 -3l23 -3l22 -4l22 -4l-66 -36v-100l178 98l17 -11l17 -11l14 -13l13 -13l8 -11l-11 2l-12 2l-12 1h-12l-96 -19l-71 -52l-43 -82
l-15 -106v-40l15 -106l47 -82l79 -52l114 -19l114 19l79 52l47 82l15 106v40l-4 94l-16 95l-32 92l-51 87l-8 10l-9 10l-8 9l-9 9l42 23v100l-122 -67l-65 28l-72 19l-76 13l-80 7v-164z" />
    <glyph glyph-name="ntilde" unicode="&#xf1;" horiz-adv-x="595" 
d="M396 780l-2 -16l-6 -11l-10 -6l-12 -2l-33 8l-38 18l-42 17l-47 8l-47 -10l-38 -31l-26 -55l-9 -80h120l2 16l6 11l10 6l12 2l33 -8l38 -17l42 -18l47 -8l47 10l38 31l26 55l9 80h-120zM551 0v355l-8 70l-28 60l-50 43l-79 16l-55 -6l-45 -16l-38 -26l-30 -32l-12 66
h-166l10 -150v-380h184v345l11 13l16 13l23 11l27 4l30 -6l17 -15l7 -20l2 -20v-325h184z" />
    <glyph glyph-name="ograve" unicode="&#xf2;" horiz-adv-x="560" 
d="M280 144l-32 7l-23 19l-13 32l-4 43v40l4 43l13 32l23 19l32 7l32 -7l23 -19l13 -32l4 -43v-40l-4 -43l-13 -32l-23 -19zM78 780l111 -190h182l-91 190h-202zM280 -14l114 19l79 52l47 82l15 106v40l-15 106l-47 82l-79 52l-114 19l-114 -19l-79 -52l-47 -82l-15 -106
v-40l15 -106l47 -82l79 -52z" />
    <glyph glyph-name="oacute" unicode="&#xf3;" horiz-adv-x="560" 
d="M280 144l-32 7l-23 19l-13 32l-4 43v40l4 43l13 32l23 19l32 7l32 -7l23 -19l13 -32l4 -43v-40l-4 -43l-13 -32l-23 -19zM280 780l-91 -190h182l111 190h-202zM280 -14l114 19l79 52l47 82l15 106v40l-15 106l-47 82l-79 52l-114 19l-114 -19l-79 -52l-47 -82l-15 -106
v-40l15 -106l47 -82l79 -52z" />
    <glyph glyph-name="ocircumflex" unicode="&#xf4;" horiz-adv-x="560" 
d="M280 144l-32 7l-23 19l-13 32l-4 43v40l4 43l13 32l23 19l32 7l32 -7l23 -19l13 -32l4 -43v-40l-4 -43l-13 -32l-23 -19zM215 590l65 73l65 -73h160l-135 190h-180l-135 -190h160zM280 -14l114 19l79 52l47 82l15 106v40l-15 106l-47 82l-79 52l-114 19l-114 -19l-79 -52
l-47 -82l-15 -106v-40l15 -106l47 -82l79 -52z" />
    <glyph glyph-name="otilde" unicode="&#xf5;" horiz-adv-x="560" 
d="M280 144l-32 7l-23 19l-13 32l-4 43v40l4 43l13 32l23 19l32 7l32 -7l23 -19l13 -32l4 -43v-40l-4 -43l-13 -32l-23 -19zM375 780l-2 -16l-6 -11l-10 -6l-12 -2l-33 8l-38 18l-42 17l-47 8l-47 -10l-38 -31l-26 -55l-9 -80h120l2 16l6 11l10 6l12 2l33 -8l38 -17l42 -18
l47 -8l47 10l38 31l26 55l9 80h-120zM280 -14l114 19l79 52l47 82l15 106v40l-15 106l-47 82l-79 52l-114 19l-114 -19l-79 -52l-47 -82l-15 -106v-40l15 -106l47 -82l79 -52z" />
    <glyph glyph-name="odieresis" unicode="&#xf6;" horiz-adv-x="560" 
d="M280 144l-32 7l-23 19l-13 32l-4 43v40l4 43l13 32l23 19l32 7l32 -7l23 -19l13 -32l4 -43v-40l-4 -43l-13 -32l-23 -19zM260 780h-190v-190h190v190zM490 780h-190v-190h190v190zM280 -14l114 19l79 52l47 82l15 106v40l-15 106l-47 82l-79 52l-114 19l-114 -19l-79 -52
l-47 -82l-15 -106v-40l15 -106l47 -82l79 -52z" />
    <glyph glyph-name="divide" unicode="&#xf7;" horiz-adv-x="600" 
d="M395 690h-190v-190h190v190zM395 280h-190v-190h190v190zM40 308h520v164h-520v-164z" />
    <glyph glyph-name="oslash" unicode="&#xf8;" horiz-adv-x="560" 
d="M208 232v53l4 43l13 32l23 19l32 7l12 -1l11 -2l9 -4l9 -5zM352 285v-40l-4 -43l-13 -32l-23 -19l-32 -7l-12 1l-11 2l-10 4l-9 5l113 143l1 -3v-4v-3v-4zM535 530h-90l-17 -21l-31 15l-35 11l-39 7l-43 2l-114 -19l-79 -52l-47 -82l-15 -106v-40l3 -52l10 -47l17 -42
l23 -36l-54 -68h90l17 21l31 -15l35 -11l39 -7l44 -2l114 19l79 52l47 82l15 106v40l-3 52l-10 47l-17 42l-24 36z" />
    <glyph glyph-name="ugrave" unicode="&#xf9;" horiz-adv-x="595" 
d="M92 780l111 -190h182l-91 190h-202zM44 530v-355l8 -70l28 -60l50 -43l79 -16l55 6l45 16l38 25l29 32l13 -65h166l-10 150v380h-184v-345l-11 -13l-16 -13l-22 -11l-28 -4l-30 6l-17 15l-7 20l-2 20v325h-184z" />
    <glyph glyph-name="uacute" unicode="&#xfa;" horiz-adv-x="595" 
d="M294 780l-91 -190h182l111 190h-202zM44 530v-355l8 -70l28 -60l50 -43l79 -16l55 6l45 16l38 25l29 32l13 -65h166l-10 150v380h-184v-345l-11 -13l-16 -13l-22 -11l-28 -4l-30 6l-17 15l-7 20l-2 20v325h-184z" />
    <glyph glyph-name="ucircumflex" unicode="&#xfb;" horiz-adv-x="595" 
d="M229 590l65 73l65 -73h160l-135 190h-180l-135 -190h160zM44 530v-355l8 -70l28 -60l50 -43l79 -16l55 6l45 16l38 25l29 32l13 -65h166l-10 150v380h-184v-345l-11 -13l-16 -13l-22 -11l-28 -4l-30 6l-17 15l-7 20l-2 20v325h-184z" />
    <glyph glyph-name="udieresis" unicode="&#xfc;" horiz-adv-x="595" 
d="M274 780h-190v-190h190v190zM504 780h-190v-190h190v190zM44 530v-355l8 -70l28 -60l50 -43l79 -16l55 6l45 16l38 25l29 32l13 -65h166l-10 150v380h-184v-345l-11 -13l-16 -13l-22 -11l-28 -4l-30 6l-17 15l-7 20l-2 20v325h-184z" />
    <glyph glyph-name="yacute" unicode="&#xfd;" horiz-adv-x="570" 
d="M285 780l-91 -190h182l111 190h-202zM285 220l-85 310h-200l185 -500l-86 -230h220l66 230l185 500h-200z" />
    <glyph glyph-name="thorn" unicode="&#xfe;" horiz-adv-x="585" 
d="M233 185v160l11 13l16 13l23 11l27 4l32 -7l20 -19l12 -32l3 -43v-40l-3 -43l-12 -32l-20 -19l-32 -7l-27 4l-23 11l-16 13zM48 800v-1000h184v241l25 -23l30 -17l36 -11l42 -4l92 19l60 52l33 82l10 106v40l-10 106l-33 82l-60 52l-92 19l-42 -4l-36 -11l-30 -17
l-25 -23v311h-184z" />
    <glyph glyph-name="ydieresis" unicode="&#xff;" horiz-adv-x="570" 
d="M265 780h-190v-190h190v190zM495 780h-190v-190h190v190zM285 220l-85 310h-200l185 -500l-86 -230h220l66 230l185 500h-200z" />
    <glyph glyph-name="Amacron" unicode="&#x100;" horiz-adv-x="650" 
d="M325 560l48 -238h-96zM165 840h320v110h-320v-110zM195 780l-186 -780h204l31 158h162l32 -158h203l-186 780h-260z" />
    <glyph glyph-name="amacron" unicode="&#x101;" horiz-adv-x="560" 
d="M260 134l-24 4l-16 10l-9 13l-3 16v6l2 17l8 14l16 12l26 7l72 11v-81l-13 -10l-17 -10l-20 -6zM120 605h320v160h-320v-160zM360 0h166l-10 150v190l-11 87l-39 64l-73 40l-113 13l-113 -15l-72 -39l-39 -57l-11 -69v-9h173l3 19l9 16l17 12l28 4l26 -3l17 -11l10 -17
l4 -25l-112 -18l-80 -18l-62 -32l-39 -49l-14 -73v-10l8 -61l28 -53l50 -36l79 -14l49 5l43 12l37 21l31 26z" />
    <glyph glyph-name="Abreve" unicode="&#x102;" horiz-adv-x="650" 
d="M325 560l48 -238h-96zM325 824l98 10l60 28l29 40l8 48h-125l-4 -13l-12 -9l-22 -6l-32 -2l-32 2l-22 6l-12 9l-4 13h-125l8 -48l30 -40l59 -28zM195 780l-186 -780h204l31 158h162l32 -158h203l-186 780h-260z" />
    <glyph glyph-name="abreve" unicode="&#x103;" horiz-adv-x="560" 
d="M260 134l-24 4l-16 10l-9 13l-3 16v6l2 17l8 14l16 12l26 7l72 11v-81l-13 -10l-17 -10l-20 -6zM280 576l93 15l61 43l33 65l8 81h-130l-6 -34l-14 -20l-21 -9l-24 -3l-24 3l-21 9l-14 20l-6 34h-130l8 -81l33 -65l61 -43zM360 0h166l-10 150v190l-11 87l-39 64l-73 40
l-113 13l-113 -15l-72 -39l-39 -57l-11 -69v-9h173l3 19l9 16l17 12l28 4l26 -3l17 -11l10 -17l4 -25l-112 -18l-80 -18l-62 -32l-39 -49l-14 -73v-10l8 -61l28 -53l50 -36l79 -14l49 5l43 12l37 21l31 26z" />
    <glyph glyph-name="Aogonek" unicode="&#x104;" horiz-adv-x="650" 
d="M325 560l48 -238h-96zM586 -58l3 16l10 15l17 14l25 13l-186 780h-260l-186 -780h204l31 158h162l32 -158h54l-17 -22l-13 -26l-8 -27l-3 -30l10 -49l29 -35l45 -20l58 -7l33 2l30 6l26 8l19 10l-41 110l-6 -3l-7 -4l-11 -2l-12 -1l-16 2l-12 7l-7 10z" />
    <glyph glyph-name="aogonek" unicode="&#x105;" horiz-adv-x="560" 
d="M336 -105l10 -49l29 -35l45 -20l58 -7l33 2l30 6l26 8l19 10l-41 110l-6 -3l-7 -4l-11 -2l-12 -1l-16 2l-12 7l-7 10l-3 13l3 16l10 15l17 14l25 13l-10 150v190l-11 87l-39 64l-73 40l-113 13l-113 -15l-72 -39l-39 -57l-11 -69v-9h173l3 19l9 16l17 12l28 4l26 -3
l17 -11l10 -17l4 -25l-112 -18l-80 -18l-62 -32l-39 -49l-14 -73v-10l8 -61l28 -53l50 -36l79 -14l49 5l43 12l37 21l31 26l13 -67l-11 -20l-9 -21l-5 -23zM260 134l-24 4l-16 10l-9 13l-3 16v6l2 17l8 14l16 12l26 7l72 11v-81l-13 -10l-17 -10l-20 -6z" />
    <glyph glyph-name="Cacute" unicode="&#x106;" horiz-adv-x="660" 
d="M297 950l-53 -110h182l64 110h-193zM226 370v40l4 91l15 70l33 44l57 15h10l46 -11l27 -30l13 -48l4 -61h190v39l-18 128l-55 85l-91 47l-126 15l-136 -22l-94 -69l-54 -119l-18 -174v-40l18 -174l54 -119l94 -69l136 -22l126 15l91 47l55 85l18 128v9h-190l-5 -48
l-15 -38l-28 -25l-42 -9h-10l-57 15l-33 44l-15 70z" />
    <glyph glyph-name="cacute" unicode="&#x107;" horiz-adv-x="528" 
d="M270 780l-91 -190h182l111 190h-202zM208 245v40l3 43l12 32l20 19l31 7l24 -4l19 -12l11 -20l4 -30h173v24l-15 84l-45 63l-73 39l-102 14l-110 -19l-77 -52l-44 -82l-14 -106v-40l14 -106l44 -82l77 -52l110 -19l102 13l73 39l45 59l15 79v24h-173l-4 -24l-11 -17
l-19 -11l-24 -4l-31 7l-20 19l-12 32z" />
    <glyph glyph-name="Ccircumflex" unicode="&#x108;" horiz-adv-x="660" 
d="M275 840l60 39l60 -39h165l-130 110h-190l-130 -110h165zM226 370v40l4 91l15 70l33 44l57 15h10l46 -11l27 -30l13 -48l4 -61h190v39l-18 128l-55 85l-91 47l-126 15l-136 -22l-94 -69l-54 -119l-18 -174v-40l18 -174l54 -119l94 -69l136 -22l126 15l91 47l55 85l18 128
v9h-190l-5 -48l-15 -38l-28 -25l-42 -9h-10l-57 15l-33 44l-15 70z" />
    <glyph glyph-name="ccircumflex" unicode="&#x109;" horiz-adv-x="528" 
d="M205 590l65 73l65 -73h160l-135 190h-180l-135 -190h160zM208 245v40l3 43l12 32l20 19l31 7l24 -4l19 -12l11 -20l4 -30h173v24l-15 84l-45 63l-73 39l-102 14l-110 -19l-77 -52l-44 -82l-14 -106v-40l14 -106l44 -82l77 -52l110 -19l102 13l73 39l45 59l15 79v24h-173
l-4 -24l-11 -17l-19 -11l-24 -4l-31 7l-20 19l-12 32z" />
    <glyph glyph-name="Cdotaccent" unicode="&#x10a;" horiz-adv-x="660" 
d="M410 950h-150v-110h150v110zM226 370v40l4 91l15 70l33 44l57 15h10l46 -11l27 -30l13 -48l4 -61h190v39l-18 128l-55 85l-91 47l-126 15l-136 -22l-94 -69l-54 -119l-18 -174v-40l18 -174l54 -119l94 -69l136 -22l126 15l91 47l55 85l18 128v9h-190l-5 -48l-15 -38
l-28 -25l-42 -9h-10l-57 15l-33 44l-15 70z" />
    <glyph glyph-name="cdotaccent" unicode="&#x10b;" horiz-adv-x="528" 
d="M365 780h-190v-190h190v190zM208 245v40l3 43l12 32l20 19l31 7l24 -4l19 -12l11 -20l4 -30h173v24l-15 84l-45 63l-73 39l-102 14l-110 -19l-77 -52l-44 -82l-14 -106v-40l14 -106l44 -82l77 -52l110 -19l102 13l73 39l45 59l15 79v24h-173l-4 -24l-11 -17l-19 -11
l-24 -4l-31 7l-20 19l-12 32z" />
    <glyph glyph-name="Ccaron" unicode="&#x10c;" horiz-adv-x="660" 
d="M110 950l130 -110h190l130 110h-165l-60 -40l-60 40h-165zM226 370v40l4 91l15 70l33 44l57 15h10l46 -11l27 -30l13 -48l4 -61h190v39l-18 128l-55 85l-91 47l-126 15l-136 -22l-94 -69l-54 -119l-18 -174v-40l18 -174l54 -119l94 -69l136 -22l126 15l91 47l55 85
l18 128v9h-190l-5 -48l-15 -38l-28 -25l-42 -9h-10l-57 15l-33 44l-15 70z" />
    <glyph glyph-name="ccaron" unicode="&#x10d;" horiz-adv-x="528" 
d="M45 780l135 -190h180l135 190h-160l-65 -74l-65 74h-160zM208 245v40l3 43l12 32l20 19l31 7l24 -4l19 -12l11 -20l4 -30h173v24l-15 84l-45 63l-73 39l-102 14l-110 -19l-77 -52l-44 -82l-14 -106v-40l14 -106l44 -82l77 -52l110 -19l102 13l73 39l45 59l15 79v24h-173
l-4 -24l-11 -17l-19 -11l-24 -4l-31 7l-20 19l-12 32z" />
    <glyph glyph-name="Dcaron" unicode="&#x10e;" horiz-adv-x="670" 
d="M95 950l130 -110h190l130 110h-165l-60 -40l-60 40h-165zM240 164v452h50l79 -13l47 -39l22 -65l6 -89v-40l-6 -89l-22 -65l-47 -39l-79 -13h-50zM637 370v40l-18 172l-59 114l-104 64l-156 20h-250v-780h250l156 20l104 64l59 114z" />
    <glyph glyph-name="dcaron" unicode="&#x10f;" horiz-adv-x="595" 
d="M595 800v-210h80l25 210h-105zM361 185l-11 -13l-16 -13l-22 -11l-28 -4l-32 7l-20 19l-12 32l-3 43v40l3 43l12 32l20 19l32 7l28 -4l22 -11l16 -13l11 -13v-160zM229 544l-92 -19l-60 -52l-33 -82l-10 -106v-40l10 -106l33 -82l60 -52l92 -19l49 6l41 15l32 24l26 30
l12 -61h166l-10 150v650h-184v-310l-25 22l-30 17l-36 11z" />
    <glyph glyph-name="Dcroat" unicode="&#x110;" horiz-adv-x="730" 
d="M300 616h50l79 -13l47 -39l22 -65l6 -89v-40l-6 -89l-22 -65l-47 -39l-79 -13h-50v166h150v140h-150v146zM10 330h100v-330h250l156 20l104 64l59 114l18 172v40l-18 172l-59 114l-104 64l-156 20h-250v-310h-100v-140z" />
    <glyph glyph-name="dcroat" unicode="&#x111;" horiz-adv-x="595" 
d="M361 185l-11 -13l-16 -13l-22 -11l-28 -4l-32 7l-20 19l-12 32l-3 43v40l3 43l12 32l20 19l32 7l28 -4l22 -11l16 -13l11 -13v-160zM605 600v130h-60v70h-184v-70h-107v-130h107v-110l-25 22l-30 17l-36 11l-41 4l-92 -19l-60 -52l-33 -82l-10 -106v-40l10 -106l33 -82
l60 -52l92 -19l49 6l41 15l32 24l26 30l12 -61h166l-10 150v450h60z" />
    <glyph glyph-name="Emacron" unicode="&#x112;" horiz-adv-x="580" 
d="M135 840h320v110h-320v-110zM50 780v-780h490v164h-300v152h250v164h-250v136h300v164h-490z" />
    <glyph glyph-name="emacron" unicode="&#x113;" horiz-adv-x="560" 
d="M280 406l29 -4l21 -13l14 -23l7 -36h-142l7 36l14 23l21 13zM124 605h320v160h-320v-160zM535 200v80l-15 107l-46 83l-79 55l-111 19l-113 -19l-81 -55l-49 -83l-16 -107v-30l16 -107l49 -83l82 -55l118 -19l103 13l77 37l48 57l17 73v4h-173l-5 -18l-15 -14l-23 -10
l-28 -4l-31 3l-25 13l-17 23l-9 37h326z" />
    <glyph glyph-name="Ebreve" unicode="&#x114;" horiz-adv-x="580" 
d="M295 824l98 10l60 28l29 40l8 48h-125l-4 -13l-12 -9l-22 -6l-32 -2l-32 2l-22 6l-12 9l-4 13h-125l8 -48l30 -40l59 -28zM50 780v-780h490v164h-300v152h250v164h-250v136h300v164h-490z" />
    <glyph glyph-name="ebreve" unicode="&#x115;" horiz-adv-x="560" 
d="M280 406l29 -4l21 -13l14 -23l7 -36h-142l7 36l14 23l21 13zM284 576l93 15l61 43l33 65l8 81h-130l-6 -34l-14 -20l-21 -9l-24 -3l-24 3l-21 9l-14 20l-6 34h-130l8 -81l33 -65l61 -43zM535 200v80l-15 107l-46 83l-79 55l-111 19l-113 -19l-81 -55l-49 -83l-16 -107
v-30l16 -107l49 -83l82 -55l118 -19l103 13l77 37l48 57l17 73v4h-173l-5 -18l-15 -14l-23 -10l-28 -4l-31 3l-25 13l-17 23l-9 37h326z" />
    <glyph glyph-name="Edotaccent" unicode="&#x116;" horiz-adv-x="580" 
d="M370 950h-150v-110h150v110zM50 780v-780h490v164h-300v152h250v164h-250v136h300v164h-490z" />
    <glyph glyph-name="edotaccent" unicode="&#x117;" horiz-adv-x="560" 
d="M280 406l29 -4l21 -13l14 -23l7 -36h-142l7 36l14 23l21 13zM379 780h-190v-190h190v190zM535 200v80l-15 107l-46 83l-79 55l-111 19l-113 -19l-81 -55l-49 -83l-16 -107v-30l16 -107l49 -83l82 -55l118 -19l103 13l77 37l48 57l17 73v4h-173l-5 -18l-15 -14l-23 -10
l-28 -4l-31 3l-25 13l-17 23l-9 37h326z" />
    <glyph glyph-name="Eogonek" unicode="&#x118;" horiz-adv-x="580" 
d="M485 -58l3 16l10 15l17 14l25 13v164h-300v152h250v164h-250v136h300v164h-490v-780h341l-17 -22l-13 -26l-8 -27l-3 -30l10 -49l29 -35l45 -20l58 -7l33 2l30 6l26 8l19 10l-41 110l-6 -3l-7 -4l-11 -2l-12 -1l-16 2l-12 7l-7 10z" />
    <glyph glyph-name="eogonek" unicode="&#x119;" horiz-adv-x="560" 
d="M280 406l29 -4l21 -13l14 -23l7 -36h-142l7 36l14 23l21 13zM341 -58l3 17l10 16l17 14l25 11l60 27l43 37l27 47l9 55v4h-173l-5 -18l-15 -14l-23 -10l-28 -4l-31 3l-25 13l-17 23l-9 37h326v80l-15 107l-46 83l-79 55l-111 19l-113 -19l-81 -55l-49 -83l-16 -107v-30
l13 -97l39 -79l67 -56l94 -29l-13 -21l-10 -22l-7 -25l-2 -26l10 -49l29 -35l45 -20l58 -7l33 2l30 6l26 8l19 10l-41 110l-6 -3l-7 -4l-11 -2l-12 -1l-16 2l-12 7l-7 10z" />
    <glyph glyph-name="Ecaron" unicode="&#x11a;" horiz-adv-x="580" 
d="M70 950l130 -110h190l130 110h-165l-60 -40l-60 40h-165zM50 780v-780h490v164h-300v152h250v164h-250v136h300v164h-490z" />
    <glyph glyph-name="ecaron" unicode="&#x11b;" horiz-adv-x="560" 
d="M280 406l29 -4l21 -13l14 -23l7 -36h-142l7 36l14 23l21 13zM59 780l135 -190h180l135 190h-160l-65 -74l-65 74h-160zM535 200v80l-15 107l-46 83l-79 55l-111 19l-113 -19l-81 -55l-49 -83l-16 -107v-30l16 -107l49 -83l82 -55l118 -19l103 13l77 37l48 57l17 73v4
h-173l-5 -18l-15 -14l-23 -10l-28 -4l-31 3l-25 13l-17 23l-9 37h326z" />
    <glyph glyph-name="Gcircumflex" unicode="&#x11c;" horiz-adv-x="680" 
d="M280 840l60 39l60 -39h165l-130 110h-190l-130 -110h165zM350 -14l95 7l76 20l62 30l51 35v356h-284v-164h94v-100l-19 -9l-21 -6l-24 -4l-25 -1h-10l-63 15l-36 44l-16 70l-4 91v40l4 91l16 70l34 44l60 15h10l49 -11l29 -30l13 -48l4 -61h190v39l-19 128l-57 85l-92 47
l-127 15l-137 -22l-95 -69l-57 -119l-18 -174v-40l19 -174l57 -119l99 -69z" />
    <glyph glyph-name="gcircumflex" unicode="&#x11d;" horiz-adv-x="585" 
d="M352 215l-11 -13l-16 -13l-22 -11l-28 -4l-29 5l-21 16l-13 28l-4 42v30l4 37l13 29l21 19l29 6l28 -4l22 -11l16 -13l11 -13v-130zM220 590l65 73l65 -73h160l-135 190h-180l-135 -190h160zM352 15l-5 -40l-15 -25l-23 -12l-33 -4l-34 5l-21 15l-10 21l-3 25h-173v-24
l12 -74l42 -61l75 -40l116 -15l112 14l80 42l48 72l16 101v365l10 150h-166l-11 -58l-26 29l-33 23l-41 15l-49 5l-90 -19l-60 -51l-34 -79l-11 -100v-30l11 -104l34 -79l60 -49l90 -17l41 3l36 10l30 16l25 21v-51z" />
    <glyph glyph-name="Gbreve" unicode="&#x11e;" horiz-adv-x="680" 
d="M340 824l98 10l60 28l29 40l8 48h-125l-4 -13l-12 -9l-22 -6l-32 -2l-32 2l-22 6l-12 9l-4 13h-125l8 -48l30 -40l59 -28zM350 -14l95 7l76 20l62 30l51 35v356h-284v-164h94v-100l-19 -9l-21 -6l-24 -4l-25 -1h-10l-63 15l-36 44l-16 70l-4 91v40l4 91l16 70l34 44
l60 15h10l49 -11l29 -30l13 -48l4 -61h190v39l-19 128l-57 85l-92 47l-127 15l-137 -22l-95 -69l-57 -119l-18 -174v-40l19 -174l57 -119l99 -69z" />
    <glyph glyph-name="gbreve" unicode="&#x11f;" horiz-adv-x="585" 
d="M352 345v-130l-11 -13l-16 -13l-22 -11l-28 -4l-29 5l-21 16l-13 28l-4 42v30l4 37l13 29l21 19l29 6l28 -4l22 -11l16 -13zM285 576l93 15l61 43l33 65l8 81h-130l-6 -34l-14 -20l-21 -9l-24 -3l-24 3l-21 9l-14 20l-6 34h-130l8 -81l33 -65l61 -43zM352 15l-5 -40
l-15 -25l-23 -12l-33 -4l-34 5l-21 15l-10 21l-3 25h-173v-24l12 -74l42 -61l75 -40l116 -15l112 14l80 42l48 72l16 101v365l10 150h-166l-11 -58l-26 29l-33 23l-41 15l-49 5l-90 -19l-60 -51l-34 -79l-11 -100v-30l11 -104l34 -79l60 -49l90 -17l41 3l36 10l30 16l25 21
v-51z" />
    <glyph glyph-name="Gdotaccent" unicode="&#x120;" horiz-adv-x="680" 
d="M415 950h-150v-110h150v110zM350 -14l95 7l76 20l62 30l51 35v356h-284v-164h94v-100l-19 -9l-21 -6l-24 -4l-25 -1h-10l-63 15l-36 44l-16 70l-4 91v40l4 91l16 70l34 44l60 15h10l49 -11l29 -30l13 -48l4 -61h190v39l-19 128l-57 85l-92 47l-127 15l-137 -22l-95 -69
l-57 -119l-18 -174v-40l19 -174l57 -119l99 -69z" />
    <glyph glyph-name="gdotaccent" unicode="&#x121;" horiz-adv-x="585" 
d="M352 215l-11 -13l-16 -13l-22 -11l-28 -4l-29 5l-21 16l-13 28l-4 42v30l4 37l13 29l21 19l29 6l28 -4l22 -11l16 -13l11 -13v-130zM375 780h-190v-190h190v190zM352 15l-5 -40l-15 -25l-23 -12l-33 -4l-34 5l-21 15l-10 21l-3 25h-173v-24l12 -74l42 -61l75 -40l116 -15
l112 14l80 42l48 72l16 101v365l10 150h-166l-11 -58l-26 29l-33 23l-41 15l-49 5l-90 -19l-60 -51l-34 -79l-11 -100v-30l11 -104l34 -79l60 -49l90 -17l41 3l36 10l30 16l25 21v-51z" />
    <glyph glyph-name="Gcommaaccent" unicode="&#x122;" horiz-adv-x="680" 
d="M430 -40h-160v-100h88l-14 -14l-19 -10l-25 -5l-30 -1v-60l71 7l50 22l29 41l10 60v60zM350 -14l95 7l76 20l62 30l51 35v356h-284v-164h94v-100l-19 -9l-21 -6l-24 -4l-25 -1h-10l-63 15l-36 44l-16 70l-4 91v40l4 91l16 70l34 44l60 15h10l49 -11l29 -30l13 -48l4 -61
h190v39l-19 128l-57 85l-92 47l-127 15l-137 -22l-95 -69l-57 -119l-18 -174v-40l19 -174l57 -119l99 -69z" />
    <glyph glyph-name="gcommaaccent" unicode="&#x123;" horiz-adv-x="585" 
d="M352 345v-130l-11 -13l-16 -13l-22 -11l-28 -4l-29 5l-21 16l-13 28l-4 42v30l4 37l13 29l21 19l29 6l28 -4l22 -11l16 -13zM200 590h160v110h-89l14 16l20 10l25 6l30 2v60l-71 -8l-50 -23l-29 -42l-10 -61v-70zM352 15l-5 -40l-15 -25l-23 -12l-33 -4l-34 5l-21 15
l-10 21l-3 25h-173v-24l12 -74l42 -61l75 -40l116 -15l112 14l80 42l48 72l16 101v365l10 150h-166l-11 -58l-26 29l-33 23l-41 15l-49 5l-90 -19l-60 -51l-34 -79l-11 -100v-30l11 -104l34 -79l60 -49l90 -17l41 3l36 10l30 16l25 21v-51z" />
    <glyph glyph-name="Hcircumflex" unicode="&#x124;" horiz-adv-x="670" 
d="M275 840l60 39l60 -39h165l-130 110h-190l-130 -110h165zM430 780v-300h-190v300h-190v-780h190v316h190v-316h190v780h-190z" />
    <glyph glyph-name="hcircumflex" unicode="&#x125;" horiz-adv-x="595" 
d="M82 840l60 39l60 -39h165l-130 110h-190l-130 -110h165zM234 800h-184v-800h184v345l11 13l16 13l23 11l27 4l30 -6l17 -15l7 -20l2 -20v-325h184v355l-8 70l-28 60l-50 43l-79 16l-48 -4l-41 -13l-34 -19l-29 -25v317z" />
    <glyph glyph-name="Hbar" unicode="&#x126;" horiz-adv-x="670" 
d="M240 480v80h190v-80h-190zM430 780v-80h-190v80h-190v-780h190v316h190v-316h190v780h-190z" />
    <glyph glyph-name="hbar" unicode="&#x127;" horiz-adv-x="595" 
d="M234 800h-184v-70h-60v-130h60v-600h184v345l11 13l16 13l23 11l27 4l30 -6l17 -15l8 -20l2 -20v-325h183v355l-8 70l-28 60l-50 43l-79 16l-48 -4l-41 -13l-34 -19l-29 -25v117h107v130h-107v70z" />
    <glyph glyph-name="Itilde" unicode="&#x128;" 
d="M250 950l-3 -14l-7 -10l-10 -5l-13 -1l-30 7l-35 16l-41 16l-46 7l-41 -6l-35 -21l-25 -39l-9 -60h95l3 14l7 10l10 5l13 1l30 -7l36 -16l40 -16l46 -7l41 6l35 21l25 39l9 60h-95zM245 780h-190v-780h190v780z" />
    <glyph glyph-name="itilde" unicode="&#x129;" horiz-adv-x="280" 
d="M235 780l-2 -16l-6 -11l-10 -6l-12 -2l-33 8l-38 18l-42 17l-47 8l-47 -10l-38 -31l-26 -55l-9 -80h120l2 16l6 11l10 6l12 2l33 -8l38 -17l42 -18l47 -8l47 10l38 31l26 55l9 80h-120zM48 0h184v530h-184v-530z" />
    <glyph glyph-name="Imacron" unicode="&#x12a;" 
d="M-10 840h320v110h-320v-110zM245 780h-190v-780h190v780z" />
    <glyph glyph-name="imacron" unicode="&#x12b;" horiz-adv-x="280" 
d="M-20 605h320v160h-320v-160zM48 0h184v530h-184v-530z" />
    <glyph glyph-name="Ibreve" unicode="&#x12c;" 
d="M150 824l98 10l60 28l29 40l8 48h-125l-4 -13l-12 -9l-22 -6l-32 -2l-32 2l-22 6l-12 9l-4 13h-125l8 -48l29 -40l60 -28zM245 780h-190v-780h190v780z" />
    <glyph glyph-name="ibreve" unicode="&#x12d;" horiz-adv-x="280" 
d="M140 576l93 15l61 43l33 65l8 81h-130l-6 -34l-14 -20l-21 -9l-24 -3l-24 3l-21 9l-14 20l-6 34h-130l8 -81l33 -65l61 -43zM48 0h184v530h-184v-530z" />
    <glyph glyph-name="Iogonek" unicode="&#x12e;" 
d="M190 -58l3 16l10 15l17 14l25 13v780h-190v-780h41l-17 -22l-13 -26l-8 -27l-3 -30l10 -49l29 -35l45 -20l58 -7l33 2l30 6l26 8l19 10l-41 110l-6 -3l-7 -4l-11 -2l-12 -1l-16 2l-12 7l-7 10z" />
    <glyph glyph-name="iogonek" unicode="&#x12f;" horiz-adv-x="280" 
d="M235 780h-190v-190h190v190zM48 0h35l-17 -22l-13 -26l-8 -27l-3 -30l10 -49l29 -35l45 -20l58 -7l33 2l30 6l26 8l19 10l-41 110l-6 -3l-7 -4l-11 -2l-12 -1l-16 2l-12 7l-7 10l-3 13l3 16l10 15l17 14l25 13v530h-184v-530z" />
    <glyph glyph-name="Idotaccent" unicode="&#x130;" 
d="M225 950h-150v-110h150v110zM245 780h-190v-780h190v780z" />
    <glyph glyph-name="dotlessi" unicode="&#x131;" horiz-adv-x="280" 
d="M48 0h184v530h-184v-530z" />
    <glyph glyph-name="IJ" unicode="&#x132;" horiz-adv-x="641" 
d="M245 780h-190v-780h190v780zM406 223l-5 -38l-14 -22l-23 -10l-29 -3l-14 1l-15 2l-13 2l-8 3v-155l13 -6l21 -5l29 -4l37 -2l85 11l67 37l43 67l16 101v578h-190v-557z" />
    <glyph glyph-name="ij" unicode="&#x133;" horiz-adv-x="510" 
d="M465 780h-190v-190h190v190zM235 780h-190v-190h190v190zM48 0h184v530h-184v-530zM278 15l-5 -36l-15 -22l-22 -10l-29 -3l-13 1l-14 1l-12 2l-7 2v-150l11 -4l18 -5l26 -4l34 -1l87 11l67 35l43 65l15 98v535h-184v-515z" />
    <glyph glyph-name="Jcircumflex" unicode="&#x134;" horiz-adv-x="550" 
d="M350 840l60 39l60 -39h165l-130 110h-190l-130 -110h165zM315 780v-520l-2 -46l-9 -34l-17 -22l-29 -8l-29 8l-17 23l-9 37l-2 52h-180v-30l13 -108l41 -80l74 -49l114 -17l110 17l75 49l43 79l14 107v542h-190z" />
    <glyph glyph-name="jcircumflex" unicode="&#x135;" horiz-adv-x="280" 
d="M75 590l65 73l65 -73h160l-135 190h-180l-135 -190h160zM48 15l-5 -36l-15 -22l-22 -10l-29 -3l-13 1l-14 1l-12 2l-7 2v-150l11 -4l18 -5l26 -4l34 -1l87 11l67 35l43 65l15 98v535h-184v-515z" />
    <glyph glyph-name="Kcommaaccent" unicode="&#x136;" horiz-adv-x="645" 
d="M405 -40h-160v-100h88l-14 -14l-19 -10l-25 -5l-30 -1v-60l71 7l50 22l29 41l10 60v60zM240 780h-190v-780h190v220l53 77l127 -297h210l-214 473l214 307h-230l-160 -268v268z" />
    <glyph glyph-name="kcommaaccent" unicode="&#x137;" horiz-adv-x="580" 
d="M367 -40h-160v-100h88l-14 -14l-19 -10l-25 -5l-30 -1v-60l71 7l50 22l29 41l10 60v60zM45 0h184v141l35 41l86 -182h215l-174 329l174 201h-220l-116 -148v418h-184v-800z" />
    <glyph glyph-name="kgreenlandic" unicode="&#x138;" horiz-adv-x="580" 
d="M45 0h184v141l35 41l86 -182h215l-174 329l174 201h-220l-116 -148v148h-184v-530z" />
    <glyph glyph-name="Lacute" unicode="&#x139;" horiz-adv-x="530" 
d="M107 950l-53 -110h182l64 110h-193zM515 0v164h-275v616h-190v-780h465z" />
    <glyph glyph-name="lacute" unicode="&#x13a;" horiz-adv-x="280" 
d="M102 950l-53 -110h182l64 110h-193zM48 0h184v800h-184v-800z" />
    <glyph glyph-name="Lcommaaccent" unicode="&#x13b;" horiz-adv-x="530" 
d="M362 -40h-160v-100h88l-14 -14l-19 -10l-25 -5l-30 -1v-60l71 7l50 22l29 41l10 60v60zM515 0v164h-275v616h-190v-780h465z" />
    <glyph glyph-name="lcommaaccent" unicode="&#x13c;" horiz-adv-x="280" 
d="M220 -40h-160v-100h88l-14 -14l-19 -10l-25 -5l-30 -1v-60l71 7l50 22l29 41l10 60v60zM48 0h184v800h-184v-800z" />
    <glyph glyph-name="Lcaron" unicode="&#x13d;" horiz-adv-x="530" 
d="M343 800v-210h80l25 210h-105zM515 0v164h-275v616h-190v-780h465z" />
    <glyph glyph-name="lcaron" unicode="&#x13e;" horiz-adv-x="280" 
d="M282 800v-210h80l25 210h-105zM48 0h184v800h-184v-800z" />
    <glyph glyph-name="Ldot" unicode="&#x13f;" horiz-adv-x="530" 
d="M505 493h-190v-190h190v190zM515 0v164h-275v616h-190v-780h465z" />
    <glyph glyph-name="ldot" unicode="&#x140;" horiz-adv-x="470" 
d="M470 445h-190v-190h190v190zM48 0h184v800h-184v-800z" />
    <glyph glyph-name="Lslash" unicode="&#x141;" horiz-adv-x="590" 
d="M10 164l100 48v-212h465v164h-275v141l170 83v156l-170 -83v319h-190v-412l-100 -48v-156z" />
    <glyph glyph-name="lslash" unicode="&#x142;" horiz-adv-x="400" 
d="M20 169l88 53v-222h184v333l98 60v151l-98 -60v316h-184v-427l-88 -53v-151z" />
    <glyph glyph-name="Nacute" unicode="&#x143;" horiz-adv-x="690" 
d="M307 950l-53 -110h182l64 110h-193zM640 780h-180v-280l5 -150l-215 430h-200v-780h180v280l-5 150l215 -430h200v780z" />
    <glyph glyph-name="nacute" unicode="&#x144;" horiz-adv-x="595" 
d="M301 780l-91 -190h182l111 190h-202zM551 0v355l-8 70l-28 60l-50 43l-79 16l-55 -6l-45 -16l-38 -26l-30 -32l-12 66h-166l10 -150v-380h184v345l11 13l16 13l23 11l27 4l30 -6l17 -15l7 -20l2 -20v-325h184z" />
    <glyph glyph-name="Ncommaaccent" unicode="&#x145;" horiz-adv-x="690" 
d="M425 -40h-160v-100h88l-14 -14l-19 -10l-25 -5l-30 -1v-60l71 7l50 22l29 41l10 60v60zM640 780h-180v-280l5 -150l-215 430h-200v-780h180v280l-5 150l215 -430h200v780z" />
    <glyph glyph-name="ncommaaccent" unicode="&#x146;" horiz-adv-x="595" 
d="M381 -40h-160v-100h88l-14 -14l-19 -10l-25 -5l-30 -1v-60l71 7l50 22l29 41l10 60v60zM551 0v355l-8 70l-28 60l-50 43l-79 16l-55 -6l-45 -16l-38 -26l-30 -32l-12 66h-166l10 -150v-380h184v345l11 13l16 13l23 11l27 4l30 -6l17 -15l7 -20l2 -20v-325h184z" />
    <glyph glyph-name="Ncaron" unicode="&#x147;" horiz-adv-x="690" 
d="M120 950l130 -110h190l130 110h-165l-60 -40l-60 40h-165zM640 780h-180v-280l5 -150l-215 430h-200v-780h180v280l-5 150l215 -430h200v780z" />
    <glyph glyph-name="ncaron" unicode="&#x148;" horiz-adv-x="595" 
d="M76 780l135 -190h180l135 190h-160l-65 -74l-65 74h-160zM551 0v355l-8 70l-28 60l-50 43l-79 16l-55 -6l-45 -16l-38 -26l-30 -32l-12 66h-166l10 -150v-380h184v345l11 13l16 13l23 11l27 4l30 -6l17 -15l7 -20l2 -20v-325h184z" />
    <glyph glyph-name="Eng" unicode="&#x14a;" horiz-adv-x="690" 
d="M640 780h-180v-280l5 -150l-215 430h-200v-780h180v280l-5 150l226 -452l-10 -17l-15 -11l-19 -5l-22 -1l-13 1l-14 1l-12 2l-7 2v-150l11 -4l18 -5l26 -4l34 -1l87 11l67 35l43 65l15 98v785z" />
    <glyph glyph-name="eng" unicode="&#x14b;" horiz-adv-x="595" 
d="M367 15l-5 -36l-15 -22l-22 -10l-29 -3l-13 1l-14 1l-12 2l-7 2v-150l11 -4l18 -5l26 -4l34 -1l87 11l67 35l43 65l15 98v360l-8 70l-28 60l-50 43l-79 16l-55 -6l-45 -16l-38 -26l-30 -32l-12 66h-166l10 -150v-380h184v345l11 13l16 13l23 11l27 4l30 -6l17 -15l7 -20
l2 -20v-310z" />
    <glyph glyph-name="Omacron" unicode="&#x14c;" horiz-adv-x="680" 
d="M180 840h320v110h-320v-110zM335 150l-55 15l-33 44l-17 70l-4 91v40l4 91l17 70l33 44l55 15h10l55 -15l33 -44l17 -70l4 -91v-40l-4 -91l-17 -70l-33 -44l-55 -15h-10zM340 -14l137 22l95 69l57 119l18 174v40l-18 174l-57 119l-95 69l-137 22l-137 -22l-95 -69
l-57 -119l-18 -174v-40l18 -174l57 -119l95 -69z" />
    <glyph glyph-name="omacron" unicode="&#x14d;" horiz-adv-x="560" 
d="M280 144l-32 7l-23 19l-13 32l-4 43v40l4 43l13 32l23 19l32 7l32 -7l23 -19l13 -32l4 -43v-40l-4 -43l-13 -32l-23 -19zM120 605h320v160h-320v-160zM280 -14l114 19l79 52l47 82l15 106v40l-15 106l-47 82l-79 52l-114 19l-114 -19l-79 -52l-47 -82l-15 -106v-40
l15 -106l47 -82l79 -52z" />
    <glyph glyph-name="Obreve" unicode="&#x14e;" horiz-adv-x="680" 
d="M340 824l98 10l60 28l29 40l8 48h-125l-4 -13l-12 -9l-22 -6l-32 -2l-32 2l-22 6l-12 9l-4 13h-125l8 -48l30 -40l59 -28zM335 150l-55 15l-33 44l-17 70l-4 91v40l4 91l17 70l33 44l55 15h10l55 -15l33 -44l17 -70l4 -91v-40l-4 -91l-17 -70l-33 -44l-55 -15h-10z
M340 -14l137 22l95 69l57 119l18 174v40l-18 174l-57 119l-95 69l-137 22l-137 -22l-95 -69l-57 -119l-18 -174v-40l18 -174l57 -119l95 -69z" />
    <glyph glyph-name="obreve" unicode="&#x14f;" horiz-adv-x="560" 
d="M280 144l-32 7l-23 19l-13 32l-4 43v40l4 43l13 32l23 19l32 7l32 -7l23 -19l13 -32l4 -43v-40l-4 -43l-13 -32l-23 -19zM280 576l93 15l61 43l33 65l8 81h-130l-6 -34l-14 -20l-21 -9l-24 -3l-24 3l-21 9l-14 20l-6 34h-130l8 -81l33 -65l61 -43zM280 -14l114 19l79 52
l47 82l15 106v40l-15 106l-47 82l-79 52l-114 19l-114 -19l-79 -52l-47 -82l-15 -106v-40l15 -106l47 -82l79 -52z" />
    <glyph glyph-name="Ohungarumlaut" unicode="&#x150;" horiz-adv-x="680" 
d="M402 950l-53 -110h162l64 110h-173zM212 950l-43 -110h162l54 110h-173zM335 150l-55 15l-33 44l-17 70l-4 91v40l4 91l17 70l33 44l55 15h10l55 -15l33 -44l17 -70l4 -91v-40l-4 -91l-17 -70l-33 -44l-55 -15h-10zM340 -14l137 22l95 69l57 119l18 174v40l-18 174
l-57 119l-95 69l-137 22l-137 -22l-95 -69l-57 -119l-18 -174v-40l18 -174l57 -119l95 -69z" />
    <glyph glyph-name="ohungarumlaut" unicode="&#x151;" horiz-adv-x="560" 
d="M185 780l-62 -190h142l82 190h-162zM385 780l-91 -190h142l111 190h-162zM280 144l-32 7l-23 19l-13 32l-4 43v40l4 43l13 32l23 19l32 7l32 -7l23 -19l13 -32l4 -43v-40l-4 -43l-13 -32l-23 -19zM280 -14l114 19l79 52l47 82l15 106v40l-15 106l-47 82l-79 52l-114 19
l-114 -19l-79 -52l-47 -82l-15 -106v-40l15 -106l47 -82l79 -52z" />
    <glyph glyph-name="OE" unicode="&#x152;" horiz-adv-x="940" 
d="M410 164h-30l-79 13l-47 39l-22 65l-6 89v40l6 89l22 65l47 39l79 13h30v-452zM33 410v-40l18 -172l59 -114l104 -64l156 -20h530v164h-300v152h250v164h-250v136h300v164h-530l-156 -20l-104 -64l-59 -114z" />
    <glyph glyph-name="oe" unicode="&#x153;" horiz-adv-x="887" 
d="M607 406l29 -4l21 -13l14 -23l7 -36h-142l7 36l14 23l21 13zM208 245v40l4 43l13 32l23 19l32 7l32 -7l23 -19l13 -32l4 -43v-40l-4 -43l-13 -32l-23 -19l-32 -7l-32 7l-23 19l-13 32zM862 200v80l-15 107l-46 83l-79 55l-111 19l-51 -4l-45 -13l-37 -20l-32 -26l-31 26
l-38 20l-45 13l-52 4l-114 -19l-79 -52l-47 -82l-15 -106v-40l15 -106l47 -82l79 -52l114 -19l52 4l45 13l38 20l31 26l32 -26l39 -20l46 -13l54 -4l103 13l77 37l48 57l17 73v4h-173l-5 -18l-15 -14l-23 -10l-28 -4l-31 3l-25 13l-17 23l-9 37h326z" />
    <glyph glyph-name="Racute" unicode="&#x154;" horiz-adv-x="635" 
d="M267 950l-53 -110h182l64 110h-193zM240 432v184h87l28 -3l26 -13l20 -27l7 -45v-8l-7 -45l-20 -27l-26 -13l-28 -3h-87zM240 268h53l102 -268h205l-120 294l48 30l38 44l25 62l9 84v20l-25 130l-66 74l-90 34l-100 8h-269v-780h190v268z" />
    <glyph glyph-name="racute" unicode="&#x155;" horiz-adv-x="400" 
d="M210 780l-91 -190h182l111 190h-202zM356 544l-43 -5l-37 -15l-32 -23l-27 -30l-11 59h-166l10 -150v-380h184v320l13 12l23 11l31 9l40 3h30v188l-4 1h-3h-4h-4z" />
    <glyph glyph-name="Rcommaaccent" unicode="&#x156;" horiz-adv-x="635" 
d="M395 -40h-160v-100h88l-14 -14l-19 -10l-25 -5l-30 -1v-60l71 7l50 22l29 41l10 60v60zM240 432v184h87l28 -3l26 -13l20 -27l7 -45v-8l-7 -45l-20 -27l-26 -13l-28 -3h-87zM240 268h53l102 -268h205l-120 294l48 30l38 44l25 62l9 84v20l-25 130l-66 74l-90 34l-100 8
h-269v-780h190v268z" />
    <glyph glyph-name="rcommaaccent" unicode="&#x157;" horiz-adv-x="400" 
d="M222 -40h-160v-100h88l-14 -14l-19 -10l-25 -5l-30 -1v-60l71 7l50 22l29 41l10 60v60zM356 544l-43 -5l-37 -15l-32 -23l-27 -30l-11 59h-166l10 -150v-380h184v320l13 12l23 11l31 9l40 3h30v188l-4 1h-3h-4h-4z" />
    <glyph glyph-name="Rcaron" unicode="&#x158;" horiz-adv-x="635" 
d="M240 432v184h87l28 -3l26 -13l20 -27l7 -45v-8l-7 -45l-20 -27l-26 -13l-28 -3h-87zM80 950l130 -110h190l130 110h-165l-60 -40l-60 40h-165zM240 268h53l102 -268h205l-120 294l48 30l38 44l25 62l9 84v20l-25 130l-66 74l-90 34l-100 8h-269v-780h190v268z" />
    <glyph glyph-name="rcaron" unicode="&#x159;" horiz-adv-x="400" 
d="M-15 780l135 -190h180l135 190h-160l-65 -74l-65 74h-160zM356 544l-43 -5l-37 -15l-32 -23l-27 -30l-11 59h-166l10 -150v-380h184v320l13 12l23 11l31 9l40 3h30v188l-4 1h-3h-4h-4z" />
    <glyph glyph-name="Sacute" unicode="&#x15a;" horiz-adv-x="640" 
d="M282 950l-53 -110h182l64 110h-193zM291 313l64 -13l38 -18l19 -25l5 -30v-4l-5 -27l-17 -24l-28 -16l-42 -6h-10l-42 7l-30 21l-17 37l-6 55h-190v-9l19 -126l55 -85l91 -49l125 -15l126 16l91 48l55 76l18 102v11l-17 97l-50 67l-81 42l-113 24l-63 13l-37 17l-17 24
l-4 32v4l5 28l15 23l26 15l36 5h10l44 -8l30 -24l16 -41l5 -57h190v21l-17 122l-52 85l-88 50l-128 16l-124 -17l-89 -49l-54 -75l-18 -99v-11l16 -97l48 -67l80 -42z" />
    <glyph glyph-name="sacute" unicode="&#x15b;" horiz-adv-x="530" 
d="M265 780l-91 -190h182l111 190h-202zM265 124l-24 3l-17 9l-10 15l-3 19h-183v-5l15 -74l45 -57l74 -36l103 -12l104 13l74 36l44 58l15 78v10l-17 71l-48 44l-72 24l-92 12l-28 4l-18 7l-9 11l-3 16l3 14l10 12l15 7l22 3l22 -3l15 -10l10 -17l3 -21h180v5l-14 78
l-41 58l-72 36l-103 12l-89 -10l-73 -31l-50 -56l-18 -83v-10l13 -67l42 -44l69 -26l99 -14l30 -5l19 -8l9 -12l2 -15l-3 -15l-8 -12l-17 -9z" />
    <glyph glyph-name="Scircumflex" unicode="&#x15c;" horiz-adv-x="640" 
d="M260 840l60 39l60 -39h165l-130 110h-190l-130 -110h165zM291 313l64 -13l38 -18l19 -25l5 -30v-4l-5 -27l-17 -24l-28 -16l-42 -6h-10l-42 7l-30 21l-17 37l-6 55h-190v-9l19 -126l55 -85l91 -49l125 -15l126 16l91 48l55 76l18 102v11l-17 97l-50 67l-81 42l-113 24
l-63 13l-37 17l-17 24l-4 32v4l5 28l15 23l26 15l36 5h10l44 -8l30 -24l16 -41l5 -57h190v21l-17 122l-52 85l-88 50l-128 16l-124 -17l-89 -49l-54 -75l-18 -99v-11l16 -97l48 -67l80 -42z" />
    <glyph glyph-name="scircumflex" unicode="&#x15d;" horiz-adv-x="530" 
d="M200 590l65 73l65 -73h160l-135 190h-180l-135 -190h160zM265 124l-24 3l-17 9l-10 15l-3 19h-183v-5l15 -74l45 -57l74 -36l103 -12l104 13l74 36l44 58l15 78v10l-17 71l-48 44l-72 24l-92 12l-28 4l-18 7l-9 11l-3 16l3 14l10 12l15 7l22 3l22 -3l15 -10l10 -17l3 -21
h180v5l-14 78l-41 58l-72 36l-103 12l-89 -10l-73 -31l-50 -56l-18 -83v-10l13 -67l42 -44l69 -26l99 -14l30 -5l19 -8l9 -12l2 -15l-3 -15l-8 -12l-17 -9z" />
    <glyph glyph-name="Scedilla" unicode="&#x15e;" horiz-adv-x="640" 
d="M211 -190l18 -9l25 -9l31 -6l37 -2l55 6l39 18l23 28l8 39l-8 37l-21 26l-31 17l-40 8l10 24l110 22l79 49l48 74l16 96v11l-17 97l-50 67l-81 42l-113 24l-63 13l-37 17l-17 24l-4 32v4l5 28l15 23l26 15l36 5h10l44 -8l30 -24l16 -41l5 -57h190v21l-17 122l-52 85
l-88 50l-128 16l-124 -17l-89 -49l-54 -75l-18 -99v-11l16 -97l48 -67l80 -42l112 -24l64 -13l38 -18l19 -25l5 -30v-4l-5 -27l-17 -24l-28 -16l-42 -6h-10l-42 7l-30 21l-17 37l-6 55h-190v-9l16 -117l47 -83l77 -51l107 -22l-23 -58l14 -29l4 1l9 1l13 2l14 1l21 -1l14 -5
l7 -7l2 -9l-2 -9l-7 -7l-14 -4l-21 -2l-20 1l-19 4l-17 5l-14 7z" />
    <glyph glyph-name="scedilla" unicode="&#x15f;" horiz-adv-x="530" 
d="M156 -190l18 -9l25 -9l31 -6l37 -2l55 6l39 18l23 28l8 39l-8 37l-21 26l-31 17l-40 8l10 24l88 18l62 38l38 56l12 72v10l-17 71l-48 44l-72 24l-92 12l-28 4l-18 7l-9 11l-3 16l3 14l10 12l15 7l22 3l22 -3l15 -10l10 -17l3 -21h180v5l-14 78l-41 58l-72 36l-103 12
l-89 -10l-73 -31l-50 -56l-18 -83v-10l13 -67l42 -44l69 -26l99 -14l30 -5l19 -8l9 -12l2 -15l-3 -15l-8 -12l-17 -9l-25 -3l-24 3l-17 9l-10 15l-3 19h-183v-5l12 -68l37 -53l61 -37l84 -19l-23 -58l14 -29l4 1l9 1l13 2l14 1l21 -1l14 -5l7 -7l2 -9l-2 -9l-7 -7l-14 -4
l-21 -2l-20 1l-19 4l-17 5l-14 7z" />
    <glyph glyph-name="Scaron" unicode="&#x160;" horiz-adv-x="640" 
d="M95 950l130 -110h190l130 110h-165l-60 -40l-60 40h-165zM291 313l64 -13l38 -18l19 -25l5 -30v-4l-5 -27l-17 -24l-28 -16l-42 -6h-10l-42 7l-30 21l-17 37l-6 55h-190v-9l19 -126l55 -85l91 -49l125 -15l126 16l91 48l55 76l18 102v11l-17 97l-50 67l-81 42l-113 24
l-63 13l-37 17l-17 24l-4 32v4l5 28l15 23l26 15l36 5h10l44 -8l30 -24l16 -41l5 -57h190v21l-17 122l-52 85l-88 50l-128 16l-124 -17l-89 -49l-54 -75l-18 -99v-11l16 -97l48 -67l80 -42z" />
    <glyph glyph-name="scaron" unicode="&#x161;" horiz-adv-x="530" 
d="M40 780l135 -190h180l135 190h-160l-65 -74l-65 74h-160zM265 124l-24 3l-17 9l-10 15l-3 19h-183v-5l15 -74l45 -57l74 -36l103 -12l104 13l74 36l44 58l15 78v10l-17 71l-48 44l-72 24l-92 12l-28 4l-18 7l-9 11l-3 16l3 14l10 12l15 7l22 3l22 -3l15 -10l10 -17l3 -21
h180v5l-14 78l-41 58l-72 36l-103 12l-89 -10l-73 -31l-50 -56l-18 -83v-10l13 -67l42 -44l69 -26l99 -14l30 -5l19 -8l9 -12l2 -15l-3 -15l-8 -12l-17 -9z" />
    <glyph glyph-name="Tcommaaccent" unicode="&#x162;" horiz-adv-x="570" 
d="M365 -40h-160v-100h88l-14 -14l-19 -10l-25 -5l-30 -1v-60l71 7l50 22l29 41l10 60v60zM380 616h175v164h-540v-164h175v-616h190v616z" />
    <glyph glyph-name="tcommaaccent" unicode="&#x163;" horiz-adv-x="440" 
d="M320 -40h-160v-100h88l-14 -14l-19 -10l-25 -5l-30 -1v-60l71 7l50 22l29 41l10 60v60zM279 530v150h-184v-150h-80v-160h80v-175l15 -98l43 -65l67 -35l87 -11l34 1l26 4l18 5l11 4v150l-7 -2l-12 -2l-14 -1l-13 -1l-29 3l-22 10l-15 22l-5 36v155h127v160h-127z" />
    <glyph glyph-name="Tcaron" unicode="&#x164;" horiz-adv-x="570" 
d="M60 950l130 -110h190l130 110h-165l-60 -40l-60 40h-165zM380 616h175v164h-540v-164h175v-616h190v616z" />
    <glyph glyph-name="tcaron" unicode="&#x165;" horiz-adv-x="440" 
d="M329 800v-210h80l25 210h-105zM279 530v150h-184v-150h-80v-160h80v-175l15 -98l43 -65l67 -35l87 -11l34 1l26 4l18 5l11 4v150l-7 -2l-12 -2l-14 -1l-13 -1l-29 3l-22 10l-15 22l-5 36v155h127v160h-127z" />
    <glyph glyph-name="Tbar" unicode="&#x166;" horiz-adv-x="570" 
d="M380 616h175v164h-540v-164h175v-143h-110v-150h110v-323h190v323h110v150h-110v143z" />
    <glyph glyph-name="tbar" unicode="&#x167;" horiz-adv-x="440" 
d="M279 530v150h-184v-150h-80v-160h80v-40h-60v-130h60v-5l15 -98l43 -65l67 -35l87 -11l34 1l26 4l18 5l11 4v150l-7 -2l-12 -2l-14 -1l-13 -1l-26 2l-22 8l-15 17l-7 29h86v130h-87v40h127v160h-127z" />
    <glyph glyph-name="Utilde" unicode="&#x168;" horiz-adv-x="670" 
d="M435 950l-3 -14l-7 -10l-10 -5l-13 -1l-30 7l-35 16l-41 16l-46 7l-41 -6l-35 -21l-25 -39l-9 -60h95l3 14l7 10l10 5l13 1l30 -7l36 -16l40 -16l46 -7l41 6l35 21l25 39l9 60h-95zM335 -14l141 18l89 52l46 82l14 110v532h-190v-527l-4 -42l-15 -33l-30 -21l-51 -7
l-51 7l-30 21l-15 33l-4 42v527h-190v-532l14 -110l46 -82l89 -52z" />
    <glyph glyph-name="utilde" unicode="&#x169;" horiz-adv-x="595" 
d="M389 780l-2 -16l-6 -11l-10 -6l-12 -2l-33 8l-38 18l-42 17l-47 8l-47 -10l-38 -31l-26 -55l-9 -80h120l2 16l6 11l10 6l12 2l33 -8l38 -17l42 -18l47 -8l47 10l38 31l26 55l9 80h-120zM44 530v-355l8 -70l28 -60l50 -43l79 -16l55 6l45 16l38 25l29 32l13 -65h166
l-10 150v380h-184v-345l-11 -13l-16 -13l-22 -11l-28 -4l-30 6l-17 15l-7 20l-2 20v325h-184z" />
    <glyph glyph-name="Umacron" unicode="&#x16a;" horiz-adv-x="670" 
d="M175 840h320v110h-320v-110zM335 -14l141 18l89 52l46 82l14 110v532h-190v-527l-4 -42l-15 -33l-30 -21l-51 -7l-51 7l-30 21l-15 33l-4 42v527h-190v-532l14 -110l46 -82l89 -52z" />
    <glyph glyph-name="umacron" unicode="&#x16b;" horiz-adv-x="595" 
d="M134 605h320v160h-320v-160zM44 530v-355l8 -70l28 -60l50 -43l79 -16l55 6l45 16l38 25l29 32l13 -65h166l-10 150v380h-184v-345l-11 -13l-16 -13l-22 -11l-28 -4l-30 6l-17 15l-7 20l-2 20v325h-184z" />
    <glyph glyph-name="Ubreve" unicode="&#x16c;" horiz-adv-x="670" 
d="M335 824l98 10l60 28l29 40l8 48h-125l-4 -13l-12 -9l-22 -6l-32 -2l-32 2l-22 6l-12 9l-4 13h-125l8 -48l30 -40l59 -28zM335 -14l141 18l89 52l46 82l14 110v532h-190v-527l-4 -42l-15 -33l-30 -21l-51 -7l-51 7l-30 21l-15 33l-4 42v527h-190v-532l14 -110l46 -82
l89 -52z" />
    <glyph glyph-name="ubreve" unicode="&#x16d;" horiz-adv-x="595" 
d="M294 576l93 15l61 43l33 65l8 81h-130l-6 -34l-14 -20l-21 -9l-24 -3l-24 3l-21 9l-14 20l-6 34h-130l8 -81l33 -65l61 -43zM44 530v-355l8 -70l28 -60l50 -43l79 -16l55 6l45 16l38 25l29 32l13 -65h166l-10 150v380h-184v-345l-11 -13l-16 -13l-22 -11l-28 -4l-30 6
l-17 15l-7 20l-2 20v325h-184z" />
    <glyph glyph-name="Uring" unicode="&#x16e;" horiz-adv-x="670" 
d="M286 855l4 19l10 16l16 10l19 4l19 -4l16 -10l10 -16l4 -19l-4 -19l-10 -16l-16 -10l-19 -4l-19 4l-16 10l-10 16zM226 855l9 -42l23 -35l35 -23l42 -9l42 9l35 23l23 35l9 42l-9 42l-23 35l-35 23l-42 9l-42 -9l-35 -23l-23 -35zM335 -14l141 18l89 52l46 82l14 110v532
h-190v-527l-4 -42l-15 -33l-30 -21l-51 -7l-51 7l-30 21l-15 33l-4 42v527h-190v-532l14 -110l46 -82l89 -52z" />
    <glyph glyph-name="uring" unicode="&#x16f;" horiz-adv-x="595" 
d="M245 685l4 19l10 16l16 10l19 4l19 -4l16 -10l10 -16l4 -19l-4 -19l-10 -16l-16 -10l-19 -4l-19 4l-16 10l-10 16zM185 685l9 -42l23 -35l35 -23l42 -9l42 9l35 23l23 35l9 42l-9 42l-23 35l-35 23l-42 9l-42 -9l-35 -23l-23 -35zM44 530v-355l8 -70l28 -60l50 -43
l79 -16l55 6l45 16l38 25l29 32l13 -65h166l-10 150v380h-184v-345l-11 -13l-16 -13l-22 -11l-28 -4l-30 6l-17 15l-7 20l-2 20v325h-184z" />
    <glyph glyph-name="Uhungarumlaut" unicode="&#x170;" horiz-adv-x="670" 
d="M207 950l-43 -110h162l54 110h-173zM397 950l-53 -110h162l64 110h-173zM335 -14l141 18l89 52l46 82l14 110v532h-190v-527l-4 -42l-15 -33l-30 -21l-51 -7l-51 7l-30 21l-15 33l-4 42v527h-190v-532l14 -110l46 -82l89 -52z" />
    <glyph glyph-name="uhungarumlaut" unicode="&#x171;" horiz-adv-x="595" 
d="M399 780l-91 -190h142l111 190h-162zM199 780l-62 -190h142l82 190h-162zM44 530v-355l8 -70l28 -60l50 -43l79 -16l55 6l45 16l38 25l29 32l13 -65h166l-10 150v380h-184v-345l-11 -13l-16 -13l-22 -11l-28 -4l-30 6l-17 15l-7 20l-2 20v325h-184z" />
    <glyph glyph-name="Uogonek" unicode="&#x172;" horiz-adv-x="670" 
d="M407 -58l3 17l10 17l17 14l25 10l77 33l50 54l28 72l8 89v532h-190v-527l-4 -42l-15 -33l-30 -21l-51 -7l-51 7l-30 21l-15 33l-4 42v527h-190v-532l12 -105l42 -81l79 -52l124 -23l-13 -20l-9 -23l-6 -24l-2 -25l10 -49l29 -35l45 -20l58 -7l33 2l30 6l26 8l19 10
l-41 110l-6 -3l-7 -4l-11 -2l-12 -1l-16 2l-12 7l-7 10z" />
    <glyph glyph-name="uogonek" unicode="&#x173;" horiz-adv-x="595" 
d="M500 -58l3 16l10 15l17 14l25 13l-10 150v380h-184v-345l-11 -13l-16 -13l-22 -11l-28 -4l-30 6l-17 15l-7 20l-2 20v325h-184v-355l8 -70l28 -60l50 -43l79 -16l55 6l45 16l38 25l29 32l16 -82l-11 -20l-9 -21l-5 -23l-2 -24l10 -49l29 -35l45 -20l58 -7l33 2l30 6l26 8
l19 10l-41 110l-6 -3l-7 -4l-11 -2l-12 -1l-16 2l-12 7l-7 10z" />
    <glyph glyph-name="Wcircumflex" unicode="&#x174;" horiz-adv-x="950" 
d="M415 840l60 39l60 -39h165l-130 110h-190l-130 -110h165zM572 0h242l124 780h-198l-60 -518l-88 518h-234l-88 -518l-60 518h-198l124 -780h241l98 562z" />
    <glyph glyph-name="wcircumflex" unicode="&#x175;" horiz-adv-x="780" 
d="M325 590l65 73l65 -73h160l-135 190h-180l-135 -190h160zM390 340l60 -340h230l85 530h-180l-25 -330l-60 330h-220l-60 -330l-25 330h-180l85 -530h230z" />
    <glyph glyph-name="Ycircumflex" unicode="&#x176;" horiz-adv-x="640" 
d="M260 840l60 39l60 -39h165l-130 110h-190l-130 -110h165zM415 240l221 540h-208l-108 -306l-108 306h-208l221 -540v-240h190v240z" />
    <glyph glyph-name="ycircumflex" unicode="&#x177;" horiz-adv-x="570" 
d="M220 590l65 73l65 -73h160l-135 190h-180l-135 -190h160zM285 220l-85 310h-200l185 -500l-86 -230h220l66 230l185 500h-200z" />
    <glyph glyph-name="Ydieresis" unicode="&#x178;" horiz-adv-x="640" 
d="M305 950h-150v-110h150v110zM485 950h-150v-110h150v110zM415 240l221 540h-208l-108 -306l-108 306h-208l221 -540v-240h190v240z" />
    <glyph glyph-name="Zacute" unicode="&#x179;" horiz-adv-x="610" 
d="M40 130v-130h530v164h-150l-148 -4l288 490v130h-510v-164h130l148 4zM267 950l-53 -110h182l64 110h-193z" />
    <glyph glyph-name="zacute" unicode="&#x17a;" horiz-adv-x="510" 
d="M20 126v-126h470v160h-120l-108 -4l218 248v126h-450v-160h100l108 4zM255 780l-91 -190h182l111 190h-202z" />
    <glyph glyph-name="Zdotaccent" unicode="&#x17b;" horiz-adv-x="610" 
d="M380 950h-150v-110h150v110zM40 130v-130h530v164h-150l-148 -4l288 490v130h-510v-164h130l148 4z" />
    <glyph glyph-name="zdotaccent" unicode="&#x17c;" horiz-adv-x="510" 
d="M20 126v-126h470v160h-120l-108 -4l218 248v126h-450v-160h100l108 4zM350 780h-190v-190h190v190z" />
    <glyph glyph-name="Zcaron" unicode="&#x17d;" horiz-adv-x="610" 
d="M40 130v-130h530v164h-150l-148 -4l288 490v130h-510v-164h130l148 4zM80 950l130 -110h190l130 110h-165l-60 -40l-60 40h-165z" />
    <glyph glyph-name="zcaron" unicode="&#x17e;" horiz-adv-x="510" 
d="M20 126v-126h470v160h-120l-108 -4l218 248v126h-450v-160h100l108 4zM30 780l135 -190h180l135 190h-160l-65 -74l-65 74h-160z" />
    <glyph glyph-name="Scommaaccent" unicode="&#x218;" horiz-adv-x="640" 
d="M400 -40h-160v-100h88l-14 -14l-19 -10l-25 -5l-30 -1v-60l71 7l50 22l29 41l10 60v60zM291 313l64 -13l38 -18l19 -25l5 -30v-4l-5 -27l-17 -24l-28 -16l-42 -6h-10l-42 7l-30 21l-17 37l-6 55h-190v-9l19 -126l55 -85l91 -49l125 -15l126 16l91 48l55 76l18 102v11
l-17 97l-50 67l-81 42l-113 24l-63 13l-37 17l-17 24l-4 32v4l5 28l15 23l26 15l36 5h10l44 -8l30 -24l16 -41l5 -57h190v21l-17 122l-52 85l-88 50l-128 16l-124 -17l-89 -49l-54 -75l-18 -99v-11l16 -97l48 -67l80 -42z" />
    <glyph glyph-name="scommaaccent" unicode="&#x219;" horiz-adv-x="530" 
d="M345 -40h-160v-100h88l-14 -14l-19 -10l-25 -5l-30 -1v-60l71 7l50 22l29 41l10 60v60zM265 124l-24 3l-17 9l-10 15l-3 19h-183v-5l15 -74l45 -57l74 -36l103 -12l104 13l74 36l44 58l15 78v10l-17 71l-48 44l-72 24l-92 12l-28 4l-18 7l-9 11l-3 16l3 14l10 12l15 7
l22 3l22 -3l15 -10l10 -17l3 -21h180v5l-14 78l-41 58l-72 36l-103 12l-89 -10l-73 -31l-50 -56l-18 -83v-10l13 -67l42 -44l69 -26l99 -14l30 -5l19 -8l9 -12l2 -15l-3 -15l-8 -12l-17 -9z" />
    <glyph glyph-name="Ymacron" unicode="&#x232;" horiz-adv-x="640" 
d="M160 840h320v110h-320v-110zM415 240l221 540h-208l-108 -306l-108 306h-208l221 -540v-240h190v240z" />
    <glyph glyph-name="ymacron" unicode="&#x233;" horiz-adv-x="570" 
d="M125 605h320v160h-320v-160zM285 220l-85 310h-200l185 -500l-86 -230h220l66 230l185 500h-200z" />
    <glyph glyph-name="dotlessj" unicode="&#x237;" horiz-adv-x="280" 
d="M48 15l-5 -36l-15 -22l-22 -10l-29 -3l-13 1l-14 1l-12 2l-7 2v-150l11 -4l18 -5l26 -4l34 -1l87 11l67 35l43 65l15 98v535h-184v-515z" />
    <glyph glyph-name="circumflex" unicode="&#x2c6;" horiz-adv-x="500" 
d="M185 590l65 73l65 -73h160l-135 190h-180l-135 -190h160z" />
    <glyph glyph-name="caron" unicode="&#x2c7;" horiz-adv-x="500" 
d="M25 780l135 -190h180l135 190h-160l-65 -74l-65 74h-160z" />
    <glyph glyph-name="breve" unicode="&#x2d8;" horiz-adv-x="499" 
d="M250 576l93 15l61 43l33 65l8 81h-130l-6 -34l-14 -20l-21 -9l-24 -3l-24 3l-21 9l-14 20l-6 34h-130l8 -81l33 -65l61 -43z" />
    <glyph glyph-name="dotaccent" unicode="&#x2d9;" horiz-adv-x="500" 
d="M345 780h-190v-190h190v190z" />
    <glyph glyph-name="ring" unicode="&#x2da;" horiz-adv-x="500" 
d="M201 685l4 19l10 16l16 10l19 4l19 -4l16 -10l10 -16l4 -19l-4 -19l-10 -16l-16 -10l-19 -4l-19 4l-16 10l-10 16zM141 685l9 -42l23 -35l35 -23l42 -9l42 9l35 23l23 35l9 42l-9 42l-23 35l-35 23l-42 9l-42 -9l-35 -23l-23 -35z" />
    <glyph glyph-name="ogonek" unicode="&#x2db;" horiz-adv-x="602" 
d="M240 -58l3 16l10 15l17 14l25 13l-30 74l-58 -25l-51 -38l-37 -52l-14 -64l10 -49l29 -35l45 -20l58 -7l33 2l30 6l26 8l19 10l-41 110l-6 -3l-7 -4l-11 -2l-12 -1l-16 2l-12 7l-7 10z" />
    <glyph glyph-name="tilde" unicode="&#x2dc;" horiz-adv-x="500" 
d="M345 780l-2 -16l-6 -11l-10 -6l-12 -2l-33 8l-38 18l-42 17l-47 8l-47 -10l-38 -31l-26 -55l-9 -80h120l2 16l6 11l10 6l12 2l33 -8l38 -17l42 -18l47 -8l47 10l38 31l26 55l9 80h-120z" />
    <glyph glyph-name="hungarumlaut" unicode="&#x2dd;" horiz-adv-x="500" 
d="M155 780l-62 -190h142l82 190h-162zM355 780l-91 -190h142l111 190h-162z" />
    <glyph glyph-name="Bdotaccent" unicode="&#x1e02;" horiz-adv-x="645" 
d="M380 950h-150v-110h150v110zM322 616l22 -2l22 -9l16 -19l6 -32v-12l-6 -32l-16 -19l-22 -9l-22 -2h-82v136h82zM335 316l24 -3l24 -10l18 -22l7 -37v-8l-7 -37l-18 -22l-24 -10l-24 -3h-95v152h95zM50 780v-780h280l95 7l87 32l63 69l25 122v20l-6 53l-18 43l-27 33
l-34 24l27 23l20 30l13 37l5 45v20l-23 117l-60 68l-82 30l-90 7h-275z" />
    <glyph glyph-name="bdotaccent" unicode="&#x1e03;" horiz-adv-x="585" 
d="M216 950h-150v-110h150v110zM233 345l11 13l16 13l23 11l27 4l32 -7l20 -19l12 -32l3 -43v-40l-3 -43l-12 -32l-20 -19l-32 -7l-27 4l-23 11l-16 13l-11 13v160zM233 800h-184v-650l-10 -150h166l11 61l26 -30l33 -24l41 -15l49 -6l92 19l60 52l33 82l10 106v40l-10 106
l-33 82l-60 52l-92 19l-42 -4l-35 -11l-30 -17l-25 -22v310z" />
    <glyph glyph-name="Ddotaccent" unicode="&#x1e0a;" horiz-adv-x="670" 
d="M395 950h-150v-110h150v110zM240 164v452h50l79 -13l47 -39l22 -65l6 -89v-40l-6 -89l-22 -65l-47 -39l-79 -13h-50zM637 370v40l-18 172l-59 114l-104 64l-156 20h-250v-780h250l156 20l104 64l59 114z" />
    <glyph glyph-name="ddotaccent" unicode="&#x1e0b;" horiz-adv-x="595" 
d="M528 950h-150v-110h150v110zM361 185l-11 -13l-16 -13l-22 -11l-28 -4l-32 7l-20 19l-12 32l-3 43v40l3 43l12 32l20 19l32 7l28 -4l22 -11l16 -13l11 -13v-160zM229 544l-92 -19l-60 -52l-33 -82l-10 -106v-40l10 -106l33 -82l60 -52l92 -19l49 6l41 15l32 24l26 30
l12 -61h166l-10 150v650h-184v-310l-25 22l-30 17l-36 11z" />
    <glyph glyph-name="Fdotaccent" unicode="&#x1e1e;" horiz-adv-x="560" 
d="M370 950h-150v-110h150v110zM50 780v-780h190v316h250v164h-250v136h300v164h-490z" />
    <glyph glyph-name="fdotaccent" unicode="&#x1e1f;" horiz-adv-x="420" 
d="M320 950h-150v-110h150v110zM279 585l5 36l15 22l22 10l29 3l13 -1l14 -1l12 -2l7 -2v150l-11 4l-18 5l-26 4l-34 1l-87 -11l-67 -35l-43 -65l-15 -98v-75h-80v-160h80v-370h184v370h107v160h-107v55z" />
    <glyph glyph-name="Mdotaccent" unicode="&#x1e40;" horiz-adv-x="890" 
d="M520 950h-150v-110h150v110zM655 450l-5 -150v-300h190v780h-283l-112 -450l-112 450h-283v-780h190v300l-5 150l112 -450h196z" />
    <glyph glyph-name="mdotaccent" unicode="&#x1e41;" horiz-adv-x="880" 
d="M539 780h-190v-190h190v190zM836 0v360l-9 71l-28 59l-49 39l-74 15l-53 -6l-45 -16l-36 -26l-28 -33l-22 33l-30 26l-39 16l-48 6l-51 -5l-43 -16l-36 -23l-28 -31l-11 61h-166l10 -150v-380h184v350l10 12l14 12l18 8l24 4l25 -5l16 -12l8 -18l2 -21v-330h184v350
l10 12l14 12l18 8l24 4l25 -5l16 -12l8 -18l2 -21v-330h184z" />
    <glyph glyph-name="Pdotaccent" unicode="&#x1e56;" horiz-adv-x="620" 
d="M370 950h-150v-110h150v110zM240 432v184h87l28 -3l26 -13l20 -27l7 -45v-8l-7 -45l-20 -27l-26 -13l-28 -3h-87zM240 268h79l100 8l90 34l66 74l25 130v20l-25 130l-66 74l-90 34l-100 8h-269v-780h190v268z" />
    <glyph glyph-name="pdotaccent" unicode="&#x1e57;" horiz-adv-x="585" 
d="M310 386l32 -7l20 -19l12 -32l3 -43v-40l-3 -43l-12 -32l-20 -19l-32 -7l-27 4l-23 11l-16 13l-11 13v160l11 13l16 13l23 11zM400 780h-190v-190h190v190zM365 -14l92 19l60 52l33 82l10 106v40l-10 106l-33 82l-60 52l-92 19l-49 -6l-41 -15l-33 -24l-26 -31l-11 62
h-166l10 -150v-580h184v240l25 -22l30 -17l35 -11z" />
    <glyph glyph-name="Tdotaccent" unicode="&#x1e6a;" horiz-adv-x="570" 
d="M360 950h-150v-110h150v110zM380 616h175v164h-540v-164h175v-616h190v616z" />
    <glyph glyph-name="tdotaccent" unicode="&#x1e6b;" horiz-adv-x="440" 
d="M262 830h-150v-110h150v110zM279 530v150h-184v-150h-80v-160h80v-175l15 -98l43 -65l67 -35l87 -11l34 1l26 4l18 5l11 4v150l-7 -2l-12 -2l-14 -1l-13 -1l-29 3l-22 10l-15 22l-5 36v155h127v160h-127z" />
    <glyph glyph-name="Wgrave" unicode="&#x1e80;" horiz-adv-x="950" 
d="M320 950l64 -110h182l-53 110h-193zM572 0h242l124 780h-198l-60 -518l-88 518h-234l-88 -518l-60 518h-198l124 -780h241l98 562z" />
    <glyph glyph-name="wgrave" unicode="&#x1e81;" horiz-adv-x="780" 
d="M188 780l111 -190h182l-91 190h-202zM390 340l60 -340h230l85 530h-180l-25 -330l-60 330h-220l-60 -330l-25 330h-180l85 -530h230z" />
    <glyph glyph-name="Wacute" unicode="&#x1e82;" horiz-adv-x="950" 
d="M437 950l-53 -110h182l64 110h-193zM572 0h242l124 780h-198l-60 -518l-88 518h-234l-88 -518l-60 518h-198l124 -780h241l98 562z" />
    <glyph glyph-name="wacute" unicode="&#x1e83;" horiz-adv-x="780" 
d="M390 780l-91 -190h182l111 190h-202zM390 340l60 -340h230l85 530h-180l-25 -330l-60 330h-220l-60 -330l-25 330h-180l85 -530h230z" />
    <glyph glyph-name="Wdieresis" unicode="&#x1e84;" horiz-adv-x="950" 
d="M460 950h-150v-110h150v110zM640 950h-150v-110h150v110zM572 0h242l124 780h-198l-60 -518l-88 518h-234l-88 -518l-60 518h-198l124 -780h241l98 562z" />
    <glyph glyph-name="wdieresis" unicode="&#x1e85;" horiz-adv-x="780" 
d="M370 780h-190v-190h190v190zM600 780h-190v-190h190v190zM390 340l60 -340h230l85 530h-180l-25 -330l-60 330h-220l-60 -330l-25 330h-180l85 -530h230z" />
    <glyph glyph-name="Eszett" unicode="&#x1e9e;" horiz-adv-x="820" 
d="M303 464v-130l206 -24l47 -10l30 -18l16 -24l5 -31v-4l-4 -32l-12 -22l-19 -14l-24 -5h-10l-25 6l-22 19l-15 37l-6 58h-190v-9l16 -132l48 -85l82 -45l114 -13l113 16l81 48l49 76l17 102v11l-17 97l-50 67l-81 42l-113 24l-12 1l101 157v130l-50 15l-57 12l-61 7l-65 3
l-160 -18l-109 -51l-61 -83l-20 -110v-532h190v527l10 42l29 33l50 21l71 7h15z" />
    <glyph glyph-name="Ygrave" unicode="&#x1ef2;" horiz-adv-x="640" 
d="M165 950l64 -110h182l-53 110h-193zM415 240l221 540h-208l-108 -306l-108 306h-208l221 -540v-240h190v240z" />
    <glyph glyph-name="ygrave" unicode="&#x1ef3;" horiz-adv-x="570" 
d="M83 780l111 -190h182l-91 190h-202zM285 220l-85 310h-200l185 -500l-86 -230h220l66 230l185 500h-200z" />
    <glyph glyph-name="enspace" unicode="&#x2002;" horiz-adv-x="500" 
 />
    <glyph glyph-name="emspace" unicode="&#x2003;" horiz-adv-x="1000" 
 />
    <glyph glyph-name="threeperemspace" unicode="&#x2004;" horiz-adv-x="333" 
 />
    <glyph glyph-name="fourperemspace" unicode="&#x2005;" horiz-adv-x="250" 
 />
    <glyph glyph-name="sixperemspace" unicode="&#x2006;" horiz-adv-x="167" 
 />
    <glyph glyph-name="figurespace" unicode="&#x2007;" horiz-adv-x="600" 
 />
    <glyph glyph-name="punctuationspace" unicode="&#x2008;" horiz-adv-x="180" 
 />
    <glyph glyph-name="thinspace" unicode="&#x2009;" horiz-adv-x="150" 
 />
    <glyph glyph-name="hairspace" unicode="&#x200a;" horiz-adv-x="50" 
 />
    <glyph glyph-name="zerowidthspace" unicode="&#x200b;" horiz-adv-x="0" 
 />
    <glyph glyph-name="figuredash" unicode="&#x2012;" horiz-adv-x="600" 
d="M40 270h520v160h-520v-160z" />
    <glyph glyph-name="endash" unicode="&#x2013;" horiz-adv-x="500" 
d="M40 270h420v160h-420v-160z" />
    <glyph glyph-name="emdash" unicode="&#x2014;" horiz-adv-x="1000" 
d="M40 270h920v160h-920v-160z" />
    <glyph glyph-name="uni2015" unicode="&#x2015;" horiz-adv-x="1200" 
d="M40 270h1120v160h-1120v-160z" />
    <glyph glyph-name="doublebar" unicode="&#x2016;" horiz-adv-x="500" 
d="M270 -120h180v960h-180v-960zM50 -120h180v960h-180v-960z" />
    <glyph glyph-name="quoteleft" unicode="&#x2018;" horiz-adv-x="280" 
d="M45 470h190v190h-95l13 26l20 19l28 11l34 4v90l-82 -12l-60 -36l-36 -60l-12 -82v-150z" />
    <glyph glyph-name="quoteright" unicode="&#x2019;" horiz-adv-x="280" 
d="M235 780h-190v-190h94l-13 -26l-20 -19l-27 -11l-34 -4v-90l82 12l60 36l36 60l12 82v150z" />
    <glyph glyph-name="quotesinglbase" unicode="&#x201a;" horiz-adv-x="280" 
d="M235 190h-190v-190h94l-13 -26l-20 -19l-27 -11l-34 -4v-90l82 12l60 36l36 60l12 82v150z" />
    <glyph glyph-name="reversequoteleft" unicode="&#x201b;" horiz-adv-x="280" 
d="M45 780v-150l12 -82l36 -60l60 -36l82 -12v90l-34 4l-28 11l-20 19l-13 26h95v190h-190z" />
    <glyph glyph-name="quotedblleft" unicode="&#x201c;" horiz-adv-x="520" 
d="M285 470h190v190h-95l13 26l20 19l28 11l34 4v90l-82 -12l-60 -36l-36 -60l-12 -82v-150zM45 470h190v190h-95l13 26l20 19l28 11l34 4v90l-82 -12l-60 -36l-36 -60l-12 -82v-150z" />
    <glyph glyph-name="quotedblright" unicode="&#x201d;" horiz-adv-x="520" 
d="M235 780h-190v-190h94l-13 -26l-20 -19l-27 -11l-34 -4v-90l82 12l60 36l36 60l12 82v150zM475 780h-190v-190h94l-13 -26l-20 -19l-27 -11l-34 -4v-90l82 12l60 36l36 60l12 82v150z" />
    <glyph glyph-name="quotedblbase" unicode="&#x201e;" horiz-adv-x="520" 
d="M235 190h-190v-190h94l-13 -26l-20 -19l-27 -11l-34 -4v-90l82 12l60 36l36 60l12 82v150zM475 190h-190v-190h94l-13 -26l-20 -19l-27 -11l-34 -4v-90l82 12l60 36l36 60l12 82v150z" />
    <glyph glyph-name="reversequotedblleft" unicode="&#x201f;" horiz-adv-x="520" 
d="M45 780v-150l12 -82l36 -60l60 -36l82 -12v90l-34 4l-28 11l-20 19l-13 26h95v190h-190zM285 780v-150l12 -82l36 -60l60 -36l82 -12v90l-34 4l-28 11l-20 19l-13 26h95v190h-190z" />
    <glyph glyph-name="dagger" unicode="&#x2020;" horiz-adv-x="420" 
d="M25 565l130 5v90l-130 5v-100zM160 800l5 -130h90l5 130h-100zM395 665l-130 -5v-90l130 -5v100zM160 430l5 -130h90l5 130l-5 130h-90z" />
    <glyph glyph-name="daggerdbl" unicode="&#x2021;" horiz-adv-x="420" 
d="M260 495l-5 65h-90l-5 -65h100zM160 495l5 -65h90l5 65h-100zM25 325l130 5v90l-130 5v-100zM160 800l5 -130h90l5 130h-100zM25 565l130 5v90l-130 5v-100zM395 665l-130 -5v-90l130 -5v100zM395 425l-130 -5v-90l130 -5v100zM160 190l5 -130h90l5 130l-5 130h-90z" />
    <glyph glyph-name="bullet" unicode="&#x2022;" horiz-adv-x="460" 
d="M400 520h-340v-340h340v340z" />
    <glyph glyph-name="ellipsis" unicode="&#x2026;" horiz-adv-x="1000" 
d="M595 190h-190v-190h190v190zM915 190h-190v-190h190v190zM275 190h-190v-190h190v190z" />
    <glyph glyph-name="perthousand" unicode="&#x2030;" horiz-adv-x="1420" 
d="M1139 192l4 23l11 18l18 13l25 4h6l25 -4l18 -13l11 -18l4 -23v-12l-4 -23l-11 -18l-18 -13l-25 -4h-6l-25 4l-18 13l-11 18l-4 23v12zM719 192l4 23l11 18l18 13l25 4h6l25 -4l18 -13l11 -18l4 -23v-12l-4 -23l-11 -18l-18 -13l-25 -4h-6l-25 4l-18 13l-11 18l-4 23v12z
M281 588l-4 -23l-11 -18l-18 -13l-25 -4h-6l-25 4l-18 13l-11 18l-4 23v12l4 23l11 18l18 13l25 4h6l25 -4l18 -13l11 -18l4 -23v-12zM584 180l14 -83l41 -61l62 -37l79 -13l79 13l62 37l41 61l14 83v12l-14 83l-41 61l-62 37l-79 13l-79 -13l-62 -37l-41 -61l-14 -83v-12z
M1004 180l14 -83l41 -61l62 -37l79 -13l79 13l62 37l41 61l14 83v12l-14 83l-41 61l-62 37l-79 13l-79 -13l-62 -37l-41 -61l-14 -83v-12zM416 608l9 -1h10l10 -1h10h16l14 1l14 2l13 2l-255 -611h160l292 700v84l-35 -10l-52 -10l-63 -9l-69 -3l-59 1l-47 5l-40 8l-41 14
l-19 6l-21 4l-21 3l-22 1l-79 -13l-62 -37l-41 -61l-14 -83v-12l14 -83l41 -61l62 -37l79 -13l79 13l62 37l41 61l14 83v20z" />
    <glyph glyph-name="tripleprime" unicode="&#x2034;" horiz-adv-x="680" 
d="M260 780l8 -340h144l8 340h-160zM460 780l8 -340h144l28 340h-180zM40 780l28 -340h144l8 340h-180z" />
    <glyph glyph-name="guilsinglleft" unicode="&#x2039;" horiz-adv-x="320" 
d="M270 575l-220 -145v-180l220 -145v160l-97 75l97 75v160z" />
    <glyph glyph-name="guilsinglright" unicode="&#x203a;" horiz-adv-x="320" 
d="M50 415l97 -75l-97 -75v-160l220 145v180l-220 145v-160z" />
    <glyph glyph-name="interrobang" unicode="&#x203d;" horiz-adv-x="510" 
d="M319 575l-3 -21l-7 -22l-10 -23l-12 -25l3 141l13 -9l9 -11l5 -14zM345 190h-190v-190h190v190zM315 240l35 105l61 66l58 69l26 115l-10 70l-37 64l-72 47l-116 18l-112 -16l-74 -47l-41 -80l-13 -112v-19h166l2 40l6 31l11 21l15 13l8 -385h87z" />
    <glyph glyph-name="fraction" unicode="&#x2044;" horiz-adv-x="200" 
d="M-113 0l576 780h-150l-576 -780h150z" />
    <glyph glyph-name="uni2070" unicode="&#x2070;" 
d="M160 502l-3 -8l-7 -3l-7 3l-3 8v165l3 8l7 3l7 -3l3 -8v-165zM288 498v173l-10 47l-27 37l-44 24l-57 9l-57 -9l-44 -24l-27 -37l-10 -47v-173l10 -47l27 -37l44 -24l57 -9l57 9l44 24l27 37z" />
    <glyph glyph-name="uni2074" unicode="&#x2074;" 
d="M120 565l24 40l-2 -40h-22zM274 390v63h16v114h-16v213h-125l-139 -234v-93h132v-63h132z" />
    <glyph glyph-name="uni2075" unicode="&#x2075;" 
d="M12 515v-9l9 -54l26 -39l43 -24l60 -8l64 10l43 27l23 41l7 50v13l-6 52l-20 41l-33 26l-48 9l-16 -1l-14 -2l-12 -4l-8 -4l2 27h150v114h-259l-8 -208l114 -40l4 2l3 1l3 1h3h1l7 -1l4 -2l3 -5l1 -5v-27l-2 -5l-5 -2l-5 2l-2 5v19h-132z" />
    <glyph glyph-name="uni2076" unicode="&#x2076;" 
d="M156 496l-2 -5l-5 -2l-5 2l-2 5v25l2 5l5 2l5 -2l2 -5v-25zM265 788l-57 -2l-52 -9l-48 -20l-41 -35l-26 -40l-18 -46l-9 -48l-3 -48v-8l7 -59l24 -48l43 -32l63 -12l64 10l43 27l24 40l8 50v10l-6 48l-18 38l-29 24l-40 8l-11 -1l-14 -2l-13 -4l-10 -6l4 9l5 7l5 7l7 6
l17 9l23 7l27 3l31 1v116z" />
    <glyph glyph-name="uni2077" unicode="&#x2077;" 
d="M7 640h114v26l46 1l-139 -277h144l120 308v82h-285v-140z" />
    <glyph glyph-name="uni2078" unicode="&#x2078;" 
d="M150 381l71 13l41 31l20 37l5 32v11l-3 29l-10 24l-14 19l-17 13l18 13l13 19l8 23l3 28v11l-5 30l-20 34l-41 28l-69 12l-69 -12l-41 -28l-20 -34l-5 -30v-11l3 -28l8 -23l13 -19l18 -13l-17 -13l-14 -19l-10 -24l-3 -29v-11l5 -32l20 -37l41 -31zM157 645l-2 -5l-5 -2
l-5 2l-2 5v29l2 5l5 2l5 -2l2 -5v-29zM157 496l-2 -5l-5 -2l-5 2l-2 5v29l2 5l5 2l5 -2l2 -5v-29z" />
    <glyph glyph-name="uni2079" unicode="&#x2079;" 
d="M144 673l2 5l5 2l5 -2l2 -5v-25l-2 -5l-5 -2l-5 2l-2 5v25zM33 381l57 2l54 9l47 20l42 35l26 40l18 46l9 48l3 48v8l-7 59l-24 48l-43 32l-63 12l-64 -10l-43 -27l-24 -40l-8 -50v-10l6 -48l18 -38l29 -24l40 -8l11 1l14 2l13 4l10 6l-4 -9l-5 -7l-5 -7l-7 -6l-17 -9
l-24 -7l-27 -3l-32 -1v-116z" />
    <glyph glyph-name="uni207A" unicode="&#x207a;" 
d="M93 718v-76h-76v-114h76v-76h114v76h76v114h-76v76h-114z" />
    <glyph glyph-name="uni207B" unicode="&#x207b;" 
d="M17 528h266v114h-266v-114z" />
    <glyph glyph-name="uni207C" unicode="&#x207c;" 
d="M17 452h266v114h-266v-114zM17 604h266v114h-266v-114z" />
    <glyph glyph-name="uni207D" unicode="&#x207d;" horiz-adv-x="200" 
d="M5 580l6 -63l15 -54l20 -43l23 -30h130l-21 31l-21 43l-15 53l-6 63v10l6 63l15 53l21 43l21 31h-130l-23 -30l-20 -42l-15 -55l-6 -63v-10z" />
    <glyph glyph-name="uni207E" unicode="&#x207e;" horiz-adv-x="200" 
d="M195 590l-6 63l-15 55l-20 42l-23 30h-130l21 -31l21 -43l15 -53l6 -63v-10l-6 -63l-15 -53l-21 -43l-21 -31h130l23 30l20 43l15 54l6 63v10z" />
    <glyph glyph-name="uni2080" unicode="&#x2080;" 
d="M160 112l-3 -8l-7 -3l-7 3l-3 8v165l3 8l7 3l7 -3l3 -8v-165zM288 108v173l-10 47l-27 37l-44 24l-57 9l-57 -9l-44 -24l-27 -37l-10 -47v-173l10 -47l27 -37l44 -24l57 -9l57 9l44 24l27 37z" />
    <glyph glyph-name="uni2081" unicode="&#x2081;" 
d="M287 0v113h-66v275h-103l-120 -82l64 -93l27 18v-118h-67v-113h265z" />
    <glyph glyph-name="uni2082" unicode="&#x2082;" 
d="M285 113h-92l50 57l19 24l13 23l8 25l2 30v12l-5 35l-20 37l-41 30l-69 12l-59 -8l-42 -23l-26 -41l-8 -58v-8h125v24l2 5l5 2l5 -2l2 -5v-28l-1 -7l-2 -6l-3 -5l-4 -5l-129 -150v-83h270v113z" />
    <glyph glyph-name="uni2083" unicode="&#x2083;" 
d="M144 125h-132v-9l9 -54l26 -39l43 -24l60 -8l71 13l41 31l20 37l5 32v11l-3 29l-10 24l-14 19l-17 13l18 13l13 19l8 23l3 28v11l-5 30l-20 34l-41 28l-69 12l-59 -8l-42 -23l-26 -41l-8 -58v-8h125v24l2 5l5 2l5 -2l2 -5v-26l-1 -5l-2 -3l-4 -1l-5 -1h-42v-106h45l5 -1
l5 -2l2 -4l1 -7v-22l-2 -5l-5 -2l-5 2l-2 5v19z" />
    <glyph glyph-name="uni2084" unicode="&#x2084;" 
d="M120 175l24 40l-2 -40h-22zM274 0v63h16v114h-16v213h-125l-139 -234v-93h132v-63h132z" />
    <glyph glyph-name="uni2085" unicode="&#x2085;" 
d="M12 125v-9l9 -54l26 -39l43 -24l60 -8l64 10l43 27l23 41l7 50v13l-6 52l-20 41l-33 26l-48 9l-16 -1l-14 -2l-12 -4l-8 -4l2 27h150v114h-259l-8 -208l114 -40l4 2l3 1l3 1h3h1l7 -1l4 -2l3 -5l1 -5v-27l-2 -5l-5 -2l-5 2l-2 5v19h-132z" />
    <glyph glyph-name="uni2086" unicode="&#x2086;" 
d="M156 106l-2 -5l-5 -2l-5 2l-2 5v25l2 5l5 2l5 -2l2 -5v-25zM265 398l-57 -2l-52 -9l-48 -20l-41 -35l-26 -40l-18 -46l-9 -48l-3 -48v-8l7 -59l24 -48l43 -32l63 -12l64 10l43 27l24 40l8 50v10l-6 48l-18 38l-29 24l-40 8l-11 -1l-14 -2l-13 -4l-10 -6l4 9l5 7l5 7l7 6
l17 9l23 7l27 3l31 1v116z" />
    <glyph glyph-name="uni2087" unicode="&#x2087;" 
d="M7 250h114v26l46 1l-139 -277h144l120 308v82h-285v-140z" />
    <glyph glyph-name="uni2088" unicode="&#x2088;" 
d="M150 -9l71 13l41 31l20 37l5 32v11l-3 29l-10 24l-14 19l-17 13l18 13l13 19l8 23l3 28v11l-5 30l-20 34l-41 28l-69 12l-69 -12l-41 -28l-20 -34l-5 -30v-11l3 -28l8 -23l13 -19l18 -13l-17 -13l-14 -19l-10 -24l-3 -29v-11l5 -32l20 -37l41 -31zM157 255l-2 -5l-5 -2
l-5 2l-2 5v29l2 5l5 2l5 -2l2 -5v-29zM157 106l-2 -5l-5 -2l-5 2l-2 5v29l2 5l5 2l5 -2l2 -5v-29z" />
    <glyph glyph-name="uni2089" unicode="&#x2089;" 
d="M144 283l2 5l5 2l5 -2l2 -5v-25l-2 -5l-5 -2l-5 2l-2 5v25zM33 -9l57 2l54 9l47 20l42 35l26 40l18 46l9 48l3 48v8l-7 59l-24 48l-43 32l-63 12l-64 -10l-43 -27l-24 -40l-8 -50v-10l6 -48l18 -38l29 -24l40 -8l11 1l14 2l13 4l10 6l-4 -9l-5 -7l-5 -7l-7 -6l-17 -9
l-24 -7l-27 -3l-32 -1v-116z" />
    <glyph glyph-name="uni208A" unicode="&#x208a;" 
d="M93 328v-76h-76v-114h76v-76h114v76h76v114h-76v76h-114z" />
    <glyph glyph-name="uni208B" unicode="&#x208b;" 
d="M17 138h266v114h-266v-114z" />
    <glyph glyph-name="uni208C" unicode="&#x208c;" 
d="M17 62h266v114h-266v-114zM17 214h266v114h-266v-114z" />
    <glyph glyph-name="uni208D" unicode="&#x208d;" horiz-adv-x="200" 
d="M5 190l6 -63l15 -54l20 -43l23 -30h130l-21 31l-21 43l-15 53l-6 63v10l6 63l15 53l21 43l21 31h-130l-23 -30l-20 -42l-15 -55l-6 -63v-10z" />
    <glyph glyph-name="uni208E" unicode="&#x208e;" horiz-adv-x="200" 
d="M195 200l-6 63l-15 55l-20 42l-23 30h-130l21 -31l21 -43l15 -53l6 -63v-10l-6 -63l-15 -53l-21 -43l-21 -31h130l23 30l20 43l15 54l6 63v10z" />
    <glyph glyph-name="Euro" unicode="&#x20ac;" horiz-adv-x="600" 
d="M95 300l23 -142l50 -97l75 -57l102 -18l99 14l68 46l40 79l13 116v9h-160l-3 -45l-10 -31l-15 -18l-22 -6h-10l-25 10l-17 30l-11 47l-5 63h114l80 160h-195l5 71l10 53l17 34l27 12h10l23 -8l16 -23l8 -41l3 -58h160v39l-13 116l-40 79l-68 46l-99 14l-104 -19l-77 -60
l-49 -104l-21 -151h-64v-160h65z" />
    <glyph glyph-name="ruble" unicode="&#x20bd;" horiz-adv-x="600" 
d="M270 432v184h27l28 -3l26 -13l20 -27l7 -45v-8l-7 -45l-20 -27l-26 -13l-28 -3h-27zM270 268h19l100 8l90 34l66 74l25 130v20l-25 130l-66 74l-90 34l-100 8h-209v-348h-65v-164h65v-30h-65v-164h65v-74h190v74h180v164h-180v30z" />
    <glyph glyph-name="numero" unicode="&#x2116;" horiz-adv-x="1140" 
d="M915 513l-17 3l-12 11l-7 17l-2 25v33l2 25l7 17l12 11l17 3l17 -3l12 -11l7 -17l2 -25v-33l-2 -25l-7 -17l-12 -11zM728 172h374v137h-374v-137zM915 376l87 14l62 39l36 60l12 80v33l-12 80l-36 60l-62 39l-87 14l-88 -14l-61 -39l-36 -60l-12 -80v-33l12 -80l36 -60
l61 -39zM640 780h-180v-280l5 -150l-215 430h-200v-780h180v280l-5 150l215 -430h200v780z" />
    <glyph glyph-name="published" unicode="&#x2117;" horiz-adv-x="920" 
d="M429 415v91h59l16 -2l14 -7l9 -13l4 -21v-5l-4 -21l-9 -13l-14 -7l-16 -2h-59zM429 296h98l60 7l55 24l39 48l15 80v11l-15 80l-39 48l-55 24l-60 7h-262v-470h164v141zM116 390l27 134l74 109l109 74l134 27l134 -27l109 -74l74 -109l27 -134l-27 -134l-74 -109
l-109 -74l-134 -27l-134 27l-109 74l-74 109zM56 390l32 -157l86 -129l129 -86l157 -32l157 32l129 86l86 129l32 157l-32 157l-86 129l-129 86l-157 32l-157 -32l-129 -86l-86 -129z" />
    <glyph glyph-name="servicemark" unicode="&#x2120;" horiz-adv-x="570" 
d="M461 677l-2 -57v-90h71v270h-106l-37 -146l-37 146h-106v-270h71v90l-2 57l37 -147h74zM104 635l21 -4l13 -6l7 -8l2 -10v-2l-2 -8l-4 -8l-9 -6l-13 -2h-4l-15 3l-11 7l-6 14l-2 19h-70v-2l7 -46l20 -32l32 -18l45 -6l46 6l32 17l20 28l7 36v5l-6 36l-18 24l-29 15l-40 8
l-19 4l-13 6l-8 8l-2 11v2l2 8l5 7l8 5l11 2h4l16 -3l10 -9l5 -15l2 -20h70v7l-6 45l-19 32l-32 19l-46 6l-45 -6l-31 -18l-20 -27l-6 -36v-4l6 -36l17 -25l28 -15z" />
    <glyph glyph-name="trademark" unicode="&#x2122;" horiz-adv-x="570" 
d="M461 677l-2 -57v-90h71v270h-106l-37 -146l-37 146h-106v-270h71v90l-2 57l37 -147h74zM152 739h66v61h-202v-61h65v-209h71v209z" />
    <glyph glyph-name="uni2153" unicode="&#x2153;" horiz-adv-x="800" 
d="M644 125h-132v-9l9 -54l26 -39l43 -24l60 -8l71 13l41 31l20 37l5 32v11l-3 29l-10 24l-14 19l-17 13l18 13l13 19l8 23l3 28v11l-5 30l-20 34l-41 28l-69 12l-59 -8l-42 -23l-26 -41l-8 -58v-8h125v24l2 5l5 2l5 -2l2 -5v-26l-1 -5l-2 -3l-4 -1l-5 -1h-42v-106h45l5 -1
l5 -2l2 -4l1 -7v-22l-2 -5l-5 -2l-5 2l-2 5v19zM187 0l576 780h-150l-576 -780h150zM287 390v113h-66v275h-103l-120 -82l64 -93l27 18v-118h-67v-113h265z" />
    <glyph glyph-name="uni2154" unicode="&#x2154;" horiz-adv-x="800" 
d="M644 125h-132v-9l9 -54l26 -39l43 -24l60 -8l71 13l41 31l20 37l5 32v11l-3 29l-10 24l-14 19l-17 13l18 13l13 19l8 23l3 28v11l-5 30l-20 34l-41 28l-69 12l-59 -8l-42 -23l-26 -41l-8 -58v-8h125v24l2 5l5 2l5 -2l2 -5v-26l-1 -5l-2 -3l-4 -1l-5 -1h-42v-106h45l5 -1
l5 -2l2 -4l1 -7v-22l-2 -5l-5 -2l-5 2l-2 5v19zM187 0l576 780h-150l-576 -780h150zM285 503h-92l50 57l19 24l13 23l8 25l2 30v12l-5 35l-20 37l-41 30l-69 12l-59 -8l-42 -23l-26 -41l-8 -58v-8h125v24l2 5l5 2l5 -2l2 -5v-28l-1 -7l-2 -6l-3 -5l-4 -5l-129 -150v-83h270
v113z" />
    <glyph glyph-name="uni2155" unicode="&#x2155;" horiz-adv-x="800" 
d="M512 125v-9l9 -54l26 -39l43 -24l60 -8l64 10l43 27l23 41l7 50v13l-6 52l-20 41l-33 26l-48 9l-16 -1l-14 -2l-12 -4l-8 -4l2 27h150v114h-259l-8 -208l114 -40l4 2l3 1l3 1h3h1l7 -1l4 -2l3 -5l1 -5v-27l-2 -5l-5 -2l-5 2l-2 5v19h-132zM187 0l576 780h-150l-576 -780
h150zM287 390v113h-66v275h-103l-120 -82l64 -93l27 18v-118h-67v-113h265z" />
    <glyph glyph-name="uni2156" unicode="&#x2156;" horiz-adv-x="800" 
d="M512 125v-9l9 -54l26 -39l43 -24l60 -8l64 10l43 27l23 41l7 50v13l-6 52l-20 41l-33 26l-48 9l-16 -1l-14 -2l-12 -4l-8 -4l2 27h150v114h-259l-8 -208l114 -40l4 2l3 1l3 1h3h1l7 -1l4 -2l3 -5l1 -5v-27l-2 -5l-5 -2l-5 2l-2 5v19h-132zM187 0l576 780h-150l-576 -780
h150zM285 503h-92l50 57l19 24l13 23l8 25l2 30v12l-5 35l-20 37l-41 30l-69 12l-59 -8l-42 -23l-26 -41l-8 -58v-8h125v24l2 5l5 2l5 -2l2 -5v-28l-1 -7l-2 -6l-3 -5l-4 -5l-129 -150v-83h270v113z" />
    <glyph glyph-name="uni2157" unicode="&#x2157;" horiz-adv-x="800" 
d="M512 125v-9l9 -54l26 -39l43 -24l60 -8l64 10l43 27l23 41l7 50v13l-6 52l-20 41l-33 26l-48 9l-16 -1l-14 -2l-12 -4l-8 -4l2 27h150v114h-259l-8 -208l114 -40l4 2l3 1l3 1h3h1l7 -1l4 -2l3 -5l1 -5v-27l-2 -5l-5 -2l-5 2l-2 5v19h-132zM187 0l576 780h-150l-576 -780
h150zM144 515h-132v-9l9 -54l26 -39l43 -24l60 -8l71 13l41 31l20 37l5 32v11l-3 29l-10 24l-14 19l-17 13l18 13l13 19l8 23l3 28v11l-5 30l-20 34l-41 28l-69 12l-59 -8l-42 -23l-26 -41l-8 -58v-8h125v24l2 5l5 2l5 -2l2 -5v-26l-1 -5l-2 -3l-4 -1l-5 -1h-42v-106h45
l5 -1l5 -2l2 -4l1 -7v-22l-2 -5l-5 -2l-5 2l-2 5v19z" />
    <glyph glyph-name="uni2158" unicode="&#x2158;" horiz-adv-x="800" 
d="M512 125v-9l9 -54l26 -39l43 -24l60 -8l64 10l43 27l23 41l7 50v13l-6 52l-20 41l-33 26l-48 9l-16 -1l-14 -2l-12 -4l-8 -4l2 27h150v114h-259l-8 -208l114 -40l4 2l3 1l3 1h3h1l7 -1l4 -2l3 -5l1 -5v-27l-2 -5l-5 -2l-5 2l-2 5v19h-132zM187 0l576 780h-150l-576 -780
h150zM120 565l24 40l-2 -40h-22zM274 390v63h16v114h-16v213h-125l-139 -234v-93h132v-63h132z" />
    <glyph glyph-name="uni2159" unicode="&#x2159;" horiz-adv-x="800" 
d="M656 106l-2 -5l-5 -2l-5 2l-2 5v25l2 5l5 2l5 -2l2 -5v-25zM765 398l-57 -2l-52 -9l-48 -20l-41 -35l-26 -40l-18 -46l-9 -48l-3 -48v-8l7 -59l24 -48l43 -32l63 -12l64 10l43 27l24 40l8 50v10l-6 48l-18 38l-29 24l-40 8l-11 -1l-14 -2l-13 -4l-10 -6l4 9l5 7l5 7l7 6
l17 9l23 7l27 3l31 1v116zM187 0l576 780h-150l-576 -780h150zM287 390v113h-66v275h-103l-120 -82l64 -93l27 18v-118h-67v-113h265z" />
    <glyph glyph-name="uni215A" unicode="&#x215a;" horiz-adv-x="800" 
d="M656 106l-2 -5l-5 -2l-5 2l-2 5v25l2 5l5 2l5 -2l2 -5v-25zM765 398l-57 -2l-52 -9l-48 -20l-41 -35l-26 -40l-18 -46l-9 -48l-3 -48v-8l7 -59l24 -48l43 -32l63 -12l64 10l43 27l24 40l8 50v10l-6 48l-18 38l-29 24l-40 8l-11 -1l-14 -2l-13 -4l-10 -6l4 9l5 7l5 7l7 6
l17 9l23 7l27 3l31 1v116zM187 0l576 780h-150l-576 -780h150zM12 515v-9l9 -54l26 -39l43 -24l60 -8l64 10l43 27l23 41l7 50v13l-6 52l-20 41l-33 26l-48 9l-16 -1l-14 -2l-12 -4l-8 -4l2 27h150v114h-259l-8 -208l114 -40l4 2l3 1l3 1h3h1l7 -1l4 -2l3 -5l1 -5v-27l-2 -5
l-5 -2l-5 2l-2 5v19h-132z" />
    <glyph glyph-name="uni215B" unicode="&#x215b;" horiz-adv-x="800" 
d="M650 -9l71 13l41 31l20 37l5 32v11l-3 29l-10 24l-14 19l-17 13l18 13l13 19l8 23l3 28v11l-5 30l-20 34l-41 28l-69 12l-69 -12l-41 -28l-20 -34l-5 -30v-11l3 -28l8 -23l13 -19l18 -13l-17 -13l-14 -19l-10 -24l-3 -29v-11l5 -32l20 -37l41 -31zM657 255l-2 -5l-5 -2
l-5 2l-2 5v29l2 5l5 2l5 -2l2 -5v-29zM657 106l-2 -5l-5 -2l-5 2l-2 5v29l2 5l5 2l5 -2l2 -5v-29zM187 0l576 780h-150l-576 -780h150zM287 390v113h-66v275h-103l-120 -82l64 -93l27 18v-118h-67v-113h265z" />
    <glyph glyph-name="uni215C" unicode="&#x215c;" horiz-adv-x="800" 
d="M650 -9l71 13l41 31l20 37l5 32v11l-3 29l-10 24l-14 19l-17 13l18 13l13 19l8 23l3 28v11l-5 30l-20 34l-41 28l-69 12l-69 -12l-41 -28l-20 -34l-5 -30v-11l3 -28l8 -23l13 -19l18 -13l-17 -13l-14 -19l-10 -24l-3 -29v-11l5 -32l20 -37l41 -31zM657 255l-2 -5l-5 -2
l-5 2l-2 5v29l2 5l5 2l5 -2l2 -5v-29zM657 106l-2 -5l-5 -2l-5 2l-2 5v29l2 5l5 2l5 -2l2 -5v-29zM187 0l576 780h-150l-576 -780h150zM144 515h-132v-9l9 -54l26 -39l43 -24l60 -8l71 13l41 31l20 37l5 32v11l-3 29l-10 24l-14 19l-17 13l18 13l13 19l8 23l3 28v11l-5 30
l-20 34l-41 28l-69 12l-59 -8l-42 -23l-26 -41l-8 -58v-8h125v24l2 5l5 2l5 -2l2 -5v-26l-1 -5l-2 -3l-4 -1l-5 -1h-42v-106h45l5 -1l5 -2l2 -4l1 -7v-22l-2 -5l-5 -2l-5 2l-2 5v19z" />
    <glyph glyph-name="uni215D" unicode="&#x215d;" horiz-adv-x="800" 
d="M650 -9l71 13l41 31l20 37l5 32v11l-3 29l-10 24l-14 19l-17 13l18 13l13 19l8 23l3 28v11l-5 30l-20 34l-41 28l-69 12l-69 -12l-41 -28l-20 -34l-5 -30v-11l3 -28l8 -23l13 -19l18 -13l-17 -13l-14 -19l-10 -24l-3 -29v-11l5 -32l20 -37l41 -31zM657 255l-2 -5l-5 -2
l-5 2l-2 5v29l2 5l5 2l5 -2l2 -5v-29zM657 106l-2 -5l-5 -2l-5 2l-2 5v29l2 5l5 2l5 -2l2 -5v-29zM187 0l576 780h-150l-576 -780h150zM12 515v-9l9 -54l26 -39l43 -24l60 -8l64 10l43 27l23 41l7 50v13l-6 52l-20 41l-33 26l-48 9l-16 -1l-14 -2l-12 -4l-8 -4l2 27h150v114
h-259l-8 -208l114 -40l4 2l3 1l3 1h3h1l7 -1l4 -2l3 -5l1 -5v-27l-2 -5l-5 -2l-5 2l-2 5v19h-132z" />
    <glyph glyph-name="uni215E" unicode="&#x215e;" horiz-adv-x="800" 
d="M650 -9l71 13l41 31l20 37l5 32v11l-3 29l-10 24l-14 19l-17 13l18 13l13 19l8 23l3 28v11l-5 30l-20 34l-41 28l-69 12l-69 -12l-41 -28l-20 -34l-5 -30v-11l3 -28l8 -23l13 -19l18 -13l-17 -13l-14 -19l-10 -24l-3 -29v-11l5 -32l20 -37l41 -31zM657 255l-2 -5l-5 -2
l-5 2l-2 5v29l2 5l5 2l5 -2l2 -5v-29zM657 106l-2 -5l-5 -2l-5 2l-2 5v29l2 5l5 2l5 -2l2 -5v-29zM187 0l576 780h-150l-576 -780h150zM7 640h114v26l46 1l-139 -277h144l120 308v82h-285v-140z" />
    <glyph glyph-name="uni215F" unicode="&#x215f;" horiz-adv-x="500" 
d="M187 0l576 780h-150l-576 -780h150zM287 390v113h-66v275h-103l-120 -82l64 -93l27 18v-118h-67v-113h265z" />
    <glyph glyph-name="arrowleft" unicode="&#x2190;" horiz-adv-x="920" 
d="M446 780l-390 -390l390 -390h231l-308 308h481v164h-481l308 308h-231z" />
    <glyph glyph-name="arrowup" unicode="&#x2191;" horiz-adv-x="920" 
d="M70 173l308 308v-481h164v481l308 -308v231l-390 390l-390 -390v-231z" />
    <glyph glyph-name="arrowright" unicode="&#x2192;" horiz-adv-x="920" 
d="M243 780l308 -308h-481v-164h481l-308 -308h231l390 390l-390 390h-231z" />
    <glyph glyph-name="arrowdown" unicode="&#x2193;" horiz-adv-x="920" 
d="M70 376l390 -390l390 390v231l-308 -308v481h-164v-481l-308 308v-231z" />
    <glyph glyph-name="uni2196" unicode="&#x2196;" horiz-adv-x="920" 
d="M234 0v501l515 -516l116 116l-516 515h501v164h-780v-780h164z" />
    <glyph glyph-name="uni2197" unicode="&#x2197;" horiz-adv-x="920" 
d="M70 616h501l-516 -515l116 -116l515 516v-501h164v780h-780v-164z" />
    <glyph glyph-name="uni2198" unicode="&#x2198;" horiz-adv-x="920" 
d="M70 0h780v780h-164v-501l-515 516l-116 -116l516 -515h-501v-164z" />
    <glyph glyph-name="uni2199" unicode="&#x2199;" horiz-adv-x="920" 
d="M850 164h-501l516 515l-116 116l-515 -516v501h-164v-780h780v164z" />
    <glyph glyph-name="minus" unicode="&#x2212;" horiz-adv-x="600" 
d="M40 308h520v164h-520v-164z" />
    <glyph glyph-name="approxequal" unicode="&#x2248;" horiz-adv-x="600" 
d="M186 602l-50 -8l-44 -21l-37 -33l-30 -39l85 -85l14 15l19 15l24 11l28 5l48 -10l48 -22l55 -22l68 -10l50 8l44 22l37 32l30 39l-85 85l-14 -15l-19 -15l-24 -11l-28 -5l-48 10l-48 22l-55 22zM186 382l-50 -8l-44 -21l-37 -33l-30 -39l85 -85l14 15l19 15l24 11l28 5
l48 -10l48 -22l55 -22l68 -10l50 8l44 22l37 32l30 39l-85 85l-14 -15l-19 -15l-24 -11l-28 -5l-48 10l-48 22l-55 22z" />
    <glyph glyph-name="notequal" unicode="&#x2260;" horiz-adv-x="600" 
d="M40 418h213l-32 -56h-181v-164h87l-56 -98h126l56 98h307v164h-213l32 56h181v164h-87l56 98h-126l-56 -98h-307v-164z" />
    <glyph glyph-name="equivalence" unicode="&#x2261;" horiz-adv-x="600" 
d="M40 308h520v164h-520v-164zM40 88h520v164h-520v-164zM40 528h520v164h-520v-164z" />
    <glyph glyph-name="lessequal" unicode="&#x2264;" horiz-adv-x="600" 
d="M560 176l-520 156v-102l520 -156v102zM560 524v182l-520 -156v-180l520 -156v182l-239 64z" />
    <glyph glyph-name="greaterequal" unicode="&#x2265;" horiz-adv-x="600" 
d="M40 74l520 156v102l-520 -156v-102zM40 396v-182l520 156v180l-520 156v-182l239 -64z" />
    <glyph glyph-name="squaremultiply" unicode="&#x22a0;" horiz-adv-x="920" 
d="M363 177l97 97l97 -97l116 116l-97 97l97 97l-116 116l-97 -97l-97 97l-116 -116l97 -97l-97 -97zM688 618v-456h-456v456h456zM850 0v780h-780v-780h780z" />
    <glyph glyph-name="house" unicode="&#x2302;" horiz-adv-x="850" 
d="M780 0v450l-355 340l-355 -340v-450h710z" />
    <glyph glyph-name="whitesquare" unicode="&#x25a1;" horiz-adv-x="920" 
d="M688 618v-456h-456v456h456zM850 0v780h-780v-780h780z" />
    <glyph glyph-name="blacksmallsquare" unicode="&#x25aa;" horiz-adv-x="680" 
d="M600 0v530h-530v-530h530z" />
    <glyph glyph-name="whitesmallsquare" unicode="&#x25ab;" horiz-adv-x="680" 
d="M438 368v-206h-206v206h206zM70 530v-530h530v530h-530z" />
    <glyph glyph-name="triagup" unicode="&#x25b2;" horiz-adv-x="930" 
d="M555 794h-180l-314 -794h182l222 581l222 -581h182z" />
    <glyph glyph-name="triagrt" unicode="&#x25ba;" horiz-adv-x="930" 
d="M874 480l-794 314v-182l581 -222l-581 -222v-182l794 314v180z" />
    <glyph glyph-name="triagdn" unicode="&#x25bc;" horiz-adv-x="930" 
d="M375 -14h180l314 794h-182l-222 -581l-222 581h-182z" />
    <glyph glyph-name="triaglf" unicode="&#x25c4;" horiz-adv-x="930" 
d="M56 480v-180l794 -314v182l-581 222l581 222v182z" />
    <glyph glyph-name="blackcircle" unicode="&#x25cf;" horiz-adv-x="920" 
d="M56 390l32 -157l86 -129l129 -86l157 -32l157 32l129 86l86 129l32 157l-32 157l-86 129l-129 86l-157 32l-157 -32l-129 -86l-86 -129z" />
    <glyph glyph-name="uni25E2" unicode="&#x25e2;" horiz-adv-x="930" 
d="M916 63l-339 783l-129 -128l254 -568l-568 254l-128 -129l783 -339l64 63z" />
    <glyph glyph-name="uni25E3" unicode="&#x25e3;" horiz-adv-x="930" 
d="M77 -1l64 -63l783 339l-128 129l-568 -254l254 568l-129 128l-339 -783z" />
    <glyph glyph-name="uni25E4" unicode="&#x25e4;" horiz-adv-x="930" 
d="M14 719l339 -783l129 128l-254 568l568 -254l128 129l-783 339l-64 -63z" />
    <glyph glyph-name="uni25E5" unicode="&#x25e5;" horiz-adv-x="930" 
d="M853 783l-64 63l-783 -339l128 -129l568 254l-254 -568l129 -128l339 783z" />
    <glyph glyph-name="whitecircle" unicode="&#x25ef;" horiz-adv-x="920" 
d="M218 390l19 94l52 77l77 52l94 19l94 -19l77 -52l52 -77l19 -94l-19 -94l-52 -77l-77 -52l-94 -19l-94 19l-77 52l-52 77zM56 390l32 -157l86 -129l129 -86l157 -32l157 32l129 86l86 129l32 157l-32 157l-86 129l-129 86l-157 32l-157 -32l-129 -86l-86 -129z" />
    <glyph glyph-name="uni2605" unicode="&#x2605;" horiz-adv-x="880" 
d="M440 180l260 -190l-99 307l260 189h-322l-99 306l-99 -306h-322l260 -189l-99 -307z" />
    <glyph glyph-name="ballotboxwithx" unicode="&#x2612;" horiz-adv-x="680" 
d="M398 328h-126v-126h126v126zM438 368v-206h-206v206h206zM70 530v-530h530v530h-530z" />
    <glyph glyph-name="uni263C" unicode="&#x263c;" horiz-adv-x="960" 
d="M521 191l8 -10l13 -22l12 -30l5 -34l5 -28l15 -22l22 -16l27 -5l8 1l7 1l6 3l7 3l-7 2l-17 7l-16 18l-8 32l1 14l3 17l3 16l1 15l-4 27l-8 20l-9 13l-5 6l172 -113l-113 172l21 -2l25 -8l25 -12l24 -19l11 -9l13 -7l13 -4l14 -1l20 3l18 8l14 15l10 20l-3 -2l-7 -4
l-11 -4l-14 -2l-25 6l-18 16l-16 22l-19 24l-21 17l-21 8l-16 4h-8l202 42l-202 42l10 8l22 13l30 12l34 5l28 5l23 15l15 22l5 27l-1 8l-1 7l-3 6l-3 7l-2 -7l-7 -17l-18 -16l-32 -8l-14 1l-17 3l-16 3l-15 1l-27 -4l-20 -8l-13 -9l-6 -5l113 172l-172 -113l2 21l8 25
l12 25l19 24l9 11l7 13l4 13l1 14l-3 20l-8 18l-15 14l-20 10l2 -3l4 -7l4 -11l2 -14l-6 -25l-16 -18l-22 -16l-24 -19l-17 -21l-8 -21l-4 -16v-8l-42 202l-42 -202l-8 10l-13 22l-12 30l-5 34l-5 28l-15 23l-22 15l-27 5l-8 -1l-7 -1l-6 -3l-7 -3l8 -2l16 -7l17 -18l7 -32
l-1 -14l-3 -17l-3 -16l-1 -15l4 -27l8 -20l9 -13l5 -6l-172 113l113 -172l-21 2l-25 8l-25 12l-24 19l-11 9l-13 7l-13 4l-14 1l-20 -3l-18 -8l-14 -15l-10 -20l3 2l7 4l11 4l14 2l25 -6l18 -16l16 -22l19 -24l21 -17l21 -8l16 -4h8l-202 -42l202 -42l-10 -8l-22 -13
l-30 -12l-34 -5l-28 -5l-22 -15l-16 -22l-5 -27l1 -8l1 -7l3 -6l3 -7l2 8l7 16l18 17l32 7l14 -1l17 -3l16 -3l15 -1l27 4l20 8l13 9l6 5l-113 -172l172 113l-2 -21l-8 -25l-12 -25l-19 -24l-9 -11l-7 -13l-4 -13l-1 -14l3 -20l8 -18l15 -14l20 -10l-2 3l-4 7l-4 11l-2 14
l6 25l16 18l22 16l24 19l17 21l8 21l4 16v8l42 -202z" />
    <glyph glyph-name="uni263E" unicode="&#x263e;" horiz-adv-x="960" 
d="M624 728l25 -1l24 -3l24 -5l23 -6l-54 32l-58 25l-63 15l-65 5l-156 -31l-127 -86l-86 -127l-31 -156l31 -156l86 -127l127 -86l156 -31l65 5l63 15l58 24l54 33l-23 -7l-24 -4l-24 -3l-25 -1l-126 27l-103 72l-70 107l-25 132l25 132l70 107l103 72z" />
    <glyph glyph-name="spade" unicode="&#x2660;" horiz-adv-x="900" 
d="M451 790h-2l-35 -47l-54 -61l-68 -64l-76 -58l-62 -45l-53 -50l-36 -60l-13 -71l14 -69l37 -55l56 -37l69 -13l68 13l56 36l44 52l32 60l3 -1l-10 -93l-16 -80l-24 -74l-32 -73h202l-32 73l-24 74l-16 80l-10 93l3 1l32 -60l44 -52l56 -36l68 -13l69 13l56 37l37 55
l14 69l-13 71l-36 60l-53 50l-62 45l-76 58l-68 64l-54 61z" />
    <glyph glyph-name="club" unicode="&#x2663;" horiz-adv-x="900" 
d="M349 0h202l-32 73l-24 74l-16 80l-10 93l3 1l32 -60l44 -52l56 -36l68 -13l69 13l56 37l37 55l14 69l-13 72l-35 57l-55 38l-71 13l-24 -2l-22 -5l-20 -7l-18 -9l-2 2l15 26l12 28l8 31l3 32l-13 70l-37 57l-56 39l-70 14l-70 -14l-56 -39l-37 -57l-13 -70l3 -32l8 -31
l12 -28l15 -26l-2 -2l-18 9l-20 7l-22 5l-24 2l-71 -13l-55 -38l-35 -57l-13 -72l14 -69l37 -55l56 -37l69 -13l68 13l56 36l44 52l32 60l3 -1l-10 -93l-16 -80l-24 -74z" />
    <glyph glyph-name="heart" unicode="&#x2665;" horiz-adv-x="900" 
d="M451 -10l35 50l54 70l68 84l76 89l55 65l53 76l40 80l16 80l-13 82l-38 65l-60 43l-80 16l-80 -13l-58 -34l-40 -50l-27 -60h-4l-27 60l-40 50l-58 34l-80 13l-80 -16l-60 -43l-38 -65l-13 -82l16 -80l40 -80l53 -76l55 -65l76 -89l68 -84l54 -70l35 -50h2z" />
    <glyph glyph-name="diamond" unicode="&#x2666;" horiz-adv-x="900" 
d="M817 390l-105 90l-98 99l-88 105l-75 106h-2l-75 -106l-88 -105l-98 -99l-105 -90l105 -89l98 -100l88 -105l75 -106h2l75 106l88 105l98 100z" />
    <glyph glyph-name="uni267B" unicode="&#x267b;" horiz-adv-x="959" 
d="M806 527l-149 -86l116 -201l35 10l37 27l29 40l11 49l-1 13l-2 12l-3 11l-4 8zM446 41v173h-232l-10 -36l5 -45l21 -44l37 -35l12 -6l12 -4l11 -2l9 -1h135zM200 598l150 -86l116 201l-26 26l-42 19l-49 5l-48 -15l-11 -7l-10 -8l-8 -9l-5 -7zM404 779l10 -2l24 -7
l30 -17l27 -31l72 -125l-41 -24l173 -31l61 166l-43 -24l-28 49l-20 26l-21 14l-24 6l-27 1h-193v-1zM186 122l-4 10l-5 25v35l13 38l12 22l25 42l24 42l11 19l41 -24l-59 166l-174 -31l42 -24l-28 -49l-13 -31l-1 -25l6 -24l12 -23l96 -168h2zM863 266l-7 -8l-18 -18
l-30 -18l-40 -8h-145v49l-113 -135l113 -136v49h57l33 4l23 12l17 18l15 22l96 167z" />
    <glyph glyph-name="uni267C" unicode="&#x267c;" horiz-adv-x="960" 
d="M64 390l31 -154l85 -126l126 -85l154 -31l154 31l126 85l85 126l31 154l-31 154l-85 126l-126 85l-154 31l-154 -31l-126 -85l-85 -126zM755 294l-75 -130l-11 -17l-13 -13l-18 -10l-26 -3h-44v-38l-88 105l88 105v-38h112l31 6l23 14l15 14l5 6zM763 407l3 -6l3 -8
l1 -10l1 -10l-9 -38l-22 -31l-28 -21l-28 -8l-90 156l116 67zM228 184l-75 130l-9 18l-5 18l1 20l10 24l22 38l-33 19l135 24l46 -129l-32 19l-56 -97l-10 -30v-27l4 -19l3 -8h-1zM322 121l-7 1l-8 1l-10 3l-9 5l-29 27l-15 34l-4 35l7 28h180v-134h-105zM394 694h150l21 -1
l18 -4l17 -11l15 -21l22 -38l33 19l-47 -129l-134 24l32 19l-56 97l-21 23l-23 14l-19 6l-8 1v1zM292 645l4 6l6 6l7 6l9 6l37 11l38 -3l33 -15l20 -20l-90 -156l-116 67z" />
    <glyph glyph-name="uni267D" unicode="&#x267d;" horiz-adv-x="960" 
d="M98 390l28 141l78 115l115 78l141 28l141 -28l115 -78l78 -115l28 -141l-28 -141l-78 -115l-115 -78l-141 -28l-141 28l-115 78l-78 115zM60 390l31 -156l86 -127l127 -86l156 -31l156 31l127 86l86 127l31 156l-31 156l-86 127l-127 86l-156 31l-156 -31l-127 -86
l-86 -127zM754 295l-5 -6l-15 -14l-23 -14l-31 -6h-112v38l-88 -105l88 -105v38h44l26 3l18 10l13 13l11 17l75 130zM710 498l-116 -67l90 -156l28 8l28 21l22 31l9 38l-1 10l-1 10l-3 8l-3 6zM229 184l-3 8l-4 19v27l10 30l56 97l32 -19l-46 129l-135 -24l33 -19l-22 -38
l-10 -24l-1 -20l5 -18l9 -18l75 -130h1zM427 121v134h-180l-7 -28l4 -35l15 -34l29 -27l9 -5l10 -3l8 -1l7 -1h105zM394 693l8 -1l19 -6l23 -14l21 -23l56 -97l-32 -19l134 -24l47 129l-33 -19l-22 38l-15 21l-17 11l-18 4l-21 1h-150v-1zM240 553l116 -67l90 156l-20 20
l-33 15l-38 3l-37 -11l-9 -6l-7 -6l-6 -6l-4 -6z" />
    <glyph glyph-name="mediumwhitecircle" unicode="&#x26aa;" horiz-adv-x="670" 
d="M218 265l9 46l25 37l37 25l46 9l46 -9l37 -25l25 -37l9 -46l-9 -46l-25 -37l-37 -25l-46 -9l-46 9l-37 25l-25 37zM56 265l22 -109l60 -88l88 -60l109 -22l109 22l88 60l60 88l22 109l-22 109l-60 88l-88 60l-109 22l-109 -22l-88 -60l-60 -88z" />
    <glyph glyph-name="mediumblackcircle" unicode="&#x26ab;" horiz-adv-x="670" 
d="M56 265l22 -109l60 -88l88 -60l109 -22l109 22l88 60l60 88l22 109l-22 109l-60 88l-88 60l-109 22l-109 -22l-88 -60l-60 -88z" />
    <glyph glyph-name="anglebracketleft" unicode="&#x3008;" horiz-adv-x="380" 
d="M368 840h-191l-162 -480l162 -480h191l-162 480z" />
    <glyph glyph-name="anglebracketright" unicode="&#x3009;" horiz-adv-x="380" 
d="M12 -120h191l162 480l-162 480h-191l162 -480z" />
    <glyph glyph-name="fi" unicode="&#xe38c;" horiz-adv-x="700" 
d="M655 780h-190v-190h190v190zM468 0h184v530h-184v-530zM279 585l5 36l15 22l22 10l29 3l13 -1l14 -1l12 -2l7 -2v150l-11 4l-18 5l-26 4l-34 1l-87 -11l-67 -35l-43 -65l-15 -98v-75h-80v-160h80v-370h184v370h107v160h-107v55z" />
    <glyph glyph-name="fl" unicode="&#xe38d;" horiz-adv-x="700" 
d="M468 0h184v800h-184v-800zM279 585l5 36l15 22l22 10l29 3l13 -1l14 -1l12 -2l7 -2v150l-11 4l-18 5l-26 4l-34 1l-87 -11l-67 -35l-43 -65l-15 -98v-75h-80v-160h80v-370h184v370h107v160h-107v55z" />
    <glyph glyph-name="invertedbreve" unicode="&#xe411;" horiz-adv-x="499" 
d="M250 794l-93 -15l-61 -43l-33 -65l-8 -81h130l6 34l14 20l21 9l24 3l24 -3l21 -9l14 -20l6 -34h130l-8 81l-33 65l-61 43z" />
    <glyph glyph-name="doublegrave" unicode="&#xe412;" horiz-adv-x="500" 
d="M183 780l82 -190h142l-62 190h-162zM-17 780l111 -190h142l-91 190h-162z" />
    <glyph glyph-name="caronSlovak" unicode="&#xe413;" horiz-adv-x="500" 
d="M300 800v-210h80l25 210h-105z" />
    <glyph glyph-name="dotbelow" unicode="&#xe415;" horiz-adv-x="602" 
d="M330 -40h-160v-160h160v160z" />
    <glyph glyph-name="altcedilla" unicode="&#xe416;" horiz-adv-x="602" 
d="M282 -116l-2 -9l-7 -7l-14 -4l-21 -2l-20 1l-19 4l-17 5l-14 7l-27 -69l18 -9l25 -9l31 -6l37 -2l55 6l39 18l23 28l8 39l-9 39l-25 28l-36 16l-46 5l-23 -1l-19 -3l-15 -3l-12 -3v-54l6 2l11 2l14 2l15 1l20 -1l14 -5l7 -7z" />
    <glyph glyph-name="grave.cap" unicode="&#xe421;" horiz-adv-x="500" 
d="M95 950l64 -110h182l-53 110h-193z" />
    <glyph glyph-name="acute.cap" unicode="&#xe422;" horiz-adv-x="500" 
d="M212 950l-53 -110h182l64 110h-193z" />
    <glyph glyph-name="circumflex.cap" unicode="&#xe423;" horiz-adv-x="500" 
d="M190 840l60 39l60 -39h165l-130 110h-190l-130 -110h165z" />
    <glyph glyph-name="tilde.cap" unicode="&#xe424;" horiz-adv-x="500" 
d="M350 950l-3 -14l-7 -10l-10 -5l-13 -1l-30 7l-35 16l-41 16l-46 7l-41 -6l-35 -21l-25 -39l-9 -60h95l3 14l7 10l10 5l13 1l30 -7l36 -16l40 -16l46 -7l41 6l35 21l25 39l9 60h-95z" />
    <glyph glyph-name="macron.cap" unicode="&#xe425;" horiz-adv-x="500" 
d="M90 840h320v110h-320v-110z" />
    <glyph glyph-name="breve.cap" unicode="&#xe426;" horiz-adv-x="500" 
d="M250 824l98 10l60 28l29 40l8 48h-125l-4 -13l-12 -9l-22 -6l-32 -2l-32 2l-22 6l-12 9l-4 13h-125l8 -48l30 -40l59 -28z" />
    <glyph glyph-name="invertedbreve.cap" unicode="&#xe427;" horiz-adv-x="500" 
d="M250 966l-98 -10l-59 -28l-30 -40l-8 -48h125l4 13l12 10l22 5l32 2l32 -2l22 -5l12 -10l4 -13h125l-8 48l-29 40l-60 28z" />
    <glyph glyph-name="dotaccent.cap" unicode="&#xe428;" horiz-adv-x="500" 
d="M325 950h-150v-110h150v110z" />
    <glyph glyph-name="dieresis.cap" unicode="&#xe429;" horiz-adv-x="500" 
d="M415 950h-150v-110h150v110zM235 950h-150v-110h150v110z" />
    <glyph glyph-name="ring.cap" unicode="&#xe42a;" horiz-adv-x="500" 
d="M201 855l4 19l10 16l16 10l19 4l19 -4l16 -10l10 -16l4 -19l-4 -19l-10 -16l-16 -10l-19 -4l-19 4l-16 10l-10 16zM141 855l9 -42l23 -35l35 -23l42 -9l42 9l35 23l23 35l9 42l-9 42l-23 35l-35 23l-42 9l-42 -9l-35 -23l-23 -35z" />
    <glyph glyph-name="hungarumlaut.cap" unicode="&#xe42b;" horiz-adv-x="500" 
d="M312 950l-53 -110h162l64 110h-173zM122 950l-43 -110h162l54 110h-173z" />
    <glyph glyph-name="doublegrave.cap" unicode="&#xe42c;" horiz-adv-x="500" 
d="M15 950l64 -110h162l-53 110h-173zM205 950l54 -110h162l-43 110h-173z" />
    <glyph glyph-name="caron.cap" unicode="&#xe42d;" horiz-adv-x="500" 
d="M25 950l130 -110h190l130 110h-165l-60 -40l-60 40h-165z" />
    <glyph glyph-name="commaaccent.cap" unicode="&#xe42e;" horiz-adv-x="500" 
d="M175 840h150v60h-81l13 15l18 9l23 5l27 1v40l-66 -7l-46 -20l-29 -34l-9 -49v-20z" />
    <glyph glyph-name="exclamdown.cap" unicode="&#xe441;" horiz-adv-x="280" 
d="M45 590h190v190h-190v-190zM255 0l-50 540h-130l-50 -540h230z" />
    <glyph glyph-name="questiondown.cap" unicode="&#xe444;" horiz-adv-x="510" 
d="M165 590h190v190h-190v-190zM250 148l-23 4l-15 10l-8 16l-3 22l22 58l46 70l44 91l12 121h-130l-35 -105l-61 -66l-58 -69l-26 -115l10 -70l37 -64l72 -47l116 -18l112 16l74 47l41 80l13 112v19h-186l-3 -53l-9 -35l-17 -18z" />
    <glyph glyph-name="guilsinglleft.cap" unicode="&#xe451;" horiz-adv-x="320" 
d="M270 625l-220 -145v-180l220 -145v160l-97 75l97 75v160z" />
    <glyph glyph-name="guilsinglright.cap" unicode="&#xe452;" horiz-adv-x="320" 
d="M50 465l97 -75l-97 -75v-160l220 145v180l-220 145v-160z" />
    <glyph glyph-name="guillemotleft.cap" unicode="&#xe453;" horiz-adv-x="580" 
d="M530 625l-220 -145v-180l220 -145v160l-97 75l97 75v160zM270 625l-220 -145v-180l220 -145v160l-97 75l97 75v160z" />
    <glyph glyph-name="guillemotright.cap" unicode="&#xe454;" horiz-adv-x="580" 
d="M50 465l97 -75l-97 -75v-160l220 145v180l-220 145v-160zM310 465l97 -75l-97 -75v-160l220 145v180l-220 145v-160z" />
    <glyph glyph-name="slash.cap" unicode="&#xe461;" horiz-adv-x="400" 
d="M194 0l192 780h-180l-192 -780h180z" />
    <glyph glyph-name="backslash.cap" unicode="&#xe462;" horiz-adv-x="400" 
d="M14 780l192 -780h180l-192 780h-180z" />
    <glyph glyph-name="bar.cap" unicode="&#xe463;" horiz-adv-x="280" 
d="M50 0h180v780h-180v-780z" />
    <glyph glyph-name="doublebar.cap" unicode="&#xe464;" horiz-adv-x="500" 
d="M270 0h180v780h-180v-780zM50 0h180v780h-180v-780z" />
    <glyph glyph-name="brokenbar.cap" unicode="&#xe465;" horiz-adv-x="280" 
d="M50 0h180v370h-180v-370zM50 410h180v370h-180v-370z" />
    <glyph glyph-name="bullet.cap" unicode="&#xe466;" horiz-adv-x="460" 
d="M400 560h-340v-340h340v340z" />
    <glyph glyph-name="onethirdemdash" unicode="&#xe471;" horiz-adv-x="333" 
d="M293 270v160h-253v-160h253z" />
    <glyph glyph-name="threequarteremdash" unicode="&#xe472;" horiz-adv-x="750" 
d="M40 270h670v160h-670v-160z" />
    <glyph glyph-name="periodcentered.cap" unicode="&#xe481;" horiz-adv-x="280" 
d="M235 485h-190v-190h190v190z" />
    <glyph glyph-name="hyphen.cap" unicode="&#xe482;" horiz-adv-x="320" 
d="M40 310h280v160h-280v-160z" />
    <glyph glyph-name="onethirdemdash.cap" unicode="&#xe483;" horiz-adv-x="333" 
d="M293 310v160h-253v-160h253z" />
    <glyph glyph-name="endash.cap" unicode="&#xe484;" horiz-adv-x="500" 
d="M40 310h420v160h-420v-160z" />
    <glyph glyph-name="threequarteremdash.cap" unicode="&#xe485;" horiz-adv-x="750" 
d="M40 310h670v160h-670v-160z" />
    <glyph glyph-name="emdash.cap" unicode="&#xe486;" horiz-adv-x="1000" 
d="M40 310h920v160h-920v-160z" />
    <glyph glyph-name="figuredash.cap" unicode="&#xe487;" horiz-adv-x="600" 
d="M40 310h520v160h-520v-160z" />
    <glyph glyph-name="uni2015.cap" unicode="&#xe488;" horiz-adv-x="1200" 
d="M40 310h1120v160h-1120v-160z" />
    <glyph glyph-name="parenleft.cap" unicode="&#xe491;" horiz-adv-x="380" 
d="M40 380l10 -125l26 -104l37 -85l46 -66h191l-43 70l-40 89l-30 104l-12 117v20l12 117l30 105l40 88l43 70h-191l-46 -66l-37 -85l-26 -104l-10 -125v-20z" />
    <glyph glyph-name="parenright.cap" unicode="&#xe492;" horiz-adv-x="380" 
d="M340 400l-10 125l-25 104l-38 85l-46 66h-191l43 -70l40 -88l30 -105l12 -117v-20l-12 -117l-30 -104l-40 -89l-43 -70h191l46 66l38 85l25 104l10 125v20z" />
    <glyph glyph-name="bracketleft.cap" unicode="&#xe493;" horiz-adv-x="380" 
d="M55 780v-780h295v160h-111v460h111v160h-295z" />
    <glyph glyph-name="bracketright.cap" unicode="&#xe494;" horiz-adv-x="380" 
d="M325 0v780h-295v-160h111v-460h-111v-160h295z" />
    <glyph glyph-name="braceleft.cap" unicode="&#xe495;" horiz-adv-x="380" 
d="M350 780h-30l-94 -10l-71 -32l-45 -59l-15 -89v-40l-4 -36l-13 -25l-22 -14l-32 -5v-160l32 -5l22 -14l13 -25l4 -36v-40l15 -89l45 -58l71 -33l94 -10h30v160l-31 4l-21 13l-14 23l-5 32v38l-4 40l-12 33l-19 26l-27 21l27 20l19 27l12 33l4 40v30l4 36l13 25l22 14
l32 5v160z" />
    <glyph glyph-name="braceright.cap" unicode="&#xe496;" horiz-adv-x="380" 
d="M30 620l32 -5l22 -14l13 -25l4 -36v-30l4 -40l12 -33l19 -27l26 -20l-26 -21l-19 -26l-12 -33l-4 -40v-38l-5 -32l-14 -23l-22 -13l-30 -4v-160h30l94 10l71 33l45 58l15 89v40l4 36l13 25l22 14l32 5v160l-32 5l-22 14l-13 25l-4 36v40l-15 89l-45 59l-71 32l-94 10h-30
v-160z" />
    <glyph glyph-name="anglebracketleft.cap" unicode="&#xe497;" horiz-adv-x="380" 
d="M348 780h-191l-137 -390l137 -390h191l-137 390z" />
    <glyph glyph-name="anglebracketright.cap" unicode="&#xe498;" horiz-adv-x="380" 
d="M169 390l-137 -390h191l137 390l-137 390h-191z" />
    <glyph glyph-name="lowline" unicode="&#xe511;" horiz-adv-x="320" 
d="M40 0h240v160h-240v-160z" />
    <glyph glyph-name="underscoremonospace" unicode="&#xe512;" horiz-adv-x="600" 
d="M40 -200h520v160h-520v-160z" />
    <glyph glyph-name="at.cap" unicode="&#xe513;" horiz-adv-x="1000" 
d="M483 287l-29 6l-20 17l-12 28l-4 39v36l4 39l12 28l20 17l29 6l25 -4l20 -9l14 -12l10 -12v-142l-10 -12l-14 -12l-20 -9zM517 4l-151 22l-117 68l-77 114l-27 162v40l28 162l76 114l116 68l147 22h6l121 -11l107 -41l77 -84l30 -139v-30l-6 -87l-23 -59l-43 -33l-69 -14
v218l10 134h-145l-11 -56l-23 28l-30 22l-36 15l-45 5l-79 -17l-57 -47l-34 -73l-12 -94v-36l12 -94l34 -73l57 -47l79 -17l45 5l36 14l30 22l23 28l11 -55h123l108 15l88 51l58 95l21 150v30l-37 182l-101 121l-147 69l-175 21l-195 -31l-155 -93l-103 -151l-37 -209v-40
l37 -209l103 -151l157 -93l198 -31l92 5l98 20l104 42l107 70l-68 92l-76 -48l-80 -34l-85 -22l-89 -7h-6z" />
    <glyph glyph-name="zero.inf" unicode="&#xe571;" 
d="M160 -88l-3 -8l-7 -3l-7 3l-3 8v165l3 8l7 3l7 -3l3 -8v-165zM288 -92v173l-10 47l-27 37l-44 24l-57 9l-57 -9l-44 -24l-27 -37l-10 -47v-173l10 -47l27 -37l44 -24l57 -9l57 9l44 24l27 37z" />
    <glyph glyph-name="one.inf" unicode="&#xe572;" 
d="M287 -200v113h-66v275h-103l-120 -82l64 -93l27 18v-118h-67v-113h265z" />
    <glyph glyph-name="two.inf" unicode="&#xe573;" 
d="M285 -87h-92l50 57l19 24l13 23l8 25l2 30v12l-5 35l-20 37l-41 30l-69 12l-59 -8l-42 -23l-26 -41l-8 -58v-8h125v24l2 5l5 2l5 -2l2 -5v-28l-1 -7l-2 -6l-3 -5l-4 -5l-129 -150v-83h270v113z" />
    <glyph glyph-name="three.inf" unicode="&#xe574;" 
d="M144 -75h-132v-9l9 -54l26 -39l43 -24l60 -8l71 13l41 31l20 37l5 32v11l-3 29l-10 24l-14 19l-17 13l18 13l13 19l8 23l3 28v11l-5 30l-20 34l-41 28l-69 12l-59 -8l-42 -23l-26 -41l-8 -58v-8h125v24l2 5l5 2l5 -2l2 -5v-26l-1 -5l-2 -3l-4 -1l-5 -1h-42v-106h45l5 -1
l5 -2l2 -4l1 -7v-22l-2 -5l-5 -2l-5 2l-2 5v19z" />
    <glyph glyph-name="four.inf" unicode="&#xe575;" 
d="M120 -25l24 40l-2 -40h-22zM274 -200v63h16v114h-16v213h-125l-139 -234v-93h132v-63h132z" />
    <glyph glyph-name="five.inf" unicode="&#xe576;" 
d="M12 -75v-9l9 -54l26 -39l43 -24l60 -8l64 10l43 27l23 41l7 50v13l-6 52l-20 41l-33 26l-48 9l-16 -1l-14 -2l-12 -4l-8 -4l2 27h150v114h-259l-8 -208l114 -40l4 2l3 1l3 1h3h1l7 -1l4 -3l3 -4l1 -5v-27l-2 -5l-5 -2l-5 2l-2 5v19h-132z" />
    <glyph glyph-name="six.inf" unicode="&#xe577;" 
d="M156 -94l-2 -5l-5 -2l-5 2l-2 5v25l2 5l5 2l5 -2l2 -5v-25zM265 198l-57 -2l-52 -9l-48 -20l-41 -35l-26 -40l-18 -46l-9 -48l-3 -48v-8l7 -59l24 -48l43 -32l63 -12l64 10l43 27l24 40l8 50v10l-6 48l-18 38l-29 24l-40 8l-11 -1l-14 -2l-13 -4l-10 -6l4 9l5 7l5 7l7 6
l17 9l23 7l27 3l31 1v116z" />
    <glyph glyph-name="seven.inf" unicode="&#xe578;" 
d="M7 50h114v26l46 1l-139 -277h144l120 308v82h-285v-140z" />
    <glyph glyph-name="eight.inf" unicode="&#xe579;" 
d="M150 -209l71 13l41 31l20 37l5 32v11l-3 29l-10 24l-14 19l-17 13l18 13l13 19l8 23l3 28v11l-5 30l-20 34l-41 28l-69 12l-69 -12l-41 -28l-20 -34l-5 -30v-11l3 -28l8 -23l13 -19l18 -13l-17 -13l-14 -19l-10 -24l-3 -29v-11l5 -32l20 -37l41 -31zM157 55l-2 -5l-5 -2
l-5 2l-2 5v29l2 5l5 2l5 -2l2 -5v-29zM157 -94l-2 -5l-5 -2l-5 2l-2 5v29l2 5l5 2l5 -2l2 -5v-29z" />
    <glyph glyph-name="nine.inf" unicode="&#xe57a;" 
d="M144 83l2 5l5 2l5 -2l2 -5v-25l-2 -5l-5 -2l-5 2l-2 5v25zM33 -209l57 2l54 9l47 20l42 35l26 40l18 46l9 48l3 48v8l-7 59l-24 48l-43 32l-63 12l-64 -10l-43 -27l-24 -40l-8 -50v-10l6 -48l18 -38l29 -24l40 -8l11 1l14 2l13 4l10 6l-4 -9l-5 -7l-5 -7l-7 -6l-17 -9
l-24 -7l-27 -3l-32 -1v-116z" />
    <glyph glyph-name="plus.inf" unicode="&#xe57b;" 
d="M93 128v-76h-76v-114h76v-76h114v76h76v114h-76v76h-114z" />
    <glyph glyph-name="minus.inf" unicode="&#xe57c;" 
d="M17 -62h266v114h-266v-114z" />
    <glyph glyph-name="equal.inf" unicode="&#xe57d;" 
d="M17 -138h266v114h-266v-114zM17 14h266v114h-266v-114z" />
    <glyph glyph-name="parenleft.inf" unicode="&#xe57e;" horiz-adv-x="200" 
d="M5 -10l6 -63l15 -55l20 -42l23 -30h130l-21 31l-21 43l-15 53l-6 63v10l6 63l15 53l21 43l21 31h-130l-23 -30l-20 -42l-15 -55l-6 -63v-10z" />
    <glyph glyph-name="parenright.inf" unicode="&#xe57f;" horiz-adv-x="200" 
d="M195 0l-6 63l-15 55l-20 42l-23 30h-130l21 -31l21 -43l15 -53l6 -63v-10l-6 -63l-15 -53l-21 -43l-21 -31h130l23 30l20 42l15 55l6 63v10z" />
    <glyph glyph-name="Anocross" unicode="&#xe731;" horiz-adv-x="650" 
d="M195 780l-186 -780h204l112 560l113 -560h203l-186 780h-260z" />
    <glyph glyph-name="blacksquare" unicode="&#xe740;" horiz-adv-x="920" 
d="M850 0v780h-780v-780h780z" />
    <glyph glyph-name="idotaccent" unicode="&#xe785;" horiz-adv-x="280" 
d="M235 780h-190v-190h190v190zM48 0h184v530h-184v-530z" />
    <glyph glyph-name="interrobangdown" unicode="&#xe935;" horiz-adv-x="510" 
d="M201 12l2 25l7 23l9 22l11 22l-3 -150l-12 9l-8 12l-5 17zM165 340h190v190h-190v-190zM15 -25l10 -66l37 -61l72 -45l116 -17l112 16l74 47l41 80l13 112v19h-166l-2 -37l-5 -29l-9 -21l-13 -14l-7 331h-93l-34 -83l-62 -57l-58 -65z" />
    <glyph glyph-name="interrobangdown.cap" unicode="&#xe99b;" horiz-adv-x="510" 
d="M191 205l2 21l7 22l10 23l13 25l-3 -141l-13 9l-9 11l-5 14zM165 590h190v190h-190v-190zM15 185l10 -70l37 -64l72 -47l116 -18l112 16l74 47l41 80l13 112v19h-166l-2 -40l-6 -30l-11 -22l-15 -13l-8 385h-87l-35 -105l-61 -66l-58 -69z" />
    <glyph glyph-name="registered.cap" unicode="&#xe99c;" horiz-adv-x="920" 
d="M409 415v91h59l16 -2l14 -7l9 -13l4 -21v-5l-4 -21l-9 -13l-14 -7l-16 -2h-59zM409 296h52l42 -141h173l-66 164l26 20l21 29l14 38l5 49v11l-15 80l-39 48l-55 24l-60 7h-262v-470h164v141zM116 390l27 134l74 109l109 74l134 27l134 -27l109 -74l74 -109l27 -134
l-27 -134l-74 -109l-109 -74l-134 -27l-134 27l-109 74l-74 109zM56 390l32 -157l86 -129l129 -86l157 -32l157 32l129 86l86 129l32 157l-32 157l-86 129l-129 86l-157 32l-157 -32l-129 -86l-86 -129z" />
    <glyph glyph-name="period.T" unicode="&#xf182;" 
d="M245 190h-190v-190h190v190z" />
    <glyph glyph-name="comma.T" unicode="&#xf183;" 
d="M245 190h-190v-190h94l-13 -26l-20 -19l-27 -11l-34 -4v-90l82 12l60 36l36 60l12 82v150z" />
    <glyph glyph-name="colon.T" unicode="&#xf184;" 
d="M245 485h-190v-190h190v190zM245 190h-190v-190h190v190z" />
    <glyph glyph-name="semicolon.T" unicode="&#xf185;" 
d="M245 485h-190v-190h190v190zM245 190h-190v-190h94l-13 -26l-20 -19l-27 -11l-34 -4v-90l82 12l60 36l36 60l12 82v150z" />
    <glyph glyph-name="onesixteenth" unicode="&#xf215;" horiz-adv-x="1100" 
d="M956 106l-2 -5l-5 -2l-5 2l-2 5v25l2 5l5 2l5 -2l2 -5v-25zM1065 398l-57 -2l-52 -9l-48 -20l-41 -35l-26 -40l-18 -46l-9 -48l-3 -48v-8l7 -59l24 -48l43 -32l63 -12l64 10l43 27l24 40l8 50v10l-6 48l-18 38l-29 24l-40 8l-11 -1l-14 -2l-13 -4l-10 -6l4 9l5 7l5 7l7 6
l17 9l23 7l27 3l31 1v116zM787 0v113h-66v275h-103l-120 -82l64 -93l27 18v-118h-67v-113h265zM187 0l576 780h-150l-576 -780h150zM287 390v113h-66v275h-103l-120 -82l64 -93l27 18v-118h-67v-113h265z" />
    <glyph glyph-name="threesixteenths" unicode="&#xf216;" horiz-adv-x="1100" 
d="M956 106l-2 -5l-5 -2l-5 2l-2 5v25l2 5l5 2l5 -2l2 -5v-25zM1065 398l-57 -2l-52 -9l-48 -20l-41 -35l-26 -40l-18 -46l-9 -48l-3 -48v-8l7 -59l24 -48l43 -32l63 -12l64 10l43 27l24 40l8 50v10l-6 48l-18 38l-29 24l-40 8l-11 -1l-14 -2l-13 -4l-10 -6l4 9l5 7l5 7l7 6
l17 9l23 7l27 3l31 1v116zM787 0v113h-66v275h-103l-120 -82l64 -93l27 18v-118h-67v-113h265zM187 0l576 780h-150l-576 -780h150zM144 515h-132v-9l9 -54l26 -39l43 -24l60 -8l71 13l41 31l20 37l5 32v11l-3 29l-10 24l-14 19l-17 13l18 13l13 19l8 23l3 28v11l-5 30
l-20 34l-41 28l-69 12l-59 -8l-42 -23l-26 -41l-8 -58v-8h125v24l2 5l5 2l5 -2l2 -5v-26l-1 -5l-2 -3l-4 -1l-5 -1h-42v-106h45l5 -1l5 -2l2 -4l1 -7v-22l-2 -5l-5 -2l-5 2l-2 5v19z" />
    <glyph glyph-name="fivesixteenths" unicode="&#xf217;" horiz-adv-x="1100" 
d="M956 106l-2 -5l-5 -2l-5 2l-2 5v25l2 5l5 2l5 -2l2 -5v-25zM1065 398l-57 -2l-52 -9l-48 -20l-41 -35l-26 -40l-18 -46l-9 -48l-3 -48v-8l7 -59l24 -48l43 -32l63 -12l64 10l43 27l24 40l8 50v10l-6 48l-18 38l-29 24l-40 8l-11 -1l-14 -2l-13 -4l-10 -6l4 9l5 7l5 7l7 6
l17 9l23 7l27 3l31 1v116zM787 0v113h-66v275h-103l-120 -82l64 -93l27 18v-118h-67v-113h265zM187 0l576 780h-150l-576 -780h150zM12 515v-9l9 -54l26 -39l43 -24l60 -8l64 10l43 27l23 41l7 50v13l-6 52l-20 41l-33 26l-48 9l-16 -1l-14 -2l-12 -4l-8 -4l2 27h150v114
h-259l-8 -208l114 -40l4 2l3 1l3 1h3h1l7 -1l4 -2l3 -5l1 -5v-27l-2 -5l-5 -2l-5 2l-2 5v19h-132z" />
    <glyph glyph-name="sevensixteenths" unicode="&#xf218;" horiz-adv-x="1100" 
d="M956 106l-2 -5l-5 -2l-5 2l-2 5v25l2 5l5 2l5 -2l2 -5v-25zM1065 398l-57 -2l-52 -9l-48 -20l-41 -35l-26 -40l-18 -46l-9 -48l-3 -48v-8l7 -59l24 -48l43 -32l63 -12l64 10l43 27l24 40l8 50v10l-6 48l-18 38l-29 24l-40 8l-11 -1l-14 -2l-13 -4l-10 -6l4 9l5 7l5 7l7 6
l17 9l23 7l27 3l31 1v116zM787 0v113h-66v275h-103l-120 -82l64 -93l27 18v-118h-67v-113h265zM187 0l576 780h-150l-576 -780h150zM7 640h114v26l46 1l-139 -277h144l120 308v82h-285v-140z" />
    <glyph glyph-name="ninesixteenths" unicode="&#xf219;" horiz-adv-x="1100" 
d="M956 106l-2 -5l-5 -2l-5 2l-2 5v25l2 5l5 2l5 -2l2 -5v-25zM1065 398l-57 -2l-52 -9l-48 -20l-41 -35l-26 -40l-18 -46l-9 -48l-3 -48v-8l7 -59l24 -48l43 -32l63 -12l64 10l43 27l24 40l8 50v10l-6 48l-18 38l-29 24l-40 8l-11 -1l-14 -2l-13 -4l-10 -6l4 9l5 7l5 7l7 6
l17 9l23 7l27 3l31 1v116zM787 0v113h-66v275h-103l-120 -82l64 -93l27 18v-118h-67v-113h265zM187 0l576 780h-150l-576 -780h150zM144 673l2 5l5 2l5 -2l2 -5v-25l-2 -5l-5 -2l-5 2l-2 5v25zM33 381l57 2l54 9l47 20l42 35l26 40l18 46l9 48l3 48v8l-7 59l-24 48l-43 32
l-63 12l-64 -10l-43 -27l-24 -40l-8 -50v-10l6 -48l18 -38l29 -24l40 -8l11 1l14 2l13 4l10 6l-4 -9l-5 -7l-5 -7l-7 -6l-17 -9l-24 -7l-27 -3l-32 -1v-116z" />
    <glyph glyph-name="elevensixteenths" unicode="&#xf220;" horiz-adv-x="1400" 
d="M1256 106l-2 -5l-5 -2l-5 2l-2 5v25l2 5l5 2l5 -2l2 -5v-25zM1365 398l-57 -2l-52 -9l-48 -20l-41 -35l-26 -40l-18 -46l-9 -48l-3 -48v-8l7 -59l24 -48l43 -32l63 -12l64 10l43 27l24 40l8 50v10l-6 48l-18 38l-29 24l-40 8l-11 -1l-14 -2l-13 -4l-10 -6l4 9l5 7l5 7
l7 6l17 9l23 7l27 3l31 1v116zM1087 0v113h-66v275h-103l-120 -82l64 -93l27 18v-118h-67v-113h265zM487 0l576 780h-150l-576 -780h150zM587 390v113h-66v275h-103l-120 -82l64 -93l27 18v-118h-67v-113h265zM287 390v113h-66v275h-103l-120 -82l64 -93l27 18v-118h-67
v-113h265z" />
    <glyph glyph-name="thirteensixteenths" unicode="&#xf221;" horiz-adv-x="1400" 
d="M1256 106l-2 -5l-5 -2l-5 2l-2 5v25l2 5l5 2l5 -2l2 -5v-25zM1365 398l-57 -2l-52 -9l-48 -20l-41 -35l-26 -40l-18 -46l-9 -48l-3 -48v-8l7 -59l24 -48l43 -32l63 -12l64 10l43 27l24 40l8 50v10l-6 48l-18 38l-29 24l-40 8l-11 -1l-14 -2l-13 -4l-10 -6l4 9l5 7l5 7
l7 6l17 9l23 7l27 3l31 1v116zM1087 0v113h-66v275h-103l-120 -82l64 -93l27 18v-118h-67v-113h265zM487 0l576 780h-150l-576 -780h150zM444 515h-132v-9l9 -54l26 -39l43 -24l60 -8l71 13l41 31l20 37l5 32v11l-3 29l-10 24l-14 19l-17 13l18 13l13 19l8 23l3 28v11l-5 30
l-20 34l-41 28l-69 12l-59 -8l-42 -23l-26 -41l-8 -58v-8h125v24l2 5l5 2l5 -2l2 -5v-26l-1 -5l-2 -3l-4 -1l-5 -1h-42v-106h45l5 -1l5 -2l2 -4l1 -7v-22l-2 -5l-5 -2l-5 2l-2 5v19zM287 390v113h-66v275h-103l-120 -82l64 -93l27 18v-118h-67v-113h265z" />
    <glyph glyph-name="fifteensixteenths" unicode="&#xf222;" horiz-adv-x="1400" 
d="M1256 106l-2 -5l-5 -2l-5 2l-2 5v25l2 5l5 2l5 -2l2 -5v-25zM1365 398l-57 -2l-52 -9l-48 -20l-41 -35l-26 -40l-18 -46l-9 -48l-3 -48v-8l7 -59l24 -48l43 -32l63 -12l64 10l43 27l24 40l8 50v10l-6 48l-18 38l-29 24l-40 8l-11 -1l-14 -2l-13 -4l-10 -6l4 9l5 7l5 7
l7 6l17 9l23 7l27 3l31 1v116zM1087 0v113h-66v275h-103l-120 -82l64 -93l27 18v-118h-67v-113h265zM487 0l576 780h-150l-576 -780h150zM312 515v-9l9 -54l26 -39l43 -24l60 -8l64 10l43 27l23 41l7 50v13l-6 52l-20 41l-33 26l-48 9l-16 -1l-14 -2l-12 -4l-8 -4l2 27h150
v114h-259l-8 -208l114 -40l4 2l3 1l3 1h3h1l7 -1l4 -2l3 -5l1 -5v-27l-2 -5l-5 -2l-5 2l-2 5v19h-132zM287 390v113h-66v275h-103l-120 -82l64 -93l27 18v-118h-67v-113h265z" />
    <glyph glyph-name="commaaccent" unicode="&#xf6c3;" horiz-adv-x="602" 
d="M330 -40h-160v-100h88l-14 -14l-19 -10l-25 -5l-30 -1v-60l71 7l50 22l29 41l10 60v60z" />
    </font>
</defs>
</svg>
